<svg width="772" height="547" viewBox="0 0 772 547" fill="none" xmlns="http://www.w3.org/2000/svg">
<circle cx="6.25933" cy="6.25933" r="6.25933" transform="matrix(-1 0 0 1 274.141 72.8888)" fill="url(#paint0_radial_273_1462)"/>
<circle opacity="0.6" cx="6.25933" cy="6.25933" r="6.25933" transform="matrix(-1 0 0 1 483.309 16.3336)" fill="url(#paint1_radial_273_1462)"/>
<circle cx="6.25933" cy="6.25933" r="6.25933" transform="matrix(-1 0 0 1 351.392 -0.00012207)" fill="url(#paint2_radial_273_1462)"/>
<circle cx="6.25933" cy="6.25933" r="6.25933" transform="matrix(-1 0 0 1 600.519 85)" fill="url(#paint3_radial_273_1462)"/>
<circle cx="6.25933" cy="6.25933" r="6.25933" transform="matrix(-1 0 0 1 157.519 200.444)" fill="url(#paint4_radial_273_1462)"/>
<circle cx="6.25933" cy="6.25933" r="6.25933" transform="matrix(-1 0 0 1 301.839 50.0746)" fill="url(#paint5_radial_273_1462)"/>
<circle cx="6.25933" cy="6.25933" r="6.25933" transform="matrix(-1 0 0 1 12.5186 75.9999)" fill="url(#paint6_radial_273_1462)"/>
<circle cx="6.25933" cy="6.25933" r="6.25933" transform="matrix(-1 0 0 1 540.519 78)" fill="url(#paint7_radial_273_1462)"/>
<circle cx="6.25933" cy="6.25933" r="6.25933" transform="matrix(-1 0 0 1 101.519 50.9999)" fill="url(#paint8_radial_273_1462)"/>
<circle cx="6.25933" cy="6.25933" r="6.25933" transform="matrix(-1 0 0 1 639.166 155.65)" fill="url(#paint9_radial_273_1462)"/>
<circle cx="6.25933" cy="6.25933" r="6.25933" transform="matrix(-1 0 0 1 328.962 90.76)" fill="url(#paint10_radial_273_1462)"/>
<circle cx="6.25933" cy="6.25933" r="6.25933" transform="matrix(-1 0 0 1 199.065 26.9688)" fill="url(#paint11_radial_273_1462)"/>
<circle cx="6.25933" cy="6.25933" r="6.25933" transform="matrix(-1 0 0 1 702.198 102.493)" fill="url(#paint12_radial_273_1462)"/>
<circle cx="6.25933" cy="6.25933" r="6.25933" transform="matrix(-1 0 0 1 483.332 60.4977)" fill="url(#paint13_radial_273_1462)"/>
<circle opacity="0.6" cx="10.4322" cy="10.4322" r="10.4322" transform="matrix(-1 0 0 1 448.883 43.4578)" fill="url(#paint14_radial_273_1462)"/>
<circle cx="10.4322" cy="10.4322" r="10.4322" transform="matrix(-1 0 0 1 144.864 74)" fill="url(#paint15_radial_273_1462)"/>
<circle cx="10.4322" cy="10.4322" r="10.4322" transform="matrix(-1 0 0 1 668.864 46)" fill="url(#paint16_radial_273_1462)"/>
<circle cx="10.4322" cy="10.4322" r="10.4322" transform="matrix(-1 0 0 1 555.091 293.742)" fill="url(#paint17_radial_273_1462)"/>
<path d="M229.566 63.338C240.001 63.338 242.686 60.6526 242.686 50.218C242.686 60.6526 245.372 63.338 255.806 63.338C245.372 63.338 242.686 66.0234 242.686 76.458C242.686 66.0234 240.001 63.338 229.566 63.338Z" fill="url(#paint18_radial_273_1462)"/>
<path d="M306 515.12C316.435 515.12 319.12 512.434 319.12 502C319.12 512.434 321.805 515.12 332.24 515.12C321.805 515.12 319.12 517.805 319.12 528.24C319.12 517.805 316.435 515.12 306 515.12Z" fill="url(#paint19_radial_273_1462)"/>
<path d="M617 294.12C627.435 294.12 630.12 291.434 630.12 281C630.12 291.434 632.805 294.12 643.24 294.12C632.805 294.12 630.12 296.805 630.12 307.24C630.12 296.805 627.435 294.12 617 294.12Z" fill="url(#paint20_radial_273_1462)"/>
<circle cx="6.25933" cy="6.25933" r="6.25933" transform="matrix(-1 0 0 1 645.553 199.028)" fill="url(#paint21_radial_273_1462)"/>
<circle cx="6.25933" cy="6.25933" r="6.25933" transform="matrix(-1 0 0 1 527.842 273.579)" fill="url(#paint22_radial_273_1462)"/>
<circle cx="6.25933" cy="6.25933" r="6.25933" transform="matrix(-1 0 0 1 461.519 521)" fill="url(#paint23_radial_273_1462)"/>
<circle cx="6.25933" cy="6.25933" r="6.25933" transform="matrix(-1 0 0 1 668.504 298.656)" fill="url(#paint24_radial_273_1462)"/>
<circle cx="6.25933" cy="6.25933" r="6.25933" transform="matrix(-1 0 0 1 626.519 396)" fill="url(#paint25_radial_273_1462)"/>
<circle cx="6.25933" cy="6.25933" r="6.25933" transform="matrix(-1 0 0 1 595.519 469)" fill="url(#paint26_radial_273_1462)"/>
<circle cx="6.25933" cy="6.25933" r="6.25933" transform="matrix(-1 0 0 1 444.519 502)" fill="url(#paint27_radial_273_1462)"/>
<circle cx="6.25933" cy="6.25933" r="6.25933" transform="matrix(-1 0 0 1 629.519 335)" fill="url(#paint28_radial_273_1462)"/>
<circle cx="6.25933" cy="6.25933" r="6.25933" transform="matrix(-1 0 0 1 685.519 322)" fill="url(#paint29_radial_273_1462)"/>
<circle cx="6.25933" cy="6.25933" r="6.25933" transform="matrix(-1 0 0 1 398.519 508)" fill="url(#paint30_radial_273_1462)"/>
<circle cx="6.25933" cy="6.25933" r="6.25933" transform="matrix(-1 0 0 1 374.519 534)" fill="url(#paint31_radial_273_1462)"/>
<circle cx="6.25933" cy="6.25933" r="6.25933" transform="matrix(-1 0 0 1 291.519 534)" fill="url(#paint32_radial_273_1462)"/>
<circle cx="6.25933" cy="6.25933" r="6.25933" transform="matrix(-1 0 0 1 232.519 502)" fill="url(#paint33_radial_273_1462)"/>
<circle cx="6.25933" cy="6.25933" r="6.25933" transform="matrix(-1 0 0 1 140.519 515)" fill="url(#paint34_radial_273_1462)"/>
<circle cx="6.25933" cy="6.25933" r="6.25933" transform="matrix(-1 0 0 1 652.519 373)" fill="url(#paint35_radial_273_1462)"/>
<circle cx="6.25933" cy="6.25933" r="6.25933" transform="matrix(-1 0 0 1 672.677 232.411)" fill="url(#paint36_radial_273_1462)"/>
<circle cx="10.4322" cy="10.4322" r="10.4322" transform="matrix(-1 0 0 1 609.864 129)" fill="url(#paint37_radial_273_1462)"/>
<circle cx="8.39245" cy="8.39245" r="8.39245" transform="matrix(-1 0 0 1 716.305 262.12)" fill="url(#paint38_radial_273_1462)"/>
<circle cx="10.4322" cy="10.4322" r="10.4322" transform="matrix(-1 0 0 1 627.296 236.584)" fill="url(#paint39_radial_273_1462)"/>
<path opacity="0.6" d="M739 119.4C752.043 119.4 755.4 116.043 755.4 103C755.4 116.043 758.757 119.4 771.8 119.4C758.757 119.4 755.4 122.757 755.4 135.8C755.4 122.757 752.043 119.4 739 119.4Z" fill="url(#paint40_radial_273_1462)"/>
<path d="M385.533 89.2888C398.576 89.2888 401.933 85.9321 401.933 72.8888C401.933 85.9321 405.29 89.2888 418.333 89.2888C405.29 89.2888 401.933 92.6455 401.933 105.689C401.933 92.6455 398.576 89.2888 385.533 89.2888Z" fill="url(#paint41_radial_273_1462)"/>
<path d="M672.551 204.174C685.594 204.174 688.951 200.817 688.951 187.774C688.951 200.817 692.308 204.174 705.351 204.174C692.308 204.174 688.951 207.53 688.951 220.574C688.951 207.53 685.594 204.174 672.551 204.174Z" fill="url(#paint42_radial_273_1462)"/>
<defs>
<radialGradient id="paint0_radial_273_1462" cx="0" cy="0" r="1" gradientUnits="userSpaceOnUse" gradientTransform="translate(6.25933 6.25933) rotate(90) scale(6.25933)">
<stop stop-color="#7DE2FF"/>
<stop offset="0.62963" stop-color="#00C6FF" stop-opacity="0"/>
</radialGradient>
<radialGradient id="paint1_radial_273_1462" cx="0" cy="0" r="1" gradientUnits="userSpaceOnUse" gradientTransform="translate(6.25933 6.25933) rotate(90) scale(6.25933)">
<stop stop-color="#7DE2FF"/>
<stop offset="0.62963" stop-color="#00C6FF" stop-opacity="0"/>
</radialGradient>
<radialGradient id="paint2_radial_273_1462" cx="0" cy="0" r="1" gradientUnits="userSpaceOnUse" gradientTransform="translate(6.25933 6.25933) rotate(90) scale(6.25933)">
<stop stop-color="#7DE2FF"/>
<stop offset="0.62963" stop-color="#00C6FF" stop-opacity="0"/>
</radialGradient>
<radialGradient id="paint3_radial_273_1462" cx="0" cy="0" r="1" gradientUnits="userSpaceOnUse" gradientTransform="translate(6.25933 6.25933) rotate(90) scale(6.25933)">
<stop stop-color="#7DE2FF"/>
<stop offset="0.62963" stop-color="#00C6FF" stop-opacity="0"/>
</radialGradient>
<radialGradient id="paint4_radial_273_1462" cx="0" cy="0" r="1" gradientUnits="userSpaceOnUse" gradientTransform="translate(6.25933 6.25933) rotate(90) scale(6.25933)">
<stop stop-color="#7DE2FF"/>
<stop offset="0.62963" stop-color="#00C6FF" stop-opacity="0"/>
</radialGradient>
<radialGradient id="paint5_radial_273_1462" cx="0" cy="0" r="1" gradientUnits="userSpaceOnUse" gradientTransform="translate(6.25933 6.25933) rotate(90) scale(6.25933)">
<stop stop-color="#7DE2FF"/>
<stop offset="0.62963" stop-color="#00C6FF" stop-opacity="0"/>
</radialGradient>
<radialGradient id="paint6_radial_273_1462" cx="0" cy="0" r="1" gradientUnits="userSpaceOnUse" gradientTransform="translate(6.25933 6.25933) rotate(90) scale(6.25933)">
<stop stop-color="#7DE2FF"/>
<stop offset="0.62963" stop-color="#00C6FF" stop-opacity="0"/>
</radialGradient>
<radialGradient id="paint7_radial_273_1462" cx="0" cy="0" r="1" gradientUnits="userSpaceOnUse" gradientTransform="translate(6.25933 6.25933) rotate(90) scale(6.25933)">
<stop stop-color="#7DE2FF"/>
<stop offset="0.62963" stop-color="#00C6FF" stop-opacity="0"/>
</radialGradient>
<radialGradient id="paint8_radial_273_1462" cx="0" cy="0" r="1" gradientUnits="userSpaceOnUse" gradientTransform="translate(6.25933 6.25933) rotate(90) scale(6.25933)">
<stop stop-color="#7DE2FF"/>
<stop offset="0.62963" stop-color="#00C6FF" stop-opacity="0"/>
</radialGradient>
<radialGradient id="paint9_radial_273_1462" cx="0" cy="0" r="1" gradientUnits="userSpaceOnUse" gradientTransform="translate(6.25933 6.25933) rotate(90) scale(6.25933)">
<stop stop-color="#7DE2FF"/>
<stop offset="0.62963" stop-color="#00C6FF" stop-opacity="0"/>
</radialGradient>
<radialGradient id="paint10_radial_273_1462" cx="0" cy="0" r="1" gradientUnits="userSpaceOnUse" gradientTransform="translate(6.25933 6.25933) rotate(90) scale(6.25933)">
<stop stop-color="#7DE2FF"/>
<stop offset="0.62963" stop-color="#00C6FF" stop-opacity="0"/>
</radialGradient>
<radialGradient id="paint11_radial_273_1462" cx="0" cy="0" r="1" gradientUnits="userSpaceOnUse" gradientTransform="translate(6.25933 6.25933) rotate(90) scale(6.25933)">
<stop stop-color="#7DE2FF"/>
<stop offset="0.62963" stop-color="#00C6FF" stop-opacity="0"/>
</radialGradient>
<radialGradient id="paint12_radial_273_1462" cx="0" cy="0" r="1" gradientUnits="userSpaceOnUse" gradientTransform="translate(6.25933 6.25933) rotate(90) scale(6.25933)">
<stop stop-color="#7DE2FF"/>
<stop offset="0.62963" stop-color="#00C6FF" stop-opacity="0"/>
</radialGradient>
<radialGradient id="paint13_radial_273_1462" cx="0" cy="0" r="1" gradientUnits="userSpaceOnUse" gradientTransform="translate(6.25933 6.25933) rotate(90) scale(6.25933)">
<stop stop-color="#7DE2FF"/>
<stop offset="0.62963" stop-color="#00C6FF" stop-opacity="0"/>
</radialGradient>
<radialGradient id="paint14_radial_273_1462" cx="0" cy="0" r="1" gradientUnits="userSpaceOnUse" gradientTransform="translate(10.4322 10.4322) rotate(90) scale(10.4322)">
<stop stop-color="white"/>
<stop offset="0.62963" stop-color="#7DE2FF" stop-opacity="0"/>
</radialGradient>
<radialGradient id="paint15_radial_273_1462" cx="0" cy="0" r="1" gradientUnits="userSpaceOnUse" gradientTransform="translate(10.4322 10.4322) rotate(90) scale(10.4322)">
<stop stop-color="white"/>
<stop offset="0.62963" stop-color="#7DE2FF" stop-opacity="0"/>
</radialGradient>
<radialGradient id="paint16_radial_273_1462" cx="0" cy="0" r="1" gradientUnits="userSpaceOnUse" gradientTransform="translate(10.4322 10.4322) rotate(90) scale(10.4322)">
<stop stop-color="white"/>
<stop offset="0.62963" stop-color="#7DE2FF" stop-opacity="0"/>
</radialGradient>
<radialGradient id="paint17_radial_273_1462" cx="0" cy="0" r="1" gradientUnits="userSpaceOnUse" gradientTransform="translate(10.4322 10.4322) rotate(90) scale(10.4322)">
<stop stop-color="white"/>
<stop offset="0.62963" stop-color="#7DE2FF" stop-opacity="0"/>
</radialGradient>
<radialGradient id="paint18_radial_273_1462" cx="0" cy="0" r="1" gradientUnits="userSpaceOnUse" gradientTransform="translate(242.686 63.338) rotate(90) scale(13.12)">
<stop stop-color="white"/>
<stop offset="0.62963" stop-color="#7DE2FF" stop-opacity="0"/>
</radialGradient>
<radialGradient id="paint19_radial_273_1462" cx="0" cy="0" r="1" gradientUnits="userSpaceOnUse" gradientTransform="translate(319.12 515.12) rotate(90) scale(13.12)">
<stop stop-color="white"/>
<stop offset="0.62963" stop-color="#7DE2FF" stop-opacity="0"/>
</radialGradient>
<radialGradient id="paint20_radial_273_1462" cx="0" cy="0" r="1" gradientUnits="userSpaceOnUse" gradientTransform="translate(630.12 294.12) rotate(90) scale(13.12)">
<stop stop-color="white"/>
<stop offset="0.62963" stop-color="#7DE2FF" stop-opacity="0"/>
</radialGradient>
<radialGradient id="paint21_radial_273_1462" cx="0" cy="0" r="1" gradientUnits="userSpaceOnUse" gradientTransform="translate(6.25933 6.25933) rotate(90) scale(6.25933)">
<stop stop-color="#7DE2FF"/>
<stop offset="0.62963" stop-color="#00C6FF" stop-opacity="0"/>
</radialGradient>
<radialGradient id="paint22_radial_273_1462" cx="0" cy="0" r="1" gradientUnits="userSpaceOnUse" gradientTransform="translate(6.25933 6.25933) rotate(90) scale(6.25933)">
<stop stop-color="#7DE2FF"/>
<stop offset="0.62963" stop-color="#00C6FF" stop-opacity="0"/>
</radialGradient>
<radialGradient id="paint23_radial_273_1462" cx="0" cy="0" r="1" gradientUnits="userSpaceOnUse" gradientTransform="translate(6.25933 6.25933) rotate(90) scale(6.25933)">
<stop stop-color="#7DE2FF"/>
<stop offset="0.62963" stop-color="#00C6FF" stop-opacity="0"/>
</radialGradient>
<radialGradient id="paint24_radial_273_1462" cx="0" cy="0" r="1" gradientUnits="userSpaceOnUse" gradientTransform="translate(6.25933 6.25933) rotate(90) scale(6.25933)">
<stop stop-color="#7DE2FF"/>
<stop offset="0.62963" stop-color="#00C6FF" stop-opacity="0"/>
</radialGradient>
<radialGradient id="paint25_radial_273_1462" cx="0" cy="0" r="1" gradientUnits="userSpaceOnUse" gradientTransform="translate(6.25933 6.25933) rotate(90) scale(6.25933)">
<stop stop-color="#7DE2FF"/>
<stop offset="0.62963" stop-color="#00C6FF" stop-opacity="0"/>
</radialGradient>
<radialGradient id="paint26_radial_273_1462" cx="0" cy="0" r="1" gradientUnits="userSpaceOnUse" gradientTransform="translate(6.25933 6.25933) rotate(90) scale(6.25933)">
<stop stop-color="#7DE2FF"/>
<stop offset="0.62963" stop-color="#00C6FF" stop-opacity="0"/>
</radialGradient>
<radialGradient id="paint27_radial_273_1462" cx="0" cy="0" r="1" gradientUnits="userSpaceOnUse" gradientTransform="translate(6.25933 6.25933) rotate(90) scale(6.25933)">
<stop stop-color="#7DE2FF"/>
<stop offset="0.62963" stop-color="#00C6FF" stop-opacity="0"/>
</radialGradient>
<radialGradient id="paint28_radial_273_1462" cx="0" cy="0" r="1" gradientUnits="userSpaceOnUse" gradientTransform="translate(6.25933 6.25933) rotate(90) scale(6.25933)">
<stop stop-color="#7DE2FF"/>
<stop offset="0.62963" stop-color="#00C6FF" stop-opacity="0"/>
</radialGradient>
<radialGradient id="paint29_radial_273_1462" cx="0" cy="0" r="1" gradientUnits="userSpaceOnUse" gradientTransform="translate(6.25933 6.25933) rotate(90) scale(6.25933)">
<stop stop-color="#7DE2FF"/>
<stop offset="0.62963" stop-color="#00C6FF" stop-opacity="0"/>
</radialGradient>
<radialGradient id="paint30_radial_273_1462" cx="0" cy="0" r="1" gradientUnits="userSpaceOnUse" gradientTransform="translate(6.25933 6.25933) rotate(90) scale(6.25933)">
<stop stop-color="#7DE2FF"/>
<stop offset="0.62963" stop-color="#00C6FF" stop-opacity="0"/>
</radialGradient>
<radialGradient id="paint31_radial_273_1462" cx="0" cy="0" r="1" gradientUnits="userSpaceOnUse" gradientTransform="translate(6.25933 6.25933) rotate(90) scale(6.25933)">
<stop stop-color="#7DE2FF"/>
<stop offset="0.62963" stop-color="#00C6FF" stop-opacity="0"/>
</radialGradient>
<radialGradient id="paint32_radial_273_1462" cx="0" cy="0" r="1" gradientUnits="userSpaceOnUse" gradientTransform="translate(6.25933 6.25933) rotate(90) scale(6.25933)">
<stop stop-color="#7DE2FF"/>
<stop offset="0.62963" stop-color="#00C6FF" stop-opacity="0"/>
</radialGradient>
<radialGradient id="paint33_radial_273_1462" cx="0" cy="0" r="1" gradientUnits="userSpaceOnUse" gradientTransform="translate(6.25933 6.25933) rotate(90) scale(6.25933)">
<stop stop-color="#7DE2FF"/>
<stop offset="0.62963" stop-color="#00C6FF" stop-opacity="0"/>
</radialGradient>
<radialGradient id="paint34_radial_273_1462" cx="0" cy="0" r="1" gradientUnits="userSpaceOnUse" gradientTransform="translate(6.25933 6.25933) rotate(90) scale(6.25933)">
<stop stop-color="#7DE2FF"/>
<stop offset="0.62963" stop-color="#00C6FF" stop-opacity="0"/>
</radialGradient>
<radialGradient id="paint35_radial_273_1462" cx="0" cy="0" r="1" gradientUnits="userSpaceOnUse" gradientTransform="translate(6.25933 6.25933) rotate(90) scale(6.25933)">
<stop stop-color="#7DE2FF"/>
<stop offset="0.62963" stop-color="#00C6FF" stop-opacity="0"/>
</radialGradient>
<radialGradient id="paint36_radial_273_1462" cx="0" cy="0" r="1" gradientUnits="userSpaceOnUse" gradientTransform="translate(6.25933 6.25933) rotate(90) scale(6.25933)">
<stop stop-color="#7DE2FF"/>
<stop offset="0.62963" stop-color="#00C6FF" stop-opacity="0"/>
</radialGradient>
<radialGradient id="paint37_radial_273_1462" cx="0" cy="0" r="1" gradientUnits="userSpaceOnUse" gradientTransform="translate(10.4322 10.4322) rotate(90) scale(10.4322)">
<stop stop-color="white"/>
<stop offset="0.62963" stop-color="#7DE2FF" stop-opacity="0"/>
</radialGradient>
<radialGradient id="paint38_radial_273_1462" cx="0" cy="0" r="1" gradientUnits="userSpaceOnUse" gradientTransform="translate(8.39245 8.39245) rotate(90) scale(8.39245)">
<stop stop-color="white"/>
<stop offset="0.62963" stop-color="#7DE2FF" stop-opacity="0"/>
</radialGradient>
<radialGradient id="paint39_radial_273_1462" cx="0" cy="0" r="1" gradientUnits="userSpaceOnUse" gradientTransform="translate(10.4322 10.4322) rotate(90) scale(10.4322)">
<stop stop-color="white"/>
<stop offset="0.62963" stop-color="#7DE2FF" stop-opacity="0"/>
</radialGradient>
<radialGradient id="paint40_radial_273_1462" cx="0" cy="0" r="1" gradientUnits="userSpaceOnUse" gradientTransform="translate(755.4 119.4) rotate(90) scale(16.4)">
<stop stop-color="white"/>
<stop offset="0.62963" stop-color="#7DE2FF" stop-opacity="0"/>
</radialGradient>
<radialGradient id="paint41_radial_273_1462" cx="0" cy="0" r="1" gradientUnits="userSpaceOnUse" gradientTransform="translate(401.933 89.2888) rotate(90) scale(16.4)">
<stop stop-color="white"/>
<stop offset="0.62963" stop-color="#7DE2FF" stop-opacity="0"/>
</radialGradient>
<radialGradient id="paint42_radial_273_1462" cx="0" cy="0" r="1" gradientUnits="userSpaceOnUse" gradientTransform="translate(688.951 204.174) rotate(90) scale(16.4)">
<stop stop-color="white"/>
<stop offset="0.62963" stop-color="#7DE2FF" stop-opacity="0"/>
</radialGradient>
</defs>
</svg>
