<svg width="360" height="435" viewBox="0 0 360 435" fill="none" xmlns="http://www.w3.org/2000/svg">
<path d="M306.08 126.946C314.305 126.946 316.422 124.829 316.422 116.604C316.422 124.829 318.538 126.946 326.763 126.946C318.538 126.946 316.422 129.063 316.422 137.287C316.422 129.063 314.305 126.946 306.08 126.946Z" fill="url(#paint0_radial_17_6569)"/>
<path d="M345.646 159.167C353.871 159.167 355.988 157.05 355.988 148.826C355.988 157.05 358.105 159.167 366.329 159.167C358.105 159.167 355.988 161.284 355.988 169.509C355.988 161.284 353.871 159.167 345.646 159.167Z" fill="url(#paint1_radial_17_6569)"/>
<path d="M318.512 176.126C326.737 176.126 328.853 174.009 328.853 165.784C328.853 174.009 330.97 176.126 339.195 176.126C330.97 176.126 328.853 178.242 328.853 186.467C328.853 178.242 326.737 176.126 318.512 176.126Z" fill="url(#paint2_radial_17_6569)"/>
<path d="M71.5664 231.666C79.7912 231.666 81.9079 229.549 81.9079 221.324C81.9079 229.549 84.0246 231.666 92.2493 231.666C84.0246 231.666 81.9079 233.782 81.9079 242.007C81.9079 233.782 79.7912 231.666 71.5664 231.666Z" fill="url(#paint3_radial_17_6569)"/>
<path d="M25.6035 217.647C30.7212 217.647 32.0382 216.33 32.0382 211.212C32.0382 216.33 33.3553 217.647 38.4729 217.647C33.3553 217.647 32.0382 218.964 32.0382 224.082C32.0382 218.964 30.7212 217.647 25.6035 217.647Z" fill="url(#paint4_radial_17_6569)"/>
<path d="M52.7246 261.311C58.5734 261.311 60.0785 259.806 60.0785 253.958C60.0785 259.806 61.5837 261.311 67.4325 261.311C61.5837 261.311 60.0785 262.817 60.0785 268.665C60.0785 262.817 58.5734 261.311 52.7246 261.311Z" fill="url(#paint5_radial_17_6569)"/>
<path d="M-0.869141 244.115C3.88296 244.115 5.10593 242.892 5.10593 238.14C5.10593 242.892 6.3289 244.115 11.081 244.115C6.3289 244.115 5.10593 245.338 5.10593 250.09C5.10593 245.338 3.88296 244.115 -0.869141 244.115Z" fill="url(#paint6_radial_17_6569)"/>
<defs>
<radialGradient id="paint0_radial_17_6569" cx="0" cy="0" r="1" gradientUnits="userSpaceOnUse" gradientTransform="translate(316.422 126.946) rotate(90) scale(10.3415)">
<stop stop-color="white"/>
<stop offset="0.62963" stop-color="#7DE2FF" stop-opacity="0"/>
</radialGradient>
<radialGradient id="paint1_radial_17_6569" cx="0" cy="0" r="1" gradientUnits="userSpaceOnUse" gradientTransform="translate(355.988 159.167) rotate(90) scale(10.3415)">
<stop stop-color="white"/>
<stop offset="0.62963" stop-color="#7DE2FF" stop-opacity="0"/>
</radialGradient>
<radialGradient id="paint2_radial_17_6569" cx="0" cy="0" r="1" gradientUnits="userSpaceOnUse" gradientTransform="translate(328.853 176.126) rotate(90) scale(10.3415)">
<stop stop-color="white"/>
<stop offset="0.62963" stop-color="#7DE2FF" stop-opacity="0"/>
</radialGradient>
<radialGradient id="paint3_radial_17_6569" cx="0" cy="0" r="1" gradientUnits="userSpaceOnUse" gradientTransform="translate(81.9079 231.666) rotate(90) scale(10.3415)">
<stop stop-color="white"/>
<stop offset="0.62963" stop-color="#7DE2FF" stop-opacity="0"/>
</radialGradient>
<radialGradient id="paint4_radial_17_6569" cx="0" cy="0" r="1" gradientUnits="userSpaceOnUse" gradientTransform="translate(32.0382 217.647) rotate(90) scale(6.43469)">
<stop stop-color="white"/>
<stop offset="0.62963" stop-color="#7DE2FF" stop-opacity="0"/>
</radialGradient>
<radialGradient id="paint5_radial_17_6569" cx="0" cy="0" r="1" gradientUnits="userSpaceOnUse" gradientTransform="translate(60.0785 261.311) rotate(90) scale(7.35394)">
<stop stop-color="white"/>
<stop offset="0.62963" stop-color="#7DE2FF" stop-opacity="0"/>
</radialGradient>
<radialGradient id="paint6_radial_17_6569" cx="0" cy="0" r="1" gradientUnits="userSpaceOnUse" gradientTransform="translate(5.10593 244.115) rotate(90) scale(5.97507)">
<stop stop-color="white"/>
<stop offset="0.62963" stop-color="#7DE2FF" stop-opacity="0"/>
</radialGradient>
</defs>
</svg>
