<svg width="1440" height="768" viewBox="0 0 1440 768" fill="none" xmlns="http://www.w3.org/2000/svg">
<path d="M1182 224.294C1196.55 224.294 1200.29 220.55 1200.29 206C1200.29 220.55 1204.04 224.294 1218.59 224.294C1204.04 224.294 1200.29 228.039 1200.29 242.589C1200.29 228.039 1196.55 224.294 1182 224.294Z" fill="url(#paint0_radial_273_593)"/>
<path d="M1252 281.294C1266.55 281.294 1270.29 277.55 1270.29 263C1270.29 277.55 1274.04 281.294 1288.59 281.294C1274.04 281.294 1270.29 285.039 1270.29 299.589C1270.29 285.039 1266.55 281.294 1252 281.294Z" fill="url(#paint1_radial_273_593)"/>
<path d="M1204 311.294C1218.55 311.294 1222.29 307.55 1222.29 293C1222.29 307.55 1226.04 311.294 1240.59 311.294C1226.04 311.294 1222.29 315.039 1222.29 329.589C1222.29 315.039 1218.55 311.294 1204 311.294Z" fill="url(#paint2_radial_273_593)"/>
<path d="M767.141 409.547C781.691 409.547 785.435 405.802 785.435 391.252C785.435 405.802 789.179 409.547 803.729 409.547C789.179 409.547 785.435 413.291 785.435 427.841C785.435 413.291 781.691 409.547 767.141 409.547Z" fill="url(#paint3_radial_273_593)"/>
<path d="M685.832 384.747C694.885 384.747 697.215 382.418 697.215 373.364C697.215 382.418 699.545 384.747 708.598 384.747C699.545 384.747 697.215 387.077 697.215 396.131C697.215 387.077 694.885 384.747 685.832 384.747Z" fill="url(#paint4_radial_273_593)"/>
<path d="M733.805 461.991C744.151 461.991 746.814 459.328 746.814 448.981C746.814 459.328 749.477 461.991 759.823 461.991C749.477 461.991 746.814 464.654 746.814 475C746.814 464.654 744.151 461.991 733.805 461.991Z" fill="url(#paint5_radial_273_593)"/>
<path d="M639 431.57C647.407 431.57 649.57 429.407 649.57 421C649.57 429.407 651.734 431.57 660.14 431.57C651.734 431.57 649.57 433.734 649.57 442.14C649.57 433.734 647.407 431.57 639 431.57Z" fill="url(#paint6_radial_273_593)"/>
<defs>
<radialGradient id="paint0_radial_273_593" cx="0" cy="0" r="1" gradientUnits="userSpaceOnUse" gradientTransform="translate(1200.29 224.294) rotate(90) scale(18.2944)">
<stop stop-color="white"/>
<stop offset="0.62963" stop-color="#7DE2FF" stop-opacity="0"/>
</radialGradient>
<radialGradient id="paint1_radial_273_593" cx="0" cy="0" r="1" gradientUnits="userSpaceOnUse" gradientTransform="translate(1270.29 281.294) rotate(90) scale(18.2944)">
<stop stop-color="white"/>
<stop offset="0.62963" stop-color="#7DE2FF" stop-opacity="0"/>
</radialGradient>
<radialGradient id="paint2_radial_273_593" cx="0" cy="0" r="1" gradientUnits="userSpaceOnUse" gradientTransform="translate(1222.29 311.294) rotate(90) scale(18.2944)">
<stop stop-color="white"/>
<stop offset="0.62963" stop-color="#7DE2FF" stop-opacity="0"/>
</radialGradient>
<radialGradient id="paint3_radial_273_593" cx="0" cy="0" r="1" gradientUnits="userSpaceOnUse" gradientTransform="translate(785.435 409.547) rotate(90) scale(18.2944)">
<stop stop-color="white"/>
<stop offset="0.62963" stop-color="#7DE2FF" stop-opacity="0"/>
</radialGradient>
<radialGradient id="paint4_radial_273_593" cx="0" cy="0" r="1" gradientUnits="userSpaceOnUse" gradientTransform="translate(697.215 384.747) rotate(90) scale(11.3832)">
<stop stop-color="white"/>
<stop offset="0.62963" stop-color="#7DE2FF" stop-opacity="0"/>
</radialGradient>
<radialGradient id="paint5_radial_273_593" cx="0" cy="0" r="1" gradientUnits="userSpaceOnUse" gradientTransform="translate(746.814 461.991) rotate(90) scale(13.0093)">
<stop stop-color="white"/>
<stop offset="0.62963" stop-color="#7DE2FF" stop-opacity="0"/>
</radialGradient>
<radialGradient id="paint6_radial_273_593" cx="0" cy="0" r="1" gradientUnits="userSpaceOnUse" gradientTransform="translate(649.57 431.57) rotate(90) scale(10.5701)">
<stop stop-color="white"/>
<stop offset="0.62963" stop-color="#7DE2FF" stop-opacity="0"/>
</radialGradient>
</defs>
</svg>
