<svg width="304" height="172" viewBox="0 0 304 172" fill="none" xmlns="http://www.w3.org/2000/svg">
<circle cx="58.4572" cy="87.6553" r="3.31849" fill="url(#paint0_radial_17_6971)"/>
<circle cx="20.8497" cy="106.46" r="3.31849" fill="url(#paint1_radial_17_6971)"/>
<circle cx="244.017" cy="58.6189" r="3.04195" fill="url(#paint2_radial_17_6971)"/>
<ellipse cx="286.881" cy="126.095" rx="3.31849" ry="3.04195" fill="url(#paint3_radial_17_6971)"/>
<ellipse cx="274.989" cy="115.311" rx="3.04195" ry="3.31849" fill="url(#paint4_radial_17_6971)"/>
<circle cx="283.565" cy="90.9738" r="3.31849" fill="url(#paint5_radial_17_6971)"/>
<circle cx="3.31849" cy="3.31849" r="3.31849" transform="matrix(-1 0 0 1 271.947 17.4141)" fill="url(#paint6_radial_17_6971)"/>
<circle cx="3.31849" cy="3.31849" r="3.31849" transform="matrix(-1 0 0 1 285.775 38.4314)" fill="url(#paint7_radial_17_6971)"/>
<ellipse cx="3.04195" cy="3.31849" rx="3.04195" ry="3.31849" transform="matrix(-1 0 0 1 307.344 60.5547)" fill="url(#paint8_radial_17_6971)"/>
<ellipse cx="3.04195" cy="3.31849" rx="3.04195" ry="3.31849" transform="matrix(-1 0 0 1 295.732 104.802)" fill="url(#paint9_radial_17_6971)"/>
<ellipse cx="272.778" cy="62.7669" rx="3.04195" ry="3.31849" fill="url(#paint10_radial_17_6971)"/>
<ellipse cx="306.794" cy="47.0041" rx="4.42466" ry="4.14812" fill="url(#paint11_radial_17_6971)"/>
<circle cx="49.0562" cy="118.075" r="5.53082" fill="url(#paint12_radial_17_6971)"/>
<ellipse cx="5.36216" cy="149.324" rx="4.42466" ry="4.7012" fill="url(#paint13_radial_17_6971)"/>
<circle cx="251.483" cy="97.6112" r="4.42466" fill="url(#paint14_radial_17_6971)"/>
<circle cx="296.282" cy="68.8509" r="4.42466" fill="url(#paint15_radial_17_6971)"/>
<circle cx="278.307" cy="135.497" r="5.25428" fill="url(#paint16_radial_17_6971)"/>
<ellipse cx="5.25428" cy="5.53082" rx="5.25428" ry="5.53082" transform="matrix(-1 0 0 1 279.137 160.662)" fill="url(#paint17_radial_17_6971)"/>
<path opacity="0.6" d="M292.963 30.9643C287.464 30.9643 286.049 29.5493 286.049 24.0508C286.049 29.5493 284.634 30.9643 279.136 30.9643C284.634 30.9643 286.049 32.3794 286.049 37.8778C286.049 32.3794 287.464 30.9643 292.963 30.9643Z" fill="url(#paint18_radial_17_6971)"/>
<path opacity="0.6" d="M67.3066 108.949C61.8082 108.949 60.3931 107.534 60.3931 102.036C60.3931 107.534 58.9781 108.949 53.4796 108.949C58.9781 108.949 60.3931 110.364 60.3931 115.863C60.3931 110.364 61.8082 108.949 67.3066 108.949Z" fill="url(#paint19_radial_17_6971)"/>
<path opacity="0.6" d="M37.4395 124.436C31.941 124.436 30.5259 123.021 30.5259 117.522C30.5259 123.021 29.1109 124.436 23.6124 124.436C29.1109 124.436 30.5259 125.851 30.5259 131.35C30.5259 125.851 31.941 124.436 37.4395 124.436Z" fill="url(#paint20_radial_17_6971)"/>
<path d="M308.453 115.586C302.955 115.586 301.54 114.171 301.54 108.673C301.54 114.171 300.125 115.586 294.626 115.586C300.125 115.586 301.54 117.001 301.54 122.5C301.54 117.001 302.955 115.586 308.453 115.586Z" fill="url(#paint21_radial_17_6971)"/>
<path d="M50.1621 125.819C54.5609 125.819 55.6929 124.687 55.6929 120.288C55.6929 124.687 56.825 125.819 61.2238 125.819C56.825 125.819 55.6929 126.951 55.6929 131.35C55.6929 126.951 54.5609 125.819 50.1621 125.819Z" fill="url(#paint22_radial_17_6971)"/>
<path d="M33.0156 134.114C37.4144 134.114 38.5464 132.982 38.5464 128.584C38.5464 132.982 39.6785 134.114 44.0773 134.114C39.6785 134.114 38.5464 135.247 38.5464 139.645C38.5464 135.247 37.4144 134.114 33.0156 134.114Z" fill="url(#paint23_radial_17_6971)"/>
<path d="M269.736 45.0683C262.918 45.0683 261.164 43.3703 261.164 36.7721C261.164 43.3703 259.409 45.0683 252.591 45.0683C259.409 45.0683 261.164 46.7664 261.164 53.3646C261.164 46.7664 262.918 45.0683 269.736 45.0683Z" fill="url(#paint24_radial_17_6971)"/>
<circle cx="253.42" cy="71.8927" r="4.14812" fill="url(#paint25_radial_17_6971)"/>
<circle cx="235.442" cy="86.549" r="3.31849" fill="url(#paint26_radial_17_6971)"/>
<defs>
<radialGradient id="paint0_radial_17_6971" cx="0" cy="0" r="1" gradientUnits="userSpaceOnUse" gradientTransform="translate(58.4572 87.6553) rotate(90) scale(3.31849)">
<stop stop-color="#7DE2FF"/>
<stop offset="0.62963" stop-color="#00C6FF" stop-opacity="0"/>
</radialGradient>
<radialGradient id="paint1_radial_17_6971" cx="0" cy="0" r="1" gradientUnits="userSpaceOnUse" gradientTransform="translate(20.8497 106.46) rotate(90) scale(3.31849)">
<stop stop-color="#7DE2FF"/>
<stop offset="0.62963" stop-color="#00C6FF" stop-opacity="0"/>
</radialGradient>
<radialGradient id="paint2_radial_17_6971" cx="0" cy="0" r="1" gradientUnits="userSpaceOnUse" gradientTransform="translate(244.017 58.6189) rotate(90) scale(3.04195)">
<stop stop-color="#7DE2FF"/>
<stop offset="0.62963" stop-color="#00C6FF" stop-opacity="0"/>
</radialGradient>
<radialGradient id="paint3_radial_17_6971" cx="0" cy="0" r="1" gradientUnits="userSpaceOnUse" gradientTransform="translate(286.881 126.095) rotate(90) scale(3.04195 3.31849)">
<stop stop-color="#7DE2FF"/>
<stop offset="0.62963" stop-color="#00C6FF" stop-opacity="0"/>
</radialGradient>
<radialGradient id="paint4_radial_17_6971" cx="0" cy="0" r="1" gradientUnits="userSpaceOnUse" gradientTransform="translate(274.989 115.311) rotate(90) scale(3.31849 3.04195)">
<stop stop-color="#7DE2FF"/>
<stop offset="0.62963" stop-color="#00C6FF" stop-opacity="0"/>
</radialGradient>
<radialGradient id="paint5_radial_17_6971" cx="0" cy="0" r="1" gradientUnits="userSpaceOnUse" gradientTransform="translate(283.565 90.9738) rotate(90) scale(3.31849)">
<stop stop-color="#7DE2FF"/>
<stop offset="0.62963" stop-color="#00C6FF" stop-opacity="0"/>
</radialGradient>
<radialGradient id="paint6_radial_17_6971" cx="0" cy="0" r="1" gradientUnits="userSpaceOnUse" gradientTransform="translate(3.31849 3.31849) rotate(90) scale(3.31849)">
<stop stop-color="#7DE2FF"/>
<stop offset="0.62963" stop-color="#00C6FF" stop-opacity="0"/>
</radialGradient>
<radialGradient id="paint7_radial_17_6971" cx="0" cy="0" r="1" gradientUnits="userSpaceOnUse" gradientTransform="translate(3.31849 3.31849) rotate(90) scale(3.31849)">
<stop stop-color="#7DE2FF"/>
<stop offset="0.62963" stop-color="#00C6FF" stop-opacity="0"/>
</radialGradient>
<radialGradient id="paint8_radial_17_6971" cx="0" cy="0" r="1" gradientUnits="userSpaceOnUse" gradientTransform="translate(3.04195 3.31849) rotate(90) scale(3.31849 3.04195)">
<stop stop-color="#7DE2FF"/>
<stop offset="0.62963" stop-color="#00C6FF" stop-opacity="0"/>
</radialGradient>
<radialGradient id="paint9_radial_17_6971" cx="0" cy="0" r="1" gradientUnits="userSpaceOnUse" gradientTransform="translate(3.04195 3.31849) rotate(90) scale(3.31849 3.04195)">
<stop stop-color="#7DE2FF"/>
<stop offset="0.62963" stop-color="#00C6FF" stop-opacity="0"/>
</radialGradient>
<radialGradient id="paint10_radial_17_6971" cx="0" cy="0" r="1" gradientUnits="userSpaceOnUse" gradientTransform="translate(272.778 62.7669) rotate(90) scale(3.31849 3.04195)">
<stop stop-color="#7DE2FF"/>
<stop offset="0.62963" stop-color="#00C6FF" stop-opacity="0"/>
</radialGradient>
<radialGradient id="paint11_radial_17_6971" cx="0" cy="0" r="1" gradientUnits="userSpaceOnUse" gradientTransform="translate(306.794 47.0041) rotate(90) scale(4.14812 4.42466)">
<stop stop-color="white"/>
<stop offset="0.62963" stop-color="#7DE2FF" stop-opacity="0"/>
</radialGradient>
<radialGradient id="paint12_radial_17_6971" cx="0" cy="0" r="1" gradientUnits="userSpaceOnUse" gradientTransform="translate(49.0562 118.075) rotate(90) scale(5.53082)">
<stop stop-color="white"/>
<stop offset="0.62963" stop-color="#7DE2FF" stop-opacity="0"/>
</radialGradient>
<radialGradient id="paint13_radial_17_6971" cx="0" cy="0" r="1" gradientUnits="userSpaceOnUse" gradientTransform="translate(5.36216 149.324) rotate(90) scale(4.7012 4.42466)">
<stop stop-color="white"/>
<stop offset="0.62963" stop-color="#7DE2FF" stop-opacity="0"/>
</radialGradient>
<radialGradient id="paint14_radial_17_6971" cx="0" cy="0" r="1" gradientUnits="userSpaceOnUse" gradientTransform="translate(251.483 97.6112) rotate(90) scale(4.42466)">
<stop stop-color="white"/>
<stop offset="0.62963" stop-color="#7DE2FF" stop-opacity="0"/>
</radialGradient>
<radialGradient id="paint15_radial_17_6971" cx="0" cy="0" r="1" gradientUnits="userSpaceOnUse" gradientTransform="translate(296.282 68.8509) rotate(90) scale(4.42466)">
<stop stop-color="white"/>
<stop offset="0.62963" stop-color="#7DE2FF" stop-opacity="0"/>
</radialGradient>
<radialGradient id="paint16_radial_17_6971" cx="0" cy="0" r="1" gradientUnits="userSpaceOnUse" gradientTransform="translate(278.307 135.497) rotate(90) scale(5.25428)">
<stop stop-color="white"/>
<stop offset="0.62963" stop-color="#7DE2FF" stop-opacity="0"/>
</radialGradient>
<radialGradient id="paint17_radial_17_6971" cx="0" cy="0" r="1" gradientUnits="userSpaceOnUse" gradientTransform="translate(5.25428 5.53082) rotate(90) scale(5.53082 5.25428)">
<stop stop-color="white"/>
<stop offset="0.62963" stop-color="#7DE2FF" stop-opacity="0"/>
</radialGradient>
<radialGradient id="paint18_radial_17_6971" cx="0" cy="0" r="1" gradientUnits="userSpaceOnUse" gradientTransform="translate(286.049 30.9643) rotate(90) scale(6.91353)">
<stop stop-color="white"/>
<stop offset="0.62963" stop-color="#7DE2FF" stop-opacity="0"/>
</radialGradient>
<radialGradient id="paint19_radial_17_6971" cx="0" cy="0" r="1" gradientUnits="userSpaceOnUse" gradientTransform="translate(60.3931 108.949) rotate(90) scale(6.91353)">
<stop stop-color="white"/>
<stop offset="0.62963" stop-color="#7DE2FF" stop-opacity="0"/>
</radialGradient>
<radialGradient id="paint20_radial_17_6971" cx="0" cy="0" r="1" gradientUnits="userSpaceOnUse" gradientTransform="translate(30.5259 124.436) rotate(90) scale(6.91353)">
<stop stop-color="white"/>
<stop offset="0.62963" stop-color="#7DE2FF" stop-opacity="0"/>
</radialGradient>
<radialGradient id="paint21_radial_17_6971" cx="0" cy="0" r="1" gradientUnits="userSpaceOnUse" gradientTransform="translate(301.54 115.586) rotate(90) scale(6.91353)">
<stop stop-color="white"/>
<stop offset="0.62963" stop-color="#7DE2FF" stop-opacity="0"/>
</radialGradient>
<radialGradient id="paint22_radial_17_6971" cx="0" cy="0" r="1" gradientUnits="userSpaceOnUse" gradientTransform="translate(55.6929 125.819) rotate(90) scale(5.53082)">
<stop stop-color="white"/>
<stop offset="0.62963" stop-color="#7DE2FF" stop-opacity="0"/>
</radialGradient>
<radialGradient id="paint23_radial_17_6971" cx="0" cy="0" r="1" gradientUnits="userSpaceOnUse" gradientTransform="translate(38.5464 134.114) rotate(90) scale(5.53082)">
<stop stop-color="white"/>
<stop offset="0.62963" stop-color="#7DE2FF" stop-opacity="0"/>
</radialGradient>
<radialGradient id="paint24_radial_17_6971" cx="0" cy="0" r="1" gradientUnits="userSpaceOnUse" gradientTransform="translate(261.164 45.0683) rotate(90) scale(8.29623 8.57277)">
<stop stop-color="white"/>
<stop offset="0.62963" stop-color="#7DE2FF" stop-opacity="0"/>
</radialGradient>
<radialGradient id="paint25_radial_17_6971" cx="0" cy="0" r="1" gradientUnits="userSpaceOnUse" gradientTransform="translate(253.42 71.8927) rotate(90) scale(4.14812)">
<stop stop-color="white"/>
<stop offset="0.62963" stop-color="#7DE2FF" stop-opacity="0"/>
</radialGradient>
<radialGradient id="paint26_radial_17_6971" cx="0" cy="0" r="1" gradientUnits="userSpaceOnUse" gradientTransform="translate(235.442 86.549) rotate(90) scale(3.31849)">
<stop stop-color="#7DE2FF"/>
<stop offset="0.62963" stop-color="#00C6FF" stop-opacity="0"/>
</radialGradient>
</defs>
</svg>
