<svg width="360" height="271" viewBox="0 0 360 271" fill="none" xmlns="http://www.w3.org/2000/svg">
<circle cx="3.53306" cy="3.53306" r="3.53306" transform="matrix(-1 0 0 1 148.104 32.6033)" fill="url(#paint0_radial_17_6841)"/>
<circle opacity="0.6" cx="3.53306" cy="3.53306" r="3.53306" transform="matrix(-1 0 0 1 266.168 0.681152)" fill="url(#paint1_radial_17_6841)"/>
<circle cx="3.53306" cy="3.53306" r="3.53306" transform="matrix(-1 0 0 1 191.709 8.39478)" fill="url(#paint2_radial_17_6841)"/>
<circle cx="3.53306" cy="3.53306" r="3.53306" transform="matrix(-1 0 0 1 332.328 39.4397)" fill="url(#paint3_radial_17_6841)"/>
<circle cx="3.53306" cy="3.53306" r="3.53306" transform="matrix(-1 0 0 1 82.2715 87.6682)" fill="url(#paint4_radial_17_6841)"/>
<circle cx="3.53306" cy="3.53306" r="3.53306" transform="matrix(-1 0 0 1 163.736 19.7261)" fill="url(#paint5_radial_17_6841)"/>
<circle cx="3.53306" cy="3.53306" r="3.53306" transform="matrix(-1 0 0 1 0.431641 34.3594)" fill="url(#paint6_radial_17_6841)"/>
<circle cx="3.53306" cy="3.53306" r="3.53306" transform="matrix(-1 0 0 1 298.461 35.4885)" fill="url(#paint7_radial_17_6841)"/>
<circle cx="3.53306" cy="3.53306" r="3.53306" transform="matrix(-1 0 0 1 50.668 20.2483)" fill="url(#paint8_radial_17_6841)"/>
<circle cx="3.53306" cy="3.53306" r="3.53306" transform="matrix(-1 0 0 1 354.135 62.3843)" fill="url(#paint9_radial_17_6841)"/>
<circle cx="3.53306" cy="3.53306" r="3.53306" transform="matrix(-1 0 0 1 179.043 25.7576)" fill="url(#paint10_radial_17_6841)"/>
<circle cx="3.53306" cy="3.53306" r="3.53306" transform="matrix(-1 0 0 1 105.727 6.68433)" fill="url(#paint11_radial_17_6841)"/>
<circle cx="3.53306" cy="3.53306" r="3.53306" transform="matrix(-1 0 0 1 266.178 25.6094)" fill="url(#paint12_radial_17_6841)"/>
<circle opacity="0.6" cx="5.88843" cy="5.88843" r="5.88843" transform="matrix(-1 0 0 1 246.732 15.9915)" fill="url(#paint13_radial_17_6841)"/>
<circle cx="5.88843" cy="5.88843" r="5.88843" transform="matrix(-1 0 0 1 75.1328 33.231)" fill="url(#paint14_radial_17_6841)"/>
<circle cx="5.88843" cy="5.88843" r="5.88843" transform="matrix(-1 0 0 1 370.902 17.4263)" fill="url(#paint15_radial_17_6841)"/>
<circle cx="5.88843" cy="5.88843" r="5.88843" transform="matrix(-1 0 0 1 306.68 140.33)" fill="url(#paint16_radial_17_6841)"/>
<path d="M122.943 27.2129C128.833 27.2129 130.349 25.6972 130.349 19.8074C130.349 25.6972 131.865 27.2129 137.754 27.2129C131.865 27.2129 130.349 28.7287 130.349 34.6184C130.349 28.7287 128.833 27.2129 122.943 27.2129Z" fill="url(#paint17_radial_17_6841)"/>
<path d="M166.08 252.303C171.97 252.303 173.486 250.788 173.486 244.898C173.486 250.788 175.001 252.303 180.891 252.303C175.001 252.303 173.486 253.819 173.486 259.709C173.486 253.819 171.97 252.303 166.08 252.303Z" fill="url(#paint18_radial_17_6841)"/>
<path d="M341.625 140.543C347.515 140.543 349.031 139.027 349.031 133.138C349.031 139.027 350.546 140.543 356.436 140.543C350.546 140.543 349.031 142.059 349.031 147.949C349.031 142.059 347.515 140.543 341.625 140.543Z" fill="url(#paint19_radial_17_6841)"/>
<circle cx="3.53306" cy="3.53306" r="3.53306" transform="matrix(-1 0 0 1 357.74 86.8689)" fill="url(#paint20_radial_17_6841)"/>
<circle cx="3.53306" cy="3.53306" r="3.53306" transform="matrix(-1 0 0 1 291.301 128.949)" fill="url(#paint21_radial_17_6841)"/>
<circle cx="3.53306" cy="3.53306" r="3.53306" transform="matrix(-1 0 0 1 253.869 255.622)" fill="url(#paint22_radial_17_6841)"/>
<circle cx="3.53306" cy="3.53306" r="3.53306" transform="matrix(-1 0 0 1 346.998 198.049)" fill="url(#paint23_radial_17_6841)"/>
<circle cx="3.53306" cy="3.53306" r="3.53306" transform="matrix(-1 0 0 1 329.5 239.253)" fill="url(#paint24_radial_17_6841)"/>
<circle cx="3.53306" cy="3.53306" r="3.53306" transform="matrix(-1 0 0 1 244.273 244.898)" fill="url(#paint25_radial_17_6841)"/>
<circle cx="3.53306" cy="3.53306" r="3.53306" transform="matrix(-1 0 0 1 348.691 163.618)" fill="url(#paint26_radial_17_6841)"/>
<circle cx="3.53306" cy="3.53306" r="3.53306" transform="matrix(-1 0 0 1 218.309 248.285)" fill="url(#paint27_radial_17_6841)"/>
<circle cx="3.53306" cy="3.53306" r="3.53306" transform="matrix(-1 0 0 1 204.76 262.96)" fill="url(#paint28_radial_17_6841)"/>
<circle cx="3.53306" cy="3.53306" r="3.53306" transform="matrix(-1 0 0 1 157.912 262.96)" fill="url(#paint29_radial_17_6841)"/>
<circle cx="3.53306" cy="3.53306" r="3.53306" transform="matrix(-1 0 0 1 124.609 244.898)" fill="url(#paint30_radial_17_6841)"/>
<circle cx="3.53306" cy="3.53306" r="3.53306" transform="matrix(-1 0 0 1 72.6797 252.236)" fill="url(#paint31_radial_17_6841)"/>
<circle cx="3.53306" cy="3.53306" r="3.53306" transform="matrix(-1 0 0 1 361.674 185.067)" fill="url(#paint32_radial_17_6841)"/>
<circle cx="5.88843" cy="5.88843" r="5.88843" transform="matrix(-1 0 0 1 337.598 47.342)" fill="url(#paint33_radial_17_6841)"/>
<circle cx="5.88843" cy="5.88843" r="5.88843" transform="matrix(-1 0 0 1 347.436 108.067)" fill="url(#paint34_radial_17_6841)"/>
<path d="M210.975 41.8604C218.337 41.8604 220.232 39.9657 220.232 32.6035C220.232 39.9657 222.126 41.8604 229.488 41.8604C222.126 41.8604 220.232 43.7551 220.232 51.1173C220.232 43.7551 218.337 41.8604 210.975 41.8604Z" fill="url(#paint35_radial_17_6841)"/>
<defs>
<radialGradient id="paint0_radial_17_6841" cx="0" cy="0" r="1" gradientUnits="userSpaceOnUse" gradientTransform="translate(3.53306 3.53306) rotate(90) scale(3.53306)">
<stop stop-color="#7DE2FF"/>
<stop offset="0.62963" stop-color="#00C6FF" stop-opacity="0"/>
</radialGradient>
<radialGradient id="paint1_radial_17_6841" cx="0" cy="0" r="1" gradientUnits="userSpaceOnUse" gradientTransform="translate(3.53306 3.53306) rotate(90) scale(3.53306)">
<stop stop-color="#7DE2FF"/>
<stop offset="0.62963" stop-color="#00C6FF" stop-opacity="0"/>
</radialGradient>
<radialGradient id="paint2_radial_17_6841" cx="0" cy="0" r="1" gradientUnits="userSpaceOnUse" gradientTransform="translate(3.53306 3.53306) rotate(90) scale(3.53306)">
<stop stop-color="#7DE2FF"/>
<stop offset="0.62963" stop-color="#00C6FF" stop-opacity="0"/>
</radialGradient>
<radialGradient id="paint3_radial_17_6841" cx="0" cy="0" r="1" gradientUnits="userSpaceOnUse" gradientTransform="translate(3.53306 3.53306) rotate(90) scale(3.53306)">
<stop stop-color="#7DE2FF"/>
<stop offset="0.62963" stop-color="#00C6FF" stop-opacity="0"/>
</radialGradient>
<radialGradient id="paint4_radial_17_6841" cx="0" cy="0" r="1" gradientUnits="userSpaceOnUse" gradientTransform="translate(3.53306 3.53306) rotate(90) scale(3.53306)">
<stop stop-color="#7DE2FF"/>
<stop offset="0.62963" stop-color="#00C6FF" stop-opacity="0"/>
</radialGradient>
<radialGradient id="paint5_radial_17_6841" cx="0" cy="0" r="1" gradientUnits="userSpaceOnUse" gradientTransform="translate(3.53306 3.53306) rotate(90) scale(3.53306)">
<stop stop-color="#7DE2FF"/>
<stop offset="0.62963" stop-color="#00C6FF" stop-opacity="0"/>
</radialGradient>
<radialGradient id="paint6_radial_17_6841" cx="0" cy="0" r="1" gradientUnits="userSpaceOnUse" gradientTransform="translate(3.53306 3.53306) rotate(90) scale(3.53306)">
<stop stop-color="#7DE2FF"/>
<stop offset="0.62963" stop-color="#00C6FF" stop-opacity="0"/>
</radialGradient>
<radialGradient id="paint7_radial_17_6841" cx="0" cy="0" r="1" gradientUnits="userSpaceOnUse" gradientTransform="translate(3.53306 3.53306) rotate(90) scale(3.53306)">
<stop stop-color="#7DE2FF"/>
<stop offset="0.62963" stop-color="#00C6FF" stop-opacity="0"/>
</radialGradient>
<radialGradient id="paint8_radial_17_6841" cx="0" cy="0" r="1" gradientUnits="userSpaceOnUse" gradientTransform="translate(3.53306 3.53306) rotate(90) scale(3.53306)">
<stop stop-color="#7DE2FF"/>
<stop offset="0.62963" stop-color="#00C6FF" stop-opacity="0"/>
</radialGradient>
<radialGradient id="paint9_radial_17_6841" cx="0" cy="0" r="1" gradientUnits="userSpaceOnUse" gradientTransform="translate(3.53306 3.53306) rotate(90) scale(3.53306)">
<stop stop-color="#7DE2FF"/>
<stop offset="0.62963" stop-color="#00C6FF" stop-opacity="0"/>
</radialGradient>
<radialGradient id="paint10_radial_17_6841" cx="0" cy="0" r="1" gradientUnits="userSpaceOnUse" gradientTransform="translate(3.53306 3.53306) rotate(90) scale(3.53306)">
<stop stop-color="#7DE2FF"/>
<stop offset="0.62963" stop-color="#00C6FF" stop-opacity="0"/>
</radialGradient>
<radialGradient id="paint11_radial_17_6841" cx="0" cy="0" r="1" gradientUnits="userSpaceOnUse" gradientTransform="translate(3.53306 3.53306) rotate(90) scale(3.53306)">
<stop stop-color="#7DE2FF"/>
<stop offset="0.62963" stop-color="#00C6FF" stop-opacity="0"/>
</radialGradient>
<radialGradient id="paint12_radial_17_6841" cx="0" cy="0" r="1" gradientUnits="userSpaceOnUse" gradientTransform="translate(3.53306 3.53306) rotate(90) scale(3.53306)">
<stop stop-color="#7DE2FF"/>
<stop offset="0.62963" stop-color="#00C6FF" stop-opacity="0"/>
</radialGradient>
<radialGradient id="paint13_radial_17_6841" cx="0" cy="0" r="1" gradientUnits="userSpaceOnUse" gradientTransform="translate(5.88843 5.88843) rotate(90) scale(5.88843)">
<stop stop-color="white"/>
<stop offset="0.62963" stop-color="#7DE2FF" stop-opacity="0"/>
</radialGradient>
<radialGradient id="paint14_radial_17_6841" cx="0" cy="0" r="1" gradientUnits="userSpaceOnUse" gradientTransform="translate(5.88843 5.88843) rotate(90) scale(5.88843)">
<stop stop-color="white"/>
<stop offset="0.62963" stop-color="#7DE2FF" stop-opacity="0"/>
</radialGradient>
<radialGradient id="paint15_radial_17_6841" cx="0" cy="0" r="1" gradientUnits="userSpaceOnUse" gradientTransform="translate(5.88843 5.88843) rotate(90) scale(5.88843)">
<stop stop-color="white"/>
<stop offset="0.62963" stop-color="#7DE2FF" stop-opacity="0"/>
</radialGradient>
<radialGradient id="paint16_radial_17_6841" cx="0" cy="0" r="1" gradientUnits="userSpaceOnUse" gradientTransform="translate(5.88843 5.88843) rotate(90) scale(5.88843)">
<stop stop-color="white"/>
<stop offset="0.62963" stop-color="#7DE2FF" stop-opacity="0"/>
</radialGradient>
<radialGradient id="paint17_radial_17_6841" cx="0" cy="0" r="1" gradientUnits="userSpaceOnUse" gradientTransform="translate(130.349 27.2129) rotate(90) scale(7.40553)">
<stop stop-color="white"/>
<stop offset="0.62963" stop-color="#7DE2FF" stop-opacity="0"/>
</radialGradient>
<radialGradient id="paint18_radial_17_6841" cx="0" cy="0" r="1" gradientUnits="userSpaceOnUse" gradientTransform="translate(173.486 252.303) rotate(90) scale(7.40553)">
<stop stop-color="white"/>
<stop offset="0.62963" stop-color="#7DE2FF" stop-opacity="0"/>
</radialGradient>
<radialGradient id="paint19_radial_17_6841" cx="0" cy="0" r="1" gradientUnits="userSpaceOnUse" gradientTransform="translate(349.031 140.543) rotate(90) scale(7.40553)">
<stop stop-color="white"/>
<stop offset="0.62963" stop-color="#7DE2FF" stop-opacity="0"/>
</radialGradient>
<radialGradient id="paint20_radial_17_6841" cx="0" cy="0" r="1" gradientUnits="userSpaceOnUse" gradientTransform="translate(3.53306 3.53306) rotate(90) scale(3.53306)">
<stop stop-color="#7DE2FF"/>
<stop offset="0.62963" stop-color="#00C6FF" stop-opacity="0"/>
</radialGradient>
<radialGradient id="paint21_radial_17_6841" cx="0" cy="0" r="1" gradientUnits="userSpaceOnUse" gradientTransform="translate(3.53306 3.53306) rotate(90) scale(3.53306)">
<stop stop-color="#7DE2FF"/>
<stop offset="0.62963" stop-color="#00C6FF" stop-opacity="0"/>
</radialGradient>
<radialGradient id="paint22_radial_17_6841" cx="0" cy="0" r="1" gradientUnits="userSpaceOnUse" gradientTransform="translate(3.53306 3.53306) rotate(90) scale(3.53306)">
<stop stop-color="#7DE2FF"/>
<stop offset="0.62963" stop-color="#00C6FF" stop-opacity="0"/>
</radialGradient>
<radialGradient id="paint23_radial_17_6841" cx="0" cy="0" r="1" gradientUnits="userSpaceOnUse" gradientTransform="translate(3.53306 3.53306) rotate(90) scale(3.53306)">
<stop stop-color="#7DE2FF"/>
<stop offset="0.62963" stop-color="#00C6FF" stop-opacity="0"/>
</radialGradient>
<radialGradient id="paint24_radial_17_6841" cx="0" cy="0" r="1" gradientUnits="userSpaceOnUse" gradientTransform="translate(3.53306 3.53306) rotate(90) scale(3.53306)">
<stop stop-color="#7DE2FF"/>
<stop offset="0.62963" stop-color="#00C6FF" stop-opacity="0"/>
</radialGradient>
<radialGradient id="paint25_radial_17_6841" cx="0" cy="0" r="1" gradientUnits="userSpaceOnUse" gradientTransform="translate(3.53306 3.53306) rotate(90) scale(3.53306)">
<stop stop-color="#7DE2FF"/>
<stop offset="0.62963" stop-color="#00C6FF" stop-opacity="0"/>
</radialGradient>
<radialGradient id="paint26_radial_17_6841" cx="0" cy="0" r="1" gradientUnits="userSpaceOnUse" gradientTransform="translate(3.53306 3.53306) rotate(90) scale(3.53306)">
<stop stop-color="#7DE2FF"/>
<stop offset="0.62963" stop-color="#00C6FF" stop-opacity="0"/>
</radialGradient>
<radialGradient id="paint27_radial_17_6841" cx="0" cy="0" r="1" gradientUnits="userSpaceOnUse" gradientTransform="translate(3.53306 3.53306) rotate(90) scale(3.53306)">
<stop stop-color="#7DE2FF"/>
<stop offset="0.62963" stop-color="#00C6FF" stop-opacity="0"/>
</radialGradient>
<radialGradient id="paint28_radial_17_6841" cx="0" cy="0" r="1" gradientUnits="userSpaceOnUse" gradientTransform="translate(3.53306 3.53306) rotate(90) scale(3.53306)">
<stop stop-color="#7DE2FF"/>
<stop offset="0.62963" stop-color="#00C6FF" stop-opacity="0"/>
</radialGradient>
<radialGradient id="paint29_radial_17_6841" cx="0" cy="0" r="1" gradientUnits="userSpaceOnUse" gradientTransform="translate(3.53306 3.53306) rotate(90) scale(3.53306)">
<stop stop-color="#7DE2FF"/>
<stop offset="0.62963" stop-color="#00C6FF" stop-opacity="0"/>
</radialGradient>
<radialGradient id="paint30_radial_17_6841" cx="0" cy="0" r="1" gradientUnits="userSpaceOnUse" gradientTransform="translate(3.53306 3.53306) rotate(90) scale(3.53306)">
<stop stop-color="#7DE2FF"/>
<stop offset="0.62963" stop-color="#00C6FF" stop-opacity="0"/>
</radialGradient>
<radialGradient id="paint31_radial_17_6841" cx="0" cy="0" r="1" gradientUnits="userSpaceOnUse" gradientTransform="translate(3.53306 3.53306) rotate(90) scale(3.53306)">
<stop stop-color="#7DE2FF"/>
<stop offset="0.62963" stop-color="#00C6FF" stop-opacity="0"/>
</radialGradient>
<radialGradient id="paint32_radial_17_6841" cx="0" cy="0" r="1" gradientUnits="userSpaceOnUse" gradientTransform="translate(3.53306 3.53306) rotate(90) scale(3.53306)">
<stop stop-color="#7DE2FF"/>
<stop offset="0.62963" stop-color="#00C6FF" stop-opacity="0"/>
</radialGradient>
<radialGradient id="paint33_radial_17_6841" cx="0" cy="0" r="1" gradientUnits="userSpaceOnUse" gradientTransform="translate(5.88843 5.88843) rotate(90) scale(5.88843)">
<stop stop-color="white"/>
<stop offset="0.62963" stop-color="#7DE2FF" stop-opacity="0"/>
</radialGradient>
<radialGradient id="paint34_radial_17_6841" cx="0" cy="0" r="1" gradientUnits="userSpaceOnUse" gradientTransform="translate(5.88843 5.88843) rotate(90) scale(5.88843)">
<stop stop-color="white"/>
<stop offset="0.62963" stop-color="#7DE2FF" stop-opacity="0"/>
</radialGradient>
<radialGradient id="paint35_radial_17_6841" cx="0" cy="0" r="1" gradientUnits="userSpaceOnUse" gradientTransform="translate(220.232 41.8604) rotate(90) scale(9.25691)">
<stop stop-color="white"/>
<stop offset="0.62963" stop-color="#7DE2FF" stop-opacity="0"/>
</radialGradient>
</defs>
</svg>
