<svg width="351" height="28" viewBox="0 0 351 28" fill="none" xmlns="http://www.w3.org/2000/svg">
<path d="M8.00751 10.501V11H1.29462V10.501H8.00751ZM1.43134 10.501V13.3994H0.904968L0.91864 10.501H1.43134ZM8.44501 10.501L8.45868 13.3926H7.91864V10.501H8.44501ZM7.26239 1.04688V1.53906H3.37274V1.04688H7.26239ZM7.65887 1.04688V11H7.12567V1.04688H7.65887ZM3.18134 1.04688H3.69403L3.57098 4.37598C3.53908 5.04134 3.47984 5.66113 3.39325 6.23535C3.31122 6.80957 3.21096 7.33594 3.09247 7.81445C2.97854 8.28841 2.85093 8.71452 2.70966 9.09277C2.56838 9.46647 2.42255 9.78776 2.27216 10.0566C2.12632 10.3255 1.98277 10.5397 1.84149 10.6992C1.70022 10.8587 1.56805 10.959 1.44501 11H1.04169V10.501H1.41083C1.50653 10.3962 1.63186 10.207 1.7868 9.93359C1.94631 9.66016 2.11265 9.2819 2.28583 8.79883C2.46356 8.31576 2.62079 7.71191 2.75751 6.9873C2.89423 6.25814 2.98765 5.3877 3.03778 4.37598L3.18134 1.04688ZM10.807 1.04688V11H10.2806V1.04688H10.807ZM17.1679 5.70898V6.20117H13.4492V5.70898H17.1679ZM18.665 7.9375H19.1914C19.1367 8.63477 18.9795 9.22266 18.7197 9.70117C18.4645 10.1751 18.1181 10.5329 17.6806 10.7744C17.2477 11.016 16.735 11.1367 16.1425 11.1367C15.6731 11.1367 15.247 11.0319 14.8642 10.8223C14.486 10.6081 14.1601 10.3073 13.8867 9.91992C13.6133 9.52799 13.4036 9.06315 13.2578 8.52539C13.1119 7.98307 13.039 7.38379 13.039 6.72754V5.31934C13.039 4.66309 13.1119 4.06608 13.2578 3.52832C13.4036 2.986 13.6133 2.52116 13.8867 2.13379C14.1601 1.74186 14.4883 1.44108 14.8711 1.23145C15.2584 1.01725 15.6914 0.910156 16.1699 0.910156C16.7532 0.910156 17.2614 1.03092 17.6943 1.27246C18.1272 1.514 18.4713 1.87174 18.7265 2.3457C18.9817 2.81966 19.1367 3.40755 19.1914 4.10938H18.6582C18.608 3.5306 18.4804 3.04069 18.2754 2.63965C18.0748 2.23405 17.7991 1.92643 17.4482 1.7168C17.1019 1.50716 16.6758 1.40234 16.1699 1.40234C15.7688 1.40234 15.4088 1.49577 15.0898 1.68262C14.7708 1.86491 14.4974 2.12923 14.2695 2.47559C14.0416 2.82194 13.8662 3.23438 13.7431 3.71289C13.6246 4.18685 13.5654 4.71777 13.5654 5.30566V6.72754C13.5654 7.19238 13.6041 7.62533 13.6816 8.02637C13.7591 8.42741 13.8685 8.78971 14.0097 9.11328C14.1556 9.43229 14.3333 9.70573 14.5429 9.93359C14.7526 10.1615 14.9918 10.3369 15.2607 10.46C15.5296 10.5785 15.8235 10.6377 16.1425 10.6377C16.6484 10.6377 17.0791 10.542 17.4345 10.3506C17.79 10.1546 18.0703 9.8584 18.2754 9.46191C18.4804 9.06087 18.6103 8.55273 18.665 7.9375ZM23.8981 1.04688V11H23.3785V1.04688H23.8981ZM26.8649 1.04688V1.53906H20.4117V1.04688H26.8649ZM28.9397 10.0566L34.0325 1.04688H34.552V11H34.0325V1.96973L28.9397 11H28.4133V1.04688H28.9397V10.0566ZM36.6815 1.04688H37.1942V3.56934C37.1942 4.18457 37.2808 4.68132 37.454 5.05957C37.6317 5.43327 37.8869 5.70671 38.2196 5.87988C38.5569 6.0485 38.9738 6.13281 39.4706 6.13281C39.6802 6.13281 39.8899 6.1237 40.0995 6.10547C40.3137 6.08268 40.5256 6.05078 40.7352 6.00977C40.9449 5.96875 41.1522 5.91862 41.3573 5.85938C41.5624 5.79557 41.7675 5.72721 41.9725 5.6543V6.16016C41.7811 6.22852 41.5852 6.29004 41.3847 6.34473C41.1887 6.39941 40.9859 6.44954 40.7763 6.49512C40.5712 6.54069 40.3593 6.57715 40.1405 6.60449C39.9218 6.62728 39.6985 6.63867 39.4706 6.63867C38.8736 6.63867 38.3677 6.53841 37.953 6.33789C37.5383 6.13737 37.2216 5.81152 37.0028 5.36035C36.7886 4.90918 36.6815 4.31217 36.6815 3.56934V1.04688ZM41.7675 1.04688H42.2802V11H41.7675V1.04688ZM50.3638 5.62695V6.12598H44.9976V5.62695H50.3638ZM45.1616 1.04688V11H44.6421V1.04688H45.1616ZM50.7534 1.04688V11H50.2271V1.04688H50.7534ZM55.8293 1.46387L52.8625 11H52.3088L55.4806 1.04688H55.8908L55.8293 1.46387ZM58.6252 11L55.6652 1.46387L55.6105 1.04688H56.0138L59.1789 11H58.6252ZM57.9347 7.60254V8.09473H53.5871V7.60254H57.9347ZM70.0483 10.501V11H63.3354V10.501H70.0483ZM63.4721 10.501V13.3994H62.9458L62.9594 10.501H63.4721ZM70.4858 10.501L70.4995 13.3926H69.9594V10.501H70.4858ZM69.3032 1.04688V1.53906H65.4135V1.04688H69.3032ZM69.6997 1.04688V11H69.1665V1.04688H69.6997ZM65.2221 1.04688H65.7348L65.6118 4.37598C65.5799 5.04134 65.5206 5.66113 65.434 6.23535C65.352 6.80957 65.2517 7.33594 65.1333 7.81445C65.0193 8.28841 64.8917 8.71452 64.7504 9.09277C64.6092 9.46647 64.4633 9.78776 64.3129 10.0566C64.1671 10.3255 64.0236 10.5397 63.8823 10.6992C63.741 10.8587 63.6088 10.959 63.4858 11H63.0825V10.501H63.4516C63.5473 10.3962 63.6726 10.207 63.8276 9.93359C63.9871 9.66016 64.1534 9.2819 64.3266 8.79883C64.5043 8.31576 64.6616 7.71191 64.7983 6.9873C64.935 6.25814 65.0284 5.3877 65.0786 4.37598L65.2221 1.04688ZM78.0089 4.82715V7.22656C78.0089 7.85091 77.936 8.4069 77.7901 8.89453C77.6443 9.38216 77.4347 9.79232 77.1612 10.125C76.8878 10.4577 76.5551 10.7129 76.1632 10.8906C75.7758 11.0638 75.336 11.1504 74.8438 11.1504C74.3562 11.1504 73.9164 11.0638 73.5245 10.8906C73.1326 10.7129 72.7976 10.4577 72.5196 10.125C72.2462 9.79232 72.0343 9.38216 71.8839 8.89453C71.7335 8.4069 71.6583 7.85091 71.6583 7.22656V4.82715C71.6583 4.19824 71.7312 3.64225 71.877 3.15918C72.0274 2.67155 72.2393 2.26139 72.5128 1.92871C72.7908 1.59603 73.1235 1.3431 73.5108 1.16992C73.9028 0.996745 74.3403 0.910156 74.8233 0.910156C75.3201 0.910156 75.7644 0.996745 76.1563 1.16992C76.5483 1.3431 76.8809 1.59603 77.1544 1.92871C77.4324 2.26139 77.6443 2.67155 77.7901 3.15918C77.936 3.64225 78.0089 4.19824 78.0089 4.82715ZM77.4825 7.22656V4.81348C77.4825 4.27116 77.4233 3.79036 77.3048 3.37109C77.1908 2.94727 77.0222 2.5918 76.7989 2.30469C76.5756 2.01302 76.2976 1.79199 75.9649 1.6416C75.6368 1.49121 75.2563 1.41602 74.8233 1.41602C74.4041 1.41602 74.0304 1.49121 73.7022 1.6416C73.3741 1.79199 73.0961 2.01302 72.8682 2.30469C72.6449 2.5918 72.474 2.94727 72.3556 3.37109C72.2416 3.79036 72.1847 4.27116 72.1847 4.81348V7.22656C72.1847 7.77344 72.2439 8.25879 72.3624 8.68262C72.4809 9.10189 72.6541 9.45736 72.8819 9.74902C73.1098 10.0407 73.3878 10.2617 73.7159 10.4121C74.044 10.5625 74.42 10.6377 74.8438 10.6377C75.2722 10.6377 75.6505 10.5625 75.9786 10.4121C76.3067 10.2617 76.5824 10.0407 76.8057 9.74902C77.0291 9.45736 77.1977 9.10189 77.3116 8.68262C77.4255 8.25879 77.4825 7.77344 77.4825 7.22656ZM85.0329 1.04688V1.53906H80.5281V11H79.9949V1.04688H85.0329ZM80.2888 5.51758H82.6404C83.2465 5.51758 83.7523 5.63379 84.1579 5.86621C84.5635 6.09863 84.8712 6.41992 85.0808 6.83008C85.2904 7.24023 85.3952 7.71647 85.3952 8.25879C85.3952 8.65983 85.336 9.02897 85.2175 9.36621C85.099 9.69889 84.9236 9.98828 84.6911 10.2344C84.4587 10.4759 84.1716 10.665 83.8298 10.8018C83.488 10.9339 83.0915 11 82.6404 11H80.0017V1.04688H80.5349V10.501H82.6404C83.169 10.501 83.5951 10.3984 83.9187 10.1934C84.2468 9.98372 84.4861 9.70801 84.6365 9.36621C84.7868 9.01986 84.862 8.64616 84.862 8.24512C84.862 7.85319 84.7868 7.48861 84.6365 7.15137C84.4861 6.81413 84.2468 6.54297 83.9187 6.33789C83.5951 6.12826 83.169 6.02344 82.6404 6.02344H80.2888V5.51758ZM90.184 1.46387L87.2172 11H86.6634L89.8353 1.04688H90.2455L90.184 1.46387ZM92.9799 11L90.0199 1.46387L89.9652 1.04688H90.3685L93.5336 11H92.9799ZM92.2894 7.60254V8.09473H87.9418V7.60254H92.2894ZM97.8096 6.12598H95.3281L95.3145 5.64062H97.4063C97.8665 5.64062 98.2539 5.56543 98.5684 5.41504C98.8874 5.26465 99.1289 5.03678 99.293 4.73145C99.457 4.42611 99.5391 4.04785 99.5391 3.59668C99.5391 3.14095 99.4548 2.76042 99.2861 2.45508C99.1221 2.14974 98.8737 1.92188 98.541 1.77148C98.2129 1.61654 97.8027 1.53906 97.3106 1.53906H95.4785V11H94.959V1.04688H97.3106C97.7344 1.04688 98.1149 1.09928 98.4522 1.2041C98.794 1.30436 99.0833 1.45931 99.3203 1.66895C99.5619 1.87402 99.7441 2.13835 99.8672 2.46191C99.9948 2.78548 100.059 3.17057 100.059 3.61719C100.059 4.02734 99.988 4.39648 99.8467 4.72461C99.7054 5.05273 99.5003 5.32161 99.2315 5.53125C98.9671 5.73633 98.6481 5.86165 98.2744 5.90723L97.8096 6.12598ZM97.7549 11H95.2051L95.4443 10.501H97.7549C98.1969 10.501 98.5752 10.4121 98.8897 10.2344C99.2087 10.0521 99.4525 9.79232 99.6211 9.45508C99.7897 9.11784 99.874 8.71452 99.874 8.24512C99.874 7.86686 99.7988 7.51823 99.6484 7.19922C99.4981 6.87565 99.2702 6.61589 98.9649 6.41992C98.6595 6.22396 98.2744 6.12598 97.8096 6.12598H96.3809L96.3945 5.64062H98.4385L98.5205 5.81152C98.8851 5.86165 99.2087 6.00065 99.4912 6.22852C99.7783 6.45638 100.002 6.74577 100.161 7.09668C100.325 7.44303 100.407 7.82129 100.407 8.23145C100.407 8.82845 100.293 9.33431 100.065 9.74902C99.8421 10.1592 99.5322 10.4714 99.1357 10.6855C98.7393 10.8952 98.279 11 97.7549 11ZM102.824 1.04688V11H102.291V1.04688H102.824ZM108.129 1.04688L104.355 6.21484H102.612L102.598 5.71582H104.061L107.459 1.04688H108.129ZM107.718 11L103.993 6.15332L104.3 5.68848L108.388 11H107.718ZM112.541 1.46387L109.575 11H109.021L112.193 1.04688H112.603L112.541 1.46387ZM115.337 11L112.377 1.46387L112.323 1.04688H112.726L115.891 11H115.337ZM114.647 7.60254V8.09473H110.299V7.60254H114.647ZM117.077 10.6035C117.077 10.4805 117.118 10.3757 117.2 10.2891C117.282 10.1979 117.394 10.1523 117.535 10.1523C117.676 10.1523 117.79 10.1979 117.877 10.2891C117.968 10.3757 118.014 10.4805 118.014 10.6035C118.014 10.7266 117.968 10.8314 117.877 10.918C117.79 11.0046 117.676 11.0479 117.535 11.0479C117.394 11.0479 117.282 11.0046 117.2 10.918C117.118 10.8314 117.077 10.7266 117.077 10.6035ZM129.047 5.62695V6.12598H123.681V5.62695H129.047ZM123.845 1.04688V11H123.325V1.04688H123.845ZM129.437 1.04688V11H128.91V1.04688H129.437ZM136.967 10.501V11H132.113V10.501H136.967ZM132.318 1.04688V11H131.799V1.04688H132.318ZM136.386 5.62695V6.12598H132.113V5.62695H136.386ZM136.953 1.04688V1.53906H132.113V1.04688H136.953ZM146.961 7.9375H147.494C147.44 8.7168 147.282 9.34115 147.023 9.81055C146.763 10.2799 146.414 10.6217 145.977 10.8359C145.544 11.0456 145.031 11.1504 144.439 11.1504C143.969 11.1504 143.545 11.0592 143.167 10.877C142.793 10.6947 142.472 10.4303 142.203 10.084C141.939 9.73763 141.736 9.31608 141.595 8.81934C141.454 8.31803 141.383 7.75065 141.383 7.11719V4.82031C141.383 4.20508 141.454 3.65592 141.595 3.17285C141.736 2.68522 141.941 2.27507 142.21 1.94238C142.479 1.60514 142.803 1.34993 143.181 1.17676C143.564 0.999023 143.994 0.910156 144.473 0.910156C145.052 0.910156 145.557 1.01497 145.99 1.22461C146.423 1.43424 146.767 1.77376 147.023 2.24316C147.282 2.70801 147.44 3.33008 147.494 4.10938H146.961C146.911 3.44401 146.786 2.91536 146.585 2.52344C146.385 2.12695 146.109 1.84212 145.758 1.66895C145.407 1.49121 144.979 1.40234 144.473 1.40234C144.072 1.40234 143.714 1.47754 143.4 1.62793C143.085 1.77832 142.816 1.99935 142.593 2.29102C142.374 2.57812 142.206 2.93359 142.087 3.35742C141.973 3.77669 141.916 4.25977 141.916 4.80664V7.11719C141.916 7.67318 141.973 8.16992 142.087 8.60742C142.201 9.04492 142.365 9.41634 142.579 9.72168C142.798 10.027 143.062 10.2594 143.372 10.4189C143.687 10.5739 144.042 10.6514 144.439 10.6514C144.949 10.6514 145.38 10.5716 145.731 10.4121C146.086 10.2526 146.366 9.97689 146.571 9.58496C146.781 9.18848 146.911 8.63932 146.961 7.9375ZM155.14 1.04688V1.53906H150.888V1.04688H155.14ZM155.523 1.04688V11H154.997V1.04688H155.523ZM150.697 1.04688H151.223L150.991 5.47656C150.95 6.26953 150.9 6.97135 150.841 7.58203C150.781 8.18815 150.702 8.70768 150.601 9.14062C150.506 9.57357 150.378 9.92676 150.219 10.2002C150.064 10.4736 149.868 10.6764 149.631 10.8086C149.398 10.9362 149.116 11 148.783 11H148.557V10.501H148.769C149.002 10.501 149.202 10.4531 149.371 10.3574C149.544 10.2572 149.69 10.0977 149.808 9.87891C149.931 9.6556 150.034 9.35254 150.116 8.96973C150.198 8.58236 150.269 8.09928 150.328 7.52051C150.387 6.94173 150.435 6.24674 150.471 5.43555L150.697 1.04688ZM158.569 1.04688V11H158.042V1.04688H158.569ZM167.712 10.501V11H160.999V10.501H167.712ZM161.136 10.501V13.3994H160.609L160.623 10.501H161.136ZM168.149 10.501L168.163 13.3926H167.623V10.501H168.149ZM166.967 1.04688V1.53906H163.077V1.04688H166.967ZM167.363 1.04688V11H166.83V1.04688H167.363ZM162.886 1.04688H163.398L163.275 4.37598C163.244 5.04134 163.184 5.66113 163.098 6.23535C163.016 6.80957 162.915 7.33594 162.797 7.81445C162.683 8.28841 162.555 8.71452 162.414 9.09277C162.273 9.46647 162.127 9.78776 161.977 10.0566C161.831 10.3255 161.687 10.5397 161.546 10.6992C161.405 10.8587 161.273 10.959 161.149 11H160.746V10.501H161.115C161.211 10.3962 161.336 10.207 161.491 9.93359C161.651 9.66016 161.817 9.2819 161.99 8.79883C162.168 8.31576 162.325 7.71191 162.462 6.9873C162.599 6.25814 162.692 5.3877 162.742 4.37598L162.886 1.04688ZM175.642 6.12598H173.16L173.147 5.64062H175.239C175.699 5.64062 176.086 5.56543 176.401 5.41504C176.72 5.26465 176.961 5.03678 177.125 4.73145C177.289 4.42611 177.371 4.04785 177.371 3.59668C177.371 3.14095 177.287 2.76042 177.118 2.45508C176.954 2.14974 176.706 1.92188 176.373 1.77148C176.045 1.61654 175.635 1.53906 175.143 1.53906H173.311V11H172.791V1.04688H175.143C175.567 1.04688 175.947 1.09928 176.285 1.2041C176.626 1.30436 176.916 1.45931 177.153 1.66895C177.394 1.87402 177.576 2.13835 177.7 2.46191C177.827 2.78548 177.891 3.17057 177.891 3.61719C177.891 4.02734 177.82 4.39648 177.679 4.72461C177.538 5.05273 177.333 5.32161 177.064 5.53125C176.799 5.73633 176.48 5.86165 176.107 5.90723L175.642 6.12598ZM175.587 11H173.037L173.277 10.501H175.587C176.029 10.501 176.408 10.4121 176.722 10.2344C177.041 10.0521 177.285 9.79232 177.453 9.45508C177.622 9.11784 177.706 8.71452 177.706 8.24512C177.706 7.86686 177.631 7.51823 177.481 7.19922C177.33 6.87565 177.103 6.61589 176.797 6.41992C176.492 6.22396 176.107 6.12598 175.642 6.12598H174.213L174.227 5.64062H176.271L176.353 5.81152C176.717 5.86165 177.041 6.00065 177.324 6.22852C177.611 6.45638 177.834 6.74577 177.993 7.09668C178.158 7.44303 178.24 7.82129 178.24 8.23145C178.24 8.82845 178.126 9.33431 177.898 9.74902C177.674 10.1592 177.365 10.4714 176.968 10.6855C176.572 10.8952 176.111 11 175.587 11ZM180.649 10.0566L185.742 1.04688H186.262V11H185.742V1.96973L180.649 11H180.123V1.04688H180.649V10.0566ZM189.171 1.04688V11H188.637V1.04688H189.171ZM194.475 1.04688L190.702 6.21484H188.959L188.945 5.71582H190.408L193.805 1.04688H194.475ZM194.065 11L190.339 6.15332L190.647 5.68848L194.735 11H194.065ZM202.115 4.82715V7.22656C202.115 7.85091 202.042 8.4069 201.896 8.89453C201.75 9.38216 201.54 9.79232 201.267 10.125C200.993 10.4577 200.661 10.7129 200.269 10.8906C199.881 11.0638 199.442 11.1504 198.949 11.1504C198.462 11.1504 198.022 11.0638 197.63 10.8906C197.238 10.7129 196.903 10.4577 196.625 10.125C196.352 9.79232 196.14 9.38216 195.99 8.89453C195.839 8.4069 195.764 7.85091 195.764 7.22656V4.82715C195.764 4.19824 195.837 3.64225 195.983 3.15918C196.133 2.67155 196.345 2.26139 196.618 1.92871C196.896 1.59603 197.229 1.3431 197.616 1.16992C198.008 0.996745 198.446 0.910156 198.929 0.910156C199.426 0.910156 199.87 0.996745 200.262 1.16992C200.654 1.3431 200.987 1.59603 201.26 1.92871C201.538 2.26139 201.75 2.67155 201.896 3.15918C202.042 3.64225 202.115 4.19824 202.115 4.82715ZM201.588 7.22656V4.81348C201.588 4.27116 201.529 3.79036 201.41 3.37109C201.296 2.94727 201.128 2.5918 200.905 2.30469C200.681 2.01302 200.403 1.79199 200.071 1.6416C199.742 1.49121 199.362 1.41602 198.929 1.41602C198.51 1.41602 198.136 1.49121 197.808 1.6416C197.48 1.79199 197.202 2.01302 196.974 2.30469C196.751 2.5918 196.58 2.94727 196.461 3.37109C196.347 3.79036 196.29 4.27116 196.29 4.81348V7.22656C196.29 7.77344 196.35 8.25879 196.468 8.68262C196.587 9.10189 196.76 9.45736 196.988 9.74902C197.215 10.0407 197.493 10.2617 197.822 10.4121C198.15 10.5625 198.526 10.6377 198.949 10.6377C199.378 10.6377 199.756 10.5625 200.084 10.4121C200.412 10.2617 200.688 10.0407 200.911 9.74902C201.135 9.45736 201.303 9.10189 201.417 8.68262C201.531 8.25879 201.588 7.77344 201.588 7.22656ZM206.903 6.85742H204.435V6.35156H206.903C207.441 6.35156 207.874 6.24674 208.202 6.03711C208.535 5.82292 208.776 5.53809 208.927 5.18262C209.082 4.82259 209.159 4.42611 209.159 3.99316C209.159 3.54655 209.082 3.13867 208.927 2.76953C208.776 2.39583 208.535 2.09733 208.202 1.87402C207.874 1.65072 207.441 1.53906 206.903 1.53906H204.675V11H204.155V1.04688H206.903C207.509 1.04688 208.017 1.16992 208.428 1.41602C208.842 1.65755 209.155 1.99935 209.364 2.44141C209.578 2.87891 209.685 3.3916 209.685 3.97949C209.685 4.57194 209.581 5.08464 209.371 5.51758C209.161 5.95052 208.851 6.2832 208.441 6.51562C208.031 6.74349 207.518 6.85742 206.903 6.85742ZM212.013 10.0566L217.106 1.04688H217.626V11H217.106V1.96973L212.013 11H211.487V1.04688H212.013V10.0566ZM225.306 7.9375H225.839C225.784 8.7168 225.627 9.34115 225.367 9.81055C225.108 10.2799 224.759 10.6217 224.321 10.8359C223.889 11.0456 223.376 11.1504 222.783 11.1504C222.314 11.1504 221.89 11.0592 221.512 10.877C221.138 10.6947 220.817 10.4303 220.548 10.084C220.284 9.73763 220.081 9.31608 219.94 8.81934C219.798 8.31803 219.728 7.75065 219.728 7.11719V4.82031C219.728 4.20508 219.798 3.65592 219.94 3.17285C220.081 2.68522 220.286 2.27507 220.555 1.94238C220.824 1.60514 221.147 1.34993 221.526 1.17676C221.908 0.999023 222.339 0.910156 222.818 0.910156C223.396 0.910156 223.902 1.01497 224.335 1.22461C224.768 1.43424 225.112 1.77376 225.367 2.24316C225.627 2.70801 225.784 3.33008 225.839 4.10938H225.306C225.256 3.44401 225.13 2.91536 224.93 2.52344C224.729 2.12695 224.454 1.84212 224.103 1.66895C223.752 1.49121 223.323 1.40234 222.818 1.40234C222.417 1.40234 222.059 1.47754 221.744 1.62793C221.43 1.77832 221.161 1.99935 220.938 2.29102C220.719 2.57812 220.55 2.93359 220.432 3.35742C220.318 3.77669 220.261 4.25977 220.261 4.80664V7.11719C220.261 7.67318 220.318 8.16992 220.432 8.60742C220.546 9.04492 220.71 9.41634 220.924 9.72168C221.143 10.027 221.407 10.2594 221.717 10.4189C222.031 10.5739 222.387 10.6514 222.783 10.6514C223.294 10.6514 223.724 10.5716 224.075 10.4121C224.431 10.2526 224.711 9.97689 224.916 9.58496C225.126 9.18848 225.256 8.63932 225.306 7.9375ZM230.272 1.04688V11H229.753V1.04688H230.272ZM233.239 1.04688V1.53906H226.786V1.04688H233.239ZM240.625 4.82715V7.22656C240.625 7.85091 240.553 8.4069 240.407 8.89453C240.261 9.38216 240.051 9.79232 239.778 10.125C239.504 10.4577 239.172 10.7129 238.78 10.8906C238.392 11.0638 237.953 11.1504 237.46 11.1504C236.973 11.1504 236.533 11.0638 236.141 10.8906C235.749 10.7129 235.414 10.4577 235.136 10.125C234.863 9.79232 234.651 9.38216 234.5 8.89453C234.35 8.4069 234.275 7.85091 234.275 7.22656V4.82715C234.275 4.19824 234.348 3.64225 234.494 3.15918C234.644 2.67155 234.856 2.26139 235.129 1.92871C235.407 1.59603 235.74 1.3431 236.127 1.16992C236.519 0.996745 236.957 0.910156 237.44 0.910156C237.937 0.910156 238.381 0.996745 238.773 1.16992C239.165 1.3431 239.498 1.59603 239.771 1.92871C240.049 2.26139 240.261 2.67155 240.407 3.15918C240.553 3.64225 240.625 4.19824 240.625 4.82715ZM240.099 7.22656V4.81348C240.099 4.27116 240.04 3.79036 239.921 3.37109C239.807 2.94727 239.639 2.5918 239.415 2.30469C239.192 2.01302 238.914 1.79199 238.581 1.6416C238.253 1.49121 237.873 1.41602 237.44 1.41602C237.021 1.41602 236.647 1.49121 236.319 1.6416C235.991 1.79199 235.713 2.01302 235.485 2.30469C235.262 2.5918 235.091 2.94727 234.972 3.37109C234.858 3.79036 234.801 4.27116 234.801 4.81348V7.22656C234.801 7.77344 234.86 8.25879 234.979 8.68262C235.097 9.10189 235.271 9.45736 235.498 9.74902C235.726 10.0407 236.004 10.2617 236.332 10.4121C236.661 10.5625 237.037 10.6377 237.46 10.6377C237.889 10.6377 238.267 10.5625 238.595 10.4121C238.923 10.2617 239.199 10.0407 239.422 9.74902C239.646 9.45736 239.814 9.10189 239.928 8.68262C240.042 8.25879 240.099 7.77344 240.099 7.22656ZM245.517 6.12598H243.035L243.022 5.64062H245.113C245.574 5.64062 245.961 5.56543 246.275 5.41504C246.594 5.26465 246.836 5.03678 247 4.73145C247.164 4.42611 247.246 4.04785 247.246 3.59668C247.246 3.14095 247.162 2.76042 246.993 2.45508C246.829 2.14974 246.581 1.92188 246.248 1.77148C245.92 1.61654 245.51 1.53906 245.018 1.53906H243.186V11H242.666V1.04688H245.018C245.441 1.04688 245.822 1.09928 246.159 1.2041C246.501 1.30436 246.79 1.45931 247.027 1.66895C247.269 1.87402 247.451 2.13835 247.574 2.46191C247.702 2.78548 247.766 3.17057 247.766 3.61719C247.766 4.02734 247.695 4.39648 247.554 4.72461C247.413 5.05273 247.207 5.32161 246.939 5.53125C246.674 5.73633 246.355 5.86165 245.982 5.90723L245.517 6.12598ZM245.462 11H242.912L243.151 10.501H245.462C245.904 10.501 246.282 10.4121 246.597 10.2344C246.916 10.0521 247.16 9.79232 247.328 9.45508C247.497 9.11784 247.581 8.71452 247.581 8.24512C247.581 7.86686 247.506 7.51823 247.356 7.19922C247.205 6.87565 246.977 6.61589 246.672 6.41992C246.367 6.22396 245.982 6.12598 245.517 6.12598H244.088L244.102 5.64062H246.146L246.228 5.81152C246.592 5.86165 246.916 6.00065 247.198 6.22852C247.485 6.45638 247.709 6.74577 247.868 7.09668C248.032 7.44303 248.114 7.82129 248.114 8.23145C248.114 8.82845 248 9.33431 247.773 9.74902C247.549 10.1592 247.239 10.4714 246.843 10.6855C246.446 10.8952 245.986 11 245.462 11ZM252.664 7.62988L255.261 1.04688H255.89L252.554 9.25684C252.482 9.43001 252.393 9.6237 252.288 9.83789C252.188 10.0521 252.06 10.2594 251.905 10.46C251.75 10.6605 251.559 10.8245 251.331 10.9521C251.103 11.0798 250.832 11.1436 250.517 11.1436C250.44 11.1436 250.344 11.1344 250.23 11.1162C250.121 11.1025 250.041 11.082 249.991 11.0547L250.059 10.583C250.114 10.6012 250.189 10.6172 250.285 10.6309C250.385 10.64 250.469 10.6445 250.538 10.6445C250.802 10.6445 251.025 10.5762 251.208 10.4395C251.39 10.2982 251.547 10.1136 251.679 9.88574C251.812 9.65788 251.928 9.41634 252.028 9.16113L252.664 7.62988ZM249.656 1.04688L252.712 7.8418L252.903 8.2998L252.438 8.48438L249.041 1.04688H249.656ZM260.289 6.12598H257.808L257.794 5.64062H259.886C260.346 5.64062 260.734 5.56543 261.048 5.41504C261.367 5.26465 261.609 5.03678 261.773 4.73145C261.937 4.42611 262.019 4.04785 262.019 3.59668C262.019 3.14095 261.935 2.76042 261.766 2.45508C261.602 2.14974 261.354 1.92188 261.021 1.77148C260.693 1.61654 260.283 1.53906 259.79 1.53906H257.958V11H257.439V1.04688H259.79C260.214 1.04688 260.595 1.09928 260.932 1.2041C261.274 1.30436 261.563 1.45931 261.8 1.66895C262.042 1.87402 262.224 2.13835 262.347 2.46191C262.475 2.78548 262.538 3.17057 262.538 3.61719C262.538 4.02734 262.468 4.39648 262.327 4.72461C262.185 5.05273 261.98 5.32161 261.711 5.53125C261.447 5.73633 261.128 5.86165 260.754 5.90723L260.289 6.12598ZM260.235 11H257.685L257.924 10.501H260.235C260.677 10.501 261.055 10.4121 261.37 10.2344C261.689 10.0521 261.932 9.79232 262.101 9.45508C262.27 9.11784 262.354 8.71452 262.354 8.24512C262.354 7.86686 262.279 7.51823 262.128 7.19922C261.978 6.87565 261.75 6.61589 261.445 6.41992C261.139 6.22396 260.754 6.12598 260.289 6.12598H258.861L258.874 5.64062H260.918L261 5.81152C261.365 5.86165 261.689 6.00065 261.971 6.22852C262.258 6.45638 262.481 6.74577 262.641 7.09668C262.805 7.44303 262.887 7.82129 262.887 8.23145C262.887 8.82845 262.773 9.33431 262.545 9.74902C262.322 10.1592 262.012 10.4714 261.616 10.6855C261.219 10.8952 260.759 11 260.235 11ZM267.354 1.46387L264.388 11H263.834L267.006 1.04688H267.416L267.354 1.46387ZM270.15 11L267.19 1.46387L267.136 1.04688H267.539L270.704 11H270.15ZM269.46 7.60254V8.09473H265.112V7.60254H269.46ZM273.921 1.04688V11H273.401V1.04688H273.921ZM276.887 1.04688V1.53906H270.434V1.04688H276.887ZM278.962 10.0566L284.055 1.04688H284.574V11H284.055V1.96973L278.962 11H278.436V1.04688H278.962V10.0566ZM294.706 6.82324H291.629L291.404 6.68652C290.843 6.486 290.415 6.1556 290.119 5.69531C289.822 5.23503 289.674 4.68132 289.674 4.03418C289.674 3.39616 289.786 2.85612 290.009 2.41406C290.237 1.96745 290.561 1.62793 290.98 1.39551C291.399 1.16309 291.898 1.04688 292.477 1.04688H294.993V11H294.466V1.53906H292.477C291.725 1.53906 291.158 1.76009 290.775 2.20215C290.392 2.63965 290.201 3.24577 290.201 4.02051C290.201 4.47168 290.278 4.87272 290.433 5.22363C290.593 5.56999 290.821 5.84115 291.117 6.03711C291.418 6.23307 291.78 6.33105 292.204 6.33105H294.712L294.706 6.82324ZM292.005 6.42676L289.941 11H289.36L291.479 6.42676H292.005ZM297.69 1.04688V11H297.156V1.04688H297.69ZM302.994 1.04688L299.221 6.21484H297.478L297.464 5.71582H298.927L302.324 1.04688H302.994ZM302.584 11L298.859 6.15332L299.166 5.68848L303.254 11H302.584ZM310.193 6.10547H309.133V5.66797H310.166C310.722 5.66797 311.173 5.58366 311.519 5.41504C311.865 5.24186 312.118 5.00033 312.278 4.69043C312.442 4.38053 312.524 4.01595 312.524 3.59668C312.524 3.17741 312.44 2.80371 312.271 2.47559C312.107 2.1429 311.849 1.88314 311.499 1.69629C311.152 1.50488 310.706 1.40918 310.159 1.40918C309.744 1.40918 309.363 1.50033 309.017 1.68262C308.675 1.86491 308.4 2.12467 308.19 2.46191C307.985 2.7946 307.882 3.19108 307.882 3.65137H307.363C307.363 3.22754 307.438 2.84701 307.588 2.50977C307.739 2.16797 307.944 1.87858 308.204 1.6416C308.463 1.40462 308.76 1.22461 309.092 1.10156C309.43 0.973958 309.785 0.910156 310.159 0.910156C310.601 0.910156 310.997 0.969401 311.348 1.08789C311.704 1.20182 312.007 1.37272 312.257 1.60059C312.513 1.82845 312.708 2.111 312.845 2.44824C312.982 2.78548 313.05 3.17513 313.05 3.61719C313.05 3.95898 312.986 4.28027 312.859 4.58105C312.731 4.88184 312.547 5.14616 312.305 5.37402C312.064 5.60189 311.765 5.7819 311.41 5.91406C311.054 6.04167 310.649 6.10547 310.193 6.10547ZM309.133 5.75684H310.193C310.694 5.75684 311.132 5.8138 311.505 5.92773C311.879 6.04167 312.189 6.20801 312.435 6.42676C312.681 6.64551 312.866 6.91667 312.989 7.24023C313.116 7.55924 313.18 7.92611 313.18 8.34082C313.18 8.78288 313.105 9.17936 312.955 9.53027C312.804 9.87663 312.595 10.1706 312.326 10.4121C312.057 10.6536 311.738 10.8382 311.369 10.9658C311.004 11.0889 310.601 11.1504 310.159 11.1504C309.808 11.1504 309.459 11.0934 309.113 10.9795C308.771 10.861 308.459 10.6833 308.176 10.4463C307.894 10.2048 307.666 9.90169 307.493 9.53711C307.324 9.17253 307.24 8.73958 307.24 8.23828H307.773C307.773 8.70312 307.873 9.11784 308.074 9.48242C308.274 9.84245 308.555 10.1273 308.915 10.3369C309.275 10.542 309.689 10.6445 310.159 10.6445C310.692 10.6445 311.143 10.5534 311.512 10.3711C311.881 10.1842 312.164 9.91992 312.36 9.57812C312.556 9.23633 312.654 8.83301 312.654 8.36816C312.654 7.97624 312.599 7.64355 312.49 7.37012C312.385 7.09212 312.225 6.86426 312.011 6.68652C311.802 6.50879 311.542 6.37891 311.232 6.29688C310.927 6.21029 310.571 6.16699 310.166 6.16699H309.133V5.75684ZM317.572 1.46387L314.606 11H314.052L317.224 1.04688H317.634L317.572 1.46387ZM320.368 11L317.408 1.46387L317.354 1.04688H317.757L320.922 11H320.368ZM319.678 7.60254V8.09473H315.33V7.60254H319.678ZM322.518 1.04688H323.052L326.326 10.166L329.6 1.04688H330.127L326.531 11H326.128L322.518 1.04688ZM322.347 1.04688H322.826L322.874 6.36523V11H322.347V1.04688ZM329.833 1.04688H330.325V11H329.799V6.36523L329.833 1.04688ZM333.377 1.04688V11H332.851V1.04688H333.377ZM341.639 5.62695V6.12598H336.273V5.62695H341.639ZM336.437 1.04688V11H335.917V1.04688H336.437ZM342.028 1.04688V11H341.502V1.04688H342.028ZM347.159 7.62988L349.757 1.04688H350.385L347.049 9.25684C346.977 9.43001 346.888 9.6237 346.783 9.83789C346.683 10.0521 346.555 10.2594 346.4 10.46C346.245 10.6605 346.054 10.8245 345.826 10.9521C345.598 11.0798 345.327 11.1436 345.012 11.1436C344.935 11.1436 344.839 11.1344 344.725 11.1162C344.616 11.1025 344.536 11.082 344.486 11.0547L344.554 10.583C344.609 10.6012 344.684 10.6172 344.78 10.6309C344.88 10.64 344.965 10.6445 345.033 10.6445C345.297 10.6445 345.521 10.5762 345.703 10.4395C345.885 10.2982 346.042 10.1136 346.174 9.88574C346.307 9.65788 346.423 9.41634 346.523 9.16113L347.159 7.62988ZM344.151 1.04688L347.207 7.8418L347.398 8.2998L346.933 8.48438L343.536 1.04688H344.151ZM27.2271 15.0469V25H26.6939V15.5391H21.649V25H21.1158V15.0469H27.2271ZM35.6184 18.8271V21.2266C35.6184 21.8509 35.5455 22.4069 35.3996 22.8945C35.2538 23.3822 35.0442 23.7923 34.7707 24.125C34.4973 24.4577 34.1646 24.7129 33.7727 24.8906C33.3853 25.0638 32.9455 25.1504 32.4534 25.1504C31.9657 25.1504 31.5259 25.0638 31.134 24.8906C30.7421 24.7129 30.4071 24.4577 30.1291 24.125C29.8557 23.7923 29.6438 23.3822 29.4934 22.8945C29.343 22.4069 29.2678 21.8509 29.2678 21.2266V18.8271C29.2678 18.1982 29.3407 17.6423 29.4866 17.1592C29.6369 16.6715 29.8489 16.2614 30.1223 15.9287C30.4003 15.596 30.733 15.3431 31.1203 15.1699C31.5123 14.9967 31.9498 14.9102 32.4328 14.9102C32.9296 14.9102 33.3739 14.9967 33.7659 15.1699C34.1578 15.3431 34.4905 15.596 34.7639 15.9287C35.0419 16.2614 35.2538 16.6715 35.3996 17.1592C35.5455 17.6423 35.6184 18.1982 35.6184 18.8271ZM35.092 21.2266V18.8135C35.092 18.2712 35.0328 17.7904 34.9143 17.3711C34.8004 16.9473 34.6317 16.5918 34.4084 16.3047C34.1851 16.013 33.9071 15.792 33.5744 15.6416C33.2463 15.4912 32.8658 15.416 32.4328 15.416C32.0136 15.416 31.6399 15.4912 31.3118 15.6416C30.9836 15.792 30.7056 16.013 30.4778 16.3047C30.2545 16.5918 30.0836 16.9473 29.9651 17.3711C29.8511 17.7904 29.7942 18.2712 29.7942 18.8135V21.2266C29.7942 21.7734 29.8534 22.2588 29.9719 22.6826C30.0904 23.1019 30.2636 23.4574 30.4914 23.749C30.7193 24.0407 30.9973 24.2617 31.3254 24.4121C31.6535 24.5625 32.0295 24.6377 32.4534 24.6377C32.8817 24.6377 33.26 24.5625 33.5881 24.4121C33.9162 24.2617 34.192 24.0407 34.4153 23.749C34.6386 23.4574 34.8072 23.1019 34.9211 22.6826C35.0351 22.2588 35.092 21.7734 35.092 21.2266ZM40.5096 20.126H38.0282L38.0145 19.6406H40.1063C40.5666 19.6406 40.954 19.5654 41.2684 19.415C41.5874 19.2646 41.829 19.0368 41.993 18.7314C42.1571 18.4261 42.2391 18.0479 42.2391 17.5967C42.2391 17.141 42.1548 16.7604 41.9862 16.4551C41.8221 16.1497 41.5738 15.9219 41.2411 15.7715C40.913 15.6165 40.5028 15.5391 40.0106 15.5391H38.1786V25H37.6591V15.0469H40.0106C40.4344 15.0469 40.815 15.0993 41.1522 15.2041C41.494 15.3044 41.7834 15.4593 42.0204 15.6689C42.2619 15.874 42.4442 16.1383 42.5673 16.4619C42.6949 16.7855 42.7587 17.1706 42.7587 17.6172C42.7587 18.0273 42.688 18.3965 42.5468 18.7246C42.4055 19.0527 42.2004 19.3216 41.9315 19.5312C41.6672 19.7363 41.3482 19.8617 40.9745 19.9072L40.5096 20.126ZM40.455 25H37.9052L38.1444 24.501H40.455C40.897 24.501 41.2753 24.4121 41.5897 24.2344C41.9087 24.0521 42.1525 23.7923 42.3212 23.4551C42.4898 23.1178 42.5741 22.7145 42.5741 22.2451C42.5741 21.8669 42.4989 21.5182 42.3485 21.1992C42.1981 20.8757 41.9703 20.6159 41.6649 20.4199C41.3596 20.224 40.9745 20.126 40.5096 20.126H39.0809L39.0946 19.6406H41.1385L41.2206 19.8115C41.5852 19.8617 41.9087 20.0007 42.1913 20.2285C42.4784 20.4564 42.7017 20.7458 42.8612 21.0967C43.0253 21.443 43.1073 21.8213 43.1073 22.2314C43.1073 22.8285 42.9934 23.3343 42.7655 23.749C42.5422 24.1592 42.2323 24.4714 41.8358 24.6855C41.4393 24.8952 40.979 25 40.455 25ZM50.7056 19.627V20.126H45.3394V19.627H50.7056ZM45.5034 15.0469V25H44.9839V15.0469H45.5034ZM51.0952 15.0469V25H50.5689V15.0469H51.0952ZM59.4933 18.8271V21.2266C59.4933 21.8509 59.4204 22.4069 59.2746 22.8945C59.1287 23.3822 58.9191 23.7923 58.6457 24.125C58.3722 24.4577 58.0395 24.7129 57.6476 24.8906C57.2602 25.0638 56.8205 25.1504 56.3283 25.1504C55.8406 25.1504 55.4009 25.0638 55.0089 24.8906C54.617 24.7129 54.282 24.4577 54.0041 24.125C53.7306 23.7923 53.5187 23.3822 53.3683 22.8945C53.2179 22.4069 53.1427 21.8509 53.1427 21.2266V18.8271C53.1427 18.1982 53.2156 17.6423 53.3615 17.1592C53.5119 16.6715 53.7238 16.2614 53.9972 15.9287C54.2752 15.596 54.6079 15.3431 54.9953 15.1699C55.3872 14.9967 55.8247 14.9102 56.3078 14.9102C56.8045 14.9102 57.2488 14.9967 57.6408 15.1699C58.0327 15.3431 58.3654 15.596 58.6388 15.9287C58.9168 16.2614 59.1287 16.6715 59.2746 17.1592C59.4204 17.6423 59.4933 18.1982 59.4933 18.8271ZM58.9669 21.2266V18.8135C58.9669 18.2712 58.9077 17.7904 58.7892 17.3711C58.6753 16.9473 58.5067 16.5918 58.2834 16.3047C58.06 16.013 57.782 15.792 57.4494 15.6416C57.1212 15.4912 56.7407 15.416 56.3078 15.416C55.8885 15.416 55.5148 15.4912 55.1867 15.6416C54.8585 15.792 54.5806 16.013 54.3527 16.3047C54.1294 16.5918 53.9585 16.9473 53.84 17.3711C53.7261 17.7904 53.6691 18.2712 53.6691 18.8135V21.2266C53.6691 21.7734 53.7283 22.2588 53.8468 22.6826C53.9653 23.1019 54.1385 23.4574 54.3664 23.749C54.5942 24.0407 54.8722 24.2617 55.2003 24.4121C55.5285 24.5625 55.9044 24.6377 56.3283 24.6377C56.7567 24.6377 57.1349 24.5625 57.463 24.4121C57.7912 24.2617 58.0669 24.0407 58.2902 23.749C58.5135 23.4574 58.6821 23.1019 58.796 22.6826C58.91 22.2588 58.9669 21.7734 58.9669 21.2266ZM68.2231 24.4941L68.1957 27.3994H67.7036V25H66.8764V24.4941H68.2231ZM61.3256 25V15.0469H61.8588V24.501H66.9037V15.0469H67.4301V25H61.3256ZM70.5782 15.0469V25H70.0518V15.0469H70.5782ZM78.8396 19.627V20.126H73.4734V19.627H78.8396ZM73.6374 15.0469V25H73.1179V15.0469H73.6374ZM79.2292 15.0469V25H78.7029V15.0469H79.2292ZM87.3129 19.627V20.126H81.9466V19.627H87.3129ZM82.1107 15.0469V25H81.5912V15.0469H82.1107ZM87.7025 15.0469V25H87.1761V15.0469H87.7025ZM96.1006 18.8271V21.2266C96.1006 21.8509 96.0277 22.4069 95.8818 22.8945C95.736 23.3822 95.5264 23.7923 95.2529 24.125C94.9795 24.4577 94.6468 24.7129 94.2549 24.8906C93.8675 25.0638 93.4277 25.1504 92.9355 25.1504C92.4479 25.1504 92.0081 25.0638 91.6162 24.8906C91.2243 24.7129 90.8893 24.4577 90.6113 24.125C90.3379 23.7923 90.126 23.3822 89.9756 22.8945C89.8252 22.4069 89.75 21.8509 89.75 21.2266V18.8271C89.75 18.1982 89.8229 17.6423 89.9687 17.1592C90.1191 16.6715 90.331 16.2614 90.6045 15.9287C90.8825 15.596 91.2152 15.3431 91.6025 15.1699C91.9945 14.9967 92.432 14.9102 92.915 14.9102C93.4118 14.9102 93.8561 14.9967 94.248 15.1699C94.64 15.3431 94.9726 15.596 95.2461 15.9287C95.5241 16.2614 95.736 16.6715 95.8818 17.1592C96.0277 17.6423 96.1006 18.1982 96.1006 18.8271ZM95.5742 21.2266V18.8135C95.5742 18.2712 95.515 17.7904 95.3965 17.3711C95.2825 16.9473 95.1139 16.5918 94.8906 16.3047C94.6673 16.013 94.3893 15.792 94.0566 15.6416C93.7285 15.4912 93.348 15.416 92.915 15.416C92.4958 15.416 92.1221 15.4912 91.7939 15.6416C91.4658 15.792 91.1878 16.013 90.96 16.3047C90.7366 16.5918 90.5657 16.9473 90.4473 17.3711C90.3333 17.7904 90.2764 18.2712 90.2764 18.8135V21.2266C90.2764 21.7734 90.3356 22.2588 90.4541 22.6826C90.5726 23.1019 90.7458 23.4574 90.9736 23.749C91.2015 24.0407 91.4795 24.2617 91.8076 24.4121C92.1357 24.5625 92.5117 24.6377 92.9355 24.6377C93.3639 24.6377 93.7422 24.5625 94.0703 24.4121C94.3984 24.2617 94.6741 24.0407 94.8975 23.749C95.1208 23.4574 95.2894 23.1019 95.4033 22.6826C95.5172 22.2588 95.5742 21.7734 95.5742 21.2266ZM103.152 15.0469V15.5391H98.6471V25H98.1139V15.0469H103.152ZM110.34 18.8271V21.2266C110.34 21.8509 110.267 22.4069 110.121 22.8945C109.976 23.3822 109.766 23.7923 109.492 24.125C109.219 24.4577 108.886 24.7129 108.494 24.8906C108.107 25.0638 107.667 25.1504 107.175 25.1504C106.687 25.1504 106.248 25.0638 105.856 24.8906C105.464 24.7129 105.129 24.4577 104.851 24.125C104.577 23.7923 104.366 23.3822 104.215 22.8945C104.065 22.4069 103.99 21.8509 103.99 21.2266V18.8271C103.99 18.1982 104.062 17.6423 104.208 17.1592C104.359 16.6715 104.571 16.2614 104.844 15.9287C105.122 15.596 105.455 15.3431 105.842 15.1699C106.234 14.9967 106.671 14.9102 107.155 14.9102C107.651 14.9102 108.096 14.9967 108.488 15.1699C108.879 15.3431 109.212 15.596 109.486 15.9287C109.764 16.2614 109.976 16.6715 110.121 17.1592C110.267 17.6423 110.34 18.1982 110.34 18.8271ZM109.814 21.2266V18.8135C109.814 18.2712 109.754 17.7904 109.636 17.3711C109.522 16.9473 109.353 16.5918 109.13 16.3047C108.907 16.013 108.629 15.792 108.296 15.6416C107.968 15.4912 107.588 15.416 107.155 15.416C106.735 15.416 106.362 15.4912 106.033 15.6416C105.705 15.792 105.427 16.013 105.199 16.3047C104.976 16.5918 104.805 16.9473 104.687 17.3711C104.573 17.7904 104.516 18.2712 104.516 18.8135V21.2266C104.516 21.7734 104.575 22.2588 104.694 22.6826C104.812 23.1019 104.985 23.4574 105.213 23.749C105.441 24.0407 105.719 24.2617 106.047 24.4121C106.375 24.5625 106.751 24.6377 107.175 24.6377C107.603 24.6377 107.982 24.5625 108.31 24.4121C108.638 24.2617 108.914 24.0407 109.137 23.749C109.36 23.4574 109.529 23.1019 109.643 22.6826C109.757 22.2588 109.814 21.7734 109.814 21.2266ZM118.12 20.8574H115.652V20.3516H118.12C118.657 20.3516 119.09 20.2467 119.419 20.0371C119.751 19.8229 119.993 19.5381 120.143 19.1826C120.298 18.8226 120.376 18.4261 120.376 17.9932C120.376 17.5465 120.298 17.1387 120.143 16.7695C119.993 16.3958 119.751 16.0973 119.419 15.874C119.09 15.6507 118.657 15.5391 118.12 15.5391H115.891V25H115.372V15.0469H118.12C118.726 15.0469 119.234 15.1699 119.644 15.416C120.059 15.6576 120.371 15.9993 120.581 16.4414C120.795 16.8789 120.902 17.3916 120.902 17.9795C120.902 18.5719 120.797 19.0846 120.587 19.5176C120.378 19.9505 120.068 20.2832 119.658 20.5156C119.248 20.7435 118.735 20.8574 118.12 20.8574ZM124.344 15.4639L121.377 25H120.823L123.995 15.0469H124.405L124.344 15.4639ZM127.14 25L124.18 15.4639L124.125 15.0469H124.529L127.694 25H127.14ZM126.449 21.6025V22.0947H122.102V21.6025H126.449ZM135.948 24.4941L135.921 27.3994H135.429V25H134.601V24.4941H135.948ZM129.051 25V15.0469H129.584V24.501H134.629V15.0469H135.155V25H129.051ZM138.303 15.0469V25H137.777V15.0469H138.303ZM146.879 18.8271V21.2266C146.879 21.8509 146.806 22.4069 146.66 22.8945C146.514 23.3822 146.305 23.7923 146.031 24.125C145.758 24.4577 145.425 24.7129 145.033 24.8906C144.646 25.0638 144.206 25.1504 143.714 25.1504C143.226 25.1504 142.787 25.0638 142.395 24.8906C142.003 24.7129 141.668 24.4577 141.39 24.125C141.116 23.7923 140.904 23.3822 140.754 22.8945C140.604 22.4069 140.528 21.8509 140.528 21.2266V18.8271C140.528 18.1982 140.601 17.6423 140.747 17.1592C140.898 16.6715 141.109 16.2614 141.383 15.9287C141.661 15.596 141.994 15.3431 142.381 15.1699C142.773 14.9967 143.21 14.9102 143.693 14.9102C144.19 14.9102 144.635 14.9967 145.026 15.1699C145.418 15.3431 145.751 15.596 146.025 15.9287C146.303 16.2614 146.514 16.6715 146.66 17.1592C146.806 17.6423 146.879 18.1982 146.879 18.8271ZM146.353 21.2266V18.8135C146.353 18.2712 146.293 17.7904 146.175 17.3711C146.061 16.9473 145.892 16.5918 145.669 16.3047C145.446 16.013 145.168 15.792 144.835 15.6416C144.507 15.4912 144.126 15.416 143.693 15.416C143.274 15.416 142.901 15.4912 142.572 15.6416C142.244 15.792 141.966 16.013 141.738 16.3047C141.515 16.5918 141.344 16.9473 141.226 17.3711C141.112 17.7904 141.055 18.2712 141.055 18.8135V21.2266C141.055 21.7734 141.114 22.2588 141.233 22.6826C141.351 23.1019 141.524 23.4574 141.752 23.749C141.98 24.0407 142.258 24.2617 142.586 24.4121C142.914 24.5625 143.29 24.6377 143.714 24.6377C144.142 24.6377 144.521 24.5625 144.849 24.4121C145.177 24.2617 145.453 24.0407 145.676 23.749C145.899 23.4574 146.068 23.1019 146.182 22.6826C146.296 22.2588 146.353 21.7734 146.353 21.2266ZM154.641 19.627V20.126H149.275V19.627H154.641ZM149.439 15.0469V25H148.92V15.0469H149.439ZM155.031 15.0469V25H154.505V15.0469H155.031ZM160.162 21.6299L162.759 15.0469H163.388L160.052 23.2568C159.979 23.43 159.89 23.6237 159.786 23.8379C159.685 24.0521 159.558 24.2594 159.403 24.46C159.248 24.6605 159.056 24.8245 158.829 24.9521C158.601 25.0798 158.329 25.1436 158.015 25.1436C157.938 25.1436 157.842 25.1344 157.728 25.1162C157.619 25.1025 157.539 25.082 157.489 25.0547L157.557 24.583C157.612 24.6012 157.687 24.6172 157.783 24.6309C157.883 24.64 157.967 24.6445 158.036 24.6445C158.3 24.6445 158.523 24.5762 158.705 24.4395C158.888 24.2982 159.045 24.1136 159.177 23.8857C159.309 23.6579 159.426 23.4163 159.526 23.1611L160.162 21.6299ZM157.154 15.0469L160.209 21.8418L160.401 22.2998L159.936 22.4844L156.538 15.0469H157.154ZM161.936 24.6035C161.936 24.4805 161.977 24.3757 162.059 24.2891C162.141 24.1979 162.252 24.1523 162.394 24.1523C162.535 24.1523 162.649 24.1979 162.735 24.2891C162.827 24.3757 162.872 24.4805 162.872 24.6035C162.872 24.7266 162.827 24.8314 162.735 24.918C162.649 25.0046 162.535 25.0479 162.394 25.0479C162.252 25.0479 162.141 25.0046 162.059 24.918C161.977 24.8314 161.936 24.7266 161.936 24.6035ZM173.906 19.627V20.126H168.539V19.627H173.906ZM168.703 15.0469V25H168.184V15.0469H168.703ZM174.295 15.0469V25H173.769V15.0469H174.295ZM181.825 24.501V25H176.972V24.501H181.825ZM177.177 15.0469V25H176.657V15.0469H177.177ZM181.244 19.627V20.126H176.972V19.627H181.244ZM181.811 15.0469V15.5391H176.972V15.0469H181.811ZM190.329 19.709V20.2012H186.611V19.709H190.329ZM191.826 21.9375H192.353C192.298 22.6348 192.141 23.2227 191.881 23.7012C191.626 24.1751 191.28 24.5329 190.842 24.7744C190.409 25.016 189.896 25.1367 189.304 25.1367C188.835 25.1367 188.408 25.0319 188.026 24.8223C187.647 24.6081 187.322 24.3073 187.048 23.9199C186.775 23.528 186.565 23.0632 186.419 22.5254C186.273 21.9831 186.2 21.3838 186.2 20.7275V19.3193C186.2 18.6631 186.273 18.0661 186.419 17.5283C186.565 16.986 186.775 16.5212 187.048 16.1338C187.322 15.7419 187.65 15.4411 188.032 15.2314C188.42 15.0173 188.853 14.9102 189.331 14.9102C189.915 14.9102 190.423 15.0309 190.856 15.2725C191.289 15.514 191.633 15.8717 191.888 16.3457C192.143 16.8197 192.298 17.4076 192.353 18.1094H191.82C191.769 17.5306 191.642 17.0407 191.437 16.6396C191.236 16.234 190.961 15.9264 190.61 15.7168C190.263 15.5072 189.837 15.4023 189.331 15.4023C188.93 15.4023 188.57 15.4958 188.251 15.6826C187.932 15.8649 187.659 16.1292 187.431 16.4756C187.203 16.8219 187.028 17.2344 186.905 17.7129C186.786 18.1868 186.727 18.7178 186.727 19.3057V20.7275C186.727 21.1924 186.766 21.6253 186.843 22.0264C186.92 22.4274 187.03 22.7897 187.171 23.1133C187.317 23.4323 187.495 23.7057 187.704 23.9336C187.914 24.1615 188.153 24.3369 188.422 24.46C188.691 24.5785 188.985 24.6377 189.304 24.6377C189.81 24.6377 190.24 24.542 190.596 24.3506C190.951 24.1546 191.232 23.8584 191.437 23.4619C191.642 23.0609 191.772 22.5527 191.826 21.9375ZM203.058 15.0469V15.5391H198.806V15.0469H203.058ZM203.441 15.0469V25H202.915V15.0469H203.441ZM198.615 15.0469H199.141L198.909 19.4766C198.868 20.2695 198.818 20.9714 198.758 21.582C198.699 22.1882 198.619 22.7077 198.519 23.1406C198.423 23.5736 198.296 23.9268 198.136 24.2002C197.981 24.4736 197.785 24.6764 197.548 24.8086C197.316 24.9362 197.033 25 196.701 25H196.475V24.501H196.687C196.919 24.501 197.12 24.4531 197.289 24.3574C197.462 24.2572 197.608 24.0977 197.726 23.8789C197.849 23.6556 197.952 23.3525 198.034 22.9697C198.116 22.5824 198.186 22.0993 198.246 21.5205C198.305 20.9417 198.353 20.2467 198.389 19.4355L198.615 15.0469ZM206.486 15.0469V25H205.96V15.0469H206.486ZM209.566 15.0469V25H209.033V15.0469H209.566ZM214.871 15.0469L211.097 20.2148H209.354L209.341 19.7158H210.804L214.201 15.0469H214.871ZM214.461 25L210.735 20.1533L211.043 19.6885L215.131 25H214.461ZM219.284 15.4639L216.317 25H215.763L218.935 15.0469H219.345L219.284 15.4639ZM222.08 25L219.12 15.4639L219.065 15.0469H219.468L222.633 25H222.08ZM221.389 21.6025V22.0947H217.041V21.6025H221.389ZM226.807 20.8574H224.339V20.3516H226.807C227.344 20.3516 227.777 20.2467 228.106 20.0371C228.438 19.8229 228.68 19.5381 228.83 19.1826C228.985 18.8226 229.063 18.4261 229.063 17.9932C229.063 17.5465 228.985 17.1387 228.83 16.7695C228.68 16.3958 228.438 16.0973 228.106 15.874C227.777 15.6507 227.344 15.5391 226.807 15.5391H224.578V25H224.059V15.0469H226.807C227.413 15.0469 227.921 15.1699 228.331 15.416C228.746 15.6576 229.058 15.9993 229.268 16.4414C229.482 16.8789 229.589 17.3916 229.589 17.9795C229.589 18.5719 229.484 19.0846 229.274 19.5176C229.065 19.9505 228.755 20.2832 228.345 20.5156C227.935 20.7435 227.422 20.8574 226.807 20.8574ZM236.695 21.9375H237.228C237.174 22.7168 237.016 23.3411 236.757 23.8105C236.497 24.2799 236.148 24.6217 235.711 24.8359C235.278 25.0456 234.765 25.1504 234.173 25.1504C233.703 25.1504 233.279 25.0592 232.901 24.877C232.527 24.6947 232.206 24.4303 231.937 24.084C231.673 23.7376 231.47 23.3161 231.329 22.8193C231.188 22.318 231.117 21.7507 231.117 21.1172V18.8203C231.117 18.2051 231.188 17.6559 231.329 17.1729C231.47 16.6852 231.675 16.2751 231.944 15.9424C232.213 15.6051 232.537 15.3499 232.915 15.1768C233.298 14.999 233.728 14.9102 234.207 14.9102C234.786 14.9102 235.291 15.015 235.724 15.2246C236.157 15.4342 236.501 15.7738 236.757 16.2432C237.016 16.708 237.174 17.3301 237.228 18.1094H236.695C236.645 17.444 236.52 16.9154 236.319 16.5234C236.119 16.127 235.843 15.8421 235.492 15.6689C235.141 15.4912 234.713 15.4023 234.207 15.4023C233.806 15.4023 233.448 15.4775 233.134 15.6279C232.819 15.7783 232.55 15.9993 232.327 16.291C232.108 16.5781 231.94 16.9336 231.821 17.3574C231.707 17.7767 231.65 18.2598 231.65 18.8066V21.1172C231.65 21.6732 231.707 22.1699 231.821 22.6074C231.935 23.0449 232.099 23.4163 232.313 23.7217C232.532 24.027 232.796 24.2594 233.106 24.4189C233.421 24.5739 233.776 24.6514 234.173 24.6514C234.683 24.6514 235.114 24.5716 235.465 24.4121C235.82 24.2526 236.1 23.9769 236.305 23.585C236.515 23.1885 236.645 22.6393 236.695 21.9375ZM239.426 19.5176H241.778C242.384 19.5176 242.89 19.6338 243.295 19.8662C243.701 20.0986 244.008 20.4199 244.218 20.8301C244.428 21.2402 244.533 21.7165 244.533 22.2588C244.533 22.6598 244.473 23.029 244.355 23.3662C244.236 23.6989 244.061 23.9883 243.828 24.2344C243.596 24.4759 243.309 24.665 242.967 24.8018C242.625 24.9339 242.229 25 241.778 25H239.139V15.0469H239.672V24.501H241.778C242.306 24.501 242.732 24.3984 243.056 24.1934C243.384 23.9837 243.623 23.708 243.774 23.3662C243.924 23.0199 243.999 22.6462 243.999 22.2451C243.999 21.8532 243.924 21.4886 243.774 21.1514C243.623 20.8141 243.384 20.543 243.056 20.3379C242.732 20.1283 242.306 20.0234 241.778 20.0234H239.426V19.5176ZM247.011 15.0469V25H246.478V15.0469H247.011ZM252.315 15.0469L248.542 20.2148H246.799L246.785 19.7158H248.248L251.646 15.0469H252.315ZM251.905 25L248.18 20.1533L248.487 19.6885L252.575 25H251.905ZM254.671 24.0566L259.763 15.0469H260.283V25H259.763V15.9697L254.671 25H254.144V15.0469H254.671V24.0566ZM262.823 15.0469H263.356L266.63 24.166L269.905 15.0469H270.431L266.835 25H266.432L262.823 15.0469ZM262.652 15.0469H263.13L263.178 20.3652V25H262.652V15.0469ZM270.137 15.0469H270.629V25H270.103V20.3652L270.137 15.0469ZM278.347 20.1055H277.288V19.668H278.32C278.876 19.668 279.327 19.5837 279.673 19.415C280.02 19.2419 280.273 19.0003 280.432 18.6904C280.596 18.3805 280.678 18.016 280.678 17.5967C280.678 17.1774 280.594 16.8037 280.425 16.4756C280.261 16.1429 280.004 15.8831 279.653 15.6963C279.307 15.5049 278.86 15.4092 278.313 15.4092C277.898 15.4092 277.518 15.5003 277.171 15.6826C276.83 15.8649 276.554 16.1247 276.344 16.4619C276.139 16.7946 276.037 17.1911 276.037 17.6514H275.517C275.517 17.2275 275.592 16.847 275.743 16.5098C275.893 16.168 276.098 15.8786 276.358 15.6416C276.618 15.4046 276.914 15.2246 277.247 15.1016C277.584 14.974 277.939 14.9102 278.313 14.9102C278.755 14.9102 279.152 14.9694 279.503 15.0879C279.858 15.2018 280.161 15.3727 280.412 15.6006C280.667 15.8285 280.863 16.111 281 16.4482C281.136 16.7855 281.205 17.1751 281.205 17.6172C281.205 17.959 281.141 18.2803 281.013 18.5811C280.886 18.8818 280.701 19.1462 280.46 19.374C280.218 19.6019 279.919 19.7819 279.564 19.9141C279.209 20.0417 278.803 20.1055 278.347 20.1055ZM277.288 19.7568H278.347C278.849 19.7568 279.286 19.8138 279.66 19.9277C280.033 20.0417 280.343 20.208 280.589 20.4268C280.836 20.6455 281.02 20.9167 281.143 21.2402C281.271 21.5592 281.335 21.9261 281.335 22.3408C281.335 22.7829 281.259 23.1794 281.109 23.5303C280.959 23.8766 280.749 24.1706 280.48 24.4121C280.211 24.6536 279.892 24.8382 279.523 24.9658C279.158 25.0889 278.755 25.1504 278.313 25.1504C277.962 25.1504 277.614 25.0934 277.267 24.9795C276.925 24.861 276.613 24.6833 276.331 24.4463C276.048 24.2048 275.82 23.9017 275.647 23.5371C275.478 23.1725 275.394 22.7396 275.394 22.2383H275.927C275.927 22.7031 276.028 23.1178 276.228 23.4824C276.429 23.8424 276.709 24.1273 277.069 24.3369C277.429 24.542 277.844 24.6445 278.313 24.6445C278.846 24.6445 279.297 24.5534 279.667 24.3711C280.036 24.1842 280.318 23.9199 280.514 23.5781C280.71 23.2363 280.808 22.833 280.808 22.3682C280.808 21.9762 280.753 21.6436 280.644 21.3701C280.539 21.0921 280.38 20.8643 280.166 20.6865C279.956 20.5088 279.696 20.3789 279.386 20.2969C279.081 20.2103 278.725 20.167 278.32 20.167H277.288V19.7568ZM285.727 15.4639L282.76 25H282.206L285.378 15.0469H285.788L285.727 15.4639ZM288.523 25L285.563 15.4639L285.508 15.0469H285.911L289.076 25H288.523ZM287.832 21.6025V22.0947H283.485V21.6025H287.832ZM295.731 21.9375H296.264C296.21 22.7168 296.053 23.3411 295.793 23.8105C295.533 24.2799 295.184 24.6217 294.747 24.8359C294.314 25.0456 293.801 25.1504 293.209 25.1504C292.739 25.1504 292.316 25.0592 291.937 24.877C291.564 24.6947 291.242 24.4303 290.973 24.084C290.709 23.7376 290.506 23.3161 290.365 22.8193C290.224 22.318 290.153 21.7507 290.153 21.1172V18.8203C290.153 18.2051 290.224 17.6559 290.365 17.1729C290.506 16.6852 290.711 16.2751 290.98 15.9424C291.249 15.6051 291.573 15.3499 291.951 15.1768C292.334 14.999 292.764 14.9102 293.243 14.9102C293.822 14.9102 294.328 15.015 294.761 15.2246C295.194 15.4342 295.538 15.7738 295.793 16.2432C296.053 16.708 296.21 17.3301 296.264 18.1094H295.731C295.681 17.444 295.556 16.9154 295.355 16.5234C295.155 16.127 294.879 15.8421 294.528 15.6689C294.177 15.4912 293.749 15.4023 293.243 15.4023C292.842 15.4023 292.484 15.4775 292.17 15.6279C291.855 15.7783 291.586 15.9993 291.363 16.291C291.144 16.5781 290.976 16.9336 290.857 17.3574C290.743 17.7767 290.686 18.2598 290.686 18.8066V21.1172C290.686 21.6732 290.743 22.1699 290.857 22.6074C290.971 23.0449 291.135 23.4163 291.349 23.7217C291.568 24.027 291.833 24.2594 292.142 24.4189C292.457 24.5739 292.812 24.6514 293.209 24.6514C293.719 24.6514 294.15 24.5716 294.501 24.4121C294.856 24.2526 295.137 23.9769 295.342 23.585C295.551 23.1885 295.681 22.6393 295.731 21.9375ZM304.259 18.8271V21.2266C304.259 21.8509 304.186 22.4069 304.04 22.8945C303.895 23.3822 303.685 23.7923 303.412 24.125C303.138 24.4577 302.805 24.7129 302.414 24.8906C302.026 25.0638 301.586 25.1504 301.094 25.1504C300.607 25.1504 300.167 25.0638 299.775 24.8906C299.383 24.7129 299.048 24.4577 298.77 24.125C298.497 23.7923 298.285 23.3822 298.134 22.8945C297.984 22.4069 297.909 21.8509 297.909 21.2266V18.8271C297.909 18.1982 297.982 17.6423 298.127 17.1592C298.278 16.6715 298.49 16.2614 298.763 15.9287C299.041 15.596 299.374 15.3431 299.761 15.1699C300.153 14.9967 300.591 14.9102 301.074 14.9102C301.57 14.9102 302.015 14.9967 302.407 15.1699C302.799 15.3431 303.131 15.596 303.405 15.9287C303.683 16.2614 303.895 16.6715 304.04 17.1592C304.186 17.6423 304.259 18.1982 304.259 18.8271ZM303.733 21.2266V18.8135C303.733 18.2712 303.674 17.7904 303.555 17.3711C303.441 16.9473 303.273 16.5918 303.049 16.3047C302.826 16.013 302.548 15.792 302.215 15.6416C301.887 15.4912 301.507 15.416 301.074 15.416C300.654 15.416 300.281 15.4912 299.953 15.6416C299.624 15.792 299.346 16.013 299.119 16.3047C298.895 16.5918 298.724 16.9473 298.606 17.3711C298.492 17.7904 298.435 18.2712 298.435 18.8135V21.2266C298.435 21.7734 298.494 22.2588 298.613 22.6826C298.731 23.1019 298.904 23.4574 299.132 23.749C299.36 24.0407 299.638 24.2617 299.966 24.4121C300.294 24.5625 300.67 24.6377 301.094 24.6377C301.523 24.6377 301.901 24.5625 302.229 24.4121C302.557 24.2617 302.833 24.0407 303.056 23.749C303.279 23.4574 303.448 23.1019 303.562 22.6826C303.676 22.2588 303.733 21.7734 303.733 21.2266ZM311.283 15.0469V15.5391H306.778V25H306.245V15.0469H311.283ZM306.539 19.5176H308.891C309.497 19.5176 310.003 19.6338 310.408 19.8662C310.814 20.0986 311.122 20.4199 311.331 20.8301C311.541 21.2402 311.646 21.7165 311.646 22.2588C311.646 22.6598 311.586 23.029 311.468 23.3662C311.349 23.6989 311.174 23.9883 310.942 24.2344C310.709 24.4759 310.422 24.665 310.08 24.8018C309.738 24.9339 309.342 25 308.891 25H306.252V15.0469H306.785V24.501H308.891C309.419 24.501 309.845 24.3984 310.169 24.1934C310.497 23.9837 310.736 23.708 310.887 23.3662C311.037 23.0199 311.112 22.6462 311.112 22.2451C311.112 21.8532 311.037 21.4886 310.887 21.1514C310.736 20.8141 310.497 20.543 310.169 20.3379C309.845 20.1283 309.419 20.0234 308.891 20.0234H306.539V19.5176ZM319.88 18.8271V21.2266C319.88 21.8509 319.807 22.4069 319.661 22.8945C319.515 23.3822 319.305 23.7923 319.032 24.125C318.759 24.4577 318.426 24.7129 318.034 24.8906C317.647 25.0638 317.207 25.1504 316.715 25.1504C316.227 25.1504 315.787 25.0638 315.395 24.8906C315.003 24.7129 314.668 24.4577 314.39 24.125C314.117 23.7923 313.905 23.3822 313.755 22.8945C313.604 22.4069 313.529 21.8509 313.529 21.2266V18.8271C313.529 18.1982 313.602 17.6423 313.748 17.1592C313.898 16.6715 314.11 16.2614 314.384 15.9287C314.662 15.596 314.994 15.3431 315.382 15.1699C315.774 14.9967 316.211 14.9102 316.694 14.9102C317.191 14.9102 317.635 14.9967 318.027 15.1699C318.419 15.3431 318.752 15.596 319.025 15.9287C319.303 16.2614 319.515 16.6715 319.661 17.1592C319.807 17.6423 319.88 18.1982 319.88 18.8271ZM319.353 21.2266V18.8135C319.353 18.2712 319.294 17.7904 319.176 17.3711C319.062 16.9473 318.893 16.5918 318.67 16.3047C318.446 16.013 318.168 15.792 317.836 15.6416C317.508 15.4912 317.127 15.416 316.694 15.416C316.275 15.416 315.901 15.4912 315.573 15.6416C315.245 15.792 314.967 16.013 314.739 16.3047C314.516 16.5918 314.345 16.9473 314.226 17.3711C314.112 17.7904 314.055 18.2712 314.055 18.8135V21.2266C314.055 21.7734 314.115 22.2588 314.233 22.6826C314.352 23.1019 314.525 23.4574 314.753 23.749C314.981 24.0407 315.259 24.2617 315.587 24.4121C315.915 24.5625 316.291 24.6377 316.715 24.6377C317.143 24.6377 317.521 24.5625 317.849 24.4121C318.177 24.2617 318.453 24.0407 318.677 23.749C318.9 23.4574 319.068 23.1019 319.182 22.6826C319.296 22.2588 319.353 21.7734 319.353 21.2266ZM322.091 15.0469H322.624L325.899 24.166L329.173 15.0469H329.7L326.104 25H325.701L322.091 15.0469ZM321.92 15.0469H322.399L322.447 20.3652V25H321.92V15.0469ZM329.406 15.0469H329.898V25H329.371V20.3652L329.406 15.0469Z" fill="#00ACDB"/>
</svg>
