<svg preserveAspectRatio="none" width="1920" height="55" viewBox="0 0 1920 55" fill="none" xmlns="http://www.w3.org/2000/svg">
<g filter="url(#filter0_b_273_1114)">
<rect width="1920" height="55" fill="url(#paint0_linear_273_1114)" fill-opacity="0.1"/>
<path d="M32.5055 39.5742V41H13.3258V39.5742H32.5055ZM13.7164 39.5742V47.8555H12.2125L12.2516 39.5742H13.7164ZM33.7555 39.5742L33.7946 47.8359H32.2516V39.5742H33.7555ZM30.3766 12.5625V13.9688H19.2633V12.5625H30.3766ZM31.5094 12.5625V41H29.986V12.5625H31.5094ZM18.7164 12.5625H20.1813L19.8297 22.0742C19.7386 23.9753 19.5693 25.7461 19.3219 27.3867C19.0875 29.0273 18.8011 30.5312 18.4625 31.8984C18.137 33.2526 17.7724 34.4701 17.3688 35.5508C16.9651 36.6185 16.5485 37.5365 16.1188 38.3047C15.7021 39.0729 15.292 39.6849 14.8883 40.1406C14.4847 40.5964 14.1071 40.8828 13.7555 41H12.6031V39.5742H13.6578C13.9313 39.2747 14.2893 38.7344 14.7321 37.9531C15.1878 37.1719 15.663 36.0911 16.1578 34.7109C16.6656 33.3307 17.1149 31.6055 17.5055 29.5352C17.8961 27.4518 18.163 24.9648 18.3063 22.0742L18.7164 12.5625ZM40.5039 12.5625V41H39V12.5625H40.5039ZM58.6782 25.8828V27.2891H48.0532V25.8828H58.6782ZM62.9555 32.25H64.4594C64.3032 34.2422 63.8539 35.9219 63.1117 37.2891C62.3826 38.6432 61.393 39.6654 60.143 40.3555C58.906 41.0456 57.4412 41.3906 55.7485 41.3906C54.4073 41.3906 53.1899 41.0911 52.0961 40.4922C51.0154 39.8802 50.0844 39.0208 49.3032 37.9141C48.5219 36.7943 47.9229 35.4661 47.5063 33.9297C47.0896 32.3802 46.8813 30.668 46.8813 28.793V24.7695C46.8813 22.8945 47.0896 21.1888 47.5063 19.6523C47.9229 18.1029 48.5219 16.7747 49.3032 15.668C50.0844 14.5482 51.0219 13.6888 52.1157 13.0898C53.2224 12.4779 54.4594 12.1719 55.8266 12.1719C57.4933 12.1719 58.9451 12.5169 60.1821 13.207C61.419 13.8971 62.4021 14.9193 63.1313 16.2734C63.8604 17.6276 64.3032 19.3073 64.4594 21.3125H62.936C62.7927 19.6589 62.4282 18.2591 61.8422 17.1133C61.2693 15.9544 60.4815 15.0755 59.4789 14.4766C58.4893 13.8776 57.2719 13.5781 55.8266 13.5781C54.6808 13.5781 53.6521 13.8451 52.7407 14.3789C51.8292 14.8997 51.0479 15.6549 50.3969 16.6445C49.7459 17.6341 49.2446 18.8125 48.893 20.1797C48.5545 21.5339 48.3852 23.0508 48.3852 24.7305V28.793C48.3852 30.1211 48.4959 31.3581 48.7172 32.5039C48.9386 33.6497 49.2511 34.6849 49.6547 35.6094C50.0714 36.5208 50.5792 37.3021 51.1782 37.9531C51.7771 38.6042 52.4607 39.1055 53.2289 39.457C53.9972 39.7956 54.837 39.9648 55.7485 39.9648C57.1938 39.9648 58.4242 39.6914 59.4399 39.1445C60.4555 38.5846 61.2563 37.7383 61.8422 36.6055C62.4282 35.4596 62.7992 34.0078 62.9555 32.25ZM77.9071 12.5625V41H76.4227V12.5625H77.9071ZM86.3836 12.5625V13.9688H67.9461V12.5625H86.3836ZM92.3117 38.3047L106.863 12.5625H108.347V41H106.863V15.1992L92.3117 41H90.8078V12.5625H92.3117V38.3047ZM114.431 12.5625H115.896V19.7695C115.896 21.5273 116.144 22.9466 116.638 24.0273C117.146 25.0951 117.875 25.8763 118.826 26.3711C119.789 26.8529 120.981 27.0938 122.4 27.0938C122.999 27.0938 123.598 27.0677 124.197 27.0156C124.809 26.9505 125.414 26.8594 126.013 26.7422C126.612 26.625 127.205 26.4818 127.791 26.3125C128.377 26.1302 128.963 25.9349 129.548 25.7266V27.1719C129.002 27.3672 128.442 27.543 127.869 27.6992C127.309 27.8555 126.729 27.9987 126.13 28.1289C125.545 28.2591 124.939 28.3633 124.314 28.4414C123.689 28.5065 123.051 28.5391 122.4 28.5391C120.694 28.5391 119.249 28.2526 118.064 27.6797C116.879 27.1068 115.974 26.1758 115.349 24.8867C114.737 23.5977 114.431 21.8919 114.431 19.7695V12.5625ZM128.963 12.5625H130.427V41H128.963V12.5625ZM153.523 25.6484V27.0742H138.191V25.6484H153.523ZM138.66 12.5625V41H137.176V12.5625H138.66ZM154.637 12.5625V41H153.133V12.5625H154.637ZM169.139 13.7539L160.663 41H159.08L168.143 12.5625H169.315L169.139 13.7539ZM177.127 41L168.67 13.7539L168.514 12.5625H169.666L178.709 41H177.127ZM175.155 31.293V32.6992H162.733V31.293H175.155ZM209.765 39.5742V41H190.585V39.5742H209.765ZM190.976 39.5742V47.8555H189.472L189.511 39.5742H190.976ZM211.015 39.5742L211.054 47.8359H209.511V39.5742H211.015ZM207.636 12.5625V13.9688H196.523V12.5625H207.636ZM208.769 12.5625V41H207.245V12.5625H208.769ZM195.976 12.5625H197.441L197.089 22.0742C196.998 23.9753 196.829 25.7461 196.581 27.3867C196.347 29.0273 196.06 30.5312 195.722 31.8984C195.396 33.2526 195.032 34.4701 194.628 35.5508C194.224 36.6185 193.808 37.5365 193.378 38.3047C192.961 39.0729 192.551 39.6849 192.148 40.1406C191.744 40.5964 191.366 40.8828 191.015 41H189.863V39.5742H190.917C191.191 39.2747 191.549 38.7344 191.991 37.9531C192.447 37.1719 192.922 36.0911 193.417 34.7109C193.925 33.3307 194.374 31.6055 194.765 29.5352C195.155 27.4518 195.422 24.9648 195.566 22.0742L195.976 12.5625ZM232.509 23.3633V30.2188C232.509 32.0026 232.301 33.5911 231.884 34.9844C231.468 36.3776 230.869 37.5495 230.088 38.5C229.306 39.4505 228.356 40.1797 227.236 40.6875C226.129 41.1823 224.873 41.4297 223.466 41.4297C222.073 41.4297 220.817 41.1823 219.697 40.6875C218.577 40.1797 217.62 39.4505 216.826 38.5C216.045 37.5495 215.439 36.3776 215.009 34.9844C214.58 33.5911 214.365 32.0026 214.365 30.2188V23.3633C214.365 21.5664 214.573 19.9779 214.99 18.5977C215.42 17.2044 216.025 16.0326 216.806 15.082C217.601 14.1315 218.551 13.4089 219.658 12.9141C220.778 12.4193 222.028 12.1719 223.408 12.1719C224.827 12.1719 226.097 12.4193 227.216 12.9141C228.336 13.4089 229.287 14.1315 230.068 15.082C230.862 16.0326 231.468 17.2044 231.884 18.5977C232.301 19.9779 232.509 21.5664 232.509 23.3633ZM231.005 30.2188V23.3242C231.005 21.7747 230.836 20.401 230.498 19.2031C230.172 17.9922 229.69 16.9766 229.052 16.1562C228.414 15.3229 227.62 14.6914 226.67 14.2617C225.732 13.832 224.645 13.6172 223.408 13.6172C222.21 13.6172 221.142 13.832 220.205 14.2617C219.267 14.6914 218.473 15.3229 217.822 16.1562C217.184 16.9766 216.696 17.9922 216.357 19.2031C216.032 20.401 215.869 21.7747 215.869 23.3242V30.2188C215.869 31.7812 216.038 33.168 216.377 34.3789C216.715 35.5768 217.21 36.5924 217.861 37.4258C218.512 38.2591 219.306 38.8906 220.244 39.3203C221.181 39.75 222.255 39.9648 223.466 39.9648C224.69 39.9648 225.771 39.75 226.709 39.3203C227.646 38.8906 228.434 38.2591 229.072 37.4258C229.71 36.5924 230.192 35.5768 230.517 34.3789C230.843 33.168 231.005 31.7812 231.005 30.2188ZM252.578 12.5625V13.9688H239.707V41H238.184V12.5625H252.578ZM239.023 25.3359H245.742C247.474 25.3359 248.919 25.668 250.078 26.332C251.237 26.9961 252.116 27.9141 252.715 29.0859C253.314 30.2578 253.613 31.6185 253.613 33.168C253.613 34.3138 253.444 35.3685 253.105 36.332C252.767 37.2826 252.266 38.1094 251.602 38.8125C250.938 39.5026 250.117 40.043 249.141 40.4336C248.164 40.8112 247.031 41 245.742 41H238.203V12.5625H239.727V39.5742H245.742C247.253 39.5742 248.47 39.2812 249.395 38.6953C250.332 38.0964 251.016 37.3086 251.445 36.332C251.875 35.3424 252.09 34.2747 252.09 33.1289C252.09 32.0091 251.875 30.9674 251.445 30.0039C251.016 29.0404 250.332 28.2656 249.395 27.6797C248.47 27.0807 247.253 26.7812 245.742 26.7812H239.023V25.3359ZM267.295 13.7539L258.819 41H257.237L266.299 12.5625H267.471L267.295 13.7539ZM275.284 41L266.827 13.7539L266.67 12.5625H267.823L276.866 41H275.284ZM273.311 31.293V32.6992H260.889V31.293H273.311ZM289.083 27.0742H281.993L281.954 25.6875H287.93C289.246 25.6875 290.352 25.4727 291.251 25.043C292.162 24.6133 292.852 23.9622 293.321 23.0898C293.79 22.2174 294.024 21.1367 294.024 19.8477C294.024 18.5456 293.783 17.4583 293.302 16.5859C292.833 15.7135 292.123 15.0625 291.173 14.6328C290.235 14.1901 289.063 13.9688 287.657 13.9688H282.423V41H280.938V12.5625H287.657C288.868 12.5625 289.955 12.7122 290.919 13.0117C291.895 13.2982 292.722 13.7409 293.399 14.3398C294.089 14.9258 294.61 15.681 294.962 16.6055C295.326 17.5299 295.509 18.6302 295.509 19.9062C295.509 21.0781 295.307 22.1328 294.903 23.0703C294.499 24.0078 293.914 24.776 293.145 25.375C292.39 25.9609 291.479 26.319 290.411 26.4492L289.083 27.0742ZM288.927 41H281.641L282.325 39.5742H288.927C290.19 39.5742 291.27 39.3203 292.169 38.8125C293.08 38.2917 293.777 37.5495 294.259 36.5859C294.74 35.6224 294.981 34.4701 294.981 33.1289C294.981 32.0482 294.766 31.0521 294.337 30.1406C293.907 29.2161 293.256 28.474 292.384 27.9141C291.511 27.3542 290.411 27.0742 289.083 27.0742H285.001L285.04 25.6875H290.88L291.114 26.1758C292.156 26.319 293.08 26.7161 293.888 27.3672C294.708 28.0182 295.346 28.8451 295.802 29.8477C296.27 30.8372 296.505 31.918 296.505 33.0898C296.505 34.7956 296.179 36.2409 295.528 37.4258C294.89 38.5977 294.005 39.4896 292.872 40.1016C291.739 40.7005 290.424 41 288.927 41ZM303.409 12.5625V41H301.886V12.5625H303.409ZM318.566 12.5625L307.784 27.3281H302.804L302.765 25.9023H306.945L316.652 12.5625H318.566ZM317.394 41L306.749 27.1523L307.628 25.8242L319.308 41H317.394ZM331.173 13.7539L322.697 41H321.115L330.177 12.5625H331.349L331.173 13.7539ZM339.162 41L330.705 13.7539L330.548 12.5625H331.701L340.744 41H339.162ZM337.189 31.293V32.6992H324.767V31.293H337.189ZM344.133 39.8672C344.133 39.5156 344.25 39.2161 344.484 38.9688C344.719 38.7083 345.038 38.5781 345.441 38.5781C345.845 38.5781 346.171 38.7083 346.418 38.9688C346.678 39.2161 346.809 39.5156 346.809 39.8672C346.809 40.2188 346.678 40.5182 346.418 40.7656C346.171 41.013 345.845 41.1367 345.441 41.1367C345.038 41.1367 344.719 41.013 344.484 40.7656C344.25 40.5182 344.133 40.2188 344.133 39.8672ZM378.333 25.6484V27.0742H363.001V25.6484H378.333ZM363.47 12.5625V41H361.985V12.5625H363.47ZM379.446 12.5625V41H377.942V12.5625H379.446ZM400.96 39.5742V41H387.093V39.5742H400.96ZM387.679 12.5625V41H386.195V12.5625H387.679ZM399.3 25.6484V27.0742H387.093V25.6484H399.3ZM400.921 12.5625V13.9688H387.093V12.5625H400.921ZM429.516 32.25H431.039C430.883 34.4766 430.434 36.2604 429.691 37.6016C428.949 38.9427 427.953 39.9193 426.703 40.5312C425.466 41.1302 424.001 41.4297 422.309 41.4297C420.967 41.4297 419.757 41.1693 418.676 40.6484C417.608 40.1276 416.69 39.3724 415.922 38.3828C415.167 37.3932 414.587 36.1888 414.184 34.7695C413.78 33.3372 413.578 31.7161 413.578 29.9062V23.3438C413.578 21.5859 413.78 20.0169 414.184 18.6367C414.587 17.2435 415.173 16.0716 415.941 15.1211C416.71 14.1576 417.634 13.4284 418.715 12.9336C419.809 12.4258 421.039 12.1719 422.406 12.1719C424.06 12.1719 425.505 12.4714 426.742 13.0703C427.979 13.6693 428.962 14.6393 429.691 15.9805C430.434 17.3086 430.883 19.0859 431.039 21.3125H429.516C429.372 19.4115 429.014 17.901 428.441 16.7812C427.869 15.6484 427.081 14.8346 426.078 14.3398C425.076 13.832 423.852 13.5781 422.406 13.5781C421.26 13.5781 420.238 13.793 419.34 14.2227C418.441 14.6523 417.673 15.2839 417.035 16.1172C416.41 16.9375 415.928 17.9531 415.59 19.1641C415.264 20.362 415.102 21.7422 415.102 23.3047V29.9062C415.102 31.4948 415.264 32.9141 415.59 34.1641C415.915 35.4141 416.384 36.4753 416.996 37.3477C417.621 38.2201 418.376 38.8841 419.262 39.3398C420.16 39.7826 421.176 40.0039 422.309 40.0039C423.767 40.0039 424.997 39.776 426 39.3203C427.016 38.8646 427.816 38.0768 428.402 36.957C429.001 35.8242 429.372 34.2552 429.516 32.25ZM452.885 12.5625V13.9688H440.737V12.5625H452.885ZM453.979 12.5625V41H452.475V12.5625H453.979ZM440.19 12.5625H441.694L441.03 25.2188C440.913 27.4844 440.769 29.4896 440.6 31.2344C440.431 32.9661 440.203 34.4505 439.916 35.6875C439.643 36.9245 439.278 37.9336 438.823 38.7148C438.38 39.4961 437.82 40.0755 437.143 40.4531C436.479 40.8177 435.672 41 434.721 41H434.077V39.5742H434.682C435.346 39.5742 435.919 39.4375 436.401 39.1641C436.896 38.8776 437.312 38.4219 437.651 37.7969C438.002 37.1589 438.295 36.293 438.53 35.1992C438.764 34.0924 438.966 32.7122 439.135 31.0586C439.304 29.4049 439.441 27.4193 439.545 25.1016L440.19 12.5625ZM462.68 12.5625V41H461.177V12.5625H462.68ZM488.804 39.5742V41H469.624V39.5742H488.804ZM470.015 39.5742V47.8555H468.511L468.55 39.5742H470.015ZM490.054 39.5742L490.093 47.8359H488.55V39.5742H490.054ZM486.675 12.5625V13.9688H475.562V12.5625H486.675ZM487.808 12.5625V41H486.284V12.5625H487.808ZM475.015 12.5625H476.48L476.128 22.0742C476.037 23.9753 475.868 25.7461 475.62 27.3867C475.386 29.0273 475.099 30.5312 474.761 31.8984C474.435 33.2526 474.071 34.4701 473.667 35.5508C473.264 36.6185 472.847 37.5365 472.417 38.3047C472.001 39.0729 471.59 39.6849 471.187 40.1406C470.783 40.5964 470.405 40.8828 470.054 41H468.902V39.5742H469.956C470.23 39.2747 470.588 38.7344 471.03 37.9531C471.486 37.1719 471.961 36.0911 472.456 34.7109C472.964 33.3307 473.413 31.6055 473.804 29.5352C474.195 27.4518 474.461 24.9648 474.605 22.0742L475.015 12.5625ZM511.461 27.0742H504.371L504.332 25.6875H510.309C511.624 25.6875 512.73 25.4727 513.629 25.043C514.54 24.6133 515.23 23.9622 515.699 23.0898C516.168 22.2174 516.402 21.1367 516.402 19.8477C516.402 18.5456 516.161 17.4583 515.68 16.5859C515.211 15.7135 514.501 15.0625 513.551 14.6328C512.613 14.1901 511.441 13.9688 510.035 13.9688H504.801V41H503.316V12.5625H510.035C511.246 12.5625 512.333 12.7122 513.297 13.0117C514.273 13.2982 515.1 13.7409 515.777 14.3398C516.467 14.9258 516.988 15.681 517.34 16.6055C517.704 17.5299 517.887 18.6302 517.887 19.9062C517.887 21.0781 517.685 22.1328 517.281 23.0703C516.878 24.0078 516.292 24.776 515.523 25.375C514.768 25.9609 513.857 26.319 512.789 26.4492L511.461 27.0742ZM511.305 41H504.02L504.703 39.5742H511.305C512.568 39.5742 513.648 39.3203 514.547 38.8125C515.458 38.2917 516.155 37.5495 516.637 36.5859C517.119 35.6224 517.359 34.4701 517.359 33.1289C517.359 32.0482 517.145 31.0521 516.715 30.1406C516.285 29.2161 515.634 28.474 514.762 27.9141C513.889 27.3542 512.789 27.0742 511.461 27.0742H507.379L507.418 25.6875H513.258L513.492 26.1758C514.534 26.319 515.458 26.7161 516.266 27.3672C517.086 28.0182 517.724 28.8451 518.18 29.8477C518.648 30.8372 518.883 31.918 518.883 33.0898C518.883 34.7956 518.557 36.2409 517.906 37.4258C517.268 38.5977 516.383 39.4896 515.25 40.1016C514.117 40.7005 512.802 41 511.305 41ZM525.768 38.3047L540.319 12.5625H541.803V41H540.319V15.1992L525.768 41H524.264V12.5625H525.768V38.3047ZM550.114 12.5625V41H548.591V12.5625H550.114ZM565.27 12.5625L554.489 27.3281H549.509L549.47 25.9023H553.649L563.356 12.5625H565.27ZM564.098 41L553.454 27.1523L554.333 25.8242L566.013 41H564.098ZM587.097 23.3633V30.2188C587.097 32.0026 586.889 33.5911 586.472 34.9844C586.055 36.3776 585.456 37.5495 584.675 38.5C583.894 39.4505 582.943 40.1797 581.823 40.6875C580.717 41.1823 579.46 41.4297 578.054 41.4297C576.661 41.4297 575.404 41.1823 574.284 40.6875C573.165 40.1797 572.208 39.4505 571.413 38.5C570.632 37.5495 570.027 36.3776 569.597 34.9844C569.167 33.5911 568.952 32.0026 568.952 30.2188V23.3633C568.952 21.5664 569.161 19.9779 569.577 18.5977C570.007 17.2044 570.613 16.0326 571.394 15.082C572.188 14.1315 573.139 13.4089 574.245 12.9141C575.365 12.4193 576.615 12.1719 577.995 12.1719C579.415 12.1719 580.684 12.4193 581.804 12.9141C582.924 13.4089 583.874 14.1315 584.656 15.082C585.45 16.0326 586.055 17.2044 586.472 18.5977C586.889 19.9779 587.097 21.5664 587.097 23.3633ZM585.593 30.2188V23.3242C585.593 21.7747 585.424 20.401 585.085 19.2031C584.76 17.9922 584.278 16.9766 583.64 16.1562C583.002 15.3229 582.208 14.6914 581.257 14.2617C580.32 13.832 579.232 13.6172 577.995 13.6172C576.797 13.6172 575.73 13.832 574.792 14.2617C573.855 14.6914 573.06 15.3229 572.409 16.1562C571.771 16.9766 571.283 17.9922 570.945 19.2031C570.619 20.401 570.456 21.7747 570.456 23.3242V30.2188C570.456 31.7812 570.626 33.168 570.964 34.3789C571.303 35.5768 571.797 36.5924 572.448 37.4258C573.1 38.2591 573.894 38.8906 574.831 39.3203C575.769 39.75 576.843 39.9648 578.054 39.9648C579.278 39.9648 580.359 39.75 581.296 39.3203C582.234 38.8906 583.021 38.2591 583.659 37.4258C584.297 36.5924 584.779 35.5768 585.105 34.3789C585.43 33.168 585.593 31.7812 585.593 30.2188ZM600.779 29.1641H593.728V27.7188H600.779C602.315 27.7188 603.552 27.4193 604.49 26.8203C605.44 26.2083 606.13 25.3945 606.56 24.3789C607.003 23.3503 607.224 22.2174 607.224 20.9805C607.224 19.7044 607.003 18.5391 606.56 17.4844C606.13 16.4167 605.44 15.5638 604.49 14.9258C603.552 14.2878 602.315 13.9688 600.779 13.9688H594.412V41H592.927V12.5625H600.779C602.511 12.5625 603.963 12.9141 605.134 13.6172C606.319 14.3073 607.211 15.2839 607.81 16.5469C608.422 17.7969 608.728 19.2617 608.728 20.9414C608.728 22.6341 608.429 24.099 607.83 25.3359C607.231 26.5729 606.345 27.5234 605.173 28.1875C604.002 28.8385 602.537 29.1641 600.779 29.1641ZM615.379 38.3047L629.93 12.5625H631.414V41H629.93V15.1992L615.379 41H613.875V12.5625H615.379V38.3047ZM653.358 32.25H654.881C654.725 34.4766 654.276 36.2604 653.534 37.6016C652.791 38.9427 651.795 39.9193 650.545 40.5312C649.308 41.1302 647.844 41.4297 646.151 41.4297C644.81 41.4297 643.599 41.1693 642.518 40.6484C641.45 40.1276 640.532 39.3724 639.764 38.3828C639.009 37.3932 638.429 36.1888 638.026 34.7695C637.622 33.3372 637.42 31.7161 637.42 29.9062V23.3438C637.42 21.5859 637.622 20.0169 638.026 18.6367C638.429 17.2435 639.015 16.0716 639.784 15.1211C640.552 14.1576 641.476 13.4284 642.557 12.9336C643.651 12.4258 644.881 12.1719 646.248 12.1719C647.902 12.1719 649.347 12.4714 650.584 13.0703C651.821 13.6693 652.804 14.6393 653.534 15.9805C654.276 17.3086 654.725 19.0859 654.881 21.3125H653.358C653.215 19.4115 652.857 17.901 652.284 16.7812C651.711 15.6484 650.923 14.8346 649.92 14.3398C648.918 13.832 647.694 13.5781 646.248 13.5781C645.103 13.5781 644.081 13.793 643.182 14.2227C642.284 14.6523 641.515 15.2839 640.877 16.1172C640.252 16.9375 639.771 17.9531 639.432 19.1641C639.107 20.362 638.944 21.7422 638.944 23.3047V29.9062C638.944 31.4948 639.107 32.9141 639.432 34.1641C639.758 35.4141 640.226 36.4753 640.838 37.3477C641.463 38.2201 642.219 38.8841 643.104 39.3398C644.002 39.7826 645.018 40.0039 646.151 40.0039C647.609 40.0039 648.84 39.776 649.842 39.3203C650.858 38.8646 651.659 38.0768 652.245 36.957C652.844 35.8242 653.215 34.2552 653.358 32.25ZM667.548 12.5625V41H666.063V12.5625H667.548ZM676.024 12.5625V13.9688H657.587V12.5625H676.024ZM697.128 23.3633V30.2188C697.128 32.0026 696.92 33.5911 696.503 34.9844C696.087 36.3776 695.488 37.5495 694.706 38.5C693.925 39.4505 692.975 40.1797 691.855 40.6875C690.748 41.1823 689.491 41.4297 688.085 41.4297C686.692 41.4297 685.435 41.1823 684.316 40.6875C683.196 40.1797 682.239 39.4505 681.445 38.5C680.663 37.5495 680.058 36.3776 679.628 34.9844C679.198 33.5911 678.984 32.0026 678.984 30.2188V23.3633C678.984 21.5664 679.192 19.9779 679.609 18.5977C680.038 17.2044 680.644 16.0326 681.425 15.082C682.219 14.1315 683.17 13.4089 684.277 12.9141C685.396 12.4193 686.646 12.1719 688.027 12.1719C689.446 12.1719 690.715 12.4193 691.835 12.9141C692.955 13.4089 693.906 14.1315 694.687 15.082C695.481 16.0326 696.087 17.2044 696.503 18.5977C696.92 19.9779 697.128 21.5664 697.128 23.3633ZM695.624 30.2188V23.3242C695.624 21.7747 695.455 20.401 695.116 19.2031C694.791 17.9922 694.309 16.9766 693.671 16.1562C693.033 15.3229 692.239 14.6914 691.288 14.2617C690.351 13.832 689.264 13.6172 688.027 13.6172C686.829 13.6172 685.761 13.832 684.823 14.2617C683.886 14.6914 683.092 15.3229 682.441 16.1562C681.803 16.9766 681.314 17.9922 680.976 19.2031C680.65 20.401 680.488 21.7747 680.488 23.3242V30.2188C680.488 31.7812 680.657 33.168 680.995 34.3789C681.334 35.5768 681.829 36.5924 682.48 37.4258C683.131 38.2591 683.925 38.8906 684.863 39.3203C685.8 39.75 686.874 39.9648 688.085 39.9648C689.309 39.9648 690.39 39.75 691.327 39.3203C692.265 38.8906 693.053 38.2591 693.691 37.4258C694.329 36.5924 694.81 35.5768 695.136 34.3789C695.462 33.168 695.624 31.7812 695.624 30.2188ZM711.103 27.0742H704.013L703.974 25.6875H709.951C711.266 25.6875 712.373 25.4727 713.271 25.043C714.183 24.6133 714.873 23.9622 715.341 23.0898C715.81 22.2174 716.045 21.1367 716.045 19.8477C716.045 18.5456 715.804 17.4583 715.322 16.5859C714.853 15.7135 714.144 15.0625 713.193 14.6328C712.255 14.1901 711.084 13.9688 709.677 13.9688H704.443V41H702.959V12.5625H709.677C710.888 12.5625 711.976 12.7122 712.939 13.0117C713.916 13.2982 714.742 13.7409 715.42 14.3398C716.11 14.9258 716.63 15.681 716.982 16.6055C717.347 17.5299 717.529 18.6302 717.529 19.9062C717.529 21.0781 717.327 22.1328 716.923 23.0703C716.52 24.0078 715.934 24.776 715.166 25.375C714.41 25.9609 713.499 26.319 712.431 26.4492L711.103 27.0742ZM710.947 41H703.662L704.345 39.5742H710.947C712.21 39.5742 713.291 39.3203 714.189 38.8125C715.101 38.2917 715.797 37.5495 716.279 36.5859C716.761 35.6224 717.002 34.4701 717.002 33.1289C717.002 32.0482 716.787 31.0521 716.357 30.1406C715.927 29.2161 715.276 28.474 714.404 27.9141C713.532 27.3542 712.431 27.0742 711.103 27.0742H707.021L707.06 25.6875H712.9L713.134 26.1758C714.176 26.319 715.101 26.7161 715.908 27.3672C716.728 28.0182 717.366 28.8451 717.822 29.8477C718.291 30.8372 718.525 31.918 718.525 33.0898C718.525 34.7956 718.2 36.2409 717.548 37.4258C716.91 38.5977 716.025 39.4896 714.892 40.1016C713.759 40.7005 712.444 41 710.947 41ZM731.523 31.3711L738.945 12.5625H740.742L731.211 36.0195C731.003 36.5143 730.749 37.0677 730.449 37.6797C730.163 38.2917 729.798 38.8841 729.355 39.457C728.913 40.0299 728.366 40.4987 727.715 40.8633C727.064 41.2279 726.289 41.4102 725.391 41.4102C725.169 41.4102 724.896 41.3841 724.57 41.332C724.258 41.293 724.03 41.2344 723.887 41.1562L724.082 39.8086C724.238 39.8607 724.453 39.9062 724.727 39.9453C725.013 39.9714 725.254 39.9844 725.449 39.9844C726.204 39.9844 726.842 39.7891 727.363 39.3984C727.884 38.9948 728.333 38.4674 728.711 37.8164C729.089 37.1654 729.421 36.4753 729.707 35.7461L731.523 31.3711ZM722.93 12.5625L731.66 31.9766L732.207 33.2852L730.879 33.8125L721.172 12.5625H722.93ZM753.311 27.0742H746.221L746.182 25.6875H752.159C753.474 25.6875 754.581 25.4727 755.479 25.043C756.39 24.6133 757.081 23.9622 757.549 23.0898C758.018 22.2174 758.252 21.1367 758.252 19.8477C758.252 18.5456 758.011 17.4583 757.53 16.5859C757.061 15.7135 756.351 15.0625 755.401 14.6328C754.463 14.1901 753.291 13.9688 751.885 13.9688H746.651V41H745.166V12.5625H751.885C753.096 12.5625 754.183 12.7122 755.147 13.0117C756.123 13.2982 756.95 13.7409 757.627 14.3398C758.317 14.9258 758.838 15.681 759.19 16.6055C759.554 17.5299 759.737 18.6302 759.737 19.9062C759.737 21.0781 759.535 22.1328 759.131 23.0703C758.728 24.0078 758.142 24.776 757.373 25.375C756.618 25.9609 755.707 26.319 754.639 26.4492L753.311 27.0742ZM753.155 41H745.87L746.553 39.5742H753.155C754.418 39.5742 755.498 39.3203 756.397 38.8125C757.308 38.2917 758.005 37.5495 758.487 36.5859C758.969 35.6224 759.209 34.4701 759.209 33.1289C759.209 32.0482 758.995 31.0521 758.565 30.1406C758.135 29.2161 757.484 28.474 756.612 27.9141C755.739 27.3542 754.639 27.0742 753.311 27.0742H749.229L749.268 25.6875H755.108L755.342 26.1758C756.384 26.319 757.308 26.7161 758.116 27.3672C758.936 28.0182 759.574 28.8451 760.03 29.8477C760.498 30.8372 760.733 31.918 760.733 33.0898C760.733 34.7956 760.407 36.2409 759.756 37.4258C759.118 38.5977 758.233 39.4896 757.1 40.1016C755.967 40.7005 754.652 41 753.155 41ZM773.497 13.7539L765.02 41H763.438L772.501 12.5625H773.673L773.497 13.7539ZM781.485 41L773.028 13.7539L772.872 12.5625H774.024L783.067 41H781.485ZM779.513 31.293V32.6992H767.091V31.293H779.513ZM792.257 12.5625V41H790.773V12.5625H792.257ZM800.734 12.5625V13.9688H782.296V12.5625H800.734ZM806.662 38.3047L821.213 12.5625H822.697V41H821.213V15.1992L806.662 41H805.158V12.5625H806.662V38.3047ZM851.643 29.0664H842.854L842.209 28.6758C840.608 28.1029 839.384 27.1589 838.538 25.8438C837.691 24.5286 837.268 22.9466 837.268 21.0977C837.268 19.2747 837.587 17.7318 838.225 16.4688C838.876 15.1927 839.801 14.2227 840.998 13.5586C842.196 12.8945 843.622 12.5625 845.276 12.5625H852.463V41H850.959V13.9688H845.276C843.127 13.9688 841.506 14.6003 840.413 15.8633C839.319 17.1133 838.772 18.8451 838.772 21.0586C838.772 22.3477 838.993 23.4935 839.436 24.4961C839.892 25.4857 840.543 26.2604 841.389 26.8203C842.248 27.3802 843.284 27.6602 844.495 27.6602H851.663L851.643 29.0664ZM843.928 27.9336L838.03 41H836.37L842.424 27.9336H843.928ZM860.169 12.5625V41H858.645V12.5625H860.169ZM875.325 12.5625L864.544 27.3281H859.563L859.524 25.9023H863.704L873.411 12.5625H875.325ZM874.153 41L863.509 27.1523L864.388 25.8242L876.067 41H874.153ZM895.892 27.0156H892.865V25.7656H895.814C897.403 25.7656 898.692 25.5247 899.681 25.043C900.671 24.5482 901.394 23.8581 901.849 22.9727C902.318 22.0872 902.552 21.0456 902.552 19.8477C902.552 18.6497 902.311 17.582 901.83 16.6445C901.361 15.694 900.625 14.9518 899.623 14.418C898.633 13.8711 897.357 13.5977 895.795 13.5977C894.61 13.5977 893.522 13.8581 892.533 14.3789C891.556 14.8997 890.769 15.6419 890.17 16.6055C889.584 17.556 889.291 18.6888 889.291 20.0039H887.806C887.806 18.793 888.021 17.7057 888.451 16.7422C888.88 15.7656 889.466 14.9388 890.209 14.2617C890.951 13.5846 891.797 13.0703 892.748 12.7188C893.711 12.3542 894.727 12.1719 895.795 12.1719C897.058 12.1719 898.19 12.3411 899.193 12.6797C900.209 13.0052 901.075 13.4935 901.791 14.1445C902.52 14.7956 903.08 15.6029 903.47 16.5664C903.861 17.5299 904.056 18.6432 904.056 19.9062C904.056 20.8828 903.874 21.8008 903.509 22.6602C903.145 23.5195 902.617 24.2747 901.927 24.9258C901.237 25.5768 900.384 26.0911 899.369 26.4688C898.353 26.8333 897.194 27.0156 895.892 27.0156ZM892.865 26.0195H895.892C897.325 26.0195 898.575 26.1823 899.642 26.5078C900.71 26.8333 901.595 27.3086 902.298 27.9336C903.002 28.5586 903.529 29.3333 903.88 30.2578C904.245 31.1693 904.427 32.2174 904.427 33.4023C904.427 34.6654 904.213 35.7982 903.783 36.8008C903.353 37.7904 902.754 38.6302 901.986 39.3203C901.218 40.0104 900.306 40.5378 899.252 40.9023C898.21 41.2539 897.058 41.4297 895.795 41.4297C894.792 41.4297 893.796 41.2669 892.806 40.9414C891.83 40.6029 890.938 40.0951 890.13 39.418C889.323 38.7279 888.672 37.862 888.177 36.8203C887.696 35.7786 887.455 34.5417 887.455 33.1094H888.978C888.978 34.4375 889.265 35.6224 889.838 36.6641C890.41 37.6927 891.211 38.5065 892.24 39.1055C893.269 39.6914 894.453 39.9844 895.795 39.9844C897.318 39.9844 898.607 39.724 899.662 39.2031C900.716 38.6693 901.524 37.9141 902.084 36.9375C902.644 35.9609 902.923 34.8086 902.923 33.4805C902.923 32.3607 902.767 31.4102 902.455 30.6289C902.155 29.8346 901.7 29.1836 901.088 28.6758C900.489 28.168 899.746 27.7969 898.861 27.5625C897.989 27.3151 896.973 27.1914 895.814 27.1914H892.865V26.0195ZM916.977 13.7539L908.5 41H906.918L915.98 12.5625H917.152L916.977 13.7539ZM924.965 41L916.508 13.7539L916.352 12.5625H917.504L926.547 41H924.965ZM922.992 31.293V32.6992H910.57V31.293H922.992ZM931.108 12.5625H932.631L941.987 38.6172L951.342 12.5625H952.846L942.573 41H941.42L931.108 12.5625ZM930.62 12.5625H931.987L932.123 27.7578V41H930.62V12.5625ZM952.006 12.5625H953.413V41H951.909V27.7578L952.006 12.5625ZM962.134 12.5625V41H960.63V12.5625H962.134ZM985.738 25.6484V27.0742H970.406V25.6484H985.738ZM970.874 12.5625V41H969.39V12.5625H970.874ZM986.851 12.5625V41H985.347V12.5625H986.851ZM1001.51 31.3711L1008.93 12.5625H1010.73L1001.2 36.0195C1000.99 36.5143 1000.73 37.0677 1000.44 37.6797C1000.15 38.2917 999.784 38.8841 999.341 39.457C998.899 40.0299 998.352 40.4987 997.701 40.8633C997.05 41.2279 996.275 41.4102 995.377 41.4102C995.155 41.4102 994.882 41.3841 994.556 41.332C994.244 41.293 994.016 41.2344 993.873 41.1562L994.068 39.8086C994.224 39.8607 994.439 39.9062 994.713 39.9453C994.999 39.9714 995.24 39.9844 995.435 39.9844C996.19 39.9844 996.828 39.7891 997.349 39.3984C997.87 38.9948 998.319 38.4674 998.697 37.8164C999.075 37.1654 999.407 36.4753 999.693 35.7461L1001.51 31.3711ZM992.916 12.5625L1001.65 31.9766L1002.19 33.2852L1000.86 33.8125L991.158 12.5625H992.916ZM1041.18 12.5625V41H1039.65V13.9688H1025.24V41H1023.72V12.5625H1041.18ZM1065.15 23.3633V30.2188C1065.15 32.0026 1064.94 33.5911 1064.53 34.9844C1064.11 36.3776 1063.51 37.5495 1062.73 38.5C1061.95 39.4505 1061 40.1797 1059.88 40.6875C1058.77 41.1823 1057.52 41.4297 1056.11 41.4297C1054.72 41.4297 1053.46 41.1823 1052.34 40.6875C1051.22 40.1797 1050.26 39.4505 1049.47 38.5C1048.69 37.5495 1048.08 36.3776 1047.65 34.9844C1047.22 33.5911 1047.01 32.0026 1047.01 30.2188V23.3633C1047.01 21.5664 1047.22 19.9779 1047.63 18.5977C1048.06 17.2044 1048.67 16.0326 1049.45 15.082C1050.24 14.1315 1051.19 13.4089 1052.3 12.9141C1053.42 12.4193 1054.67 12.1719 1056.05 12.1719C1057.47 12.1719 1058.74 12.4193 1059.86 12.9141C1060.98 13.4089 1061.93 14.1315 1062.71 15.082C1063.51 16.0326 1064.11 17.2044 1064.53 18.5977C1064.94 19.9779 1065.15 21.5664 1065.15 23.3633ZM1063.65 30.2188V23.3242C1063.65 21.7747 1063.48 20.401 1063.14 19.2031C1062.82 17.9922 1062.33 16.9766 1061.7 16.1562C1061.06 15.3229 1060.26 14.6914 1059.31 14.2617C1058.38 13.832 1057.29 13.6172 1056.05 13.6172C1054.85 13.6172 1053.79 13.832 1052.85 14.2617C1051.91 14.6914 1051.12 15.3229 1050.47 16.1562C1049.83 16.9766 1049.34 17.9922 1049 19.2031C1048.68 20.401 1048.51 21.7747 1048.51 23.3242V30.2188C1048.51 31.7812 1048.68 33.168 1049.02 34.3789C1049.36 35.5768 1049.85 36.5924 1050.5 37.4258C1051.16 38.2591 1051.95 38.8906 1052.89 39.3203C1053.83 39.75 1054.9 39.9648 1056.11 39.9648C1057.33 39.9648 1058.41 39.75 1059.35 39.3203C1060.29 38.8906 1061.08 38.2591 1061.72 37.4258C1062.35 36.5924 1062.84 35.5768 1063.16 34.3789C1063.49 33.168 1063.65 31.7812 1063.65 30.2188ZM1079.13 27.0742H1072.04L1072 25.6875H1077.98C1079.29 25.6875 1080.4 25.4727 1081.3 25.043C1082.21 24.6133 1082.9 23.9622 1083.37 23.0898C1083.84 22.2174 1084.07 21.1367 1084.07 19.8477C1084.07 18.5456 1083.83 17.4583 1083.35 16.5859C1082.88 15.7135 1082.17 15.0625 1081.22 14.6328C1080.28 14.1901 1079.11 13.9688 1077.7 13.9688H1072.47V41H1070.98V12.5625H1077.7C1078.91 12.5625 1080 12.7122 1080.96 13.0117C1081.94 13.2982 1082.77 13.7409 1083.44 14.3398C1084.13 14.9258 1084.66 15.681 1085.01 16.6055C1085.37 17.5299 1085.55 18.6302 1085.55 19.9062C1085.55 21.0781 1085.35 22.1328 1084.95 23.0703C1084.54 24.0078 1083.96 24.776 1083.19 25.375C1082.44 25.9609 1081.52 26.319 1080.46 26.4492L1079.13 27.0742ZM1078.97 41H1071.69L1072.37 39.5742H1078.97C1080.23 39.5742 1081.32 39.3203 1082.21 38.8125C1083.13 38.2917 1083.82 37.5495 1084.3 36.5859C1084.79 35.6224 1085.03 34.4701 1085.03 33.1289C1085.03 32.0482 1084.81 31.0521 1084.38 30.1406C1083.95 29.2161 1083.3 28.474 1082.43 27.9141C1081.56 27.3542 1080.46 27.0742 1079.13 27.0742H1075.05L1075.09 25.6875H1080.93L1081.16 26.1758C1082.2 26.319 1083.13 26.7161 1083.93 27.3672C1084.75 28.0182 1085.39 28.8451 1085.85 29.8477C1086.32 30.8372 1086.55 31.918 1086.55 33.0898C1086.55 34.7956 1086.22 36.2409 1085.57 37.4258C1084.94 38.5977 1084.05 39.4896 1082.92 40.1016C1081.78 40.7005 1080.47 41 1078.97 41ZM1108.26 25.6484V27.0742H1092.93V25.6484H1108.26ZM1093.4 12.5625V41H1091.91V12.5625H1093.4ZM1109.37 12.5625V41H1107.87V12.5625H1109.37ZM1133.37 23.3633V30.2188C1133.37 32.0026 1133.16 33.5911 1132.74 34.9844C1132.33 36.3776 1131.73 37.5495 1130.95 38.5C1130.16 39.4505 1129.21 40.1797 1128.09 40.6875C1126.99 41.1823 1125.73 41.4297 1124.32 41.4297C1122.93 41.4297 1121.67 41.1823 1120.55 40.6875C1119.43 40.1797 1118.48 39.4505 1117.68 38.5C1116.9 37.5495 1116.3 36.3776 1115.87 34.9844C1115.44 33.5911 1115.22 32.0026 1115.22 30.2188V23.3633C1115.22 21.5664 1115.43 19.9779 1115.85 18.5977C1116.28 17.2044 1116.88 16.0326 1117.66 15.082C1118.46 14.1315 1119.41 13.4089 1120.52 12.9141C1121.64 12.4193 1122.89 12.1719 1124.27 12.1719C1125.68 12.1719 1126.95 12.4193 1128.07 12.9141C1129.19 13.4089 1130.14 14.1315 1130.93 15.082C1131.72 16.0326 1132.33 17.2044 1132.74 18.5977C1133.16 19.9779 1133.37 21.5664 1133.37 23.3633ZM1131.86 30.2188V23.3242C1131.86 21.7747 1131.69 20.401 1131.36 19.2031C1131.03 17.9922 1130.55 16.9766 1129.91 16.1562C1129.27 15.3229 1128.48 14.6914 1127.53 14.2617C1126.59 13.832 1125.5 13.6172 1124.27 13.6172C1123.07 13.6172 1122 13.832 1121.06 14.2617C1120.12 14.6914 1119.33 15.3229 1118.68 16.1562C1118.04 16.9766 1117.55 17.9922 1117.21 19.2031C1116.89 20.401 1116.73 21.7747 1116.73 23.3242V30.2188C1116.73 31.7812 1116.9 33.168 1117.23 34.3789C1117.57 35.5768 1118.07 36.5924 1118.72 37.4258C1119.37 38.2591 1120.16 38.8906 1121.1 39.3203C1122.04 39.75 1123.11 39.9648 1124.32 39.9648C1125.55 39.9648 1126.63 39.75 1127.57 39.3203C1128.5 38.8906 1129.29 38.2591 1129.93 37.4258C1130.57 36.5924 1131.05 35.5768 1131.38 34.3789C1131.7 33.168 1131.86 31.7812 1131.86 30.2188ZM1158.31 39.5547L1158.23 47.8555H1156.83V41H1154.46V39.5547H1158.31ZM1138.6 41V12.5625H1140.13V39.5742H1154.54V12.5625H1156.04V41H1138.6ZM1165.04 12.5625V41H1163.53V12.5625H1165.04ZM1188.64 25.6484V27.0742H1173.31V25.6484H1188.64ZM1173.78 12.5625V41H1172.29V12.5625H1173.78ZM1189.76 12.5625V41H1188.25V12.5625H1189.76ZM1212.85 25.6484V27.0742H1197.52V25.6484H1212.85ZM1197.99 12.5625V41H1196.5V12.5625H1197.99ZM1213.96 12.5625V41H1212.46V12.5625H1213.96ZM1237.96 23.3633V30.2188C1237.96 32.0026 1237.75 33.5911 1237.33 34.9844C1236.92 36.3776 1236.32 37.5495 1235.54 38.5C1234.76 39.4505 1233.81 40.1797 1232.69 40.6875C1231.58 41.1823 1230.32 41.4297 1228.92 41.4297C1227.52 41.4297 1226.27 41.1823 1225.15 40.6875C1224.03 40.1797 1223.07 39.4505 1222.28 38.5C1221.49 37.5495 1220.89 36.3776 1220.46 34.9844C1220.03 33.5911 1219.81 32.0026 1219.81 30.2188V23.3633C1219.81 21.5664 1220.02 19.9779 1220.44 18.5977C1220.87 17.2044 1221.47 16.0326 1222.26 15.082C1223.05 14.1315 1224 13.4089 1225.11 12.9141C1226.23 12.4193 1227.48 12.1719 1228.86 12.1719C1230.28 12.1719 1231.55 12.4193 1232.67 12.9141C1233.79 13.4089 1234.74 14.1315 1235.52 15.082C1236.31 16.0326 1236.92 17.2044 1237.33 18.5977C1237.75 19.9779 1237.96 21.5664 1237.96 23.3633ZM1236.46 30.2188V23.3242C1236.46 21.7747 1236.29 20.401 1235.95 19.2031C1235.62 17.9922 1235.14 16.9766 1234.5 16.1562C1233.86 15.3229 1233.07 14.6914 1232.12 14.2617C1231.18 13.832 1230.09 13.6172 1228.86 13.6172C1227.66 13.6172 1226.59 13.832 1225.65 14.2617C1224.72 14.6914 1223.92 15.3229 1223.27 16.1562C1222.63 16.9766 1222.15 17.9922 1221.81 19.2031C1221.48 20.401 1221.32 21.7747 1221.32 23.3242V30.2188C1221.32 31.7812 1221.49 33.168 1221.83 34.3789C1222.17 35.5768 1222.66 36.5924 1223.31 37.4258C1223.96 38.2591 1224.76 38.8906 1225.69 39.3203C1226.63 39.75 1227.71 39.9648 1228.92 39.9648C1230.14 39.9648 1231.22 39.75 1232.16 39.3203C1233.1 38.8906 1233.88 38.2591 1234.52 37.4258C1235.16 36.5924 1235.64 35.5768 1235.97 34.3789C1236.29 33.168 1236.46 31.7812 1236.46 30.2188ZM1258.11 12.5625V13.9688H1245.24V41H1243.71V12.5625H1258.11ZM1278.64 23.3633V30.2188C1278.64 32.0026 1278.44 33.5911 1278.02 34.9844C1277.6 36.3776 1277 37.5495 1276.22 38.5C1275.44 39.4505 1274.49 40.1797 1273.37 40.6875C1272.26 41.1823 1271.01 41.4297 1269.6 41.4297C1268.21 41.4297 1266.95 41.1823 1265.83 40.6875C1264.71 40.1797 1263.75 39.4505 1262.96 38.5C1262.18 37.5495 1261.57 36.3776 1261.14 34.9844C1260.71 33.5911 1260.5 32.0026 1260.5 30.2188V23.3633C1260.5 21.5664 1260.71 19.9779 1261.12 18.5977C1261.55 17.2044 1262.16 16.0326 1262.94 15.082C1263.73 14.1315 1264.69 13.4089 1265.79 12.9141C1266.91 12.4193 1268.16 12.1719 1269.54 12.1719C1270.96 12.1719 1272.23 12.4193 1273.35 12.9141C1274.47 13.4089 1275.42 14.1315 1276.2 15.082C1277 16.0326 1277.6 17.2044 1278.02 18.5977C1278.44 19.9779 1278.64 21.5664 1278.64 23.3633ZM1277.14 30.2188V23.3242C1277.14 21.7747 1276.97 20.401 1276.63 19.2031C1276.31 17.9922 1275.82 16.9766 1275.19 16.1562C1274.55 15.3229 1273.75 14.6914 1272.8 14.2617C1271.87 13.832 1270.78 13.6172 1269.54 13.6172C1268.34 13.6172 1267.28 13.832 1266.34 14.2617C1265.4 14.6914 1264.61 15.3229 1263.96 16.1562C1263.32 16.9766 1262.83 17.9922 1262.49 19.2031C1262.17 20.401 1262 21.7747 1262 23.3242V30.2188C1262 31.7812 1262.17 33.168 1262.51 34.3789C1262.85 35.5768 1263.34 36.5924 1264 37.4258C1264.65 38.2591 1265.44 38.8906 1266.38 39.3203C1267.32 39.75 1268.39 39.9648 1269.6 39.9648C1270.82 39.9648 1271.91 39.75 1272.84 39.3203C1273.78 38.8906 1274.57 38.2591 1275.21 37.4258C1275.84 36.5924 1276.33 35.5768 1276.65 34.3789C1276.98 33.168 1277.14 31.7812 1277.14 30.2188ZM1300.87 29.1641H1293.82V27.7188H1300.87C1302.41 27.7188 1303.64 27.4193 1304.58 26.8203C1305.53 26.2083 1306.22 25.3945 1306.65 24.3789C1307.1 23.3503 1307.32 22.2174 1307.32 20.9805C1307.32 19.7044 1307.1 18.5391 1306.65 17.4844C1306.22 16.4167 1305.53 15.5638 1304.58 14.9258C1303.64 14.2878 1302.41 13.9688 1300.87 13.9688H1294.5V41H1293.02V12.5625H1300.87C1302.6 12.5625 1304.05 12.9141 1305.23 13.6172C1306.41 14.3073 1307.3 15.2839 1307.9 16.5469C1308.51 17.7969 1308.82 19.2617 1308.82 20.9414C1308.82 22.6341 1308.52 24.099 1307.92 25.3359C1307.32 26.5729 1306.44 27.5234 1305.27 28.1875C1304.09 28.8385 1302.63 29.1641 1300.87 29.1641ZM1318.65 13.7539L1310.18 41H1308.6L1317.66 12.5625H1318.83L1318.65 13.7539ZM1326.64 41L1318.19 13.7539L1318.03 12.5625H1319.18L1328.22 41H1326.64ZM1324.67 31.293V32.6992H1312.25V31.293H1324.67ZM1351.81 39.5547L1351.73 47.8555H1350.33V41H1347.96V39.5547H1351.81ZM1332.1 41V12.5625H1333.63V39.5742H1348.04V12.5625H1349.54V41H1332.1ZM1358.54 12.5625V41H1357.03V12.5625H1358.54ZM1383.04 23.3633V30.2188C1383.04 32.0026 1382.83 33.5911 1382.42 34.9844C1382 36.3776 1381.4 37.5495 1380.62 38.5C1379.84 39.4505 1378.89 40.1797 1377.77 40.6875C1376.66 41.1823 1375.4 41.4297 1374 41.4297C1372.6 41.4297 1371.35 41.1823 1370.23 40.6875C1369.11 40.1797 1368.15 39.4505 1367.36 38.5C1366.58 37.5495 1365.97 36.3776 1365.54 34.9844C1365.11 33.5911 1364.9 32.0026 1364.9 30.2188V23.3633C1364.9 21.5664 1365.1 19.9779 1365.52 18.5977C1365.95 17.2044 1366.56 16.0326 1367.34 15.082C1368.13 14.1315 1369.08 13.4089 1370.19 12.9141C1371.31 12.4193 1372.56 12.1719 1373.94 12.1719C1375.36 12.1719 1376.63 12.4193 1377.75 12.9141C1378.87 13.4089 1379.82 14.1315 1380.6 15.082C1381.39 16.0326 1382 17.2044 1382.42 18.5977C1382.83 19.9779 1383.04 21.5664 1383.04 23.3633ZM1381.54 30.2188V23.3242C1381.54 21.7747 1381.37 20.401 1381.03 19.2031C1380.7 17.9922 1380.22 16.9766 1379.58 16.1562C1378.95 15.3229 1378.15 14.6914 1377.2 14.2617C1376.26 13.832 1375.18 13.6172 1373.94 13.6172C1372.74 13.6172 1371.67 13.832 1370.74 14.2617C1369.8 14.6914 1369 15.3229 1368.35 16.1562C1367.72 16.9766 1367.23 17.9922 1366.89 19.2031C1366.56 20.401 1366.4 21.7747 1366.4 23.3242V30.2188C1366.4 31.7812 1366.57 33.168 1366.91 34.3789C1367.25 35.5768 1367.74 36.5924 1368.39 37.4258C1369.04 38.2591 1369.84 38.8906 1370.78 39.3203C1371.71 39.75 1372.79 39.9648 1374 39.9648C1375.22 39.9648 1376.3 39.75 1377.24 39.3203C1378.18 38.8906 1378.97 38.2591 1379.6 37.4258C1380.24 36.5924 1380.72 35.5768 1381.05 34.3789C1381.37 33.168 1381.54 31.7812 1381.54 30.2188ZM1405.22 25.6484V27.0742H1389.89V25.6484H1405.22ZM1390.36 12.5625V41H1388.87V12.5625H1390.36ZM1406.33 12.5625V41H1404.83V12.5625H1406.33ZM1420.99 31.3711L1428.41 12.5625H1430.21L1420.68 36.0195C1420.47 36.5143 1420.22 37.0677 1419.92 37.6797C1419.63 38.2917 1419.27 38.8841 1418.82 39.457C1418.38 40.0299 1417.83 40.4987 1417.18 40.8633C1416.53 41.2279 1415.76 41.4102 1414.86 41.4102C1414.64 41.4102 1414.36 41.3841 1414.04 41.332C1413.72 41.293 1413.5 41.2344 1413.35 41.1562L1413.55 39.8086C1413.71 39.8607 1413.92 39.9062 1414.19 39.9453C1414.48 39.9714 1414.72 39.9844 1414.92 39.9844C1415.67 39.9844 1416.31 39.7891 1416.83 39.3984C1417.35 38.9948 1417.8 38.4674 1418.18 37.8164C1418.56 37.1654 1418.89 36.4753 1419.17 35.7461L1420.99 31.3711ZM1412.4 12.5625L1421.13 31.9766L1421.67 33.2852L1420.35 33.8125L1410.64 12.5625H1412.4ZM1426.06 39.8672C1426.06 39.5156 1426.18 39.2161 1426.41 38.9688C1426.65 38.7083 1426.96 38.5781 1427.37 38.5781C1427.77 38.5781 1428.1 38.7083 1428.34 38.9688C1428.61 39.2161 1428.74 39.5156 1428.74 39.8672C1428.74 40.2188 1428.61 40.5182 1428.34 40.7656C1428.1 41.013 1427.77 41.1367 1427.37 41.1367C1426.96 41.1367 1426.65 41.013 1426.41 40.7656C1426.18 40.5182 1426.06 40.2188 1426.06 39.8672ZM1460.26 25.6484V27.0742H1444.93V25.6484H1460.26ZM1445.4 12.5625V41H1443.91V12.5625H1445.4ZM1461.37 12.5625V41H1459.87V12.5625H1461.37ZM1482.89 39.5742V41H1469.02V39.5742H1482.89ZM1469.61 12.5625V41H1468.12V12.5625H1469.61ZM1481.23 25.6484V27.0742H1469.02V25.6484H1481.23ZM1482.85 12.5625V13.9688H1469.02V12.5625H1482.85ZM1507.18 25.8828V27.2891H1496.56V25.8828H1507.18ZM1511.46 32.25H1512.97C1512.81 34.2422 1512.36 35.9219 1511.62 37.2891C1510.89 38.6432 1509.9 39.6654 1508.65 40.3555C1507.41 41.0456 1505.95 41.3906 1504.25 41.3906C1502.91 41.3906 1501.7 41.0911 1500.6 40.4922C1499.52 39.8802 1498.59 39.0208 1497.81 37.9141C1497.03 36.7943 1496.43 35.4661 1496.01 33.9297C1495.6 32.3802 1495.39 30.668 1495.39 28.793V24.7695C1495.39 22.8945 1495.6 21.1888 1496.01 19.6523C1496.43 18.1029 1497.03 16.7747 1497.81 15.668C1498.59 14.5482 1499.53 13.6888 1500.62 13.0898C1501.73 12.4779 1502.97 12.1719 1504.33 12.1719C1506 12.1719 1507.45 12.5169 1508.69 13.207C1509.93 13.8971 1510.91 14.9193 1511.64 16.2734C1512.37 17.6276 1512.81 19.3073 1512.97 21.3125H1511.44C1511.3 19.6589 1510.93 18.2591 1510.35 17.1133C1509.78 15.9544 1508.99 15.0755 1507.99 14.4766C1507 13.8776 1505.78 13.5781 1504.33 13.5781C1503.19 13.5781 1502.16 13.8451 1501.25 14.3789C1500.34 14.8997 1499.55 15.6549 1498.9 16.6445C1498.25 17.6341 1497.75 18.8125 1497.4 20.1797C1497.06 21.5339 1496.89 23.0508 1496.89 24.7305V28.793C1496.89 30.1211 1497 31.3581 1497.22 32.5039C1497.44 33.6497 1497.76 34.6849 1498.16 35.6094C1498.58 36.5208 1499.09 37.3021 1499.68 37.9531C1500.28 38.6042 1500.97 39.1055 1501.74 39.457C1502.5 39.7956 1503.34 39.9648 1504.25 39.9648C1505.7 39.9648 1506.93 39.6914 1507.95 39.1445C1508.96 38.5846 1509.76 37.7383 1510.35 36.6055C1510.93 35.4596 1511.31 34.0078 1511.46 32.25ZM1543.55 12.5625V13.9688H1531.4V12.5625H1543.55ZM1544.65 12.5625V41H1543.14V12.5625H1544.65ZM1530.86 12.5625H1532.36L1531.7 25.2188C1531.58 27.4844 1531.44 29.4896 1531.27 31.2344C1531.1 32.9661 1530.87 34.4505 1530.58 35.6875C1530.31 36.9245 1529.95 37.9336 1529.49 38.7148C1529.05 39.4961 1528.49 40.0755 1527.81 40.4531C1527.15 40.8177 1526.34 41 1525.39 41H1524.74V39.5742H1525.35C1526.01 39.5742 1526.59 39.4375 1527.07 39.1641C1527.56 38.8776 1527.98 38.4219 1528.32 37.7969C1528.67 37.1589 1528.96 36.293 1529.2 35.1992C1529.43 34.0924 1529.63 32.7122 1529.8 31.0586C1529.97 29.4049 1530.11 27.4193 1530.21 25.1016L1530.86 12.5625ZM1553.35 12.5625V41H1551.84V12.5625H1553.35ZM1562.15 12.5625V41H1560.62V12.5625H1562.15ZM1577.3 12.5625L1566.52 27.3281H1561.54L1561.5 25.9023H1565.68L1575.39 12.5625H1577.3ZM1576.13 41L1565.49 27.1523L1566.37 25.8242L1578.05 41H1576.13ZM1589.91 13.7539L1581.43 41H1579.85L1588.91 12.5625H1590.09L1589.91 13.7539ZM1597.9 41L1589.44 13.7539L1589.29 12.5625H1590.44L1599.48 41H1597.9ZM1595.93 31.293V32.6992H1583.5V31.293H1595.93ZM1611.41 29.1641H1604.35V27.7188H1611.41C1612.94 27.7188 1614.18 27.4193 1615.12 26.8203C1616.07 26.2083 1616.76 25.3945 1617.19 24.3789C1617.63 23.3503 1617.85 22.2174 1617.85 20.9805C1617.85 19.7044 1617.63 18.5391 1617.19 17.4844C1616.76 16.4167 1616.07 15.5638 1615.12 14.9258C1614.18 14.2878 1612.94 13.9688 1611.41 13.9688H1605.04V41H1603.55V12.5625H1611.41C1613.14 12.5625 1614.59 12.9141 1615.76 13.6172C1616.95 14.3073 1617.84 15.2839 1618.44 16.5469C1619.05 17.7969 1619.35 19.2617 1619.35 20.9414C1619.35 22.6341 1619.06 24.099 1618.46 25.3359C1617.86 26.5729 1616.97 27.5234 1615.8 28.1875C1614.63 28.8385 1613.16 29.1641 1611.41 29.1641ZM1639.66 32.25H1641.18C1641.03 34.4766 1640.58 36.2604 1639.83 37.6016C1639.09 38.9427 1638.1 39.9193 1636.85 40.5312C1635.61 41.1302 1634.14 41.4297 1632.45 41.4297C1631.11 41.4297 1629.9 41.1693 1628.82 40.6484C1627.75 40.1276 1626.83 39.3724 1626.06 38.3828C1625.31 37.3932 1624.73 36.1888 1624.33 34.7695C1623.92 33.3372 1623.72 31.7161 1623.72 29.9062V23.3438C1623.72 21.5859 1623.92 20.0169 1624.33 18.6367C1624.73 17.2435 1625.32 16.0716 1626.08 15.1211C1626.85 14.1576 1627.78 13.4284 1628.86 12.9336C1629.95 12.4258 1631.18 12.1719 1632.55 12.1719C1634.2 12.1719 1635.65 12.4714 1636.88 13.0703C1638.12 13.6693 1639.1 14.6393 1639.83 15.9805C1640.58 17.3086 1641.03 19.0859 1641.18 21.3125H1639.66C1639.51 19.4115 1639.16 17.901 1638.58 16.7812C1638.01 15.6484 1637.22 14.8346 1636.22 14.3398C1635.22 13.832 1633.99 13.5781 1632.55 13.5781C1631.4 13.5781 1630.38 13.793 1629.48 14.2227C1628.58 14.6523 1627.82 15.2839 1627.18 16.1172C1626.55 16.9375 1626.07 17.9531 1625.73 19.1641C1625.41 20.362 1625.24 21.7422 1625.24 23.3047V29.9062C1625.24 31.4948 1625.41 32.9141 1625.73 34.1641C1626.06 35.4141 1626.53 36.4753 1627.14 37.3477C1627.76 38.2201 1628.52 38.8841 1629.4 39.3398C1630.3 39.7826 1631.32 40.0039 1632.45 40.0039C1633.91 40.0039 1635.14 39.776 1636.14 39.3203C1637.16 38.8646 1637.96 38.0768 1638.54 36.957C1639.14 35.8242 1639.51 34.2552 1639.66 32.25ZM1647.46 25.3359H1654.18C1655.91 25.3359 1657.36 25.668 1658.52 26.332C1659.67 26.9961 1660.55 27.9141 1661.15 29.0859C1661.75 30.2578 1662.05 31.6185 1662.05 33.168C1662.05 34.3138 1661.88 35.3685 1661.54 36.332C1661.2 37.2826 1660.7 38.1094 1660.04 38.8125C1659.38 39.5026 1658.55 40.043 1657.58 40.4336C1656.6 40.8112 1655.47 41 1654.18 41H1646.64V12.5625H1648.16V39.5742H1654.18C1655.69 39.5742 1656.91 39.2812 1657.83 38.6953C1658.77 38.0964 1659.45 37.3086 1659.88 36.332C1660.31 35.3424 1660.53 34.2747 1660.53 33.1289C1660.53 32.0091 1660.31 30.9674 1659.88 30.0039C1659.45 29.0404 1658.77 28.2656 1657.83 27.6797C1656.91 27.0807 1655.69 26.7812 1654.18 26.7812H1647.46V25.3359ZM1669.13 12.5625V41H1667.61V12.5625H1669.13ZM1684.29 12.5625L1673.51 27.3281H1668.53L1668.49 25.9023H1672.67L1682.37 12.5625H1684.29ZM1683.12 41L1672.47 27.1523L1673.35 25.8242L1685.03 41H1683.12ZM1691.02 38.3047L1705.57 12.5625H1707.05V41H1705.57V15.1992L1691.02 41H1689.51V12.5625H1691.02V38.3047ZM1714.31 12.5625H1715.83L1725.19 38.6172L1734.54 12.5625H1736.05L1725.77 41H1724.62L1714.31 12.5625ZM1713.82 12.5625H1715.19L1715.32 27.7578V41H1713.82V12.5625ZM1735.21 12.5625H1736.61V41H1735.11V27.7578L1735.21 12.5625ZM1758.66 27.0156H1755.64V25.7656H1758.59C1760.17 25.7656 1761.46 25.5247 1762.45 25.043C1763.44 24.5482 1764.17 23.8581 1764.62 22.9727C1765.09 22.0872 1765.32 21.0456 1765.32 19.8477C1765.32 18.6497 1765.08 17.582 1764.6 16.6445C1764.13 15.694 1763.4 14.9518 1762.39 14.418C1761.4 13.8711 1760.13 13.5977 1758.57 13.5977C1757.38 13.5977 1756.29 13.8581 1755.3 14.3789C1754.33 14.8997 1753.54 15.6419 1752.94 16.6055C1752.36 17.556 1752.06 18.6888 1752.06 20.0039H1750.58C1750.58 18.793 1750.79 17.7057 1751.22 16.7422C1751.65 15.7656 1752.24 14.9388 1752.98 14.2617C1753.72 13.5846 1754.57 13.0703 1755.52 12.7188C1756.48 12.3542 1757.5 12.1719 1758.57 12.1719C1759.83 12.1719 1760.96 12.3411 1761.96 12.6797C1762.98 13.0052 1763.85 13.4935 1764.56 14.1445C1765.29 14.7956 1765.85 15.6029 1766.24 16.5664C1766.63 17.5299 1766.83 18.6432 1766.83 19.9062C1766.83 20.8828 1766.65 21.8008 1766.28 22.6602C1765.92 23.5195 1765.39 24.2747 1764.7 24.9258C1764.01 25.5768 1763.16 26.0911 1762.14 26.4688C1761.12 26.8333 1759.97 27.0156 1758.66 27.0156ZM1755.64 26.0195H1758.66C1760.1 26.0195 1761.35 26.1823 1762.41 26.5078C1763.48 26.8333 1764.37 27.3086 1765.07 27.9336C1765.77 28.5586 1766.3 29.3333 1766.65 30.2578C1767.02 31.1693 1767.2 32.2174 1767.2 33.4023C1767.2 34.6654 1766.98 35.7982 1766.55 36.8008C1766.12 37.7904 1765.53 38.6302 1764.76 39.3203C1763.99 40.0104 1763.08 40.5378 1762.02 40.9023C1760.98 41.2539 1759.83 41.4297 1758.57 41.4297C1757.56 41.4297 1756.57 41.2669 1755.58 40.9414C1754.6 40.6029 1753.71 40.0951 1752.9 39.418C1752.1 38.7279 1751.44 37.862 1750.95 36.8203C1750.47 35.7786 1750.23 34.5417 1750.23 33.1094H1751.75C1751.75 34.4375 1752.04 35.6224 1752.61 36.6641C1753.18 37.6927 1753.98 38.5065 1755.01 39.1055C1756.04 39.6914 1757.23 39.9844 1758.57 39.9844C1760.09 39.9844 1761.38 39.724 1762.43 39.2031C1763.49 38.6693 1764.3 37.9141 1764.86 36.9375C1765.42 35.9609 1765.7 34.8086 1765.7 33.4805C1765.7 32.3607 1765.54 31.4102 1765.23 30.6289C1764.93 29.8346 1764.47 29.1836 1763.86 28.6758C1763.26 28.168 1762.52 27.7969 1761.63 27.5625C1760.76 27.3151 1759.74 27.1914 1758.59 27.1914H1755.64V26.0195ZM1779.75 13.7539L1771.27 41H1769.69L1778.75 12.5625H1779.92L1779.75 13.7539ZM1787.74 41L1779.28 13.7539L1779.12 12.5625H1780.28L1789.32 41H1787.74ZM1785.76 31.293V32.6992H1773.34V31.293H1785.76ZM1808.33 32.25H1809.86C1809.7 34.4766 1809.25 36.2604 1808.51 37.6016C1807.77 38.9427 1806.77 39.9193 1805.52 40.5312C1804.28 41.1302 1802.82 41.4297 1801.13 41.4297C1799.78 41.4297 1798.57 41.1693 1797.49 40.6484C1796.43 40.1276 1795.51 39.3724 1794.74 38.3828C1793.98 37.3932 1793.4 36.1888 1793 34.7695C1792.6 33.3372 1792.4 31.7161 1792.4 29.9062V23.3438C1792.4 21.5859 1792.6 20.0169 1793 18.6367C1793.4 17.2435 1793.99 16.0716 1794.76 15.1211C1795.53 14.1576 1796.45 13.4284 1797.53 12.9336C1798.63 12.4258 1799.86 12.1719 1801.22 12.1719C1802.88 12.1719 1804.32 12.4714 1805.56 13.0703C1806.8 13.6693 1807.78 14.6393 1808.51 15.9805C1809.25 17.3086 1809.7 19.0859 1809.86 21.3125H1808.33C1808.19 19.4115 1807.83 17.901 1807.26 16.7812C1806.69 15.6484 1805.9 14.8346 1804.9 14.3398C1803.89 13.832 1802.67 13.5781 1801.22 13.5781C1800.08 13.5781 1799.06 13.793 1798.16 14.2227C1797.26 14.6523 1796.49 15.2839 1795.85 16.1172C1795.23 16.9375 1794.75 17.9531 1794.41 19.1641C1794.08 20.362 1793.92 21.7422 1793.92 23.3047V29.9062C1793.92 31.4948 1794.08 32.9141 1794.41 34.1641C1794.73 35.4141 1795.2 36.4753 1795.81 37.3477C1796.44 38.2201 1797.19 38.8841 1798.08 39.3398C1798.98 39.7826 1799.99 40.0039 1801.13 40.0039C1802.58 40.0039 1803.81 39.776 1804.82 39.3203C1805.83 38.8646 1806.63 38.0768 1807.22 36.957C1807.82 35.8242 1808.19 34.2552 1808.33 32.25ZM1832.7 23.3633V30.2188C1832.7 32.0026 1832.49 33.5911 1832.07 34.9844C1831.66 36.3776 1831.06 37.5495 1830.28 38.5C1829.5 39.4505 1828.54 40.1797 1827.43 40.6875C1826.32 41.1823 1825.06 41.4297 1823.66 41.4297C1822.26 41.4297 1821.01 41.1823 1819.89 40.6875C1818.77 40.1797 1817.81 39.4505 1817.01 38.5C1816.23 37.5495 1815.63 36.3776 1815.2 34.9844C1814.77 33.5911 1814.55 32.0026 1814.55 30.2188V23.3633C1814.55 21.5664 1814.76 19.9779 1815.18 18.5977C1815.61 17.2044 1816.21 16.0326 1817 15.082C1817.79 14.1315 1818.74 13.4089 1819.85 12.9141C1820.97 12.4193 1822.22 12.1719 1823.6 12.1719C1825.02 12.1719 1826.29 12.4193 1827.41 12.9141C1828.53 13.4089 1829.48 14.1315 1830.26 15.082C1831.05 16.0326 1831.66 17.2044 1832.07 18.5977C1832.49 19.9779 1832.7 21.5664 1832.7 23.3633ZM1831.19 30.2188V23.3242C1831.19 21.7747 1831.03 20.401 1830.69 19.2031C1830.36 17.9922 1829.88 16.9766 1829.24 16.1562C1828.6 15.3229 1827.81 14.6914 1826.86 14.2617C1825.92 13.832 1824.83 13.6172 1823.6 13.6172C1822.4 13.6172 1821.33 13.832 1820.39 14.2617C1819.46 14.6914 1818.66 15.3229 1818.01 16.1562C1817.37 16.9766 1816.88 17.9922 1816.55 19.2031C1816.22 20.401 1816.06 21.7747 1816.06 23.3242V30.2188C1816.06 31.7812 1816.23 33.168 1816.57 34.3789C1816.9 35.5768 1817.4 36.5924 1818.05 37.4258C1818.7 38.2591 1819.5 38.8906 1820.43 39.3203C1821.37 39.75 1822.44 39.9648 1823.66 39.9648C1824.88 39.9648 1825.96 39.75 1826.9 39.3203C1827.84 38.8906 1828.62 38.2591 1829.26 37.4258C1829.9 36.5924 1830.38 35.5768 1830.71 34.3789C1831.03 33.168 1831.19 31.7812 1831.19 30.2188ZM1852.77 12.5625V13.9688H1839.9V41H1838.37V12.5625H1852.77ZM1839.21 25.3359H1845.93C1847.66 25.3359 1849.11 25.668 1850.27 26.332C1851.43 26.9961 1852.3 27.9141 1852.9 29.0859C1853.5 30.2578 1853.8 31.6185 1853.8 33.168C1853.8 34.3138 1853.63 35.3685 1853.29 36.332C1852.96 37.2826 1852.45 38.1094 1851.79 38.8125C1851.13 39.5026 1850.31 40.043 1849.33 40.4336C1848.35 40.8112 1847.22 41 1845.93 41H1838.39V12.5625H1839.92V39.5742H1845.93C1847.44 39.5742 1848.66 39.2812 1849.58 38.6953C1850.52 38.0964 1851.2 37.3086 1851.63 36.332C1852.06 35.3424 1852.28 34.2747 1852.28 33.1289C1852.28 32.0091 1852.06 30.9674 1851.63 30.0039C1851.2 29.0404 1850.52 28.2656 1849.58 27.6797C1848.66 27.0807 1847.44 26.7812 1845.93 26.7812H1839.21V25.3359ZM1877.33 23.3633V30.2188C1877.33 32.0026 1877.12 33.5911 1876.7 34.9844C1876.29 36.3776 1875.69 37.5495 1874.91 38.5C1874.12 39.4505 1873.17 40.1797 1872.05 40.6875C1870.95 41.1823 1869.69 41.4297 1868.29 41.4297C1866.89 41.4297 1865.64 41.1823 1864.52 40.6875C1863.4 40.1797 1862.44 39.4505 1861.64 38.5C1860.86 37.5495 1860.26 36.3776 1859.83 34.9844C1859.4 33.5911 1859.18 32.0026 1859.18 30.2188V23.3633C1859.18 21.5664 1859.39 19.9779 1859.81 18.5977C1860.24 17.2044 1860.84 16.0326 1861.62 15.082C1862.42 14.1315 1863.37 13.4089 1864.48 12.9141C1865.6 12.4193 1866.85 12.1719 1868.23 12.1719C1869.65 12.1719 1870.92 12.4193 1872.04 12.9141C1873.15 13.4089 1874.11 14.1315 1874.89 15.082C1875.68 16.0326 1876.29 17.2044 1876.7 18.5977C1877.12 19.9779 1877.33 21.5664 1877.33 23.3633ZM1875.82 30.2188V23.3242C1875.82 21.7747 1875.65 20.401 1875.32 19.2031C1874.99 17.9922 1874.51 16.9766 1873.87 16.1562C1873.23 15.3229 1872.44 14.6914 1871.49 14.2617C1870.55 13.832 1869.46 13.6172 1868.23 13.6172C1867.03 13.6172 1865.96 13.832 1865.02 14.2617C1864.09 14.6914 1863.29 15.3229 1862.64 16.1562C1862 16.9766 1861.51 17.9922 1861.18 19.2031C1860.85 20.401 1860.69 21.7747 1860.69 23.3242V30.2188C1860.69 31.7812 1860.86 33.168 1861.2 34.3789C1861.53 35.5768 1862.03 36.5924 1862.68 37.4258C1863.33 38.2591 1864.12 38.8906 1865.06 39.3203C1866 39.75 1867.07 39.9648 1868.29 39.9648C1869.51 39.9648 1870.59 39.75 1871.53 39.3203C1872.46 38.8906 1873.25 38.2591 1873.89 37.4258C1874.53 36.5924 1875.01 35.5768 1875.34 34.3789C1875.66 33.168 1875.82 31.7812 1875.82 30.2188ZM1883.65 12.5625H1885.17L1894.53 38.6172L1903.88 12.5625H1905.39L1895.11 41H1893.96L1883.65 12.5625ZM1883.16 12.5625H1884.53L1884.66 27.7578V41H1883.16V12.5625ZM1904.55 12.5625H1905.95V41H1904.45V27.7578L1904.55 12.5625Z" fill="#00ACDB"/>
</g>
<defs>
<filter id="filter0_b_273_1114" x="-100" y="-100" width="2120" height="255" filterUnits="userSpaceOnUse" color-interpolation-filters="sRGB">
<feFlood flood-opacity="0" result="BackgroundImageFix"/>
<feGaussianBlur in="BackgroundImageFix" stdDeviation="50"/>
<feComposite in2="SourceAlpha" operator="in" result="effect1_backgroundBlur_273_1114"/>
<feBlend mode="normal" in="SourceGraphic" in2="effect1_backgroundBlur_273_1114" result="shape"/>
</filter>
<linearGradient id="paint0_linear_273_1114" x1="1964" y1="15.4687" x2="1896.89" y2="365.333" gradientUnits="userSpaceOnUse">
<stop stop-color="#006BB6"/>
<stop offset="0.395713" stop-color="#004E9E"/>
<stop offset="0.724" stop-color="#094086"/>
<stop offset="1" stop-color="#092E67"/>
</linearGradient>
</defs>
</svg>
