<svg preserveAspectRatio="none" width="360" height="32" viewBox="0 0 360 32" fill="none" xmlns="http://www.w3.org/2000/svg">
<g filter="url(#filter0_b_17_7095)">
<rect width="361" height="32" fill="url(#paint0_linear_17_7095)" fill-opacity="0.1"/>
<path d="M12.0075 13.501V14H5.29462V13.501H12.0075ZM5.43134 13.501V16.3994H4.90497L4.91864 13.501H5.43134ZM12.445 13.501L12.4587 16.3926H11.9186V13.501H12.445ZM11.2624 4.04688V4.53906H7.37274V4.04688H11.2624ZM11.6589 4.04688V14H11.1257V4.04688H11.6589ZM7.18134 4.04688H7.69403L7.57098 7.37598C7.53908 8.04134 7.47984 8.66113 7.39325 9.23535C7.31122 9.80957 7.21096 10.3359 7.09247 10.8145C6.97854 11.2884 6.85093 11.7145 6.70966 12.0928C6.56838 12.4665 6.42255 12.7878 6.27216 13.0566C6.12632 13.3255 5.98277 13.5397 5.84149 13.6992C5.70022 13.8587 5.56805 13.959 5.44501 14H5.04169V13.501H5.41083C5.50653 13.3962 5.63186 13.207 5.7868 12.9336C5.94631 12.6602 6.11265 12.2819 6.28583 11.7988C6.46356 11.3158 6.62079 10.7119 6.75751 9.9873C6.89423 9.25814 6.98765 8.3877 7.03778 7.37598L7.18134 4.04688ZM14.807 4.04688V14H14.2806V4.04688H14.807ZM21.1679 8.70898V9.20117H17.4492V8.70898H21.1679ZM22.665 10.9375H23.1914C23.1367 11.6348 22.9795 12.2227 22.7197 12.7012C22.4645 13.1751 22.1181 13.5329 21.6806 13.7744C21.2477 14.016 20.735 14.1367 20.1425 14.1367C19.6731 14.1367 19.247 14.0319 18.8642 13.8223C18.486 13.6081 18.1601 13.3073 17.8867 12.9199C17.6133 12.528 17.4036 12.0632 17.2578 11.5254C17.1119 10.9831 17.039 10.3838 17.039 9.72754V8.31934C17.039 7.66309 17.1119 7.06608 17.2578 6.52832C17.4036 5.986 17.6133 5.52116 17.8867 5.13379C18.1601 4.74186 18.4883 4.44108 18.8711 4.23145C19.2584 4.01725 19.6914 3.91016 20.1699 3.91016C20.7532 3.91016 21.2614 4.03092 21.6943 4.27246C22.1272 4.514 22.4713 4.87174 22.7265 5.3457C22.9817 5.81966 23.1367 6.40755 23.1914 7.10938H22.6582C22.608 6.5306 22.4804 6.04069 22.2754 5.63965C22.0748 5.23405 21.7991 4.92643 21.4482 4.7168C21.1019 4.50716 20.6758 4.40234 20.1699 4.40234C19.7688 4.40234 19.4088 4.49577 19.0898 4.68262C18.7708 4.86491 18.4974 5.12923 18.2695 5.47559C18.0416 5.82194 17.8662 6.23438 17.7431 6.71289C17.6246 7.18685 17.5654 7.71777 17.5654 8.30566V9.72754C17.5654 10.1924 17.6041 10.6253 17.6816 11.0264C17.7591 11.4274 17.8685 11.7897 18.0097 12.1133C18.1556 12.4323 18.3333 12.7057 18.5429 12.9336C18.7526 13.1615 18.9918 13.3369 19.2607 13.46C19.5296 13.5785 19.8235 13.6377 20.1425 13.6377C20.6484 13.6377 21.0791 13.542 21.4345 13.3506C21.79 13.1546 22.0703 12.8584 22.2754 12.4619C22.4804 12.0609 22.6103 11.5527 22.665 10.9375ZM27.8981 4.04688V14H27.3785V4.04688H27.8981ZM30.8649 4.04688V4.53906H24.4117V4.04688H30.8649ZM32.9397 13.0566L38.0325 4.04688H38.552V14H38.0325V4.96973L32.9397 14H32.4133V4.04688H32.9397V13.0566ZM40.6815 4.04688H41.1942V6.56934C41.1942 7.18457 41.2808 7.68132 41.454 8.05957C41.6317 8.43327 41.8869 8.70671 42.2196 8.87988C42.5569 9.0485 42.9738 9.13281 43.4706 9.13281C43.6802 9.13281 43.8899 9.1237 44.0995 9.10547C44.3137 9.08268 44.5256 9.05078 44.7352 9.00977C44.9449 8.96875 45.1522 8.91862 45.3573 8.85938C45.5624 8.79557 45.7675 8.72721 45.9725 8.6543V9.16016C45.7811 9.22852 45.5852 9.29004 45.3847 9.34473C45.1887 9.39941 44.9859 9.44954 44.7763 9.49512C44.5712 9.54069 44.3593 9.57715 44.1405 9.60449C43.9218 9.62728 43.6985 9.63867 43.4706 9.63867C42.8736 9.63867 42.3677 9.53841 41.953 9.33789C41.5383 9.13737 41.2216 8.81152 41.0028 8.36035C40.7886 7.90918 40.6815 7.31217 40.6815 6.56934V4.04688ZM45.7675 4.04688H46.2802V14H45.7675V4.04688ZM54.3638 8.62695V9.12598H48.9976V8.62695H54.3638ZM49.1616 4.04688V14H48.6421V4.04688H49.1616ZM54.7534 4.04688V14H54.2271V4.04688H54.7534ZM59.8293 4.46387L56.8625 14H56.3088L59.4806 4.04688H59.8908L59.8293 4.46387ZM62.6252 14L59.6652 4.46387L59.6105 4.04688H60.0138L63.1789 14H62.6252ZM61.9347 10.6025V11.0947H57.5871V10.6025H61.9347ZM74.0483 13.501V14H67.3354V13.501H74.0483ZM67.4721 13.501V16.3994H66.9458L66.9594 13.501H67.4721ZM74.4858 13.501L74.4995 16.3926H73.9594V13.501H74.4858ZM73.3032 4.04688V4.53906H69.4135V4.04688H73.3032ZM73.6997 4.04688V14H73.1665V4.04688H73.6997ZM69.2221 4.04688H69.7348L69.6118 7.37598C69.5799 8.04134 69.5206 8.66113 69.434 9.23535C69.352 9.80957 69.2517 10.3359 69.1333 10.8145C69.0193 11.2884 68.8917 11.7145 68.7504 12.0928C68.6092 12.4665 68.4633 12.7878 68.3129 13.0566C68.1671 13.3255 68.0236 13.5397 67.8823 13.6992C67.741 13.8587 67.6088 13.959 67.4858 14H67.0825V13.501H67.4516C67.5473 13.3962 67.6726 13.207 67.8276 12.9336C67.9871 12.6602 68.1534 12.2819 68.3266 11.7988C68.5043 11.3158 68.6616 10.7119 68.7983 9.9873C68.935 9.25814 69.0284 8.3877 69.0786 7.37598L69.2221 4.04688ZM82.0089 7.82715V10.2266C82.0089 10.8509 81.936 11.4069 81.7901 11.8945C81.6443 12.3822 81.4347 12.7923 81.1612 13.125C80.8878 13.4577 80.5551 13.7129 80.1632 13.8906C79.7758 14.0638 79.336 14.1504 78.8438 14.1504C78.3562 14.1504 77.9164 14.0638 77.5245 13.8906C77.1326 13.7129 76.7976 13.4577 76.5196 13.125C76.2462 12.7923 76.0343 12.3822 75.8839 11.8945C75.7335 11.4069 75.6583 10.8509 75.6583 10.2266V7.82715C75.6583 7.19824 75.7312 6.64225 75.877 6.15918C76.0274 5.67155 76.2393 5.26139 76.5128 4.92871C76.7908 4.59603 77.1235 4.3431 77.5108 4.16992C77.9028 3.99674 78.3403 3.91016 78.8233 3.91016C79.3201 3.91016 79.7644 3.99674 80.1563 4.16992C80.5483 4.3431 80.8809 4.59603 81.1544 4.92871C81.4324 5.26139 81.6443 5.67155 81.7901 6.15918C81.936 6.64225 82.0089 7.19824 82.0089 7.82715ZM81.4825 10.2266V7.81348C81.4825 7.27116 81.4233 6.79036 81.3048 6.37109C81.1908 5.94727 81.0222 5.5918 80.7989 5.30469C80.5756 5.01302 80.2976 4.79199 79.9649 4.6416C79.6368 4.49121 79.2563 4.41602 78.8233 4.41602C78.4041 4.41602 78.0304 4.49121 77.7022 4.6416C77.3741 4.79199 77.0961 5.01302 76.8682 5.30469C76.6449 5.5918 76.474 5.94727 76.3556 6.37109C76.2416 6.79036 76.1847 7.27116 76.1847 7.81348V10.2266C76.1847 10.7734 76.2439 11.2588 76.3624 11.6826C76.4809 12.1019 76.6541 12.4574 76.8819 12.749C77.1098 13.0407 77.3878 13.2617 77.7159 13.4121C78.044 13.5625 78.42 13.6377 78.8438 13.6377C79.2722 13.6377 79.6505 13.5625 79.9786 13.4121C80.3067 13.2617 80.5824 13.0407 80.8057 12.749C81.0291 12.4574 81.1977 12.1019 81.3116 11.6826C81.4255 11.2588 81.4825 10.7734 81.4825 10.2266ZM89.0329 4.04688V4.53906H84.5281V14H83.9949V4.04688H89.0329ZM84.2888 8.51758H86.6404C87.2465 8.51758 87.7523 8.63379 88.1579 8.86621C88.5635 9.09863 88.8712 9.41992 89.0808 9.83008C89.2904 10.2402 89.3952 10.7165 89.3952 11.2588C89.3952 11.6598 89.336 12.029 89.2175 12.3662C89.099 12.6989 88.9236 12.9883 88.6911 13.2344C88.4587 13.4759 88.1716 13.665 87.8298 13.8018C87.488 13.9339 87.0915 14 86.6404 14H84.0017V4.04688H84.5349V13.501H86.6404C87.169 13.501 87.5951 13.3984 87.9187 13.1934C88.2468 12.9837 88.4861 12.708 88.6365 12.3662C88.7868 12.0199 88.862 11.6462 88.862 11.2451C88.862 10.8532 88.7868 10.4886 88.6365 10.1514C88.4861 9.81413 88.2468 9.54297 87.9187 9.33789C87.5951 9.12826 87.169 9.02344 86.6404 9.02344H84.2888V8.51758ZM94.184 4.46387L91.2172 14H90.6634L93.8353 4.04688H94.2455L94.184 4.46387ZM96.9799 14L94.0199 4.46387L93.9652 4.04688H94.3685L97.5336 14H96.9799ZM96.2894 10.6025V11.0947H91.9418V10.6025H96.2894ZM101.81 9.12598H99.3281L99.3145 8.64062H101.406C101.867 8.64062 102.254 8.56543 102.568 8.41504C102.887 8.26465 103.129 8.03678 103.293 7.73145C103.457 7.42611 103.539 7.04785 103.539 6.59668C103.539 6.14095 103.455 5.76042 103.286 5.45508C103.122 5.14974 102.874 4.92188 102.541 4.77148C102.213 4.61654 101.803 4.53906 101.311 4.53906H99.4785V14H98.959V4.04688H101.311C101.734 4.04688 102.115 4.09928 102.452 4.2041C102.794 4.30436 103.083 4.45931 103.32 4.66895C103.562 4.87402 103.744 5.13835 103.867 5.46191C103.995 5.78548 104.059 6.17057 104.059 6.61719C104.059 7.02734 103.988 7.39648 103.847 7.72461C103.705 8.05273 103.5 8.32161 103.231 8.53125C102.967 8.73633 102.648 8.86165 102.274 8.90723L101.81 9.12598ZM101.755 14H99.2051L99.4443 13.501H101.755C102.197 13.501 102.575 13.4121 102.89 13.2344C103.209 13.0521 103.452 12.7923 103.621 12.4551C103.79 12.1178 103.874 11.7145 103.874 11.2451C103.874 10.8669 103.799 10.5182 103.648 10.1992C103.498 9.87565 103.27 9.61589 102.965 9.41992C102.66 9.22396 102.274 9.12598 101.81 9.12598H100.381L100.395 8.64062H102.438L102.521 8.81152C102.885 8.86165 103.209 9.00065 103.491 9.22852C103.778 9.45638 104.002 9.74577 104.161 10.0967C104.325 10.443 104.407 10.8213 104.407 11.2314C104.407 11.8285 104.293 12.3343 104.065 12.749C103.842 13.1592 103.532 13.4714 103.136 13.6855C102.739 13.8952 102.279 14 101.755 14ZM106.824 4.04688V14H106.291V4.04688H106.824ZM112.129 4.04688L108.355 9.21484H106.612L106.598 8.71582H108.061L111.459 4.04688H112.129ZM111.718 14L107.993 9.15332L108.3 8.68848L112.388 14H111.718ZM116.541 4.46387L113.575 14H113.021L116.193 4.04688H116.603L116.541 4.46387ZM119.337 14L116.377 4.46387L116.323 4.04688H116.726L119.891 14H119.337ZM118.647 10.6025V11.0947H114.299V10.6025H118.647ZM121.077 13.6035C121.077 13.4805 121.118 13.3757 121.2 13.2891C121.282 13.1979 121.394 13.1523 121.535 13.1523C121.676 13.1523 121.79 13.1979 121.877 13.2891C121.968 13.3757 122.014 13.4805 122.014 13.6035C122.014 13.7266 121.968 13.8314 121.877 13.918C121.79 14.0046 121.676 14.0479 121.535 14.0479C121.394 14.0479 121.282 14.0046 121.2 13.918C121.118 13.8314 121.077 13.7266 121.077 13.6035ZM133.047 8.62695V9.12598H127.681V8.62695H133.047ZM127.845 4.04688V14H127.325V4.04688H127.845ZM133.437 4.04688V14H132.91V4.04688H133.437ZM140.967 13.501V14H136.113V13.501H140.967ZM136.318 4.04688V14H135.799V4.04688H136.318ZM140.386 8.62695V9.12598H136.113V8.62695H140.386ZM140.953 4.04688V4.53906H136.113V4.04688H140.953ZM150.961 10.9375H151.494C151.44 11.7168 151.282 12.3411 151.023 12.8105C150.763 13.2799 150.414 13.6217 149.977 13.8359C149.544 14.0456 149.031 14.1504 148.439 14.1504C147.969 14.1504 147.545 14.0592 147.167 13.877C146.793 13.6947 146.472 13.4303 146.203 13.084C145.939 12.7376 145.736 12.3161 145.595 11.8193C145.454 11.318 145.383 10.7507 145.383 10.1172V7.82031C145.383 7.20508 145.454 6.65592 145.595 6.17285C145.736 5.68522 145.941 5.27507 146.21 4.94238C146.479 4.60514 146.803 4.34993 147.181 4.17676C147.564 3.99902 147.994 3.91016 148.473 3.91016C149.052 3.91016 149.557 4.01497 149.99 4.22461C150.423 4.43424 150.767 4.77376 151.023 5.24316C151.282 5.70801 151.44 6.33008 151.494 7.10938H150.961C150.911 6.44401 150.786 5.91536 150.585 5.52344C150.385 5.12695 150.109 4.84212 149.758 4.66895C149.407 4.49121 148.979 4.40234 148.473 4.40234C148.072 4.40234 147.714 4.47754 147.4 4.62793C147.085 4.77832 146.816 4.99935 146.593 5.29102C146.374 5.57812 146.206 5.93359 146.087 6.35742C145.973 6.77669 145.916 7.25977 145.916 7.80664V10.1172C145.916 10.6732 145.973 11.1699 146.087 11.6074C146.201 12.0449 146.365 12.4163 146.579 12.7217C146.798 13.027 147.062 13.2594 147.372 13.4189C147.687 13.5739 148.042 13.6514 148.439 13.6514C148.949 13.6514 149.38 13.5716 149.731 13.4121C150.086 13.2526 150.366 12.9769 150.571 12.585C150.781 12.1885 150.911 11.6393 150.961 10.9375ZM159.14 4.04688V4.53906H154.888V4.04688H159.14ZM159.523 4.04688V14H158.997V4.04688H159.523ZM154.697 4.04688H155.223L154.991 8.47656C154.95 9.26953 154.9 9.97135 154.841 10.582C154.781 11.1882 154.702 11.7077 154.601 12.1406C154.506 12.5736 154.378 12.9268 154.219 13.2002C154.064 13.4736 153.868 13.6764 153.631 13.8086C153.398 13.9362 153.116 14 152.783 14H152.557V13.501H152.769C153.002 13.501 153.202 13.4531 153.371 13.3574C153.544 13.2572 153.69 13.0977 153.808 12.8789C153.931 12.6556 154.034 12.3525 154.116 11.9697C154.198 11.5824 154.269 11.0993 154.328 10.5205C154.387 9.94173 154.435 9.24674 154.471 8.43555L154.697 4.04688ZM162.569 4.04688V14H162.042V4.04688H162.569ZM171.712 13.501V14H164.999V13.501H171.712ZM165.136 13.501V16.3994H164.609L164.623 13.501H165.136ZM172.149 13.501L172.163 16.3926H171.623V13.501H172.149ZM170.967 4.04688V4.53906H167.077V4.04688H170.967ZM171.363 4.04688V14H170.83V4.04688H171.363ZM166.886 4.04688H167.398L167.275 7.37598C167.244 8.04134 167.184 8.66113 167.098 9.23535C167.016 9.80957 166.915 10.3359 166.797 10.8145C166.683 11.2884 166.555 11.7145 166.414 12.0928C166.273 12.4665 166.127 12.7878 165.977 13.0566C165.831 13.3255 165.687 13.5397 165.546 13.6992C165.405 13.8587 165.273 13.959 165.149 14H164.746V13.501H165.115C165.211 13.3962 165.336 13.207 165.491 12.9336C165.651 12.6602 165.817 12.2819 165.99 11.7988C166.168 11.3158 166.325 10.7119 166.462 9.9873C166.599 9.25814 166.692 8.3877 166.742 7.37598L166.886 4.04688ZM179.642 9.12598H177.16L177.147 8.64062H179.239C179.699 8.64062 180.086 8.56543 180.401 8.41504C180.72 8.26465 180.961 8.03678 181.125 7.73145C181.289 7.42611 181.371 7.04785 181.371 6.59668C181.371 6.14095 181.287 5.76042 181.118 5.45508C180.954 5.14974 180.706 4.92188 180.373 4.77148C180.045 4.61654 179.635 4.53906 179.143 4.53906H177.311V14H176.791V4.04688H179.143C179.567 4.04688 179.947 4.09928 180.285 4.2041C180.626 4.30436 180.916 4.45931 181.153 4.66895C181.394 4.87402 181.576 5.13835 181.7 5.46191C181.827 5.78548 181.891 6.17057 181.891 6.61719C181.891 7.02734 181.82 7.39648 181.679 7.72461C181.538 8.05273 181.333 8.32161 181.064 8.53125C180.799 8.73633 180.48 8.86165 180.107 8.90723L179.642 9.12598ZM179.587 14H177.037L177.277 13.501H179.587C180.029 13.501 180.408 13.4121 180.722 13.2344C181.041 13.0521 181.285 12.7923 181.453 12.4551C181.622 12.1178 181.706 11.7145 181.706 11.2451C181.706 10.8669 181.631 10.5182 181.481 10.1992C181.33 9.87565 181.103 9.61589 180.797 9.41992C180.492 9.22396 180.107 9.12598 179.642 9.12598H178.213L178.227 8.64062H180.271L180.353 8.81152C180.717 8.86165 181.041 9.00065 181.324 9.22852C181.611 9.45638 181.834 9.74577 181.993 10.0967C182.158 10.443 182.24 10.8213 182.24 11.2314C182.24 11.8285 182.126 12.3343 181.898 12.749C181.674 13.1592 181.365 13.4714 180.968 13.6855C180.572 13.8952 180.111 14 179.587 14ZM184.649 13.0566L189.742 4.04688H190.262V14H189.742V4.96973L184.649 14H184.123V4.04688H184.649V13.0566ZM193.171 4.04688V14H192.637V4.04688H193.171ZM198.475 4.04688L194.702 9.21484H192.959L192.945 8.71582H194.408L197.805 4.04688H198.475ZM198.065 14L194.339 9.15332L194.647 8.68848L198.735 14H198.065ZM206.115 7.82715V10.2266C206.115 10.8509 206.042 11.4069 205.896 11.8945C205.75 12.3822 205.54 12.7923 205.267 13.125C204.993 13.4577 204.661 13.7129 204.269 13.8906C203.881 14.0638 203.442 14.1504 202.949 14.1504C202.462 14.1504 202.022 14.0638 201.63 13.8906C201.238 13.7129 200.903 13.4577 200.625 13.125C200.352 12.7923 200.14 12.3822 199.99 11.8945C199.839 11.4069 199.764 10.8509 199.764 10.2266V7.82715C199.764 7.19824 199.837 6.64225 199.983 6.15918C200.133 5.67155 200.345 5.26139 200.618 4.92871C200.896 4.59603 201.229 4.3431 201.616 4.16992C202.008 3.99674 202.446 3.91016 202.929 3.91016C203.426 3.91016 203.87 3.99674 204.262 4.16992C204.654 4.3431 204.987 4.59603 205.26 4.92871C205.538 5.26139 205.75 5.67155 205.896 6.15918C206.042 6.64225 206.115 7.19824 206.115 7.82715ZM205.588 10.2266V7.81348C205.588 7.27116 205.529 6.79036 205.41 6.37109C205.296 5.94727 205.128 5.5918 204.905 5.30469C204.681 5.01302 204.403 4.79199 204.071 4.6416C203.742 4.49121 203.362 4.41602 202.929 4.41602C202.51 4.41602 202.136 4.49121 201.808 4.6416C201.48 4.79199 201.202 5.01302 200.974 5.30469C200.751 5.5918 200.58 5.94727 200.461 6.37109C200.347 6.79036 200.29 7.27116 200.29 7.81348V10.2266C200.29 10.7734 200.35 11.2588 200.468 11.6826C200.587 12.1019 200.76 12.4574 200.988 12.749C201.215 13.0407 201.493 13.2617 201.822 13.4121C202.15 13.5625 202.526 13.6377 202.949 13.6377C203.378 13.6377 203.756 13.5625 204.084 13.4121C204.412 13.2617 204.688 13.0407 204.911 12.749C205.135 12.4574 205.303 12.1019 205.417 11.6826C205.531 11.2588 205.588 10.7734 205.588 10.2266ZM210.903 9.85742H208.435V9.35156H210.903C211.441 9.35156 211.874 9.24674 212.202 9.03711C212.535 8.82292 212.776 8.53809 212.927 8.18262C213.082 7.82259 213.159 7.42611 213.159 6.99316C213.159 6.54655 213.082 6.13867 212.927 5.76953C212.776 5.39583 212.535 5.09733 212.202 4.87402C211.874 4.65072 211.441 4.53906 210.903 4.53906H208.675V14H208.155V4.04688H210.903C211.509 4.04688 212.017 4.16992 212.428 4.41602C212.842 4.65755 213.155 4.99935 213.364 5.44141C213.578 5.87891 213.685 6.3916 213.685 6.97949C213.685 7.57194 213.581 8.08464 213.371 8.51758C213.161 8.95052 212.851 9.2832 212.441 9.51562C212.031 9.74349 211.518 9.85742 210.903 9.85742ZM216.013 13.0566L221.106 4.04688H221.626V14H221.106V4.96973L216.013 14H215.487V4.04688H216.013V13.0566ZM229.306 10.9375H229.839C229.784 11.7168 229.627 12.3411 229.367 12.8105C229.108 13.2799 228.759 13.6217 228.321 13.8359C227.889 14.0456 227.376 14.1504 226.783 14.1504C226.314 14.1504 225.89 14.0592 225.512 13.877C225.138 13.6947 224.817 13.4303 224.548 13.084C224.284 12.7376 224.081 12.3161 223.94 11.8193C223.798 11.318 223.728 10.7507 223.728 10.1172V7.82031C223.728 7.20508 223.798 6.65592 223.94 6.17285C224.081 5.68522 224.286 5.27507 224.555 4.94238C224.824 4.60514 225.147 4.34993 225.526 4.17676C225.908 3.99902 226.339 3.91016 226.818 3.91016C227.396 3.91016 227.902 4.01497 228.335 4.22461C228.768 4.43424 229.112 4.77376 229.367 5.24316C229.627 5.70801 229.784 6.33008 229.839 7.10938H229.306C229.256 6.44401 229.13 5.91536 228.93 5.52344C228.729 5.12695 228.454 4.84212 228.103 4.66895C227.752 4.49121 227.323 4.40234 226.818 4.40234C226.417 4.40234 226.059 4.47754 225.744 4.62793C225.43 4.77832 225.161 4.99935 224.938 5.29102C224.719 5.57812 224.55 5.93359 224.432 6.35742C224.318 6.77669 224.261 7.25977 224.261 7.80664V10.1172C224.261 10.6732 224.318 11.1699 224.432 11.6074C224.546 12.0449 224.71 12.4163 224.924 12.7217C225.143 13.027 225.407 13.2594 225.717 13.4189C226.031 13.5739 226.387 13.6514 226.783 13.6514C227.294 13.6514 227.724 13.5716 228.075 13.4121C228.431 13.2526 228.711 12.9769 228.916 12.585C229.126 12.1885 229.256 11.6393 229.306 10.9375ZM234.272 4.04688V14H233.753V4.04688H234.272ZM237.239 4.04688V4.53906H230.786V4.04688H237.239ZM244.625 7.82715V10.2266C244.625 10.8509 244.553 11.4069 244.407 11.8945C244.261 12.3822 244.051 12.7923 243.778 13.125C243.504 13.4577 243.172 13.7129 242.78 13.8906C242.392 14.0638 241.953 14.1504 241.46 14.1504C240.973 14.1504 240.533 14.0638 240.141 13.8906C239.749 13.7129 239.414 13.4577 239.136 13.125C238.863 12.7923 238.651 12.3822 238.5 11.8945C238.35 11.4069 238.275 10.8509 238.275 10.2266V7.82715C238.275 7.19824 238.348 6.64225 238.494 6.15918C238.644 5.67155 238.856 5.26139 239.129 4.92871C239.407 4.59603 239.74 4.3431 240.127 4.16992C240.519 3.99674 240.957 3.91016 241.44 3.91016C241.937 3.91016 242.381 3.99674 242.773 4.16992C243.165 4.3431 243.498 4.59603 243.771 4.92871C244.049 5.26139 244.261 5.67155 244.407 6.15918C244.553 6.64225 244.625 7.19824 244.625 7.82715ZM244.099 10.2266V7.81348C244.099 7.27116 244.04 6.79036 243.921 6.37109C243.807 5.94727 243.639 5.5918 243.415 5.30469C243.192 5.01302 242.914 4.79199 242.581 4.6416C242.253 4.49121 241.873 4.41602 241.44 4.41602C241.021 4.41602 240.647 4.49121 240.319 4.6416C239.991 4.79199 239.713 5.01302 239.485 5.30469C239.262 5.5918 239.091 5.94727 238.972 6.37109C238.858 6.79036 238.801 7.27116 238.801 7.81348V10.2266C238.801 10.7734 238.86 11.2588 238.979 11.6826C239.097 12.1019 239.271 12.4574 239.498 12.749C239.726 13.0407 240.004 13.2617 240.332 13.4121C240.661 13.5625 241.037 13.6377 241.46 13.6377C241.889 13.6377 242.267 13.5625 242.595 13.4121C242.923 13.2617 243.199 13.0407 243.422 12.749C243.646 12.4574 243.814 12.1019 243.928 11.6826C244.042 11.2588 244.099 10.7734 244.099 10.2266ZM249.517 9.12598H247.035L247.022 8.64062H249.113C249.574 8.64062 249.961 8.56543 250.275 8.41504C250.594 8.26465 250.836 8.03678 251 7.73145C251.164 7.42611 251.246 7.04785 251.246 6.59668C251.246 6.14095 251.162 5.76042 250.993 5.45508C250.829 5.14974 250.581 4.92188 250.248 4.77148C249.92 4.61654 249.51 4.53906 249.018 4.53906H247.186V14H246.666V4.04688H249.018C249.441 4.04688 249.822 4.09928 250.159 4.2041C250.501 4.30436 250.79 4.45931 251.027 4.66895C251.269 4.87402 251.451 5.13835 251.574 5.46191C251.702 5.78548 251.766 6.17057 251.766 6.61719C251.766 7.02734 251.695 7.39648 251.554 7.72461C251.413 8.05273 251.207 8.32161 250.939 8.53125C250.674 8.73633 250.355 8.86165 249.982 8.90723L249.517 9.12598ZM249.462 14H246.912L247.151 13.501H249.462C249.904 13.501 250.282 13.4121 250.597 13.2344C250.916 13.0521 251.16 12.7923 251.328 12.4551C251.497 12.1178 251.581 11.7145 251.581 11.2451C251.581 10.8669 251.506 10.5182 251.356 10.1992C251.205 9.87565 250.977 9.61589 250.672 9.41992C250.367 9.22396 249.982 9.12598 249.517 9.12598H248.088L248.102 8.64062H250.146L250.228 8.81152C250.592 8.86165 250.916 9.00065 251.198 9.22852C251.485 9.45638 251.709 9.74577 251.868 10.0967C252.032 10.443 252.114 10.8213 252.114 11.2314C252.114 11.8285 252 12.3343 251.773 12.749C251.549 13.1592 251.239 13.4714 250.843 13.6855C250.446 13.8952 249.986 14 249.462 14ZM256.664 10.6299L259.261 4.04688H259.89L256.554 12.2568C256.482 12.43 256.393 12.6237 256.288 12.8379C256.188 13.0521 256.06 13.2594 255.905 13.46C255.75 13.6605 255.559 13.8245 255.331 13.9521C255.103 14.0798 254.832 14.1436 254.517 14.1436C254.44 14.1436 254.344 14.1344 254.23 14.1162C254.121 14.1025 254.041 14.082 253.991 14.0547L254.059 13.583C254.114 13.6012 254.189 13.6172 254.285 13.6309C254.385 13.64 254.469 13.6445 254.538 13.6445C254.802 13.6445 255.025 13.5762 255.208 13.4395C255.39 13.2982 255.547 13.1136 255.679 12.8857C255.812 12.6579 255.928 12.4163 256.028 12.1611L256.664 10.6299ZM253.656 4.04688L256.712 10.8418L256.903 11.2998L256.438 11.4844L253.041 4.04688H253.656ZM264.289 9.12598H261.808L261.794 8.64062H263.886C264.346 8.64062 264.734 8.56543 265.048 8.41504C265.367 8.26465 265.609 8.03678 265.773 7.73145C265.937 7.42611 266.019 7.04785 266.019 6.59668C266.019 6.14095 265.935 5.76042 265.766 5.45508C265.602 5.14974 265.354 4.92188 265.021 4.77148C264.693 4.61654 264.283 4.53906 263.79 4.53906H261.958V14H261.439V4.04688H263.79C264.214 4.04688 264.595 4.09928 264.932 4.2041C265.274 4.30436 265.563 4.45931 265.8 4.66895C266.042 4.87402 266.224 5.13835 266.347 5.46191C266.475 5.78548 266.538 6.17057 266.538 6.61719C266.538 7.02734 266.468 7.39648 266.327 7.72461C266.185 8.05273 265.98 8.32161 265.711 8.53125C265.447 8.73633 265.128 8.86165 264.754 8.90723L264.289 9.12598ZM264.235 14H261.685L261.924 13.501H264.235C264.677 13.501 265.055 13.4121 265.37 13.2344C265.689 13.0521 265.932 12.7923 266.101 12.4551C266.27 12.1178 266.354 11.7145 266.354 11.2451C266.354 10.8669 266.279 10.5182 266.128 10.1992C265.978 9.87565 265.75 9.61589 265.445 9.41992C265.139 9.22396 264.754 9.12598 264.289 9.12598H262.861L262.874 8.64062H264.918L265 8.81152C265.365 8.86165 265.689 9.00065 265.971 9.22852C266.258 9.45638 266.481 9.74577 266.641 10.0967C266.805 10.443 266.887 10.8213 266.887 11.2314C266.887 11.8285 266.773 12.3343 266.545 12.749C266.322 13.1592 266.012 13.4714 265.616 13.6855C265.219 13.8952 264.759 14 264.235 14ZM271.354 4.46387L268.388 14H267.834L271.006 4.04688H271.416L271.354 4.46387ZM274.15 14L271.19 4.46387L271.136 4.04688H271.539L274.704 14H274.15ZM273.46 10.6025V11.0947H269.112V10.6025H273.46ZM277.921 4.04688V14H277.401V4.04688H277.921ZM280.887 4.04688V4.53906H274.434V4.04688H280.887ZM282.962 13.0566L288.055 4.04688H288.574V14H288.055V4.96973L282.962 14H282.436V4.04688H282.962V13.0566ZM298.706 9.82324H295.629L295.404 9.68652C294.843 9.486 294.415 9.1556 294.119 8.69531C293.822 8.23503 293.674 7.68132 293.674 7.03418C293.674 6.39616 293.786 5.85612 294.009 5.41406C294.237 4.96745 294.561 4.62793 294.98 4.39551C295.399 4.16309 295.898 4.04688 296.477 4.04688H298.993V14H298.466V4.53906H296.477C295.725 4.53906 295.158 4.76009 294.775 5.20215C294.392 5.63965 294.201 6.24577 294.201 7.02051C294.201 7.47168 294.278 7.87272 294.433 8.22363C294.593 8.56999 294.821 8.84115 295.117 9.03711C295.418 9.23307 295.78 9.33105 296.204 9.33105H298.712L298.706 9.82324ZM296.005 9.42676L293.941 14H293.36L295.479 9.42676H296.005ZM301.69 4.04688V14H301.156V4.04688H301.69ZM306.994 4.04688L303.221 9.21484H301.478L301.464 8.71582H302.927L306.324 4.04688H306.994ZM306.584 14L302.859 9.15332L303.166 8.68848L307.254 14H306.584ZM314.193 9.10547H313.133V8.66797H314.166C314.722 8.66797 315.173 8.58366 315.519 8.41504C315.865 8.24186 316.118 8.00033 316.278 7.69043C316.442 7.38053 316.524 7.01595 316.524 6.59668C316.524 6.17741 316.44 5.80371 316.271 5.47559C316.107 5.1429 315.849 4.88314 315.499 4.69629C315.152 4.50488 314.706 4.40918 314.159 4.40918C313.744 4.40918 313.363 4.50033 313.017 4.68262C312.675 4.86491 312.4 5.12467 312.19 5.46191C311.985 5.7946 311.882 6.19108 311.882 6.65137H311.363C311.363 6.22754 311.438 5.84701 311.588 5.50977C311.739 5.16797 311.944 4.87858 312.204 4.6416C312.463 4.40462 312.76 4.22461 313.092 4.10156C313.43 3.97396 313.785 3.91016 314.159 3.91016C314.601 3.91016 314.997 3.9694 315.348 4.08789C315.704 4.20182 316.007 4.37272 316.257 4.60059C316.513 4.82845 316.708 5.111 316.845 5.44824C316.982 5.78548 317.05 6.17513 317.05 6.61719C317.05 6.95898 316.986 7.28027 316.859 7.58105C316.731 7.88184 316.547 8.14616 316.305 8.37402C316.064 8.60189 315.765 8.7819 315.41 8.91406C315.054 9.04167 314.649 9.10547 314.193 9.10547ZM313.133 8.75684H314.193C314.694 8.75684 315.132 8.8138 315.505 8.92773C315.879 9.04167 316.189 9.20801 316.435 9.42676C316.681 9.64551 316.866 9.91667 316.989 10.2402C317.116 10.5592 317.18 10.9261 317.18 11.3408C317.18 11.7829 317.105 12.1794 316.955 12.5303C316.804 12.8766 316.595 13.1706 316.326 13.4121C316.057 13.6536 315.738 13.8382 315.369 13.9658C315.004 14.0889 314.601 14.1504 314.159 14.1504C313.808 14.1504 313.459 14.0934 313.113 13.9795C312.771 13.861 312.459 13.6833 312.176 13.4463C311.894 13.2048 311.666 12.9017 311.493 12.5371C311.324 12.1725 311.24 11.7396 311.24 11.2383H311.773C311.773 11.7031 311.873 12.1178 312.074 12.4824C312.274 12.8424 312.555 13.1273 312.915 13.3369C313.275 13.542 313.689 13.6445 314.159 13.6445C314.692 13.6445 315.143 13.5534 315.512 13.3711C315.881 13.1842 316.164 12.9199 316.36 12.5781C316.556 12.2363 316.654 11.833 316.654 11.3682C316.654 10.9762 316.599 10.6436 316.49 10.3701C316.385 10.0921 316.225 9.86426 316.011 9.68652C315.802 9.50879 315.542 9.37891 315.232 9.29688C314.927 9.21029 314.571 9.16699 314.166 9.16699H313.133V8.75684ZM321.572 4.46387L318.606 14H318.052L321.224 4.04688H321.634L321.572 4.46387ZM324.368 14L321.408 4.46387L321.354 4.04688H321.757L324.922 14H324.368ZM323.678 10.6025V11.0947H319.33V10.6025H323.678ZM326.518 4.04688H327.052L330.326 13.166L333.6 4.04688H334.127L330.531 14H330.128L326.518 4.04688ZM326.347 4.04688H326.826L326.874 9.36523V14H326.347V4.04688ZM333.833 4.04688H334.325V14H333.799V9.36523L333.833 4.04688ZM337.377 4.04688V14H336.851V4.04688H337.377ZM345.639 8.62695V9.12598H340.273V8.62695H345.639ZM340.437 4.04688V14H339.917V4.04688H340.437ZM346.028 4.04688V14H345.502V4.04688H346.028ZM351.159 10.6299L353.757 4.04688H354.385L351.049 12.2568C350.977 12.43 350.888 12.6237 350.783 12.8379C350.683 13.0521 350.555 13.2594 350.4 13.46C350.245 13.6605 350.054 13.8245 349.826 13.9521C349.598 14.0798 349.327 14.1436 349.012 14.1436C348.935 14.1436 348.839 14.1344 348.725 14.1162C348.616 14.1025 348.536 14.082 348.486 14.0547L348.554 13.583C348.609 13.6012 348.684 13.6172 348.78 13.6309C348.88 13.64 348.965 13.6445 349.033 13.6445C349.297 13.6445 349.521 13.5762 349.703 13.4395C349.885 13.2982 350.042 13.1136 350.174 12.8857C350.307 12.6579 350.423 12.4163 350.523 12.1611L351.159 10.6299ZM348.151 4.04688L351.207 10.8418L351.398 11.2998L350.933 11.4844L347.536 4.04688H348.151ZM31.2271 18.0469V28H30.6939V18.5391H25.649V28H25.1158V18.0469H31.2271ZM39.6184 21.8271V24.2266C39.6184 24.8509 39.5455 25.4069 39.3996 25.8945C39.2538 26.3822 39.0442 26.7923 38.7707 27.125C38.4973 27.4577 38.1646 27.7129 37.7727 27.8906C37.3853 28.0638 36.9455 28.1504 36.4534 28.1504C35.9657 28.1504 35.5259 28.0638 35.134 27.8906C34.7421 27.7129 34.4071 27.4577 34.1291 27.125C33.8557 26.7923 33.6438 26.3822 33.4934 25.8945C33.343 25.4069 33.2678 24.8509 33.2678 24.2266V21.8271C33.2678 21.1982 33.3407 20.6423 33.4866 20.1592C33.6369 19.6715 33.8489 19.2614 34.1223 18.9287C34.4003 18.596 34.733 18.3431 35.1203 18.1699C35.5123 17.9967 35.9498 17.9102 36.4328 17.9102C36.9296 17.9102 37.3739 17.9967 37.7659 18.1699C38.1578 18.3431 38.4905 18.596 38.7639 18.9287C39.0419 19.2614 39.2538 19.6715 39.3996 20.1592C39.5455 20.6423 39.6184 21.1982 39.6184 21.8271ZM39.092 24.2266V21.8135C39.092 21.2712 39.0328 20.7904 38.9143 20.3711C38.8004 19.9473 38.6317 19.5918 38.4084 19.3047C38.1851 19.013 37.9071 18.792 37.5744 18.6416C37.2463 18.4912 36.8658 18.416 36.4328 18.416C36.0136 18.416 35.6399 18.4912 35.3118 18.6416C34.9836 18.792 34.7056 19.013 34.4778 19.3047C34.2545 19.5918 34.0836 19.9473 33.9651 20.3711C33.8511 20.7904 33.7942 21.2712 33.7942 21.8135V24.2266C33.7942 24.7734 33.8534 25.2588 33.9719 25.6826C34.0904 26.1019 34.2636 26.4574 34.4914 26.749C34.7193 27.0407 34.9973 27.2617 35.3254 27.4121C35.6535 27.5625 36.0295 27.6377 36.4534 27.6377C36.8817 27.6377 37.26 27.5625 37.5881 27.4121C37.9162 27.2617 38.192 27.0407 38.4153 26.749C38.6386 26.4574 38.8072 26.1019 38.9211 25.6826C39.0351 25.2588 39.092 24.7734 39.092 24.2266ZM44.5096 23.126H42.0282L42.0145 22.6406H44.1063C44.5666 22.6406 44.954 22.5654 45.2684 22.415C45.5874 22.2646 45.829 22.0368 45.993 21.7314C46.1571 21.4261 46.2391 21.0479 46.2391 20.5967C46.2391 20.141 46.1548 19.7604 45.9862 19.4551C45.8221 19.1497 45.5738 18.9219 45.2411 18.7715C44.913 18.6165 44.5028 18.5391 44.0106 18.5391H42.1786V28H41.6591V18.0469H44.0106C44.4344 18.0469 44.815 18.0993 45.1522 18.2041C45.494 18.3044 45.7834 18.4593 46.0204 18.6689C46.2619 18.874 46.4442 19.1383 46.5673 19.4619C46.6949 19.7855 46.7587 20.1706 46.7587 20.6172C46.7587 21.0273 46.688 21.3965 46.5468 21.7246C46.4055 22.0527 46.2004 22.3216 45.9315 22.5312C45.6672 22.7363 45.3482 22.8617 44.9745 22.9072L44.5096 23.126ZM44.455 28H41.9052L42.1444 27.501H44.455C44.897 27.501 45.2753 27.4121 45.5897 27.2344C45.9087 27.0521 46.1525 26.7923 46.3212 26.4551C46.4898 26.1178 46.5741 25.7145 46.5741 25.2451C46.5741 24.8669 46.4989 24.5182 46.3485 24.1992C46.1981 23.8757 45.9703 23.6159 45.6649 23.4199C45.3596 23.224 44.9745 23.126 44.5096 23.126H43.0809L43.0946 22.6406H45.1385L45.2206 22.8115C45.5852 22.8617 45.9087 23.0007 46.1913 23.2285C46.4784 23.4564 46.7017 23.7458 46.8612 24.0967C47.0253 24.443 47.1073 24.8213 47.1073 25.2314C47.1073 25.8285 46.9934 26.3343 46.7655 26.749C46.5422 27.1592 46.2323 27.4714 45.8358 27.6855C45.4393 27.8952 44.979 28 44.455 28ZM54.7056 22.627V23.126H49.3394V22.627H54.7056ZM49.5034 18.0469V28H48.9839V18.0469H49.5034ZM55.0952 18.0469V28H54.5689V18.0469H55.0952ZM63.4933 21.8271V24.2266C63.4933 24.8509 63.4204 25.4069 63.2746 25.8945C63.1287 26.3822 62.9191 26.7923 62.6457 27.125C62.3722 27.4577 62.0395 27.7129 61.6476 27.8906C61.2602 28.0638 60.8205 28.1504 60.3283 28.1504C59.8406 28.1504 59.4009 28.0638 59.0089 27.8906C58.617 27.7129 58.282 27.4577 58.0041 27.125C57.7306 26.7923 57.5187 26.3822 57.3683 25.8945C57.2179 25.4069 57.1427 24.8509 57.1427 24.2266V21.8271C57.1427 21.1982 57.2156 20.6423 57.3615 20.1592C57.5119 19.6715 57.7238 19.2614 57.9972 18.9287C58.2752 18.596 58.6079 18.3431 58.9953 18.1699C59.3872 17.9967 59.8247 17.9102 60.3078 17.9102C60.8045 17.9102 61.2488 17.9967 61.6408 18.1699C62.0327 18.3431 62.3654 18.596 62.6388 18.9287C62.9168 19.2614 63.1287 19.6715 63.2746 20.1592C63.4204 20.6423 63.4933 21.1982 63.4933 21.8271ZM62.9669 24.2266V21.8135C62.9669 21.2712 62.9077 20.7904 62.7892 20.3711C62.6753 19.9473 62.5067 19.5918 62.2834 19.3047C62.06 19.013 61.782 18.792 61.4494 18.6416C61.1212 18.4912 60.7407 18.416 60.3078 18.416C59.8885 18.416 59.5148 18.4912 59.1867 18.6416C58.8585 18.792 58.5806 19.013 58.3527 19.3047C58.1294 19.5918 57.9585 19.9473 57.84 20.3711C57.7261 20.7904 57.6691 21.2712 57.6691 21.8135V24.2266C57.6691 24.7734 57.7283 25.2588 57.8468 25.6826C57.9653 26.1019 58.1385 26.4574 58.3664 26.749C58.5942 27.0407 58.8722 27.2617 59.2003 27.4121C59.5285 27.5625 59.9044 27.6377 60.3283 27.6377C60.7567 27.6377 61.1349 27.5625 61.463 27.4121C61.7912 27.2617 62.0669 27.0407 62.2902 26.749C62.5135 26.4574 62.6821 26.1019 62.796 25.6826C62.91 25.2588 62.9669 24.7734 62.9669 24.2266ZM72.2231 27.4941L72.1957 30.3994H71.7036V28H70.8764V27.4941H72.2231ZM65.3256 28V18.0469H65.8588V27.501H70.9037V18.0469H71.4301V28H65.3256ZM74.5782 18.0469V28H74.0518V18.0469H74.5782ZM82.8396 22.627V23.126H77.4734V22.627H82.8396ZM77.6374 18.0469V28H77.1179V18.0469H77.6374ZM83.2292 18.0469V28H82.7029V18.0469H83.2292ZM91.3129 22.627V23.126H85.9466V22.627H91.3129ZM86.1107 18.0469V28H85.5912V18.0469H86.1107ZM91.7025 18.0469V28H91.1761V18.0469H91.7025ZM100.101 21.8271V24.2266C100.101 24.8509 100.028 25.4069 99.8818 25.8945C99.736 26.3822 99.5264 26.7923 99.2529 27.125C98.9795 27.4577 98.6468 27.7129 98.2549 27.8906C97.8675 28.0638 97.4277 28.1504 96.9355 28.1504C96.4479 28.1504 96.0081 28.0638 95.6162 27.8906C95.2243 27.7129 94.8893 27.4577 94.6113 27.125C94.3379 26.7923 94.126 26.3822 93.9756 25.8945C93.8252 25.4069 93.75 24.8509 93.75 24.2266V21.8271C93.75 21.1982 93.8229 20.6423 93.9687 20.1592C94.1191 19.6715 94.331 19.2614 94.6045 18.9287C94.8825 18.596 95.2152 18.3431 95.6025 18.1699C95.9945 17.9967 96.432 17.9102 96.915 17.9102C97.4118 17.9102 97.8561 17.9967 98.248 18.1699C98.64 18.3431 98.9726 18.596 99.2461 18.9287C99.5241 19.2614 99.736 19.6715 99.8818 20.1592C100.028 20.6423 100.101 21.1982 100.101 21.8271ZM99.5742 24.2266V21.8135C99.5742 21.2712 99.515 20.7904 99.3965 20.3711C99.2825 19.9473 99.1139 19.5918 98.8906 19.3047C98.6673 19.013 98.3893 18.792 98.0566 18.6416C97.7285 18.4912 97.348 18.416 96.915 18.416C96.4958 18.416 96.1221 18.4912 95.7939 18.6416C95.4658 18.792 95.1878 19.013 94.96 19.3047C94.7366 19.5918 94.5657 19.9473 94.4473 20.3711C94.3333 20.7904 94.2764 21.2712 94.2764 21.8135V24.2266C94.2764 24.7734 94.3356 25.2588 94.4541 25.6826C94.5726 26.1019 94.7458 26.4574 94.9736 26.749C95.2015 27.0407 95.4795 27.2617 95.8076 27.4121C96.1357 27.5625 96.5117 27.6377 96.9355 27.6377C97.3639 27.6377 97.7422 27.5625 98.0703 27.4121C98.3984 27.2617 98.6741 27.0407 98.8975 26.749C99.1208 26.4574 99.2894 26.1019 99.4033 25.6826C99.5172 25.2588 99.5742 24.7734 99.5742 24.2266ZM107.152 18.0469V18.5391H102.647V28H102.114V18.0469H107.152ZM114.34 21.8271V24.2266C114.34 24.8509 114.267 25.4069 114.121 25.8945C113.976 26.3822 113.766 26.7923 113.492 27.125C113.219 27.4577 112.886 27.7129 112.494 27.8906C112.107 28.0638 111.667 28.1504 111.175 28.1504C110.687 28.1504 110.248 28.0638 109.856 27.8906C109.464 27.7129 109.129 27.4577 108.851 27.125C108.577 26.7923 108.366 26.3822 108.215 25.8945C108.065 25.4069 107.99 24.8509 107.99 24.2266V21.8271C107.99 21.1982 108.062 20.6423 108.208 20.1592C108.359 19.6715 108.571 19.2614 108.844 18.9287C109.122 18.596 109.455 18.3431 109.842 18.1699C110.234 17.9967 110.671 17.9102 111.155 17.9102C111.651 17.9102 112.096 17.9967 112.488 18.1699C112.879 18.3431 113.212 18.596 113.486 18.9287C113.764 19.2614 113.976 19.6715 114.121 20.1592C114.267 20.6423 114.34 21.1982 114.34 21.8271ZM113.814 24.2266V21.8135C113.814 21.2712 113.754 20.7904 113.636 20.3711C113.522 19.9473 113.353 19.5918 113.13 19.3047C112.907 19.013 112.629 18.792 112.296 18.6416C111.968 18.4912 111.588 18.416 111.155 18.416C110.735 18.416 110.362 18.4912 110.033 18.6416C109.705 18.792 109.427 19.013 109.199 19.3047C108.976 19.5918 108.805 19.9473 108.687 20.3711C108.573 20.7904 108.516 21.2712 108.516 21.8135V24.2266C108.516 24.7734 108.575 25.2588 108.694 25.6826C108.812 26.1019 108.985 26.4574 109.213 26.749C109.441 27.0407 109.719 27.2617 110.047 27.4121C110.375 27.5625 110.751 27.6377 111.175 27.6377C111.603 27.6377 111.982 27.5625 112.31 27.4121C112.638 27.2617 112.914 27.0407 113.137 26.749C113.36 26.4574 113.529 26.1019 113.643 25.6826C113.757 25.2588 113.814 24.7734 113.814 24.2266ZM122.12 23.8574H119.652V23.3516H122.12C122.657 23.3516 123.09 23.2467 123.419 23.0371C123.751 22.8229 123.993 22.5381 124.143 22.1826C124.298 21.8226 124.376 21.4261 124.376 20.9932C124.376 20.5465 124.298 20.1387 124.143 19.7695C123.993 19.3958 123.751 19.0973 123.419 18.874C123.09 18.6507 122.657 18.5391 122.12 18.5391H119.891V28H119.372V18.0469H122.12C122.726 18.0469 123.234 18.1699 123.644 18.416C124.059 18.6576 124.371 18.9993 124.581 19.4414C124.795 19.8789 124.902 20.3916 124.902 20.9795C124.902 21.5719 124.797 22.0846 124.587 22.5176C124.378 22.9505 124.068 23.2832 123.658 23.5156C123.248 23.7435 122.735 23.8574 122.12 23.8574ZM128.344 18.4639L125.377 28H124.823L127.995 18.0469H128.405L128.344 18.4639ZM131.14 28L128.18 18.4639L128.125 18.0469H128.529L131.694 28H131.14ZM130.449 24.6025V25.0947H126.102V24.6025H130.449ZM139.948 27.4941L139.921 30.3994H139.429V28H138.601V27.4941H139.948ZM133.051 28V18.0469H133.584V27.501H138.629V18.0469H139.155V28H133.051ZM142.303 18.0469V28H141.777V18.0469H142.303ZM150.879 21.8271V24.2266C150.879 24.8509 150.806 25.4069 150.66 25.8945C150.514 26.3822 150.305 26.7923 150.031 27.125C149.758 27.4577 149.425 27.7129 149.033 27.8906C148.646 28.0638 148.206 28.1504 147.714 28.1504C147.226 28.1504 146.787 28.0638 146.395 27.8906C146.003 27.7129 145.668 27.4577 145.39 27.125C145.116 26.7923 144.904 26.3822 144.754 25.8945C144.604 25.4069 144.528 24.8509 144.528 24.2266V21.8271C144.528 21.1982 144.601 20.6423 144.747 20.1592C144.898 19.6715 145.109 19.2614 145.383 18.9287C145.661 18.596 145.994 18.3431 146.381 18.1699C146.773 17.9967 147.21 17.9102 147.693 17.9102C148.19 17.9102 148.635 17.9967 149.026 18.1699C149.418 18.3431 149.751 18.596 150.025 18.9287C150.303 19.2614 150.514 19.6715 150.66 20.1592C150.806 20.6423 150.879 21.1982 150.879 21.8271ZM150.353 24.2266V21.8135C150.353 21.2712 150.293 20.7904 150.175 20.3711C150.061 19.9473 149.892 19.5918 149.669 19.3047C149.446 19.013 149.168 18.792 148.835 18.6416C148.507 18.4912 148.126 18.416 147.693 18.416C147.274 18.416 146.901 18.4912 146.572 18.6416C146.244 18.792 145.966 19.013 145.738 19.3047C145.515 19.5918 145.344 19.9473 145.226 20.3711C145.112 20.7904 145.055 21.2712 145.055 21.8135V24.2266C145.055 24.7734 145.114 25.2588 145.233 25.6826C145.351 26.1019 145.524 26.4574 145.752 26.749C145.98 27.0407 146.258 27.2617 146.586 27.4121C146.914 27.5625 147.29 27.6377 147.714 27.6377C148.142 27.6377 148.521 27.5625 148.849 27.4121C149.177 27.2617 149.453 27.0407 149.676 26.749C149.899 26.4574 150.068 26.1019 150.182 25.6826C150.296 25.2588 150.353 24.7734 150.353 24.2266ZM158.641 22.627V23.126H153.275V22.627H158.641ZM153.439 18.0469V28H152.92V18.0469H153.439ZM159.031 18.0469V28H158.505V18.0469H159.031ZM164.162 24.6299L166.759 18.0469H167.388L164.052 26.2568C163.979 26.43 163.89 26.6237 163.786 26.8379C163.685 27.0521 163.558 27.2594 163.403 27.46C163.248 27.6605 163.056 27.8245 162.829 27.9521C162.601 28.0798 162.329 28.1436 162.015 28.1436C161.938 28.1436 161.842 28.1344 161.728 28.1162C161.619 28.1025 161.539 28.082 161.489 28.0547L161.557 27.583C161.612 27.6012 161.687 27.6172 161.783 27.6309C161.883 27.64 161.967 27.6445 162.036 27.6445C162.3 27.6445 162.523 27.5762 162.705 27.4395C162.888 27.2982 163.045 27.1136 163.177 26.8857C163.309 26.6579 163.426 26.4163 163.526 26.1611L164.162 24.6299ZM161.154 18.0469L164.209 24.8418L164.401 25.2998L163.936 25.4844L160.538 18.0469H161.154ZM165.936 27.6035C165.936 27.4805 165.977 27.3757 166.059 27.2891C166.141 27.1979 166.252 27.1523 166.394 27.1523C166.535 27.1523 166.649 27.1979 166.735 27.2891C166.827 27.3757 166.872 27.4805 166.872 27.6035C166.872 27.7266 166.827 27.8314 166.735 27.918C166.649 28.0046 166.535 28.0479 166.394 28.0479C166.252 28.0479 166.141 28.0046 166.059 27.918C165.977 27.8314 165.936 27.7266 165.936 27.6035ZM177.906 22.627V23.126H172.539V22.627H177.906ZM172.703 18.0469V28H172.184V18.0469H172.703ZM178.295 18.0469V28H177.769V18.0469H178.295ZM185.825 27.501V28H180.972V27.501H185.825ZM181.177 18.0469V28H180.657V18.0469H181.177ZM185.244 22.627V23.126H180.972V22.627H185.244ZM185.811 18.0469V18.5391H180.972V18.0469H185.811ZM194.329 22.709V23.2012H190.611V22.709H194.329ZM195.826 24.9375H196.353C196.298 25.6348 196.141 26.2227 195.881 26.7012C195.626 27.1751 195.28 27.5329 194.842 27.7744C194.409 28.016 193.896 28.1367 193.304 28.1367C192.835 28.1367 192.408 28.0319 192.026 27.8223C191.647 27.6081 191.322 27.3073 191.048 26.9199C190.775 26.528 190.565 26.0632 190.419 25.5254C190.273 24.9831 190.2 24.3838 190.2 23.7275V22.3193C190.2 21.6631 190.273 21.0661 190.419 20.5283C190.565 19.986 190.775 19.5212 191.048 19.1338C191.322 18.7419 191.65 18.4411 192.032 18.2314C192.42 18.0173 192.853 17.9102 193.331 17.9102C193.915 17.9102 194.423 18.0309 194.856 18.2725C195.289 18.514 195.633 18.8717 195.888 19.3457C196.143 19.8197 196.298 20.4076 196.353 21.1094H195.82C195.769 20.5306 195.642 20.0407 195.437 19.6396C195.236 19.234 194.961 18.9264 194.61 18.7168C194.263 18.5072 193.837 18.4023 193.331 18.4023C192.93 18.4023 192.57 18.4958 192.251 18.6826C191.932 18.8649 191.659 19.1292 191.431 19.4756C191.203 19.8219 191.028 20.2344 190.905 20.7129C190.786 21.1868 190.727 21.7178 190.727 22.3057V23.7275C190.727 24.1924 190.766 24.6253 190.843 25.0264C190.92 25.4274 191.03 25.7897 191.171 26.1133C191.317 26.4323 191.495 26.7057 191.704 26.9336C191.914 27.1615 192.153 27.3369 192.422 27.46C192.691 27.5785 192.985 27.6377 193.304 27.6377C193.81 27.6377 194.24 27.542 194.596 27.3506C194.951 27.1546 195.232 26.8584 195.437 26.4619C195.642 26.0609 195.772 25.5527 195.826 24.9375ZM207.058 18.0469V18.5391H202.806V18.0469H207.058ZM207.441 18.0469V28H206.915V18.0469H207.441ZM202.615 18.0469H203.141L202.909 22.4766C202.868 23.2695 202.818 23.9714 202.758 24.582C202.699 25.1882 202.619 25.7077 202.519 26.1406C202.423 26.5736 202.296 26.9268 202.136 27.2002C201.981 27.4736 201.785 27.6764 201.548 27.8086C201.316 27.9362 201.033 28 200.701 28H200.475V27.501H200.687C200.919 27.501 201.12 27.4531 201.289 27.3574C201.462 27.2572 201.608 27.0977 201.726 26.8789C201.849 26.6556 201.952 26.3525 202.034 25.9697C202.116 25.5824 202.186 25.0993 202.246 24.5205C202.305 23.9417 202.353 23.2467 202.389 22.4355L202.615 18.0469ZM210.486 18.0469V28H209.96V18.0469H210.486ZM213.566 18.0469V28H213.033V18.0469H213.566ZM218.871 18.0469L215.097 23.2148H213.354L213.341 22.7158H214.804L218.201 18.0469H218.871ZM218.461 28L214.735 23.1533L215.043 22.6885L219.131 28H218.461ZM223.284 18.4639L220.317 28H219.763L222.935 18.0469H223.345L223.284 18.4639ZM226.08 28L223.12 18.4639L223.065 18.0469H223.468L226.633 28H226.08ZM225.389 24.6025V25.0947H221.041V24.6025H225.389ZM230.807 23.8574H228.339V23.3516H230.807C231.344 23.3516 231.777 23.2467 232.106 23.0371C232.438 22.8229 232.68 22.5381 232.83 22.1826C232.985 21.8226 233.063 21.4261 233.063 20.9932C233.063 20.5465 232.985 20.1387 232.83 19.7695C232.68 19.3958 232.438 19.0973 232.106 18.874C231.777 18.6507 231.344 18.5391 230.807 18.5391H228.578V28H228.059V18.0469H230.807C231.413 18.0469 231.921 18.1699 232.331 18.416C232.746 18.6576 233.058 18.9993 233.268 19.4414C233.482 19.8789 233.589 20.3916 233.589 20.9795C233.589 21.5719 233.484 22.0846 233.274 22.5176C233.065 22.9505 232.755 23.2832 232.345 23.5156C231.935 23.7435 231.422 23.8574 230.807 23.8574ZM240.695 24.9375H241.228C241.174 25.7168 241.016 26.3411 240.757 26.8105C240.497 27.2799 240.148 27.6217 239.711 27.8359C239.278 28.0456 238.765 28.1504 238.173 28.1504C237.703 28.1504 237.279 28.0592 236.901 27.877C236.527 27.6947 236.206 27.4303 235.937 27.084C235.673 26.7376 235.47 26.3161 235.329 25.8193C235.188 25.318 235.117 24.7507 235.117 24.1172V21.8203C235.117 21.2051 235.188 20.6559 235.329 20.1729C235.47 19.6852 235.675 19.2751 235.944 18.9424C236.213 18.6051 236.537 18.3499 236.915 18.1768C237.298 17.999 237.728 17.9102 238.207 17.9102C238.786 17.9102 239.291 18.015 239.724 18.2246C240.157 18.4342 240.501 18.7738 240.757 19.2432C241.016 19.708 241.174 20.3301 241.228 21.1094H240.695C240.645 20.444 240.52 19.9154 240.319 19.5234C240.119 19.127 239.843 18.8421 239.492 18.6689C239.141 18.4912 238.713 18.4023 238.207 18.4023C237.806 18.4023 237.448 18.4775 237.134 18.6279C236.819 18.7783 236.55 18.9993 236.327 19.291C236.108 19.5781 235.94 19.9336 235.821 20.3574C235.707 20.7767 235.65 21.2598 235.65 21.8066V24.1172C235.65 24.6732 235.707 25.1699 235.821 25.6074C235.935 26.0449 236.099 26.4163 236.313 26.7217C236.532 27.027 236.796 27.2594 237.106 27.4189C237.421 27.5739 237.776 27.6514 238.173 27.6514C238.683 27.6514 239.114 27.5716 239.465 27.4121C239.82 27.2526 240.1 26.9769 240.305 26.585C240.515 26.1885 240.645 25.6393 240.695 24.9375ZM243.426 22.5176H245.778C246.384 22.5176 246.89 22.6338 247.295 22.8662C247.701 23.0986 248.008 23.4199 248.218 23.8301C248.428 24.2402 248.533 24.7165 248.533 25.2588C248.533 25.6598 248.473 26.029 248.355 26.3662C248.236 26.6989 248.061 26.9883 247.828 27.2344C247.596 27.4759 247.309 27.665 246.967 27.8018C246.625 27.9339 246.229 28 245.778 28H243.139V18.0469H243.672V27.501H245.778C246.306 27.501 246.732 27.3984 247.056 27.1934C247.384 26.9837 247.623 26.708 247.774 26.3662C247.924 26.0199 247.999 25.6462 247.999 25.2451C247.999 24.8532 247.924 24.4886 247.774 24.1514C247.623 23.8141 247.384 23.543 247.056 23.3379C246.732 23.1283 246.306 23.0234 245.778 23.0234H243.426V22.5176ZM251.011 18.0469V28H250.478V18.0469H251.011ZM256.315 18.0469L252.542 23.2148H250.799L250.785 22.7158H252.248L255.646 18.0469H256.315ZM255.905 28L252.18 23.1533L252.487 22.6885L256.575 28H255.905ZM258.671 27.0566L263.763 18.0469H264.283V28H263.763V18.9697L258.671 28H258.144V18.0469H258.671V27.0566ZM266.823 18.0469H267.356L270.63 27.166L273.905 18.0469H274.431L270.835 28H270.432L266.823 18.0469ZM266.652 18.0469H267.13L267.178 23.3652V28H266.652V18.0469ZM274.137 18.0469H274.629V28H274.103V23.3652L274.137 18.0469ZM282.347 23.1055H281.288V22.668H282.32C282.876 22.668 283.327 22.5837 283.673 22.415C284.02 22.2419 284.273 22.0003 284.432 21.6904C284.596 21.3805 284.678 21.016 284.678 20.5967C284.678 20.1774 284.594 19.8037 284.425 19.4756C284.261 19.1429 284.004 18.8831 283.653 18.6963C283.307 18.5049 282.86 18.4092 282.313 18.4092C281.898 18.4092 281.518 18.5003 281.171 18.6826C280.83 18.8649 280.554 19.1247 280.344 19.4619C280.139 19.7946 280.037 20.1911 280.037 20.6514H279.517C279.517 20.2275 279.592 19.847 279.743 19.5098C279.893 19.168 280.098 18.8786 280.358 18.6416C280.618 18.4046 280.914 18.2246 281.247 18.1016C281.584 17.974 281.939 17.9102 282.313 17.9102C282.755 17.9102 283.152 17.9694 283.503 18.0879C283.858 18.2018 284.161 18.3727 284.412 18.6006C284.667 18.8285 284.863 19.111 285 19.4482C285.136 19.7855 285.205 20.1751 285.205 20.6172C285.205 20.959 285.141 21.2803 285.013 21.5811C284.886 21.8818 284.701 22.1462 284.46 22.374C284.218 22.6019 283.919 22.7819 283.564 22.9141C283.209 23.0417 282.803 23.1055 282.347 23.1055ZM281.288 22.7568H282.347C282.849 22.7568 283.286 22.8138 283.66 22.9277C284.033 23.0417 284.343 23.208 284.589 23.4268C284.836 23.6455 285.02 23.9167 285.143 24.2402C285.271 24.5592 285.335 24.9261 285.335 25.3408C285.335 25.7829 285.259 26.1794 285.109 26.5303C284.959 26.8766 284.749 27.1706 284.48 27.4121C284.211 27.6536 283.892 27.8382 283.523 27.9658C283.158 28.0889 282.755 28.1504 282.313 28.1504C281.962 28.1504 281.614 28.0934 281.267 27.9795C280.925 27.861 280.613 27.6833 280.331 27.4463C280.048 27.2048 279.82 26.9017 279.647 26.5371C279.478 26.1725 279.394 25.7396 279.394 25.2383H279.927C279.927 25.7031 280.028 26.1178 280.228 26.4824C280.429 26.8424 280.709 27.1273 281.069 27.3369C281.429 27.542 281.844 27.6445 282.313 27.6445C282.846 27.6445 283.297 27.5534 283.667 27.3711C284.036 27.1842 284.318 26.9199 284.514 26.5781C284.71 26.2363 284.808 25.833 284.808 25.3682C284.808 24.9762 284.753 24.6436 284.644 24.3701C284.539 24.0921 284.38 23.8643 284.166 23.6865C283.956 23.5088 283.696 23.3789 283.386 23.2969C283.081 23.2103 282.725 23.167 282.32 23.167H281.288V22.7568ZM289.727 18.4639L286.76 28H286.206L289.378 18.0469H289.788L289.727 18.4639ZM292.523 28L289.563 18.4639L289.508 18.0469H289.911L293.076 28H292.523ZM291.832 24.6025V25.0947H287.485V24.6025H291.832ZM299.731 24.9375H300.264C300.21 25.7168 300.053 26.3411 299.793 26.8105C299.533 27.2799 299.184 27.6217 298.747 27.8359C298.314 28.0456 297.801 28.1504 297.209 28.1504C296.739 28.1504 296.316 28.0592 295.937 27.877C295.564 27.6947 295.242 27.4303 294.973 27.084C294.709 26.7376 294.506 26.3161 294.365 25.8193C294.224 25.318 294.153 24.7507 294.153 24.1172V21.8203C294.153 21.2051 294.224 20.6559 294.365 20.1729C294.506 19.6852 294.711 19.2751 294.98 18.9424C295.249 18.6051 295.573 18.3499 295.951 18.1768C296.334 17.999 296.764 17.9102 297.243 17.9102C297.822 17.9102 298.328 18.015 298.761 18.2246C299.194 18.4342 299.538 18.7738 299.793 19.2432C300.053 19.708 300.21 20.3301 300.264 21.1094H299.731C299.681 20.444 299.556 19.9154 299.355 19.5234C299.155 19.127 298.879 18.8421 298.528 18.6689C298.177 18.4912 297.749 18.4023 297.243 18.4023C296.842 18.4023 296.484 18.4775 296.17 18.6279C295.855 18.7783 295.586 18.9993 295.363 19.291C295.144 19.5781 294.976 19.9336 294.857 20.3574C294.743 20.7767 294.686 21.2598 294.686 21.8066V24.1172C294.686 24.6732 294.743 25.1699 294.857 25.6074C294.971 26.0449 295.135 26.4163 295.349 26.7217C295.568 27.027 295.833 27.2594 296.142 27.4189C296.457 27.5739 296.812 27.6514 297.209 27.6514C297.719 27.6514 298.15 27.5716 298.501 27.4121C298.856 27.2526 299.137 26.9769 299.342 26.585C299.551 26.1885 299.681 25.6393 299.731 24.9375ZM308.259 21.8271V24.2266C308.259 24.8509 308.186 25.4069 308.04 25.8945C307.895 26.3822 307.685 26.7923 307.412 27.125C307.138 27.4577 306.805 27.7129 306.414 27.8906C306.026 28.0638 305.586 28.1504 305.094 28.1504C304.607 28.1504 304.167 28.0638 303.775 27.8906C303.383 27.7129 303.048 27.4577 302.77 27.125C302.497 26.7923 302.285 26.3822 302.134 25.8945C301.984 25.4069 301.909 24.8509 301.909 24.2266V21.8271C301.909 21.1982 301.982 20.6423 302.127 20.1592C302.278 19.6715 302.49 19.2614 302.763 18.9287C303.041 18.596 303.374 18.3431 303.761 18.1699C304.153 17.9967 304.591 17.9102 305.074 17.9102C305.57 17.9102 306.015 17.9967 306.407 18.1699C306.799 18.3431 307.131 18.596 307.405 18.9287C307.683 19.2614 307.895 19.6715 308.04 20.1592C308.186 20.6423 308.259 21.1982 308.259 21.8271ZM307.733 24.2266V21.8135C307.733 21.2712 307.674 20.7904 307.555 20.3711C307.441 19.9473 307.273 19.5918 307.049 19.3047C306.826 19.013 306.548 18.792 306.215 18.6416C305.887 18.4912 305.507 18.416 305.074 18.416C304.654 18.416 304.281 18.4912 303.953 18.6416C303.624 18.792 303.346 19.013 303.119 19.3047C302.895 19.5918 302.724 19.9473 302.606 20.3711C302.492 20.7904 302.435 21.2712 302.435 21.8135V24.2266C302.435 24.7734 302.494 25.2588 302.613 25.6826C302.731 26.1019 302.904 26.4574 303.132 26.749C303.36 27.0407 303.638 27.2617 303.966 27.4121C304.294 27.5625 304.67 27.6377 305.094 27.6377C305.523 27.6377 305.901 27.5625 306.229 27.4121C306.557 27.2617 306.833 27.0407 307.056 26.749C307.279 26.4574 307.448 26.1019 307.562 25.6826C307.676 25.2588 307.733 24.7734 307.733 24.2266ZM315.283 18.0469V18.5391H310.778V28H310.245V18.0469H315.283ZM310.539 22.5176H312.891C313.497 22.5176 314.003 22.6338 314.408 22.8662C314.814 23.0986 315.122 23.4199 315.331 23.8301C315.541 24.2402 315.646 24.7165 315.646 25.2588C315.646 25.6598 315.586 26.029 315.468 26.3662C315.349 26.6989 315.174 26.9883 314.942 27.2344C314.709 27.4759 314.422 27.665 314.08 27.8018C313.738 27.9339 313.342 28 312.891 28H310.252V18.0469H310.785V27.501H312.891C313.419 27.501 313.845 27.3984 314.169 27.1934C314.497 26.9837 314.736 26.708 314.887 26.3662C315.037 26.0199 315.112 25.6462 315.112 25.2451C315.112 24.8532 315.037 24.4886 314.887 24.1514C314.736 23.8141 314.497 23.543 314.169 23.3379C313.845 23.1283 313.419 23.0234 312.891 23.0234H310.539V22.5176ZM323.88 21.8271V24.2266C323.88 24.8509 323.807 25.4069 323.661 25.8945C323.515 26.3822 323.305 26.7923 323.032 27.125C322.759 27.4577 322.426 27.7129 322.034 27.8906C321.647 28.0638 321.207 28.1504 320.715 28.1504C320.227 28.1504 319.787 28.0638 319.395 27.8906C319.003 27.7129 318.668 27.4577 318.39 27.125C318.117 26.7923 317.905 26.3822 317.755 25.8945C317.604 25.4069 317.529 24.8509 317.529 24.2266V21.8271C317.529 21.1982 317.602 20.6423 317.748 20.1592C317.898 19.6715 318.11 19.2614 318.384 18.9287C318.662 18.596 318.994 18.3431 319.382 18.1699C319.774 17.9967 320.211 17.9102 320.694 17.9102C321.191 17.9102 321.635 17.9967 322.027 18.1699C322.419 18.3431 322.752 18.596 323.025 18.9287C323.303 19.2614 323.515 19.6715 323.661 20.1592C323.807 20.6423 323.88 21.1982 323.88 21.8271ZM323.353 24.2266V21.8135C323.353 21.2712 323.294 20.7904 323.176 20.3711C323.062 19.9473 322.893 19.5918 322.67 19.3047C322.446 19.013 322.168 18.792 321.836 18.6416C321.508 18.4912 321.127 18.416 320.694 18.416C320.275 18.416 319.901 18.4912 319.573 18.6416C319.245 18.792 318.967 19.013 318.739 19.3047C318.516 19.5918 318.345 19.9473 318.226 20.3711C318.112 20.7904 318.055 21.2712 318.055 21.8135V24.2266C318.055 24.7734 318.115 25.2588 318.233 25.6826C318.352 26.1019 318.525 26.4574 318.753 26.749C318.981 27.0407 319.259 27.2617 319.587 27.4121C319.915 27.5625 320.291 27.6377 320.715 27.6377C321.143 27.6377 321.521 27.5625 321.849 27.4121C322.177 27.2617 322.453 27.0407 322.677 26.749C322.9 26.4574 323.068 26.1019 323.182 25.6826C323.296 25.2588 323.353 24.7734 323.353 24.2266ZM326.091 18.0469H326.624L329.899 27.166L333.173 18.0469H333.7L330.104 28H329.701L326.091 18.0469ZM325.92 18.0469H326.399L326.447 23.3652V28H325.92V18.0469ZM333.406 18.0469H333.898V28H333.371V23.3652L333.406 18.0469Z" fill="#00ACDB"/>
</g>
<defs>
<filter id="filter0_b_17_7095" x="-75" y="-75" width="511" height="182" filterUnits="userSpaceOnUse" color-interpolation-filters="sRGB">
<feFlood flood-opacity="0" result="BackgroundImageFix"/>
<feGaussianBlur in="BackgroundImageFix" stdDeviation="37.5"/>
<feComposite in2="SourceAlpha" operator="in" result="effect1_backgroundBlur_17_7095"/>
<feBlend mode="normal" in="SourceGraphic" in2="effect1_backgroundBlur_17_7095" result="shape"/>
</filter>
<linearGradient id="paint0_linear_17_7095" x1="369.273" y1="9" x2="276.643" y2="165.067" gradientUnits="userSpaceOnUse">
<stop stop-color="#006BB6"/>
<stop offset="0.395713" stop-color="#004E9E"/>
<stop offset="0.724" stop-color="#094086"/>
<stop offset="1" stop-color="#092E67"/>
</linearGradient>
</defs>
</svg>
