<svg preserveAspectRatio="none" width="1440" height="40" viewBox="0 0 1440 40" fill="none" xmlns="http://www.w3.org/2000/svg">
<g filter="url(#filter0_b_273_1687)">
<rect width="1440" height="40" fill="url(#paint0_linear_273_1687)" fill-opacity="0.1"/>
<path d="M24.3791 29.1807V30.25H9.99432V29.1807H24.3791ZM10.2873 29.1807V35.3916H9.15936L9.18866 29.1807H10.2873ZM25.3166 29.1807L25.3459 35.377H24.1887V29.1807H25.3166ZM22.7824 8.92188V9.97656H14.4474V8.92188H22.7824ZM23.632 8.92188V30.25H22.4894V8.92188H23.632ZM14.0373 8.92188H15.1359L14.8723 16.0557C14.8039 17.4814 14.6769 18.8096 14.4914 20.04C14.3156 21.2705 14.1008 22.3984 13.8469 23.4238C13.6027 24.4395 13.3293 25.3525 13.0266 26.1631C12.7238 26.9639 12.4113 27.6523 12.0891 28.2285C11.7766 28.8047 11.4689 29.2637 11.1662 29.6055C10.8635 29.9473 10.5803 30.1621 10.3166 30.25H9.45233V29.1807H10.2433C10.4484 28.9561 10.717 28.5508 11.049 27.9648C11.3908 27.3789 11.7473 26.5684 12.1183 25.5332C12.4992 24.498 12.8361 23.2041 13.1291 21.6514C13.4221 20.0889 13.6223 18.2236 13.7297 16.0557L14.0373 8.92188ZM30.3779 8.92188V30.25H29.25V8.92188H30.3779ZM44.0086 18.9121V19.9668H36.0398V18.9121H44.0086ZM47.2166 23.6875H48.3445C48.2273 25.1816 47.8904 26.4414 47.3338 27.4668C46.7869 28.4824 46.0447 29.249 45.1072 29.7666C44.1795 30.2842 43.0808 30.543 41.8113 30.543C40.8055 30.543 39.8924 30.3184 39.0721 29.8691C38.2615 29.4102 37.5633 28.7656 36.9773 27.9355C36.3914 27.0957 35.9422 26.0996 35.6297 24.9473C35.3172 23.7852 35.1609 22.501 35.1609 21.0947V18.0771C35.1609 16.6709 35.3172 15.3916 35.6297 14.2393C35.9422 13.0771 36.3914 12.0811 36.9773 11.251C37.5633 10.4111 38.2664 9.7666 39.0867 9.31738C39.9168 8.8584 40.8445 8.62891 41.8699 8.62891C43.1199 8.62891 44.2088 8.8877 45.1365 9.40527C46.0642 9.92285 46.8016 10.6895 47.3484 11.7051C47.8953 12.7207 48.2273 13.9805 48.3445 15.4844H47.2019C47.0945 14.2441 46.8211 13.1943 46.3816 12.335C45.9519 11.4658 45.3611 10.8066 44.6092 10.3574C43.867 9.9082 42.9539 9.68359 41.8699 9.68359C41.0105 9.68359 40.2391 9.88379 39.5555 10.2842C38.8719 10.6748 38.2859 11.2412 37.7976 11.9834C37.3094 12.7256 36.9334 13.6094 36.6697 14.6348C36.4158 15.6504 36.2889 16.7881 36.2889 18.0479V21.0947C36.2889 22.0908 36.3719 23.0186 36.5379 23.8779C36.7039 24.7373 36.9383 25.5137 37.241 26.207C37.5535 26.8906 37.9344 27.4766 38.3836 27.9648C38.8328 28.4531 39.3455 28.8291 39.9217 29.0928C40.4978 29.3467 41.1277 29.4736 41.8113 29.4736C42.8953 29.4736 43.8182 29.2686 44.5799 28.8584C45.3416 28.4385 45.9422 27.8037 46.3816 26.9541C46.8211 26.0947 47.0994 25.0059 47.2166 23.6875ZM58.4303 8.92188V30.25H57.317V8.92188H58.4303ZM64.7877 8.92188V9.97656H50.9596V8.92188H64.7877ZM69.2338 28.2285L80.1469 8.92188H81.2601V30.25H80.1469V10.8994L69.2338 30.25H68.1059V8.92188H69.2338V28.2285ZM85.8234 8.92188H86.9221V14.3271C86.9221 15.6455 87.1076 16.71 87.4787 17.5205C87.8596 18.3213 88.4064 18.9072 89.1193 19.2783C89.842 19.6396 90.7355 19.8203 91.8 19.8203C92.2492 19.8203 92.6984 19.8008 93.1476 19.7617C93.6066 19.7129 94.0607 19.6445 94.5099 19.5566C94.9592 19.4688 95.4035 19.3613 95.843 19.2344C96.2824 19.0977 96.7219 18.9512 97.1613 18.7949V19.8789C96.7512 20.0254 96.3312 20.1572 95.9016 20.2744C95.4816 20.3916 95.0471 20.499 94.5978 20.5967C94.1584 20.6943 93.7043 20.7725 93.2355 20.8311C92.7668 20.8799 92.2883 20.9043 91.8 20.9043C90.5207 20.9043 89.4367 20.6895 88.548 20.2598C87.6594 19.8301 86.9807 19.1318 86.5119 18.165C86.0529 17.1982 85.8234 15.9189 85.8234 14.3271V8.92188ZM96.7219 8.92188H97.8205V30.25H96.7219V8.92188ZM115.143 18.7363V19.8057H103.644V18.7363H115.143ZM103.995 8.92188V30.25H102.882V8.92188H103.995ZM115.978 8.92188V30.25H114.85V8.92188H115.978ZM126.854 9.81543L120.497 30.25H119.31L126.107 8.92188H126.986L126.854 9.81543ZM132.845 30.25L126.503 9.81543L126.386 8.92188H127.25L134.032 30.25H132.845ZM131.366 22.9697V24.0244H122.05V22.9697H131.366ZM157.324 29.1807V30.25H142.939V29.1807H157.324ZM143.232 29.1807V35.3916H142.104L142.133 29.1807H143.232ZM158.261 29.1807L158.29 35.377H157.133V29.1807H158.261ZM155.727 8.92188V9.97656H147.392V8.92188H155.727ZM156.577 8.92188V30.25H155.434V8.92188H156.577ZM146.982 8.92188H148.08L147.817 16.0557C147.748 17.4814 147.621 18.8096 147.436 20.04C147.26 21.2705 147.045 22.3984 146.791 23.4238C146.547 24.4395 146.274 25.3525 145.971 26.1631C145.668 26.9639 145.356 27.6523 145.034 28.2285C144.721 28.8047 144.413 29.2637 144.111 29.6055C143.808 29.9473 143.525 30.1621 143.261 30.25H142.397V29.1807H143.188C143.393 28.9561 143.662 28.5508 143.994 27.9648C144.335 27.3789 144.692 26.5684 145.063 25.5332C145.444 24.498 145.781 23.2041 146.074 21.6514C146.367 20.0889 146.567 18.2236 146.674 16.0557L146.982 8.92188ZM174.382 17.0225V22.1641C174.382 23.502 174.226 24.6934 173.913 25.7383C173.601 26.7832 173.152 27.6621 172.566 28.375C171.98 29.0879 171.267 29.6348 170.427 30.0156C169.597 30.3867 168.654 30.5723 167.6 30.5723C166.555 30.5723 165.612 30.3867 164.773 30.0156C163.933 29.6348 163.215 29.0879 162.619 28.375C162.033 27.6621 161.579 26.7832 161.257 25.7383C160.935 24.6934 160.774 23.502 160.774 22.1641V17.0225C160.774 15.6748 160.93 14.4834 161.242 13.4482C161.565 12.4033 162.019 11.5244 162.605 10.8115C163.2 10.0986 163.913 9.55664 164.743 9.18555C165.583 8.81445 166.521 8.62891 167.556 8.62891C168.62 8.62891 169.572 8.81445 170.412 9.18555C171.252 9.55664 171.965 10.0986 172.551 10.8115C173.147 11.5244 173.601 12.4033 173.913 13.4482C174.226 14.4834 174.382 15.6748 174.382 17.0225ZM173.254 22.1641V16.9932C173.254 15.8311 173.127 14.8008 172.873 13.9023C172.629 12.9941 172.268 12.2324 171.789 11.6172C171.311 10.9922 170.715 10.5186 170.002 10.1963C169.299 9.87402 168.484 9.71289 167.556 9.71289C166.657 9.71289 165.857 9.87402 165.154 10.1963C164.45 10.5186 163.855 10.9922 163.366 11.6172C162.888 12.2324 162.522 12.9941 162.268 13.9023C162.024 14.8008 161.902 15.8311 161.902 16.9932V22.1641C161.902 23.3359 162.029 24.376 162.282 25.2842C162.536 26.1826 162.907 26.9443 163.396 27.5693C163.884 28.1943 164.48 28.668 165.183 28.9902C165.886 29.3125 166.692 29.4736 167.6 29.4736C168.518 29.4736 169.328 29.3125 170.031 28.9902C170.735 28.668 171.325 28.1943 171.804 27.5693C172.282 26.9443 172.644 26.1826 172.888 25.2842C173.132 24.376 173.254 23.3359 173.254 22.1641ZM189.434 8.92188V9.97656H179.78V30.25H178.638V8.92188H189.434ZM179.268 18.502H184.307C185.605 18.502 186.689 18.751 187.559 19.249C188.428 19.7471 189.087 20.4355 189.536 21.3145C189.985 22.1934 190.21 23.2139 190.21 24.376C190.21 25.2354 190.083 26.0264 189.829 26.749C189.575 27.4619 189.199 28.082 188.701 28.6094C188.203 29.127 187.588 29.5322 186.855 29.8252C186.123 30.1084 185.273 30.25 184.307 30.25H178.652V8.92188H179.795V29.1807H184.307C185.439 29.1807 186.353 28.9609 187.046 28.5215C187.749 28.0723 188.262 27.4814 188.584 26.749C188.906 26.0068 189.067 25.2061 189.067 24.3467C189.067 23.5068 188.906 22.7256 188.584 22.0029C188.262 21.2803 187.749 20.6992 187.046 20.2598C186.353 19.8105 185.439 19.5859 184.307 19.5859H179.268V18.502ZM200.471 9.81543L194.114 30.25H192.928L199.724 8.92188H200.603L200.471 9.81543ZM206.463 30.25L200.12 9.81543L200.003 8.92188H200.867L207.649 30.25H206.463ZM204.983 22.9697V24.0244H195.667V22.9697H204.983ZM216.812 19.8057H211.495L211.465 18.7656H215.948C216.934 18.7656 217.764 18.6045 218.438 18.2822C219.122 17.96 219.639 17.4717 219.991 16.8174C220.342 16.1631 220.518 15.3525 220.518 14.3857C220.518 13.4092 220.337 12.5938 219.976 11.9395C219.625 11.2852 219.092 10.7969 218.379 10.4746C217.676 10.1426 216.797 9.97656 215.743 9.97656H211.817V30.25H210.704V8.92188H215.743C216.651 8.92188 217.466 9.03418 218.189 9.25879C218.921 9.47363 219.542 9.80566 220.049 10.2549C220.567 10.6943 220.958 11.2607 221.221 11.9541C221.495 12.6475 221.631 13.4727 221.631 14.4297C221.631 15.3086 221.48 16.0996 221.177 16.8027C220.875 17.5059 220.435 18.082 219.859 18.5312C219.293 18.9707 218.609 19.2393 217.808 19.3369L216.812 19.8057ZM216.695 30.25H211.231L211.744 29.1807H216.695C217.642 29.1807 218.453 28.9902 219.127 28.6094C219.81 28.2188 220.333 27.6621 220.694 26.9395C221.055 26.2168 221.236 25.3525 221.236 24.3467C221.236 23.5361 221.075 22.7891 220.753 22.1055C220.43 21.4121 219.942 20.8555 219.288 20.4355C218.633 20.0156 217.808 19.8057 216.812 19.8057H213.751L213.78 18.7656H218.16L218.336 19.1318C219.117 19.2393 219.81 19.5371 220.416 20.0254C221.031 20.5137 221.509 21.1338 221.851 21.8857C222.203 22.6279 222.379 23.4385 222.379 24.3174C222.379 25.5967 222.134 26.6807 221.646 27.5693C221.168 28.4482 220.504 29.1172 219.654 29.5762C218.804 30.0254 217.818 30.25 216.695 30.25ZM227.557 8.92188V30.25H226.414V8.92188H227.557ZM238.924 8.92188L230.838 19.9961H227.103L227.074 18.9268H230.208L237.489 8.92188H238.924ZM238.045 30.25L230.062 19.8643L230.721 18.8682L239.481 30.25H238.045ZM248.38 9.81543L242.023 30.25H240.836L247.633 8.92188H248.512L248.38 9.81543ZM254.371 30.25L248.029 9.81543L247.911 8.92188H248.776L255.558 30.25H254.371ZM252.892 22.9697V24.0244H243.575V22.9697H252.892ZM258.1 29.4004C258.1 29.1367 258.187 28.9121 258.363 28.7266C258.539 28.5312 258.778 28.4336 259.081 28.4336C259.384 28.4336 259.628 28.5312 259.813 28.7266C260.009 28.9121 260.106 29.1367 260.106 29.4004C260.106 29.6641 260.009 29.8887 259.813 30.0742C259.628 30.2598 259.384 30.3525 259.081 30.3525C258.778 30.3525 258.539 30.2598 258.363 30.0742C258.187 29.8887 258.1 29.6641 258.1 29.4004ZM283.75 18.7363V19.8057H272.251V18.7363H283.75ZM272.602 8.92188V30.25H271.489V8.92188H272.602ZM284.585 8.92188V30.25H283.457V8.92188H284.585ZM300.72 29.1807V30.25H290.32V29.1807H300.72ZM290.759 8.92188V30.25H289.646V8.92188H290.759ZM299.475 18.7363V19.8057H290.32V18.7363H299.475ZM300.691 8.92188V9.97656H290.32V8.92188H300.691ZM322.137 23.6875H323.279C323.162 25.3574 322.825 26.6953 322.269 27.7012C321.712 28.707 320.965 29.4395 320.027 29.8984C319.1 30.3477 318.001 30.5723 316.731 30.5723C315.726 30.5723 314.817 30.377 314.007 29.9863C313.206 29.5957 312.518 29.0293 311.941 28.2871C311.375 27.5449 310.94 26.6416 310.638 25.5771C310.335 24.5029 310.184 23.2871 310.184 21.9297V17.0078C310.184 15.6895 310.335 14.5127 310.638 13.4775C310.94 12.4326 311.38 11.5537 311.956 10.8408C312.532 10.1182 313.226 9.57129 314.036 9.2002C314.856 8.81934 315.779 8.62891 316.805 8.62891C318.045 8.62891 319.129 8.85352 320.057 9.30273C320.984 9.75195 321.722 10.4795 322.269 11.4854C322.825 12.4814 323.162 13.8145 323.279 15.4844H322.137C322.029 14.0586 321.761 12.9258 321.331 12.0859C320.901 11.2363 320.311 10.626 319.559 10.2549C318.807 9.87402 317.889 9.68359 316.805 9.68359C315.945 9.68359 315.179 9.84473 314.505 10.167C313.831 10.4893 313.255 10.9629 312.776 11.5879C312.308 12.2031 311.946 12.9648 311.692 13.873C311.448 14.7715 311.326 15.8066 311.326 16.9785V21.9297C311.326 23.1211 311.448 24.1855 311.692 25.123C311.937 26.0605 312.288 26.8564 312.747 27.5107C313.216 28.165 313.782 28.6631 314.446 29.0049C315.12 29.3369 315.882 29.5029 316.731 29.5029C317.825 29.5029 318.748 29.332 319.5 28.9902C320.262 28.6484 320.862 28.0576 321.302 27.2178C321.751 26.3682 322.029 25.1914 322.137 23.6875ZM339.664 8.92188V9.97656H330.553V8.92188H339.664ZM340.484 8.92188V30.25H339.356V8.92188H340.484ZM330.142 8.92188H331.27L330.772 18.4141C330.684 20.1133 330.577 21.6172 330.45 22.9258C330.323 24.2246 330.152 25.3379 329.937 26.2656C329.732 27.1934 329.459 27.9502 329.117 28.5361C328.785 29.1221 328.365 29.5566 327.857 29.8398C327.359 30.1133 326.754 30.25 326.041 30.25H325.557V29.1807H326.012C326.51 29.1807 326.939 29.0781 327.301 28.873C327.672 28.6582 327.984 28.3164 328.238 27.8477C328.502 27.3691 328.721 26.7197 328.897 25.8994C329.073 25.0693 329.224 24.0342 329.351 22.7939C329.478 21.5537 329.581 20.0645 329.659 18.3262L330.142 8.92188ZM347.01 8.92188V30.25H345.882V8.92188H347.01ZM366.603 29.1807V30.25H352.218V29.1807H366.603ZM352.511 29.1807V35.3916H351.383L351.412 29.1807H352.511ZM367.54 29.1807L367.57 35.377H366.412V29.1807H367.54ZM365.006 8.92188V9.97656H356.671V8.92188H365.006ZM365.856 8.92188V30.25H364.713V8.92188H365.856ZM356.261 8.92188H357.36L357.096 16.0557C357.028 17.4814 356.901 18.8096 356.715 20.04C356.539 21.2705 356.325 22.3984 356.071 23.4238C355.827 24.4395 355.553 25.3525 355.25 26.1631C354.948 26.9639 354.635 27.6523 354.313 28.2285C354 28.8047 353.693 29.2637 353.39 29.6055C353.087 29.9473 352.804 30.1621 352.54 30.25H351.676V29.1807H352.467C352.672 28.9561 352.941 28.5508 353.273 27.9648C353.615 27.3789 353.971 26.5684 354.342 25.5332C354.723 24.498 355.06 23.2041 355.353 21.6514C355.646 20.0889 355.846 18.2236 355.953 16.0557L356.261 8.92188ZM383.596 19.8057H378.278L378.249 18.7656H382.731C383.718 18.7656 384.548 18.6045 385.222 18.2822C385.905 17.96 386.423 17.4717 386.774 16.8174C387.126 16.1631 387.302 15.3525 387.302 14.3857C387.302 13.4092 387.121 12.5938 386.76 11.9395C386.408 11.2852 385.876 10.7969 385.163 10.4746C384.46 10.1426 383.581 9.97656 382.526 9.97656H378.601V30.25H377.487V8.92188H382.526C383.435 8.92188 384.25 9.03418 384.973 9.25879C385.705 9.47363 386.325 9.80566 386.833 10.2549C387.351 10.6943 387.741 11.2607 388.005 11.9541C388.278 12.6475 388.415 13.4727 388.415 14.4297C388.415 15.3086 388.264 16.0996 387.961 16.8027C387.658 17.5059 387.219 18.082 386.643 18.5312C386.076 18.9707 385.393 19.2393 384.592 19.3369L383.596 19.8057ZM383.479 30.25H378.015L378.527 29.1807H383.479C384.426 29.1807 385.236 28.9902 385.91 28.6094C386.594 28.2188 387.116 27.6621 387.478 26.9395C387.839 26.2168 388.02 25.3525 388.02 24.3467C388.02 23.5361 387.858 22.7891 387.536 22.1055C387.214 21.4121 386.726 20.8555 386.071 20.4355C385.417 20.0156 384.592 19.8057 383.596 19.8057H380.534L380.563 18.7656H384.943L385.119 19.1318C385.9 19.2393 386.594 19.5371 387.199 20.0254C387.814 20.5137 388.293 21.1338 388.635 21.8857C388.986 22.6279 389.162 23.4385 389.162 24.3174C389.162 25.5967 388.918 26.6807 388.43 27.5693C387.951 28.4482 387.287 29.1172 386.438 29.5762C385.588 30.0254 384.602 30.25 383.479 30.25ZM394.326 28.2285L405.239 8.92188H406.352V30.25H405.239V10.8994L394.326 30.25H393.198V8.92188H394.326V28.2285ZM412.586 8.92188V30.25H411.443V8.92188H412.586ZM423.953 8.92188L415.867 19.9961H412.131L412.102 18.9268H415.237L422.517 8.92188H423.953ZM423.074 30.25L415.09 19.8643L415.75 18.8682L424.509 30.25H423.074ZM440.323 17.0225V22.1641C440.323 23.502 440.166 24.6934 439.854 25.7383C439.541 26.7832 439.092 27.6621 438.506 28.375C437.92 29.0879 437.207 29.6348 436.368 30.0156C435.537 30.3867 434.595 30.5723 433.54 30.5723C432.495 30.5723 431.553 30.3867 430.713 30.0156C429.873 29.6348 429.156 29.0879 428.56 28.375C427.974 27.6621 427.52 26.7832 427.198 25.7383C426.875 24.6934 426.714 23.502 426.714 22.1641V17.0225C426.714 15.6748 426.87 14.4834 427.183 13.4482C427.505 12.4033 427.959 11.5244 428.545 10.8115C429.141 10.0986 429.854 9.55664 430.684 9.18555C431.524 8.81445 432.461 8.62891 433.496 8.62891C434.561 8.62891 435.513 8.81445 436.353 9.18555C437.193 9.55664 437.906 10.0986 438.492 10.8115C439.087 11.5244 439.541 12.4033 439.854 13.4482C440.166 14.4834 440.323 15.6748 440.323 17.0225ZM439.195 22.1641V16.9932C439.195 15.8311 439.068 14.8008 438.814 13.9023C438.57 12.9941 438.208 12.2324 437.73 11.6172C437.251 10.9922 436.656 10.5186 435.943 10.1963C435.24 9.87402 434.424 9.71289 433.496 9.71289C432.598 9.71289 431.797 9.87402 431.094 10.1963C430.391 10.5186 429.795 10.9922 429.307 11.6172C428.828 12.2324 428.462 12.9941 428.208 13.9023C427.964 14.8008 427.842 15.8311 427.842 16.9932V22.1641C427.842 23.3359 427.969 24.376 428.223 25.2842C428.477 26.1826 428.848 26.9443 429.336 27.5693C429.825 28.1943 430.42 28.668 431.123 28.9902C431.827 29.3125 432.632 29.4736 433.54 29.4736C434.458 29.4736 435.269 29.3125 435.972 28.9902C436.675 28.668 437.266 28.1943 437.745 27.5693C438.223 26.9443 438.584 26.1826 438.828 25.2842C439.073 24.376 439.195 23.3359 439.195 22.1641ZM450.584 21.373H445.296V20.2891H450.584C451.737 20.2891 452.664 20.0645 453.367 19.6152C454.08 19.1562 454.598 18.5459 454.92 17.7842C455.252 17.0127 455.418 16.1631 455.418 15.2354C455.418 14.2783 455.252 13.4043 454.92 12.6133C454.598 11.8125 454.08 11.1729 453.367 10.6943C452.664 10.2158 451.737 9.97656 450.584 9.97656H445.809V30.25H444.695V8.92188H450.584C451.883 8.92188 452.972 9.18555 453.851 9.71289C454.739 10.2305 455.408 10.9629 455.858 11.9102C456.317 12.8477 456.546 13.9463 456.546 15.2061C456.546 16.4756 456.321 17.5742 455.872 18.502C455.423 19.4297 454.759 20.1426 453.88 20.6406C453.001 21.1289 451.903 21.373 450.584 21.373ZM461.534 28.2285L472.447 8.92188H473.561V30.25H472.447V10.8994L461.534 30.25H460.406V8.92188H461.534V28.2285ZM490.018 23.6875H491.161C491.044 25.3574 490.707 26.6953 490.15 27.7012C489.594 28.707 488.846 29.4395 487.909 29.8984C486.981 30.3477 485.883 30.5723 484.613 30.5723C483.607 30.5723 482.699 30.377 481.888 29.9863C481.088 29.5957 480.399 29.0293 479.823 28.2871C479.257 27.5449 478.822 26.6416 478.519 25.5771C478.217 24.5029 478.065 23.2871 478.065 21.9297V17.0078C478.065 15.6895 478.217 14.5127 478.519 13.4775C478.822 12.4326 479.262 11.5537 479.838 10.8408C480.414 10.1182 481.107 9.57129 481.918 9.2002C482.738 8.81934 483.661 8.62891 484.686 8.62891C485.927 8.62891 487.011 8.85352 487.938 9.30273C488.866 9.75195 489.603 10.4795 490.15 11.4854C490.707 12.4814 491.044 13.8145 491.161 15.4844H490.018C489.911 14.0586 489.642 12.9258 489.213 12.0859C488.783 11.2363 488.192 10.626 487.44 10.2549C486.688 9.87402 485.77 9.68359 484.686 9.68359C483.827 9.68359 483.06 9.84473 482.387 10.167C481.713 10.4893 481.137 10.9629 480.658 11.5879C480.189 12.2031 479.828 12.9648 479.574 13.873C479.33 14.7715 479.208 15.8066 479.208 16.9785V21.9297C479.208 23.1211 479.33 24.1855 479.574 25.123C479.818 26.0605 480.17 26.8564 480.629 27.5107C481.097 28.165 481.664 28.6631 482.328 29.0049C483.002 29.3369 483.763 29.5029 484.613 29.5029C485.707 29.5029 486.63 29.332 487.382 28.9902C488.143 28.6484 488.744 28.0576 489.183 27.2178C489.633 26.3682 489.911 25.1914 490.018 23.6875ZM500.661 8.92188V30.25H499.547V8.92188H500.661ZM507.018 8.92188V9.97656H493.19V8.92188H507.018ZM522.846 17.0225V22.1641C522.846 23.502 522.69 24.6934 522.377 25.7383C522.065 26.7832 521.616 27.6621 521.03 28.375C520.444 29.0879 519.731 29.6348 518.891 30.0156C518.061 30.3867 517.119 30.5723 516.064 30.5723C515.019 30.5723 514.077 30.3867 513.237 30.0156C512.397 29.6348 511.679 29.0879 511.083 28.375C510.497 27.6621 510.043 26.7832 509.721 25.7383C509.399 24.6934 509.238 23.502 509.238 22.1641V17.0225C509.238 15.6748 509.394 14.4834 509.706 13.4482C510.029 12.4033 510.483 11.5244 511.069 10.8115C511.664 10.0986 512.377 9.55664 513.207 9.18555C514.047 8.81445 514.985 8.62891 516.02 8.62891C517.084 8.62891 518.036 8.81445 518.876 9.18555C519.716 9.55664 520.429 10.0986 521.015 10.8115C521.611 11.5244 522.065 12.4033 522.377 13.4482C522.69 14.4834 522.846 15.6748 522.846 17.0225ZM521.718 22.1641V16.9932C521.718 15.8311 521.591 14.8008 521.337 13.9023C521.093 12.9941 520.732 12.2324 520.253 11.6172C519.775 10.9922 519.179 10.5186 518.466 10.1963C517.763 9.87402 516.948 9.71289 516.02 9.71289C515.121 9.71289 514.321 9.87402 513.618 10.1963C512.914 10.5186 512.319 10.9922 511.83 11.6172C511.352 12.2324 510.986 12.9941 510.732 13.9023C510.488 14.8008 510.366 15.8311 510.366 16.9932V22.1641C510.366 23.3359 510.493 24.376 510.746 25.2842C511 26.1826 511.371 26.9443 511.86 27.5693C512.348 28.1943 512.944 28.668 513.647 28.9902C514.35 29.3125 515.156 29.4736 516.064 29.4736C516.982 29.4736 517.792 29.3125 518.495 28.9902C519.199 28.668 519.789 28.1943 520.268 27.5693C520.746 26.9443 521.108 26.1826 521.352 25.2842C521.596 24.376 521.718 23.3359 521.718 22.1641ZM533.327 19.8057H528.01L527.981 18.7656H532.463C533.449 18.7656 534.279 18.6045 534.953 18.2822C535.637 17.96 536.154 17.4717 536.506 16.8174C536.858 16.1631 537.033 15.3525 537.033 14.3857C537.033 13.4092 536.853 12.5938 536.491 11.9395C536.14 11.2852 535.608 10.7969 534.895 10.4746C534.192 10.1426 533.313 9.97656 532.258 9.97656H528.332V30.25H527.219V8.92188H532.258C533.166 8.92188 533.982 9.03418 534.704 9.25879C535.437 9.47363 536.057 9.80566 536.565 10.2549C537.082 10.6943 537.473 11.2607 537.737 11.9541C538.01 12.6475 538.147 13.4727 538.147 14.4297C538.147 15.3086 537.995 16.0996 537.693 16.8027C537.39 17.5059 536.95 18.082 536.374 18.5312C535.808 18.9707 535.124 19.2393 534.323 19.3369L533.327 19.8057ZM533.21 30.25H527.746L528.259 29.1807H533.21C534.157 29.1807 534.968 28.9902 535.642 28.6094C536.325 28.2188 536.848 27.6621 537.209 26.9395C537.57 26.2168 537.751 25.3525 537.751 24.3467C537.751 23.5361 537.59 22.7891 537.268 22.1055C536.945 21.4121 536.457 20.8555 535.803 20.4355C535.149 20.0156 534.323 19.8057 533.327 19.8057H530.266L530.295 18.7656H534.675L534.851 19.1318C535.632 19.2393 536.325 19.5371 536.931 20.0254C537.546 20.5137 538.025 21.1338 538.366 21.8857C538.718 22.6279 538.894 23.4385 538.894 24.3174C538.894 25.5967 538.65 26.6807 538.161 27.5693C537.683 28.4482 537.019 29.1172 536.169 29.5762C535.32 30.0254 534.333 30.25 533.21 30.25ZM548.643 23.0283L554.209 8.92188H555.557L548.408 26.5146C548.252 26.8857 548.062 27.3008 547.837 27.7598C547.622 28.2188 547.349 28.6631 547.017 29.0928C546.685 29.5225 546.274 29.874 545.786 30.1475C545.298 30.4209 544.717 30.5576 544.043 30.5576C543.877 30.5576 543.672 30.5381 543.428 30.499C543.193 30.4697 543.022 30.4258 542.915 30.3672L543.062 29.3564C543.179 29.3955 543.34 29.4297 543.545 29.459C543.76 29.4785 543.94 29.4883 544.087 29.4883C544.653 29.4883 545.132 29.3418 545.522 29.0488C545.913 28.7461 546.25 28.3506 546.533 27.8623C546.816 27.374 547.065 26.8564 547.28 26.3096L548.643 23.0283ZM542.197 8.92188L548.745 23.4824L549.155 24.4639L548.159 24.8594L540.879 8.92188H542.197ZM564.983 19.8057H559.666L559.637 18.7656H564.119C565.105 18.7656 565.935 18.6045 566.609 18.2822C567.293 17.96 567.81 17.4717 568.162 16.8174C568.513 16.1631 568.689 15.3525 568.689 14.3857C568.689 13.4092 568.509 12.5938 568.147 11.9395C567.796 11.2852 567.263 10.7969 566.551 10.4746C565.847 10.1426 564.969 9.97656 563.914 9.97656H559.988V30.25H558.875V8.92188H563.914C564.822 8.92188 565.638 9.03418 566.36 9.25879C567.093 9.47363 567.713 9.80566 568.221 10.2549C568.738 10.6943 569.129 11.2607 569.392 11.9541C569.666 12.6475 569.803 13.4727 569.803 14.4297C569.803 15.3086 569.651 16.0996 569.348 16.8027C569.046 17.5059 568.606 18.082 568.03 18.5312C567.464 18.9707 566.78 19.2393 565.979 19.3369L564.983 19.8057ZM564.866 30.25H559.402L559.915 29.1807H564.866C565.813 29.1807 566.624 28.9902 567.298 28.6094C567.981 28.2188 568.504 27.6621 568.865 26.9395C569.226 26.2168 569.407 25.3525 569.407 24.3467C569.407 23.5361 569.246 22.7891 568.924 22.1055C568.601 21.4121 568.113 20.8555 567.459 20.4355C566.805 20.0156 565.979 19.8057 564.983 19.8057H561.922L561.951 18.7656H566.331L566.507 19.1318C567.288 19.2393 567.981 19.5371 568.587 20.0254C569.202 20.5137 569.68 21.1338 570.022 21.8857C570.374 22.6279 570.55 23.4385 570.55 24.3174C570.55 25.5967 570.305 26.6807 569.817 27.5693C569.339 28.4482 568.675 29.1172 567.825 29.5762C566.975 30.0254 565.989 30.25 564.866 30.25ZM580.123 9.81543L573.765 30.25H572.579L579.376 8.92188H580.254L580.123 9.81543ZM586.114 30.25L579.771 9.81543L579.654 8.92188H580.518L587.3 30.25H586.114ZM584.634 22.9697V24.0244H575.318V22.9697H584.634ZM594.193 8.92188V30.25H593.079V8.92188H594.193ZM600.55 8.92188V9.97656H586.722V8.92188H600.55ZM604.996 28.2285L615.909 8.92188H617.023V30.25H615.909V10.8994L604.996 30.25H603.868V8.92188H604.996V28.2285ZM638.732 21.2998H632.14L631.657 21.0068C630.456 20.5771 629.538 19.8691 628.903 18.8828C628.268 17.8965 627.951 16.71 627.951 15.3232C627.951 13.9561 628.19 12.7988 628.669 11.8516C629.157 10.8945 629.85 10.167 630.749 9.66895C631.647 9.1709 632.717 8.92188 633.957 8.92188H639.347V30.25H638.22V9.97656H633.957C632.346 9.97656 631.13 10.4502 630.309 11.3975C629.489 12.335 629.079 13.6338 629.079 15.2939C629.079 16.2607 629.245 17.1201 629.577 17.8721C629.919 18.6143 630.407 19.1953 631.042 19.6152C631.686 20.0352 632.463 20.2451 633.371 20.2451H638.747L638.732 21.2998ZM632.946 20.4502L628.522 30.25H627.277L631.818 20.4502H632.946ZM645.127 8.92188V30.25H643.984V8.92188H645.127ZM656.494 8.92188L648.408 19.9961H644.672L644.643 18.9268H647.778L655.058 8.92188H656.494ZM655.615 30.25L647.631 19.8643L648.291 18.8682L657.05 30.25H655.615ZM671.919 19.7617H669.649V18.8242H671.861C673.052 18.8242 674.019 18.6436 674.761 18.2822C675.503 17.9111 676.045 17.3936 676.387 16.7295C676.738 16.0654 676.914 15.2842 676.914 14.3857C676.914 13.4873 676.734 12.6865 676.372 11.9834C676.021 11.2705 675.469 10.7139 674.717 10.3135C673.975 9.90332 673.018 9.69824 671.846 9.69824C670.957 9.69824 670.142 9.89355 669.4 10.2842C668.667 10.6748 668.076 11.2314 667.627 11.9541C667.188 12.667 666.968 13.5166 666.968 14.5029H665.855C665.855 13.5947 666.016 12.7793 666.338 12.0566C666.66 11.3242 667.1 10.7041 667.656 10.1963C668.213 9.68848 668.848 9.30273 669.561 9.03906C670.283 8.76562 671.045 8.62891 671.846 8.62891C672.793 8.62891 673.643 8.75586 674.395 9.00977C675.156 9.25391 675.806 9.62012 676.343 10.1084C676.89 10.5967 677.31 11.2021 677.603 11.9248C677.896 12.6475 678.042 13.4824 678.042 14.4297C678.042 15.1621 677.905 15.8506 677.632 16.4951C677.359 17.1396 676.963 17.7061 676.445 18.1943C675.928 18.6826 675.288 19.0684 674.527 19.3516C673.765 19.625 672.896 19.7617 671.919 19.7617ZM669.649 19.0146H671.919C672.993 19.0146 673.931 19.1367 674.732 19.3809C675.532 19.625 676.196 19.9814 676.724 20.4502C677.251 20.9189 677.647 21.5 677.91 22.1934C678.184 22.877 678.32 23.6631 678.32 24.5518C678.32 25.499 678.159 26.3486 677.837 27.1006C677.515 27.8428 677.066 28.4727 676.489 28.9902C675.913 29.5078 675.23 29.9033 674.439 30.1768C673.657 30.4404 672.793 30.5723 671.846 30.5723C671.094 30.5723 670.347 30.4502 669.605 30.2061C668.872 29.9521 668.203 29.5713 667.598 29.0635C666.992 28.5459 666.504 27.8965 666.133 27.1152C665.772 26.334 665.591 25.4062 665.591 24.332H666.734C666.734 25.3281 666.948 26.2168 667.378 26.998C667.808 27.7695 668.408 28.3799 669.18 28.8291C669.951 29.2686 670.84 29.4883 671.846 29.4883C672.988 29.4883 673.955 29.293 674.746 28.9023C675.537 28.502 676.143 27.9355 676.563 27.2031C676.983 26.4707 677.193 25.6064 677.193 24.6104C677.193 23.7705 677.075 23.0576 676.841 22.4717C676.616 21.876 676.275 21.3877 675.816 21.0068C675.366 20.626 674.81 20.3477 674.146 20.1719C673.491 19.9863 672.73 19.8936 671.861 19.8936H669.649V19.0146ZM687.732 9.81543L681.375 30.25H680.188L686.985 8.92188H687.864L687.732 9.81543ZM693.724 30.25L687.381 9.81543L687.264 8.92188H688.128L694.91 30.25H693.724ZM692.244 22.9697V24.0244H682.928V22.9697H692.244ZM698.331 8.92188H699.473L706.49 28.4629L713.507 8.92188H714.635L706.93 30.25H706.065L698.331 8.92188ZM697.965 8.92188H698.99L699.093 20.3184V30.25H697.965V8.92188ZM714.005 8.92188H715.059V30.25H713.931V20.3184L714.005 8.92188ZM721.6 8.92188V30.25H720.472V8.92188H721.6ZM739.303 18.7363V19.8057H727.804V18.7363H739.303ZM728.156 8.92188V30.25H727.042V8.92188H728.156ZM740.138 8.92188V30.25H739.01V8.92188H740.138ZM751.132 23.0283L756.698 8.92188H758.046L750.898 26.5146C750.741 26.8857 750.551 27.3008 750.326 27.7598C750.112 28.2188 749.838 28.6631 749.506 29.0928C749.174 29.5225 748.764 29.874 748.276 30.1475C747.787 30.4209 747.206 30.5576 746.532 30.5576C746.366 30.5576 746.161 30.5381 745.917 30.499C745.683 30.4697 745.512 30.4258 745.404 30.3672L745.551 29.3564C745.668 29.3955 745.829 29.4297 746.034 29.459C746.249 29.4785 746.43 29.4883 746.576 29.4883C747.143 29.4883 747.621 29.3418 748.012 29.0488C748.403 28.7461 748.739 28.3506 749.023 27.8623C749.306 27.374 749.555 26.8564 749.77 26.3096L751.132 23.0283ZM744.687 8.92188L751.235 23.4824L751.645 24.4639L750.649 24.8594L743.368 8.92188H744.687ZM780.884 8.92188V30.25H779.741V9.97656H768.93V30.25H767.788V8.92188H780.884ZM798.865 17.0225V22.1641C798.865 23.502 798.709 24.6934 798.396 25.7383C798.084 26.7832 797.634 27.6621 797.048 28.375C796.462 29.0879 795.75 29.6348 794.91 30.0156C794.08 30.3867 793.137 30.5723 792.083 30.5723C791.038 30.5723 790.095 30.3867 789.255 30.0156C788.416 29.6348 787.698 29.0879 787.102 28.375C786.516 27.6621 786.062 26.7832 785.74 25.7383C785.418 24.6934 785.256 23.502 785.256 22.1641V17.0225C785.256 15.6748 785.413 14.4834 785.725 13.4482C786.047 12.4033 786.502 11.5244 787.087 10.8115C787.683 10.0986 788.396 9.55664 789.226 9.18555C790.066 8.81445 791.003 8.62891 792.039 8.62891C793.103 8.62891 794.055 8.81445 794.895 9.18555C795.735 9.55664 796.448 10.0986 797.034 10.8115C797.629 11.5244 798.084 12.4033 798.396 13.4482C798.709 14.4834 798.865 15.6748 798.865 17.0225ZM797.737 22.1641V16.9932C797.737 15.8311 797.61 14.8008 797.356 13.9023C797.112 12.9941 796.751 12.2324 796.272 11.6172C795.794 10.9922 795.198 10.5186 794.485 10.1963C793.782 9.87402 792.966 9.71289 792.039 9.71289C791.14 9.71289 790.339 9.87402 789.636 10.1963C788.933 10.5186 788.337 10.9922 787.849 11.6172C787.371 12.2324 787.004 12.9941 786.751 13.9023C786.506 14.8008 786.384 15.8311 786.384 16.9932V22.1641C786.384 23.3359 786.511 24.376 786.765 25.2842C787.019 26.1826 787.39 26.9443 787.878 27.5693C788.367 28.1943 788.962 28.668 789.666 28.9902C790.369 29.3125 791.174 29.4736 792.083 29.4736C793.001 29.4736 793.811 29.3125 794.514 28.9902C795.217 28.668 795.808 28.1943 796.287 27.5693C796.765 26.9443 797.127 26.1826 797.371 25.2842C797.615 24.376 797.737 23.3359 797.737 22.1641ZM809.346 19.8057H804.029L803.999 18.7656H808.482C809.468 18.7656 810.298 18.6045 810.972 18.2822C811.656 17.96 812.173 17.4717 812.525 16.8174C812.876 16.1631 813.052 15.3525 813.052 14.3857C813.052 13.4092 812.871 12.5938 812.51 11.9395C812.159 11.2852 811.626 10.7969 810.913 10.4746C810.21 10.1426 809.331 9.97656 808.277 9.97656H804.351V30.25H803.238V8.92188H808.277C809.185 8.92188 810 9.03418 810.723 9.25879C811.455 9.47363 812.076 9.80566 812.583 10.2549C813.101 10.6943 813.492 11.2607 813.755 11.9541C814.029 12.6475 814.165 13.4727 814.165 14.4297C814.165 15.3086 814.014 16.0996 813.711 16.8027C813.409 17.5059 812.969 18.082 812.393 18.5312C811.827 18.9707 811.143 19.2393 810.342 19.3369L809.346 19.8057ZM809.229 30.25H803.765L804.278 29.1807H809.229C810.176 29.1807 810.987 28.9902 811.661 28.6094C812.344 28.2188 812.867 27.6621 813.228 26.9395C813.589 26.2168 813.77 25.3525 813.77 24.3467C813.77 23.5361 813.609 22.7891 813.286 22.1055C812.964 21.4121 812.476 20.8555 811.822 20.4355C811.167 20.0156 810.342 19.8057 809.346 19.8057H806.285L806.314 18.7656H810.694L810.87 19.1318C811.651 19.2393 812.344 19.5371 812.95 20.0254C813.565 20.5137 814.043 21.1338 814.385 21.8857C814.737 22.6279 814.912 23.4385 814.912 24.3174C814.912 25.5967 814.668 26.6807 814.18 27.5693C813.702 28.4482 813.037 29.1172 812.188 29.5762C811.338 30.0254 810.352 30.25 809.229 30.25ZM831.195 18.7363V19.8057H819.695V18.7363H831.195ZM820.047 8.92188V30.25H818.934V8.92188H820.047ZM832.029 8.92188V30.25H830.902V8.92188H832.029ZM850.025 17.0225V22.1641C850.025 23.502 849.869 24.6934 849.557 25.7383C849.244 26.7832 848.795 27.6621 848.209 28.375C847.623 29.0879 846.91 29.6348 846.07 30.0156C845.24 30.3867 844.298 30.5723 843.243 30.5723C842.198 30.5723 841.256 30.3867 840.416 30.0156C839.576 29.6348 838.858 29.0879 838.263 28.375C837.677 27.6621 837.223 26.7832 836.9 25.7383C836.578 24.6934 836.417 23.502 836.417 22.1641V17.0225C836.417 15.6748 836.573 14.4834 836.886 13.4482C837.208 12.4033 837.662 11.5244 838.248 10.8115C838.844 10.0986 839.557 9.55664 840.387 9.18555C841.227 8.81445 842.164 8.62891 843.199 8.62891C844.264 8.62891 845.216 8.81445 846.056 9.18555C846.896 9.55664 847.608 10.0986 848.194 10.8115C848.79 11.5244 849.244 12.4033 849.557 13.4482C849.869 14.4834 850.025 15.6748 850.025 17.0225ZM848.897 22.1641V16.9932C848.897 15.8311 848.771 14.8008 848.517 13.9023C848.272 12.9941 847.911 12.2324 847.433 11.6172C846.954 10.9922 846.358 10.5186 845.646 10.1963C844.942 9.87402 844.127 9.71289 843.199 9.71289C842.301 9.71289 841.5 9.87402 840.797 10.1963C840.094 10.5186 839.498 10.9922 839.01 11.6172C838.531 12.2324 838.165 12.9941 837.911 13.9023C837.667 14.8008 837.545 15.8311 837.545 16.9932V22.1641C837.545 23.3359 837.672 24.376 837.926 25.2842C838.18 26.1826 838.551 26.9443 839.039 27.5693C839.527 28.1943 840.123 28.668 840.826 28.9902C841.529 29.3125 842.335 29.4736 843.243 29.4736C844.161 29.4736 844.972 29.3125 845.675 28.9902C846.378 28.668 846.969 28.1943 847.447 27.5693C847.926 26.9443 848.287 26.1826 848.531 25.2842C848.775 24.376 848.897 23.3359 848.897 22.1641ZM868.732 29.166L868.673 35.3916H867.619V30.25H865.846V29.166H868.732ZM853.952 30.25V8.92188H855.094V29.1807H865.905V8.92188H867.033V30.25H853.952ZM873.779 8.92188V30.25H872.651V8.92188H873.779ZM891.482 18.7363V19.8057H879.983V18.7363H891.482ZM880.334 8.92188V30.25H879.221V8.92188H880.334ZM892.317 8.92188V30.25H891.189V8.92188H892.317ZM909.639 18.7363V19.8057H898.14V18.7363H909.639ZM898.491 8.92188V30.25H897.378V8.92188H898.491ZM910.474 8.92188V30.25H909.346V8.92188H910.474ZM928.47 17.0225V22.1641C928.47 23.502 928.313 24.6934 928.001 25.7383C927.688 26.7832 927.239 27.6621 926.653 28.375C926.067 29.0879 925.354 29.6348 924.514 30.0156C923.684 30.3867 922.742 30.5723 921.687 30.5723C920.642 30.5723 919.7 30.3867 918.86 30.0156C918.02 29.6348 917.303 29.0879 916.707 28.375C916.121 27.6621 915.667 26.7832 915.345 25.7383C915.022 24.6934 914.861 23.502 914.861 22.1641V17.0225C914.861 15.6748 915.017 14.4834 915.33 13.4482C915.652 12.4033 916.106 11.5244 916.692 10.8115C917.288 10.0986 918.001 9.55664 918.831 9.18555C919.671 8.81445 920.608 8.62891 921.643 8.62891C922.708 8.62891 923.66 8.81445 924.5 9.18555C925.34 9.55664 926.053 10.0986 926.638 10.8115C927.234 11.5244 927.688 12.4033 928.001 13.4482C928.313 14.4834 928.47 15.6748 928.47 17.0225ZM927.342 22.1641V16.9932C927.342 15.8311 927.215 14.8008 926.961 13.9023C926.717 12.9941 926.355 12.2324 925.877 11.6172C925.398 10.9922 924.803 10.5186 924.09 10.1963C923.387 9.87402 922.571 9.71289 921.643 9.71289C920.745 9.71289 919.944 9.87402 919.241 10.1963C918.538 10.5186 917.942 10.9922 917.454 11.6172C916.975 12.2324 916.609 12.9941 916.355 13.9023C916.111 14.8008 915.989 15.8311 915.989 16.9932V22.1641C915.989 23.3359 916.116 24.376 916.37 25.2842C916.624 26.1826 916.995 26.9443 917.483 27.5693C917.971 28.1943 918.567 28.668 919.27 28.9902C919.973 29.3125 920.779 29.4736 921.687 29.4736C922.605 29.4736 923.416 29.3125 924.119 28.9902C924.822 28.668 925.413 28.1943 925.891 27.5693C926.37 26.9443 926.731 26.1826 926.975 25.2842C927.22 24.376 927.342 23.3359 927.342 22.1641ZM943.58 8.92188V9.97656H933.926V30.25H932.784V8.92188H943.58ZM958.983 17.0225V22.1641C958.983 23.502 958.827 24.6934 958.514 25.7383C958.202 26.7832 957.752 27.6621 957.166 28.375C956.58 29.0879 955.868 29.6348 955.028 30.0156C954.198 30.3867 953.255 30.5723 952.201 30.5723C951.156 30.5723 950.213 30.3867 949.373 30.0156C948.534 29.6348 947.816 29.0879 947.22 28.375C946.634 27.6621 946.18 26.7832 945.858 25.7383C945.536 24.6934 945.374 23.502 945.374 22.1641V17.0225C945.374 15.6748 945.531 14.4834 945.843 13.4482C946.165 12.4033 946.62 11.5244 947.205 10.8115C947.801 10.0986 948.514 9.55664 949.344 9.18555C950.184 8.81445 951.121 8.62891 952.157 8.62891C953.221 8.62891 954.173 8.81445 955.013 9.18555C955.853 9.55664 956.566 10.0986 957.152 10.8115C957.747 11.5244 958.202 12.4033 958.514 13.4482C958.827 14.4834 958.983 15.6748 958.983 17.0225ZM957.855 22.1641V16.9932C957.855 15.8311 957.728 14.8008 957.474 13.9023C957.23 12.9941 956.869 12.2324 956.39 11.6172C955.911 10.9922 955.316 10.5186 954.603 10.1963C953.9 9.87402 953.084 9.71289 952.157 9.71289C951.258 9.71289 950.457 9.87402 949.754 10.1963C949.051 10.5186 948.455 10.9922 947.967 11.6172C947.489 12.2324 947.122 12.9941 946.869 13.9023C946.624 14.8008 946.502 15.8311 946.502 16.9932V22.1641C946.502 23.3359 946.629 24.376 946.883 25.2842C947.137 26.1826 947.508 26.9443 947.996 27.5693C948.485 28.1943 949.08 28.668 949.784 28.9902C950.487 29.3125 951.292 29.4736 952.201 29.4736C953.119 29.4736 953.929 29.3125 954.632 28.9902C955.335 28.668 955.926 28.1943 956.405 27.5693C956.883 26.9443 957.245 26.1826 957.489 25.2842C957.733 24.376 957.855 23.3359 957.855 22.1641ZM975.653 21.373H970.365V20.2891H975.653C976.806 20.2891 977.733 20.0645 978.437 19.6152C979.149 19.1562 979.667 18.5459 979.989 17.7842C980.321 17.0127 980.487 16.1631 980.487 15.2354C980.487 14.2783 980.321 13.4043 979.989 12.6133C979.667 11.8125 979.149 11.1729 978.437 10.6943C977.733 10.2158 976.806 9.97656 975.653 9.97656H970.878V30.25H969.765V8.92188H975.653C976.952 8.92188 978.041 9.18555 978.92 9.71289C979.809 10.2305 980.478 10.9629 980.927 11.9102C981.386 12.8477 981.615 13.9463 981.615 15.2061C981.615 16.4756 981.391 17.5742 980.941 18.502C980.492 19.4297 979.828 20.1426 978.949 20.6406C978.07 21.1289 976.972 21.373 975.653 21.373ZM988.991 9.81543L982.634 30.25H981.447L988.244 8.92188H989.123L988.991 9.81543ZM994.982 30.25L988.639 9.81543L988.522 8.92188H989.387L996.169 30.25H994.982ZM993.503 22.9697V24.0244H984.186V22.9697H993.503ZM1013.86 29.166L1013.8 35.3916H1012.74V30.25H1010.97V29.166H1013.86ZM999.077 30.25V8.92188H1000.22V29.1807H1011.03V8.92188H1012.16V30.25H999.077ZM1018.9 8.92188V30.25H1017.78V8.92188H1018.9ZM1037.28 17.0225V22.1641C1037.28 23.502 1037.12 24.6934 1036.81 25.7383C1036.5 26.7832 1036.05 27.6621 1035.46 28.375C1034.88 29.0879 1034.17 29.6348 1033.33 30.0156C1032.5 30.3867 1031.55 30.5723 1030.5 30.5723C1029.45 30.5723 1028.51 30.3867 1027.67 30.0156C1026.83 29.6348 1026.11 29.0879 1025.52 28.375C1024.93 27.6621 1024.48 26.7832 1024.16 25.7383C1023.83 24.6934 1023.67 23.502 1023.67 22.1641V17.0225C1023.67 15.6748 1023.83 14.4834 1024.14 13.4482C1024.46 12.4033 1024.92 11.5244 1025.5 10.8115C1026.1 10.0986 1026.81 9.55664 1027.64 9.18555C1028.48 8.81445 1029.42 8.62891 1030.45 8.62891C1031.52 8.62891 1032.47 8.81445 1033.31 9.18555C1034.15 9.55664 1034.86 10.0986 1035.45 10.8115C1036.05 11.5244 1036.5 12.4033 1036.81 13.4482C1037.12 14.4834 1037.28 15.6748 1037.28 17.0225ZM1036.15 22.1641V16.9932C1036.15 15.8311 1036.03 14.8008 1035.77 13.9023C1035.53 12.9941 1035.17 12.2324 1034.69 11.6172C1034.21 10.9922 1033.61 10.5186 1032.9 10.1963C1032.2 9.87402 1031.38 9.71289 1030.45 9.71289C1029.56 9.71289 1028.76 9.87402 1028.05 10.1963C1027.35 10.5186 1026.75 10.9922 1026.26 11.6172C1025.79 12.2324 1025.42 12.9941 1025.17 13.9023C1024.92 14.8008 1024.8 15.8311 1024.8 16.9932V22.1641C1024.8 23.3359 1024.93 24.376 1025.18 25.2842C1025.43 26.1826 1025.81 26.9443 1026.29 27.5693C1026.78 28.1943 1027.38 28.668 1028.08 28.9902C1028.78 29.3125 1029.59 29.4736 1030.5 29.4736C1031.42 29.4736 1032.23 29.3125 1032.93 28.9902C1033.63 28.668 1034.22 28.1943 1034.7 27.5693C1035.18 26.9443 1035.54 26.1826 1035.79 25.2842C1036.03 24.376 1036.15 23.3359 1036.15 22.1641ZM1053.91 18.7363V19.8057H1042.42V18.7363H1053.91ZM1042.77 8.92188V30.25H1041.65V8.92188H1042.77ZM1054.75 8.92188V30.25H1053.62V8.92188H1054.75ZM1065.74 23.0283L1071.31 8.92188H1072.66L1065.51 26.5146C1065.35 26.8857 1065.16 27.3008 1064.94 27.7598C1064.72 28.2188 1064.45 28.6631 1064.12 29.0928C1063.78 29.5225 1063.37 29.874 1062.89 30.1475C1062.4 30.4209 1061.82 30.5576 1061.14 30.5576C1060.98 30.5576 1060.77 30.5381 1060.53 30.499C1060.29 30.4697 1060.12 30.4258 1060.02 30.3672L1060.16 29.3564C1060.28 29.3955 1060.44 29.4297 1060.65 29.459C1060.86 29.4785 1061.04 29.4883 1061.19 29.4883C1061.75 29.4883 1062.23 29.3418 1062.62 29.0488C1063.01 28.7461 1063.35 28.3506 1063.63 27.8623C1063.92 27.374 1064.17 26.8564 1064.38 26.3096L1065.74 23.0283ZM1059.3 8.92188L1065.85 23.4824L1066.26 24.4639L1065.26 24.8594L1057.98 8.92188H1059.3ZM1069.54 29.4004C1069.54 29.1367 1069.63 28.9121 1069.81 28.7266C1069.98 28.5312 1070.22 28.4336 1070.53 28.4336C1070.83 28.4336 1071.07 28.5312 1071.26 28.7266C1071.45 28.9121 1071.55 29.1367 1071.55 29.4004C1071.55 29.6641 1071.45 29.8887 1071.26 30.0742C1071.07 30.2598 1070.83 30.3525 1070.53 30.3525C1070.22 30.3525 1069.98 30.2598 1069.81 30.0742C1069.63 29.8887 1069.54 29.6641 1069.54 29.4004ZM1095.19 18.7363V19.8057H1083.7V18.7363H1095.19ZM1084.05 8.92188V30.25H1082.93V8.92188H1084.05ZM1096.03 8.92188V30.25H1094.9V8.92188H1096.03ZM1112.17 29.1807V30.25H1101.76V29.1807H1112.17ZM1102.2 8.92188V30.25H1101.09V8.92188H1102.2ZM1110.92 18.7363V19.8057H1101.76V18.7363H1110.92ZM1112.14 8.92188V9.97656H1101.76V8.92188H1112.14ZM1130.39 18.9121V19.9668H1122.42V18.9121H1130.39ZM1133.6 23.6875H1134.72C1134.61 25.1816 1134.27 26.4414 1133.71 27.4668C1133.17 28.4824 1132.42 29.249 1131.49 29.7666C1130.56 30.2842 1129.46 30.543 1128.19 30.543C1127.19 30.543 1126.27 30.3184 1125.45 29.8691C1124.64 29.4102 1123.94 28.7656 1123.36 27.9355C1122.77 27.0957 1122.32 26.0996 1122.01 24.9473C1121.7 23.7852 1121.54 22.501 1121.54 21.0947V18.0771C1121.54 16.6709 1121.7 15.3916 1122.01 14.2393C1122.32 13.0771 1122.77 12.0811 1123.36 11.251C1123.94 10.4111 1124.65 9.7666 1125.47 9.31738C1126.3 8.8584 1127.22 8.62891 1128.25 8.62891C1129.5 8.62891 1130.59 8.8877 1131.52 9.40527C1132.44 9.92285 1133.18 10.6895 1133.73 11.7051C1134.27 12.7207 1134.61 13.9805 1134.72 15.4844H1133.58C1133.47 14.2441 1133.2 13.1943 1132.76 12.335C1132.33 11.4658 1131.74 10.8066 1130.99 10.3574C1130.25 9.9082 1129.33 9.68359 1128.25 9.68359C1127.39 9.68359 1126.62 9.88379 1125.94 10.2842C1125.25 10.6748 1124.67 11.2412 1124.18 11.9834C1123.69 12.7256 1123.31 13.6094 1123.05 14.6348C1122.8 15.6504 1122.67 16.7881 1122.67 18.0479V21.0947C1122.67 22.0908 1122.75 23.0186 1122.92 23.8779C1123.08 24.7373 1123.32 25.5137 1123.62 26.207C1123.93 26.8906 1124.31 27.4766 1124.76 27.9648C1125.21 28.4531 1125.73 28.8291 1126.3 29.0928C1126.88 29.3467 1127.51 29.4736 1128.19 29.4736C1129.27 29.4736 1130.2 29.2686 1130.96 28.8584C1131.72 28.4385 1132.32 27.8037 1132.76 26.9541C1133.2 26.0947 1133.48 25.0059 1133.6 23.6875ZM1157.66 8.92188V9.97656H1148.55V8.92188H1157.66ZM1158.48 8.92188V30.25H1157.36V8.92188H1158.48ZM1148.14 8.92188H1149.27L1148.77 18.4141C1148.68 20.1133 1148.58 21.6172 1148.45 22.9258C1148.32 24.2246 1148.15 25.3379 1147.94 26.2656C1147.73 27.1934 1147.46 27.9502 1147.12 28.5361C1146.79 29.1221 1146.37 29.5566 1145.86 29.8398C1145.36 30.1133 1144.75 30.25 1144.04 30.25H1143.56V29.1807H1144.01C1144.51 29.1807 1144.94 29.0781 1145.3 28.873C1145.67 28.6582 1145.98 28.3164 1146.24 27.8477C1146.5 27.3691 1146.72 26.7197 1146.9 25.8994C1147.07 25.0693 1147.22 24.0342 1147.35 22.7939C1147.48 21.5537 1147.58 20.0645 1147.66 18.3262L1148.14 8.92188ZM1165.01 8.92188V30.25H1163.88V8.92188H1165.01ZM1171.61 8.92188V30.25H1170.47V8.92188H1171.61ZM1182.98 8.92188L1174.89 19.9961H1171.16L1171.13 18.9268H1174.26L1181.54 8.92188H1182.98ZM1182.1 30.25L1174.11 19.8643L1174.77 18.8682L1183.53 30.25H1182.1ZM1192.43 9.81543L1186.08 30.25H1184.89L1191.69 8.92188H1192.56L1192.43 9.81543ZM1198.42 30.25L1192.08 9.81543L1191.96 8.92188H1192.83L1199.61 30.25H1198.42ZM1196.94 22.9697V24.0244H1187.63V22.9697H1196.94ZM1208.55 21.373H1203.27V20.2891H1208.55C1209.71 20.2891 1210.63 20.0645 1211.34 19.6152C1212.05 19.1562 1212.57 18.5459 1212.89 17.7842C1213.22 17.0127 1213.39 16.1631 1213.39 15.2354C1213.39 14.2783 1213.22 13.4043 1212.89 12.6133C1212.57 11.8125 1212.05 11.1729 1211.34 10.6943C1210.63 10.2158 1209.71 9.97656 1208.55 9.97656H1203.78V30.25H1202.67V8.92188H1208.55C1209.85 8.92188 1210.94 9.18555 1211.82 9.71289C1212.71 10.2305 1213.38 10.9629 1213.83 11.9102C1214.29 12.8477 1214.52 13.9463 1214.52 15.2061C1214.52 16.4756 1214.29 17.5742 1213.84 18.502C1213.39 19.4297 1212.73 20.1426 1211.85 20.6406C1210.97 21.1289 1209.87 21.373 1208.55 21.373ZM1229.74 23.6875H1230.89C1230.77 25.3574 1230.43 26.6953 1229.88 27.7012C1229.32 28.707 1228.57 29.4395 1227.63 29.8984C1226.71 30.3477 1225.61 30.5723 1224.34 30.5723C1223.33 30.5723 1222.42 30.377 1221.61 29.9863C1220.81 29.5957 1220.12 29.0293 1219.55 28.2871C1218.98 27.5449 1218.55 26.6416 1218.24 25.5771C1217.94 24.5029 1217.79 23.2871 1217.79 21.9297V17.0078C1217.79 15.6895 1217.94 14.5127 1218.24 13.4775C1218.55 12.4326 1218.99 11.5537 1219.56 10.8408C1220.14 10.1182 1220.83 9.57129 1221.64 9.2002C1222.46 8.81934 1223.39 8.62891 1224.41 8.62891C1225.65 8.62891 1226.74 8.85352 1227.66 9.30273C1228.59 9.75195 1229.33 10.4795 1229.88 11.4854C1230.43 12.4814 1230.77 13.8145 1230.89 15.4844H1229.74C1229.64 14.0586 1229.37 12.9258 1228.94 12.0859C1228.51 11.2363 1227.92 10.626 1227.17 10.2549C1226.41 9.87402 1225.5 9.68359 1224.41 9.68359C1223.55 9.68359 1222.79 9.84473 1222.11 10.167C1221.44 10.4893 1220.86 10.9629 1220.38 11.5879C1219.91 12.2031 1219.55 12.9648 1219.3 13.873C1219.05 14.7715 1218.93 15.8066 1218.93 16.9785V21.9297C1218.93 23.1211 1219.05 24.1855 1219.3 25.123C1219.54 26.0605 1219.89 26.8564 1220.35 27.5107C1220.82 28.165 1221.39 28.6631 1222.05 29.0049C1222.73 29.3369 1223.49 29.5029 1224.34 29.5029C1225.43 29.5029 1226.35 29.332 1227.11 28.9902C1227.87 28.6484 1228.47 28.0576 1228.91 27.2178C1229.36 26.3682 1229.64 25.1914 1229.74 23.6875ZM1235.6 18.502H1240.63C1241.93 18.502 1243.02 18.751 1243.89 19.249C1244.76 19.7471 1245.42 20.4355 1245.86 21.3145C1246.31 22.1934 1246.54 23.2139 1246.54 24.376C1246.54 25.2354 1246.41 26.0264 1246.16 26.749C1245.9 27.4619 1245.53 28.082 1245.03 28.6094C1244.53 29.127 1243.92 29.5322 1243.18 29.8252C1242.45 30.1084 1241.6 30.25 1240.63 30.25H1234.98V8.92188H1236.12V29.1807H1240.63C1241.77 29.1807 1242.68 28.9609 1243.37 28.5215C1244.08 28.0723 1244.59 27.4814 1244.91 26.749C1245.23 26.0068 1245.4 25.2061 1245.4 24.3467C1245.4 23.5068 1245.23 22.7256 1244.91 22.0029C1244.59 21.2803 1244.08 20.6992 1243.37 20.2598C1242.68 19.8105 1241.77 19.5859 1240.63 19.5859H1235.6V18.502ZM1251.85 8.92188V30.25H1250.71V8.92188H1251.85ZM1263.22 8.92188L1255.13 19.9961H1251.39L1251.36 18.9268H1254.5L1261.78 8.92188H1263.22ZM1262.34 30.25L1254.35 19.8643L1255.01 18.8682L1263.77 30.25H1262.34ZM1268.26 28.2285L1279.18 8.92188H1280.29V30.25H1279.18V10.8994L1268.26 30.25H1267.13V8.92188H1268.26V28.2285ZM1285.73 8.92188H1286.87L1293.89 28.4629L1300.91 8.92188H1302.03L1294.33 30.25H1293.47L1285.73 8.92188ZM1285.36 8.92188H1286.39L1286.49 20.3184V30.25H1285.36V8.92188ZM1301.4 8.92188H1302.46V30.25H1301.33V20.3184L1301.4 8.92188ZM1319 19.7617H1316.73V18.8242H1318.94C1320.13 18.8242 1321.1 18.6436 1321.84 18.2822C1322.58 17.9111 1323.12 17.3936 1323.47 16.7295C1323.82 16.0654 1323.99 15.2842 1323.99 14.3857C1323.99 13.4873 1323.81 12.6865 1323.45 11.9834C1323.1 11.2705 1322.55 10.7139 1321.8 10.3135C1321.05 9.90332 1320.1 9.69824 1318.92 9.69824C1318.04 9.69824 1317.22 9.89355 1316.48 10.2842C1315.75 10.6748 1315.16 11.2314 1314.71 11.9541C1314.27 12.667 1314.05 13.5166 1314.05 14.5029H1312.93C1312.93 13.5947 1313.09 12.7793 1313.42 12.0566C1313.74 11.3242 1314.18 10.7041 1314.74 10.1963C1315.29 9.68848 1315.93 9.30273 1316.64 9.03906C1317.36 8.76562 1318.12 8.62891 1318.92 8.62891C1319.87 8.62891 1320.72 8.75586 1321.47 9.00977C1322.24 9.25391 1322.88 9.62012 1323.42 10.1084C1323.97 10.5967 1324.39 11.2021 1324.68 11.9248C1324.97 12.6475 1325.12 13.4824 1325.12 14.4297C1325.12 15.1621 1324.98 15.8506 1324.71 16.4951C1324.44 17.1396 1324.04 17.7061 1323.52 18.1943C1323.01 18.6826 1322.37 19.0684 1321.61 19.3516C1320.84 19.625 1319.97 19.7617 1319 19.7617ZM1316.73 19.0146H1319C1320.07 19.0146 1321.01 19.1367 1321.81 19.3809C1322.61 19.625 1323.28 19.9814 1323.8 20.4502C1324.33 20.9189 1324.73 21.5 1324.99 22.1934C1325.26 22.877 1325.4 23.6631 1325.4 24.5518C1325.4 25.499 1325.24 26.3486 1324.92 27.1006C1324.59 27.8428 1324.14 28.4727 1323.57 28.9902C1322.99 29.5078 1322.31 29.9033 1321.52 30.1768C1320.74 30.4404 1319.87 30.5723 1318.92 30.5723C1318.17 30.5723 1317.43 30.4502 1316.68 30.2061C1315.95 29.9521 1315.28 29.5713 1314.68 29.0635C1314.07 28.5459 1313.58 27.8965 1313.21 27.1152C1312.85 26.334 1312.67 25.4062 1312.67 24.332H1313.81C1313.81 25.3281 1314.03 26.2168 1314.46 26.998C1314.89 27.7695 1315.49 28.3799 1316.26 28.8291C1317.03 29.2686 1317.92 29.4883 1318.92 29.4883C1320.07 29.4883 1321.03 29.293 1321.83 28.9023C1322.62 28.502 1323.22 27.9355 1323.64 27.2031C1324.06 26.4707 1324.27 25.6064 1324.27 24.6104C1324.27 23.7705 1324.15 23.0576 1323.92 22.4717C1323.7 21.876 1323.35 21.3877 1322.89 21.0068C1322.45 20.626 1321.89 20.3477 1321.22 20.1719C1320.57 19.9863 1319.81 19.8936 1318.94 19.8936H1316.73V19.0146ZM1334.81 9.81543L1328.45 30.25H1327.27L1334.06 8.92188H1334.94L1334.81 9.81543ZM1340.8 30.25L1334.46 9.81543L1334.34 8.92188H1335.21L1341.99 30.25H1340.8ZM1339.32 22.9697V24.0244H1330.01V22.9697H1339.32ZM1356.25 23.6875H1357.39C1357.27 25.3574 1356.94 26.6953 1356.38 27.7012C1355.82 28.707 1355.08 29.4395 1354.14 29.8984C1353.21 30.3477 1352.11 30.5723 1350.84 30.5723C1349.84 30.5723 1348.93 30.377 1348.12 29.9863C1347.32 29.5957 1346.63 29.0293 1346.05 28.2871C1345.49 27.5449 1345.05 26.6416 1344.75 25.5771C1344.45 24.5029 1344.3 23.2871 1344.3 21.9297V17.0078C1344.3 15.6895 1344.45 14.5127 1344.75 13.4775C1345.05 12.4326 1345.49 11.5537 1346.07 10.8408C1346.65 10.1182 1347.34 9.57129 1348.15 9.2002C1348.97 8.81934 1349.89 8.62891 1350.92 8.62891C1352.16 8.62891 1353.24 8.85352 1354.17 9.30273C1355.1 9.75195 1355.83 10.4795 1356.38 11.4854C1356.94 12.4814 1357.27 13.8145 1357.39 15.4844H1356.25C1356.14 14.0586 1355.87 12.9258 1355.44 12.0859C1355.01 11.2363 1354.42 10.626 1353.67 10.2549C1352.92 9.87402 1352 9.68359 1350.92 9.68359C1350.06 9.68359 1349.29 9.84473 1348.62 10.167C1347.94 10.4893 1347.37 10.9629 1346.89 11.5879C1346.42 12.2031 1346.06 12.9648 1345.81 13.873C1345.56 14.7715 1345.44 15.8066 1345.44 16.9785V21.9297C1345.44 23.1211 1345.56 24.1855 1345.81 25.123C1346.05 26.0605 1346.4 26.8564 1346.86 27.5107C1347.33 28.165 1347.9 28.6631 1348.56 29.0049C1349.23 29.3369 1349.99 29.5029 1350.84 29.5029C1351.94 29.5029 1352.86 29.332 1353.61 28.9902C1354.37 28.6484 1354.98 28.0576 1355.41 27.2178C1355.86 26.3682 1356.14 25.1914 1356.25 23.6875ZM1374.52 17.0225V22.1641C1374.52 23.502 1374.37 24.6934 1374.06 25.7383C1373.74 26.7832 1373.29 27.6621 1372.71 28.375C1372.12 29.0879 1371.41 29.6348 1370.57 30.0156C1369.74 30.3867 1368.8 30.5723 1367.74 30.5723C1366.7 30.5723 1365.75 30.3867 1364.91 30.0156C1364.07 29.6348 1363.36 29.0879 1362.76 28.375C1362.18 27.6621 1361.72 26.7832 1361.4 25.7383C1361.08 24.6934 1360.92 23.502 1360.92 22.1641V17.0225C1360.92 15.6748 1361.07 14.4834 1361.38 13.4482C1361.71 12.4033 1362.16 11.5244 1362.75 10.8115C1363.34 10.0986 1364.06 9.55664 1364.89 9.18555C1365.73 8.81445 1366.66 8.62891 1367.7 8.62891C1368.76 8.62891 1369.71 8.81445 1370.55 9.18555C1371.39 9.55664 1372.11 10.0986 1372.69 10.8115C1373.29 11.5244 1373.74 12.4033 1374.06 13.4482C1374.37 14.4834 1374.52 15.6748 1374.52 17.0225ZM1373.4 22.1641V16.9932C1373.4 15.8311 1373.27 14.8008 1373.02 13.9023C1372.77 12.9941 1372.41 12.2324 1371.93 11.6172C1371.45 10.9922 1370.86 10.5186 1370.14 10.1963C1369.44 9.87402 1368.63 9.71289 1367.7 9.71289C1366.8 9.71289 1366 9.87402 1365.3 10.1963C1364.59 10.5186 1364 10.9922 1363.51 11.6172C1363.03 12.2324 1362.66 12.9941 1362.41 13.9023C1362.17 14.8008 1362.04 15.8311 1362.04 16.9932V22.1641C1362.04 23.3359 1362.17 24.376 1362.42 25.2842C1362.68 26.1826 1363.05 26.9443 1363.54 27.5693C1364.03 28.1943 1364.62 28.668 1365.32 28.9902C1366.03 29.3125 1366.83 29.4736 1367.74 29.4736C1368.66 29.4736 1369.47 29.3125 1370.17 28.9902C1370.88 28.668 1371.47 28.1943 1371.95 27.5693C1372.42 26.9443 1372.79 26.1826 1373.03 25.2842C1373.27 24.376 1373.4 23.3359 1373.4 22.1641ZM1389.58 8.92188V9.97656H1379.92V30.25H1378.78V8.92188H1389.58ZM1379.41 18.502H1384.45C1385.75 18.502 1386.83 18.751 1387.7 19.249C1388.57 19.7471 1389.23 20.4355 1389.68 21.3145C1390.13 22.1934 1390.35 23.2139 1390.35 24.376C1390.35 25.2354 1390.22 26.0264 1389.97 26.749C1389.72 27.4619 1389.34 28.082 1388.84 28.6094C1388.34 29.127 1387.73 29.5322 1387 29.8252C1386.26 30.1084 1385.42 30.25 1384.45 30.25H1378.79V8.92188H1379.94V29.1807H1384.45C1385.58 29.1807 1386.49 28.9609 1387.19 28.5215C1387.89 28.0723 1388.4 27.4814 1388.73 26.749C1389.05 26.0068 1389.21 25.2061 1389.21 24.3467C1389.21 23.5068 1389.05 22.7256 1388.73 22.0029C1388.4 21.2803 1387.89 20.6992 1387.19 20.2598C1386.49 19.8105 1385.58 19.5859 1384.45 19.5859H1379.41V18.502ZM1408 17.0225V22.1641C1408 23.502 1407.84 24.6934 1407.53 25.7383C1407.21 26.7832 1406.77 27.6621 1406.18 28.375C1405.59 29.0879 1404.88 29.6348 1404.04 30.0156C1403.21 30.3867 1402.27 30.5723 1401.21 30.5723C1400.17 30.5723 1399.23 30.3867 1398.39 30.0156C1397.55 29.6348 1396.83 29.0879 1396.23 28.375C1395.65 27.6621 1395.19 26.7832 1394.87 25.7383C1394.55 24.6934 1394.39 23.502 1394.39 22.1641V17.0225C1394.39 15.6748 1394.54 14.4834 1394.86 13.4482C1395.18 12.4033 1395.63 11.5244 1396.22 10.8115C1396.81 10.0986 1397.53 9.55664 1398.36 9.18555C1399.2 8.81445 1400.13 8.62891 1401.17 8.62891C1402.23 8.62891 1403.19 8.81445 1404.03 9.18555C1404.87 9.55664 1405.58 10.0986 1406.17 10.8115C1406.76 11.5244 1407.21 12.4033 1407.53 13.4482C1407.84 14.4834 1408 15.6748 1408 17.0225ZM1406.87 22.1641V16.9932C1406.87 15.8311 1406.74 14.8008 1406.49 13.9023C1406.24 12.9941 1405.88 12.2324 1405.4 11.6172C1404.92 10.9922 1404.33 10.5186 1403.62 10.1963C1402.91 9.87402 1402.1 9.71289 1401.17 9.71289C1400.27 9.71289 1399.47 9.87402 1398.77 10.1963C1398.06 10.5186 1397.47 10.9922 1396.98 11.6172C1396.5 12.2324 1396.14 12.9941 1395.88 13.9023C1395.64 14.8008 1395.52 15.8311 1395.52 16.9932V22.1641C1395.52 23.3359 1395.64 24.376 1395.9 25.2842C1396.15 26.1826 1396.52 26.9443 1397.01 27.5693C1397.5 28.1943 1398.09 28.668 1398.8 28.9902C1399.5 29.3125 1400.31 29.4736 1401.21 29.4736C1402.13 29.4736 1402.94 29.3125 1403.65 28.9902C1404.35 28.668 1404.94 28.1943 1405.42 27.5693C1405.9 26.9443 1406.26 26.1826 1406.5 25.2842C1406.75 24.376 1406.87 23.3359 1406.87 22.1641ZM1412.74 8.92188H1413.88L1420.89 28.4629L1427.91 8.92188H1429.04L1421.33 30.25H1420.47L1412.74 8.92188ZM1412.37 8.92188H1413.39L1413.5 20.3184V30.25H1412.37V8.92188ZM1428.41 8.92188H1429.46V30.25H1428.34V20.3184L1428.41 8.92188Z" fill="#00ACDB"/>
</g>
<defs>
<filter id="filter0_b_273_1687" x="-75" y="-75" width="1590" height="190" filterUnits="userSpaceOnUse" color-interpolation-filters="sRGB">
<feFlood flood-opacity="0" result="BackgroundImageFix"/>
<feGaussianBlur in="BackgroundImageFix" stdDeviation="37.5"/>
<feComposite in2="SourceAlpha" operator="in" result="effect1_backgroundBlur_273_1687"/>
<feBlend mode="normal" in="SourceGraphic" in2="effect1_backgroundBlur_273_1687" result="shape"/>
</filter>
<linearGradient id="paint0_linear_273_1687" x1="1473" y1="11.25" x2="1425.57" y2="266.236" gradientUnits="userSpaceOnUse">
<stop stop-color="#006BB6"/>
<stop offset="0.395713" stop-color="#004E9E"/>
<stop offset="0.724" stop-color="#094086"/>
<stop offset="1" stop-color="#092E67"/>
</linearGradient>
</defs>
</svg>
