<svg preserveAspectRatio="none" width="1024" height="25" viewBox="0 0 1024 25" fill="none" xmlns="http://www.w3.org/2000/svg">
<g filter="url(#filter0_b_273_2289)">
<rect width="1024" height="25" fill="url(#paint0_linear_273_2289)" fill-opacity="0.1"/>
<path d="M25.0654 18.2515V19H14.996V18.2515H25.0654ZM15.2011 18.2515V22.5991H14.4116L14.4321 18.2515H15.2011ZM25.7216 18.2515L25.7421 22.5889H24.9321V18.2515H25.7216ZM23.9477 4.07031V4.80859H18.1132V4.07031H23.9477ZM24.5424 4.07031V19H23.7426V4.07031H24.5424ZM17.8261 4.07031H18.5952L18.4106 9.06396C18.3627 10.062 18.2739 10.9917 18.144 11.853C18.0209 12.7144 17.8705 13.5039 17.6928 14.2217C17.5219 14.9326 17.3305 15.5718 17.1186 16.1392C16.9067 16.6997 16.6879 17.1816 16.4623 17.585C16.2436 17.9883 16.0283 18.3096 15.8163 18.5488C15.6044 18.7881 15.4062 18.9385 15.2216 19H14.6166V18.2515H15.1703C15.3139 18.0942 15.5019 17.8105 15.7343 17.4004C15.9736 16.9902 16.2231 16.4229 16.4828 15.6982C16.7495 14.9736 16.9853 14.0679 17.1904 12.981C17.3954 11.8872 17.5356 10.5815 17.6108 9.06396L17.8261 4.07031ZM29.2645 4.07031V19H28.475V4.07031H29.2645ZM38.806 11.0635V11.8018H33.2279V11.0635H38.806ZM41.0516 14.4062H41.8412C41.7591 15.4521 41.5233 16.334 41.1336 17.0518C40.7508 17.7627 40.2313 18.2993 39.5751 18.6616C38.9256 19.0239 38.1566 19.2051 37.2679 19.2051C36.5638 19.2051 35.9247 19.0479 35.3504 18.7334C34.7831 18.4121 34.2943 17.9609 33.8841 17.3799C33.474 16.792 33.1595 16.0947 32.9408 15.2881C32.722 14.4746 32.6127 13.5757 32.6127 12.5913V10.479C32.6127 9.49463 32.722 8.59912 32.9408 7.79248C33.1595 6.979 33.474 6.28174 33.8841 5.70068C34.2943 5.11279 34.7865 4.66162 35.3607 4.34717C35.9418 4.02588 36.5912 3.86523 37.3089 3.86523C38.1839 3.86523 38.9461 4.04639 39.5956 4.40869C40.245 4.771 40.7611 5.30762 41.1439 6.01855C41.5267 6.72949 41.7591 7.61133 41.8412 8.66406H41.0414C40.9662 7.7959 40.7748 7.06104 40.4671 6.45947C40.1664 5.85107 39.7528 5.38965 39.2264 5.0752C38.7069 4.76074 38.0677 4.60352 37.3089 4.60352C36.7074 4.60352 36.1673 4.74365 35.6888 5.02393C35.2103 5.29736 34.8002 5.69385 34.4584 6.21338C34.1166 6.73291 33.8534 7.35156 33.6688 8.06934C33.4911 8.78027 33.4022 9.57666 33.4022 10.4585V12.5913C33.4022 13.2886 33.4603 13.938 33.5765 14.5396C33.6927 15.1411 33.8568 15.6846 34.0687 16.1699C34.2875 16.6484 34.5541 17.0586 34.8685 17.4004C35.183 17.7422 35.5419 18.0054 35.9452 18.1899C36.3485 18.3677 36.7894 18.4565 37.2679 18.4565C38.0267 18.4565 38.6727 18.313 39.2059 18.0259C39.7391 17.7319 40.1595 17.2876 40.4671 16.6929C40.7748 16.0913 40.9696 15.3291 41.0516 14.4062ZM48.9012 4.07031V19H48.1219V4.07031H48.9012ZM53.3514 4.07031V4.80859H43.6717V4.07031H53.3514ZM56.4636 17.585L64.1028 4.07031H64.8821V19H64.1028V5.45459L56.4636 19H55.6741V4.07031H56.4636V17.585ZM68.0764 4.07031H68.8454V7.854C68.8454 8.77686 68.9753 9.52197 69.2351 10.0894C69.5017 10.6499 69.8845 11.0601 70.3835 11.3198C70.8894 11.5728 71.5149 11.6992 72.26 11.6992C72.5744 11.6992 72.8889 11.6855 73.2034 11.6582C73.5246 11.624 73.8425 11.5762 74.157 11.5146C74.4714 11.4531 74.7825 11.3779 75.0901 11.2891C75.3977 11.1934 75.7053 11.0908 76.0129 10.9814V11.7402C75.7258 11.8428 75.4319 11.9351 75.1311 12.0171C74.8371 12.0991 74.5329 12.1743 74.2185 12.2427C73.9109 12.311 73.593 12.3657 73.2649 12.4067C72.9368 12.4409 72.6018 12.458 72.26 12.458C71.3645 12.458 70.6057 12.3076 69.9836 12.0068C69.3616 11.7061 68.8865 11.2173 68.5583 10.5405C68.237 9.86377 68.0764 8.96826 68.0764 7.854V4.07031ZM75.7053 4.07031H76.4743V19H75.7053V4.07031ZM88.5998 10.9404V11.689H80.5505V10.9404H88.5998ZM80.7966 4.07031V19H80.0173V4.07031H80.7966ZM89.1843 4.07031V19H88.3947V4.07031H89.1843ZM96.798 4.6958L92.3478 19H91.5172L96.2751 4.07031H96.8903L96.798 4.6958ZM100.992 19L96.5519 4.6958L96.4699 4.07031H97.0749L101.822 19H100.992ZM99.9562 13.9038V14.6421H93.4347V13.9038H99.9562ZM118.127 18.2515V19H108.057V18.2515H118.127ZM108.262 18.2515V22.5991H107.473L107.493 18.2515H108.262ZM118.783 18.2515L118.803 22.5889H117.993V18.2515H118.783ZM117.009 4.07031V4.80859H111.174V4.07031H117.009ZM117.604 4.07031V19H116.804V4.07031H117.604ZM110.887 4.07031H111.656L111.472 9.06396C111.424 10.062 111.335 10.9917 111.205 11.853C111.082 12.7144 110.932 13.5039 110.754 14.2217C110.583 14.9326 110.392 15.5718 110.18 16.1392C109.968 16.6997 109.749 17.1816 109.524 17.585C109.305 17.9883 109.089 18.3096 108.878 18.5488C108.666 18.7881 108.467 18.9385 108.283 19H107.678V18.2515H108.232C108.375 18.0942 108.563 17.8105 108.795 17.4004C109.035 16.9902 109.284 16.4229 109.544 15.6982C109.811 14.9736 110.046 14.0679 110.252 12.981C110.457 11.8872 110.597 10.5815 110.672 9.06396L110.887 4.07031ZM130.067 9.74072V13.3398C130.067 14.2764 129.958 15.1104 129.739 15.8418C129.521 16.5732 129.206 17.1885 128.796 17.6875C128.386 18.1865 127.887 18.5693 127.299 18.8359C126.718 19.0957 126.058 19.2256 125.32 19.2256C124.588 19.2256 123.929 19.0957 123.341 18.8359C122.753 18.5693 122.251 18.1865 121.834 17.6875C121.423 17.1885 121.106 16.5732 120.88 15.8418C120.654 15.1104 120.542 14.2764 120.542 13.3398V9.74072C120.542 8.79736 120.651 7.96338 120.87 7.23877C121.095 6.50732 121.413 5.89209 121.823 5.39307C122.24 4.89404 122.739 4.51465 123.32 4.25488C123.908 3.99512 124.564 3.86523 125.289 3.86523C126.034 3.86523 126.701 3.99512 127.289 4.25488C127.877 4.51465 128.376 4.89404 128.786 5.39307C129.203 5.89209 129.521 6.50732 129.739 7.23877C129.958 7.96338 130.067 8.79736 130.067 9.74072ZM129.278 13.3398V9.72021C129.278 8.90674 129.189 8.18555 129.011 7.55664C128.84 6.9209 128.587 6.3877 128.252 5.95703C127.918 5.51953 127.501 5.18799 127.002 4.9624C126.509 4.73682 125.939 4.62402 125.289 4.62402C124.66 4.62402 124.1 4.73682 123.607 4.9624C123.115 5.18799 122.698 5.51953 122.356 5.95703C122.022 6.3877 121.765 6.9209 121.587 7.55664C121.417 8.18555 121.331 8.90674 121.331 9.72021V13.3398C121.331 14.1602 121.42 14.8882 121.598 15.5239C121.775 16.1528 122.035 16.686 122.377 17.1235C122.719 17.561 123.136 17.8926 123.628 18.1182C124.12 18.3438 124.684 18.4565 125.32 18.4565C125.962 18.4565 126.53 18.3438 127.022 18.1182C127.514 17.8926 127.928 17.561 128.263 17.1235C128.598 16.686 128.851 16.1528 129.022 15.5239C129.192 14.8882 129.278 14.1602 129.278 13.3398ZM140.604 4.07031V4.80859H133.846V19H133.046V4.07031H140.604ZM133.487 10.7764H137.015C137.924 10.7764 138.683 10.9507 139.291 11.2993C139.899 11.6479 140.361 12.1299 140.675 12.7451C140.99 13.3604 141.147 14.0747 141.147 14.8882C141.147 15.4897 141.058 16.0435 140.88 16.5493C140.703 17.0483 140.439 17.4824 140.091 17.8516C139.742 18.2139 139.312 18.4976 138.799 18.7026C138.286 18.9009 137.691 19 137.015 19H133.057V4.07031H133.856V18.2515H137.015C137.808 18.2515 138.447 18.0977 138.932 17.79C139.424 17.4756 139.783 17.062 140.009 16.5493C140.234 16.0298 140.347 15.4692 140.347 14.8677C140.347 14.2798 140.234 13.7329 140.009 13.2271C139.783 12.7212 139.424 12.3145 138.932 12.0068C138.447 11.6924 137.808 11.5352 137.015 11.5352H133.487V10.7764ZM148.33 4.6958L143.88 19H143.049L147.807 4.07031H148.422L148.33 4.6958ZM152.524 19L148.084 4.6958L148.002 4.07031H148.607L153.354 19H152.524ZM151.488 13.9038V14.6421H144.967V13.9038H151.488ZM159.768 11.689H156.046L156.026 10.9609H159.163C159.854 10.9609 160.435 10.8481 160.907 10.6226C161.385 10.397 161.747 10.0552 161.994 9.59717C162.24 9.13916 162.363 8.57178 162.363 7.89502C162.363 7.21143 162.236 6.64062 161.983 6.18262C161.737 5.72461 161.365 5.38281 160.866 5.15723C160.373 4.9248 159.758 4.80859 159.02 4.80859H156.272V19H155.493V4.07031H159.02C159.656 4.07031 160.226 4.14893 160.732 4.30615C161.245 4.45654 161.679 4.68896 162.035 5.00342C162.397 5.31104 162.67 5.70752 162.855 6.19287C163.046 6.67822 163.142 7.25586 163.142 7.92578C163.142 8.54102 163.036 9.09473 162.824 9.58691C162.612 10.0791 162.305 10.4824 161.901 10.7969C161.505 11.1045 161.026 11.2925 160.466 11.3608L159.768 11.689ZM159.686 19H155.862L156.221 18.2515H159.686C160.35 18.2515 160.917 18.1182 161.389 17.8516C161.867 17.5781 162.233 17.1885 162.486 16.6826C162.739 16.1768 162.865 15.5718 162.865 14.8677C162.865 14.3003 162.752 13.7773 162.527 13.2988C162.301 12.8135 161.959 12.4238 161.501 12.1299C161.043 11.8359 160.466 11.689 159.768 11.689H157.625L157.646 10.9609H160.712L160.835 11.2173C161.382 11.2925 161.867 11.501 162.291 11.8428C162.722 12.1846 163.057 12.6187 163.296 13.145C163.542 13.6646 163.665 14.2319 163.665 14.8472C163.665 15.7427 163.494 16.5015 163.152 17.1235C162.817 17.7388 162.352 18.207 161.758 18.5283C161.163 18.8428 160.473 19 159.686 19ZM167.29 4.07031V19H166.49V4.07031H167.29ZM175.247 4.07031L169.587 11.8223H166.972L166.952 11.0737H169.146L174.242 4.07031H175.247ZM174.632 19L169.043 11.73L169.505 11.0327L175.637 19H174.632ZM181.866 4.6958L177.416 19H176.585L181.343 4.07031H181.958L181.866 4.6958ZM186.06 19L181.62 4.6958L181.538 4.07031H182.143L186.89 19H186.06ZM185.024 13.9038V14.6421H178.503V13.9038H185.024ZM188.67 18.4053C188.67 18.2207 188.731 18.0635 188.854 17.9336C188.977 17.7969 189.145 17.7285 189.357 17.7285C189.569 17.7285 189.74 17.7969 189.869 17.9336C190.006 18.0635 190.075 18.2207 190.075 18.4053C190.075 18.5898 190.006 18.7471 189.869 18.877C189.74 19.0068 189.569 19.0718 189.357 19.0718C189.145 19.0718 188.977 19.0068 188.854 18.877C188.731 18.7471 188.67 18.5898 188.67 18.4053ZM206.625 10.9404V11.689H198.575V10.9404H206.625ZM198.822 4.07031V19H198.042V4.07031H198.822ZM207.209 4.07031V19H206.42V4.07031H207.209ZM218.504 18.2515V19H211.224V18.2515H218.504ZM211.531 4.07031V19H210.752V4.07031H211.531ZM217.632 10.9404V11.689H211.224V10.9404H217.632ZM218.484 4.07031V4.80859H211.224V4.07031H218.484ZM233.496 14.4062H234.296C234.213 15.5752 233.978 16.5117 233.588 17.2158C233.198 17.9199 232.675 18.4326 232.019 18.7539C231.37 19.0684 230.601 19.2256 229.712 19.2256C229.008 19.2256 228.372 19.0889 227.805 18.8154C227.244 18.542 226.762 18.1455 226.359 17.626C225.962 17.1064 225.658 16.4741 225.446 15.729C225.234 14.9771 225.129 14.126 225.129 13.1758V9.73047C225.129 8.80762 225.234 7.98389 225.446 7.25928C225.658 6.52783 225.966 5.9126 226.369 5.41357C226.773 4.90771 227.258 4.5249 227.825 4.26514C228.4 3.99854 229.046 3.86523 229.763 3.86523C230.631 3.86523 231.39 4.02246 232.04 4.33691C232.689 4.65137 233.205 5.16064 233.588 5.86475C233.978 6.56201 234.213 7.49512 234.296 8.66406H233.496C233.421 7.66602 233.233 6.87305 232.932 6.28516C232.631 5.69043 232.217 5.26318 231.691 5.00342C231.165 4.73682 230.522 4.60352 229.763 4.60352C229.162 4.60352 228.625 4.71631 228.153 4.94189C227.682 5.16748 227.278 5.49902 226.943 5.93652C226.615 6.36719 226.362 6.90039 226.185 7.53613C226.014 8.16504 225.928 8.88965 225.928 9.70996V13.1758C225.928 14.0098 226.014 14.7549 226.185 15.4111C226.356 16.0674 226.602 16.6245 226.923 17.0825C227.251 17.5405 227.648 17.8892 228.112 18.1284C228.584 18.3608 229.117 18.4771 229.712 18.4771C230.478 18.4771 231.124 18.3574 231.65 18.1182C232.183 17.8789 232.604 17.4653 232.911 16.8774C233.226 16.2827 233.421 15.459 233.496 14.4062ZM245.765 4.07031V4.80859H239.387V4.07031H245.765ZM246.339 4.07031V19H245.549V4.07031H246.339ZM239.1 4.07031H239.889L239.541 10.7148C239.479 11.9043 239.404 12.957 239.315 13.873C239.226 14.7822 239.107 15.5615 238.956 16.2109C238.813 16.8604 238.621 17.3901 238.382 17.8003C238.149 18.2104 237.856 18.5146 237.5 18.7129C237.151 18.9043 236.728 19 236.229 19H235.89V18.2515H236.208C236.557 18.2515 236.857 18.1797 237.11 18.0361C237.37 17.8857 237.589 17.6465 237.767 17.3184C237.951 16.9834 238.105 16.5288 238.228 15.9546C238.351 15.3735 238.457 14.6489 238.546 13.7808C238.635 12.9126 238.707 11.8701 238.761 10.6533L239.1 4.07031ZM250.907 4.07031V19H250.118V4.07031H250.907ZM264.622 18.2515V19H254.553V18.2515H264.622ZM254.758 18.2515V22.5991H253.968L253.989 18.2515H254.758ZM265.278 18.2515L265.299 22.5889H264.489V18.2515H265.278ZM263.504 4.07031V4.80859H257.67V4.07031H263.504ZM264.099 4.07031V19H263.299V4.07031H264.099ZM257.383 4.07031H258.152L257.967 9.06396C257.919 10.062 257.831 10.9917 257.701 11.853C257.578 12.7144 257.427 13.5039 257.249 14.2217C257.079 14.9326 256.887 15.5718 256.675 16.1392C256.463 16.6997 256.245 17.1816 256.019 17.585C255.8 17.9883 255.585 18.3096 255.373 18.5488C255.161 18.7881 254.963 18.9385 254.778 19H254.173V18.2515H254.727C254.871 18.0942 255.059 17.8105 255.291 17.4004C255.53 16.9902 255.78 16.4229 256.04 15.6982C256.306 14.9736 256.542 14.0679 256.747 12.981C256.952 11.8872 257.092 10.5815 257.167 9.06396L257.383 4.07031ZM276.517 11.689H272.795L272.774 10.9609H275.912C276.602 10.9609 277.184 10.8481 277.655 10.6226C278.134 10.397 278.496 10.0552 278.742 9.59717C278.988 9.13916 279.111 8.57178 279.111 7.89502C279.111 7.21143 278.985 6.64062 278.732 6.18262C278.486 5.72461 278.113 5.38281 277.614 5.15723C277.122 4.9248 276.507 4.80859 275.768 4.80859H273.02V19H272.241V4.07031H275.768C276.404 4.07031 276.975 4.14893 277.481 4.30615C277.994 4.45654 278.428 4.68896 278.783 5.00342C279.145 5.31104 279.419 5.70752 279.603 6.19287C279.795 6.67822 279.891 7.25586 279.891 7.92578C279.891 8.54102 279.785 9.09473 279.573 9.58691C279.361 10.0791 279.053 10.4824 278.65 10.7969C278.253 11.1045 277.775 11.2925 277.214 11.3608L276.517 11.689ZM276.435 19H272.61L272.969 18.2515H276.435C277.098 18.2515 277.665 18.1182 278.137 17.8516C278.616 17.5781 278.981 17.1885 279.234 16.6826C279.487 16.1768 279.614 15.5718 279.614 14.8677C279.614 14.3003 279.501 13.7773 279.275 13.2988C279.05 12.8135 278.708 12.4238 278.25 12.1299C277.792 11.8359 277.214 11.689 276.517 11.689H274.374L274.394 10.9609H277.46L277.583 11.2173C278.13 11.2925 278.616 11.501 279.039 11.8428C279.47 12.1846 279.805 12.6187 280.044 13.145C280.29 13.6646 280.413 14.2319 280.413 14.8472C280.413 15.7427 280.243 16.5015 279.901 17.1235C279.566 17.7388 279.101 18.207 278.506 18.5283C277.912 18.8428 277.221 19 276.435 19ZM284.028 17.585L291.667 4.07031H292.447V19H291.667V5.45459L284.028 19H283.239V4.07031H284.028V17.585ZM296.81 4.07031V19H296.01V4.07031H296.81ZM304.767 4.07031L299.107 11.8223H296.492L296.471 11.0737H298.666L303.762 4.07031H304.767ZM304.152 19L298.563 11.73L299.025 11.0327L305.157 19H304.152ZM316.226 9.74072V13.3398C316.226 14.2764 316.116 15.1104 315.898 15.8418C315.679 16.5732 315.365 17.1885 314.954 17.6875C314.544 18.1865 314.045 18.5693 313.457 18.8359C312.876 19.0957 312.217 19.2256 311.478 19.2256C310.747 19.2256 310.087 19.0957 309.499 18.8359C308.911 18.5693 308.409 18.1865 307.992 17.6875C307.582 17.1885 307.264 16.5732 307.038 15.8418C306.813 15.1104 306.7 14.2764 306.7 13.3398V9.74072C306.7 8.79736 306.809 7.96338 307.028 7.23877C307.254 6.50732 307.572 5.89209 307.982 5.39307C308.399 4.89404 308.898 4.51465 309.479 4.25488C310.067 3.99512 310.723 3.86523 311.448 3.86523C312.193 3.86523 312.859 3.99512 313.447 4.25488C314.035 4.51465 314.534 4.89404 314.944 5.39307C315.361 5.89209 315.679 6.50732 315.898 7.23877C316.116 7.96338 316.226 8.79736 316.226 9.74072ZM315.436 13.3398V9.72021C315.436 8.90674 315.347 8.18555 315.17 7.55664C314.999 6.9209 314.746 6.3877 314.411 5.95703C314.076 5.51953 313.659 5.18799 313.16 4.9624C312.668 4.73682 312.097 4.62402 311.448 4.62402C310.819 4.62402 310.258 4.73682 309.766 4.9624C309.274 5.18799 308.857 5.51953 308.515 5.95703C308.18 6.3877 307.924 6.9209 307.746 7.55664C307.575 8.18555 307.49 8.90674 307.49 9.72021V13.3398C307.49 14.1602 307.578 14.8882 307.756 15.5239C307.934 16.1528 308.194 16.686 308.535 17.1235C308.877 17.561 309.294 17.8926 309.786 18.1182C310.279 18.3438 310.843 18.4565 311.478 18.4565C312.121 18.4565 312.688 18.3438 313.18 18.1182C313.673 17.8926 314.086 17.561 314.421 17.1235C314.756 16.686 315.009 16.1528 315.18 15.5239C315.351 14.8882 315.436 14.1602 315.436 13.3398ZM323.409 12.7861H319.707V12.0273H323.409C324.216 12.0273 324.865 11.8701 325.357 11.5557C325.856 11.2344 326.219 10.8071 326.444 10.2739C326.677 9.73389 326.793 9.13916 326.793 8.48975C326.793 7.81982 326.677 7.20801 326.444 6.6543C326.219 6.09375 325.856 5.646 325.357 5.31104C324.865 4.97607 324.216 4.80859 323.409 4.80859H320.066V19H319.287V4.07031H323.409C324.318 4.07031 325.08 4.25488 325.696 4.62402C326.318 4.98633 326.786 5.49902 327.1 6.16211C327.422 6.81836 327.582 7.5874 327.582 8.46924C327.582 9.35791 327.425 10.127 327.111 10.7764C326.796 11.4258 326.331 11.9248 325.716 12.2734C325.101 12.6152 324.332 12.7861 323.409 12.7861ZM331.074 17.585L338.713 4.07031H339.492V19H338.713V5.45459L331.074 19H330.284V4.07031H331.074V17.585ZM351.013 14.4062H351.813C351.731 15.5752 351.495 16.5117 351.105 17.2158C350.715 17.9199 350.193 18.4326 349.536 18.7539C348.887 19.0684 348.118 19.2256 347.229 19.2256C346.525 19.2256 345.889 19.0889 345.322 18.8154C344.761 18.542 344.279 18.1455 343.876 17.626C343.48 17.1064 343.175 16.4741 342.964 15.729C342.752 14.9771 342.646 14.126 342.646 13.1758V9.73047C342.646 8.80762 342.752 7.98389 342.964 7.25928C343.175 6.52783 343.483 5.9126 343.886 5.41357C344.29 4.90771 344.775 4.5249 345.342 4.26514C345.917 3.99854 346.563 3.86523 347.28 3.86523C348.149 3.86523 348.907 4.02246 349.557 4.33691C350.206 4.65137 350.722 5.16064 351.105 5.86475C351.495 6.56201 351.731 7.49512 351.813 8.66406H351.013C350.938 7.66602 350.75 6.87305 350.449 6.28516C350.148 5.69043 349.735 5.26318 349.208 5.00342C348.682 4.73682 348.039 4.60352 347.28 4.60352C346.679 4.60352 346.142 4.71631 345.671 4.94189C345.199 5.16748 344.796 5.49902 344.461 5.93652C344.132 6.36719 343.88 6.90039 343.702 7.53613C343.531 8.16504 343.445 8.88965 343.445 9.70996V13.1758C343.445 14.0098 343.531 14.7549 343.702 15.4111C343.873 16.0674 344.119 16.6245 344.44 17.0825C344.768 17.5405 345.165 17.8892 345.63 18.1284C346.101 18.3608 346.634 18.4771 347.229 18.4771C347.995 18.4771 348.641 18.3574 349.167 18.1182C349.7 17.8789 350.121 17.4653 350.428 16.8774C350.743 16.2827 350.938 15.459 351.013 14.4062ZM358.463 4.07031V19H357.683V4.07031H358.463ZM362.913 4.07031V4.80859H353.233V4.07031H362.913ZM373.992 9.74072V13.3398C373.992 14.2764 373.883 15.1104 373.664 15.8418C373.445 16.5732 373.131 17.1885 372.721 17.6875C372.311 18.1865 371.812 18.5693 371.224 18.8359C370.643 19.0957 369.983 19.2256 369.245 19.2256C368.513 19.2256 367.854 19.0957 367.266 18.8359C366.678 18.5693 366.175 18.1865 365.758 17.6875C365.348 17.1885 365.03 16.5732 364.805 15.8418C364.579 15.1104 364.466 14.2764 364.466 13.3398V9.74072C364.466 8.79736 364.576 7.96338 364.794 7.23877C365.02 6.50732 365.338 5.89209 365.748 5.39307C366.165 4.89404 366.664 4.51465 367.245 4.25488C367.833 3.99512 368.489 3.86523 369.214 3.86523C369.959 3.86523 370.626 3.99512 371.213 4.25488C371.801 4.51465 372.3 4.89404 372.711 5.39307C373.128 5.89209 373.445 6.50732 373.664 7.23877C373.883 7.96338 373.992 8.79736 373.992 9.74072ZM373.203 13.3398V9.72021C373.203 8.90674 373.114 8.18555 372.936 7.55664C372.765 6.9209 372.512 6.3877 372.177 5.95703C371.842 5.51953 371.425 5.18799 370.926 4.9624C370.434 4.73682 369.863 4.62402 369.214 4.62402C368.585 4.62402 368.024 4.73682 367.532 4.9624C367.04 5.18799 366.623 5.51953 366.281 5.95703C365.946 6.3877 365.69 6.9209 365.512 7.55664C365.341 8.18555 365.256 8.90674 365.256 9.72021V13.3398C365.256 14.1602 365.345 14.8882 365.523 15.5239C365.7 16.1528 365.96 16.686 366.302 17.1235C366.644 17.561 367.061 17.8926 367.553 18.1182C368.045 18.3438 368.609 18.4565 369.245 18.4565C369.887 18.4565 370.455 18.3438 370.947 18.1182C371.439 17.8926 371.853 17.561 372.188 17.1235C372.523 16.686 372.775 16.1528 372.946 15.5239C373.117 14.8882 373.203 14.1602 373.203 13.3398ZM381.329 11.689H377.607L377.586 10.9609H380.724C381.415 10.9609 381.996 10.8481 382.467 10.6226C382.946 10.397 383.308 10.0552 383.554 9.59717C383.8 9.13916 383.923 8.57178 383.923 7.89502C383.923 7.21143 383.797 6.64062 383.544 6.18262C383.298 5.72461 382.925 5.38281 382.426 5.15723C381.934 4.9248 381.319 4.80859 380.581 4.80859H377.833V19H377.053V4.07031H380.581C381.216 4.07031 381.787 4.14893 382.293 4.30615C382.806 4.45654 383.24 4.68896 383.595 5.00342C383.958 5.31104 384.231 5.70752 384.416 6.19287C384.607 6.67822 384.703 7.25586 384.703 7.92578C384.703 8.54102 384.597 9.09473 384.385 9.58691C384.173 10.0791 383.865 10.4824 383.462 10.7969C383.065 11.1045 382.587 11.2925 382.026 11.3608L381.329 11.689ZM381.247 19H377.422L377.781 18.2515H381.247C381.91 18.2515 382.478 18.1182 382.949 17.8516C383.428 17.5781 383.793 17.1885 384.046 16.6826C384.299 16.1768 384.426 15.5718 384.426 14.8677C384.426 14.3003 384.313 13.7773 384.087 13.2988C383.862 12.8135 383.52 12.4238 383.062 12.1299C382.604 11.8359 382.026 11.689 381.329 11.689H379.186L379.207 10.9609H382.272L382.396 11.2173C382.942 11.2925 383.428 11.501 383.852 11.8428C384.282 12.1846 384.617 12.6187 384.856 13.145C385.103 13.6646 385.226 14.2319 385.226 14.8472C385.226 15.7427 385.055 16.5015 384.713 17.1235C384.378 17.7388 383.913 18.207 383.318 18.5283C382.724 18.8428 382.033 19 381.247 19ZM392.05 13.9448L395.946 4.07031H396.89L391.886 16.3853C391.776 16.645 391.643 16.9355 391.486 17.2568C391.335 17.5781 391.144 17.8892 390.912 18.1899C390.679 18.4907 390.392 18.7368 390.05 18.9282C389.708 19.1196 389.302 19.2153 388.83 19.2153C388.714 19.2153 388.57 19.2017 388.399 19.1743C388.235 19.1538 388.116 19.123 388.041 19.082L388.143 18.3745C388.225 18.4019 388.338 18.4258 388.481 18.4463C388.632 18.46 388.758 18.4668 388.861 18.4668C389.257 18.4668 389.592 18.3643 389.866 18.1592C390.139 17.9473 390.375 17.6704 390.573 17.3286C390.771 16.9868 390.946 16.6245 391.096 16.2417L392.05 13.9448ZM387.538 4.07031L392.122 14.2627L392.409 14.9497L391.711 15.2266L386.615 4.07031H387.538ZM403.488 11.689H399.766L399.746 10.9609H402.883C403.574 10.9609 404.155 10.8481 404.626 10.6226C405.105 10.397 405.467 10.0552 405.713 9.59717C405.959 9.13916 406.082 8.57178 406.082 7.89502C406.082 7.21143 405.956 6.64062 405.703 6.18262C405.457 5.72461 405.084 5.38281 404.585 5.15723C404.093 4.9248 403.478 4.80859 402.74 4.80859H399.992V19H399.212V4.07031H402.74C403.375 4.07031 403.946 4.14893 404.452 4.30615C404.965 4.45654 405.399 4.68896 405.754 5.00342C406.117 5.31104 406.39 5.70752 406.575 6.19287C406.766 6.67822 406.862 7.25586 406.862 7.92578C406.862 8.54102 406.756 9.09473 406.544 9.58691C406.332 10.0791 406.024 10.4824 405.621 10.7969C405.225 11.1045 404.746 11.2925 404.186 11.3608L403.488 11.689ZM403.406 19H399.582L399.94 18.2515H403.406C404.069 18.2515 404.637 18.1182 405.108 17.8516C405.587 17.5781 405.953 17.1885 406.206 16.6826C406.458 16.1768 406.585 15.5718 406.585 14.8677C406.585 14.3003 406.472 13.7773 406.247 13.2988C406.021 12.8135 405.679 12.4238 405.221 12.1299C404.763 11.8359 404.186 11.689 403.488 11.689H401.345L401.366 10.9609H404.432L404.555 11.2173C405.102 11.2925 405.587 11.501 406.011 11.8428C406.441 12.1846 406.776 12.6187 407.016 13.145C407.262 13.6646 407.385 14.2319 407.385 14.8472C407.385 15.7427 407.214 16.5015 406.872 17.1235C406.537 17.7388 406.072 18.207 405.478 18.5283C404.883 18.8428 404.192 19 403.406 19ZM414.086 4.6958L409.636 19H408.805L413.563 4.07031H414.178L414.086 4.6958ZM418.28 19L413.84 4.6958L413.758 4.07031H414.363L419.11 19H418.28ZM417.244 13.9038V14.6421H410.723V13.9038H417.244ZM423.935 4.07031V19H423.156V4.07031H423.935ZM428.385 4.07031V4.80859H418.705V4.07031H428.385ZM431.497 17.585L439.137 4.07031H439.916V19H439.137V5.45459L431.497 19H430.708V4.07031H431.497V17.585ZM455.113 12.7349H450.498L450.16 12.5298C449.319 12.229 448.677 11.7334 448.232 11.043C447.788 10.3525 447.566 9.52197 447.566 8.55127C447.566 7.59424 447.733 6.78418 448.068 6.12109C448.41 5.45117 448.895 4.94189 449.524 4.59326C450.153 4.24463 450.902 4.07031 451.77 4.07031H455.543V19H454.754V4.80859H451.77C450.642 4.80859 449.791 5.14014 449.217 5.80322C448.642 6.45947 448.355 7.36865 448.355 8.53076C448.355 9.20752 448.471 9.80908 448.704 10.3354C448.943 10.855 449.285 11.2617 449.729 11.5557C450.18 11.8496 450.724 11.9966 451.36 11.9966H455.123L455.113 12.7349ZM451.062 12.1401L447.966 19H447.094L450.273 12.1401H451.062ZM459.589 4.07031V19H458.789V4.07031H459.589ZM467.546 4.07031L461.885 11.8223H459.271L459.25 11.0737H461.445L466.541 4.07031H467.546ZM466.93 19L461.342 11.73L461.803 11.0327L467.935 19H466.93ZM478.343 11.6582H476.754V11.002H478.302C479.136 11.002 479.813 10.8755 480.333 10.6226C480.852 10.3628 481.232 10.0005 481.471 9.53564C481.717 9.0708 481.84 8.52393 481.84 7.89502C481.84 7.26611 481.714 6.70557 481.461 6.21338C481.214 5.71436 480.828 5.32471 480.302 5.04443C479.782 4.75732 479.112 4.61377 478.292 4.61377C477.67 4.61377 477.099 4.75049 476.58 5.02393C476.067 5.29736 475.653 5.68701 475.339 6.19287C475.031 6.69189 474.878 7.28662 474.878 7.97705H474.098C474.098 7.34131 474.211 6.77051 474.437 6.26465C474.662 5.75195 474.97 5.31787 475.359 4.9624C475.749 4.60693 476.193 4.33691 476.693 4.15234C477.198 3.96094 477.732 3.86523 478.292 3.86523C478.955 3.86523 479.55 3.9541 480.076 4.13184C480.609 4.30273 481.064 4.55908 481.44 4.90088C481.823 5.24268 482.117 5.6665 482.322 6.17236C482.527 6.67822 482.63 7.2627 482.63 7.92578C482.63 8.43848 482.534 8.92041 482.342 9.37158C482.151 9.82275 481.874 10.2192 481.512 10.561C481.15 10.9028 480.702 11.1729 480.169 11.3711C479.635 11.5625 479.027 11.6582 478.343 11.6582ZM476.754 11.1353H478.343C479.095 11.1353 479.752 11.2207 480.312 11.3916C480.873 11.5625 481.338 11.812 481.707 12.1401C482.076 12.4683 482.353 12.875 482.537 13.3604C482.729 13.8389 482.824 14.3892 482.824 15.0112C482.824 15.6743 482.712 16.269 482.486 16.7954C482.26 17.3149 481.946 17.7559 481.543 18.1182C481.139 18.4805 480.661 18.7573 480.107 18.9487C479.56 19.1333 478.955 19.2256 478.292 19.2256C477.766 19.2256 477.243 19.1401 476.723 18.9692C476.211 18.7915 475.742 18.5249 475.318 18.1694C474.895 17.8071 474.553 17.3525 474.293 16.8057C474.04 16.2588 473.914 15.6094 473.914 14.8574H474.714C474.714 15.5547 474.864 16.1768 475.165 16.7236C475.465 17.2637 475.886 17.6909 476.426 18.0054C476.966 18.313 477.588 18.4668 478.292 18.4668C479.092 18.4668 479.769 18.3301 480.322 18.0566C480.876 17.7764 481.3 17.3799 481.594 16.8672C481.888 16.3545 482.035 15.7495 482.035 15.0522C482.035 14.4644 481.953 13.9653 481.789 13.5552C481.631 13.1382 481.392 12.7964 481.071 12.5298C480.756 12.2632 480.367 12.0684 479.902 11.9453C479.444 11.8154 478.911 11.7505 478.302 11.7505H476.754V11.1353ZM489.413 4.6958L484.962 19H484.132L488.89 4.07031H489.505L489.413 4.6958ZM493.607 19L489.167 4.6958L489.085 4.07031H489.69L494.437 19H493.607ZM492.571 13.9038V14.6421H486.049V13.9038H492.571ZM496.832 4.07031H497.631L502.543 17.749L507.455 4.07031H508.244L502.851 19H502.246L496.832 4.07031ZM496.575 4.07031H497.293L497.365 12.0479V19H496.575V4.07031ZM507.803 4.07031H508.542V19H507.752V12.0479L507.803 4.07031ZM513.12 4.07031V19H512.331V4.07031H513.12ZM525.512 10.9404V11.689H517.463V10.9404H525.512ZM517.709 4.07031V19H516.93V4.07031H517.709ZM526.097 4.07031V19H525.307V4.07031H526.097ZM533.792 13.9448L537.689 4.07031H538.632L533.628 16.3853C533.519 16.645 533.386 16.9355 533.228 17.2568C533.078 17.5781 532.887 17.8892 532.654 18.1899C532.422 18.4907 532.135 18.7368 531.793 18.9282C531.451 19.1196 531.044 19.2153 530.573 19.2153C530.456 19.2153 530.313 19.2017 530.142 19.1743C529.978 19.1538 529.858 19.123 529.783 19.082L529.886 18.3745C529.968 18.4019 530.081 18.4258 530.224 18.4463C530.374 18.46 530.501 18.4668 530.603 18.4668C531 18.4668 531.335 18.3643 531.608 18.1592C531.882 17.9473 532.118 17.6704 532.316 17.3286C532.514 16.9868 532.688 16.6245 532.839 16.2417L533.792 13.9448ZM529.281 4.07031L533.864 14.2627L534.151 14.9497L533.454 15.2266L528.358 4.07031H529.281ZM554.619 4.07031V19H553.819V4.80859H546.251V19H545.452V4.07031H554.619ZM567.205 9.74072V13.3398C567.205 14.2764 567.096 15.1104 566.877 15.8418C566.659 16.5732 566.344 17.1885 565.934 17.6875C565.524 18.1865 565.025 18.5693 564.437 18.8359C563.856 19.0957 563.196 19.2256 562.458 19.2256C561.726 19.2256 561.067 19.0957 560.479 18.8359C559.891 18.5693 559.388 18.1865 558.971 17.6875C558.561 17.1885 558.243 16.5732 558.018 15.8418C557.792 15.1104 557.68 14.2764 557.68 13.3398V9.74072C557.68 8.79736 557.789 7.96338 558.008 7.23877C558.233 6.50732 558.551 5.89209 558.961 5.39307C559.378 4.89404 559.877 4.51465 560.458 4.25488C561.046 3.99512 561.702 3.86523 562.427 3.86523C563.172 3.86523 563.839 3.99512 564.427 4.25488C565.014 4.51465 565.513 4.89404 565.924 5.39307C566.341 5.89209 566.659 6.50732 566.877 7.23877C567.096 7.96338 567.205 8.79736 567.205 9.74072ZM566.416 13.3398V9.72021C566.416 8.90674 566.327 8.18555 566.149 7.55664C565.978 6.9209 565.725 6.3877 565.39 5.95703C565.055 5.51953 564.638 5.18799 564.139 4.9624C563.647 4.73682 563.076 4.62402 562.427 4.62402C561.798 4.62402 561.238 4.73682 560.745 4.9624C560.253 5.18799 559.836 5.51953 559.494 5.95703C559.159 6.3877 558.903 6.9209 558.725 7.55664C558.555 8.18555 558.469 8.90674 558.469 9.72021V13.3398C558.469 14.1602 558.558 14.8882 558.736 15.5239C558.913 16.1528 559.173 16.686 559.515 17.1235C559.857 17.561 560.274 17.8926 560.766 18.1182C561.258 18.3438 561.822 18.4565 562.458 18.4565C563.1 18.4565 563.668 18.3438 564.16 18.1182C564.652 17.8926 565.066 17.561 565.401 17.1235C565.736 16.686 565.989 16.1528 566.159 15.5239C566.33 14.8882 566.416 14.1602 566.416 13.3398ZM574.542 11.689H570.82L570.8 10.9609H573.937C574.628 10.9609 575.209 10.8481 575.68 10.6226C576.159 10.397 576.521 10.0552 576.767 9.59717C577.013 9.13916 577.136 8.57178 577.136 7.89502C577.136 7.21143 577.01 6.64062 576.757 6.18262C576.511 5.72461 576.138 5.38281 575.639 5.15723C575.147 4.9248 574.532 4.80859 573.794 4.80859H571.046V19H570.266V4.07031H573.794C574.429 4.07031 575 4.14893 575.506 4.30615C576.019 4.45654 576.453 4.68896 576.808 5.00342C577.171 5.31104 577.444 5.70752 577.629 6.19287C577.82 6.67822 577.916 7.25586 577.916 7.92578C577.916 8.54102 577.81 9.09473 577.598 9.58691C577.386 10.0791 577.078 10.4824 576.675 10.7969C576.279 11.1045 575.8 11.2925 575.24 11.3608L574.542 11.689ZM574.46 19H570.635L570.994 18.2515H574.46C575.123 18.2515 575.691 18.1182 576.162 17.8516C576.641 17.5781 577.007 17.1885 577.26 16.6826C577.512 16.1768 577.639 15.5718 577.639 14.8677C577.639 14.3003 577.526 13.7773 577.301 13.2988C577.075 12.8135 576.733 12.4238 576.275 12.1299C575.817 11.8359 575.24 11.689 574.542 11.689H572.399L572.42 10.9609H575.486L575.609 11.2173C576.156 11.2925 576.641 11.501 577.065 11.8428C577.495 12.1846 577.83 12.6187 578.07 13.145C578.316 13.6646 578.439 14.2319 578.439 14.8472C578.439 15.7427 578.268 16.5015 577.926 17.1235C577.591 17.7388 577.126 18.207 576.531 18.5283C575.937 18.8428 575.246 19 574.46 19ZM589.836 10.9404V11.689H581.787V10.9404H589.836ZM582.033 4.07031V19H581.254V4.07031H582.033ZM590.421 4.07031V19H589.631V4.07031H590.421ZM603.018 9.74072V13.3398C603.018 14.2764 602.908 15.1104 602.69 15.8418C602.471 16.5732 602.156 17.1885 601.746 17.6875C601.336 18.1865 600.837 18.5693 600.249 18.8359C599.668 19.0957 599.008 19.2256 598.27 19.2256C597.539 19.2256 596.879 19.0957 596.291 18.8359C595.703 18.5693 595.201 18.1865 594.784 17.6875C594.374 17.1885 594.056 16.5732 593.83 15.8418C593.605 15.1104 593.492 14.2764 593.492 13.3398V9.74072C593.492 8.79736 593.601 7.96338 593.82 7.23877C594.046 6.50732 594.363 5.89209 594.774 5.39307C595.191 4.89404 595.69 4.51465 596.271 4.25488C596.859 3.99512 597.515 3.86523 598.239 3.86523C598.985 3.86523 599.651 3.99512 600.239 4.25488C600.827 4.51465 601.326 4.89404 601.736 5.39307C602.153 5.89209 602.471 6.50732 602.69 7.23877C602.908 7.96338 603.018 8.79736 603.018 9.74072ZM602.228 13.3398V9.72021C602.228 8.90674 602.139 8.18555 601.962 7.55664C601.791 6.9209 601.538 6.3877 601.203 5.95703C600.868 5.51953 600.451 5.18799 599.952 4.9624C599.46 4.73682 598.889 4.62402 598.239 4.62402C597.611 4.62402 597.05 4.73682 596.558 4.9624C596.066 5.18799 595.649 5.51953 595.307 5.95703C594.972 6.3877 594.716 6.9209 594.538 7.55664C594.367 8.18555 594.281 8.90674 594.281 9.72021V13.3398C594.281 14.1602 594.37 14.8882 594.548 15.5239C594.726 16.1528 594.986 16.686 595.327 17.1235C595.669 17.561 596.086 17.8926 596.578 18.1182C597.07 18.3438 597.634 18.4565 598.27 18.4565C598.913 18.4565 599.48 18.3438 599.972 18.1182C600.465 17.8926 600.878 17.561 601.213 17.1235C601.548 16.686 601.801 16.1528 601.972 15.5239C602.143 14.8882 602.228 14.1602 602.228 13.3398ZM616.112 18.2412L616.071 22.5991H615.333V19H614.092V18.2412H616.112ZM605.766 19V4.07031H606.566V18.2515H614.133V4.07031H614.923V19H605.766ZM619.645 4.07031V19H618.856V4.07031H619.645ZM632.037 10.9404V11.689H623.988V10.9404H632.037ZM624.234 4.07031V19H623.455V4.07031H624.234ZM632.622 4.07031V19H631.832V4.07031H632.622ZM644.747 10.9404V11.689H636.698V10.9404H644.747ZM636.944 4.07031V19H636.165V4.07031H636.944ZM645.332 4.07031V19H644.542V4.07031H645.332ZM657.929 9.74072V13.3398C657.929 14.2764 657.819 15.1104 657.601 15.8418C657.382 16.5732 657.067 17.1885 656.657 17.6875C656.247 18.1865 655.748 18.5693 655.16 18.8359C654.579 19.0957 653.919 19.2256 653.181 19.2256C652.45 19.2256 651.79 19.0957 651.202 18.8359C650.614 18.5693 650.112 18.1865 649.695 17.6875C649.285 17.1885 648.967 16.5732 648.741 15.8418C648.516 15.1104 648.403 14.2764 648.403 13.3398V9.74072C648.403 8.79736 648.512 7.96338 648.731 7.23877C648.956 6.50732 649.274 5.89209 649.685 5.39307C650.102 4.89404 650.601 4.51465 651.182 4.25488C651.769 3.99512 652.426 3.86523 653.15 3.86523C653.895 3.86523 654.562 3.99512 655.15 4.25488C655.738 4.51465 656.237 4.89404 656.647 5.39307C657.064 5.89209 657.382 6.50732 657.601 7.23877C657.819 7.96338 657.929 8.79736 657.929 9.74072ZM657.139 13.3398V9.72021C657.139 8.90674 657.05 8.18555 656.872 7.55664C656.702 6.9209 656.449 6.3877 656.114 5.95703C655.779 5.51953 655.362 5.18799 654.863 4.9624C654.371 4.73682 653.8 4.62402 653.15 4.62402C652.521 4.62402 651.961 4.73682 651.469 4.9624C650.977 5.18799 650.56 5.51953 650.218 5.95703C649.883 6.3877 649.626 6.9209 649.449 7.55664C649.278 8.18555 649.192 8.90674 649.192 9.72021V13.3398C649.192 14.1602 649.281 14.8882 649.459 15.5239C649.637 16.1528 649.896 16.686 650.238 17.1235C650.58 17.561 650.997 17.8926 651.489 18.1182C651.981 18.3438 652.545 18.4565 653.181 18.4565C653.824 18.4565 654.391 18.3438 654.883 18.1182C655.375 17.8926 655.789 17.561 656.124 17.1235C656.459 16.686 656.712 16.1528 656.883 15.5239C657.054 14.8882 657.139 14.1602 657.139 13.3398ZM668.506 4.07031V4.80859H661.748V19H660.949V4.07031H668.506ZM679.288 9.74072V13.3398C679.288 14.2764 679.179 15.1104 678.96 15.8418C678.741 16.5732 678.427 17.1885 678.016 17.6875C677.606 18.1865 677.107 18.5693 676.519 18.8359C675.938 19.0957 675.279 19.2256 674.54 19.2256C673.809 19.2256 673.149 19.0957 672.561 18.8359C671.974 18.5693 671.471 18.1865 671.054 17.6875C670.644 17.1885 670.326 16.5732 670.1 15.8418C669.875 15.1104 669.762 14.2764 669.762 13.3398V9.74072C669.762 8.79736 669.871 7.96338 670.09 7.23877C670.316 6.50732 670.634 5.89209 671.044 5.39307C671.461 4.89404 671.96 4.51465 672.541 4.25488C673.129 3.99512 673.785 3.86523 674.51 3.86523C675.255 3.86523 675.921 3.99512 676.509 4.25488C677.097 4.51465 677.596 4.89404 678.006 5.39307C678.423 5.89209 678.741 6.50732 678.96 7.23877C679.179 7.96338 679.288 8.79736 679.288 9.74072ZM678.498 13.3398V9.72021C678.498 8.90674 678.41 8.18555 678.232 7.55664C678.061 6.9209 677.808 6.3877 677.473 5.95703C677.138 5.51953 676.721 5.18799 676.222 4.9624C675.73 4.73682 675.159 4.62402 674.51 4.62402C673.881 4.62402 673.32 4.73682 672.828 4.9624C672.336 5.18799 671.919 5.51953 671.577 5.95703C671.242 6.3877 670.986 6.9209 670.808 7.55664C670.637 8.18555 670.552 8.90674 670.552 9.72021V13.3398C670.552 14.1602 670.641 14.8882 670.818 15.5239C670.996 16.1528 671.256 16.686 671.598 17.1235C671.939 17.561 672.356 17.8926 672.849 18.1182C673.341 18.3438 673.905 18.4565 674.54 18.4565C675.183 18.4565 675.75 18.3438 676.243 18.1182C676.735 17.8926 677.148 17.561 677.483 17.1235C677.818 16.686 678.071 16.1528 678.242 15.5239C678.413 14.8882 678.498 14.1602 678.498 13.3398ZM690.957 12.7861H687.256V12.0273H690.957C691.764 12.0273 692.413 11.8701 692.906 11.5557C693.405 11.2344 693.767 10.8071 693.992 10.2739C694.225 9.73389 694.341 9.13916 694.341 8.48975C694.341 7.81982 694.225 7.20801 693.992 6.6543C693.767 6.09375 693.405 5.646 692.906 5.31104C692.413 4.97607 691.764 4.80859 690.957 4.80859H687.615V19H686.835V4.07031H690.957C691.867 4.07031 692.629 4.25488 693.244 4.62402C693.866 4.98633 694.334 5.49902 694.649 6.16211C694.97 6.81836 695.131 7.5874 695.131 8.46924C695.131 9.35791 694.973 10.127 694.659 10.7764C694.345 11.4258 693.88 11.9248 693.264 12.2734C692.649 12.6152 691.88 12.7861 690.957 12.7861ZM700.294 4.6958L695.844 19H695.013L699.771 4.07031H700.386L700.294 4.6958ZM704.488 19L700.048 4.6958L699.966 4.07031H700.571L705.318 19H704.488ZM703.452 13.9038V14.6421H696.93V13.9038H703.452ZM717.7 18.2412L717.659 22.5991H716.921V19H715.68V18.2412H717.7ZM707.354 19V4.07031H708.154V18.2515H715.721V4.07031H716.51V19H707.354ZM721.233 4.07031V19H720.443V4.07031H721.233ZM734.096 9.74072V13.3398C734.096 14.2764 733.987 15.1104 733.768 15.8418C733.549 16.5732 733.235 17.1885 732.825 17.6875C732.415 18.1865 731.916 18.5693 731.328 18.8359C730.747 19.0957 730.087 19.2256 729.349 19.2256C728.617 19.2256 727.958 19.0957 727.37 18.8359C726.782 18.5693 726.279 18.1865 725.862 17.6875C725.452 17.1885 725.134 16.5732 724.909 15.8418C724.683 15.1104 724.57 14.2764 724.57 13.3398V9.74072C724.57 8.79736 724.68 7.96338 724.899 7.23877C725.124 6.50732 725.442 5.89209 725.852 5.39307C726.269 4.89404 726.768 4.51465 727.349 4.25488C727.937 3.99512 728.593 3.86523 729.318 3.86523C730.063 3.86523 730.73 3.99512 731.318 4.25488C731.905 4.51465 732.404 4.89404 732.815 5.39307C733.232 5.89209 733.549 6.50732 733.768 7.23877C733.987 7.96338 734.096 8.79736 734.096 9.74072ZM733.307 13.3398V9.72021C733.307 8.90674 733.218 8.18555 733.04 7.55664C732.869 6.9209 732.616 6.3877 732.281 5.95703C731.946 5.51953 731.529 5.18799 731.03 4.9624C730.538 4.73682 729.967 4.62402 729.318 4.62402C728.689 4.62402 728.129 4.73682 727.636 4.9624C727.144 5.18799 726.727 5.51953 726.385 5.95703C726.05 6.3877 725.794 6.9209 725.616 7.55664C725.445 8.18555 725.36 8.90674 725.36 9.72021V13.3398C725.36 14.1602 725.449 14.8882 725.627 15.5239C725.804 16.1528 726.064 16.686 726.406 17.1235C726.748 17.561 727.165 17.8926 727.657 18.1182C728.149 18.3438 728.713 18.4565 729.349 18.4565C729.991 18.4565 730.559 18.3438 731.051 18.1182C731.543 17.8926 731.957 17.561 732.292 17.1235C732.627 16.686 732.88 16.1528 733.05 15.5239C733.221 14.8882 733.307 14.1602 733.307 13.3398ZM745.74 10.9404V11.689H737.691V10.9404H745.74ZM737.937 4.07031V19H737.157V4.07031H737.937ZM746.324 4.07031V19H745.535V4.07031H746.324ZM754.02 13.9448L757.917 4.07031H758.86L753.856 16.3853C753.747 16.645 753.613 16.9355 753.456 17.2568C753.306 17.5781 753.114 17.8892 752.882 18.1899C752.649 18.4907 752.362 18.7368 752.021 18.9282C751.679 19.1196 751.272 19.2153 750.8 19.2153C750.684 19.2153 750.541 19.2017 750.37 19.1743C750.206 19.1538 750.086 19.123 750.011 19.082L750.113 18.3745C750.195 18.4019 750.308 18.4258 750.452 18.4463C750.602 18.46 750.729 18.4668 750.831 18.4668C751.228 18.4668 751.563 18.3643 751.836 18.1592C752.109 17.9473 752.345 17.6704 752.544 17.3286C752.742 16.9868 752.916 16.6245 753.066 16.2417L754.02 13.9448ZM749.508 4.07031L754.092 14.2627L754.379 14.9497L753.682 15.2266L748.586 4.07031H749.508ZM756.681 18.4053C756.681 18.2207 756.743 18.0635 756.866 17.9336C756.989 17.7969 757.156 17.7285 757.368 17.7285C757.58 17.7285 757.751 17.7969 757.881 17.9336C758.018 18.0635 758.086 18.2207 758.086 18.4053C758.086 18.5898 758.018 18.7471 757.881 18.877C757.751 19.0068 757.58 19.0718 757.368 19.0718C757.156 19.0718 756.989 19.0068 756.866 18.877C756.743 18.7471 756.681 18.5898 756.681 18.4053ZM774.636 10.9404V11.689H766.587V10.9404H774.636ZM766.833 4.07031V19H766.054V4.07031H766.833ZM775.221 4.07031V19H774.431V4.07031H775.221ZM786.516 18.2515V19H779.235V18.2515H786.516ZM779.543 4.07031V19H778.764V4.07031H779.543ZM785.644 10.9404V11.689H779.235V10.9404H785.644ZM786.495 4.07031V4.80859H779.235V4.07031H786.495ZM799.272 11.0635V11.8018H793.694V11.0635H799.272ZM801.517 14.4062H802.307C802.225 15.4521 801.989 16.334 801.599 17.0518C801.217 17.7627 800.697 18.2993 800.041 18.6616C799.391 19.0239 798.622 19.2051 797.734 19.2051C797.03 19.2051 796.39 19.0479 795.816 18.7334C795.249 18.4121 794.76 17.9609 794.35 17.3799C793.94 16.792 793.625 16.0947 793.407 15.2881C793.188 14.4746 793.078 13.5757 793.078 12.5913V10.479C793.078 9.49463 793.188 8.59912 793.407 7.79248C793.625 6.979 793.94 6.28174 794.35 5.70068C794.76 5.11279 795.252 4.66162 795.826 4.34717C796.408 4.02588 797.057 3.86523 797.775 3.86523C798.65 3.86523 799.412 4.04639 800.061 4.40869C800.711 4.771 801.227 5.30762 801.61 6.01855C801.992 6.72949 802.225 7.61133 802.307 8.66406H801.507C801.432 7.7959 801.241 7.06104 800.933 6.45947C800.632 5.85107 800.219 5.38965 799.692 5.0752C799.173 4.76074 798.534 4.60352 797.775 4.60352C797.173 4.60352 796.633 4.74365 796.155 5.02393C795.676 5.29736 795.266 5.69385 794.924 6.21338C794.582 6.73291 794.319 7.35156 794.135 8.06934C793.957 8.78027 793.868 9.57666 793.868 10.4585V12.5913C793.868 13.2886 793.926 13.938 794.042 14.5396C794.159 15.1411 794.323 15.6846 794.534 16.1699C794.753 16.6484 795.02 17.0586 795.334 17.4004C795.649 17.7422 796.008 18.0054 796.411 18.1899C796.814 18.3677 797.255 18.4565 797.734 18.4565C798.492 18.4565 799.138 18.313 799.672 18.0259C800.205 17.7319 800.625 17.2876 800.933 16.6929C801.241 16.0913 801.435 15.3291 801.517 14.4062ZM818.365 4.07031V4.80859H811.987V4.07031H818.365ZM818.939 4.07031V19H818.15V4.07031H818.939ZM811.7 4.07031H812.49L812.141 10.7148C812.079 11.9043 812.004 12.957 811.915 13.873C811.826 14.7822 811.707 15.5615 811.556 16.2109C811.413 16.8604 811.221 17.3901 810.982 17.8003C810.75 18.2104 810.456 18.5146 810.1 18.7129C809.752 18.9043 809.328 19 808.829 19H808.49V18.2515H808.808C809.157 18.2515 809.458 18.1797 809.711 18.0361C809.97 17.8857 810.189 17.6465 810.367 17.3184C810.552 16.9834 810.705 16.5288 810.828 15.9546C810.951 15.3735 811.057 14.6489 811.146 13.7808C811.235 12.9126 811.307 11.8701 811.362 10.6533L811.7 4.07031ZM823.508 4.07031V19H822.718V4.07031H823.508ZM828.127 4.07031V19H827.327V4.07031H828.127ZM836.084 4.07031L830.424 11.8223H827.809L827.789 11.0737H829.983L835.079 4.07031H836.084ZM835.469 19L829.881 11.73L830.342 11.0327L836.474 19H835.469ZM842.703 4.6958L838.253 19H837.422L842.18 4.07031H842.796L842.703 4.6958ZM846.897 19L842.457 4.6958L842.375 4.07031H842.98L847.728 19H846.897ZM845.861 13.9038V14.6421H839.34V13.9038H845.861ZM853.988 12.7861H850.286V12.0273H853.988C854.794 12.0273 855.444 11.8701 855.936 11.5557C856.435 11.2344 856.797 10.8071 857.023 10.2739C857.255 9.73389 857.372 9.13916 857.372 8.48975C857.372 7.81982 857.255 7.20801 857.023 6.6543C856.797 6.09375 856.435 5.646 855.936 5.31104C855.444 4.97607 854.794 4.80859 853.988 4.80859H850.645V19H849.866V4.07031H853.988C854.897 4.07031 855.659 4.25488 856.274 4.62402C856.897 4.98633 857.365 5.49902 857.679 6.16211C858.001 6.81836 858.161 7.5874 858.161 8.46924C858.161 9.35791 858.004 10.127 857.69 10.7764C857.375 11.4258 856.91 11.9248 856.295 12.2734C855.68 12.6152 854.911 12.7861 853.988 12.7861ZM868.82 14.4062H869.62C869.538 15.5752 869.302 16.5117 868.913 17.2158C868.523 17.9199 868 18.4326 867.344 18.7539C866.694 19.0684 865.925 19.2256 865.037 19.2256C864.333 19.2256 863.697 19.0889 863.129 18.8154C862.569 18.542 862.087 18.1455 861.684 17.626C861.287 17.1064 860.983 16.4741 860.771 15.729C860.559 14.9771 860.453 14.126 860.453 13.1758V9.73047C860.453 8.80762 860.559 7.98389 860.771 7.25928C860.983 6.52783 861.291 5.9126 861.694 5.41357C862.097 4.90771 862.583 4.5249 863.15 4.26514C863.724 3.99854 864.37 3.86523 865.088 3.86523C865.956 3.86523 866.715 4.02246 867.364 4.33691C868.014 4.65137 868.53 5.16064 868.913 5.86475C869.302 6.56201 869.538 7.49512 869.62 8.66406H868.82C868.745 7.66602 868.557 6.87305 868.256 6.28516C867.956 5.69043 867.542 5.26318 867.016 5.00342C866.489 4.73682 865.847 4.60352 865.088 4.60352C864.486 4.60352 863.95 4.71631 863.478 4.94189C863.006 5.16748 862.603 5.49902 862.268 5.93652C861.94 6.36719 861.687 6.90039 861.509 7.53613C861.338 8.16504 861.253 8.88965 861.253 9.70996V13.1758C861.253 14.0098 861.338 14.7549 861.509 15.4111C861.68 16.0674 861.926 16.6245 862.248 17.0825C862.576 17.5405 862.972 17.8892 863.437 18.1284C863.909 18.3608 864.442 18.4771 865.037 18.4771C865.802 18.4771 866.448 18.3574 866.975 18.1182C867.508 17.8789 867.928 17.4653 868.236 16.8774C868.55 16.2827 868.745 15.459 868.82 14.4062ZM872.917 10.7764H876.444C877.354 10.7764 878.112 10.9507 878.721 11.2993C879.329 11.6479 879.791 12.1299 880.105 12.7451C880.419 13.3604 880.577 14.0747 880.577 14.8882C880.577 15.4897 880.488 16.0435 880.31 16.5493C880.132 17.0483 879.869 17.4824 879.521 17.8516C879.172 18.2139 878.741 18.4976 878.229 18.7026C877.716 18.9009 877.121 19 876.444 19H872.486V4.07031H873.286V18.2515H876.444C877.237 18.2515 877.876 18.0977 878.362 17.79C878.854 17.4756 879.213 17.062 879.438 16.5493C879.664 16.0298 879.777 15.4692 879.777 14.8677C879.777 14.2798 879.664 13.7329 879.438 13.2271C879.213 12.7212 878.854 12.3145 878.362 12.0068C877.876 11.6924 877.237 11.5352 876.444 11.5352H872.917V10.7764ZM884.294 4.07031V19H883.494V4.07031H884.294ZM892.251 4.07031L886.591 11.8223H883.976L883.956 11.0737H886.15L891.246 4.07031H892.251ZM891.636 19L886.047 11.73L886.509 11.0327L892.641 19H891.636ZM895.784 17.585L903.423 4.07031H904.202V19H903.423V5.45459L895.784 19H894.994V4.07031H895.784V17.585ZM908.012 4.07031H908.811L913.723 17.749L918.635 4.07031H919.424L914.031 19H913.426L908.012 4.07031ZM907.755 4.07031H908.473L908.545 12.0479V19H907.755V4.07031ZM918.983 4.07031H919.722V19H918.932V12.0479L918.983 4.07031ZM931.299 11.6582H929.709V11.002H931.258C932.092 11.002 932.768 10.8755 933.288 10.6226C933.807 10.3628 934.187 10.0005 934.426 9.53564C934.672 9.0708 934.795 8.52393 934.795 7.89502C934.795 7.26611 934.669 6.70557 934.416 6.21338C934.17 5.71436 933.784 5.32471 933.257 5.04443C932.738 4.75732 932.068 4.61377 931.247 4.61377C930.625 4.61377 930.055 4.75049 929.535 5.02393C929.022 5.29736 928.609 5.68701 928.294 6.19287C927.987 6.69189 927.833 7.28662 927.833 7.97705H927.054C927.054 7.34131 927.166 6.77051 927.392 6.26465C927.617 5.75195 927.925 5.31787 928.315 4.9624C928.704 4.60693 929.149 4.33691 929.648 4.15234C930.154 3.96094 930.687 3.86523 931.247 3.86523C931.91 3.86523 932.505 3.9541 933.032 4.13184C933.565 4.30273 934.019 4.55908 934.395 4.90088C934.778 5.24268 935.072 5.6665 935.277 6.17236C935.482 6.67822 935.585 7.2627 935.585 7.92578C935.585 8.43848 935.489 8.92041 935.298 9.37158C935.106 9.82275 934.829 10.2192 934.467 10.561C934.105 10.9028 933.657 11.1729 933.124 11.3711C932.591 11.5625 931.982 11.6582 931.299 11.6582ZM929.709 11.1353H931.299C932.051 11.1353 932.707 11.2207 933.267 11.3916C933.828 11.5625 934.293 11.812 934.662 12.1401C935.031 12.4683 935.308 12.875 935.492 13.3604C935.684 13.8389 935.78 14.3892 935.78 15.0112C935.78 15.6743 935.667 16.269 935.441 16.7954C935.216 17.3149 934.901 17.7559 934.498 18.1182C934.095 18.4805 933.616 18.7573 933.062 18.9487C932.515 19.1333 931.91 19.2256 931.247 19.2256C930.721 19.2256 930.198 19.1401 929.679 18.9692C929.166 18.7915 928.698 18.5249 928.274 18.1694C927.85 17.8071 927.508 17.3525 927.248 16.8057C926.995 16.2588 926.869 15.6094 926.869 14.8574H927.669C927.669 15.5547 927.819 16.1768 928.12 16.7236C928.421 17.2637 928.841 17.6909 929.381 18.0054C929.921 18.313 930.543 18.4668 931.247 18.4668C932.047 18.4668 932.724 18.3301 933.278 18.0566C933.831 17.7764 934.255 17.3799 934.549 16.8672C934.843 16.3545 934.99 15.7495 934.99 15.0522C934.99 14.4644 934.908 13.9653 934.744 13.5552C934.587 13.1382 934.347 12.7964 934.026 12.5298C933.712 12.2632 933.322 12.0684 932.857 11.9453C932.399 11.8154 931.866 11.7505 931.258 11.7505H929.709V11.1353ZM942.368 4.6958L937.918 19H937.087L941.845 4.07031H942.46L942.368 4.6958ZM946.562 19L942.122 4.6958L942.04 4.07031H942.645L947.392 19H946.562ZM945.526 13.9038V14.6421H939.005V13.9038H945.526ZM957.375 14.4062H958.174C958.092 15.5752 957.857 16.5117 957.467 17.2158C957.077 17.9199 956.554 18.4326 955.898 18.7539C955.249 19.0684 954.48 19.2256 953.591 19.2256C952.887 19.2256 952.251 19.0889 951.684 18.8154C951.123 18.542 950.641 18.1455 950.238 17.626C949.841 17.1064 949.537 16.4741 949.325 15.729C949.113 14.9771 949.008 14.126 949.008 13.1758V9.73047C949.008 8.80762 949.113 7.98389 949.325 7.25928C949.537 6.52783 949.845 5.9126 950.248 5.41357C950.652 4.90771 951.137 4.5249 951.704 4.26514C952.279 3.99854 952.924 3.86523 953.642 3.86523C954.51 3.86523 955.269 4.02246 955.919 4.33691C956.568 4.65137 957.084 5.16064 957.467 5.86475C957.857 6.56201 958.092 7.49512 958.174 8.66406H957.375C957.299 7.66602 957.112 6.87305 956.811 6.28516C956.51 5.69043 956.096 5.26318 955.57 5.00342C955.044 4.73682 954.401 4.60352 953.642 4.60352C953.041 4.60352 952.504 4.71631 952.032 4.94189C951.561 5.16748 951.157 5.49902 950.822 5.93652C950.494 6.36719 950.241 6.90039 950.064 7.53613C949.893 8.16504 949.807 8.88965 949.807 9.70996V13.1758C949.807 14.0098 949.893 14.7549 950.064 15.4111C950.235 16.0674 950.481 16.6245 950.802 17.0825C951.13 17.5405 951.527 17.8892 951.991 18.1284C952.463 18.3608 952.996 18.4771 953.591 18.4771C954.357 18.4771 955.003 18.3574 955.529 18.1182C956.062 17.8789 956.483 17.4653 956.79 16.8774C957.105 16.2827 957.299 15.459 957.375 14.4062ZM970.167 9.74072V13.3398C970.167 14.2764 970.057 15.1104 969.839 15.8418C969.62 16.5732 969.305 17.1885 968.895 17.6875C968.485 18.1865 967.986 18.5693 967.398 18.8359C966.817 19.0957 966.157 19.2256 965.419 19.2256C964.688 19.2256 964.028 19.0957 963.44 18.8359C962.852 18.5693 962.35 18.1865 961.933 17.6875C961.523 17.1885 961.205 16.5732 960.979 15.8418C960.754 15.1104 960.641 14.2764 960.641 13.3398V9.74072C960.641 8.79736 960.75 7.96338 960.969 7.23877C961.195 6.50732 961.512 5.89209 961.923 5.39307C962.34 4.89404 962.839 4.51465 963.42 4.25488C964.008 3.99512 964.664 3.86523 965.388 3.86523C966.133 3.86523 966.8 3.99512 967.388 4.25488C967.976 4.51465 968.475 4.89404 968.885 5.39307C969.302 5.89209 969.62 6.50732 969.839 7.23877C970.057 7.96338 970.167 8.79736 970.167 9.74072ZM969.377 13.3398V9.72021C969.377 8.90674 969.288 8.18555 969.111 7.55664C968.94 6.9209 968.687 6.3877 968.352 5.95703C968.017 5.51953 967.6 5.18799 967.101 4.9624C966.609 4.73682 966.038 4.62402 965.388 4.62402C964.759 4.62402 964.199 4.73682 963.707 4.9624C963.215 5.18799 962.798 5.51953 962.456 5.95703C962.121 6.3877 961.864 6.9209 961.687 7.55664C961.516 8.18555 961.43 8.90674 961.43 9.72021V13.3398C961.43 14.1602 961.519 14.8882 961.697 15.5239C961.875 16.1528 962.134 16.686 962.476 17.1235C962.818 17.561 963.235 17.8926 963.727 18.1182C964.219 18.3438 964.783 18.4565 965.419 18.4565C966.062 18.4565 966.629 18.3438 967.121 18.1182C967.613 17.8926 968.027 17.561 968.362 17.1235C968.697 16.686 968.95 16.1528 969.121 15.5239C969.292 14.8882 969.377 14.1602 969.377 13.3398ZM980.703 4.07031V4.80859H973.945V19H973.146V4.07031H980.703ZM973.587 10.7764H977.114C978.023 10.7764 978.782 10.9507 979.39 11.2993C979.999 11.6479 980.46 12.1299 980.775 12.7451C981.089 13.3604 981.246 14.0747 981.246 14.8882C981.246 15.4897 981.157 16.0435 980.98 16.5493C980.802 17.0483 980.539 17.4824 980.19 17.8516C979.841 18.2139 979.411 18.4976 978.898 18.7026C978.385 18.9009 977.791 19 977.114 19H973.156V4.07031H973.956V18.2515H977.114C977.907 18.2515 978.546 18.0977 979.031 17.79C979.524 17.4756 979.882 17.062 980.108 16.5493C980.334 16.0298 980.446 15.4692 980.446 14.8677C980.446 14.2798 980.334 13.7329 980.108 13.2271C979.882 12.7212 979.524 12.3145 979.031 12.0068C978.546 11.6924 977.907 11.5352 977.114 11.5352H973.587V10.7764ZM993.597 9.74072V13.3398C993.597 14.2764 993.488 15.1104 993.269 15.8418C993.05 16.5732 992.736 17.1885 992.326 17.6875C991.916 18.1865 991.417 18.5693 990.829 18.8359C990.248 19.0957 989.588 19.2256 988.85 19.2256C988.118 19.2256 987.459 19.0957 986.871 18.8359C986.283 18.5693 985.78 18.1865 985.363 17.6875C984.953 17.1885 984.635 16.5732 984.41 15.8418C984.184 15.1104 984.071 14.2764 984.071 13.3398V9.74072C984.071 8.79736 984.181 7.96338 984.4 7.23877C984.625 6.50732 984.943 5.89209 985.353 5.39307C985.77 4.89404 986.269 4.51465 986.85 4.25488C987.438 3.99512 988.094 3.86523 988.819 3.86523C989.564 3.86523 990.231 3.99512 990.818 4.25488C991.406 4.51465 991.905 4.89404 992.316 5.39307C992.733 5.89209 993.05 6.50732 993.269 7.23877C993.488 7.96338 993.597 8.79736 993.597 9.74072ZM992.808 13.3398V9.72021C992.808 8.90674 992.719 8.18555 992.541 7.55664C992.37 6.9209 992.117 6.3877 991.782 5.95703C991.447 5.51953 991.03 5.18799 990.531 4.9624C990.039 4.73682 989.468 4.62402 988.819 4.62402C988.19 4.62402 987.63 4.73682 987.137 4.9624C986.645 5.18799 986.228 5.51953 985.886 5.95703C985.551 6.3877 985.295 6.9209 985.117 7.55664C984.946 8.18555 984.861 8.90674 984.861 9.72021V13.3398C984.861 14.1602 984.95 14.8882 985.128 15.5239C985.305 16.1528 985.565 16.686 985.907 17.1235C986.249 17.561 986.666 17.8926 987.158 18.1182C987.65 18.3438 988.214 18.4565 988.85 18.4565C989.492 18.4565 990.06 18.3438 990.552 18.1182C991.044 17.8926 991.458 17.561 991.793 17.1235C992.128 16.686 992.38 16.1528 992.551 15.5239C992.722 14.8882 992.808 14.1602 992.808 13.3398ZM996.915 4.07031H997.714L1002.63 17.749L1007.54 4.07031H1008.33L1002.93 19H1002.33L996.915 4.07031ZM996.658 4.07031H997.376L997.448 12.0479V19H996.658V4.07031ZM1007.89 4.07031H1008.62V19H1007.84V12.0479L1007.89 4.07031Z" fill="#00ACDB"/>
</g>
<defs>
<filter id="filter0_b_273_2289" x="-75" y="-75" width="1174" height="175" filterUnits="userSpaceOnUse" color-interpolation-filters="sRGB">
<feFlood flood-opacity="0" result="BackgroundImageFix"/>
<feGaussianBlur in="BackgroundImageFix" stdDeviation="37.5"/>
<feComposite in2="SourceAlpha" operator="in" result="effect1_backgroundBlur_273_2289"/>
<feBlend mode="normal" in="SourceGraphic" in2="effect1_backgroundBlur_273_2289" result="shape"/>
</filter>
<linearGradient id="paint0_linear_273_2289" x1="1047.47" y1="7.03125" x2="1021.22" y2="167.619" gradientUnits="userSpaceOnUse">
<stop stop-color="#006BB6"/>
<stop offset="0.395713" stop-color="#004E9E"/>
<stop offset="0.724" stop-color="#094086"/>
<stop offset="1" stop-color="#092E67"/>
</linearGradient>
</defs>
</svg>
