<svg width="28" height="28" viewBox="0 0 28 28" fill="none" xmlns="http://www.w3.org/2000/svg">
<path d="M14.0006 2.625C7.728 2.625 2.625 7.7278 2.625 13.9998C2.625 20.2722 7.728 25.375 14.0006 25.375C20.2729 25.375 25.375 20.2722 25.375 13.9998C25.3755 7.7278 20.2729 2.625 14.0006 2.625ZM14.2447 15.6753L9.66207 15.6745C9.38003 15.6745 9.115 15.5649 8.91583 15.3657C8.71804 15.167 8.60781 14.9017 8.60781 14.6195C8.60781 14.3379 8.71666 14.0732 8.91583 13.8737C9.11533 13.6748 9.38003 13.5647 9.66207 13.5643H13.1898V9.3186C13.1898 9.03749 13.2989 8.77207 13.4981 8.57258C13.6974 8.37407 13.9621 8.26457 14.2455 8.26378C14.5262 8.26418 14.7914 8.37368 14.9905 8.57297C15.1897 8.77253 15.299 9.03716 15.299 9.31899L15.2998 14.6195C15.3005 15.2011 14.8263 15.6745 14.2447 15.6753Z" fill="#7DE2FF"/>
</svg>
