<svg width="28" height="28" viewBox="0 0 28 28" fill="none" xmlns="http://www.w3.org/2000/svg">
<path d="M14 2.625C10.9826 2.625 8.08971 3.82266 5.95681 5.95681C3.82272 8.08977 2.625 10.9826 2.625 14C2.625 17.0174 3.82266 19.9103 5.95681 22.0432C8.08977 24.1773 10.9826 25.375 14 25.375C17.0174 25.375 19.9103 24.1773 22.0432 22.0432C24.1773 19.9102 25.375 17.0174 25.375 14C25.375 10.9826 24.1773 8.08971 22.0432 5.95681C19.9102 3.82272 17.0174 2.625 14 2.625ZM13.05 14.8515C12.5298 15.8003 11.7562 16.5875 10.8153 17.1236V21.2209C10.8153 21.6201 10.4907 21.9447 10.0915 21.9447C9.69224 21.9447 9.36766 21.6201 9.36766 21.2209V17.1236C8.46855 16.6192 7.71988 15.8829 7.20077 14.9929C6.68053 14.1017 6.4091 13.0884 6.41136 12.0568V11.9991V11.9437V8.41504C6.41136 8.01469 6.73594 7.69124 7.13516 7.69124C7.53551 7.69124 7.85896 8.01469 7.85896 8.41504V11.3328H9.36763V8.41504C9.36763 8.01469 9.69221 7.69124 10.0914 7.69124C10.4907 7.69124 10.8152 8.01469 10.8152 8.41504V11.3328H12.3205V8.41504C12.3205 8.01469 12.6451 7.69124 13.0443 7.69124C13.4447 7.69124 13.7681 8.01469 13.7681 8.41504V12.0566C13.7659 13.0338 13.5193 13.9939 13.05 14.8512L13.05 14.8515ZM19.3043 16.5185C19.3065 16.5592 19.3065 16.5999 19.3043 16.6406V20.9484C19.3043 21.3476 18.9797 21.6722 18.5805 21.6722C18.1801 21.6722 17.8567 21.3476 17.8567 20.9484V16.6406C17.8533 16.5999 17.8533 16.5592 17.8567 16.5185C16.5538 16.0786 15.5869 14.4918 15.5869 12.8068C15.5869 10.8378 16.9214 8.41421 18.5692 8.41421C20.2171 8.41421 21.5516 10.8378 21.5516 12.8068C21.5742 14.4806 20.6071 16.0787 19.3043 16.5185Z" fill="#7DE2FF"/>
</svg>
