<svg width="28" height="28" viewBox="0 0 28 28" fill="none" xmlns="http://www.w3.org/2000/svg">
<path fill-rule="evenodd" clip-rule="evenodd" d="M22.177 22.9508C22.177 28.5164 2.625 28.5164 2.625 22.9508C2.625 18.9606 4.00036 15.5122 7.2638 13.8798C6.5953 14.9898 6.34395 16.2032 6.34395 17.506V18.7465C5.58193 18.9241 4.75792 20.0032 4.75792 20.8112C4.75792 22.1237 5.62228 23.4305 7.61295 23.221C9.22678 23.0511 9.6298 21.7746 9.6298 20.6803C9.6298 19.8478 8.72411 18.9241 7.9618 18.7465V17.506C7.9618 15.8343 8.38367 14.5604 9.48053 13.3314C10.403 13.034 11.3842 12.8738 12.4018 12.8738C14.3064 12.8738 16.0832 13.4358 17.586 14.4068C17.304 15.0786 17.1476 15.8197 17.1476 16.5982C17.1476 19.5235 19.3532 21.9175 22.1434 22.1106C22.1652 22.3876 22.177 22.6677 22.177 22.9508ZM23.3824 10.9633C20.8323 10.9633 18.7652 13.0942 18.7652 15.7232C18.7652 18.3523 20.8323 20.4832 23.3824 20.4832C25.9325 20.4832 28 18.3523 28 15.7232C28 13.0942 25.9325 10.9633 23.3824 10.9633ZM22.6246 12.9978C22.4785 12.9978 22.3593 13.1206 22.3593 13.2712V14.3949C22.3593 14.5454 22.2402 14.6683 22.0941 14.6683H21.004C20.858 14.6683 20.7388 14.7911 20.7388 14.9417V16.5042C20.7388 16.6547 20.858 16.7776 21.004 16.7776H22.0941C22.2402 16.7776 22.3593 16.9004 22.3593 17.051V18.1747C22.3593 18.3252 22.4785 18.4481 22.6246 18.4481H24.1403C24.2864 18.4481 24.4056 18.3252 24.4056 18.1747V17.051C24.4056 16.9004 24.5247 16.7776 24.6708 16.7776H25.7608C25.9069 16.7776 26.0261 16.6547 26.0261 16.5042V14.9417C26.0261 14.7911 25.9069 14.6683 25.7608 14.6683H24.6708C24.5247 14.6683 24.4056 14.5454 24.4056 14.3949V13.2712C24.4056 13.1206 24.2864 12.9978 24.1403 12.9978H22.6246ZM7.2638 19.8478C6.74753 19.8478 6.3292 20.279 6.3292 20.8112C6.3292 21.3434 6.74753 21.7746 7.2638 21.7746C7.78008 21.7746 8.19841 21.3434 8.19841 20.8112C8.19841 20.279 7.77978 19.8478 7.2638 19.8478ZM7.88303 5.53187C7.88303 8.10436 9.90594 10.1897 12.4015 10.1897C14.897 10.1897 16.9199 8.10436 16.9199 5.53187C16.9199 2.9603 14.897 0.875 12.4015 0.875C9.90594 0.874696 7.88303 2.96 7.88303 5.53187Z" fill="#7DE2FF"/>
</svg>
