<svg width="240" height="245" viewBox="0 0 240 245" fill="none" xmlns="http://www.w3.org/2000/svg">
<g clip-path="url(#clip0_17_7989)">
<path d="M221.436 128.125C220.859 145.173 215.984 161.799 207.266 176.459C198.547 191.12 186.266 203.341 171.564 211.988L120.23 124.696L221.436 128.125Z" fill="url(#paint0_linear_17_7989)"/>
<path d="M173.983 38.8662C188.439 47.9202 200.374 60.4792 208.68 75.3777C216.986 90.2761 221.394 107.031 221.495 124.089L120.233 124.691L173.983 38.8662Z" fill="url(#paint1_linear_17_7989)"/>
<path d="M73.1744 35.0241C88.2779 27.0979 105.139 23.1153 122.192 23.4461C139.246 23.7768 155.94 28.41 170.725 36.9158L120.23 124.696L73.1744 35.0241Z" fill="url(#paint2_linear_17_7989)"/>
<path d="M19.0647 120.249C19.8138 103.208 24.855 86.6319 33.7207 72.0594C42.5864 57.487 54.9893 45.3902 69.7784 36.8914L120.231 124.695L19.0647 120.249Z" fill="url(#paint3_linear_17_7989)"/>
<path d="M65.8374 210.112C51.4501 200.95 39.6102 188.301 31.4163 173.341C23.2225 158.38 18.9402 141.593 18.9669 124.535L120.231 124.694L65.8374 210.112Z" fill="url(#paint4_linear_17_7989)"/>
<path d="M167.25 214.387C152.143 222.307 135.28 226.282 118.227 225.945C101.173 225.607 84.4814 220.967 69.6999 212.455L120.232 124.696L167.25 214.387Z" fill="url(#paint5_linear_17_7989)"/>
<g filter="url(#filter0_d_17_7989)">
<path d="M125.603 112.863C131.725 116.144 134.013 123.796 130.712 129.954C127.412 136.113 119.774 138.445 113.652 135.163C107.529 131.882 105.242 124.23 108.542 118.072C111.842 111.913 119.48 109.581 125.603 112.863Z" fill="#EAF0F6"/>
</g>
<path d="M123.96 115.928C128.411 118.314 130.054 123.863 127.665 128.321C125.276 132.78 119.726 134.474 115.294 132.098C110.862 129.723 109.2 124.163 111.589 119.705C113.978 115.247 119.528 113.552 123.96 115.928Z" fill="url(#paint6_linear_17_7989)"/>
<g filter="url(#filter1_d_17_7989)">
<path d="M128.092 85.8207C128.105 86.7329 127.94 87.5969 127.597 88.4127C127.254 89.2286 126.761 89.9409 126.12 90.5497C125.478 91.1501 124.715 91.5874 123.832 91.8617L122.991 88.9208C123.715 88.6994 124.271 88.3073 124.66 87.7442C125.04 87.1729 125.221 86.5494 125.203 85.8738C125.194 85.2741 125.047 84.7397 124.762 84.2706C124.476 83.8015 124.095 83.4351 123.618 83.1714C123.133 82.9079 122.594 82.7803 122.003 82.7885C121.099 82.8012 120.347 83.1032 119.748 83.6945C119.148 84.2858 118.855 85.0418 118.868 85.9625C118.872 86.2413 118.914 86.5152 118.994 86.7845C119.074 87.0452 119.183 87.2972 119.322 87.5402L116.935 88.9676L111.601 82.9089L112.332 82.6325L112.457 91.3113L109.581 91.3516L109.419 80.1642L112.308 80.1237L117.118 84.9859L116.219 85.0239C116.279 83.9163 116.573 82.9702 117.103 82.1855C117.632 81.3924 118.32 80.783 119.167 80.3571C120.014 79.9229 120.944 79.6986 121.958 79.6844C123.107 79.6683 124.141 79.9369 125.062 80.49C125.982 81.0347 126.715 81.7763 127.261 82.7149C127.798 83.6451 128.075 84.6804 128.092 85.8207ZM127.897 69.7534C127.916 71.0458 127.658 72.1899 127.123 73.1858C126.58 74.1819 125.818 74.9656 124.838 75.5369C123.858 76.0997 122.721 76.3902 121.429 76.4083L115.55 76.4907C114.258 76.5088 113.114 76.2502 112.118 75.715C111.121 75.1714 110.341 74.4093 109.778 73.4288C109.206 72.4483 108.911 71.3119 108.892 70.0196C108.874 68.7273 109.136 67.5873 109.679 66.5997C110.214 65.6038 110.972 64.8202 111.952 64.2489C112.932 63.6776 114.068 63.3829 115.361 63.3648L121.239 63.2824C122.532 63.2643 123.676 63.5271 124.672 64.0707C125.669 64.6143 126.453 65.3764 127.024 66.3568C127.588 67.3289 127.879 68.4611 127.897 69.7534ZM124.996 69.7941C124.987 69.1521 124.826 68.5715 124.514 68.052C124.194 67.5327 123.774 67.1246 123.255 66.8278C122.727 66.531 122.142 66.3872 121.5 66.3962L115.178 66.4847C114.527 66.4938 113.947 66.654 113.436 66.9653C112.916 67.2767 112.509 67.6964 112.212 68.2243C111.907 68.7524 111.759 69.3374 111.768 69.9793C111.778 70.6213 111.942 71.2019 112.263 71.7212C112.574 72.2406 112.994 72.6487 113.522 72.9455C114.042 73.2423 114.627 73.3862 115.277 73.3771L121.599 73.2885C122.241 73.2795 122.822 73.1193 123.341 72.8079C123.852 72.4966 124.26 72.077 124.565 71.5489C124.862 71.021 125.005 70.436 124.996 69.7941ZM127.345 57.8271L125.68 59.5401L111.97 46.2044L113.645 44.4912L127.345 57.8271ZM127.512 47.4651C127.522 48.162 127.362 48.8013 127.032 49.3832C126.696 49.9582 126.245 50.4221 125.68 50.775C125.108 51.128 124.469 51.3094 123.766 51.3193C123.076 51.329 122.44 51.1619 121.857 50.818C121.275 50.4742 120.807 50.016 120.454 49.4437C120.101 48.8714 119.919 48.2473 119.91 47.5716C119.9 46.8748 120.063 46.2353 120.399 45.6533C120.729 45.0714 121.18 44.6075 121.752 44.2615C122.317 43.9086 122.952 43.7273 123.656 43.7174C124.36 43.7076 125.003 43.871 125.585 44.2079C126.16 44.5377 126.624 44.9888 126.977 45.5612C127.323 46.1336 127.502 46.7683 127.512 47.4651ZM125.337 47.4956C125.332 47.207 125.255 46.9406 125.103 46.6963C124.952 46.4449 124.752 46.2471 124.503 46.1027C124.255 45.9584 123.983 45.8883 123.687 45.8924C123.392 45.8965 123.122 45.9742 122.877 46.1255C122.633 46.2768 122.439 46.4801 122.295 46.7356C122.151 46.984 122.081 47.2525 122.085 47.5411C122.089 47.8368 122.167 48.1067 122.318 48.351C122.47 48.5953 122.67 48.7931 122.918 48.9445C123.167 49.0889 123.439 49.159 123.734 49.1549C124.03 49.1507 124.3 49.073 124.544 48.9218C124.788 48.7635 124.982 48.5601 125.127 48.3117C125.271 48.0632 125.341 47.7912 125.337 47.4956ZM119.405 56.4599C119.415 57.1567 119.255 57.7961 118.925 58.378C118.589 58.96 118.138 59.4275 117.573 59.7804C117.001 60.1263 116.362 60.3042 115.659 60.3141C114.969 60.3237 114.333 60.1566 113.75 59.8128C113.168 59.4689 112.7 59.0108 112.347 58.4385C111.994 57.8661 111.812 57.2421 111.803 56.5664C111.793 55.8695 111.956 55.2336 112.293 54.6586C112.622 54.0767 113.073 53.6093 113.645 53.2563C114.21 52.9034 114.845 52.722 115.549 52.7122C116.253 52.7023 116.896 52.8658 117.478 53.2026C118.053 53.5395 118.517 53.9942 118.87 54.5665C119.216 55.1319 119.395 55.763 119.405 56.4599ZM117.23 56.4903C117.225 56.1947 117.147 55.9248 116.996 55.6805C116.845 55.4362 116.645 55.2419 116.396 55.0975C116.148 54.9531 115.876 54.883 115.58 54.8872C115.284 54.8913 115.015 54.969 114.77 55.1203C114.526 55.2715 114.332 55.4714 114.188 55.7198C114.043 55.9682 113.973 56.2403 113.978 56.5359C113.982 56.8315 114.06 57.1015 114.211 57.3458C114.363 57.5901 114.562 57.7844 114.811 57.9287C115.059 58.0731 115.331 58.1432 115.627 58.1391C115.923 58.1349 116.193 58.0572 116.437 57.906C116.681 57.7547 116.875 57.5549 117.02 57.3064C117.164 57.058 117.234 56.786 117.23 56.4903Z" fill="#EAF0F6"/>
</g>
<g filter="url(#filter2_d_17_7989)">
<path d="M82.8466 95.8422C83.4237 96.1733 83.8934 96.5997 84.2557 97.1213C84.615 97.6482 84.8546 98.225 84.9747 98.8518C85.0895 99.4755 85.0653 100.11 84.9021 100.756L82.7952 100.195C82.8971 99.8494 82.9145 99.5108 82.8474 99.1794C82.7751 98.845 82.6426 98.5423 82.4498 98.2714C82.2518 97.9974 82.0111 97.7791 81.7278 97.6166C81.3606 97.4059 80.9734 97.3023 80.5663 97.3058C80.1592 97.3093 79.7802 97.4092 79.4295 97.6054C79.0757 97.8069 78.793 98.091 78.5813 98.4576C78.3696 98.8243 78.2693 99.2096 78.2806 99.6135C78.2835 100.02 78.3873 100.396 78.5918 100.744C78.7932 101.097 79.075 101.377 79.437 101.584C79.8724 101.834 80.2798 101.963 80.659 101.972C81.0331 101.977 81.3476 101.934 81.6025 101.844L82.9243 103.292L79.1213 109.081L72.9673 105.55L73.9925 103.774L79.1313 106.723L78.0375 106.984L80.6936 102.964L80.7949 103.587C80.3469 103.686 79.8909 103.689 79.4271 103.598C78.9632 103.506 78.5503 103.356 78.1883 103.148C77.4801 102.742 76.9469 102.22 76.5888 101.582C76.2224 100.947 76.0447 100.262 76.0557 99.5295C76.0615 98.7937 76.2686 98.0722 76.6768 97.365C77.0851 96.6579 77.6392 96.1216 78.3391 95.7561C79.036 95.3958 79.7844 95.2185 80.5843 95.2242C81.379 95.2268 82.133 95.4328 82.8466 95.8422ZM75.8099 92.1189L76.2365 93.7025L63.5265 97.1214L63.1035 95.5314L75.8099 92.1189ZM69.7427 88.3869C70.1582 88.6253 70.48 88.9438 70.708 89.3424C70.9294 89.7428 71.045 90.1717 71.0547 90.6291C71.0619 91.0908 70.9446 91.5311 70.7027 91.9501C70.4656 92.3608 70.1429 92.6778 69.7346 92.901C69.3264 93.1242 68.8909 93.2398 68.4282 93.2476C67.9655 93.2555 67.5327 93.1439 67.1297 92.9127C66.7142 92.6743 66.3937 92.3537 66.1681 91.9509C65.94 91.5523 65.8245 91.1234 65.8214 90.6642C65.8117 90.2068 65.9279 89.7686 66.1698 89.3495C66.4117 88.9305 66.7347 88.6081 67.1388 88.3825C67.5362 88.1586 67.9663 88.0428 68.429 88.0349C68.8893 88.0312 69.3272 88.1486 69.7427 88.3869ZM68.9951 89.6818C68.823 89.5831 68.6381 89.5356 68.4404 89.5393C68.2385 89.5406 68.0512 89.5893 67.8783 89.6854C67.7055 89.7815 67.5683 89.9176 67.4667 90.0936C67.3651 90.2696 67.316 90.4562 67.3195 90.6534C67.3229 90.8507 67.3748 91.0366 67.4751 91.2113C67.5712 91.3836 67.7053 91.5191 67.8773 91.6178C68.0536 91.719 68.2406 91.7677 68.4383 91.764C68.636 91.7602 68.8234 91.7115 69.0004 91.6178C69.1732 91.5217 69.3104 91.3857 69.4121 91.2097C69.5137 91.0337 69.5627 90.8471 69.5593 90.6498C69.5516 90.4502 69.4998 90.2642 69.4037 90.0919C69.3076 89.9197 69.1714 89.783 68.9951 89.6818ZM72.2066 96.3275C72.6221 96.5659 72.9439 96.8844 73.172 97.283C73.3976 97.6858 73.5152 98.1159 73.5249 98.5733C73.528 99.0325 73.4085 99.4716 73.1666 99.8907C72.9295 100.301 72.6068 100.618 72.1986 100.842C71.7903 101.065 71.3548 101.18 70.8921 101.188C70.4294 101.196 69.9966 101.084 69.5937 100.853C69.1782 100.615 68.8597 100.295 68.6383 99.8951C68.4103 99.4965 68.2926 99.0664 68.2853 98.6048C68.2757 98.1474 68.3918 97.7091 68.6337 97.2901C68.8757 96.871 69.1987 96.5487 69.6027 96.3231C70.0043 96.1016 70.4365 95.987 70.8992 95.9791C71.3553 95.973 71.7911 96.0891 72.2066 96.3275ZM71.459 97.6224C71.2828 97.5212 71.0958 97.4725 70.8981 97.4763C70.7004 97.48 70.5151 97.5299 70.3423 97.626C70.1695 97.7221 70.0322 97.8581 69.9306 98.0342C69.829 98.2102 69.7799 98.3968 69.7834 98.594C69.7869 98.7912 69.8366 98.976 69.9327 99.1483C70.0288 99.3206 70.165 99.4573 70.3413 99.5584C70.5176 99.6595 70.7045 99.7082 70.9023 99.7045C71.1 99.7008 71.2852 99.6509 71.458 99.5548C71.6309 99.4587 71.7681 99.3226 71.8697 99.1466C71.9713 98.9706 72.0204 98.784 72.0169 98.5868C72.0135 98.3895 71.9637 98.2048 71.8676 98.0325C71.7715 97.8602 71.6353 97.7235 71.459 97.6224Z" fill="#EAF0F6"/>
</g>
<g filter="url(#filter3_d_17_7989)">
<path d="M146.304 148.45L147.478 146.325L156.767 144.235C157.49 144.073 158.052 143.852 158.453 143.573C158.854 143.294 159.153 142.975 159.35 142.618C159.618 142.132 159.753 141.642 159.753 141.149C159.756 140.648 159.635 140.183 159.387 139.755C159.147 139.33 158.787 138.984 158.309 138.718C157.805 138.437 157.292 138.306 156.771 138.325C156.26 138.34 155.791 138.48 155.363 138.745C154.936 139.009 154.606 139.368 154.373 139.82L151.869 138.426C152.405 137.455 153.088 136.729 153.918 136.247C154.754 135.769 155.663 135.543 156.643 135.568C157.631 135.598 158.626 135.892 159.629 136.45C160.558 136.967 161.277 137.641 161.786 138.471C162.3 139.295 162.565 140.192 162.583 141.164C162.605 142.128 162.353 143.086 161.828 144.037C161.444 144.731 161.027 145.262 160.578 145.629C160.129 145.996 159.605 146.274 159.009 146.462C158.419 146.654 157.713 146.839 156.893 147.017L150.317 148.475L150.43 147.744L157.58 151.724L156.311 154.021L146.304 148.45ZM162.871 158.096C162.131 157.684 161.525 157.148 161.053 156.489C160.585 155.822 160.267 155.09 160.101 154.292C159.941 153.498 159.958 152.687 160.151 151.86L162.84 152.537C162.718 152.98 162.704 153.413 162.796 153.835C162.896 154.261 163.071 154.645 163.322 154.987C163.579 155.333 163.89 155.608 164.253 155.81C164.725 156.072 165.219 156.198 165.736 156.186C166.253 156.174 166.732 156.039 167.174 155.782C167.619 155.519 167.972 155.151 168.232 154.679C168.493 154.207 168.612 153.713 168.589 153.197C168.576 152.679 168.436 152.199 168.168 151.76C167.905 151.313 167.541 150.96 167.076 150.702C166.517 150.391 165.997 150.233 165.515 150.229C165.04 150.229 164.641 150.29 164.319 150.41L162.608 148.585L167.311 141.124L175.208 145.52L173.945 147.806L167.351 144.135L168.735 143.781L165.449 148.963L165.307 148.169C165.874 148.035 166.453 148.022 167.044 148.131C167.635 148.24 168.163 148.423 168.628 148.682C169.537 149.188 170.226 149.845 170.695 150.653C171.174 151.458 171.415 152.328 171.417 153.264C171.426 154.204 171.179 155.129 170.676 156.039C170.173 156.95 169.481 157.644 168.6 158.124C167.722 158.597 166.776 158.837 165.759 158.844C164.75 158.855 163.787 158.606 162.871 158.096ZM172.008 162.786L171.407 160.688L188.148 155.898L188.745 158.005L172.008 162.786ZM180.123 167.634C179.568 167.325 179.135 166.908 178.824 166.382C178.522 165.853 178.359 165.285 178.335 164.677C178.315 164.063 178.46 163.475 178.771 162.913C179.075 162.362 179.495 161.935 180.03 161.63C180.565 161.325 181.139 161.163 181.751 161.144C182.363 161.125 182.938 161.265 183.477 161.565C184.032 161.874 184.464 162.294 184.772 162.826C185.083 163.352 185.246 163.92 185.26 164.531C185.284 165.139 185.14 165.724 184.83 166.286C184.519 166.848 184.099 167.283 183.569 167.591C183.049 167.896 182.482 168.058 181.87 168.078C181.261 168.091 180.679 167.944 180.123 167.634ZM181.083 165.898C181.313 166.026 181.559 166.086 181.82 166.077C182.087 166.071 182.334 166.003 182.561 165.872C182.787 165.741 182.966 165.557 183.096 165.321C183.226 165.085 183.287 164.836 183.278 164.574C183.269 164.311 183.196 164.065 183.059 163.835C182.928 163.607 182.747 163.43 182.517 163.301C182.282 163.17 182.033 163.109 181.772 163.118C181.51 163.126 181.263 163.195 181.031 163.323C180.805 163.454 180.626 163.637 180.496 163.874C180.365 164.11 180.305 164.359 180.314 164.621C180.329 164.886 180.402 165.133 180.533 165.36C180.664 165.587 180.847 165.767 181.083 165.898ZM176.68 157.119C176.124 156.81 175.691 156.393 175.38 155.867C175.072 155.335 174.907 154.766 174.883 154.157C174.869 153.547 175.016 152.96 175.327 152.398C175.631 151.848 176.051 151.42 176.586 151.115C177.121 150.81 177.695 150.648 178.307 150.629C178.919 150.61 179.495 150.75 180.033 151.05C180.589 151.359 181.017 151.778 181.32 152.306C181.631 152.832 181.796 153.402 181.816 154.016C181.84 154.624 181.696 155.209 181.386 155.771C181.075 156.333 180.655 156.768 180.126 157.076C179.599 157.378 179.03 157.539 178.418 157.558C177.814 157.575 177.235 157.429 176.68 157.119ZM177.639 155.383C177.875 155.514 178.123 155.575 178.385 155.567C178.646 155.558 178.89 155.488 179.117 155.357C179.343 155.226 179.522 155.042 179.652 154.806C179.783 154.57 179.843 154.321 179.834 154.059C179.825 153.796 179.755 153.552 179.624 153.324C179.493 153.097 179.309 152.918 179.074 152.787C178.838 152.655 178.589 152.594 178.328 152.603C178.066 152.612 177.822 152.681 177.596 152.813C177.369 152.944 177.191 153.127 177.06 153.363C176.93 153.599 176.869 153.848 176.879 154.111C176.888 154.373 176.958 154.618 177.089 154.845C177.22 155.072 177.403 155.252 177.639 155.383Z" fill="#EAF0F6"/>
</g>
<g filter="url(#filter4_d_17_7989)">
<path d="M82.8335 136.412L83.941 138.275L81.3803 146.405C81.1802 147.037 81.0977 147.571 81.1327 148.007C81.1678 148.443 81.2785 148.817 81.4648 149.131C81.7179 149.557 82.0345 149.88 82.4144 150.102C82.7978 150.33 83.2099 150.444 83.6507 150.445C84.0855 150.449 84.5125 150.326 84.9318 150.076C85.3746 149.811 85.7057 149.473 85.9251 149.061C86.1422 148.659 86.2449 148.233 86.2335 147.783C86.2221 147.333 86.0944 146.917 85.8506 146.533L88.047 145.221C88.5533 146.072 88.8055 146.927 88.8038 147.786C88.7962 148.648 88.5625 149.452 88.1027 150.2C87.637 150.951 86.9643 151.59 86.0845 152.115C85.2697 152.602 84.4286 152.857 83.5611 152.878C82.6972 152.906 81.8876 152.709 81.1325 152.287C80.3808 151.87 79.7571 151.245 79.2614 150.412C78.8993 149.803 78.6779 149.242 78.5971 148.729C78.5163 148.217 78.5376 147.687 78.6608 147.14C78.7781 146.598 78.9523 145.969 79.1833 145.253L81.0129 139.508L81.5242 139.924L75.2536 143.671L74.0566 141.658L82.8335 136.412ZM67.1709 145.389C68.0742 144.849 68.9856 144.565 69.9049 144.536C70.8278 144.514 71.6897 144.732 72.4907 145.191C73.2858 145.653 73.9523 146.336 74.4902 147.241L76.9371 151.356C77.475 152.261 77.7577 153.174 77.7852 154.095C77.8068 155.02 77.5865 155.88 77.1242 156.678C76.6654 157.481 75.9843 158.152 75.0809 158.692C74.1776 159.232 73.2674 159.512 72.3504 159.531C71.4311 159.56 70.5709 159.344 69.7699 158.886C68.9689 158.427 68.2994 157.745 67.7616 156.84L65.3147 152.725C64.7768 151.821 64.4971 150.906 64.4754 149.981C64.4538 149.057 64.6724 148.193 65.1312 147.39C65.5876 146.596 66.2675 145.929 67.1709 145.389ZM68.3785 147.42C67.9297 147.688 67.5856 148.038 67.3461 148.47C67.1101 148.908 66.993 149.37 66.9949 149.858C67.0003 150.351 67.1366 150.823 67.4038 151.272L70.0352 155.698C70.3059 156.153 70.6548 156.498 71.0818 156.731C71.5123 156.971 71.9739 157.087 72.4665 157.081C72.9627 157.081 73.4351 156.947 73.8839 156.679C74.3326 156.411 74.675 156.058 74.911 155.62C75.1505 155.189 75.2676 154.726 75.2622 154.233C75.2603 153.745 75.124 153.273 74.8533 152.818L72.2218 148.393C71.9547 147.943 71.6058 147.599 71.1753 147.359C70.7483 147.126 70.2867 147.009 69.7905 147.009C69.2979 147.015 68.8272 147.152 68.3785 147.42ZM58.9884 150.64L60.8724 151.117L57.0428 166.228L55.1544 165.744L58.9884 150.64ZM51.6162 154.746C52.1033 154.455 52.6189 154.307 53.163 154.303C53.7051 154.306 54.2154 154.435 54.6938 154.69C55.1751 154.95 55.5622 155.326 55.8552 155.819C56.1423 156.302 56.283 156.819 56.2772 157.37C56.2714 157.921 56.1386 158.438 55.8786 158.92C55.6187 159.403 55.2526 159.785 54.7802 160.068C54.2931 160.359 53.776 160.504 53.229 160.504C52.6849 160.509 52.1747 160.379 51.6983 160.117C51.2199 159.862 50.8342 159.488 50.5412 158.995C50.2482 158.502 50.1022 157.982 50.1031 157.434C50.1019 156.894 50.2313 156.382 50.4912 155.9C50.7541 155.422 51.1291 155.037 51.6162 154.746ZM52.5215 156.269C52.3197 156.389 52.1635 156.553 52.0528 156.759C51.9372 156.969 51.879 157.19 51.8782 157.425C51.8774 157.659 51.9386 157.879 52.0616 158.086C52.1846 158.293 52.3491 158.452 52.555 158.563C52.7608 158.673 52.9831 158.728 53.2218 158.725C53.4555 158.726 53.6732 158.666 53.875 158.545C54.0816 158.422 54.2403 158.257 54.351 158.05C54.4617 157.844 54.5199 157.622 54.5256 157.385C54.5264 157.151 54.4652 156.93 54.3422 156.723C54.2192 156.516 54.0547 156.357 53.8488 156.247C53.638 156.139 53.4158 156.085 53.182 156.084C52.9483 156.084 52.7281 156.145 52.5215 156.269ZM61.251 156.801C61.7381 156.51 62.2537 156.362 62.7978 156.357C63.3448 156.358 63.8575 156.485 64.3359 156.74C64.8123 157.003 65.197 157.381 65.49 157.874C65.7771 158.356 65.9177 158.873 65.912 159.424C65.9062 159.976 65.7733 160.492 65.5134 160.975C65.2535 161.458 64.8873 161.84 64.415 162.122C63.9279 162.413 63.4133 162.557 62.8712 162.554C62.3271 162.559 61.8143 162.431 61.333 162.171C60.8546 161.916 60.4689 161.542 60.176 161.05C59.883 160.557 59.737 160.037 59.7378 159.489C59.7416 158.945 59.8735 158.432 60.1334 157.95C60.3913 157.475 60.7638 157.092 61.251 156.801ZM62.1562 158.324C61.9496 158.447 61.7909 158.612 61.6802 158.818C61.5695 159.025 61.5138 159.245 61.513 159.479C61.5122 159.714 61.5733 159.934 61.6964 160.141C61.8194 160.348 61.9839 160.507 62.1897 160.617C62.3956 160.728 62.6154 160.784 62.8491 160.784C63.0829 160.785 63.3031 160.723 63.5097 160.6C63.7164 160.476 63.8751 160.311 63.9857 160.105C64.0964 159.899 64.1522 159.678 64.153 159.444C64.1538 159.21 64.0926 158.989 63.9696 158.782C63.8465 158.575 63.6821 158.417 63.4762 158.306C63.2703 158.195 63.0505 158.14 62.8168 158.139C62.5831 158.139 62.3629 158.2 62.1562 158.324Z" fill="#EAF0F6"/>
</g>
<g filter="url(#filter5_d_17_7989)">
<path d="M112.039 165.042L124.058 164.883L122.333 162.148L125.049 162.112L126.743 164.847L126.78 167.359L112.076 167.554L112.039 165.042ZM111.889 175.808C111.878 175.059 112.021 174.36 112.318 173.709C112.622 173.058 113.042 172.494 113.58 172.017C114.118 171.547 114.746 171.205 115.465 170.991L116.132 173.352C115.739 173.452 115.401 173.631 115.119 173.886C114.837 174.149 114.62 174.451 114.468 174.794C114.316 175.143 114.243 175.501 114.249 175.869C114.256 176.345 114.378 176.779 114.615 177.171C114.852 177.563 115.166 177.872 115.558 178.098C115.956 178.324 116.393 178.434 116.87 178.428C117.346 178.422 117.777 178.297 118.161 178.054C118.553 177.817 118.858 177.5 119.077 177.102C119.303 176.704 119.412 176.27 119.405 175.8C119.397 175.235 119.288 174.767 119.079 174.395C118.869 174.03 118.647 173.751 118.413 173.557L119.056 171.444L126.844 171.79L126.959 179.775L124.651 179.806L124.555 173.138L125.436 174.045L120.02 173.791L120.564 173.334C120.917 173.711 121.182 174.15 121.36 174.651C121.537 175.153 121.629 175.638 121.636 176.108C121.649 177.027 121.45 177.843 121.038 178.557C120.633 179.277 120.073 179.843 119.357 180.254C118.642 180.672 117.824 180.887 116.905 180.899C115.986 180.911 115.149 180.684 114.393 180.218C113.644 179.751 113.043 179.129 112.589 178.352C112.136 177.582 111.902 176.734 111.889 175.808ZM112.326 184.874L113.668 183.494L124.717 194.25L123.367 195.629L112.326 184.874ZM112.191 193.224C112.183 192.663 112.312 192.147 112.578 191.679C112.849 191.216 113.212 190.842 113.668 190.558C114.129 190.274 114.643 190.128 115.211 190.12C115.766 190.113 116.279 190.248 116.748 190.525C117.218 190.803 117.595 191.172 117.879 191.634C118.164 192.095 118.31 192.598 118.318 193.143C118.326 193.705 118.195 194.22 117.923 194.689C117.658 195.157 117.294 195.531 116.833 195.809C116.378 196.094 115.866 196.239 115.299 196.247C114.732 196.254 114.214 196.122 113.744 195.85C113.281 195.584 112.907 195.22 112.622 194.759C112.343 194.297 112.2 193.786 112.191 193.224ZM113.944 193.201C113.948 193.434 114.01 193.648 114.132 193.845C114.255 194.048 114.416 194.208 114.616 194.324C114.816 194.441 115.035 194.497 115.274 194.494C115.512 194.491 115.73 194.428 115.926 194.307C116.123 194.185 116.28 194.021 116.396 193.815C116.512 193.615 116.569 193.399 116.565 193.166C116.562 192.928 116.499 192.71 116.377 192.513C116.255 192.316 116.094 192.157 115.894 192.035C115.693 191.918 115.474 191.862 115.236 191.865C114.997 191.868 114.78 191.93 114.583 192.052C114.386 192.18 114.23 192.343 114.114 192.543C113.997 192.744 113.941 192.963 113.944 193.201ZM118.725 185.98C118.717 185.419 118.846 184.903 119.111 184.435C119.383 183.966 119.746 183.589 120.201 183.305C120.663 183.027 121.177 182.884 121.744 182.876C122.3 182.869 122.813 183.004 123.282 183.281C123.751 183.559 124.128 183.928 124.413 184.39C124.698 184.851 124.844 185.354 124.852 185.899C124.86 186.46 124.728 186.973 124.457 187.436C124.191 187.905 123.828 188.281 123.367 188.565C122.911 188.849 122.4 188.995 121.833 189.003C121.265 189.01 120.747 188.878 120.278 188.606C119.815 188.334 119.44 187.968 119.156 187.506C118.877 187.05 118.733 186.542 118.725 185.98ZM120.478 185.957C120.482 186.195 120.544 186.413 120.666 186.61C120.788 186.807 120.949 186.963 121.15 187.08C121.35 187.196 121.569 187.253 121.807 187.25C122.046 187.247 122.263 187.184 122.46 187.062C122.657 186.941 122.813 186.78 122.93 186.58C123.046 186.38 123.102 186.16 123.099 185.922C123.095 185.684 123.033 185.466 122.911 185.269C122.789 185.072 122.628 184.916 122.427 184.799C122.227 184.683 122.008 184.626 121.77 184.629C121.531 184.632 121.314 184.695 121.117 184.816C120.92 184.938 120.764 185.099 120.647 185.299C120.531 185.499 120.475 185.719 120.478 185.957Z" fill="#EAF0F6"/>
</g>
<g filter="url(#filter6_d_17_7989)">
<path d="M161.533 108.059L156.035 98.9372L154.709 101.469L153.466 99.408L154.807 96.8991L156.717 95.757L163.444 106.917L161.533 108.059ZM170.566 102.976C169.774 103.449 168.974 103.699 168.166 103.726C167.354 103.747 166.596 103.557 165.889 103.157C165.189 102.754 164.6 102.157 164.123 101.366L161.956 97.7704C161.479 96.9799 161.227 96.1819 161.2 95.3762C161.177 94.5675 161.367 93.8141 161.771 93.1162C162.171 92.4131 162.767 91.8248 163.56 91.3513C164.352 90.8778 165.151 90.632 165.957 90.614C166.765 90.5877 167.523 90.7747 168.229 91.1749C168.935 91.5751 169.526 92.1704 170.003 92.9609L172.17 96.5568C172.647 97.3472 172.896 98.1469 172.919 98.9556C172.941 99.7643 172.752 100.52 172.352 101.223C171.954 101.918 171.359 102.502 170.566 102.976ZM169.497 101.201C169.89 100.966 170.191 100.659 170.4 100.282C170.606 99.8985 170.707 99.4937 170.704 99.0671C170.697 98.6354 170.575 98.2232 170.339 97.8305L168.008 93.9634C167.768 93.5656 167.46 93.2648 167.084 93.0611C166.704 92.8522 166.298 92.7507 165.865 92.7566C165.428 92.7573 165.013 92.8753 164.62 93.1105C164.226 93.3457 163.927 93.6548 163.721 94.0379C163.512 94.4157 163.411 94.8205 163.418 95.2523C163.421 95.6789 163.543 96.0911 163.783 96.4889L166.114 100.356C166.35 100.749 166.658 101.049 167.038 101.258C167.414 101.462 167.82 101.564 168.257 101.563C168.69 101.557 169.103 101.436 169.497 101.201ZM177.653 98.4241L176.061 98.0264L179.237 85.3331L180.833 85.7371L177.653 98.4241ZM183.861 94.9668C183.45 95.2119 183.016 95.3368 182.556 95.3414C182.099 95.3394 181.668 95.2317 181.263 95.0182C180.856 94.8006 180.527 94.4852 180.278 94.0718C180.034 93.6668 179.913 93.2329 179.916 92.7702C179.919 92.3075 180.029 91.8733 180.247 91.4678C180.465 91.0622 180.772 90.7406 181.17 90.5029C181.58 90.2578 182.016 90.135 182.478 90.1345C182.937 90.1299 183.368 90.2376 183.771 90.4577C184.176 90.6711 184.503 90.9845 184.752 91.3978C185.001 91.8112 185.126 92.2479 185.128 92.7082C185.131 93.1618 185.023 93.5914 184.806 93.997C184.586 94.3984 184.271 94.7216 183.861 94.9668ZM183.091 93.6896C183.261 93.5881 183.392 93.4506 183.484 93.2772C183.581 93.1012 183.63 92.9149 183.629 92.7183C183.629 92.5216 183.577 92.3365 183.472 92.1629C183.367 91.9893 183.228 91.8562 183.054 91.7635C182.88 91.6708 182.692 91.6257 182.49 91.628C182.293 91.6279 182.11 91.6786 181.94 91.7801C181.766 91.8841 181.632 92.0228 181.54 92.1962C181.447 92.3697 181.399 92.556 181.395 92.7551C181.395 92.9518 181.447 93.1369 181.552 93.3105C181.657 93.4841 181.796 93.6172 181.97 93.7099C182.149 93.8001 182.336 93.8452 182.534 93.8454C182.731 93.8455 182.917 93.7936 183.091 93.6896ZM175.72 93.2543C175.31 93.4994 174.875 93.6243 174.416 93.6289C173.954 93.6294 173.521 93.523 173.116 93.3095C172.713 93.0894 172.387 92.7727 172.138 92.3594C171.894 91.9543 171.773 91.5205 171.776 91.0577C171.779 90.595 171.889 90.1609 172.106 89.7553C172.324 89.3498 172.632 89.0282 173.029 88.7905C173.439 88.5454 173.873 88.4238 174.331 88.4258C174.79 88.4211 175.223 88.5276 175.631 88.7452C176.036 88.9587 176.362 89.2721 176.612 89.6854C176.861 90.0987 176.986 90.5355 176.987 90.9957C176.986 91.4518 176.877 91.8827 176.659 92.2882C176.443 92.6872 176.13 93.0092 175.72 93.2543ZM174.95 91.9772C175.124 91.8732 175.257 91.7345 175.35 91.561C175.443 91.3875 175.489 91.2025 175.489 91.0058C175.489 90.8092 175.436 90.624 175.332 90.4505C175.227 90.2769 175.088 90.1437 174.913 90.0511C174.739 89.9584 174.553 89.912 174.356 89.9119C174.159 89.9117 173.973 89.9636 173.799 90.0676C173.625 90.1716 173.492 90.3103 173.399 90.4838C173.307 90.6572 173.26 90.8423 173.261 91.039C173.261 91.2356 173.313 91.4207 173.418 91.5943C173.522 91.7679 173.662 91.9011 173.836 91.9937C174.01 92.0864 174.196 92.1328 174.393 92.1329C174.591 92.1331 174.776 92.0812 174.95 91.9772Z" fill="#EAF0F6"/>
</g>
</g>
<defs>
<filter id="filter0_d_17_7989" x="98.0049" y="104.929" width="43.2442" height="43.3267" filterUnits="userSpaceOnUse" color-interpolation-filters="sRGB">
<feFlood flood-opacity="0" result="BackgroundImageFix"/>
<feColorMatrix in="SourceAlpha" type="matrix" values="0 0 0 0 0 0 0 0 0 0 0 0 0 0 0 0 0 0 127 0" result="hardAlpha"/>
<feOffset dy="2.57897"/>
<feGaussianBlur stdDeviation="4.5132"/>
<feComposite in2="hardAlpha" operator="out"/>
<feColorMatrix type="matrix" values="0 0 0 0 0 0 0 0 0 0.916667 0 0 0 0 1 0 0 0 1 0"/>
<feBlend mode="normal" in2="BackgroundImageFix" result="effect1_dropShadow_17_7989"/>
<feBlend mode="normal" in="SourceGraphic" in2="effect1_dropShadow_17_7989" result="shape"/>
</filter>
<filter id="filter1_d_17_7989" x="93.0971" y="32.6498" width="50.5383" height="79.2404" filterUnits="userSpaceOnUse" color-interpolation-filters="sRGB">
<feFlood flood-opacity="0" result="BackgroundImageFix"/>
<feColorMatrix in="SourceAlpha" type="matrix" values="0 0 0 0 0 0 0 0 0 0 0 0 0 0 0 0 0 0 127 0" result="hardAlpha"/>
<feOffset dy="4.4053"/>
<feGaussianBlur stdDeviation="7.70928"/>
<feComposite in2="hardAlpha" operator="out"/>
<feColorMatrix type="matrix" values="0 0 0 0 0 0 0 0 0 0.916667 0 0 0 0 1 0 0 0 1 0"/>
<feBlend mode="normal" in2="BackgroundImageFix" result="effect1_dropShadow_17_7989"/>
<feBlend mode="normal" in="SourceGraphic" in2="effect1_dropShadow_17_7989" result="shape"/>
</filter>
<filter id="filter2_d_17_7989" x="52.368" y="80.9911" width="42.6213" height="39.3972" filterUnits="userSpaceOnUse" color-interpolation-filters="sRGB">
<feFlood flood-opacity="0" result="BackgroundImageFix"/>
<feColorMatrix in="SourceAlpha" type="matrix" values="0 0 0 0 0 0 0 0 0 0 0 0 0 0 0 0 0 0 127 0" result="hardAlpha"/>
<feOffset dy="2.4194"/>
<feGaussianBlur stdDeviation="4.23394"/>
<feComposite in2="hardAlpha" operator="out"/>
<feColorMatrix type="matrix" values="0 0 0 0 0 0 0 0 0 0.916667 0 0 0 0 1 0 0 0 1 0"/>
<feBlend mode="normal" in2="BackgroundImageFix" result="effect1_dropShadow_17_7989"/>
<feBlend mode="normal" in="SourceGraphic" in2="effect1_dropShadow_17_7989" result="shape"/>
</filter>
<filter id="filter3_d_17_7989" x="132.062" y="123.555" width="73.5109" height="63.8976" filterUnits="userSpaceOnUse" color-interpolation-filters="sRGB">
<feFlood flood-opacity="0" result="BackgroundImageFix"/>
<feColorMatrix in="SourceAlpha" type="matrix" values="0 0 0 0 0 0 0 0 0 0 0 0 0 0 0 0 0 0 127 0" result="hardAlpha"/>
<feOffset dy="4.01802"/>
<feGaussianBlur stdDeviation="7.03154"/>
<feComposite in2="hardAlpha" operator="out"/>
<feColorMatrix type="matrix" values="0 0 0 0 0 0 0 0 0 0.916667 0 0 0 0 1 0 0 0 1 0"/>
<feBlend mode="normal" in2="BackgroundImageFix" result="effect1_dropShadow_17_7989"/>
<feBlend mode="normal" in="SourceGraphic" in2="effect1_dropShadow_17_7989" result="shape"/>
</filter>
<filter id="filter4_d_17_7989" x="36.3782" y="127.16" width="66.7513" height="58.5755" filterUnits="userSpaceOnUse" color-interpolation-filters="sRGB">
<feFlood flood-opacity="0" result="BackgroundImageFix"/>
<feColorMatrix in="SourceAlpha" type="matrix" values="0 0 0 0 0 0 0 0 0 0 0 0 0 0 0 0 0 0 127 0" result="hardAlpha"/>
<feOffset dy="3.58724"/>
<feGaussianBlur stdDeviation="6.27768"/>
<feComposite in2="hardAlpha" operator="out"/>
<feColorMatrix type="matrix" values="0 0 0 0 0 0 0 0 0 0.916667 0 0 0 0 1 0 0 0 1 0"/>
<feBlend mode="normal" in2="BackgroundImageFix" result="effect1_dropShadow_17_7989"/>
<feBlend mode="normal" in="SourceGraphic" in2="effect1_dropShadow_17_7989" result="shape"/>
</filter>
<filter id="filter5_d_17_7989" x="99.2672" y="153.215" width="40.3542" height="59.05" filterUnits="userSpaceOnUse" color-interpolation-filters="sRGB">
<feFlood flood-opacity="0" result="BackgroundImageFix"/>
<feColorMatrix in="SourceAlpha" type="matrix" values="0 0 0 0 0 0 0 0 0 0 0 0 0 0 0 0 0 0 127 0" result="hardAlpha"/>
<feOffset dy="3.55032"/>
<feGaussianBlur stdDeviation="6.21307"/>
<feComposite in2="hardAlpha" operator="out"/>
<feColorMatrix type="matrix" values="0 0 0 0 0 0 0 0 0 0.916667 0 0 0 0 1 0 0 0 1 0"/>
<feBlend mode="normal" in2="BackgroundImageFix" result="effect1_dropShadow_17_7989"/>
<feBlend mode="normal" in="SourceGraphic" in2="effect1_dropShadow_17_7989" result="shape"/>
</filter>
<filter id="filter6_d_17_7989" x="144.125" y="76.0193" width="50.4456" height="44.3836" filterUnits="userSpaceOnUse" color-interpolation-filters="sRGB">
<feFlood flood-opacity="0" result="BackgroundImageFix"/>
<feColorMatrix in="SourceAlpha" type="matrix" values="0 0 0 0 0 0 0 0 0 0 0 0 0 0 0 0 0 0 127 0" result="hardAlpha"/>
<feOffset dy="2.41298"/>
<feGaussianBlur stdDeviation="4.22272"/>
<feComposite in2="hardAlpha" operator="out"/>
<feColorMatrix type="matrix" values="0 0 0 0 0 0 0 0 0 0.916667 0 0 0 0 1 0 0 0 1 0"/>
<feBlend mode="normal" in2="BackgroundImageFix" result="effect1_dropShadow_17_7989"/>
<feBlend mode="normal" in="SourceGraphic" in2="effect1_dropShadow_17_7989" result="shape"/>
</filter>
<linearGradient id="paint0_linear_17_7989" x1="167.277" y1="197.789" x2="178.038" y2="118.659" gradientUnits="userSpaceOnUse">
<stop stop-color="#01CDF6"/>
<stop offset="0.655636" stop-color="#0199F6" stop-opacity="0.249085"/>
<stop offset="1" stop-color="#0199F6" stop-opacity="0"/>
</linearGradient>
<linearGradient id="paint1_linear_17_7989" x1="207.063" y1="120.672" x2="144.017" y2="71.6592" gradientUnits="userSpaceOnUse">
<stop stop-color="#01CDF6"/>
<stop offset="0.655636" stop-color="#0199F6" stop-opacity="0.249085"/>
<stop offset="1" stop-color="#0199F6" stop-opacity="0"/>
</linearGradient>
<linearGradient id="paint2_linear_17_7989" x1="160.502" y1="47.6622" x2="86.4016" y2="77.4272" gradientUnits="userSpaceOnUse">
<stop stop-color="#01CDF6"/>
<stop offset="0.655636" stop-color="#0199F6" stop-opacity="0.249085"/>
<stop offset="1" stop-color="#0199F6" stop-opacity="0"/>
</linearGradient>
<linearGradient id="paint3_linear_17_7989" x1="73.9222" y1="51.133" x2="62.3653" y2="130.151" gradientUnits="userSpaceOnUse">
<stop stop-color="#01CDF6"/>
<stop offset="0.655636" stop-color="#0199F6" stop-opacity="0.249085"/>
<stop offset="1" stop-color="#0199F6" stop-opacity="0"/>
</linearGradient>
<linearGradient id="paint4_linear_17_7989" x1="33.3736" y1="128.06" x2="96.0494" y2="177.545" gradientUnits="userSpaceOnUse">
<stop stop-color="#01CDF6"/>
<stop offset="0.655636" stop-color="#0199F6" stop-opacity="0.249085"/>
<stop offset="1" stop-color="#0199F6" stop-opacity="0"/>
</linearGradient>
<linearGradient id="paint5_linear_17_7989" x1="79.9269" y1="201.713" x2="154.04" y2="171.978" gradientUnits="userSpaceOnUse">
<stop stop-color="#01CDF6"/>
<stop offset="0.655636" stop-color="#0199F6" stop-opacity="0.249085"/>
<stop offset="1" stop-color="#0199F6" stop-opacity="0"/>
</linearGradient>
<linearGradient id="paint6_linear_17_7989" x1="112.766" y1="140.329" x2="104.811" y2="118.859" gradientUnits="userSpaceOnUse">
<stop stop-color="#0077EF"/>
<stop offset="1" stop-color="#00C6FF"/>
</linearGradient>
<clipPath id="clip0_17_7989">
<rect width="240" height="245" fill="white"/>
</clipPath>
</defs>
</svg>
