<svg width="30" height="30" viewBox="0 0 30 30" fill="none" xmlns="http://www.w3.org/2000/svg">
<path fill-rule="evenodd" clip-rule="evenodd" d="M15 1C7.26801 1 1 7.26801 1 15C1 22.732 7.26801 29 15 29C22.732 29 29 22.732 29 15C29 12.5184 28.3543 10.1875 27.2217 8.16632L14.3202 20.3584C13.9412 20.7165 13.3506 20.7234 12.9634 20.374L7.83011 15.7425C7.42006 15.3725 7.38757 14.7402 7.75754 14.3301C8.12751 13.9201 8.75984 13.8876 9.16989 14.2575L13.6176 18.2705L26.1033 6.47148C23.5438 3.14423 19.5223 1 15 1Z" fill="#014589" fill-opacity="0.9"/>
</svg>
