<svg width="240" height="245" viewBox="0 0 240 245" fill="none" xmlns="http://www.w3.org/2000/svg">
<g clip-path="url(#clip0_17_7989)">
<path d="M25.9513 74.0657C43.6967 40.9533 75.3385 20.1245 108.255 14.1201C73.661 17.6025 39.8782 37.88 21.7053 71.79C3.53248 105.7 5.36802 145.035 21.6096 175.797C8.38302 145.061 8.20586 107.178 25.9513 74.0657Z" fill="url(#paint0_linear_17_7989)"/>
<path d="M214.52 175.133C196.775 208.245 165.133 229.074 132.217 235.078C166.81 231.596 200.593 211.318 218.766 177.408C236.939 143.498 235.103 104.163 218.862 73.4013C232.088 104.137 232.266 142.02 214.52 175.133Z" fill="url(#paint1_linear_17_7989)"/>
<path d="M95.853 228.706C59.2604 220.126 30.9332 194.95 16.5987 164.713C28.9315 197.222 57.281 224.607 94.755 233.395C132.229 242.183 169.758 230.245 195.268 206.611C169.001 227.327 132.446 237.287 95.853 228.706Z" fill="url(#paint2_linear_17_7989)"/>
<path d="M144.615 20.4952C181.207 29.0761 209.535 54.2514 223.869 84.4883C211.536 51.9797 183.187 24.5942 145.713 15.8066C108.239 7.01904 70.7103 18.9563 45.1995 42.5907C71.4666 21.8748 108.022 11.9143 144.615 20.4952Z" fill="url(#paint3_linear_17_7989)"/>
<path d="M203.629 183.903C198.526 178.187 199.03 169.382 204.752 164.236C210.473 159.089 219.247 159.552 224.349 165.268C229.452 170.983 228.948 179.788 223.227 184.934C217.505 190.081 208.731 189.618 203.629 183.903Z" fill="url(#paint4_radial_17_7989)" style="mix-blend-mode:color-dodge"/>
<path d="M203.629 183.903C198.526 178.187 199.03 169.382 204.752 164.236C210.473 159.089 219.247 159.552 224.349 165.268C229.452 170.983 228.948 179.788 223.227 184.934C217.505 190.081 208.731 189.618 203.629 183.903Z" fill="url(#paint5_radial_17_7989)" style="mix-blend-mode:color-dodge"/>
<path d="M215.312 172.116C216.668 172.843 217.175 174.539 216.444 175.903C215.713 177.266 214.02 177.783 212.665 177.056C211.309 176.33 210.802 174.634 211.533 173.27C212.263 171.907 213.956 171.39 215.312 172.116Z" fill="white"/>
<path d="M215.973 147.282C210.87 141.567 211.374 132.762 217.095 127.616C222.817 122.469 231.591 122.932 236.693 128.648C241.796 134.363 241.292 143.168 235.57 148.314C229.849 153.461 221.075 152.998 215.973 147.282Z" fill="url(#paint6_radial_17_7989)" style="mix-blend-mode:color-dodge"/>
<path d="M215.973 147.282C210.87 141.567 211.374 132.762 217.095 127.616C222.817 122.469 231.591 122.932 236.693 128.648C241.796 134.363 241.292 143.168 235.57 148.314C229.849 153.461 221.075 152.998 215.973 147.282Z" fill="url(#paint7_radial_17_7989)" style="mix-blend-mode:color-dodge"/>
<path d="M227.656 135.496C229.011 136.223 229.518 137.919 228.788 139.282C228.057 140.646 226.364 141.163 225.008 140.436C223.653 139.71 223.146 138.014 223.876 136.65C224.607 135.287 226.3 134.77 227.656 135.496Z" fill="white"/>
<path d="M180.836 212.844C175.733 207.129 176.237 198.324 181.959 193.178C187.68 188.031 196.454 188.494 201.556 194.21C206.659 199.925 206.155 208.73 200.434 213.876C194.712 219.023 185.938 218.56 180.836 212.844Z" fill="url(#paint8_radial_17_7989)" style="mix-blend-mode:color-dodge"/>
<path d="M180.836 212.844C175.733 207.129 176.237 198.324 181.959 193.178C187.68 188.031 196.454 188.494 201.556 194.21C206.659 199.925 206.155 208.73 200.434 213.876C194.712 219.023 185.938 218.56 180.836 212.844Z" fill="url(#paint9_radial_17_7989)" style="mix-blend-mode:color-dodge"/>
<path d="M192.519 201.058C193.875 201.785 194.382 203.481 193.651 204.844C192.92 206.208 191.227 206.725 189.872 205.998C188.516 205.272 188.009 203.576 188.74 202.212C189.47 200.849 191.163 200.332 192.519 201.058Z" fill="white"/>
<path d="M149.396 232.532C144.294 226.817 144.798 218.012 150.519 212.866C156.241 207.719 165.014 208.182 170.117 213.898C175.22 219.613 174.716 228.418 168.994 233.564C163.272 238.711 154.499 238.248 149.396 232.532Z" fill="url(#paint10_radial_17_7989)" style="mix-blend-mode:color-dodge"/>
<path d="M149.396 232.532C144.294 226.817 144.798 218.012 150.519 212.866C156.241 207.719 165.014 208.182 170.117 213.898C175.22 219.613 174.716 228.418 168.994 233.564C163.272 238.711 154.499 238.248 149.396 232.532Z" fill="url(#paint11_radial_17_7989)" style="mix-blend-mode:color-dodge"/>
<path d="M161.079 220.746C162.435 221.473 162.942 223.169 162.211 224.532C161.481 225.896 159.788 226.413 158.432 225.686C157.076 224.96 156.569 223.264 157.3 221.9C158.031 220.537 159.724 220.02 161.079 220.746Z" fill="white"/>
<path d="M112.428 241.422C107.325 235.706 107.829 226.902 113.551 221.755C119.272 216.608 128.046 217.071 133.148 222.787C138.251 228.502 137.747 237.307 132.025 242.454C126.304 247.6 117.53 247.137 112.428 241.422Z" fill="url(#paint12_radial_17_7989)" style="mix-blend-mode:color-dodge"/>
<path d="M112.428 241.422C107.325 235.706 107.829 226.902 113.551 221.755C119.272 216.608 128.046 217.071 133.148 222.787C138.251 228.502 137.747 237.307 132.025 242.454C126.304 247.6 117.53 247.137 112.428 241.422Z" fill="url(#paint13_radial_17_7989)" style="mix-blend-mode:color-dodge"/>
<path d="M124.111 229.636C125.466 230.362 125.973 232.058 125.243 233.422C124.512 234.785 122.819 235.302 121.463 234.575C120.108 233.849 119.601 232.153 120.331 230.789C121.062 229.426 122.755 228.909 124.111 229.636Z" fill="white"/>
<path d="M213.867 112.235C208.764 106.519 209.268 97.715 214.99 92.5682C220.712 87.4214 229.485 87.8846 234.588 93.6002C239.69 99.3157 239.186 108.12 233.465 113.267C227.743 118.414 218.97 117.951 213.867 112.235Z" fill="url(#paint14_radial_17_7989)" style="mix-blend-mode:color-dodge"/>
<path d="M213.867 112.235C208.764 106.519 209.268 97.715 214.99 92.5682C220.712 87.4214 229.485 87.8846 234.588 93.6002C239.69 99.3157 239.186 108.12 233.465 113.267C227.743 118.414 218.97 117.951 213.867 112.235Z" fill="url(#paint15_radial_17_7989)" style="mix-blend-mode:color-dodge"/>
<path d="M225.55 100.449C226.906 101.176 227.413 102.871 226.682 104.235C225.951 105.599 224.259 106.115 222.903 105.389C221.547 104.662 221.04 102.966 221.771 101.603C222.502 100.239 224.195 99.7224 225.55 100.449Z" fill="white"/>
<path d="M200.08 77.8698C194.977 72.1542 195.481 63.3498 201.203 58.203C206.925 53.0562 215.698 53.5194 220.801 59.2349C225.903 64.9505 225.399 73.7549 219.678 78.9017C213.956 84.0485 205.183 83.5854 200.08 77.8698Z" fill="url(#paint16_radial_17_7989)" style="mix-blend-mode:color-dodge"/>
<path d="M200.08 77.8698C194.977 72.1542 195.481 63.3498 201.203 58.203C206.925 53.0562 215.698 53.5194 220.801 59.2349C225.903 64.9505 225.399 73.7549 219.678 78.9017C213.956 84.0485 205.183 83.5854 200.08 77.8698Z" fill="url(#paint17_radial_17_7989)" style="mix-blend-mode:color-dodge"/>
<path d="M211.763 66.0838C213.119 66.8104 213.626 68.5062 212.895 69.8698C212.164 71.2334 210.471 71.7503 209.116 71.0236C207.76 70.297 207.253 68.6012 207.984 67.2376C208.715 65.874 210.407 65.3572 211.763 66.0838Z" fill="white"/>
<path d="M176.17 49.3981C171.067 43.6826 171.571 34.8781 177.293 29.7313C183.014 24.5845 191.788 25.0477 196.89 30.7632C201.993 36.4788 201.489 45.2833 195.767 50.4301C190.046 55.5769 181.272 55.1137 176.17 49.3981Z" fill="url(#paint18_radial_17_7989)" style="mix-blend-mode:color-dodge"/>
<path d="M176.17 49.3981C171.067 43.6826 171.571 34.8781 177.293 29.7313C183.014 24.5845 191.788 25.0477 196.89 30.7632C201.993 36.4788 201.489 45.2833 195.767 50.4301C190.046 55.5769 181.272 55.1137 176.17 49.3981Z" fill="url(#paint19_radial_17_7989)" style="mix-blend-mode:color-dodge"/>
<path d="M187.853 37.6121C189.209 38.3387 189.716 40.0345 188.985 41.3982C188.254 42.7618 186.561 43.2786 185.206 42.552C183.85 41.8254 183.343 40.1295 184.074 38.7659C184.804 37.4023 186.497 36.8855 187.853 37.6121Z" fill="white"/>
<path d="M75.4784 237.28C70.3758 231.564 70.8797 222.76 76.6013 217.613C82.3229 212.466 91.0964 212.93 96.199 218.645C101.302 224.361 100.798 233.165 95.0761 238.312C89.3545 243.459 80.581 242.996 75.4784 237.28Z" fill="url(#paint20_radial_17_7989)" style="mix-blend-mode:color-dodge"/>
<path d="M75.4784 237.28C70.3758 231.564 70.8797 222.76 76.6013 217.613C82.3229 212.466 91.0964 212.93 96.199 218.645C101.302 224.361 100.798 233.165 95.0761 238.312C89.3545 243.459 80.581 242.996 75.4784 237.28Z" fill="url(#paint21_radial_17_7989)" style="mix-blend-mode:color-dodge"/>
<path d="M87.1615 225.494C88.5172 226.221 89.0242 227.916 88.2934 229.28C87.5626 230.644 85.8698 231.16 84.5142 230.434C83.1585 229.707 82.6515 228.011 83.3823 226.648C84.1131 225.284 85.8058 224.767 87.1615 225.494Z" fill="white"/>
<path d="M23.7473 87.4883C31.3318 88.5728 38.3839 83.278 39.5013 75.6634C40.6187 68.0489 35.375 60.9992 27.7905 59.9148C20.206 58.8303 13.1539 64.1251 12.0365 71.7397C10.9191 79.3542 16.1628 86.4039 23.7473 87.4883Z" fill="url(#paint22_radial_17_7989)" style="mix-blend-mode:color-dodge"/>
<path d="M23.7473 87.4883C31.3318 88.5728 38.3839 83.278 39.5013 75.6634C40.6187 68.0489 35.375 60.9992 27.7905 59.9148C20.206 58.8303 13.1539 64.1251 12.0365 71.7397C10.9191 79.3542 16.1628 86.4039 23.7473 87.4883Z" fill="url(#paint23_radial_17_7989)" style="mix-blend-mode:color-dodge"/>
<path d="M27.0902 71.2352C25.7345 70.5086 24.0418 71.0254 23.311 72.389C22.5802 73.7526 23.0872 75.4485 24.4429 76.1751C25.7986 76.9017 27.4913 76.3849 28.2221 75.0213C28.9529 73.6577 28.4459 71.9618 27.0902 71.2352Z" fill="white"/>
<path d="M47.3996 56.941C54.9841 58.0254 62.0362 52.7306 63.1536 45.1161C64.271 37.5015 59.0274 30.4518 51.4429 29.3674C43.8584 28.283 36.8063 33.5778 35.6889 41.1923C34.5715 48.8069 39.8151 55.8565 47.3996 56.941Z" fill="url(#paint24_radial_17_7989)" style="mix-blend-mode:color-dodge"/>
<path d="M47.3996 56.941C54.9841 58.0254 62.0362 52.7306 63.1536 45.1161C64.271 37.5015 59.0274 30.4518 51.4429 29.3674C43.8584 28.283 36.8063 33.5778 35.6889 41.1923C34.5715 48.8069 39.8151 55.8565 47.3996 56.941Z" fill="url(#paint25_radial_17_7989)" style="mix-blend-mode:color-dodge"/>
<path d="M50.7426 40.6879C49.3869 39.9612 47.6941 40.478 46.9633 41.8417C46.2325 43.2053 46.7395 44.9011 48.0952 45.6277C49.4509 46.3543 51.1437 45.8375 51.8745 44.4739C52.6052 43.1103 52.0982 41.4145 50.7426 40.6879Z" fill="white"/>
<path d="M12.2649 122.5C19.8494 123.584 26.9015 118.29 28.0189 110.675C29.1363 103.061 23.8926 96.0109 16.3081 94.9265C8.7236 93.8421 1.67151 99.1368 0.5541 106.751C-0.563308 114.366 4.68037 121.416 12.2649 122.5Z" fill="url(#paint26_radial_17_7989)" style="mix-blend-mode:color-dodge"/>
<path d="M12.2649 122.5C19.8494 123.584 26.9015 118.29 28.0189 110.675C29.1363 103.061 23.8926 96.0109 16.3081 94.9265C8.7236 93.8421 1.67151 99.1368 0.5541 106.751C-0.563308 114.366 4.68037 121.416 12.2649 122.5Z" fill="url(#paint27_radial_17_7989)" style="mix-blend-mode:color-dodge"/>
<path d="M15.6078 106.247C14.2521 105.52 12.5593 106.037 11.8286 107.401C11.0978 108.764 11.6048 110.46 12.9605 111.187C14.3161 111.913 16.0089 111.397 16.7397 110.033C17.4705 108.669 16.9635 106.974 15.6078 106.247Z" fill="white"/>
<path d="M13.2785 159.584C20.863 160.668 27.9151 155.373 29.0325 147.759C30.1499 140.144 24.9063 133.094 17.3218 132.01C9.73727 130.926 2.68518 136.22 1.56777 143.835C0.450364 151.449 5.69404 158.499 13.2785 159.584Z" fill="url(#paint28_radial_17_7989)" style="mix-blend-mode:color-dodge"/>
<path d="M13.2785 159.584C20.863 160.668 27.9151 155.373 29.0325 147.759C30.1499 140.144 24.9063 133.094 17.3218 132.01C9.73727 130.926 2.68518 136.22 1.56777 143.835C0.450364 151.449 5.69404 158.499 13.2785 159.584Z" fill="url(#paint29_radial_17_7989)" style="mix-blend-mode:color-dodge"/>
<path d="M16.6215 143.33C15.2658 142.604 13.573 143.121 12.8422 144.484C12.1115 145.848 12.6184 147.544 13.9741 148.27C15.3298 148.997 17.0226 148.48 17.7534 147.116C18.4841 145.753 17.9772 144.057 16.6215 143.33Z" fill="white"/>
<path d="M26.3449 195.297C33.9294 196.381 40.9815 191.087 42.0989 183.472C43.2164 175.857 37.9727 168.808 30.3882 167.723C22.8037 166.639 15.7516 171.934 14.6342 179.548C13.5168 187.163 18.7604 194.213 26.3449 195.297Z" fill="url(#paint30_radial_17_7989)" style="mix-blend-mode:color-dodge"/>
<path d="M26.3449 195.297C33.9294 196.381 40.9815 191.087 42.0989 183.472C43.2164 175.857 37.9727 168.808 30.3882 167.723C22.8037 166.639 15.7516 171.934 14.6342 179.548C13.5168 187.163 18.7604 194.213 26.3449 195.297Z" fill="url(#paint31_radial_17_7989)" style="mix-blend-mode:color-dodge"/>
<path d="M29.6879 179.044C28.3322 178.317 26.6394 178.834 25.9086 180.198C25.1779 181.561 25.6849 183.257 27.0405 183.984C28.3962 184.71 30.089 184.193 30.8198 182.83C31.5506 181.466 31.0436 179.77 29.6879 179.044Z" fill="white"/>
<path d="M77.7531 39.2828C85.3376 40.3672 92.3897 35.0724 93.5071 27.4579C94.6246 19.8433 89.3809 12.7936 81.7964 11.7092C74.2119 10.6248 67.1598 15.9196 66.0424 23.5341C64.925 31.1486 70.1687 38.1983 77.7531 39.2828Z" fill="url(#paint32_radial_17_7989)" style="mix-blend-mode:color-dodge"/>
<path d="M77.7531 39.2828C85.3376 40.3672 92.3897 35.0724 93.5071 27.4579C94.6246 19.8433 89.3809 12.7936 81.7964 11.7092C74.2119 10.6248 67.1598 15.9196 66.0424 23.5341C64.925 31.1486 70.1687 38.1983 77.7531 39.2828Z" fill="url(#paint33_radial_17_7989)" style="mix-blend-mode:color-dodge"/>
<path d="M81.0961 23.0296C79.7404 22.303 78.0476 22.8198 77.3168 24.1835C76.5861 25.5471 77.0931 27.2429 78.4487 27.9695C79.8044 28.6961 81.4972 28.1793 82.228 26.8157C82.9588 25.4521 82.4518 23.7563 81.0961 23.0296Z" fill="white"/>
<path d="M113.999 31.7417C121.584 32.8262 128.636 27.5314 129.753 19.9168C130.871 12.3023 125.627 5.25262 118.042 4.16819C110.458 3.08377 103.406 8.37854 102.288 15.9931C101.171 23.6076 106.415 30.6573 113.999 31.7417Z" fill="url(#paint34_radial_17_7989)" style="mix-blend-mode:color-dodge"/>
<path d="M113.999 31.7417C121.584 32.8262 128.636 27.5314 129.753 19.9168C130.871 12.3023 125.627 5.25262 118.042 4.16819C110.458 3.08377 103.406 8.37854 102.288 15.9931C101.171 23.6076 106.415 30.6573 113.999 31.7417Z" fill="url(#paint35_radial_17_7989)" style="mix-blend-mode:color-dodge"/>
<path d="M117.342 15.4886C115.987 14.762 114.294 15.2788 113.563 16.6424C112.832 18.0061 113.339 19.7019 114.695 20.4285C116.051 21.1551 117.743 20.6383 118.474 19.2747C119.205 17.9111 118.698 16.2152 117.342 15.4886Z" fill="white"/>
<path d="M150.945 35.8868C158.529 36.9712 165.581 31.6764 166.699 24.0619C167.816 16.4473 162.572 9.39764 154.988 8.31321C147.403 7.22879 140.351 12.5236 139.234 20.1381C138.116 27.7527 143.36 34.8023 150.945 35.8868Z" fill="url(#paint36_radial_17_7989)" style="mix-blend-mode:color-dodge"/>
<path d="M150.945 35.8868C158.529 36.9712 165.581 31.6764 166.699 24.0619C167.816 16.4473 162.572 9.39764 154.988 8.31321C147.403 7.22879 140.351 12.5236 139.234 20.1381C138.116 27.7527 143.36 34.8023 150.945 35.8868Z" fill="url(#paint37_radial_17_7989)" style="mix-blend-mode:color-dodge"/>
<path d="M154.287 19.6337C152.932 18.907 151.239 19.4238 150.508 20.7875C149.777 22.1511 150.284 23.8469 151.64 24.5735C152.996 25.3001 154.689 24.7833 155.419 23.4197C156.15 22.0561 155.643 20.3603 154.287 19.6337Z" fill="white"/>
<path d="M50.2531 223.769C57.8376 224.854 64.8897 219.559 66.0071 211.944C67.1246 204.33 61.8809 197.28 54.2964 196.196C46.7119 195.111 39.6598 200.406 38.5424 208.02C37.425 215.635 42.6687 222.685 50.2531 223.769Z" fill="url(#paint38_radial_17_7989)" style="mix-blend-mode:color-dodge"/>
<path d="M50.2531 223.769C57.8376 224.854 64.8897 219.559 66.0071 211.944C67.1246 204.33 61.8809 197.28 54.2964 196.196C46.7119 195.111 39.6598 200.406 38.5424 208.02C37.425 215.635 42.6687 222.685 50.2531 223.769Z" fill="url(#paint39_radial_17_7989)" style="mix-blend-mode:color-dodge"/>
<path d="M53.5961 207.516C52.2404 206.789 50.5476 207.306 49.8168 208.67C49.0861 210.033 49.5931 211.729 50.9487 212.456C52.3044 213.182 53.9972 212.666 54.728 211.302C55.4588 209.938 54.9518 208.243 53.5961 207.516Z" fill="white"/>
<g style="mix-blend-mode:screen">
<path d="M29.5087 75.9734C56.368 25.8532 118.764 6.80272 168.59 33.5094C218.417 60.2161 237.104 122.727 210.245 172.847C183.386 222.967 121.001 242.057 71.1493 215.337C21.2973 188.616 2.63552 126.119 29.5087 75.9734ZM209.554 172.477C236.207 122.742 217.673 60.7446 168.23 34.2435C118.787 7.74249 56.8774 26.623 30.2249 76.3573C3.57232 126.092 22.1182 188.129 71.5354 214.616C120.953 241.104 182.876 222.197 209.515 172.489L209.554 172.477Z" fill="url(#paint40_radial_17_7989)"/>
</g>
<path d="M133.998 12.043C123.313 10.2213 114.918 10.2213 104.996 12.043L119.497 34.65L133.998 12.043Z" fill="white"/>
</g>
<defs>
<linearGradient id="paint0_linear_17_7989" x1="-0.0038038" y1="164.213" x2="86.6492" y2="2.5401" gradientUnits="userSpaceOnUse">
<stop stop-color="#134E90"/>
<stop offset="0.505" stop-color="#6494C4"/>
<stop offset="1" stop-color="#134E91"/>
</linearGradient>
<linearGradient id="paint1_linear_17_7989" x1="153.83" y1="246.662" x2="240.483" y2="84.9898" gradientUnits="userSpaceOnUse">
<stop stop-color="#134E90"/>
<stop offset="0.505" stop-color="#6494C4"/>
<stop offset="1" stop-color="#134E91"/>
</linearGradient>
<linearGradient id="paint2_linear_17_7989" x1="189.679" y1="230.477" x2="10.9973" y2="188.632" gradientUnits="userSpaceOnUse">
<stop stop-color="#134E90"/>
<stop offset="0.505" stop-color="#6494C4"/>
<stop offset="1" stop-color="#134E91"/>
</linearGradient>
<linearGradient id="paint3_linear_17_7989" x1="229.458" y1="60.6219" x2="50.7766" y2="18.7763" gradientUnits="userSpaceOnUse">
<stop stop-color="#134E90"/>
<stop offset="0.505" stop-color="#6494C4"/>
<stop offset="1" stop-color="#134E91"/>
</linearGradient>
<radialGradient id="paint4_radial_17_7989" cx="0" cy="0" r="1" gradientUnits="userSpaceOnUse" gradientTransform="translate(213.986 174.604) rotate(138.081) scale(13.9433 13.8817)">
<stop stop-color="#FEFEFE"/>
<stop offset="1" stop-color="#0059FF" stop-opacity="0"/>
</radialGradient>
<radialGradient id="paint5_radial_17_7989" cx="0" cy="0" r="1" gradientUnits="userSpaceOnUse" gradientTransform="translate(213.986 174.604) rotate(135.636) scale(8.82443 8.78564)">
<stop stop-color="#FEFEFE"/>
<stop offset="1" stop-color="#0059FF" stop-opacity="0"/>
</radialGradient>
<radialGradient id="paint6_radial_17_7989" cx="0" cy="0" r="1" gradientUnits="userSpaceOnUse" gradientTransform="translate(226.33 137.984) rotate(138.081) scale(13.9433 13.8817)">
<stop stop-color="#FEFEFE"/>
<stop offset="1" stop-color="#0059FF" stop-opacity="0"/>
</radialGradient>
<radialGradient id="paint7_radial_17_7989" cx="0" cy="0" r="1" gradientUnits="userSpaceOnUse" gradientTransform="translate(226.33 137.984) rotate(135.636) scale(8.82443 8.78564)">
<stop stop-color="#FEFEFE"/>
<stop offset="1" stop-color="#0059FF" stop-opacity="0"/>
</radialGradient>
<radialGradient id="paint8_radial_17_7989" cx="0" cy="0" r="1" gradientUnits="userSpaceOnUse" gradientTransform="translate(191.193 203.546) rotate(138.081) scale(13.9433 13.8817)">
<stop stop-color="#FEFEFE"/>
<stop offset="1" stop-color="#0059FF" stop-opacity="0"/>
</radialGradient>
<radialGradient id="paint9_radial_17_7989" cx="0" cy="0" r="1" gradientUnits="userSpaceOnUse" gradientTransform="translate(191.193 203.546) rotate(135.636) scale(8.82443 8.78564)">
<stop stop-color="#FEFEFE"/>
<stop offset="1" stop-color="#0059FF" stop-opacity="0"/>
</radialGradient>
<radialGradient id="paint10_radial_17_7989" cx="0" cy="0" r="1" gradientUnits="userSpaceOnUse" gradientTransform="translate(159.754 223.234) rotate(138.081) scale(13.9433 13.8817)">
<stop stop-color="#FEFEFE"/>
<stop offset="1" stop-color="#0059FF" stop-opacity="0"/>
</radialGradient>
<radialGradient id="paint11_radial_17_7989" cx="0" cy="0" r="1" gradientUnits="userSpaceOnUse" gradientTransform="translate(159.754 223.234) rotate(135.636) scale(8.82443 8.78564)">
<stop stop-color="#FEFEFE"/>
<stop offset="1" stop-color="#0059FF" stop-opacity="0"/>
</radialGradient>
<radialGradient id="paint12_radial_17_7989" cx="0" cy="0" r="1" gradientUnits="userSpaceOnUse" gradientTransform="translate(122.785 232.123) rotate(138.081) scale(13.9433 13.8817)">
<stop stop-color="#FEFEFE"/>
<stop offset="1" stop-color="#0059FF" stop-opacity="0"/>
</radialGradient>
<radialGradient id="paint13_radial_17_7989" cx="0" cy="0" r="1" gradientUnits="userSpaceOnUse" gradientTransform="translate(122.785 232.123) rotate(135.636) scale(8.82443 8.78564)">
<stop stop-color="#FEFEFE"/>
<stop offset="1" stop-color="#0059FF" stop-opacity="0"/>
</radialGradient>
<radialGradient id="paint14_radial_17_7989" cx="0" cy="0" r="1" gradientUnits="userSpaceOnUse" gradientTransform="translate(224.225 102.937) rotate(138.081) scale(13.9433 13.8817)">
<stop stop-color="#FEFEFE"/>
<stop offset="1" stop-color="#0059FF" stop-opacity="0"/>
</radialGradient>
<radialGradient id="paint15_radial_17_7989" cx="0" cy="0" r="1" gradientUnits="userSpaceOnUse" gradientTransform="translate(224.225 102.937) rotate(135.636) scale(8.82443 8.78564)">
<stop stop-color="#FEFEFE"/>
<stop offset="1" stop-color="#0059FF" stop-opacity="0"/>
</radialGradient>
<radialGradient id="paint16_radial_17_7989" cx="0" cy="0" r="1" gradientUnits="userSpaceOnUse" gradientTransform="translate(210.438 68.5713) rotate(138.081) scale(13.9433 13.8817)">
<stop stop-color="#FEFEFE"/>
<stop offset="1" stop-color="#0059FF" stop-opacity="0"/>
</radialGradient>
<radialGradient id="paint17_radial_17_7989" cx="0" cy="0" r="1" gradientUnits="userSpaceOnUse" gradientTransform="translate(210.438 68.5713) rotate(135.636) scale(8.82443 8.78564)">
<stop stop-color="#FEFEFE"/>
<stop offset="1" stop-color="#0059FF" stop-opacity="0"/>
</radialGradient>
<radialGradient id="paint18_radial_17_7989" cx="0" cy="0" r="1" gradientUnits="userSpaceOnUse" gradientTransform="translate(186.527 40.0996) rotate(138.081) scale(13.9433 13.8817)">
<stop stop-color="#FEFEFE"/>
<stop offset="1" stop-color="#0059FF" stop-opacity="0"/>
</radialGradient>
<radialGradient id="paint19_radial_17_7989" cx="0" cy="0" r="1" gradientUnits="userSpaceOnUse" gradientTransform="translate(186.527 40.0996) rotate(135.636) scale(8.82444 8.78564)">
<stop stop-color="#FEFEFE"/>
<stop offset="1" stop-color="#0059FF" stop-opacity="0"/>
</radialGradient>
<radialGradient id="paint20_radial_17_7989" cx="0" cy="0" r="1" gradientUnits="userSpaceOnUse" gradientTransform="translate(85.8361 227.981) rotate(138.081) scale(13.9433 13.8817)">
<stop stop-color="#FEFEFE"/>
<stop offset="1" stop-color="#0059FF" stop-opacity="0"/>
</radialGradient>
<radialGradient id="paint21_radial_17_7989" cx="0" cy="0" r="1" gradientUnits="userSpaceOnUse" gradientTransform="translate(85.8361 227.981) rotate(135.636) scale(8.82443 8.78564)">
<stop stop-color="#FEFEFE"/>
<stop offset="1" stop-color="#0059FF" stop-opacity="0"/>
</radialGradient>
<radialGradient id="paint22_radial_17_7989" cx="0" cy="0" r="1" gradientUnits="userSpaceOnUse" gradientTransform="translate(25.7546 73.7143) rotate(98.2946) scale(13.9438 13.8813)">
<stop stop-color="#FEFEFE"/>
<stop offset="1" stop-color="#0059FF" stop-opacity="0"/>
</radialGradient>
<radialGradient id="paint23_radial_17_7989" cx="0" cy="0" r="1" gradientUnits="userSpaceOnUse" gradientTransform="translate(25.7546 73.7143) rotate(100.74) scale(8.82467 8.7854)">
<stop stop-color="#FEFEFE"/>
<stop offset="1" stop-color="#0059FF" stop-opacity="0"/>
</radialGradient>
<radialGradient id="paint24_radial_17_7989" cx="0" cy="0" r="1" gradientUnits="userSpaceOnUse" gradientTransform="translate(49.4069 43.1669) rotate(98.2946) scale(13.9438 13.8813)">
<stop stop-color="#FEFEFE"/>
<stop offset="1" stop-color="#0059FF" stop-opacity="0"/>
</radialGradient>
<radialGradient id="paint25_radial_17_7989" cx="0" cy="0" r="1" gradientUnits="userSpaceOnUse" gradientTransform="translate(49.4069 43.1669) rotate(100.74) scale(8.82467 8.7854)">
<stop stop-color="#FEFEFE"/>
<stop offset="1" stop-color="#0059FF" stop-opacity="0"/>
</radialGradient>
<radialGradient id="paint26_radial_17_7989" cx="0" cy="0" r="1" gradientUnits="userSpaceOnUse" gradientTransform="translate(14.2722 108.726) rotate(98.2946) scale(13.9438 13.8813)">
<stop stop-color="#FEFEFE"/>
<stop offset="1" stop-color="#0059FF" stop-opacity="0"/>
</radialGradient>
<radialGradient id="paint27_radial_17_7989" cx="0" cy="0" r="1" gradientUnits="userSpaceOnUse" gradientTransform="translate(14.2722 108.726) rotate(100.74) scale(8.82467 8.7854)">
<stop stop-color="#FEFEFE"/>
<stop offset="1" stop-color="#0059FF" stop-opacity="0"/>
</radialGradient>
<radialGradient id="paint28_radial_17_7989" cx="0" cy="0" r="1" gradientUnits="userSpaceOnUse" gradientTransform="translate(15.2858 145.809) rotate(98.2946) scale(13.9438 13.8813)">
<stop stop-color="#FEFEFE"/>
<stop offset="1" stop-color="#0059FF" stop-opacity="0"/>
</radialGradient>
<radialGradient id="paint29_radial_17_7989" cx="0" cy="0" r="1" gradientUnits="userSpaceOnUse" gradientTransform="translate(15.2858 145.809) rotate(100.74) scale(8.82467 8.7854)">
<stop stop-color="#FEFEFE"/>
<stop offset="1" stop-color="#0059FF" stop-opacity="0"/>
</radialGradient>
<radialGradient id="paint30_radial_17_7989" cx="0" cy="0" r="1" gradientUnits="userSpaceOnUse" gradientTransform="translate(28.3522 181.523) rotate(98.2946) scale(13.9438 13.8813)">
<stop stop-color="#FEFEFE"/>
<stop offset="1" stop-color="#0059FF" stop-opacity="0"/>
</radialGradient>
<radialGradient id="paint31_radial_17_7989" cx="0" cy="0" r="1" gradientUnits="userSpaceOnUse" gradientTransform="translate(28.3522 181.523) rotate(100.74) scale(8.82467 8.7854)">
<stop stop-color="#FEFEFE"/>
<stop offset="1" stop-color="#0059FF" stop-opacity="0"/>
</radialGradient>
<radialGradient id="paint32_radial_17_7989" cx="0" cy="0" r="1" gradientUnits="userSpaceOnUse" gradientTransform="translate(79.7604 25.5087) rotate(98.2946) scale(13.9438 13.8813)">
<stop stop-color="#FEFEFE"/>
<stop offset="1" stop-color="#0059FF" stop-opacity="0"/>
</radialGradient>
<radialGradient id="paint33_radial_17_7989" cx="0" cy="0" r="1" gradientUnits="userSpaceOnUse" gradientTransform="translate(79.7604 25.5087) rotate(100.74) scale(8.82467 8.7854)">
<stop stop-color="#FEFEFE"/>
<stop offset="1" stop-color="#0059FF" stop-opacity="0"/>
</radialGradient>
<radialGradient id="paint34_radial_17_7989" cx="0" cy="0" r="1" gradientUnits="userSpaceOnUse" gradientTransform="translate(116.007 17.9677) rotate(98.2946) scale(13.9438 13.8813)">
<stop stop-color="#FEFEFE"/>
<stop offset="1" stop-color="#0059FF" stop-opacity="0"/>
</radialGradient>
<radialGradient id="paint35_radial_17_7989" cx="0" cy="0" r="1" gradientUnits="userSpaceOnUse" gradientTransform="translate(116.007 17.9677) rotate(100.74) scale(8.82467 8.7854)">
<stop stop-color="#FEFEFE"/>
<stop offset="1" stop-color="#0059FF" stop-opacity="0"/>
</radialGradient>
<radialGradient id="paint36_radial_17_7989" cx="0" cy="0" r="1" gradientUnits="userSpaceOnUse" gradientTransform="translate(152.952 22.1127) rotate(98.2946) scale(13.9438 13.8813)">
<stop stop-color="#FEFEFE"/>
<stop offset="1" stop-color="#0059FF" stop-opacity="0"/>
</radialGradient>
<radialGradient id="paint37_radial_17_7989" cx="0" cy="0" r="1" gradientUnits="userSpaceOnUse" gradientTransform="translate(152.952 22.1127) rotate(100.74) scale(8.82467 8.7854)">
<stop stop-color="#FEFEFE"/>
<stop offset="1" stop-color="#0059FF" stop-opacity="0"/>
</radialGradient>
<radialGradient id="paint38_radial_17_7989" cx="0" cy="0" r="1" gradientUnits="userSpaceOnUse" gradientTransform="translate(52.2604 209.995) rotate(98.2946) scale(13.9438 13.8813)">
<stop stop-color="#FEFEFE"/>
<stop offset="1" stop-color="#0059FF" stop-opacity="0"/>
</radialGradient>
<radialGradient id="paint39_radial_17_7989" cx="0" cy="0" r="1" gradientUnits="userSpaceOnUse" gradientTransform="translate(52.2604 209.995) rotate(100.74) scale(8.82467 8.7854)">
<stop stop-color="#FEFEFE"/>
<stop offset="1" stop-color="#0059FF" stop-opacity="0"/>
</radialGradient>
<radialGradient id="paint40_radial_17_7989" cx="0" cy="0" r="1" gradientUnits="userSpaceOnUse" gradientTransform="translate(119.863 124.436) rotate(118.187) scale(103.131 102.531)">
<stop/>
<stop offset="0.84" stop-color="#434343"/>
</radialGradient>
<clipPath id="clip0_17_7989">
<rect width="240" height="245" fill="white"/>
</clipPath>
</defs>
</svg>
