<svg width="32" height="32" viewBox="0 0 32 32" fill="none" xmlns="http://www.w3.org/2000/svg">
<path d="M13.9219 3.6C14.8457 2 17.1551 2 18.0789 3.6L29.164 22.8C30.0877 24.4 28.933 26.4 27.0855 26.4L4.91527 26.4C3.06775 26.4 1.91304 24.4 2.8368 22.8L13.9219 3.6Z" fill="#00ACDB"/>
<path d="M16.0001 23.2C15.1178 23.2 14.4004 22.4826 14.4004 21.6004C14.4004 20.7181 15.1178 20 16.0001 20C16.8824 20 17.6004 20.7184 17.6004 21.6004C17.6004 22.4824 16.8826 23.2 16.0001 23.2Z" fill="#014589"/>
<path d="M15.3019 17.311C15.4544 18.0737 16.5448 18.0737 16.6974 17.311L17.9289 11.1532C18.1724 9.93571 17.2412 8.7998 15.9996 8.7998C14.758 8.7998 13.8268 9.93571 14.0703 11.1532L15.3019 17.311Z" fill="#014589"/>
</svg>
