<svg width="300" height="300" viewBox="0 0 300 300" fill="none" xmlns="http://www.w3.org/2000/svg">
<g clip-path="url(#clip0_17_9590)">
<rect width="300" height="300" rx="60" fill="url(#paint0_radial_17_9590)"/>
<path d="M73.1116 222.965V69.8418H99.0575L149.673 171.499L200.289 69.8418H226.235V222.965H199.226V131.517L154.777 222.965H144.569L100.121 131.517V222.965H73.1116Z" fill="white"/>
<path d="M68.3932 8.56592C68.3932 29.867 62.9475 35.3489 41.7871 35.3489C62.9475 35.3489 68.3932 40.8309 68.3932 62.132C68.3932 40.8309 73.8389 35.3489 94.9994 35.3489C73.8389 35.3489 68.3932 29.867 68.3932 8.56592Z" fill="white"/>
<path d="M29.125 73C29.125 90.7135 24.5965 95.2721 7 95.2721C24.5965 95.2721 29.125 99.8307 29.125 117.544C29.125 99.8307 33.6535 95.2721 51.25 95.2721C33.6535 95.2721 29.125 90.7135 29.125 73Z" fill="white"/>
<path d="M247.936 214.891C247.936 240.059 241.501 246.536 216.5 246.536C241.501 246.536 247.936 253.013 247.936 278.18C247.936 253.013 254.37 246.536 279.371 246.536C254.37 246.536 247.936 240.059 247.936 214.891Z" fill="white"/>
<path d="M278.192 144.57C278.192 166.834 272.5 172.564 250.383 172.564C272.5 172.564 278.192 178.293 278.192 200.557C278.192 178.293 283.884 172.564 306.001 172.564C283.884 172.564 278.192 166.834 278.192 144.57Z" fill="white"/>
<path d="M187.901 259C187.901 270.13 185.056 272.994 174 272.994C185.056 272.994 187.901 275.858 187.901 286.988C187.901 275.858 190.747 272.994 201.803 272.994C190.747 272.994 187.901 270.13 187.901 259Z" fill="white"/>
</g>
<defs>
<radialGradient id="paint0_radial_17_9590" cx="0" cy="0" r="1" gradientUnits="userSpaceOnUse" gradientTransform="translate(273.375 255) rotate(-150.95) scale(410.089 313.869)">
<stop stop-color="#04DBF3"/>
<stop offset="0.587715" stop-color="#1C549A"/>
<stop offset="1" stop-color="#223585"/>
</radialGradient>
<clipPath id="clip0_17_9590">
<rect width="300" height="300" fill="white"/>
</clipPath>
</defs>
</svg>
