<svg width="416" height="224" viewBox="0 0 416 224" fill="none" xmlns="http://www.w3.org/2000/svg">
<g filter="url(#filter0_f_17_1291)">
<path d="M179.46 80.6149C179.256 80.377 179.144 80.0744 179.144 79.7615C179.144 79.4486 179.256 79.146 179.46 78.9082C182.256 75.9252 183.869 72.0309 183.999 67.9506C182.339 41.7047 130.523 41.4867 127.05 66.5151C126.069 79.0136 139.676 87.9973 155.83 87.9968C160.941 88.0049 165.998 86.958 170.682 84.922C170.973 84.7954 171.298 84.7669 171.606 84.8407L182.259 87.9424C182.537 88.0268 182.835 88.0182 183.107 87.9179C183.38 87.8177 183.612 87.6312 183.768 87.3871C183.93 87.1487 184.011 86.8645 183.999 86.5767C183.987 86.2889 183.882 86.0126 183.7 85.7888L179.46 80.6149Z" fill="#65C3E8"/>
<g opacity="0.6" filter="url(#filter1_d_17_1291)">
<path d="M153.555 43.5646C154.359 43.5677 155.233 43.5974 156 43.6316C152.332 36.7169 142.879 32 131.822 32C117.587 32 106 40.067 106 50.037C106.124 53.6982 107.586 57.1917 110.116 59.873C110.28 60.0586 110.371 60.2966 110.371 60.5431C110.371 60.7895 110.28 61.0275 110.116 61.2131L106.312 65.8229C106.135 66.045 106.033 66.3165 106.021 66.599C106.009 66.8814 106.088 67.1604 106.246 67.3963C106.404 67.6322 106.633 67.813 106.901 67.913C107.169 68.013 107.462 68.0272 107.739 67.9534L117.342 65.1797C118.831 65.2639 120.712 66.4708 122.354 66.7338C122.319 65.9424 122.346 65.1495 122.436 64.3622C123.617 52.7171 137.296 43.5646 153.555 43.5646Z" fill="#65C3E8"/>
</g>
</g>
<g filter="url(#filter2_f_17_1291)">
<path d="M155.745 72.5496C154.888 72.6228 154.114 71.9857 154.159 71.1275C154.19 70.5536 154.274 70.0473 154.412 69.6087C154.662 68.7864 155.017 68.1154 155.476 67.5956C155.934 67.0759 156.422 66.6223 156.938 66.2349C157.475 65.8229 157.978 65.4138 158.446 65.0076C158.915 64.6014 159.284 64.1008 159.554 63.5057C159.823 62.9106 159.918 62.1474 159.838 61.216C159.757 60.2619 159.301 59.4771 158.47 58.8617C157.66 58.2215 156.585 57.9588 155.245 58.0734C154.404 58.1452 153.682 58.3901 153.077 58.8079C152.47 59.2031 152.009 59.7001 151.694 60.2991C151.609 60.4537 151.537 60.6113 151.479 60.7718C151.215 61.4999 150.678 62.2052 149.906 62.2711C149.134 62.3371 148.434 61.7601 148.522 60.9908C148.534 60.8821 148.55 60.775 148.568 60.6694C148.68 60.1106 148.843 59.6047 149.056 59.1517C149.578 58.0316 150.384 57.1504 151.473 56.5081C152.56 55.8431 153.751 55.4552 155.046 55.3445C156.363 55.2319 157.567 55.3921 158.657 55.8252C159.767 56.2337 160.681 56.8878 161.399 57.7875C162.116 58.6872 162.533 59.8185 162.65 61.1815C162.757 62.4309 162.684 63.4554 162.432 64.255C162.201 65.0298 161.867 65.6762 161.431 66.194C161.015 66.6872 160.55 67.1275 160.034 67.5148C159.516 67.8795 159.034 68.2639 158.588 68.6682C158.164 69.0705 157.818 69.5692 157.549 70.1643C157.457 70.3739 157.388 70.6078 157.341 70.866C157.187 71.7115 156.601 72.4764 155.745 72.5496ZM156.085 80.3463C155.495 80.3968 154.965 80.2246 154.496 79.8299C154.028 79.4352 153.769 78.9539 153.721 78.386C153.67 77.7954 153.842 77.2658 154.237 76.7973C154.632 76.3288 155.125 76.0693 155.715 76.0188C156.306 75.9683 156.824 76.1414 157.27 76.538C157.716 76.9347 157.964 77.4283 158.014 78.0189C158.063 78.5868 157.901 79.1041 157.529 79.5707C157.157 80.0372 156.676 80.2958 156.085 80.3463Z" fill="#014589"/>
</g>
<g filter="url(#filter3_f_17_1291)">
<path d="M346.54 211.615C346.744 211.377 346.856 211.074 346.856 210.762C346.856 210.449 346.744 210.146 346.54 209.908C343.744 206.925 342.131 203.031 342.001 198.951C343.661 172.705 395.477 172.487 398.95 197.515C399.931 210.014 386.324 218.997 370.17 218.997C365.059 219.005 360.002 217.958 355.318 215.922C355.027 215.795 354.702 215.767 354.394 215.841L343.741 218.942C343.463 219.027 343.165 219.018 342.893 218.918C342.62 218.818 342.388 218.631 342.232 218.387C342.07 218.149 341.989 217.865 342.001 217.577C342.013 217.289 342.118 217.013 342.3 216.789L346.54 211.615Z" fill="#65C3E8"/>
</g>
<g filter="url(#filter4_f_17_1291)">
<path d="M369.449 203.55C368.592 203.623 367.818 202.986 367.863 202.128C367.894 201.554 367.978 201.047 368.116 200.609C368.366 199.786 368.721 199.115 369.18 198.596C369.639 198.076 370.126 197.622 370.642 197.235C371.179 196.823 371.682 196.414 372.15 196.008C372.619 195.601 372.988 195.101 373.258 194.506C373.527 193.911 373.622 193.147 373.542 192.216C373.461 191.262 373.005 190.477 372.174 189.862C371.364 189.222 370.289 188.959 368.949 189.073C368.108 189.145 367.386 189.39 366.781 189.808C366.174 190.203 365.713 190.7 365.398 191.299C365.313 191.454 365.241 191.611 365.183 191.772C364.92 192.5 364.382 193.205 363.61 193.271C362.839 193.337 362.138 192.76 362.226 191.991C362.238 191.882 362.254 191.775 362.272 191.669C362.384 191.111 362.547 190.605 362.76 190.152C363.282 189.032 364.088 188.15 365.177 187.508C366.264 186.843 367.455 186.455 368.75 186.345C370.068 186.232 371.271 186.392 372.361 186.825C373.471 187.234 374.385 187.888 375.103 188.787C375.82 189.687 376.238 190.819 376.354 192.182C376.461 193.431 376.388 194.455 376.136 195.255C375.905 196.03 375.571 196.676 375.135 197.194C374.72 197.687 374.254 198.127 373.738 198.515C373.22 198.879 372.738 199.264 372.292 199.668C371.869 200.07 371.522 200.569 371.253 201.164C371.161 201.374 371.092 201.608 371.045 201.866C370.891 202.712 370.305 203.476 369.449 203.55ZM369.789 211.346C369.199 211.397 368.669 211.225 368.201 210.83C367.732 210.435 367.474 209.954 367.425 209.386C367.374 208.795 367.547 208.266 367.941 207.797C368.336 207.329 368.829 207.069 369.419 207.019C370.01 206.968 370.528 207.141 370.974 207.538C371.42 207.935 371.668 208.428 371.718 209.019C371.767 209.587 371.605 210.104 371.233 210.571C370.861 211.037 370.38 211.296 369.789 211.346Z" fill="#014589"/>
</g>
<g opacity="0.5" filter="url(#filter5_f_17_1291)">
<path d="M48.9541 152.734C47.9621 152.574 47.2644 151.632 47.5591 150.671C47.7561 150.029 47.9952 149.478 48.2764 149.02C48.7932 148.158 49.3856 147.498 50.0536 147.038C50.7215 146.579 51.4031 146.203 52.0983 145.909C52.8241 145.594 53.5104 145.273 54.1572 144.945C54.804 144.617 55.3646 144.154 55.839 143.555C56.3134 142.957 56.6375 142.118 56.8112 141.039C56.9892 139.933 56.6944 138.914 55.9267 137.98C55.1896 137.025 54.0447 136.422 52.4919 136.172C51.5182 136.015 50.6289 136.088 49.8242 136.39C49.0237 136.666 48.36 137.099 47.8329 137.69C47.6927 137.841 47.5668 137.999 47.4554 138.165C46.9498 138.916 46.1397 139.563 45.2458 139.419C44.3519 139.275 43.7204 138.422 44.0388 137.575C44.0838 137.455 44.1315 137.338 44.182 137.223C44.4679 136.621 44.7959 136.093 45.1659 135.64C46.0757 134.518 47.2394 133.746 48.657 133.327C50.0789 132.881 51.5398 132.778 53.04 133.02C54.5664 133.266 55.8862 133.789 56.9993 134.589C58.1431 135.367 58.9944 136.368 59.5533 137.592C60.1122 138.816 60.2645 140.218 60.0102 141.797C59.7771 143.244 59.4043 144.386 58.8917 145.221C58.4098 146.035 57.8479 146.673 57.2062 147.137C56.5951 147.579 55.942 147.946 55.2468 148.239C54.5558 148.506 53.9001 148.805 53.2796 149.137C52.6854 149.474 52.1511 149.941 51.6767 150.54C51.5137 150.751 51.3689 150.997 51.2423 151.277C50.8278 152.192 49.9461 152.894 48.9541 152.734ZM47.1297 161.674C46.4454 161.564 45.8935 161.219 45.474 160.638C45.0545 160.057 44.8977 159.438 45.0037 158.78C45.1139 158.096 45.4592 157.544 46.0398 157.125C46.6204 156.705 47.2528 156.55 47.937 156.661C48.6213 156.771 49.16 157.114 49.5532 157.69C49.9464 158.267 50.0879 158.897 49.9778 159.581C49.8718 160.239 49.5417 160.78 48.9875 161.204C48.4332 161.628 47.814 161.784 47.1297 161.674Z" fill="#00E6FF"/>
</g>
<g opacity="0.5" filter="url(#filter6_f_17_1291)">
<path d="M402.289 170.113C401.285 170.113 400.446 169.293 400.584 168.298C400.677 167.633 400.825 167.051 401.03 166.554C401.403 165.621 401.883 164.875 402.469 164.315C403.056 163.755 403.669 163.275 404.309 162.875C404.975 162.449 405.601 162.022 406.188 161.596C406.774 161.169 407.254 160.623 407.627 159.956C408.001 159.29 408.187 158.41 408.187 157.317C408.187 156.198 407.734 155.238 406.828 154.438C405.948 153.612 404.722 153.199 403.149 153.199C402.163 153.199 401.296 153.412 400.55 153.839C399.804 154.238 399.217 154.772 398.791 155.438C398.676 155.61 398.577 155.786 398.493 155.967C398.114 156.789 397.417 157.557 396.511 157.557C395.606 157.557 394.847 156.815 395.027 155.928C395.052 155.802 395.08 155.679 395.112 155.558C395.299 154.918 395.538 154.345 395.832 153.839C396.551 152.586 397.578 151.639 398.911 151C400.243 150.333 401.67 150 403.189 150C404.735 150 406.121 150.307 407.348 150.92C408.6 151.506 409.6 152.359 410.346 153.479C411.093 154.598 411.466 155.958 411.466 157.557C411.466 159.023 411.279 160.21 410.906 161.116C410.56 161.996 410.107 162.715 409.547 163.275C409.014 163.808 408.427 164.275 407.787 164.675C407.148 165.048 406.548 165.448 405.988 165.874C405.455 166.301 405.002 166.847 404.629 167.514C404.501 167.749 404.397 168.014 404.317 168.31C404.053 169.28 403.294 170.113 402.289 170.113ZM401.91 179.229C401.216 179.229 400.617 178.976 400.11 178.47C399.604 177.963 399.35 177.377 399.35 176.71C399.35 176.017 399.604 175.417 400.11 174.911C400.617 174.404 401.216 174.151 401.91 174.151C402.603 174.151 403.189 174.404 403.669 174.911C404.149 175.417 404.389 176.017 404.389 176.71C404.389 177.377 404.149 177.963 403.669 178.47C403.189 178.976 402.603 179.229 401.91 179.229Z" fill="#00E6FF"/>
</g>
<g opacity="0.8" filter="url(#filter7_f_17_1291)">
<path d="M297.244 37.9032C295.655 37.1534 294.939 35.2312 295.9 33.7595C296.543 32.7752 297.212 31.9661 297.907 31.3321C299.194 30.1343 300.51 29.3113 301.856 28.8631C303.202 28.4149 304.53 28.1132 305.84 27.9579C307.213 27.7803 308.523 27.5728 309.769 27.3356C311.015 27.0983 312.182 26.5917 313.27 25.8156C314.358 25.0396 315.31 23.7868 316.125 22.0574C316.961 20.2858 316.96 18.4291 316.123 16.4873C315.347 14.5233 313.715 12.9544 311.227 11.7808C309.666 11.0448 308.136 10.7357 306.636 10.8536C305.157 10.9294 303.831 11.3354 302.659 12.0716C302.35 12.2578 302.061 12.4631 301.794 12.6874C300.579 13.7046 298.904 14.3999 297.471 13.7242C296.038 13.0486 295.391 11.308 296.337 10.0378C296.471 9.8583 296.608 9.68448 296.748 9.51628C297.521 8.64318 298.328 7.91532 299.17 7.33269C301.244 5.88727 303.574 5.15569 306.161 5.13795C308.767 5.07804 311.273 5.61501 313.677 6.74887C316.123 7.90262 318.088 9.42211 319.571 11.3073C321.116 13.1702 322.061 15.266 322.407 17.5946C322.752 19.9232 322.328 22.3529 321.135 24.8838C320.041 27.2038 318.86 28.9416 317.593 30.0972C316.388 31.2306 315.134 32.0313 313.831 32.4994C312.589 32.9452 311.313 33.2457 310.002 33.401C308.712 33.5142 307.464 33.6993 306.26 33.9565C305.098 34.2335 303.973 34.7601 302.885 35.5361C302.509 35.813 302.146 36.1557 301.797 36.5643C300.657 37.9018 298.834 38.653 297.244 37.9032ZM289.84 52.0457C288.744 51.5285 287.983 50.6802 287.56 49.5008C287.136 48.3214 287.173 47.2045 287.671 46.1499C288.188 45.0532 289.036 44.2931 290.216 43.8696C291.395 43.4461 292.533 43.493 293.63 44.0102C294.726 44.5274 295.465 45.3658 295.847 46.5253C296.228 47.6848 296.16 48.8129 295.643 49.9096C295.146 50.9641 294.328 51.7131 293.191 52.1564C292.054 52.5998 290.937 52.5629 289.84 52.0457Z" fill="#00E6FF"/>
</g>
<g opacity="0.5" filter="url(#filter8_f_17_1291)">
<path d="M29.3519 169.411C27.8333 170.296 25.8439 169.797 25.1758 168.171C24.729 167.083 24.4413 166.074 24.3127 165.142C24.0547 163.403 24.1222 161.852 24.5154 160.489C24.9085 159.126 25.4124 157.861 26.0271 156.693C26.6585 155.461 27.2296 154.264 27.7401 153.103C28.2507 151.942 28.4944 150.693 28.4713 149.357C28.4482 148.021 27.9551 146.527 26.9922 144.875C26.0057 143.183 24.4752 142.132 22.4007 141.721C20.343 141.248 18.1256 141.703 15.7485 143.089C14.2578 143.958 13.1362 145.044 12.3839 146.346C11.6081 147.608 11.1915 148.931 11.134 150.314C11.1123 150.674 11.118 151.028 11.1511 151.376C11.3014 152.953 10.9249 154.727 9.55646 155.525C8.18799 156.323 6.38688 155.87 5.87636 154.371C5.80424 154.159 5.73867 153.947 5.67967 153.736C5.398 152.605 5.25563 151.527 5.25256 150.504C5.23649 147.976 5.95385 145.641 7.40466 143.5C8.83198 141.318 10.6939 139.558 12.9904 138.219C15.3273 136.857 17.6925 136.099 20.086 135.945C22.4964 135.728 24.7589 136.136 26.8735 137.171C28.9881 138.205 30.75 139.931 32.1592 142.349C33.451 144.565 34.2142 146.522 34.4487 148.221C34.7 149.855 34.6493 151.343 34.2964 152.682C33.9603 153.957 33.485 155.179 32.8703 156.347C32.2322 157.475 31.678 158.608 31.2077 159.746C30.7777 160.86 30.5743 162.085 30.5974 163.421C30.612 163.889 30.689 164.382 30.8282 164.901C31.2841 166.598 30.8706 168.525 29.3519 169.411ZM36.8105 183.525C35.763 184.135 34.6333 184.281 33.4216 183.962C32.2098 183.643 31.3103 182.979 30.7231 181.972C30.1124 180.925 29.9667 179.795 30.286 178.583C30.6052 177.371 31.2886 176.46 32.3362 175.849C33.3837 175.239 34.4932 175.105 35.6647 175.448C36.8362 175.79 37.7273 176.485 38.3379 177.533C38.9251 178.54 39.0792 179.638 38.8003 180.826C38.5213 182.015 37.8581 182.914 36.8105 183.525Z" fill="#00E6FF"/>
</g>
<defs>
<filter id="filter0_f_17_1291" x="101.547" y="27.5465" width="86.9069" height="64.9069" filterUnits="userSpaceOnUse" color-interpolation-filters="sRGB">
<feFlood flood-opacity="0" result="BackgroundImageFix"/>
<feBlend mode="normal" in="SourceGraphic" in2="BackgroundImageFix" result="shape"/>
<feGaussianBlur stdDeviation="2.22673" result="effect1_foregroundBlur_17_1291"/>
</filter>
<filter id="filter1_d_17_1291" x="106" y="32" width="59" height="44" filterUnits="userSpaceOnUse" color-interpolation-filters="sRGB">
<feFlood flood-opacity="0" result="BackgroundImageFix"/>
<feColorMatrix in="SourceAlpha" type="matrix" values="0 0 0 0 0 0 0 0 0 0 0 0 0 0 0 0 0 0 127 0" result="hardAlpha"/>
<feOffset dx="5" dy="4"/>
<feGaussianBlur stdDeviation="2"/>
<feComposite in2="hardAlpha" operator="out"/>
<feColorMatrix type="matrix" values="0 0 0 0 0 0 0 0 0 0 0 0 0 0 0 0 0 0 0.25 0"/>
<feBlend mode="normal" in2="BackgroundImageFix" result="effect1_dropShadow_17_1291"/>
<feBlend mode="normal" in="SourceGraphic" in2="effect1_dropShadow_17_1291" result="shape"/>
</filter>
<filter id="filter2_f_17_1291" x="144.515" y="51.3096" width="22.1826" height="33.0452" filterUnits="userSpaceOnUse" color-interpolation-filters="sRGB">
<feFlood flood-opacity="0" result="BackgroundImageFix"/>
<feBlend mode="normal" in="SourceGraphic" in2="BackgroundImageFix" result="shape"/>
<feGaussianBlur stdDeviation="2" result="effect1_foregroundBlur_17_1291"/>
</filter>
<filter id="filter3_f_17_1291" x="337.547" y="174.547" width="65.9069" height="48.9069" filterUnits="userSpaceOnUse" color-interpolation-filters="sRGB">
<feFlood flood-opacity="0" result="BackgroundImageFix"/>
<feBlend mode="normal" in="SourceGraphic" in2="BackgroundImageFix" result="shape"/>
<feGaussianBlur stdDeviation="2.22673" result="effect1_foregroundBlur_17_1291"/>
</filter>
<filter id="filter4_f_17_1291" x="358.219" y="182.31" width="22.1826" height="33.0452" filterUnits="userSpaceOnUse" color-interpolation-filters="sRGB">
<feFlood flood-opacity="0" result="BackgroundImageFix"/>
<feBlend mode="normal" in="SourceGraphic" in2="BackgroundImageFix" result="shape"/>
<feGaussianBlur stdDeviation="2" result="effect1_foregroundBlur_17_1291"/>
</filter>
<filter id="filter5_f_17_1291" x="39.9551" y="128.893" width="24.1748" height="36.8157" filterUnits="userSpaceOnUse" color-interpolation-filters="sRGB">
<feFlood flood-opacity="0" result="BackgroundImageFix"/>
<feBlend mode="normal" in="SourceGraphic" in2="BackgroundImageFix" result="shape"/>
<feGaussianBlur stdDeviation="2" result="effect1_foregroundBlur_17_1291"/>
</filter>
<filter id="filter6_f_17_1291" x="391" y="146" width="24.4658" height="37.2292" filterUnits="userSpaceOnUse" color-interpolation-filters="sRGB">
<feFlood flood-opacity="0" result="BackgroundImageFix"/>
<feBlend mode="normal" in="SourceGraphic" in2="BackgroundImageFix" result="shape"/>
<feGaussianBlur stdDeviation="2" result="effect1_foregroundBlur_17_1291"/>
</filter>
<filter id="filter7_f_17_1291" x="284.293" y="2.15865" width="41.2057" height="53.2796" filterUnits="userSpaceOnUse" color-interpolation-filters="sRGB">
<feFlood flood-opacity="0" result="BackgroundImageFix"/>
<feBlend mode="normal" in="SourceGraphic" in2="BackgroundImageFix" result="shape"/>
<feGaussianBlur stdDeviation="1.48745" result="effect1_foregroundBlur_17_1291"/>
</filter>
<filter id="filter8_f_17_1291" x="2.27706" y="132.914" width="39.6324" height="54.1876" filterUnits="userSpaceOnUse" color-interpolation-filters="sRGB">
<feFlood flood-opacity="0" result="BackgroundImageFix"/>
<feBlend mode="normal" in="SourceGraphic" in2="BackgroundImageFix" result="shape"/>
<feGaussianBlur stdDeviation="1.48745" result="effect1_foregroundBlur_17_1291"/>
</filter>
</defs>
</svg>
