<svg width="501" height="500" viewBox="0 0 501 500" fill="none" xmlns="http://www.w3.org/2000/svg">
<g opacity="0.6" clip-path="url(#clip0_479_1241)" filter="url(#filter0_f_479_1241)">
<g filter="url(#filter1_f_479_1241)">
<path d="M179.712 143.194L184.402 140.852" stroke="#67C3E9" stroke-width="2.51317" stroke-miterlimit="10" stroke-linecap="round"/>
</g>
<g filter="url(#filter2_f_479_1241)">
<path d="M164.094 137.012L162.912 132.207" stroke="#67C3E9" stroke-width="2.51317" stroke-miterlimit="10" stroke-linecap="round"/>
</g>
<g filter="url(#filter3_f_479_1241)">
<path d="M172.775 137.086L175.727 129.057" stroke="#67C3E9" stroke-width="2.51317" stroke-miterlimit="10" stroke-linecap="round"/>
</g>
<g opacity="0.8" filter="url(#filter4_f_479_1241)">
<path d="M183.972 164.542C183.951 164.596 183.901 164.662 183.823 164.697C183.746 164.734 183.661 164.727 183.616 164.71C183.604 164.707 183.594 164.702 183.585 164.698C183.578 164.694 183.588 164.7 183.588 164.7L183.596 164.705L183.627 164.725L183.691 164.766C185.644 165.965 188.21 165.479 190.025 164.257C193.561 161.893 194.023 157.377 191.944 153.849C190.423 151.094 187.746 149.078 184.542 148.944C182.995 148.881 181.375 149.149 180.069 150.02C178.787 150.88 177.881 152.277 177.537 153.766L178.341 153.874C178.413 152.196 178.015 150.476 177.222 148.986C176.013 146.696 173.903 144.891 171.44 144.078C168.092 142.949 164.311 144.03 161.656 146.234C159.963 147.644 158.695 149.667 158.498 151.895C158.234 154.991 160.041 157.896 162.431 159.723C163.11 160.238 163.842 160.68 164.657 160.954C164.856 161.063 165.104 160.992 165.213 160.794C165.319 160.601 165.252 160.357 165.062 160.245L164.996 160.206C163.183 159.116 160.835 158.968 158.847 159.684C157.821 160.055 156.82 160.614 156.077 161.433L155.937 161.588L155.805 161.75L155.738 161.831C154.405 163.533 154.176 165.763 154.968 167.76C156.228 171.012 159.629 172.841 162.948 171.587C162.95 171.588 162.515 170.948 162.515 170.948C161.992 171.551 161.598 172.268 161.328 173.025C160.527 175.313 160.832 177.894 161.876 180.06C162.736 181.974 164.516 183.339 166.446 184.042C169.086 185.013 172.07 184.971 174.684 183.953C175.812 183.511 176.871 182.876 177.75 182.036C179.672 180.231 180.689 177.343 179.831 174.778C179.514 173.818 178.949 172.938 178.208 172.255L177.69 172.886C178.513 173.502 179.407 174.004 180.325 174.441C186.262 177.21 194.747 178.035 201.071 176.348C201.516 176.263 201.539 175.619 201.042 175.541C199.358 175.178 197.747 174.511 196.218 173.723C192.358 171.7 188.914 168.941 185.799 165.91C185.26 165.374 184.728 164.822 184.221 164.256L184.193 164.226L184.18 164.21L184.173 164.203C184.24 164.336 184.128 164.526 183.972 164.542Z" fill="#67C3E9"/>
</g>
<g filter="url(#filter5_f_479_1241)">
<path d="M179.53 159.761C179.731 158.67 179.445 157.485 178.729 156.603C178.028 155.745 176.986 155.167 175.886 155.036C174.437 154.895 172.87 155.437 171.883 156.515C171.205 157.281 170.785 158.325 170.888 159.361C170.954 160.037 171.245 160.681 171.671 161.19L172.246 160.495C172.075 160.409 171.889 160.306 171.709 160.239C170.205 159.607 168.472 159.904 167.44 161.227L167.34 161.364L167.29 161.433C167.227 161.53 167.206 161.58 167.153 161.668C167.09 161.772 167.053 161.895 167.004 162.004C166.615 163.051 167.039 164.273 167.929 164.899C168.293 165.167 168.703 165.335 169.113 165.41C169.371 165.457 169.618 165.286 169.665 165.028C169.703 164.819 169.598 164.621 169.422 164.524C168.743 164.118 168.137 163.447 168.286 162.639C168.334 162.401 168.457 162.18 168.612 161.994C169.141 161.313 170.058 161.046 170.921 161.154C171.232 161.184 171.549 161.269 171.871 161.355C172.136 161.431 172.411 161.276 172.482 161.01C172.514 160.889 172.498 160.765 172.446 160.661C172.219 160.211 172.09 159.752 172.111 159.309C172.131 158.655 172.475 157.987 172.941 157.515C173.608 156.878 174.565 156.542 175.486 156.532C176.239 156.531 176.947 156.839 177.517 157.315C177.639 157.425 177.772 157.559 177.878 157.686C177.966 157.798 178.052 157.917 178.127 158.041L178.15 158.077L178.17 158.116C178.44 158.592 178.562 159.125 178.595 159.704C178.639 160.261 179.423 160.305 179.53 159.762L179.53 159.761Z" fill="#05448E"/>
</g>
<g filter="url(#filter6_f_479_1241)">
<path d="M172.942 168.599C172.064 168.302 171.069 168.509 170.323 169.039C168.336 170.415 168.548 173.343 170.573 174.589C171.711 175.301 173.079 175.119 174.108 174.305C174.572 173.94 174.969 173.496 175.224 172.962C175.335 172.731 175.237 172.453 175.005 172.341C174.767 172.229 174.537 172.329 174.391 172.524C173.857 173.129 173.081 173.681 172.253 173.693C171.144 173.691 170.25 172.568 170.313 171.492C170.352 170.309 171.546 169.346 172.711 169.508C173.297 169.599 173.498 168.792 172.943 168.598L172.942 168.599Z" fill="#05448E"/>
</g>
</g>
<g opacity="0.7" filter="url(#filter7_f_479_1241)">
<path d="M468.199 181.452L463.617 194.248L443.205 184.657L464.797 215.304L469.383 202.499L489.801 212.103L468.199 181.452Z" fill="#7DE2FF"/>
</g>
<g opacity="0.7" filter="url(#filter8_f_479_1241)">
<path d="M185.121 42.2539L170.282 49.0249L161.445 23.4434L153.164 67.6647L168.014 60.8887L176.846 86.4863L185.121 42.2539Z" fill="#7DE2FF"/>
</g>
<g opacity="0.7" clip-path="url(#clip1_479_1241)">
<g filter="url(#filter9_f_479_1241)">
<path d="M446.564 93.0493L445.471 86.7484" stroke="#66C3E9" stroke-width="3.066" stroke-miterlimit="10" stroke-linecap="round"/>
</g>
<g filter="url(#filter10_f_479_1241)">
<path d="M463.939 103.916L469.514 101.599" stroke="#66C3E9" stroke-width="3.066" stroke-miterlimit="10" stroke-linecap="round"/>
</g>
<g filter="url(#filter11_f_479_1241)">
<path d="M457.584 95.4426L463.334 86.7329" stroke="#66C3E9" stroke-width="3.066" stroke-miterlimit="10" stroke-linecap="round"/>
</g>
<g opacity="0.8" filter="url(#filter12_f_479_1241)">
<path d="M426.184 128.394C426.212 128.459 426.276 128.537 426.373 128.575C426.47 128.615 426.573 128.603 426.627 128.579C426.641 128.574 426.654 128.568 426.664 128.562C426.672 128.557 426.66 128.565 426.66 128.565L426.651 128.572L426.614 128.598L426.539 128.651C424.225 130.222 421.072 129.773 418.791 128.385C414.349 125.702 413.534 120.224 415.871 115.808C417.571 112.366 420.72 109.758 424.618 109.416C426.499 109.253 428.489 109.489 430.128 110.478C431.74 111.454 432.921 113.106 433.424 114.902L432.45 115.078C432.268 113.038 432.658 110.919 433.541 109.059C434.886 106.201 437.357 103.883 440.313 102.755C444.33 101.192 448.999 102.298 452.357 104.835C454.5 106.459 456.157 108.854 456.522 111.558C457.017 115.316 454.977 118.957 452.166 121.319C451.367 121.983 450.5 122.563 449.522 122.942C449.286 123.087 448.979 123.013 448.836 122.779C448.695 122.549 448.764 122.249 448.989 122.102L449.067 122.05C451.216 120.62 454.069 120.308 456.532 121.07C457.803 121.465 459.055 122.09 460.005 123.047L460.184 123.228L460.355 123.418L460.441 123.513C462.16 125.513 462.564 128.218 461.711 130.696C460.357 134.729 456.314 137.148 452.198 135.806C452.197 135.807 452.691 135.002 452.691 135.002C453.362 135.708 453.882 136.56 454.253 137.468C455.357 140.211 455.13 143.374 453.979 146.071C453.038 148.453 450.945 150.215 448.631 151.179C445.469 152.51 441.829 152.626 438.588 151.531C437.188 151.056 435.862 150.341 434.744 149.367C432.301 147.275 430.899 143.812 431.802 140.638C432.134 139.45 432.774 138.346 433.639 137.471L434.305 138.212C433.337 139.009 432.275 139.671 431.18 140.254C424.101 143.96 413.806 145.44 406.004 143.737C405.458 143.658 405.393 142.875 405.995 142.752C408.026 142.216 409.952 141.313 411.773 140.266C416.364 137.586 420.407 134.031 424.033 130.163C424.661 129.48 425.278 128.778 425.864 128.059L425.896 128.021L425.912 128.002L425.92 127.992C425.845 128.158 425.992 128.383 426.184 128.394Z" fill="#7DE2FF"/>
</g>
<g filter="url(#filter13_f_479_1241)">
<path d="M431.331 122.319C431.024 121.001 431.307 119.54 432.13 118.426C432.936 117.341 434.173 116.578 435.508 116.357C437.265 116.104 439.205 116.678 440.468 117.937C441.337 118.832 441.907 120.08 441.84 121.349C441.797 122.176 441.478 122.977 440.988 123.621L440.249 122.807C440.452 122.693 440.673 122.556 440.889 122.465C442.686 121.61 444.814 121.876 446.146 123.431L446.276 123.592L446.34 123.673C446.422 123.788 446.451 123.848 446.521 123.951C446.603 124.075 446.655 124.223 446.721 124.353C447.254 125.607 446.805 127.121 445.755 127.933C445.327 128.28 444.836 128.507 444.341 128.621C444.029 128.693 443.719 128.498 443.647 128.187C443.589 127.935 443.706 127.687 443.915 127.559C444.719 127.027 445.42 126.175 445.194 125.198C445.122 124.912 444.96 124.648 444.76 124.431C444.078 123.631 442.945 123.356 441.9 123.536C441.522 123.59 441.141 123.711 440.753 123.835C440.434 123.941 440.091 123.767 439.989 123.448C439.943 123.302 439.956 123.15 440.014 123.02C440.265 122.459 440.397 121.892 440.347 121.353C440.285 120.558 439.829 119.763 439.235 119.214C438.386 118.475 437.201 118.119 436.078 118.158C435.16 118.2 434.315 118.615 433.647 119.226C433.504 119.367 433.35 119.537 433.228 119.698C433.126 119.839 433.029 119.99 432.944 120.144L432.918 120.19L432.896 120.239C432.593 120.834 432.474 121.49 432.467 122.198C432.444 122.878 431.491 122.976 431.33 122.32L431.331 122.319Z" fill="#05448E"/>
</g>
<g filter="url(#filter14_f_479_1241)">
<path d="M439.851 132.722C440.904 132.312 442.129 132.508 443.068 133.112C445.566 134.678 445.471 138.259 443.073 139.89C441.726 140.821 440.048 140.675 438.749 139.741C438.163 139.322 437.654 138.803 437.314 138.167C437.166 137.891 437.27 137.547 437.545 137.398C437.83 137.248 438.116 137.357 438.304 137.586C438.989 138.294 439.965 138.924 440.975 138.892C442.327 138.827 443.354 137.409 443.216 136.102C443.103 134.661 441.594 133.555 440.183 133.817C439.474 133.96 439.184 132.988 439.85 132.721L439.851 132.722Z" fill="#05448E"/>
</g>
</g>
<g clip-path="url(#clip2_479_1241)" filter="url(#filter15_f_479_1241)">
<path d="M336.652 16.6578C334.492 17.0217 332.51 18.2109 331.069 19.8379C330.586 20.3938 330.167 20.9942 329.806 21.6238C329.265 19.7341 328.276 17.8505 326.365 17.1688C324.71 16.6175 322.834 17.2098 321.458 18.1736C319.962 19.2309 318.99 20.8491 318.461 22.569C318.43 22.6745 318.4 22.7815 318.371 22.8885C317.875 22.1842 317.283 21.5352 316.575 20.9887C314.829 19.6449 312.631 19.3146 310.54 19.9478C308.405 20.604 306.489 21.991 305.216 23.8206C302.612 27.609 303.224 32.6475 305.159 36.6736C304.527 36.4096 303.863 36.2187 303.185 36.1051C301.512 35.8221 299.747 36.0209 298.177 36.6802C295.72 37.7193 293.85 40.0547 293.734 42.7725C293.69 43.7085 293.841 44.6598 294.15 45.5429C295.054 48.2286 297.387 50.1684 299.89 51.3266C300.87 51.767 301.884 52.1144 302.949 52.2788C302.81 52.415 302.675 52.5593 302.549 52.7127C301.205 54.2845 301.132 56.7274 302.915 58.0097C304.596 59.2379 306.838 58.7882 308.57 58.0135L308.795 57.9193L309.014 57.8156C309.366 57.6572 309.744 57.4578 310.09 57.2829C310.262 57.19 310.437 57.0934 310.613 56.9952C310.567 57.3805 310.488 57.8242 310.431 58.1747C310.363 58.5268 310.266 58.8943 310.191 59.2476C309.484 61.9553 308.652 64.6048 307.448 67.1562C305.808 70.7341 303.635 74.1313 301.177 77.2194C300.658 77.8909 301.426 78.7411 302.136 78.3525C302.722 78.0212 303.325 77.6632 303.883 77.2886C308.008 74.5194 311.64 71.0404 314.741 67.1698C316.578 64.8863 318.061 62.33 319.305 59.6779C319.34 59.6005 319.376 59.5222 319.411 59.4447C320.045 61.0872 321.045 62.643 322.563 63.5968C323.6 64.2585 324.94 64.6062 326.197 64.3954C327.512 64.1875 328.786 63.3707 329.331 62.1195C329.642 61.429 329.728 60.6931 329.682 59.9574C330.725 61.0168 332.025 61.8137 333.52 62.0714C334.273 62.189 335.055 62.2092 335.806 62.077C336.105 62.0224 336.473 61.9321 336.757 61.8359C336.89 61.7871 337.089 61.706 337.221 61.6567C337.372 61.5859 337.521 61.5111 337.671 61.4346C339.293 60.537 340.264 58.9678 340.372 57.1016C340.49 54.8667 339.439 52.8362 338.218 51.0312C339.324 51.0611 340.454 50.9968 341.446 50.4034C342.414 49.8512 343.112 48.7503 343.184 47.6294C343.275 46.5434 342.838 45.5002 342.212 44.6701C342.08 44.495 341.938 44.3286 341.79 44.17C344.32 42.8581 346.754 40.615 346.603 37.5569C346.491 36.1776 345.972 34.8365 345.12 33.7364C343.792 32.0012 341.726 31.1589 339.614 30.9169C340.659 30.0773 341.601 29.0888 342.292 27.9319C342.974 26.8168 343.413 25.547 343.514 24.2395C343.862 20.2514 340.985 16.0302 336.651 16.6557L336.652 16.6578ZM301.614 77.3976L301.611 77.3994C301.601 77.4052 301.607 77.4017 301.614 77.3976Z" fill="#66C3EA"/>
<path d="M313.422 39.8282C311.832 35.9541 314.351 32.0789 318.381 31.4251C319.615 31.2305 320.912 31.3247 322.052 32.0248C322.447 32.284 322.834 32.5936 323.168 32.9244C325.443 35.1902 325.92 38.903 324.057 41.5427L322.871 40.0627C323.975 39.5869 325.199 39.2766 326.496 39.2515C329.945 39.1311 333.286 41.6185 333.911 45.1024C334.423 47.7768 333.478 50.6317 331.281 52.293C329.652 53.4925 327.591 54.0593 325.581 54.0337C324.334 54.0153 323.096 53.7527 321.953 53.2709C321.433 53.0507 321.191 52.4509 321.411 51.9325C321.611 51.4611 322.123 51.2194 322.603 51.3418C324.495 51.7915 326.494 51.6539 328.237 50.8243C328.634 50.6411 329.035 50.4196 329.369 50.1404C329.411 50.1077 329.511 50.0275 329.553 49.9964C329.657 49.8845 329.77 49.7782 329.881 49.673C329.982 49.5308 330.121 49.4041 330.21 49.2537C330.69 48.5763 330.931 47.7647 330.996 46.9385C331.141 44.6531 329.685 42.783 327.545 42.0952C326.211 41.6965 324.91 41.7647 323.475 42.0053C322.681 42.3359 321.865 41.4913 322.209 40.7143L322.288 40.5253C323.22 38.3812 322.502 35.8399 320.58 34.62C320.344 34.4602 320.123 34.4155 319.762 34.3766C319.212 34.3363 318.563 34.4485 317.983 34.6858C316.482 35.2714 315.469 36.6245 315.399 38.2404C315.359 38.6139 315.387 39.0239 315.397 39.4273C315.416 40.579 313.837 40.8797 313.419 39.8259L313.422 39.8282Z" fill="#06448D"/>
</g>
<g opacity="0.7" filter="url(#filter16_f_479_1241)">
<path d="M44.9724 129.553L40.3904 142.349L19.9785 132.757L41.5705 163.405L46.1559 150.599L66.574 160.204L44.9724 129.553Z" fill="#7DE2FF"/>
</g>
<defs>
<filter id="filter0_f_479_1241" x="120.38" y="112.38" width="106.518" height="105.336" filterUnits="userSpaceOnUse" color-interpolation-filters="sRGB">
<feFlood flood-opacity="0" result="BackgroundImageFix"/>
<feBlend mode="normal" in="SourceGraphic" in2="BackgroundImageFix" result="shape"/>
<feGaussianBlur stdDeviation="1.31019" result="effect1_foregroundBlur_479_1241"/>
</filter>
<filter id="filter1_f_479_1241" x="177.159" y="138.3" width="9.79438" height="7.44697" filterUnits="userSpaceOnUse" color-interpolation-filters="sRGB">
<feFlood flood-opacity="0" result="BackgroundImageFix"/>
<feBlend mode="normal" in="SourceGraphic" in2="BackgroundImageFix" result="shape"/>
<feGaussianBlur stdDeviation="0.647813" result="effect1_foregroundBlur_479_1241"/>
</filter>
<filter id="filter2_f_479_1241" x="160.361" y="129.655" width="6.28657" height="9.9101" filterUnits="userSpaceOnUse" color-interpolation-filters="sRGB">
<feFlood flood-opacity="0" result="BackgroundImageFix"/>
<feBlend mode="normal" in="SourceGraphic" in2="BackgroundImageFix" result="shape"/>
<feGaussianBlur stdDeviation="0.647813" result="effect1_foregroundBlur_479_1241"/>
</filter>
<filter id="filter3_f_479_1241" x="170.222" y="126.504" width="8.05805" height="13.1347" filterUnits="userSpaceOnUse" color-interpolation-filters="sRGB">
<feFlood flood-opacity="0" result="BackgroundImageFix"/>
<feBlend mode="normal" in="SourceGraphic" in2="BackgroundImageFix" result="shape"/>
<feGaussianBlur stdDeviation="0.647813" result="effect1_foregroundBlur_479_1241"/>
</filter>
<filter id="filter4_f_479_1241" x="151.923" y="141.037" width="52.0758" height="46.2956" filterUnits="userSpaceOnUse" color-interpolation-filters="sRGB">
<feFlood flood-opacity="0" result="BackgroundImageFix"/>
<feBlend mode="normal" in="SourceGraphic" in2="BackgroundImageFix" result="shape"/>
<feGaussianBlur stdDeviation="1.29435" result="effect1_foregroundBlur_479_1241"/>
</filter>
<filter id="filter5_f_479_1241" x="165.22" y="153.375" width="16.0112" height="13.6823" filterUnits="userSpaceOnUse" color-interpolation-filters="sRGB">
<feFlood flood-opacity="0" result="BackgroundImageFix"/>
<feBlend mode="normal" in="SourceGraphic" in2="BackgroundImageFix" result="shape"/>
<feGaussianBlur stdDeviation="0.81969" result="effect1_foregroundBlur_479_1241"/>
</filter>
<filter id="filter6_f_479_1241" x="167.298" y="166.824" width="9.61079" height="9.84834" filterUnits="userSpaceOnUse" color-interpolation-filters="sRGB">
<feFlood flood-opacity="0" result="BackgroundImageFix"/>
<feBlend mode="normal" in="SourceGraphic" in2="BackgroundImageFix" result="shape"/>
<feGaussianBlur stdDeviation="0.81969" result="effect1_foregroundBlur_479_1241"/>
</filter>
<filter id="filter7_f_479_1241" x="435.205" y="173.452" width="62.5957" height="49.8521" filterUnits="userSpaceOnUse" color-interpolation-filters="sRGB">
<feFlood flood-opacity="0" result="BackgroundImageFix"/>
<feBlend mode="normal" in="SourceGraphic" in2="BackgroundImageFix" result="shape"/>
<feGaussianBlur stdDeviation="4" result="effect1_foregroundBlur_479_1241"/>
</filter>
<filter id="filter8_f_479_1241" x="145.164" y="15.4434" width="47.957" height="79.043" filterUnits="userSpaceOnUse" color-interpolation-filters="sRGB">
<feFlood flood-opacity="0" result="BackgroundImageFix"/>
<feBlend mode="normal" in="SourceGraphic" in2="BackgroundImageFix" result="shape"/>
<feGaussianBlur stdDeviation="4" result="effect1_foregroundBlur_479_1241"/>
</filter>
<filter id="filter9_f_479_1241" x="442.357" y="83.6345" width="7.32142" height="12.5287" filterUnits="userSpaceOnUse" color-interpolation-filters="sRGB">
<feFlood flood-opacity="0" result="BackgroundImageFix"/>
<feBlend mode="normal" in="SourceGraphic" in2="BackgroundImageFix" result="shape"/>
<feGaussianBlur stdDeviation="0.790315" result="effect1_foregroundBlur_479_1241"/>
</filter>
<filter id="filter10_f_479_1241" x="460.826" y="98.4846" width="11.8019" height="8.54505" filterUnits="userSpaceOnUse" color-interpolation-filters="sRGB">
<feFlood flood-opacity="0" result="BackgroundImageFix"/>
<feBlend mode="normal" in="SourceGraphic" in2="BackgroundImageFix" result="shape"/>
<feGaussianBlur stdDeviation="0.790315" result="effect1_foregroundBlur_479_1241"/>
</filter>
<filter id="filter11_f_479_1241" x="454.47" y="83.6191" width="11.9777" height="14.9374" filterUnits="userSpaceOnUse" color-interpolation-filters="sRGB">
<feFlood flood-opacity="0" result="BackgroundImageFix"/>
<feBlend mode="normal" in="SourceGraphic" in2="BackgroundImageFix" result="shape"/>
<feGaussianBlur stdDeviation="0.790315" result="effect1_foregroundBlur_479_1241"/>
</filter>
<filter id="filter12_f_479_1241" x="402.41" y="98.8758" width="62.8905" height="56.5556" filterUnits="userSpaceOnUse" color-interpolation-filters="sRGB">
<feFlood flood-opacity="0" result="BackgroundImageFix"/>
<feBlend mode="normal" in="SourceGraphic" in2="BackgroundImageFix" result="shape"/>
<feGaussianBlur stdDeviation="1.57908" result="effect1_foregroundBlur_479_1241"/>
</filter>
<filter id="filter13_f_479_1241" x="429.211" y="114.299" width="19.7344" height="16.3376" filterUnits="userSpaceOnUse" color-interpolation-filters="sRGB">
<feFlood flood-opacity="0" result="BackgroundImageFix"/>
<feBlend mode="normal" in="SourceGraphic" in2="BackgroundImageFix" result="shape"/>
<feGaussianBlur stdDeviation="1" result="effect1_foregroundBlur_479_1241"/>
</filter>
<filter id="filter14_f_479_1241" x="435.246" y="130.505" width="11.6602" height="12.0142" filterUnits="userSpaceOnUse" color-interpolation-filters="sRGB">
<feFlood flood-opacity="0" result="BackgroundImageFix"/>
<feBlend mode="normal" in="SourceGraphic" in2="BackgroundImageFix" result="shape"/>
<feGaussianBlur stdDeviation="1" result="effect1_foregroundBlur_479_1241"/>
</filter>
<filter id="filter15_f_479_1241" x="282" y="4" width="72.6426" height="86.1462" filterUnits="userSpaceOnUse" color-interpolation-filters="sRGB">
<feFlood flood-opacity="0" result="BackgroundImageFix"/>
<feBlend mode="normal" in="SourceGraphic" in2="BackgroundImageFix" result="shape"/>
<feGaussianBlur stdDeviation="1.5" result="effect1_foregroundBlur_479_1241"/>
</filter>
<filter id="filter16_f_479_1241" x="11.9785" y="121.553" width="62.5957" height="49.8521" filterUnits="userSpaceOnUse" color-interpolation-filters="sRGB">
<feFlood flood-opacity="0" result="BackgroundImageFix"/>
<feBlend mode="normal" in="SourceGraphic" in2="BackgroundImageFix" result="shape"/>
<feGaussianBlur stdDeviation="4" result="effect1_foregroundBlur_479_1241"/>
</filter>
<clipPath id="clip0_479_1241">
<rect width="75.9485" height="67.0792" fill="white" transform="matrix(-0.77057 -0.637355 -0.637355 0.77057 224.277 163.406)"/>
</clipPath>
<clipPath id="clip1_479_1241">
<rect width="92.6552" height="81.8349" fill="white" transform="translate(377 129.261) rotate(-42.2191)"/>
</clipPath>
<clipPath id="clip2_479_1241">
<rect width="69.3503" height="50.0128" fill="white" transform="translate(285 73.8574) rotate(-74.5908)"/>
</clipPath>
</defs>
</svg>
