<svg width="462" height="232" viewBox="0 0 462 232" fill="none" xmlns="http://www.w3.org/2000/svg">
<g opacity="0.7" filter="url(#filter0_f_17_3980)">
<path d="M27.498 154.164C33.3865 154.164 38.1601 149.391 38.1601 143.502C38.1601 137.613 33.3865 132.84 27.498 132.84C21.6095 132.84 16.8359 137.613 16.8359 143.502C16.8359 149.391 21.6095 154.164 27.498 154.164Z" fill="#65C3E8"/>
<path d="M26.457 157.331L26.457 164.964C26.457 165.538 26.9242 166.005 27.4985 166.005C28.0727 166.005 28.5355 165.538 28.5355 164.964L28.5355 157.331C28.5355 156.757 28.0684 156.29 27.4985 156.29C26.9242 156.29 26.457 156.757 26.457 157.331Z" fill="#65C3E8"/>
<path d="M27.4985 130.714C28.0727 130.714 28.5355 130.247 28.5355 129.673L28.5355 122.04C28.5355 121.466 28.0684 120.999 27.4985 120.999C26.9242 120.999 26.457 121.466 26.457 122.04L26.457 129.673C26.457 130.247 26.9242 130.714 27.4985 130.714Z" fill="#65C3E8"/>
<path d="M42.6741 159.713C42.9398 159.713 43.2055 159.61 43.4069 159.409C43.814 159.002 43.814 158.346 43.4069 157.939L38.0114 152.544C37.6043 152.137 36.9488 152.137 36.5417 152.544C36.1345 152.951 36.1345 153.606 36.5417 154.014L41.9369 159.409C42.1426 159.615 42.4084 159.713 42.6741 159.713Z" fill="#65C3E8"/>
<path d="M16.9863 134.459C17.1877 134.661 17.4534 134.764 17.719 134.764C17.9847 134.764 18.2504 134.661 18.4518 134.459C18.859 134.052 18.859 133.397 18.4518 132.989L13.0564 127.594C12.6492 127.187 11.9937 127.187 11.5866 127.594C11.1795 128.001 11.1795 128.657 11.5866 129.064L16.9863 134.459Z" fill="#65C3E8"/>
<path d="M40.2852 143.501C40.2852 144.076 40.7523 144.543 41.3266 144.543L48.959 144.543C49.5332 144.543 50.0002 144.076 50.0002 143.501C50.0002 142.927 49.5332 142.46 48.959 142.46L41.3266 142.46C40.7523 142.46 40.2852 142.927 40.2852 143.501Z" fill="#65C3E8"/>
<path d="M6.03704 144.543L13.6694 144.543C14.2436 144.543 14.7108 144.076 14.7108 143.501C14.7108 142.927 14.2436 142.46 13.6694 142.46L6.03704 142.46C5.46279 142.46 5 142.927 5 143.501C5 144.076 5.46708 144.543 6.03704 144.543Z" fill="#65C3E8"/>
<path d="M37.2786 134.764C37.5443 134.764 37.81 134.661 38.0114 134.46L43.4069 129.064C43.814 128.657 43.814 128.002 43.4069 127.594C42.9998 127.187 42.3441 127.187 41.9369 127.594L36.5417 132.99C36.1345 133.397 36.1345 134.053 36.5417 134.46C36.7474 134.661 37.0129 134.764 37.2786 134.764Z" fill="#65C3E8"/>
<path d="M16.987 152.544L11.5915 157.94C11.1844 158.347 11.1844 159.002 11.5915 159.41C11.7929 159.611 12.0586 159.714 12.3243 159.714C12.59 159.714 12.8556 159.611 13.057 159.41L18.4525 154.014C18.8597 153.607 18.8597 152.951 18.4525 152.544C18.0497 152.141 17.3898 152.141 16.987 152.544Z" fill="#65C3E8"/>
</g>
<g filter="url(#filter1_f_17_3980)">
<path d="M118.482 19.4719C120.333 12.9004 127.161 9.07266 133.732 10.9232C135.313 11.3683 136.74 12.1043 137.963 13.0572C141.939 9.02269 147.936 7.21578 153.778 8.86087C160.968 10.8857 165.633 17.4963 165.496 24.634C166.586 24.577 167.704 24.695 168.815 25.0078C174.314 26.5564 177.514 32.2655 175.966 37.7649C174.417 43.2642 168.708 46.4646 163.209 44.916L127.029 34.7279C120.457 32.8774 116.63 26.0491 118.482 19.4719Z" fill="#65C3E8"/>
<path d="M158.672 56.9774C158.104 58.9948 156.007 60.1701 153.99 59.602C151.972 59.034 150.797 56.9372 151.365 54.9199C152.218 51.8911 156.807 49.5982 156.807 49.5982C156.807 49.5982 159.472 54.1366 158.672 56.9774Z" fill="#65C3E8"/>
<path d="M171.124 73.3933C171.022 75.4866 169.241 77.1011 167.148 76.9987C165.054 76.8963 163.44 75.1157 163.542 73.0224C163.696 69.8796 167.655 66.6183 167.655 66.6183C167.655 66.6183 171.268 70.4455 171.124 73.3933Z" fill="#65C3E8"/>
<path d="M149.904 92.996C149.092 94.9283 146.867 95.8374 144.935 95.0259C143.002 94.2145 142.093 91.9893 142.905 90.057C144.123 87.1558 148.959 85.4436 148.959 85.4436C148.959 85.4436 151.046 90.2748 149.904 92.996Z" fill="#65C3E8"/>
<path d="M142.089 45.4526C142.089 45.4526 144.754 49.9911 143.954 52.8319C143.386 54.8493 141.289 56.0245 139.272 55.4564C137.254 54.8884 136.079 52.7917 136.647 50.7744C137.5 47.7456 142.089 45.4526 142.089 45.4526Z" fill="#65C3E8"/>
<path d="M152.383 65.8702C152.383 65.8702 155.996 69.6974 155.851 72.6453C155.749 74.7386 153.968 76.3531 151.875 76.2507C149.782 76.1483 148.167 74.3677 148.27 72.2744C148.423 69.1315 152.383 65.8702 152.383 65.8702Z" fill="#65C3E8"/>
<path d="M121.934 46.6318C122.787 43.603 127.376 41.3101 127.376 41.3101C127.376 41.3101 130.041 45.8485 129.241 48.6894C128.673 50.7067 126.576 51.882 124.559 51.3139C122.542 50.7459 121.366 48.6492 121.934 46.6318Z" fill="#65C3E8"/>
<path d="M133.004 71.5283C133.158 68.3854 137.117 65.1241 137.117 65.1241C137.117 65.1241 140.73 68.9513 140.586 71.8992C140.483 73.9925 138.703 75.607 136.61 75.5046C134.516 75.4022 132.902 73.6216 133.004 71.5283Z" fill="#65C3E8"/>
</g>
<g filter="url(#filter2_f_17_3980)">
<g filter="url(#filter3_f_17_3980)">
<path d="M393.446 184.648L388.672 192.651M388.672 192.651L381.501 205.233M388.672 192.651L386.512 184.518M388.672 192.651L396.783 191.646M369.556 225.818L374.33 217.815M374.33 217.815L381.501 205.233M374.33 217.815L366.219 218.819M374.33 217.815L376.49 225.948M381.501 205.233L374.805 192.391M381.501 205.233L397.68 205.535M381.501 205.233L366.478 204.952M381.501 205.233L388.197 218.074M374.805 192.391L370.333 184.216M374.805 192.391L377.267 184.345M374.805 192.391L366.737 191.085M397.68 205.535L404.613 205.665M397.68 205.535L400.099 199.8M397.68 205.535L399.883 211.356M366.478 204.952L358.389 204.801M366.478 204.952L362.903 210.665M366.478 204.952L363.119 199.109M388.197 218.074L392.668 226.25M388.197 218.074L385.735 226.12M388.197 218.074L396.265 219.381" stroke="#65C3E8" stroke-width="3" stroke-linecap="round" stroke-linejoin="round"/>
</g>
<g opacity="0.6" filter="url(#filter4_f_17_3980)">
<path d="M451.932 153.292L449.786 156.889M449.786 156.889L446.563 162.544M449.786 156.889L448.816 153.234M449.786 156.889L453.432 156.437M441.194 171.796L443.34 168.199M443.34 168.199L446.563 162.544M443.34 168.199L439.695 168.651M443.34 168.199L444.311 171.854M446.563 162.544L443.554 156.772M446.563 162.544L453.835 162.68M446.563 162.544L439.811 162.418M446.563 162.544L449.573 168.316M443.554 156.772L441.544 153.098M443.554 156.772L444.66 153.156M443.554 156.772L439.927 156.185M453.835 162.68L456.951 162.738M453.835 162.68L454.922 160.102M453.835 162.68L454.825 165.296M439.811 162.418L436.175 162.35M439.811 162.418L438.204 164.986M439.811 162.418L438.301 159.792M449.573 168.316L451.583 171.99M449.573 168.316L448.466 171.932M449.573 168.316L453.199 168.903" stroke="#65C3E8" stroke-width="2" stroke-linecap="round" stroke-linejoin="round"/>
</g>
<g opacity="0.8" filter="url(#filter5_f_17_3980)">
<path d="M336.778 76.1573C335.415 76.1573 334.109 76.4242 332.918 76.9103C330.649 72.7928 326.265 70.0002 321.228 70.0002C315.028 70.0002 309.815 74.2321 308.318 79.965C307.46 79.6743 306.54 79.517 305.583 79.517C300.841 79.517 297 83.358 297 88.0997C297 92.8414 300.841 96.6825 305.583 96.6825L319.593 96.6825L319.922 96.0343L316.901 94.5093L322.61 83.1912L328.443 86.1316L323.968 93.5562L326.708 94.9383L325.607 96.6777L336.773 96.6777C342.439 96.6777 347.033 92.0837 347.033 86.4175C347.033 80.7513 342.444 76.1573 336.778 76.1573Z" fill="#65C3E8"/>
<path d="M315.162 105.466L317.325 106.557L312.998 115.135L324.55 104.608L321.552 103.092L325.613 96.678L319.594 96.678L315.162 105.466Z" fill="#65C3E8"/>
</g>
</g>
<defs>
<filter id="filter0_f_17_3980" x="0" y="115.999" width="55" height="55.0061" filterUnits="userSpaceOnUse" color-interpolation-filters="sRGB">
<feFlood flood-opacity="0" result="BackgroundImageFix"/>
<feBlend mode="normal" in="SourceGraphic" in2="BackgroundImageFix" result="shape"/>
<feGaussianBlur stdDeviation="2.5" result="effect1_foregroundBlur_17_3980"/>
</filter>
<filter id="filter1_f_17_3980" x="115.016" y="5.25513" width="64.3408" height="93.0676" filterUnits="userSpaceOnUse" color-interpolation-filters="sRGB">
<feFlood flood-opacity="0" result="BackgroundImageFix"/>
<feBlend mode="normal" in="SourceGraphic" in2="BackgroundImageFix" result="shape"/>
<feGaussianBlur stdDeviation="1.5" result="effect1_foregroundBlur_17_3980"/>
</filter>
<filter id="filter2_f_17_3980" x="294.543" y="67.5432" width="165.865" height="162.664" filterUnits="userSpaceOnUse" color-interpolation-filters="sRGB">
<feFlood flood-opacity="0" result="BackgroundImageFix"/>
<feBlend mode="normal" in="SourceGraphic" in2="BackgroundImageFix" result="shape"/>
<feGaussianBlur stdDeviation="1.22851" result="effect1_foregroundBlur_17_3980"/>
</filter>
<filter id="filter3_f_17_3980" x="352.889" y="178.715" width="57.2246" height="53.0349" filterUnits="userSpaceOnUse" color-interpolation-filters="sRGB">
<feFlood flood-opacity="0" result="BackgroundImageFix"/>
<feBlend mode="normal" in="SourceGraphic" in2="BackgroundImageFix" result="shape"/>
<feGaussianBlur stdDeviation="2" result="effect1_foregroundBlur_17_3980"/>
</filter>
<filter id="filter4_f_17_3980" x="431.175" y="148.098" width="30.7759" height="28.8928" filterUnits="userSpaceOnUse" color-interpolation-filters="sRGB">
<feFlood flood-opacity="0" result="BackgroundImageFix"/>
<feBlend mode="normal" in="SourceGraphic" in2="BackgroundImageFix" result="shape"/>
<feGaussianBlur stdDeviation="2" result="effect1_foregroundBlur_17_3980"/>
</filter>
<filter id="filter5_f_17_3980" x="293" y="66.0002" width="58.0332" height="53.1345" filterUnits="userSpaceOnUse" color-interpolation-filters="sRGB">
<feFlood flood-opacity="0" result="BackgroundImageFix"/>
<feBlend mode="normal" in="SourceGraphic" in2="BackgroundImageFix" result="shape"/>
<feGaussianBlur stdDeviation="2" result="effect1_foregroundBlur_17_3980"/>
</filter>
</defs>
</svg>
