<svg width="500" height="500" viewBox="0 0 500 500" fill="none" xmlns="http://www.w3.org/2000/svg">
<g filter="url(#filter0_f_479_1089)">
<path fill-rule="evenodd" clip-rule="evenodd" d="M232.579 49.1324C232.672 49.5792 232.754 50.0407 232.823 50.5175L232.823 50.5169C232.991 51.6716 233.047 52.8373 232.993 54.0116C232.72 59.9115 229.655 66.046 223.842 72.2974C222.875 73.3377 221.82 74.3935 220.707 75.4344C218.936 77.0899 216.951 78.7724 214.807 80.434C212.463 82.2511 210.233 83.7763 208.604 84.8898C207.755 85.4705 207.021 85.9719 206.473 86.3763C205.441 87.1364 204.022 88.2266 202.333 89.5551C200.644 88.2266 199.224 87.1364 198.193 86.3763C197.645 85.9726 196.912 85.4705 196.062 84.8898C194.434 83.7763 192.204 82.2511 189.859 80.434C187.716 78.7724 185.731 77.0899 183.96 75.4344C182.847 74.3929 181.791 73.3377 180.825 72.2974C179.018 70.3542 177.476 68.4223 176.202 66.5053C171.471 66.0821 167.082 64.0371 163.687 60.6409C159.853 56.8058 157.742 51.7036 157.742 46.2732C157.742 37.2849 150.432 29.9729 141.448 29.9729C132.463 29.9729 125.153 37.2853 125.153 46.2728L125.277 46.2728C126.198 46.2728 126.945 47.0207 126.945 47.9412L126.945 53.1437C133.774 55.5866 138.862 65.006 138.862 76.2533C138.862 87.2347 134.012 96.4736 127.427 99.1781L127.427 101.009C127.427 102.233 126.433 103.227 125.21 103.227L121.084 103.227C119.86 103.227 118.867 102.233 118.867 101.009L118.867 98.9208C112.579 95.9251 108.012 86.9096 108.012 76.2533C108.012 65.3253 112.815 56.1229 119.351 53.3684L119.351 47.9412C119.351 47.0207 120.099 46.2728 121.019 46.2728L121.141 46.2728C121.141 40.8426 123.252 35.7405 127.085 31.9055C130.919 28.0704 136.019 25.959 141.448 25.959C146.876 25.959 151.976 28.071 155.81 31.9055C159.644 35.7406 161.755 40.8428 161.755 46.2732C161.755 53.7463 166.808 60.0606 173.675 61.9771C172.463 59.2828 171.795 56.6242 171.674 54.0116C171.62 52.8373 171.676 51.6722 171.844 50.5169C171.912 50.0401 171.995 49.5786 172.088 49.1318C173.849 40.6462 179.671 37.5171 183.1 36.3956C184.974 35.783 186.921 35.4868 188.85 35.4868C193.519 35.4868 198.075 37.2246 201.198 40.4065L202.333 41.5624L203.468 40.4065C206.591 37.2246 211.146 35.4874 215.817 35.4874C217.744 35.4874 219.693 35.7836 221.566 36.3962C224.995 37.5171 230.817 40.6462 232.579 49.1324ZM217.508 61.7654L222.448 61.7654L222.448 61.7666C222.942 61.7666 223.342 61.3666 223.342 60.8725C223.342 60.3785 222.942 59.9784 222.448 59.9784L218.14 59.9784L215.525 52.5755C215.387 52.1847 214.999 51.9395 214.587 51.9844C214.175 52.0292 213.847 52.3512 213.796 52.7623L212.246 65.1274L209.042 60.3729C208.876 60.1259 208.598 59.9784 208.301 59.9784L207.082 59.9784L204.197 50.3473C204.082 49.9614 203.721 49.7003 203.32 49.7101C202.918 49.7199 202.571 49.9971 202.474 50.3879L199.34 62.9619L197.119 59.7314C196.952 59.4887 196.677 59.3437 196.382 59.3437L194.184 59.3437L192.387 53.9004C192.266 53.5341 191.923 53.2865 191.538 53.2865L191.534 53.2865C191.146 53.2883 190.805 53.5397 190.687 53.909L188.566 60.561L187.13 63.9401L186.086 60.6052C185.97 60.2316 185.624 59.9778 185.233 59.9778L180.235 59.9778C179.742 59.9778 179.342 60.3779 179.342 60.8719C179.342 61.366 179.742 61.766 180.235 61.766L184.577 61.766L186.149 66.7921C186.26 67.1497 186.583 67.3998 186.958 67.4182C187.332 67.4367 187.677 67.2197 187.824 66.875L190.227 61.2216C190.238 61.1958 190.248 61.17 190.256 61.1435L191.553 57.0768L192.689 60.518C192.81 60.8842 193.152 61.1319 193.538 61.1319L195.913 61.1319L198.991 65.6091C199.19 65.8986 199.541 66.0448 199.886 65.9821C200.232 65.9195 200.51 65.6595 200.595 65.3185L203.42 53.9821L205.56 61.1282C205.674 61.5061 206.022 61.7654 206.417 61.7654L207.825 61.7654L212.096 68.1016C212.264 68.3517 212.544 68.4961 212.837 68.4961C212.905 68.4961 212.976 68.4881 213.044 68.4715C213.407 68.3855 213.678 68.0831 213.724 67.7132L215.099 56.7357L216.666 61.1693C216.791 61.5264 217.129 61.7654 217.508 61.7654ZM224.327 101.147C224.186 101.029 224.064 100.885 223.966 100.717L219.918 93.702C219.472 92.929 219.736 91.9402 220.509 91.4935C221.282 91.0474 222.27 91.3122 222.717 92.0853L226.766 99.1004C227.212 99.8735 226.947 100.862 226.174 101.309C225.57 101.658 224.833 101.572 224.327 101.147ZM220.509 28.5053C220.764 28.6521 221.042 28.7222 221.316 28.7222C221.874 28.7222 222.418 28.4321 222.717 27.9135L226.766 20.8983C227.212 20.1247 226.947 19.1365 226.174 18.6898C225.401 18.2437 224.412 18.5085 223.966 19.2816L219.918 26.2967C219.472 27.0704 219.736 28.0585 220.509 28.5053ZM119.351 48.7812L114.135 48.7812L114.135 51.9293L119.351 51.9293L119.351 48.7812ZM110.924 53.1646C110.924 54.0514 111.643 54.7703 112.529 54.7703C113.415 54.7703 114.134 54.0514 114.134 53.1646L114.134 47.5456C114.134 46.6589 113.415 45.9399 112.529 45.9399C111.643 45.9399 110.924 46.6589 110.924 47.5456L110.924 53.1646ZM179.296 101.526C179.022 101.526 178.744 101.456 178.49 101.309C177.717 100.863 177.452 99.8741 177.898 99.1004L181.947 92.0853C182.393 91.3122 183.381 91.0474 184.155 91.4935C184.928 91.9396 185.192 92.9284 184.746 93.702L180.698 100.717C180.398 101.236 179.855 101.526 179.296 101.526ZM208.644 24.1858C208.739 24.2024 208.833 24.2104 208.927 24.2104C209.697 24.2104 210.378 23.6585 210.517 22.8744L211.923 14.8969C212.077 14.0176 211.491 13.1788 210.612 13.0239C209.732 12.8685 208.894 13.4559 208.739 14.3353L207.333 22.3128C207.179 23.1921 207.765 24.0309 208.644 24.1858ZM194.335 106.999C194.242 106.999 194.148 106.991 194.052 106.975C193.173 106.82 192.587 105.981 192.741 105.102L194.148 97.1242C194.302 96.2448 195.14 95.658 196.02 95.8128C196.899 95.9677 197.486 96.8065 197.331 97.6858L195.925 105.663C195.787 106.447 195.105 106.999 194.335 106.999ZM194.148 22.8743C194.286 23.6584 194.968 24.2102 195.737 24.2102C195.831 24.2102 195.925 24.2022 196.02 24.1856C196.899 24.0301 197.486 23.192 197.331 22.3126L195.925 14.3351C195.769 13.4558 194.931 12.8689 194.052 13.0238C193.173 13.1792 192.587 14.0174 192.742 14.8968L194.148 22.8743ZM210.329 106.999C209.56 106.999 208.878 106.447 208.739 105.663L207.333 97.6858C207.179 96.8065 207.765 95.9683 208.644 95.8128C209.523 95.658 210.361 96.2448 210.517 97.1242L211.923 105.102C212.077 105.981 211.491 106.819 210.612 106.975C210.517 106.991 210.423 106.999 210.329 106.999ZM181.947 27.9141C182.044 28.0819 182.167 28.2263 182.308 28.3443C182.813 28.7689 183.55 28.8549 184.155 28.5059C184.928 28.0591 185.192 27.0704 184.746 26.2974L180.698 19.2822C180.252 18.5085 179.263 18.2443 178.49 18.6904C177.717 19.1372 177.452 20.1259 177.898 20.8989L181.947 27.9141Z" fill="url(#paint0_linear_479_1089)"/>
</g>
<g opacity="0.78" filter="url(#filter1_f_479_1089)">
<path d="M410.347 104.662C410.407 104.41 410.458 104.163 410.5 103.921C411.305 99.3283 409.016 96.6075 407.524 95.3661C406.709 94.6877 405.793 94.1527 404.83 93.7698C402.495 92.8423 399.872 92.8061 397.679 93.7767L396.882 94.1293L396.544 93.326C395.615 91.115 393.682 89.3412 391.347 88.4138C390.383 88.0309 389.351 87.7922 388.292 87.7263C386.355 87.606 382.822 88.0141 380.257 91.9069C380.122 92.1119 379.989 92.3263 379.86 92.551C379.546 93.0953 379.287 93.6667 379.081 94.2646C378.045 97.2684 378.36 100.944 380.024 105.224C380.301 105.936 380.619 106.673 380.969 107.415C381.525 108.595 382.184 109.83 382.925 111.087C383.737 112.461 384.549 113.666 385.142 114.546C385.451 115.005 385.718 115.402 385.912 115.713C386.276 116.297 386.77 117.124 387.35 118.124C388.459 117.795 389.385 117.532 390.051 117.357C390.406 117.264 390.872 117.159 391.412 117.037C392.448 116.804 393.865 116.484 395.399 116.041C396.8 115.636 398.127 115.189 399.341 114.713C400.104 114.414 400.842 114.096 401.532 113.768C405.679 111.796 408.43 109.338 409.738 106.443C409.998 105.866 410.202 105.273 410.347 104.662Z" fill="#65C3E8"/>
</g>
<g opacity="0.4" filter="url(#filter2_f_479_1089)">
<path d="M86.7479 231.225C85.3432 230.19 82.1069 228.054 80.3993 227.79C78.6917 227.527 77.2135 228.356 76.6878 228.804C76.1551 229.563 74.5783 231.074 72.5322 231.049C69.9746 231.017 72.0026 231.32 70.5881 230.722C69.1736 230.124 68.6304 230.471 67.7903 230.788C67.1183 231.042 63.9671 230.943 63.4913 230.937L63.2178 230.933C62.9004 230.938 62.1246 230.864 61.5609 230.534C60.8562 230.122 59.206 226.355 56.365 226.68C54.8147 226.857 53.4294 230.013 53.0455 230.328C52.9032 230.486 52.2735 230.798 50.8935 230.78C49.5136 230.763 40.5835 230.653 39.6516 230.641C39.4719 230.698 39.0279 230.86 38.6903 231.058C38.3527 231.256 37.8178 231.939 37.5925 232.256C37.4328 232.304 37.3038 231.573 36.5893 231.89C31.7608 234.031 32.7701 201.423 37.4911 193.285C37.2945 193.207 37.0205 193.199 36.5394 193.273C30.2599 194.237 26.1648 236.039 30.5849 242.295C30.3022 242.519 29.6346 242.753 29.2253 241.9C28.8161 241.047 27.9164 232.169 27.4611 230.364L13.2765 230.497" stroke="#65C3E8" stroke-width="4" stroke-miterlimit="10" stroke-linecap="round"/>
</g>
<g opacity="0.7" filter="url(#filter3_f_479_1089)">
<path d="M465.175 137.403L456.627 139.067C456.587 138.956 456.433 127.086 453.827 135.991C453.291 137.82 452.641 138.81 450.924 138.777C449.208 138.744 449.128 138.743 448.174 138.724C443.193 138.628 445.914 150.53 444.226 143.497C442.909 138.012 441.986 122.17 441.735 105.29L440.766 76.7024L440.039 83.9704L439.116 104.511C438.487 123.541 438.361 145.647 439.594 160.154C439.361 160.149 439.372 159.467 438.783 159.051C437.67 158.263 436.15 147.156 435.091 138.472C435.031 138.22 434.676 137.203 434.124 137.368C431.925 138.026 427.139 138.052 424.667 137.186L418.369 125.279C417.036 123.414 416.212 123.322 414.398 124.283C412.584 125.244 409.878 133.153 408.824 136.881L405.731 136.822L403.377 134.243" stroke="#65C3E8" stroke-width="4" stroke-miterlimit="10" stroke-linecap="round"/>
</g>
<g opacity="0.4" filter="url(#filter4_f_479_1089)">
<path d="M162.926 233.536L152.259 234.875C152.21 234.785 152.017 225.237 148.764 232.4C148.096 233.872 147.285 234.668 145.143 234.642C143 234.615 142.901 234.614 141.711 234.599C135.495 234.522 138.89 244.096 136.783 238.438C135.14 234.026 132.826 223.002 132.512 209.424L131.475 191.749L131.558 190.555L130.407 207.078C129.622 222.386 129.465 240.168 131.004 251.837C130.713 251.834 130.726 251.285 129.992 250.95C128.602 250.316 126.705 241.382 125.384 234.397C125.309 234.194 124.866 233.376 124.176 233.509C121.432 234.038 115.46 234.058 112.375 233.362L104.515 223.784C102.852 222.284 101.824 222.21 99.5602 222.983C97.2961 223.755 93.9199 230.118 92.6045 233.117L88.744 233.069L85.8066 230.994" stroke="#65C3E8" stroke-width="4" stroke-miterlimit="10" stroke-linecap="round"/>
</g>
<defs>
<filter id="filter0_f_479_1089" x="106.012" y="10.999" width="129" height="98.0002" filterUnits="userSpaceOnUse" color-interpolation-filters="sRGB">
<feFlood flood-opacity="0" result="BackgroundImageFix"/>
<feBlend mode="normal" in="SourceGraphic" in2="BackgroundImageFix" result="shape"/>
<feGaussianBlur stdDeviation="1" result="effect1_foregroundBlur_479_1089"/>
</filter>
<filter id="filter1_f_479_1089" x="374.484" y="83.7087" width="40.1836" height="38.4153" filterUnits="userSpaceOnUse" color-interpolation-filters="sRGB">
<feFlood flood-opacity="0" result="BackgroundImageFix"/>
<feBlend mode="normal" in="SourceGraphic" in2="BackgroundImageFix" result="shape"/>
<feGaussianBlur stdDeviation="2" result="effect1_foregroundBlur_479_1089"/>
</filter>
<filter id="filter2_f_479_1089" x="9.27539" y="189.222" width="81.4727" height="57.2815" filterUnits="userSpaceOnUse" color-interpolation-filters="sRGB">
<feFlood flood-opacity="0" result="BackgroundImageFix"/>
<feBlend mode="normal" in="SourceGraphic" in2="BackgroundImageFix" result="shape"/>
<feGaussianBlur stdDeviation="1" result="effect1_foregroundBlur_479_1089"/>
</filter>
<filter id="filter3_f_479_1089" x="399.377" y="74.4939" width="69.7988" height="89.7019" filterUnits="userSpaceOnUse" color-interpolation-filters="sRGB">
<feFlood flood-opacity="0" result="BackgroundImageFix"/>
<feBlend mode="normal" in="SourceGraphic" in2="BackgroundImageFix" result="shape"/>
<feGaussianBlur stdDeviation="1" result="effect1_foregroundBlur_479_1089"/>
</filter>
<filter id="filter4_f_479_1089" x="81.8066" y="188.436" width="85.1191" height="67.4299" filterUnits="userSpaceOnUse" color-interpolation-filters="sRGB">
<feFlood flood-opacity="0" result="BackgroundImageFix"/>
<feBlend mode="normal" in="SourceGraphic" in2="BackgroundImageFix" result="shape"/>
<feGaussianBlur stdDeviation="1" result="effect1_foregroundBlur_479_1089"/>
</filter>
<linearGradient id="paint0_linear_479_1089" x1="148.998" y1="38.5" x2="160.844" y2="98.0584" gradientUnits="userSpaceOnUse">
<stop stop-color="#65C3E8"/>
<stop offset="0.503944" stop-color="#65C3E8" stop-opacity="0.773644"/>
<stop offset="1" stop-color="#65C3E8" stop-opacity="0.2"/>
</linearGradient>
</defs>
</svg>
