<svg width="485" height="224" viewBox="0 0 485 224" fill="none" xmlns="http://www.w3.org/2000/svg">
<g opacity="0.7" filter="url(#filter0_f_17_1177)">
<path d="M402.93 131.263C405.614 131.939 405.815 131.864 403.852 130.919C401.648 129.859 397.891 126.635 396.133 124.295C391.884 118.639 391.009 111.603 393.752 105.132C395.453 101.118 397.788 98.7975 402.103 96.8302C404.787 95.6058 404.979 95.5523 407.048 95.4363C409.921 95.2745 411.434 95.5228 413.015 96.4156C415.025 97.5496 416.354 99.2873 417.601 102.4C418.446 104.512 418.63 105.248 418.753 106.96C419.1 111.826 416.392 116.7 412.424 118.343C410.071 119.319 408.089 118.958 406.257 117.225C404.784 115.831 404.261 113.78 404.78 111.434C405.135 109.832 405.735 108.991 406.85 108.535C408.967 107.67 410.634 108.261 411.299 110.114C411.882 111.743 411.537 113.426 410.353 114.711C409.927 115.176 410.037 115.157 411.426 114.527C412.745 113.931 413.072 113.673 413.634 112.797C414.48 111.478 414.677 109.511 414.1 108.158C413.556 106.881 411.862 105.483 410.263 104.992C405.495 103.526 400.667 106.709 399.585 112.029C398.593 116.904 400.215 121.195 404.059 123.865C406.492 125.555 408.344 126 411.748 125.716C414.469 125.487 418.138 123.929 420.524 121.99C425.581 117.879 428.621 111.69 428.607 105.529C428.589 97.319 424.035 90.4627 416.555 87.3801C412.838 85.8487 408.689 85.3918 404.042 86.0048C401.569 86.3312 401.156 86.4542 398.141 87.7696C395.166 89.0665 394.752 89.3115 393.113 90.734C392.131 91.5869 390.825 92.9455 390.212 93.7544C388.017 96.6511 385.596 103.195 385.114 107.533C384.438 113.619 387.664 121.551 392.58 125.895C395.581 128.547 398.829 130.232 402.928 131.265L402.93 131.263Z" fill="#66C3EA"/>
</g>
<g opacity="0.7" filter="url(#filter1_f_17_1177)">
<path d="M290.278 68.7734C288.75 67.5125 288.708 67.3653 290.085 68.0959C291.632 68.9168 295.084 69.7144 297.179 69.7352C302.242 69.7855 306.67 67.3044 309.237 62.9785C310.829 60.2949 311.176 57.9643 310.479 54.6418C310.047 52.575 309.996 52.4415 309.185 51.1997C308.06 49.4752 307.274 48.7079 306.089 48.1752C304.583 47.4977 303.017 47.4689 300.694 48.0707C299.118 48.4795 298.615 48.6852 297.576 49.3409C294.624 51.2054 292.963 54.8342 293.699 57.8185C294.135 59.5888 295.183 60.5789 296.959 60.8995C298.388 61.1571 299.793 60.5889 300.925 59.2941C301.698 58.4098 301.928 57.7073 301.718 56.8713C301.319 55.2839 300.27 54.5734 298.92 54.9764C297.733 55.331 296.91 56.244 296.671 57.4717C296.584 57.9148 296.549 57.843 296.322 56.7751C296.106 55.7615 296.116 55.4638 296.383 54.7685C296.784 53.7212 297.835 52.7726 298.86 52.5316C299.826 52.3033 301.351 52.6868 302.312 53.4005C305.18 55.5268 305.394 59.6611 302.786 62.5413C300.396 65.1813 297.235 66.0668 294.065 64.9836C292.058 64.298 291.015 63.4192 289.736 61.3364C288.713 59.6704 288.054 56.8947 288.16 54.696C288.385 50.037 290.663 45.6588 294.221 43.0532C298.961 39.5803 304.846 39.2966 309.796 42.3011C312.256 43.7946 314.279 45.9922 315.898 48.9315C316.759 50.4957 316.863 50.7857 317.384 53.0819C317.898 55.3475 317.933 55.6899 317.808 57.2385C317.733 58.1665 317.504 59.4956 317.298 60.1922C316.559 62.6866 313.813 66.8583 311.517 68.9765C308.296 71.9481 302.354 73.4538 297.764 72.4627C294.962 71.8577 292.613 70.7 290.279 68.7754L290.278 68.7734Z" fill="#66C3EA"/>
</g>
<g opacity="0.7" filter="url(#filter2_f_17_1177)">
<path d="M135.184 115.561C132.158 112.58 131.834 112.523 133.696 115.3C135.788 118.417 138.251 125.604 138.758 130.067C139.982 140.854 135.668 150.844 127.008 157.273C121.636 161.261 116.742 162.516 109.502 161.763C104.999 161.296 104.703 161.217 101.876 159.762C97.9492 157.743 96.1396 156.237 94.742 153.826C92.9646 150.763 92.5577 147.431 93.3287 142.342C93.8527 138.892 94.1805 137.774 95.3497 135.414C98.6747 128.705 106.048 124.363 112.575 125.273C116.446 125.812 118.789 127.831 119.865 131.548C120.73 134.538 119.828 137.659 117.316 140.359C115.601 142.203 114.153 142.848 112.324 142.585C108.85 142.084 107.104 140.004 107.665 137.036C108.16 134.427 109.925 132.469 112.491 131.689C113.417 131.405 113.256 131.346 110.928 131.098C108.719 130.862 108.086 130.949 106.662 131.671C104.517 132.758 102.726 135.208 102.438 137.446C102.164 139.558 103.319 142.726 105.053 144.619C110.22 150.266 119.085 149.809 124.652 143.612C129.755 137.933 130.946 130.995 127.937 124.473C126.032 120.344 123.927 118.314 119.203 116.045C115.424 114.231 109.359 113.439 104.693 114.15C94.8063 115.656 85.9714 121.482 81.1993 129.645C74.8384 140.521 75.5319 153.133 83.0319 163.029C86.76 167.946 91.8934 171.776 98.5193 174.579C102.045 176.07 102.687 176.228 107.699 176.832C112.644 177.43 113.382 177.427 116.657 176.82C118.62 176.455 121.404 175.673 122.844 175.08C128.001 172.954 136.292 166.178 140.303 160.814C145.93 153.287 147.83 140.283 144.704 130.713C142.795 124.87 139.808 120.115 135.188 115.561L135.184 115.561Z" fill="url(#paint0_linear_17_1177)"/>
</g>
<g filter="url(#filter3_f_17_1177)">
<path d="M234.014 54.2737C233.192 51.8742 233.007 48.2995 233.969 45.949C237.818 36.5766 238.624 29.1541 235.117 21.2461C229.435 8.42813 218.055 3.9325 204.818 6.83561C190.348 10.0032 180.638 22.5118 184.489 35.0434C184.997 36.6987 185.958 39.0723 186.392 40.6807C187.941 46.3843 183.649 50.0799 184.048 51.9175C184.711 54.9403 187.954 53.0518 190.346 56.9316C193.377 61.8511 192.8 68.5703 199.993 66.1984C202.868 65.2834 207.288 62.8589 209.831 64.1891C211.449 65.04 213.928 69.9946 214.967 72.2065C215.109 72.5029 215.35 72.7403 215.648 72.8772C215.947 73.0142 216.284 73.0419 216.6 72.9557L238.5 66.9612C238.709 66.9043 238.902 66.7996 239.063 66.6553C239.225 66.5109 239.35 66.331 239.43 66.1297C239.51 65.9284 239.542 65.7112 239.524 65.4954C239.505 65.2797 239.437 65.0711 239.323 64.8864C237.91 62.5775 235.339 58.1344 234.014 54.2737Z" fill="url(#paint1_linear_17_1177)"/>
</g>
<path d="M225.437 33.1127C225.726 32.5601 225.854 31.937 225.806 31.3151C225.863 31.9441 225.737 32.5763 225.443 33.1354C225.233 33.5565 224.935 33.9285 224.571 34.2269C224.207 34.5254 223.784 34.7437 223.33 34.8675L199.601 41.3628C198.789 41.5847 197.924 41.4962 197.174 41.1147C196.424 40.7332 195.843 40.086 195.545 39.2993C195.849 40.0796 196.43 40.7198 197.178 41.0967C197.926 41.4735 198.787 41.5602 199.595 41.3401L223.322 34.8451C223.777 34.7214 224.2 34.5031 224.565 34.2046C224.929 33.9061 225.226 33.534 225.437 33.1127Z" fill="#65C3E8"/>
<g filter="url(#filter4_f_17_1177)">
<path d="M220.058 16.0072C218.664 14.7662 218.523 14.7499 219.405 15.9313C220.397 17.2577 221.657 20.3796 221.995 22.3461C222.813 27.0986 221.203 31.6477 217.611 34.7341C215.383 36.6488 213.29 37.3379 210.124 37.1997C208.155 37.1142 208.025 37.0874 206.758 36.5183C204.999 35.7284 204.173 35.1094 203.502 34.0777C202.648 32.7667 202.383 31.2993 202.583 29.0209C202.72 27.4758 202.832 26.971 203.278 25.8923C204.545 22.826 207.633 20.7002 210.493 20.9276C212.189 21.062 213.261 21.8941 213.826 23.5141C214.281 24.8174 213.972 26.2262 212.952 27.4921C212.256 28.3568 211.644 28.6822 210.842 28.615C209.32 28.4864 208.506 27.6111 208.671 26.279C208.817 25.1082 209.532 24.1916 210.626 23.7761C211.021 23.6254 210.95 23.6033 209.932 23.5563C208.966 23.5112 208.693 23.5669 208.093 23.9258C207.19 24.4661 206.477 25.6015 206.411 26.6025C206.348 27.5468 206.934 28.9211 207.737 29.7139C210.132 32.0796 213.971 31.6371 216.226 28.7369C218.292 26.0794 218.626 22.969 217.146 20.157C216.209 18.3767 215.241 17.5331 213.128 16.654C211.438 15.9515 208.782 15.7643 206.774 16.2058C202.518 17.1415 198.834 19.965 196.977 23.7156C194.502 28.7129 195.137 34.2898 198.658 38.477C200.408 40.5577 202.739 42.1182 205.692 43.1825C207.264 43.7488 207.546 43.8016 209.74 43.934C211.904 44.0655 212.225 44.0444 213.632 43.6864C214.475 43.4714 215.664 43.0491 216.274 42.7468C218.458 41.6643 221.881 38.4339 223.481 35.9453C225.726 32.4539 226.207 26.6332 224.596 22.4718C223.612 19.9314 222.188 17.9026 220.06 16.0072L220.058 16.0072Z" fill="#074488"/>
</g>
<g opacity="0.7" filter="url(#filter5_f_17_1177)">
<path d="M33.9724 130.553L29.3904 143.349L8.97851 133.757L30.5705 164.405L35.156 151.599L55.574 161.204L33.9724 130.553Z" fill="#7DE2FF"/>
</g>
<g opacity="0.7" filter="url(#filter6_f_17_1177)">
<path d="M455.199 181.452L450.617 194.248L430.205 184.657L451.797 215.304L456.383 202.499L476.801 212.103L455.199 181.452Z" fill="#7DE2FF"/>
</g>
<defs>
<filter id="filter0_f_17_1177" x="379.024" y="79.7415" width="55.582" height="57.9678" filterUnits="userSpaceOnUse" color-interpolation-filters="sRGB">
<feFlood flood-opacity="0" result="BackgroundImageFix"/>
<feBlend mode="normal" in="SourceGraphic" in2="BackgroundImageFix" result="shape"/>
<feGaussianBlur stdDeviation="3" result="effect1_foregroundBlur_17_1177"/>
</filter>
<filter id="filter1_f_17_1177" x="282.149" y="34.2327" width="41.7197" height="44.5337" filterUnits="userSpaceOnUse" color-interpolation-filters="sRGB">
<feFlood flood-opacity="0" result="BackgroundImageFix"/>
<feBlend mode="normal" in="SourceGraphic" in2="BackgroundImageFix" result="shape"/>
<feGaussianBlur stdDeviation="3" result="effect1_foregroundBlur_17_1177"/>
</filter>
<filter id="filter2_f_17_1177" x="71.875" y="108.27" width="79.3291" height="74.0085" filterUnits="userSpaceOnUse" color-interpolation-filters="sRGB">
<feFlood flood-opacity="0" result="BackgroundImageFix"/>
<feBlend mode="normal" in="SourceGraphic" in2="BackgroundImageFix" result="shape"/>
<feGaussianBlur stdDeviation="2.5" result="effect1_foregroundBlur_17_1177"/>
</filter>
<filter id="filter3_f_17_1177" x="179.188" y="1.53457" width="64.7937" height="75.9238" filterUnits="userSpaceOnUse" color-interpolation-filters="sRGB">
<feFlood flood-opacity="0" result="BackgroundImageFix"/>
<feBlend mode="normal" in="SourceGraphic" in2="BackgroundImageFix" result="shape"/>
<feGaussianBlur stdDeviation="2.22673" result="effect1_foregroundBlur_17_1177"/>
</filter>
<filter id="filter4_f_17_1177" x="191.032" y="10.6071" width="38.9675" height="37.8544" filterUnits="userSpaceOnUse" color-interpolation-filters="sRGB">
<feFlood flood-opacity="0" result="BackgroundImageFix"/>
<feBlend mode="normal" in="SourceGraphic" in2="BackgroundImageFix" result="shape"/>
<feGaussianBlur stdDeviation="2.22673" result="effect1_foregroundBlur_17_1177"/>
</filter>
<filter id="filter5_f_17_1177" x="0.978516" y="122.553" width="62.5957" height="49.8521" filterUnits="userSpaceOnUse" color-interpolation-filters="sRGB">
<feFlood flood-opacity="0" result="BackgroundImageFix"/>
<feBlend mode="normal" in="SourceGraphic" in2="BackgroundImageFix" result="shape"/>
<feGaussianBlur stdDeviation="4" result="effect1_foregroundBlur_17_1177"/>
</filter>
<filter id="filter6_f_17_1177" x="422.205" y="173.452" width="62.5957" height="49.8521" filterUnits="userSpaceOnUse" color-interpolation-filters="sRGB">
<feFlood flood-opacity="0" result="BackgroundImageFix"/>
<feBlend mode="normal" in="SourceGraphic" in2="BackgroundImageFix" result="shape"/>
<feGaussianBlur stdDeviation="4" result="effect1_foregroundBlur_17_1177"/>
</filter>
<linearGradient id="paint0_linear_17_1177" x1="86" y1="154.5" x2="148" y2="138" gradientUnits="userSpaceOnUse">
<stop stop-color="#66C3EA"/>
<stop offset="1" stop-color="#66C3EA" stop-opacity="0.2"/>
</linearGradient>
<linearGradient id="paint1_linear_17_1177" x1="217.5" y1="40" x2="225.5" y2="70.5" gradientUnits="userSpaceOnUse">
<stop stop-color="#65C3E8"/>
<stop offset="1" stop-color="#65C3E8" stop-opacity="0.2"/>
</linearGradient>
</defs>
</svg>
