<svg width="500" height="500" viewBox="0 0 500 500" fill="none" xmlns="http://www.w3.org/2000/svg">
<g filter="url(#filter0_f_479_1064)">
<path d="M208.491 44.088C238.872 52.6997 273.512 65.3104 309.473 81.3567C316.297 84.3977 323.022 87.4902 329.615 90.6301" fill="#65C3E8"/>
<path d="M208.491 44.088C238.872 52.6997 273.512 65.3104 309.473 81.3567C316.297 84.3977 323.022 87.4902 329.615 90.6301" stroke="#65C3E8" stroke-width="4" stroke-miterlimit="10" stroke-linecap="round"/>
</g>
<g opacity="0.6" filter="url(#filter1_f_479_1064)">
<path d="M361.158 87.6659L361.546 95.9554L367.771 101.444L360.006 104.374L356.71 111.99L351.524 105.511L343.262 104.73L347.821 97.7958L346.011 89.697L354.015 91.8899L361.158 87.6659Z" fill="#65C3E8"/>
<path d="M361.158 87.6659L361.546 95.9554L367.771 101.444L360.006 104.374L356.71 111.99L351.524 105.511L343.262 104.73L347.821 97.7958L346.011 89.697L354.015 91.8899L361.158 87.6659Z" stroke="#65C3E8" stroke-width="4" stroke-miterlimit="10" stroke-linecap="round"/>
</g>
<g opacity="0.5" filter="url(#filter2_f_479_1064)">
<path d="M118.231 116.616L118.422 120.695L121.485 123.396L117.664 124.838L116.042 128.586L113.49 125.398L109.425 125.013L111.668 121.601L110.777 117.616L114.716 118.695L118.231 116.616Z" fill="#65C3E8"/>
<path d="M118.231 116.616L118.422 120.695L121.485 123.396L117.664 124.838L116.042 128.586L113.49 125.398L109.425 125.013L111.668 121.601L110.777 117.616L114.716 118.695L118.231 116.616Z" stroke="#65C3E8" stroke-width="4" stroke-miterlimit="10" stroke-linecap="round"/>
</g>
<g filter="url(#filter3_f_479_1064)">
<path d="M159.911 109.517C117.97 81.3974 94.1991 55.7314 100.447 41.411C104.217 32.7454 118.526 29.3784 140.073 30.7663C148.287 31.2956 157.548 32.4971 167.672 34.347" stroke="#65C3E8" stroke-width="4" stroke-miterlimit="10" stroke-linecap="round"/>
</g>
<g filter="url(#filter4_f_479_1064)">
<path d="M86.9253 150.697C85.7023 153.392 85.2399 156.056 85.6471 158.573C88.61 177.296 137.026 185.812 205.128 182.468" stroke="#65C3E8" stroke-width="4" stroke-miterlimit="10" stroke-linecap="round"/>
</g>
<g filter="url(#filter5_f_479_1064)">
<path d="M257.606 81.3988C225.098 88.0893 195.621 96.1354 171 104.732Z" fill="#65C3E8"/>
<path d="M257.606 81.3988C225.098 88.0893 195.621 96.1354 171 104.732" stroke="#65C3E8" stroke-width="4" stroke-miterlimit="10" stroke-linecap="round"/>
</g>
<g opacity="0.5" filter="url(#filter6_f_479_1064)">
<path d="M421.199 142.513C468.591 125.694 497.849 106.743 495.361 91.3211C491.959 70.1862 430.093 62.1191 347.403 69.4877" stroke="#65C3E8" stroke-width="4" stroke-miterlimit="10" stroke-linecap="round"/>
</g>
<g filter="url(#filter7_f_479_1064)">
<path d="M190.525 27.2952L194.075 34.7964L201.932 37.465L195.895 43.1587L195.785 51.4566L188.505 47.4743L180.579 49.9341L182.117 41.7791L177.328 35.0015L185.559 33.9438L190.525 27.2952Z" fill="#65C3E8"/>
</g>
<defs>
<filter id="filter0_f_479_1064" x="204.49" y="40.0874" width="129.125" height="54.543" filterUnits="userSpaceOnUse" color-interpolation-filters="sRGB">
<feFlood flood-opacity="0" result="BackgroundImageFix"/>
<feBlend mode="normal" in="SourceGraphic" in2="BackgroundImageFix" result="shape"/>
<feGaussianBlur stdDeviation="1" result="effect1_foregroundBlur_479_1064"/>
</filter>
<filter id="filter1_f_479_1064" x="335.766" y="80.2529" width="39.8203" height="39.5815" filterUnits="userSpaceOnUse" color-interpolation-filters="sRGB">
<feFlood flood-opacity="0" result="BackgroundImageFix"/>
<feBlend mode="normal" in="SourceGraphic" in2="BackgroundImageFix" result="shape"/>
<feGaussianBlur stdDeviation="2" result="effect1_foregroundBlur_479_1064"/>
</filter>
<filter id="filter2_f_479_1064" x="101.928" y="109.203" width="27.373" height="27.2271" filterUnits="userSpaceOnUse" color-interpolation-filters="sRGB">
<feFlood flood-opacity="0" result="BackgroundImageFix"/>
<feBlend mode="normal" in="SourceGraphic" in2="BackgroundImageFix" result="shape"/>
<feGaussianBlur stdDeviation="2" result="effect1_foregroundBlur_479_1064"/>
</filter>
<filter id="filter3_f_479_1064" x="95.457" y="26.4639" width="76.2148" height="87.0532" filterUnits="userSpaceOnUse" color-interpolation-filters="sRGB">
<feFlood flood-opacity="0" result="BackgroundImageFix"/>
<feBlend mode="normal" in="SourceGraphic" in2="BackgroundImageFix" result="shape"/>
<feGaussianBlur stdDeviation="1" result="effect1_foregroundBlur_479_1064"/>
</filter>
<filter id="filter4_f_479_1064" x="75.502" y="140.696" width="139.625" height="52.4834" filterUnits="userSpaceOnUse" color-interpolation-filters="sRGB">
<feFlood flood-opacity="0" result="BackgroundImageFix"/>
<feBlend mode="normal" in="SourceGraphic" in2="BackgroundImageFix" result="shape"/>
<feGaussianBlur stdDeviation="4" result="effect1_foregroundBlur_479_1064"/>
</filter>
<filter id="filter5_f_479_1064" x="163" y="73.3984" width="102.605" height="39.334" filterUnits="userSpaceOnUse" color-interpolation-filters="sRGB">
<feFlood flood-opacity="0" result="BackgroundImageFix"/>
<feBlend mode="normal" in="SourceGraphic" in2="BackgroundImageFix" result="shape"/>
<feGaussianBlur stdDeviation="3" result="effect1_foregroundBlur_479_1064"/>
</filter>
<filter id="filter6_f_479_1064" x="343.402" y="62.8164" width="156.107" height="83.6973" filterUnits="userSpaceOnUse" color-interpolation-filters="sRGB">
<feFlood flood-opacity="0" result="BackgroundImageFix"/>
<feBlend mode="normal" in="SourceGraphic" in2="BackgroundImageFix" result="shape"/>
<feGaussianBlur stdDeviation="1" result="effect1_foregroundBlur_479_1064"/>
</filter>
<filter id="filter7_f_479_1064" x="173.328" y="23.2949" width="32.6035" height="32.1616" filterUnits="userSpaceOnUse" color-interpolation-filters="sRGB">
<feFlood flood-opacity="0" result="BackgroundImageFix"/>
<feBlend mode="normal" in="SourceGraphic" in2="BackgroundImageFix" result="shape"/>
<feGaussianBlur stdDeviation="2" result="effect1_foregroundBlur_479_1064"/>
</filter>
</defs>
</svg>
