<svg width="425" height="210" viewBox="0 0 425 210" fill="none" xmlns="http://www.w3.org/2000/svg">
<g filter="url(#filter0_f_17_4566)">
<path d="M133.493 29.088C163.874 37.6997 198.514 50.3104 234.475 66.3567C241.299 69.3977 248.024 72.4902 254.617 75.6301" fill="#65C3E8"/>
<path d="M133.493 29.088C163.874 37.6997 198.514 50.3104 234.475 66.3567C241.299 69.3977 248.024 72.4902 254.617 75.6301" stroke="#65C3E8" stroke-width="4" stroke-miterlimit="10" stroke-linecap="round"/>
</g>
<g opacity="0.6" filter="url(#filter1_f_17_4566)">
<path d="M286.159 72.6659L286.547 80.9554L292.772 86.4437L285.007 89.374L281.711 96.99L276.525 90.5114L268.263 89.7301L272.822 82.7958L271.012 74.697L279.016 76.8899L286.159 72.6659Z" fill="#65C3E8"/>
<path d="M286.159 72.6659L286.547 80.9554L292.772 86.4437L285.007 89.374L281.711 96.99L276.525 90.5114L268.263 89.7301L272.822 82.7958L271.012 74.697L279.016 76.8899L286.159 72.6659Z" stroke="#65C3E8" stroke-width="4" stroke-miterlimit="10" stroke-linecap="round"/>
</g>
<g opacity="0.5" filter="url(#filter2_f_17_4566)">
<path d="M43.2325 101.616L43.4233 105.695L46.4864 108.396L42.6657 109.838L41.0438 113.586L38.4917 110.398L34.4262 110.013L36.6696 106.601L35.7789 102.616L39.7174 103.695L43.2325 101.616Z" fill="#65C3E8"/>
<path d="M43.2325 101.616L43.4233 105.695L46.4864 108.396L42.6657 109.838L41.0438 113.586L38.4917 110.398L34.4262 110.013L36.6696 106.601L35.7789 102.616L39.7174 103.695L43.2325 101.616Z" stroke="#65C3E8" stroke-width="4" stroke-miterlimit="10" stroke-linecap="round"/>
</g>
<g filter="url(#filter3_f_17_4566)">
<path d="M84.9124 94.5167C42.971 66.3974 19.2001 40.7314 25.4476 26.411C29.2179 17.7454 43.5267 14.3784 65.0745 15.7663C73.2876 16.2956 82.5493 17.4971 92.6734 19.347" stroke="#65C3E8" stroke-width="4" stroke-miterlimit="10" stroke-linecap="round"/>
</g>
<g filter="url(#filter4_f_17_4566)">
<path d="M11.9263 135.697C10.7032 138.392 10.2409 141.056 10.648 143.573C13.611 162.296 62.0266 170.812 130.129 167.468" stroke="#65C3E8" stroke-width="4" stroke-miterlimit="10" stroke-linecap="round"/>
</g>
<g filter="url(#filter5_f_17_4566)">
<path d="M182.608 66.3993C150.1 73.0898 120.623 81.1359 96.002 89.7324L182.608 66.3993Z" fill="#65C3E8"/>
<path d="M182.608 66.3993C150.1 73.0898 120.623 81.1359 96.002 89.7324" stroke="#65C3E8" stroke-width="4" stroke-miterlimit="10" stroke-linecap="round"/>
</g>
<g opacity="0.5" filter="url(#filter6_f_17_4566)">
<path d="M346.201 127.513C393.593 110.693 422.851 91.7424 420.363 76.3206C416.961 55.1857 355.095 47.1186 272.405 54.4872" stroke="#65C3E8" stroke-width="4" stroke-miterlimit="10" stroke-linecap="round"/>
</g>
<g filter="url(#filter7_f_17_4566)">
<path d="M115.526 12.2952L119.076 19.7964L126.933 22.465L120.896 28.1587L120.786 36.4566L113.506 32.4743L105.58 34.9341L107.118 26.7791L102.329 20.0015L110.56 18.9438L115.526 12.2952Z" fill="#65C3E8"/>
</g>
<defs>
<filter id="filter0_f_17_4566" x="129.493" y="25.0874" width="129.124" height="54.5432" filterUnits="userSpaceOnUse" color-interpolation-filters="sRGB">
<feFlood flood-opacity="0" result="BackgroundImageFix"/>
<feBlend mode="normal" in="SourceGraphic" in2="BackgroundImageFix" result="shape"/>
<feGaussianBlur stdDeviation="1" result="effect1_foregroundBlur_17_4566"/>
</filter>
<filter id="filter1_f_17_4566" x="260.767" y="65.2527" width="39.8203" height="39.5815" filterUnits="userSpaceOnUse" color-interpolation-filters="sRGB">
<feFlood flood-opacity="0" result="BackgroundImageFix"/>
<feBlend mode="normal" in="SourceGraphic" in2="BackgroundImageFix" result="shape"/>
<feGaussianBlur stdDeviation="2" result="effect1_foregroundBlur_17_4566"/>
</filter>
<filter id="filter2_f_17_4566" x="26.9294" y="94.2029" width="27.3723" height="27.2271" filterUnits="userSpaceOnUse" color-interpolation-filters="sRGB">
<feFlood flood-opacity="0" result="BackgroundImageFix"/>
<feBlend mode="normal" in="SourceGraphic" in2="BackgroundImageFix" result="shape"/>
<feGaussianBlur stdDeviation="2" result="effect1_foregroundBlur_17_4566"/>
</filter>
<filter id="filter3_f_17_4566" x="20.4583" y="11.4641" width="76.2156" height="87.0527" filterUnits="userSpaceOnUse" color-interpolation-filters="sRGB">
<feFlood flood-opacity="0" result="BackgroundImageFix"/>
<feBlend mode="normal" in="SourceGraphic" in2="BackgroundImageFix" result="shape"/>
<feGaussianBlur stdDeviation="1" result="effect1_foregroundBlur_17_4566"/>
</filter>
<filter id="filter4_f_17_4566" x="0.503418" y="125.697" width="139.625" height="52.4832" filterUnits="userSpaceOnUse" color-interpolation-filters="sRGB">
<feFlood flood-opacity="0" result="BackgroundImageFix"/>
<feBlend mode="normal" in="SourceGraphic" in2="BackgroundImageFix" result="shape"/>
<feGaussianBlur stdDeviation="4" result="effect1_foregroundBlur_17_4566"/>
</filter>
<filter id="filter5_f_17_4566" x="88.0015" y="58.3989" width="102.607" height="39.334" filterUnits="userSpaceOnUse" color-interpolation-filters="sRGB">
<feFlood flood-opacity="0" result="BackgroundImageFix"/>
<feBlend mode="normal" in="SourceGraphic" in2="BackgroundImageFix" result="shape"/>
<feGaussianBlur stdDeviation="3" result="effect1_foregroundBlur_17_4566"/>
</filter>
<filter id="filter6_f_17_4566" x="268.405" y="47.8159" width="156.106" height="83.6973" filterUnits="userSpaceOnUse" color-interpolation-filters="sRGB">
<feFlood flood-opacity="0" result="BackgroundImageFix"/>
<feBlend mode="normal" in="SourceGraphic" in2="BackgroundImageFix" result="shape"/>
<feGaussianBlur stdDeviation="1" result="effect1_foregroundBlur_17_4566"/>
</filter>
<filter id="filter7_f_17_4566" x="98.3291" y="8.29517" width="32.6042" height="32.1614" filterUnits="userSpaceOnUse" color-interpolation-filters="sRGB">
<feFlood flood-opacity="0" result="BackgroundImageFix"/>
<feBlend mode="normal" in="SourceGraphic" in2="BackgroundImageFix" result="shape"/>
<feGaussianBlur stdDeviation="2" result="effect1_foregroundBlur_17_4566"/>
</filter>
</defs>
</svg>
