<svg width="490" height="217" viewBox="0 0 490 217" fill="none" xmlns="http://www.w3.org/2000/svg">
<g opacity="0.6" clip-path="url(#clip0_17_737)" filter="url(#filter0_f_17_737)">
<g filter="url(#filter1_f_17_737)">
<path d="M168.71 136.194L173.4 133.852" stroke="#67C3E9" stroke-width="2.51317" stroke-miterlimit="10" stroke-linecap="round"/>
</g>
<g filter="url(#filter2_f_17_737)">
<path d="M153.091 130.012L151.909 125.207" stroke="#67C3E9" stroke-width="2.51317" stroke-miterlimit="10" stroke-linecap="round"/>
</g>
<g filter="url(#filter3_f_17_737)">
<path d="M161.772 130.086L164.724 122.057" stroke="#67C3E9" stroke-width="2.51317" stroke-miterlimit="10" stroke-linecap="round"/>
</g>
<g opacity="0.8" filter="url(#filter4_f_17_737)">
<path d="M172.972 157.542C172.951 157.596 172.901 157.662 172.823 157.697C172.746 157.734 172.661 157.727 172.616 157.71C172.604 157.707 172.594 157.702 172.585 157.698C172.578 157.694 172.588 157.7 172.588 157.7L172.596 157.705L172.627 157.725L172.691 157.766C174.644 158.965 177.21 158.479 179.025 157.257C182.561 154.893 183.023 150.377 180.944 146.849C179.423 144.094 176.746 142.078 173.542 141.944C171.995 141.881 170.375 142.149 169.069 143.02C167.787 143.88 166.881 145.277 166.537 146.766L167.341 146.874C167.413 145.196 167.015 143.476 166.222 141.986C165.013 139.696 162.903 137.891 160.44 137.078C157.092 135.949 153.311 137.03 150.656 139.234C148.963 140.644 147.695 142.667 147.498 144.895C147.234 147.991 149.041 150.896 151.431 152.723C152.11 153.238 152.842 153.68 153.657 153.954C153.856 154.063 154.104 153.992 154.213 153.794C154.319 153.601 154.252 153.357 154.062 153.245L153.996 153.206C152.183 152.116 149.835 151.968 147.847 152.684C146.821 153.055 145.82 153.614 145.077 154.433L144.937 154.588L144.805 154.75L144.738 154.831C143.405 156.533 143.176 158.763 143.968 160.76C145.228 164.012 148.629 165.841 151.948 164.587C151.95 164.588 151.515 163.948 151.515 163.948C150.992 164.551 150.598 165.268 150.328 166.025C149.527 168.313 149.832 170.894 150.876 173.06C151.736 174.974 153.516 176.339 155.446 177.042C158.086 178.013 161.07 177.971 163.684 176.953C164.812 176.511 165.871 175.876 166.75 175.036C168.672 173.231 169.689 170.343 168.831 167.778C168.514 166.818 167.949 165.938 167.208 165.255L166.69 165.886C167.513 166.502 168.407 167.004 169.325 167.441C175.262 170.21 183.747 171.035 190.071 169.348C190.516 169.263 190.539 168.619 190.042 168.541C188.358 168.178 186.747 167.511 185.218 166.723C181.358 164.7 177.914 161.941 174.799 158.91C174.26 158.374 173.728 157.822 173.221 157.256L173.193 157.226L173.18 157.21L173.173 157.203C173.24 157.336 173.128 157.526 172.972 157.542Z" fill="#67C3E9"/>
</g>
<g filter="url(#filter5_f_17_737)">
<path d="M168.528 152.761C168.729 151.67 168.443 150.485 167.727 149.603C167.026 148.745 165.984 148.167 164.884 148.036C163.435 147.895 161.868 148.437 160.881 149.515C160.203 150.281 159.784 151.325 159.886 152.361C159.952 153.037 160.243 153.681 160.669 154.19L161.244 153.495C161.073 153.409 160.887 153.306 160.707 153.239C159.203 152.607 157.47 152.904 156.438 154.227L156.338 154.364L156.288 154.433C156.226 154.53 156.204 154.58 156.151 154.668C156.088 154.772 156.051 154.895 156.002 155.004C155.613 156.051 156.037 157.273 156.927 157.899C157.291 158.167 157.701 158.335 158.111 158.41C158.369 158.457 158.616 158.286 158.663 158.028C158.701 157.819 158.596 157.621 158.42 157.524C157.741 157.118 157.135 156.447 157.284 155.639C157.332 155.401 157.455 155.18 157.61 154.994C158.139 154.313 159.056 154.046 159.919 154.154C160.23 154.184 160.547 154.269 160.87 154.355C161.134 154.431 161.409 154.276 161.48 154.01C161.513 153.889 161.497 153.765 161.444 153.661C161.217 153.211 161.088 152.752 161.109 152.309C161.129 151.655 161.473 150.987 161.939 150.515C162.606 149.878 163.563 149.542 164.484 149.532C165.238 149.531 165.945 149.839 166.515 150.315C166.637 150.425 166.77 150.559 166.876 150.686C166.964 150.798 167.05 150.917 167.125 151.041L167.148 151.077L167.168 151.116C167.438 151.592 167.56 152.125 167.593 152.704C167.637 153.261 168.421 153.305 168.528 152.762L168.528 152.761Z" fill="#05448E"/>
</g>
<g filter="url(#filter6_f_17_737)">
<path d="M161.941 161.599C161.063 161.302 160.068 161.509 159.322 162.039C157.335 163.415 157.547 166.343 159.572 167.589C160.71 168.301 162.078 168.119 163.107 167.305C163.571 166.94 163.968 166.496 164.223 165.962C164.334 165.731 164.236 165.453 164.004 165.341C163.766 165.229 163.536 165.329 163.39 165.524C162.856 166.129 162.081 166.681 161.252 166.693C160.143 166.691 159.249 165.568 159.312 164.492C159.351 163.309 160.545 162.346 161.71 162.508C162.297 162.599 162.497 161.792 161.942 161.598L161.941 161.599Z" fill="#05448E"/>
</g>
</g>
<g opacity="0.7" filter="url(#filter7_f_17_737)">
<path d="M459.199 174.452L454.617 187.248L434.205 177.657L455.797 208.304L460.383 195.499L480.801 205.103L459.199 174.452Z" fill="#7DE2FF"/>
</g>
<g opacity="0.7" filter="url(#filter8_f_17_737)">
<path d="M174.121 35.2539L159.282 42.0249L150.445 16.4434L142.164 60.6647L157.014 53.8887L165.846 79.4863L174.121 35.2539Z" fill="#7DE2FF"/>
</g>
<g opacity="0.7" clip-path="url(#clip1_17_737)">
<g filter="url(#filter9_f_17_737)">
<path d="M435.563 86.0491L434.47 79.7481" stroke="#66C3E9" stroke-width="3.066" stroke-miterlimit="10" stroke-linecap="round"/>
</g>
<g filter="url(#filter10_f_17_737)">
<path d="M452.938 96.9155L458.512 94.5986" stroke="#66C3E9" stroke-width="3.066" stroke-miterlimit="10" stroke-linecap="round"/>
</g>
<g filter="url(#filter11_f_17_737)">
<path d="M446.583 88.4426L452.333 79.7329" stroke="#66C3E9" stroke-width="3.066" stroke-miterlimit="10" stroke-linecap="round"/>
</g>
<g opacity="0.8" filter="url(#filter12_f_17_737)">
<path d="M415.183 121.394C415.211 121.459 415.275 121.537 415.372 121.575C415.469 121.615 415.572 121.603 415.626 121.579C415.64 121.574 415.653 121.568 415.663 121.562C415.671 121.557 415.659 121.565 415.659 121.565L415.65 121.572L415.613 121.598L415.538 121.651C413.224 123.222 410.071 122.773 407.79 121.385C403.348 118.702 402.533 113.224 404.87 108.808C406.57 105.366 409.719 102.758 413.617 102.416C415.498 102.253 417.488 102.489 419.127 103.478C420.739 104.454 421.92 106.106 422.423 107.902L421.449 108.078C421.267 106.038 421.657 103.919 422.54 102.059C423.885 99.2006 426.356 96.8833 429.312 95.7551C433.329 94.1923 437.998 95.2979 441.356 97.8353C443.499 99.4595 445.156 101.854 445.521 104.558C446.016 108.316 443.976 111.957 441.165 114.319C440.366 114.983 439.499 115.563 438.521 115.942C438.285 116.087 437.978 116.013 437.835 115.779C437.694 115.549 437.763 115.249 437.988 115.102L438.066 115.05C440.215 113.62 443.068 113.308 445.531 114.07C446.802 114.465 448.054 115.09 449.004 116.047L449.183 116.228L449.354 116.418L449.44 116.513C451.16 118.513 451.563 121.218 450.71 123.696C449.356 127.729 445.313 130.148 441.197 128.806C441.196 128.807 441.69 128.002 441.69 128.002C442.361 128.708 442.881 129.56 443.252 130.468C444.356 133.211 444.129 136.374 442.978 139.071C442.037 141.453 439.944 143.215 437.63 144.179C434.468 145.51 430.828 145.626 427.587 144.531C426.187 144.056 424.861 143.341 423.743 142.367C421.3 140.275 419.898 136.812 420.801 133.638C421.133 132.45 421.773 131.346 422.638 130.471L423.304 131.212C422.336 132.009 421.274 132.671 420.179 133.254C413.1 136.96 402.805 138.44 395.003 136.737C394.457 136.658 394.392 135.875 394.994 135.752C397.025 135.216 398.951 134.313 400.772 133.266C405.363 130.586 409.406 127.031 413.032 123.163C413.66 122.48 414.277 121.778 414.863 121.059L414.895 121.021L414.911 121.002L414.919 120.992C414.844 121.158 414.991 121.383 415.183 121.394Z" fill="#7DE2FF"/>
</g>
<g filter="url(#filter13_f_17_737)">
<path d="M420.331 115.319C420.024 114.001 420.307 112.54 421.13 111.426C421.936 110.341 423.173 109.578 424.508 109.357C426.265 109.104 428.205 109.678 429.468 110.937C430.337 111.832 430.907 113.08 430.84 114.349C430.797 115.176 430.478 115.977 429.988 116.621L429.249 115.807C429.452 115.693 429.673 115.556 429.889 115.465C431.686 114.61 433.814 114.876 435.146 116.431L435.276 116.592L435.34 116.673C435.422 116.788 435.451 116.848 435.521 116.951C435.603 117.075 435.655 117.223 435.721 117.353C436.254 118.607 435.805 120.121 434.755 120.933C434.327 121.28 433.836 121.507 433.341 121.621C433.029 121.693 432.719 121.498 432.647 121.187C432.589 120.935 432.706 120.687 432.915 120.559C433.719 120.027 434.42 119.175 434.194 118.198C434.122 117.912 433.96 117.648 433.76 117.431C433.078 116.631 431.945 116.356 430.9 116.536C430.522 116.59 430.141 116.711 429.753 116.835C429.434 116.941 429.091 116.767 428.989 116.448C428.943 116.302 428.956 116.15 429.014 116.02C429.265 115.459 429.397 114.892 429.347 114.353C429.285 113.558 428.829 112.763 428.235 112.214C427.386 111.475 426.201 111.119 425.078 111.158C424.16 111.2 423.315 111.615 422.647 112.226C422.504 112.367 422.35 112.537 422.228 112.698C422.126 112.839 422.029 112.99 421.944 113.144L421.918 113.19L421.896 113.239C421.593 113.834 421.474 114.49 421.467 115.198C421.444 115.878 420.491 115.976 420.33 115.32L420.331 115.319Z" fill="#05448E"/>
</g>
<g filter="url(#filter14_f_17_737)">
<path d="M428.852 125.722C429.905 125.312 431.13 125.508 432.069 126.112C434.567 127.678 434.472 131.259 432.073 132.89C430.727 133.821 429.049 133.675 427.75 132.741C427.164 132.322 426.655 131.803 426.315 131.167C426.167 130.891 426.271 130.547 426.546 130.398C426.831 130.248 427.117 130.357 427.305 130.586C427.99 131.294 428.966 131.924 429.976 131.892C431.328 131.827 432.355 130.409 432.217 129.102C432.104 127.661 430.595 126.555 429.184 126.817C428.475 126.96 428.185 125.988 428.851 125.721L428.852 125.722Z" fill="#05448E"/>
</g>
</g>
<g clip-path="url(#clip2_17_737)" filter="url(#filter15_f_17_737)">
<path d="M325.652 9.65777C323.492 10.0217 321.51 11.2109 320.069 12.8379C319.586 13.3938 319.167 13.9942 318.806 14.6238C318.265 12.7341 317.276 10.8505 315.365 10.1688C313.71 9.61754 311.834 10.2098 310.458 11.1736C308.962 12.2309 307.99 13.8491 307.461 15.569C307.43 15.6745 307.4 15.7815 307.371 15.8885C306.875 15.1842 306.283 14.5352 305.575 13.9887C303.829 12.6449 301.631 12.3146 299.54 12.9478C297.405 13.604 295.489 14.991 294.216 16.8206C291.612 20.609 292.224 25.6475 294.159 29.6736C293.527 29.4096 292.863 29.2187 292.185 29.1051C290.512 28.8221 288.747 29.0209 287.177 29.6802C284.72 30.7193 282.85 33.0547 282.734 35.7725C282.69 36.7085 282.841 37.6598 283.15 38.5429C284.054 41.2286 286.387 43.1684 288.89 44.3266C289.87 44.767 290.884 45.1144 291.949 45.2788C291.81 45.415 291.675 45.5593 291.549 45.7127C290.205 47.2845 290.132 49.7274 291.915 51.0097C293.596 52.2379 295.838 51.7882 297.57 51.0135L297.795 50.9193L298.014 50.8156C298.366 50.6572 298.744 50.4578 299.09 50.2829C299.262 50.19 299.437 50.0934 299.613 49.9952C299.567 50.3805 299.488 50.8242 299.431 51.1747C299.363 51.5268 299.266 51.8943 299.191 52.2476C298.484 54.9553 297.652 57.6048 296.448 60.1562C294.808 63.7341 292.635 67.1313 290.177 70.2194C289.658 70.8909 290.426 71.7411 291.136 71.3525C291.722 71.0212 292.325 70.6632 292.883 70.2886C297.008 67.5194 300.64 64.0404 303.741 60.1698C305.578 57.8863 307.061 55.33 308.305 52.6779C308.34 52.6005 308.376 52.5222 308.411 52.4447C309.045 54.0872 310.045 55.643 311.563 56.5968C312.6 57.2585 313.94 57.6062 315.197 57.3954C316.512 57.1875 317.786 56.3707 318.331 55.1195C318.642 54.429 318.728 53.6931 318.682 52.9574C319.725 54.0168 321.025 54.8137 322.52 55.0714C323.273 55.189 324.055 55.2092 324.806 55.077C325.105 55.0224 325.473 54.9321 325.757 54.8359C325.89 54.7871 326.089 54.706 326.221 54.6567C326.372 54.5859 326.521 54.5111 326.671 54.4346C328.293 53.537 329.264 51.9678 329.372 50.1016C329.49 47.8667 328.439 45.8362 327.218 44.0312C328.324 44.0611 329.454 43.9968 330.446 43.4034C331.414 42.8512 332.112 41.7503 332.184 40.6294C332.275 39.5434 331.838 38.5002 331.212 37.6701C331.08 37.495 330.938 37.3286 330.79 37.17C333.32 35.8581 335.754 33.615 335.603 30.5569C335.491 29.1776 334.972 27.8365 334.12 26.7364C332.792 25.0012 330.726 24.1589 328.614 23.9169C329.659 23.0773 330.601 22.0888 331.292 20.9319C331.974 19.8168 332.413 18.547 332.514 17.2395C332.862 13.2514 329.985 9.03016 325.651 9.65569L325.652 9.65777ZM290.614 70.3976L290.611 70.3994C290.601 70.4052 290.607 70.4017 290.614 70.3976Z" fill="#66C3EA"/>
<path d="M302.421 32.8282C300.831 28.9541 303.35 25.0789 307.38 24.4251C308.614 24.2305 309.911 24.3247 311.051 25.0248C311.446 25.284 311.833 25.5936 312.167 25.9244C314.442 28.1902 314.919 31.903 313.056 34.5427L311.87 33.0627C312.974 32.5869 314.198 32.2766 315.495 32.2515C318.944 32.1311 322.285 34.6185 322.91 38.1024C323.422 40.7768 322.477 43.6317 320.28 45.293C318.651 46.4925 316.59 47.0593 314.58 47.0337C313.333 47.0153 312.095 46.7527 310.952 46.2709C310.432 46.0507 310.19 45.4509 310.41 44.9325C310.61 44.4611 311.122 44.2194 311.602 44.3418C313.494 44.7915 315.493 44.6539 317.236 43.8243C317.633 43.6411 318.034 43.4196 318.368 43.1404C318.41 43.1077 318.51 43.0275 318.552 42.9964C318.656 42.8845 318.769 42.7782 318.88 42.673C318.981 42.5308 319.12 42.4041 319.209 42.2537C319.689 41.5763 319.931 40.7647 319.995 39.9385C320.14 37.6531 318.684 35.783 316.544 35.0952C315.21 34.6965 313.909 34.7647 312.474 35.0053C311.68 35.3359 310.864 34.4913 311.208 33.7143L311.287 33.5253C312.219 31.3812 311.501 28.8399 309.579 27.62C309.343 27.4602 309.122 27.4155 308.761 27.3766C308.211 27.3363 307.562 27.4485 306.982 27.6858C305.481 28.2714 304.468 29.6245 304.398 31.2404C304.358 31.6139 304.386 32.0239 304.396 32.4273C304.415 33.579 302.836 33.8797 302.418 32.8259L302.421 32.8282Z" fill="#06448D"/>
</g>
<g opacity="0.7" filter="url(#filter16_f_17_737)">
<path d="M33.9724 122.553L29.3904 135.349L8.97851 125.757L30.5705 156.405L35.156 143.599L55.574 153.204L33.9724 122.553Z" fill="#7DE2FF"/>
</g>
<defs>
<filter id="filter0_f_17_737" x="109.379" y="105.38" width="106.518" height="105.336" filterUnits="userSpaceOnUse" color-interpolation-filters="sRGB">
<feFlood flood-opacity="0" result="BackgroundImageFix"/>
<feBlend mode="normal" in="SourceGraphic" in2="BackgroundImageFix" result="shape"/>
<feGaussianBlur stdDeviation="1.31019" result="effect1_foregroundBlur_17_737"/>
</filter>
<filter id="filter1_f_17_737" x="166.157" y="131.3" width="9.79438" height="7.44697" filterUnits="userSpaceOnUse" color-interpolation-filters="sRGB">
<feFlood flood-opacity="0" result="BackgroundImageFix"/>
<feBlend mode="normal" in="SourceGraphic" in2="BackgroundImageFix" result="shape"/>
<feGaussianBlur stdDeviation="0.647813" result="effect1_foregroundBlur_17_737"/>
</filter>
<filter id="filter2_f_17_737" x="149.357" y="122.655" width="6.28657" height="9.9101" filterUnits="userSpaceOnUse" color-interpolation-filters="sRGB">
<feFlood flood-opacity="0" result="BackgroundImageFix"/>
<feBlend mode="normal" in="SourceGraphic" in2="BackgroundImageFix" result="shape"/>
<feGaussianBlur stdDeviation="0.647813" result="effect1_foregroundBlur_17_737"/>
</filter>
<filter id="filter3_f_17_737" x="159.22" y="119.504" width="8.05707" height="13.1347" filterUnits="userSpaceOnUse" color-interpolation-filters="sRGB">
<feFlood flood-opacity="0" result="BackgroundImageFix"/>
<feBlend mode="normal" in="SourceGraphic" in2="BackgroundImageFix" result="shape"/>
<feGaussianBlur stdDeviation="0.647813" result="effect1_foregroundBlur_17_737"/>
</filter>
<filter id="filter4_f_17_737" x="140.923" y="134.037" width="52.0758" height="46.2956" filterUnits="userSpaceOnUse" color-interpolation-filters="sRGB">
<feFlood flood-opacity="0" result="BackgroundImageFix"/>
<feBlend mode="normal" in="SourceGraphic" in2="BackgroundImageFix" result="shape"/>
<feGaussianBlur stdDeviation="1.29435" result="effect1_foregroundBlur_17_737"/>
</filter>
<filter id="filter5_f_17_737" x="154.218" y="146.375" width="16.0122" height="13.6823" filterUnits="userSpaceOnUse" color-interpolation-filters="sRGB">
<feFlood flood-opacity="0" result="BackgroundImageFix"/>
<feBlend mode="normal" in="SourceGraphic" in2="BackgroundImageFix" result="shape"/>
<feGaussianBlur stdDeviation="0.81969" result="effect1_foregroundBlur_17_737"/>
</filter>
<filter id="filter6_f_17_737" x="156.298" y="159.824" width="9.60981" height="9.84834" filterUnits="userSpaceOnUse" color-interpolation-filters="sRGB">
<feFlood flood-opacity="0" result="BackgroundImageFix"/>
<feBlend mode="normal" in="SourceGraphic" in2="BackgroundImageFix" result="shape"/>
<feGaussianBlur stdDeviation="0.81969" result="effect1_foregroundBlur_17_737"/>
</filter>
<filter id="filter7_f_17_737" x="426.205" y="166.452" width="62.5957" height="49.8521" filterUnits="userSpaceOnUse" color-interpolation-filters="sRGB">
<feFlood flood-opacity="0" result="BackgroundImageFix"/>
<feBlend mode="normal" in="SourceGraphic" in2="BackgroundImageFix" result="shape"/>
<feGaussianBlur stdDeviation="4" result="effect1_foregroundBlur_17_737"/>
</filter>
<filter id="filter8_f_17_737" x="134.164" y="8.44336" width="47.957" height="79.043" filterUnits="userSpaceOnUse" color-interpolation-filters="sRGB">
<feFlood flood-opacity="0" result="BackgroundImageFix"/>
<feBlend mode="normal" in="SourceGraphic" in2="BackgroundImageFix" result="shape"/>
<feGaussianBlur stdDeviation="4" result="effect1_foregroundBlur_17_737"/>
</filter>
<filter id="filter9_f_17_737" x="431.356" y="76.6342" width="7.32142" height="12.5287" filterUnits="userSpaceOnUse" color-interpolation-filters="sRGB">
<feFlood flood-opacity="0" result="BackgroundImageFix"/>
<feBlend mode="normal" in="SourceGraphic" in2="BackgroundImageFix" result="shape"/>
<feGaussianBlur stdDeviation="0.790315" result="effect1_foregroundBlur_17_737"/>
</filter>
<filter id="filter10_f_17_737" x="449.824" y="91.4846" width="11.8029" height="8.54505" filterUnits="userSpaceOnUse" color-interpolation-filters="sRGB">
<feFlood flood-opacity="0" result="BackgroundImageFix"/>
<feBlend mode="normal" in="SourceGraphic" in2="BackgroundImageFix" result="shape"/>
<feGaussianBlur stdDeviation="0.790315" result="effect1_foregroundBlur_17_737"/>
</filter>
<filter id="filter11_f_17_737" x="443.469" y="76.6191" width="11.9777" height="14.9374" filterUnits="userSpaceOnUse" color-interpolation-filters="sRGB">
<feFlood flood-opacity="0" result="BackgroundImageFix"/>
<feBlend mode="normal" in="SourceGraphic" in2="BackgroundImageFix" result="shape"/>
<feGaussianBlur stdDeviation="0.790315" result="effect1_foregroundBlur_17_737"/>
</filter>
<filter id="filter12_f_17_737" x="391.409" y="91.8758" width="62.8905" height="56.5556" filterUnits="userSpaceOnUse" color-interpolation-filters="sRGB">
<feFlood flood-opacity="0" result="BackgroundImageFix"/>
<feBlend mode="normal" in="SourceGraphic" in2="BackgroundImageFix" result="shape"/>
<feGaussianBlur stdDeviation="1.57908" result="effect1_foregroundBlur_17_737"/>
</filter>
<filter id="filter13_f_17_737" x="418.21" y="107.299" width="19.7363" height="16.3376" filterUnits="userSpaceOnUse" color-interpolation-filters="sRGB">
<feFlood flood-opacity="0" result="BackgroundImageFix"/>
<feBlend mode="normal" in="SourceGraphic" in2="BackgroundImageFix" result="shape"/>
<feGaussianBlur stdDeviation="1" result="effect1_foregroundBlur_17_737"/>
</filter>
<filter id="filter14_f_17_737" x="424.248" y="123.505" width="11.6592" height="12.0142" filterUnits="userSpaceOnUse" color-interpolation-filters="sRGB">
<feFlood flood-opacity="0" result="BackgroundImageFix"/>
<feBlend mode="normal" in="SourceGraphic" in2="BackgroundImageFix" result="shape"/>
<feGaussianBlur stdDeviation="1" result="effect1_foregroundBlur_17_737"/>
</filter>
<filter id="filter15_f_17_737" x="271" y="-3" width="72.6416" height="86.1462" filterUnits="userSpaceOnUse" color-interpolation-filters="sRGB">
<feFlood flood-opacity="0" result="BackgroundImageFix"/>
<feBlend mode="normal" in="SourceGraphic" in2="BackgroundImageFix" result="shape"/>
<feGaussianBlur stdDeviation="1.5" result="effect1_foregroundBlur_17_737"/>
</filter>
<filter id="filter16_f_17_737" x="0.978516" y="114.553" width="62.5957" height="49.8521" filterUnits="userSpaceOnUse" color-interpolation-filters="sRGB">
<feFlood flood-opacity="0" result="BackgroundImageFix"/>
<feBlend mode="normal" in="SourceGraphic" in2="BackgroundImageFix" result="shape"/>
<feGaussianBlur stdDeviation="4" result="effect1_foregroundBlur_17_737"/>
</filter>
<clipPath id="clip0_17_737">
<rect width="75.9485" height="67.0792" fill="white" transform="matrix(-0.77057 -0.637355 -0.637355 0.77057 213.276 156.406)"/>
</clipPath>
<clipPath id="clip1_17_737">
<rect width="92.6552" height="81.8349" fill="white" transform="translate(366 122.261) rotate(-42.2191)"/>
</clipPath>
<clipPath id="clip2_17_737">
<rect width="69.3503" height="50.0128" fill="white" transform="translate(274 66.8574) rotate(-74.5908)"/>
</clipPath>
</defs>
</svg>
