<svg width="422" height="442" viewBox="0 0 422 442" fill="none" xmlns="http://www.w3.org/2000/svg">
<g filter="url(#filter0_f_17_4744)">
<path d="M71.056 258.516C70.3774 258.532 69.9614 258.414 69.3878 258.036C69.3831 258.033 69.1027 257.828 69.2622 257.954C69.2064 257.909 69.1495 257.861 69.0964 257.812C68.9575 257.687 68.8287 257.557 68.7054 257.417C68.5182 257.202 68.3211 256.906 68.1401 256.566C67.3835 255.139 67.307 253.464 67.504 251.843C67.7054 250.187 68.2518 248.511 69.0693 247.051C70.0179 245.352 71.4599 244.03 72.563 242.439C73.6862 240.82 74.2477 238.948 74.378 236.991C74.493 235.251 74.2517 233.519 74.0292 231.797C73.8074 230.085 73.7107 228.32 74.0405 226.616C74.2044 225.76 74.4413 224.968 74.8589 224.234C75.0616 223.877 75.2505 223.61 75.5041 223.339C75.6044 223.231 75.7103 223.129 75.8196 223.032C75.8789 222.978 75.9391 222.928 75.9993 222.878C75.8278 223.018 76.0565 222.839 76.0782 222.823C76.3206 222.659 76.5772 222.525 76.8438 222.406C76.636 222.499 76.9658 222.363 77.0317 222.342C77.1759 222.293 77.3259 222.251 77.4731 222.214C77.7416 222.146 78.0151 222.097 78.2919 222.053C78.3473 222.044 78.4012 222.038 78.4566 222.029C78.2341 222.06 78.4259 222.033 78.4799 222.027C78.6308 222.01 78.783 221.991 78.9326 221.977C80.1294 221.853 81.3226 221.751 82.4314 221.24C83.7633 220.625 84.6427 219.395 85.1532 218.059C85.7058 216.605 85.633 215.055 85.4078 213.545C85.1892 212.067 84.8511 210.796 84.8447 209.359C84.8396 207.816 85.3188 206.408 86.2816 205.11C86.4192 204.926 86.719 204.575 86.9585 204.318C87.2355 204.023 87.5229 203.738 87.8195 203.464C88.4244 202.9 89.0555 202.367 89.6809 201.828C91.0079 200.677 92.2852 199.46 93.2395 197.976C95.4018 194.61 95.3204 190.357 97.3335 186.939C98.1274 185.591 99.319 184.463 100.689 183.902C101.285 183.659 101.911 183.527 102.503 183.518C103.394 183.505 104.259 183.722 105.085 184.042C105.93 184.37 106.729 184.821 107.523 185.252C108.702 185.894 109.748 184.092 108.565 183.447C106.761 182.462 104.881 181.5 102.785 181.435C101.133 181.385 99.4875 181.982 98.1672 182.957C96.5181 184.176 95.4144 185.838 94.652 187.725C93.8839 189.628 93.4902 191.65 92.8882 193.608C92.3357 195.409 91.5347 197.042 90.2837 198.393C89.104 199.67 87.7146 200.721 86.4422 201.897C85.1377 203.101 84.0113 204.465 83.3513 206.126C82.7039 207.76 82.675 209.487 82.9123 211.204C83.0193 211.972 83.1681 212.732 83.2998 213.495C83.3623 213.86 83.3986 214.091 83.428 214.356C83.4706 214.729 83.4987 215.1 83.4997 215.473C83.5015 215.65 83.4972 215.826 83.4854 216.005C83.4779 216.11 83.4705 216.216 83.4594 216.322C83.4646 216.275 83.4845 216.164 83.449 216.373C83.3829 216.77 83.2816 217.164 83.1329 217.536C83.1856 217.406 83.1094 217.582 83.105 217.595C83.0574 217.699 83.0061 217.804 82.9514 217.905C82.8692 218.058 82.781 218.211 82.6847 218.356C82.6497 218.411 82.6101 218.463 82.5714 218.52C82.3981 218.771 82.7136 218.382 82.5084 218.596C82.3966 218.713 82.2882 218.836 82.1684 218.946C82.1156 218.993 82.0618 219.038 82.0066 219.084C81.8025 219.258 82.127 219.006 81.9901 219.097C81.8761 219.169 81.7645 219.243 81.6448 219.308C81.539 219.366 81.4326 219.415 81.3247 219.466C81.5603 219.357 81.3248 219.466 81.2788 219.48C81.2042 219.506 81.1295 219.532 81.0538 219.554C80.7995 219.63 80.5401 219.687 80.2802 219.735C80.1471 219.758 80.0155 219.779 79.8829 219.797C80.1114 219.766 79.9233 219.792 79.8646 219.796C79.7701 219.807 79.6756 219.819 79.5787 219.829C78.3153 219.965 77.0676 220.064 75.8886 220.566C72.4419 222.03 71.6456 226.328 71.7551 229.672C71.8684 233.178 73.1376 236.903 71.4607 240.222C70.5331 242.058 68.9516 243.432 67.8097 245.122C66.7668 246.663 66.0497 248.466 65.6644 250.283C65.2779 252.101 65.178 254.038 65.6522 255.852C66.092 257.546 67.1085 259.236 68.7114 260.058C69.4436 260.433 70.2476 260.624 71.0703 260.604C72.4103 260.574 72.4044 258.488 71.057 258.52L71.056 258.516Z" fill="#65C3E8"/>
</g>
<g filter="url(#filter1_f_17_4744)">
<path d="M86.9291 238.322C86.8717 238.323 86.8147 238.319 86.7584 238.324C86.5262 238.334 86.8286 238.311 86.8474 238.344C86.8373 238.329 86.5376 238.265 86.4991 238.256C86.3366 238.221 86.7484 238.39 86.6063 238.299C86.5615 238.273 86.514 238.252 86.4692 238.226C86.4291 238.203 86.3484 238.125 86.3059 238.122C86.3812 238.128 86.5468 238.336 86.3716 238.166C86.2956 238.091 86.2219 238.017 86.151 237.939C86.111 237.894 85.9841 237.792 86.1291 237.917C86.2788 238.044 86.1262 237.906 86.0929 237.849C86.0339 237.755 85.9799 237.658 85.9334 237.559C85.9236 237.538 85.8566 237.414 85.8644 237.406C85.8417 237.44 85.966 237.688 85.8712 237.395C85.8351 237.283 85.8051 237.171 85.7789 237.059C85.7652 237.001 85.7563 236.946 85.7427 236.888C85.7088 236.739 85.679 236.851 85.7495 236.957C85.6448 236.79 85.7266 236.355 85.7344 236.161C85.7414 235.98 85.6922 236.175 85.7217 236.233C85.712 236.211 85.7434 236.091 85.7503 236.058C85.7729 235.942 85.8003 235.829 85.8338 235.717C85.8505 235.661 85.8696 235.606 85.8887 235.551C85.9641 235.306 85.8678 235.636 85.8523 235.63C85.8476 235.628 86.0364 235.279 86.0554 235.246C86.084 235.196 86.1195 235.151 86.1517 235.101C86.2972 234.887 86.1488 235.09 86.1321 235.124C86.1929 235.002 86.352 234.868 86.4478 234.773C86.5463 234.673 86.6482 234.578 86.7511 234.487C86.8026 234.441 86.8587 234.398 86.9102 234.353C86.9856 234.293 86.964 234.309 86.8466 234.398C86.8899 234.366 86.9318 234.337 86.9751 234.306C87.471 233.958 88.0107 233.693 88.5625 233.45C88.7602 233.363 88.2761 233.554 88.6061 233.434C88.6747 233.408 88.7433 233.381 88.8105 233.358C88.9463 233.307 89.0845 233.258 89.2214 233.212C89.5311 233.105 89.8452 233.007 90.1604 232.913C90.7572 232.734 91.3567 232.572 91.9492 232.384C94.5045 231.566 97.1611 230.147 97.8929 227.355C98.3357 225.656 97.9428 223.871 97.3468 222.263C97.0252 221.394 96.6489 220.543 96.2824 219.691C96.1997 219.503 96.1207 219.313 96.0394 219.122C96.0009 219.03 95.8815 218.72 96.0273 219.099C95.9839 218.989 95.938 218.878 95.8945 218.768C95.7504 218.403 95.6137 218.035 95.4945 217.659C95.3814 217.305 95.2844 216.945 95.2145 216.582C95.1956 216.489 95.1841 216.395 95.1675 216.304C95.1387 216.152 95.1986 216.604 95.1869 216.45C95.1844 216.411 95.1771 216.369 95.1735 216.326C95.1549 216.146 95.1461 215.965 95.1495 215.785C95.1498 215.697 95.1538 215.609 95.1615 215.519C95.1715 215.371 95.2594 215.203 95.1516 215.564C95.2004 215.397 95.2158 215.218 95.2647 215.052C95.2862 214.977 95.3161 214.903 95.34 214.829C95.4001 214.638 95.1797 215.15 95.3237 214.879C95.4089 214.715 95.4999 214.557 95.6007 214.399C95.774 214.126 95.433 214.575 95.58 214.418C95.6477 214.345 95.7098 214.264 95.7799 214.192C95.8669 214.101 95.9583 214.019 96.0496 213.937C96.1024 213.889 96.2373 213.835 96.0744 213.91C95.8888 213.998 96.0896 213.9 96.1353 213.87C96.3257 213.742 96.5248 213.631 96.733 213.531C96.7806 213.509 96.833 213.489 96.882 213.464C97.0453 213.382 96.5732 213.574 96.8394 213.483C96.9563 213.444 97.0736 213.398 97.1914 213.363C98.1426 213.065 99.1367 212.949 100.115 212.773C101.169 212.585 102.227 212.32 103.167 211.79C104.409 211.092 105.358 209.943 105.954 208.666C106.557 207.37 106.898 206.002 107.148 204.599C107.279 203.866 107.403 203.128 107.563 202.399C107.637 202.069 107.718 201.739 107.811 201.413C107.857 201.252 107.908 201.093 107.96 200.932C107.987 200.853 108.013 200.774 108.044 200.694C108.051 200.676 108.201 200.302 108.093 200.554C108.222 200.249 108.369 199.951 108.538 199.669C108.632 199.506 108.745 199.359 108.842 199.201C108.952 199.023 108.719 199.34 108.855 199.18C108.915 199.108 108.973 199.035 109.034 198.967C109.127 198.867 109.223 198.771 109.325 198.68C109.37 198.64 109.42 198.603 109.463 198.562C109.596 198.441 109.262 198.697 109.411 198.598C109.644 198.444 109.873 198.297 110.127 198.18C110.42 198.042 109.941 198.239 110.246 198.13C110.377 198.083 110.51 198.043 110.644 198.008C110.763 197.976 110.882 197.954 111.001 197.928C111.101 197.907 111.152 197.846 110.938 197.933C111.012 197.903 111.131 197.915 111.207 197.909C111.324 197.901 111.443 197.901 111.561 197.904C111.62 197.906 111.679 197.912 111.738 197.914C111.941 197.922 111.664 197.9 111.66 197.901C111.686 197.872 111.96 197.958 111.999 197.968C112.054 197.981 112.108 197.996 112.163 198.016C112.202 198.029 112.243 198.04 112.284 198.057C112.38 198.091 112.338 198.072 112.155 198.002C112.185 198.06 112.39 198.118 112.453 198.155C112.503 198.184 112.547 198.215 112.593 198.245C112.8 198.371 112.513 198.205 112.516 198.182C112.513 198.205 112.77 198.429 112.789 198.449C112.851 198.516 112.863 198.627 112.823 198.484C112.776 198.31 112.833 198.515 112.868 198.57C113.226 199.153 114.04 199.441 114.65 199.059C115.232 198.692 115.517 197.9 115.137 197.279C113.669 194.889 110.298 194.806 108.151 196.305C105.428 198.209 105.078 201.652 104.483 204.649C104.346 205.332 104.18 206.011 103.958 206.67C103.9 206.834 103.841 206.997 103.779 207.159C103.877 206.902 103.727 207.277 103.686 207.363C103.534 207.686 103.364 208.002 103.168 208.3C103.131 208.357 102.816 208.762 103.021 208.516C102.925 208.627 102.831 208.742 102.728 208.849C102.613 208.967 102.492 209.083 102.367 209.192C102.337 209.216 102.156 209.366 102.284 209.264C102.41 209.167 102.131 209.367 102.097 209.388C101.888 209.521 101.672 209.629 101.45 209.736C101.231 209.842 101.519 209.713 101.524 209.71C101.498 209.745 101.37 209.771 101.326 209.787C101.192 209.835 101.056 209.879 100.918 209.921C98.9045 210.525 96.5968 210.391 94.8015 211.629C93.8562 212.282 93.1722 213.151 92.7879 214.231C92.4863 215.086 92.5013 216.007 92.6295 216.89C92.8806 218.622 93.6932 220.236 94.373 221.83C94.4115 221.921 94.449 222.008 94.4874 222.099C94.5055 222.144 94.5259 222.191 94.544 222.236C94.6444 222.475 94.4483 221.998 94.5142 222.162C94.6015 222.375 94.6851 222.59 94.7687 222.804C94.9205 223.206 95.0612 223.61 95.1795 224.02C95.2099 224.125 95.5122 225.197 95.446 225.224C95.4386 225.226 95.409 224.88 95.4282 225.092C95.4318 225.135 95.4377 225.179 95.4423 225.225C95.451 225.325 95.4598 225.424 95.4639 225.52C95.4736 225.726 95.4735 225.934 95.4613 226.14C95.456 226.209 95.4145 226.335 95.4375 226.399C95.3783 226.246 95.4844 226.1 95.4477 226.289C95.4391 226.331 95.4329 226.374 95.4243 226.416C95.3855 226.62 95.3321 226.821 95.267 227.016C95.2523 227.057 95.2353 227.098 95.223 227.141C95.1606 227.331 95.2638 227.048 95.2642 227.042C95.2584 227.161 95.1008 227.374 95.041 227.478C94.9704 227.6 94.8827 227.785 94.7748 227.879C94.8018 227.854 94.9645 227.66 94.7897 227.854C94.7179 227.934 94.6474 228.013 94.5723 228.089C94.4724 228.191 94.3677 228.291 94.2611 228.383C94.1931 228.441 94.1204 228.496 94.0547 228.555C93.9095 228.682 94.2272 228.442 94.0649 228.549C93.7683 228.741 93.4815 228.933 93.1695 229.098C92.8852 229.248 92.5946 229.381 92.302 229.507C92.1006 229.595 92.5847 229.404 92.2421 229.529C92.1712 229.554 92.1013 229.583 92.029 229.61C91.8519 229.677 91.6729 229.737 91.4925 229.799C88.9488 230.646 86.0079 231.141 84.2352 233.358C83.3904 234.414 82.9871 235.711 83.1545 237.066C83.3202 238.407 83.912 239.673 85.0738 240.432C85.6218 240.789 86.3032 240.953 86.9524 240.939C87.6357 240.925 88.2846 240.34 88.2499 239.627C88.2142 238.932 87.6671 238.312 86.9348 238.328L86.9291 238.322Z" fill="#65C3E8"/>
</g>
<g filter="url(#filter2_f_17_4744)">
<path d="M73.9323 349.285C71.0322 348.944 68.0463 349.346 65.3133 350.365C62.7159 351.334 60.2331 352.87 58.713 355.2C57.221 357.487 57.1999 360.493 58.8088 362.718C60.461 365.012 63.1706 365.857 65.7841 366.648C66.3705 366.825 66.9533 367.006 67.5366 367.194C67.323 367.113 67.7533 367.263 67.5366 367.194C67.596 367.216 67.6551 367.235 67.7144 367.258C67.8526 367.305 67.9871 367.357 68.1217 367.408C68.4026 367.515 68.6801 367.628 68.9507 367.754C69.1896 367.867 69.4249 367.984 69.6497 368.116C69.7821 368.194 69.8923 368.285 69.6934 368.136C69.8031 368.219 69.9161 368.295 70.0221 368.382C70.1118 368.456 70.1941 368.534 70.2805 368.615C70.5391 368.851 70.1889 368.455 70.3178 368.654C70.3778 368.744 70.4454 368.834 70.5093 368.925C70.522 368.943 70.5851 369.022 70.5828 369.045C70.4894 368.858 70.4672 368.814 70.5126 368.917C70.5264 368.95 70.544 368.983 70.5539 369.016C70.5887 369.135 70.6636 369.451 70.6207 369.152C70.6409 369.283 70.624 369.435 70.6517 369.561C70.6844 369.707 70.6594 369.504 70.6646 369.466C70.6571 369.527 70.6531 369.584 70.6418 369.645C70.61 369.806 70.5702 369.964 70.5269 370.125C70.4676 370.337 70.6218 369.926 70.5269 370.125C70.4999 370.184 70.477 370.246 70.4503 370.308C70.3865 370.452 70.3148 370.593 70.2431 370.734C70.1678 370.878 70.0846 371.02 69.9976 371.162C69.9593 371.225 69.9208 371.284 69.8825 371.347C69.844 371.406 69.7002 371.624 69.8093 371.465C68.9932 372.657 67.9987 373.716 67.1744 374.901C65.8567 376.79 65.0684 378.929 65.1011 381.232C65.1329 383.289 65.8921 385.321 67.0757 387.004C69.8937 391.005 74.8599 393.193 79.6819 393.725C80.4436 393.811 81.2104 393.858 81.9756 393.879C81.5711 393.071 81.1631 392.267 80.7586 391.458C75.7056 396.826 69.1807 405.193 74.2409 412.538C75.299 414.074 76.7804 415.303 78.4391 416.179C80.2375 417.126 82.2276 417.531 84.1883 418.018C84.6668 418.137 85.1458 418.264 85.6148 418.415C85.8985 418.505 85.7135 418.45 85.6542 418.427C85.7647 418.465 85.8716 418.507 85.9824 418.549C86.2121 418.64 86.4385 418.738 86.6581 418.852C86.754 418.902 86.8499 418.953 86.9423 419.007C87.0103 419.044 87.2373 419.21 86.9983 419.037C87.1805 419.169 87.3518 419.309 87.5125 419.464C87.4711 419.422 87.3723 419.27 87.546 419.504C87.6136 419.594 87.6813 419.684 87.7418 419.782C87.7847 419.847 87.8981 420.104 87.7887 419.85C87.8389 419.968 87.8894 420.089 87.9283 420.212C87.953 420.293 87.9779 420.378 87.9949 420.46C87.9108 420.122 87.9961 420.536 88.0034 420.588C88.0242 420.787 88.0297 420.987 88.0273 421.184C88.0244 421.256 87.9977 421.552 88.0289 421.267C88.0196 421.358 88.0102 421.449 87.9969 421.541C87.9616 421.823 87.9106 422.102 87.8481 422.382C87.6448 423.333 87.3437 424.264 87.109 425.205C86.6791 426.93 86.8591 428.778 87.7787 430.319C88.8724 432.159 90.9629 432.916 93.0455 432.911C93.8283 432.908 94.5234 432.103 94.4391 431.353C94.3457 430.524 93.6894 429.989 92.8525 429.991C92.7329 429.992 92.617 429.988 92.4972 429.985C92.2425 429.983 92.8327 430.042 92.4271 429.974C92.2592 429.944 92.0923 429.928 91.9278 429.89C91.8103 429.864 91.6962 429.83 91.5785 429.8C91.6294 429.811 91.864 429.917 91.6179 429.812C91.4473 429.74 91.2805 429.668 91.1204 429.581C91.1005 429.571 90.8065 429.382 91.0084 429.52C91.2063 429.654 90.931 429.457 90.9146 429.443C90.8088 429.359 90.7138 429.264 90.6115 429.176C90.37 428.965 90.7322 429.368 90.6284 429.197C90.5852 429.128 90.5234 429.068 90.4729 429.004C90.3753 428.87 90.2927 428.728 90.2064 428.59C90.038 428.318 90.2753 428.816 90.224 428.623C90.2037 428.549 90.1559 428.469 90.1279 428.395C90.0813 428.274 90.0383 428.148 89.9991 428.022C89.9747 427.944 89.9651 427.858 89.933 427.781C89.8545 427.586 89.9845 428.152 89.9396 427.822C89.9171 427.657 89.8908 427.493 89.8799 427.327C89.8689 427.161 89.8616 426.992 89.866 426.825C89.864 426.795 89.861 426.633 89.872 426.625C89.85 426.641 89.8389 426.941 89.8665 426.716C89.912 426.354 89.9777 426.005 90.07 425.652C90.5271 423.872 91.2513 421.991 90.9506 420.125C90.6106 418.016 89.1081 416.585 87.123 415.847C85.2724 415.161 83.2994 414.898 81.43 414.277C81.6193 414.34 81.0898 414.149 81.0146 414.119C80.8125 414.038 80.6102 413.953 80.4114 413.865C79.9858 413.67 79.5744 413.455 79.1765 413.213C79.1 413.165 79.0236 413.117 78.9471 413.07C79.1645 413.206 78.9712 413.083 78.9308 413.055C78.7526 412.927 78.5747 412.803 78.4037 412.667C78.0739 412.405 77.7583 412.124 77.4645 411.822C77.4065 411.762 77.3524 411.701 77.2946 411.644C77.4934 411.851 77.3406 411.698 77.3028 411.651C77.1728 411.494 77.0469 411.34 76.9246 411.181C76.6876 410.865 76.473 410.535 76.2765 410.189C76.2372 410.12 76.2018 410.05 76.1666 409.984C76.3155 410.254 76.2109 410.072 76.1837 410.01C76.1064 409.833 76.0215 409.658 75.952 409.481C75.8088 409.124 75.692 408.757 75.598 408.386C75.5663 408.256 75.4991 407.882 75.5556 408.211C75.5237 408.02 75.4921 407.833 75.4681 407.646C75.425 407.286 75.4047 406.921 75.4039 406.558C75.404 406.384 75.4118 406.21 75.4198 406.039C75.4034 406.433 75.4476 405.818 75.4575 405.734C75.5144 405.311 75.5945 404.89 75.6982 404.475C75.7622 404.218 75.8339 403.96 75.9137 403.709C75.9423 403.616 75.9748 403.524 76.0034 403.431C76.1028 403.126 75.9661 403.509 76.0752 403.233C76.2802 402.717 76.4975 402.212 76.7422 401.712C76.9837 401.223 77.2491 400.745 77.5265 400.273C77.6757 400.021 77.829 399.773 77.99 399.524C78.0496 399.433 78.1053 399.343 78.1649 399.252C78.1577 399.26 78.4037 398.896 78.3156 399.023C79.6904 397.005 81.3272 395.158 83.0033 393.381C83.4107 392.949 83.4663 392.273 83.2051 391.765C82.9218 391.213 82.3969 390.976 81.7864 390.959C81.6126 390.956 81.4424 390.948 81.2683 390.941C81.1948 390.938 81.1211 390.932 81.0476 390.929C81.0784 390.927 81.2609 390.945 81.0822 390.927C80.7487 390.9 80.4111 390.869 80.0807 390.83C79.4352 390.752 78.7918 390.647 78.1539 390.508C77.563 390.381 76.9822 390.23 76.4071 390.049C76.3165 390.021 76.0325 389.926 76.2774 390.012C76.1354 389.965 75.9931 389.914 75.8507 389.859C75.5739 389.756 75.2966 389.646 75.0267 389.532C74.5187 389.316 74.0167 389.073 73.5323 388.807C73.2881 388.672 73.0475 388.533 72.8102 388.386C72.7097 388.325 72.6128 388.259 72.5123 388.198C72.7741 388.366 72.4433 388.146 72.3502 388.08C71.9335 387.786 71.5348 387.473 71.1576 387.135C70.9813 386.976 70.8047 386.814 70.6355 386.648C70.5448 386.559 70.4577 386.467 70.3708 386.378C70.135 386.137 70.4592 386.489 70.3003 386.303C69.9826 385.931 69.6797 385.551 69.4099 385.145C69.2858 384.961 69.1695 384.776 69.0603 384.583C69.0082 384.495 68.96 384.408 68.9118 384.32C68.7457 384.025 68.9984 384.522 68.8585 384.214C68.6737 383.811 68.5078 383.402 68.3758 382.98C68.3124 382.78 68.2603 382.576 68.2121 382.371C68.1321 382.036 68.2421 382.592 68.2055 382.33C68.1903 382.218 68.1678 382.11 68.1526 381.997C68.0921 381.548 68.0699 381.096 68.0864 380.645C68.087 380.596 68.0914 380.546 68.092 380.497C68.0803 380.494 68.0996 380.319 68.092 380.497C68.0728 380.672 68.1158 380.507 68.092 380.497C68.0993 380.433 68.1066 380.368 68.1139 380.303C68.1412 380.075 68.1801 379.845 68.2266 379.615C68.2703 379.401 68.3257 379.189 68.385 378.978C68.4198 378.862 68.4587 378.75 68.4935 378.634C68.412 378.919 68.4739 378.688 68.5266 378.553C68.7049 378.099 68.9226 377.657 69.1687 377.237C69.2344 377.123 69.304 377.008 69.3739 376.898C69.4157 376.831 69.6447 376.502 69.4468 376.776C69.6445 376.498 69.8465 376.228 70.0561 375.957C70.4863 375.403 70.9327 374.864 71.3629 374.31C72.2516 373.167 73.1392 371.948 73.497 370.534C73.8091 369.304 73.5525 367.93 72.7272 366.941C71.994 366.06 71.0121 365.445 69.9562 364.993C68.8011 364.499 67.5822 364.149 66.3818 363.786C66.1062 363.702 65.8307 363.618 65.559 363.534C65.4131 363.487 65.2676 363.444 65.1217 363.397C65.035 363.369 64.6679 363.242 64.9324 363.334C64.3834 363.139 63.8416 362.937 63.316 362.689C63.0413 362.559 62.7772 362.414 62.5197 362.254C62.3749 362.165 62.5197 362.254 62.5478 362.271C62.4913 362.233 62.4384 362.191 62.3819 362.153C62.24 362.049 62.1015 361.937 61.9665 361.822C61.8684 361.737 61.7738 361.649 61.679 361.557C61.6502 361.529 61.4601 361.337 61.5845 361.469C61.6966 361.59 61.5592 361.437 61.5429 361.423C61.3623 361.2 61.193 360.973 61.0419 360.73C61.0116 360.679 60.9845 360.621 60.9506 360.574C60.8275 360.404 61.0382 360.791 60.9598 360.596C60.9177 360.485 60.8608 360.383 60.8188 360.272C60.7681 360.147 60.7248 360.018 60.6854 359.888C60.6656 359.822 60.5792 359.449 60.6145 359.632C60.6548 359.834 60.5895 359.43 60.5817 359.37C60.5702 359.253 60.5627 359.141 60.5588 359.024C60.5537 358.888 60.564 358.751 60.5627 358.615C60.5592 358.445 60.5605 358.699 60.5576 358.714C60.5745 358.618 60.5831 358.516 60.5961 358.42C60.6406 358.16 60.7166 357.91 60.7809 357.656C60.7197 357.898 60.7804 357.649 60.8277 357.547C60.8943 357.388 60.9652 357.236 61.0439 357.083C61.1055 356.966 61.1713 356.852 61.237 356.738C61.282 356.659 61.331 356.584 61.3801 356.509C61.3624 356.533 61.2597 356.672 61.3626 356.537C61.5433 356.294 61.736 356.059 61.9412 355.837C62.1213 355.644 62.3098 355.461 62.5063 355.282C62.5499 355.241 62.7222 355.105 62.5063 355.282C62.5537 355.241 62.605 355.2 62.6527 355.163C62.7701 355.072 62.8873 354.977 63.0088 354.89C63.5089 354.521 64.0385 354.187 64.5859 353.89C64.7089 353.825 64.8319 353.76 64.9549 353.696C64.7161 353.817 65.1084 353.625 65.1757 353.594C65.4791 353.457 65.783 353.327 66.0953 353.208C66.7045 352.971 67.3277 352.772 67.9606 352.601C68.2677 352.521 68.5792 352.447 68.8873 352.381C69.1344 352.327 68.6814 352.418 68.9254 352.375C68.9979 352.363 69.0701 352.347 69.1426 352.334C69.3372 352.302 69.528 352.271 69.7228 352.243C70.3725 352.151 71.0246 352.096 71.6795 352.083C71.9877 352.078 72.3005 352.084 72.6095 352.09C72.8993 352.097 72.4849 352.072 72.7759 352.098C72.962 352.112 73.1486 352.134 73.3313 352.156C74.105 352.248 74.9613 351.84 75.0958 351.015C75.2173 350.285 74.7644 349.385 73.9364 349.289L73.9323 349.285Z" fill="#65C3E8"/>
</g>
<g filter="url(#filter3_f_17_4744)">
<path d="M26.3399 319.702C28.7594 318.196 31.5296 317.31 34.3869 317.124C37.0788 316.954 39.9287 317.294 42.2652 318.799C44.4882 320.233 45.8385 322.863 45.4742 325.519C45.0881 328.31 43.1574 330.25 41.1915 332.046C40.7305 332.465 40.268 332.88 39.8201 333.31C39.6249 333.497 39.4297 333.685 39.2411 333.877C39.1432 333.98 39.0453 334.082 38.9474 334.184C39.159 333.96 38.8737 334.267 38.8103 334.345C38.4765 334.737 38.184 335.147 37.9273 335.592C38.1157 335.27 37.9428 335.58 37.9043 335.669C37.8602 335.772 37.8226 335.881 37.785 335.989C37.766 336.048 37.7502 336.113 37.7312 336.172C37.7353 336.153 37.7598 335.896 37.7663 336.039C37.7704 336.159 37.7368 336.295 37.7241 336.413C37.698 336.713 37.6663 336.247 37.7356 336.513C37.749 336.561 37.7695 336.644 37.7661 336.691C37.7574 336.883 37.661 336.483 37.7506 336.656C37.8056 336.761 37.8417 336.879 37.8933 336.985C37.915 337.034 38.059 337.237 37.9421 337.076C37.8218 336.917 37.9921 337.133 38.0114 337.158C38.1066 337.27 38.2017 337.382 38.3002 337.493C38.3357 337.535 38.5036 337.682 38.3049 337.503C38.3537 337.548 38.4059 337.592 38.4582 337.635C38.7274 337.862 39.0125 338.068 39.3081 338.262C39.5988 338.454 39.8984 338.629 40.2015 338.803C40.195 338.798 40.4142 338.921 40.3054 338.861C40.1966 338.801 40.4191 338.923 40.4126 338.918C40.5957 339.016 40.7788 339.113 40.9603 339.208C41.6831 339.587 42.4078 339.961 43.1144 340.368C45.0315 341.475 46.6515 343.12 47.6032 345.151C48.494 347.055 48.7485 349.251 48.433 351.309C47.6614 356.323 44.1409 360.35 39.9944 362.911C39.4216 363.263 38.8378 363.59 38.2382 363.891C38.2058 362.983 38.1784 362.076 38.1459 361.168C42.3093 362.934 46.5937 365.027 49.7342 368.416C52.1305 371.001 53.4918 374.528 52.8537 378.05C52.5204 379.902 51.7422 381.641 50.5969 383.117C49.3668 384.706 47.7788 385.87 46.2558 387.143C45.8881 387.449 45.5284 387.764 45.19 388.099C45.1238 388.162 45.0591 388.228 44.9945 388.295C44.6889 388.602 45.0983 388.169 44.9314 388.365C44.775 388.547 44.6271 388.73 44.4903 388.929C44.0714 389.534 43.9312 389.964 44.0672 390.663C44.0843 390.748 44.1032 390.827 44.1238 390.91C44.0423 390.562 44.1455 390.958 44.1704 391.014C44.2394 391.196 44.3237 391.376 44.4098 391.55C44.449 391.629 44.7425 392.112 44.5737 391.853C44.7266 392.086 44.8864 392.315 45.0515 392.538C45.6208 393.299 46.2559 394.005 46.8391 394.751C47.9385 396.148 48.6241 397.914 48.4679 399.704C48.2826 401.833 46.8317 403.433 44.9758 404.291C44.2848 404.608 43.3385 404.27 43.0459 403.532C42.7505 402.778 43.0287 401.932 43.7694 401.589C43.9745 401.497 44.175 401.395 44.3693 401.279C44.1063 401.434 44.4662 401.202 44.5527 401.139C44.705 401.021 44.8395 400.881 44.9887 400.756C44.7702 400.937 44.9008 400.862 44.9555 400.792C45.0207 400.708 45.091 400.627 45.1531 400.537C45.2169 400.45 45.4478 399.975 45.2933 400.336C45.3449 400.213 45.4014 400.092 45.4481 399.966C45.4726 399.893 45.4878 399.798 45.5223 399.728C45.6093 399.556 45.4695 400.07 45.5146 399.757C45.5357 399.593 45.5668 399.433 45.5745 399.267C45.5792 399.185 45.5689 399.098 45.5835 399.02C45.6127 398.819 45.6193 399.376 45.5823 399.054C45.5686 398.923 45.5583 398.789 45.5362 398.657C45.5104 398.489 45.4724 398.331 45.4348 398.164C45.386 397.935 45.4724 398.239 45.4653 398.25C45.4811 398.231 45.3757 397.985 45.3664 397.965C45.2591 397.678 45.1192 397.411 44.9796 397.135C44.8242 396.833 45.1335 397.342 45.0036 397.17C44.9538 397.105 44.9112 397.028 44.8649 396.961C44.753 396.802 44.6358 396.649 44.5151 396.499C43.3894 395.088 42.0088 393.704 41.4285 391.954C40.7637 389.941 41.3103 388.006 42.6862 386.477C43.9764 385.04 45.5874 383.983 47.0035 382.691C47.167 382.543 47.3273 382.388 47.4828 382.231C47.5667 382.143 47.6556 382.057 47.7379 381.966C47.6941 382.015 47.5869 382.142 47.7715 381.922C48.072 381.566 48.3592 381.209 48.6222 380.824C48.7235 380.674 48.8214 380.526 48.9143 380.376C48.9715 380.284 49.0271 380.188 49.0828 380.092C49.1169 380.031 49.254 379.778 49.1256 380.023C49.3193 379.648 49.4865 379.26 49.6303 378.866C49.6847 378.712 49.7375 378.555 49.7869 378.399C49.8174 378.302 49.8429 378.203 49.8699 378.108C49.891 378.036 49.9498 377.763 49.8867 378.063C49.9715 377.674 50.0346 377.282 50.0675 376.888C50.0799 376.732 50.0923 376.576 50.0963 376.419C50.0976 376.34 50.0844 375.731 50.1063 376.102C50.0851 375.714 50.0487 375.33 49.9852 374.949C49.927 374.607 49.8487 374.266 49.7532 373.933C49.844 374.256 49.733 373.888 49.6888 373.761C49.6154 373.56 49.5386 373.361 49.4565 373.167C49.3092 372.828 49.1447 372.496 48.9597 372.174C48.9218 372.107 48.8789 372.039 48.8409 371.972C49.0154 372.262 48.9013 372.07 48.858 372.01C48.7094 371.797 48.5642 371.582 48.4088 371.371C48.0945 370.952 47.7525 370.553 47.3947 370.174C47.2538 370.024 46.9489 369.718 46.8854 369.658C46.8205 369.595 46.4897 369.305 46.3299 369.167C45.4688 368.432 44.5442 367.776 43.5874 367.175C41.567 365.901 39.3826 364.884 37.122 363.926C35.923 363.417 35.9042 361.767 37.0297 361.202C37.3107 361.06 37.5901 360.915 37.8664 360.762C38.0106 360.681 38.1583 360.598 38.301 360.514C38.3628 360.478 38.4247 360.442 38.4865 360.406C38.5105 360.395 38.7498 360.242 38.6224 360.324C38.4881 360.409 38.6861 360.283 38.6948 360.275C38.774 360.223 38.8514 360.176 38.9307 360.124C39.0445 360.048 39.1616 359.971 39.2738 359.891C39.5377 359.711 39.7935 359.522 40.0444 359.33C40.5339 358.957 41.0076 358.558 41.4586 358.135C41.6606 357.945 41.8611 357.751 42.0551 357.551C42.0936 357.509 42.3314 357.261 42.2316 357.368C42.1178 357.49 42.2596 357.339 42.272 357.321C42.3404 357.244 42.4122 357.167 42.479 357.087C43.1848 356.27 43.799 355.386 44.3345 354.446C44.3615 354.396 44.3885 354.346 44.419 354.295C44.2698 354.558 44.3755 354.381 44.4028 354.323C44.4519 354.222 44.5045 354.119 44.5536 354.018C44.6664 353.784 44.7727 353.544 44.869 353.301C45.0554 352.846 45.2136 352.383 45.342 351.908C45.3749 351.788 45.4028 351.667 45.4342 351.545C45.3733 351.785 45.4122 351.642 45.4411 351.496C45.4942 351.238 45.5355 350.982 45.5684 350.725C45.6271 350.268 45.6473 349.808 45.6541 349.346C45.6559 349.065 45.6715 349.605 45.6531 349.325C45.6457 349.208 45.6397 349.093 45.6288 348.977C45.607 348.744 45.5818 348.514 45.5448 348.284C45.5122 348.073 45.4711 347.861 45.4183 347.651C45.3965 347.556 45.3697 347.46 45.343 347.363C45.2708 347.082 45.3648 347.458 45.3732 347.458C45.3732 347.458 45.3172 347.287 45.3128 347.268C45.172 346.842 44.9969 346.432 44.7911 346.035C44.7361 345.93 44.6826 345.828 44.6241 345.725C44.6005 345.681 44.5734 345.639 44.5498 345.595C44.4662 345.445 44.6241 345.725 44.6244 345.717C44.6493 345.634 44.2796 345.211 44.2153 345.131C44.0676 344.938 43.9147 344.751 43.7514 344.569C43.6803 344.492 43.6075 344.412 43.5363 344.335C43.4455 344.242 43.1903 344.001 43.4328 344.223C43.0635 343.882 42.673 343.568 42.2595 343.285C42.0512 343.14 41.8392 343.005 41.622 342.876C41.4936 342.8 41.3667 342.727 41.2349 342.652C40.9778 342.508 41.1096 342.583 41.164 342.613C41.0733 342.566 40.9859 342.517 40.8936 342.466C40.2436 342.122 39.5898 341.787 38.9435 341.432C37.7482 340.775 36.4587 340.027 35.66 338.872C34.8452 337.698 34.633 336.369 35.019 335.01C35.3045 334.006 35.9628 333.111 36.6531 332.351C37.4715 331.447 38.3691 330.629 39.2702 329.809C39.7137 329.406 40.1522 329.002 40.5746 328.579C40.662 328.49 40.7493 328.401 40.8367 328.312C40.8926 328.254 40.952 328.194 41.0064 328.132C40.9924 328.146 40.8485 328.311 40.9557 328.184C41.135 327.97 41.3243 327.76 41.4956 327.538C41.6774 327.302 41.848 327.05 42.0003 326.794C42.0432 326.725 42.1796 326.443 42.0792 326.659C42.1538 326.504 42.2234 326.348 42.2865 326.186C42.3403 326.05 42.3891 325.911 42.4329 325.77C42.45 325.717 42.541 325.388 42.5053 325.537C42.4696 325.687 42.5494 325.296 42.5547 325.244C42.5749 325.105 42.5916 324.968 42.6 324.831C42.6084 324.694 42.6084 324.556 42.6133 324.42C42.6041 324.675 42.6133 324.466 42.6012 324.338C42.5757 324.069 42.5231 323.804 42.4637 323.543C42.4012 323.274 42.4637 323.543 42.4805 323.59C42.4606 323.536 42.4441 323.48 42.4242 323.427C42.381 323.321 42.3397 323.21 42.293 323.105C42.2371 322.98 42.1792 322.859 42.113 322.739C42.0863 322.688 42.0511 322.637 42.0278 322.585C41.932 322.398 42.2377 322.871 42.0147 322.574C41.8559 322.365 41.7004 322.154 41.5226 321.958C41.4837 321.917 41.2419 321.678 41.3541 321.783C41.4809 321.902 41.323 321.759 41.305 321.746C41.2217 321.679 41.1418 321.61 41.0585 321.543C40.8312 321.365 40.5897 321.209 40.3462 321.059C40.1258 320.923 40.4258 321.09 40.1896 320.974C40.0491 320.908 39.9086 320.841 39.7612 320.777C39.5194 320.676 39.2738 320.585 39.0245 320.505C38.9048 320.466 38.7867 320.431 38.6685 320.396C38.6303 320.384 38.3754 320.318 38.547 320.363C38.7052 320.405 38.4469 320.341 38.4202 320.336C37.8429 320.209 37.2557 320.125 36.6654 320.079C36.372 320.056 36.0748 320.042 35.7807 320.036C35.7102 320.034 35.2812 320.037 35.537 320.032C35.3738 320.033 35.2088 320.04 35.0487 320.049C34.3866 320.082 33.7279 320.158 33.0748 320.266C32.7702 320.319 32.4652 320.38 32.1634 320.447C32.026 320.48 31.8852 320.513 31.7444 320.547C31.6679 320.568 31.1787 320.703 31.4286 320.629C30.8166 320.811 30.2166 321.028 29.6338 321.284C29.3569 321.408 29.0849 321.534 28.8191 321.673C28.6957 321.736 28.5773 321.802 28.4555 321.869C28.4023 321.897 27.9451 322.168 28.1997 322.012C27.5578 322.412 26.6685 322.495 26.1474 321.797C25.7243 321.225 25.6424 320.151 26.3325 319.722L26.3399 319.702Z" fill="#65C3E8"/>
</g>
<g filter="url(#filter4_f_17_4744)">
<path fill-rule="evenodd" clip-rule="evenodd" d="M90.6301 22.1529C90.2436 22.1529 89.8676 21.9528 89.6601 21.594C89.5083 21.3321 85.9892 15.133 89.8372 11.285C92.4823 8.63966 89.6883 3.73032 89.6598 3.68084C89.3499 3.14568 89.5327 2.46095 90.0678 2.15105C90.603 1.84093 91.2879 2.02364 91.5978 2.55902C91.7494 2.821 95.2687 9.01987 91.4205 12.8681C88.7754 15.5134 91.5694 20.4227 91.5978 20.4722C91.9077 21.0074 91.725 21.6921 91.1899 22.002C91.0132 22.1044 90.8204 22.1529 90.6301 22.1529ZM79.244 21.594C79.4516 21.9528 79.8275 22.1529 80.214 22.1529C80.4043 22.1529 80.5971 22.1044 80.7738 22.002C81.3089 21.6921 81.4917 21.0074 81.1818 20.4722C81.1533 20.4227 78.3593 15.5134 81.0044 12.8681C84.8526 9.01987 81.3334 2.821 81.1818 2.55902C80.8719 2.02364 80.1869 1.84093 79.6517 2.15105C79.1166 2.46095 78.9339 3.14568 79.2438 3.68084C79.2722 3.73032 82.0662 8.63966 79.4211 11.285C75.5731 15.133 79.0924 21.3321 79.244 21.594ZM70.7658 2.55902C70.9174 2.821 74.4367 9.01987 70.5885 12.8681C67.9433 15.5134 70.7371 20.4227 70.7656 20.4722C71.0755 21.0074 70.8928 21.6921 70.3576 22.002C70.1809 22.1044 69.9881 22.1529 69.7978 22.1529C69.4113 22.1529 69.0354 21.9528 68.8278 21.594C68.6762 21.3321 65.1572 15.1332 69.0052 11.285C71.6503 8.63966 68.8563 3.73032 68.8278 3.68084C68.5179 3.14568 68.7006 2.46095 69.2358 2.15105C69.7712 1.84093 70.4559 2.02364 70.7658 2.55902ZM58.412 21.594C58.6195 21.9528 58.9955 22.1529 59.382 22.1529C59.5723 22.1529 59.7651 22.1044 59.9418 22.002C60.4769 21.6921 60.6596 21.0074 60.3497 20.4722C60.3213 20.4227 57.5273 15.5134 60.1724 12.8681C64.0206 9.01987 60.5013 2.821 60.3497 2.55902C60.0398 2.02364 59.3549 1.84093 58.8197 2.15105C58.2846 2.46095 58.1018 3.14568 58.4117 3.68084C58.4402 3.73032 61.2342 8.63966 58.5891 11.285C54.7411 15.133 58.2604 21.3321 58.412 21.594ZM77.2942 31.1094C74.2075 31.1094 71.6963 33.6206 71.6963 36.7073L71.6963 99.4035C71.6963 102.49 74.2075 105.001 77.2942 105.001C80.3808 105.001 82.892 102.49 82.892 99.4035L82.892 36.7073C82.892 33.6206 80.3808 31.1094 77.2942 31.1094ZM85.1309 36.7073C85.1309 33.6206 87.6421 31.1094 90.7287 31.1094C93.8154 31.1094 96.3266 33.6206 96.3266 36.7073L96.3266 99.4035C96.3266 102.49 93.8154 105.001 90.7287 105.001C87.6421 105.001 85.1309 102.49 85.1309 99.4035L85.1309 36.7073ZM98.5654 36.7073C98.5654 33.6206 101.077 31.1094 104.163 31.1094C107.25 31.1094 109.761 33.6206 109.761 36.7073L109.761 99.4035C109.761 102.49 107.25 105.001 104.163 105.001C101.077 105.001 98.5654 102.49 98.5654 99.4035L98.5654 36.7073ZM9 84.8477L17.9566 84.8477L17.9566 91.5651L9 91.5651L9 84.8477ZM63.8596 31.1094C60.7729 31.1094 58.2617 33.6206 58.2617 36.7073L58.2617 99.4035C58.2617 102.49 60.7729 105.001 63.8596 105.001C66.9463 105.001 69.4575 102.49 69.4575 99.4035L69.4575 36.7073C69.4575 33.6206 66.9463 31.1094 63.8596 31.1094ZM20.1963 92.6853L20.1963 83.7287L20.1963 78.1309L29.1529 78.1309L29.1529 96.0441L20.1963 96.0441L20.1963 92.6853ZM36.9898 31.1094C33.9031 31.1094 31.3919 33.6206 31.3919 36.7073L31.3919 42.3051L19.0766 42.3051C18.4584 42.3051 17.957 42.8063 17.957 43.4247C17.957 44.0432 18.4584 44.5443 19.0766 44.5443L31.3919 44.5443L31.3919 51.2617L19.0766 51.2617C18.4584 51.2617 17.957 51.7629 17.957 52.3813C17.957 52.9998 18.4584 53.5009 19.0766 53.5009L31.3919 53.5009L31.3919 97.1643L31.3919 99.4035C31.3919 102.49 33.9031 105.001 36.9898 105.001C40.0765 105.001 42.5877 102.49 42.5877 99.4035L42.5877 36.7073C42.5877 33.6206 40.0765 31.1094 36.9898 31.1094ZM44.8271 36.7073C44.8271 33.6206 47.3384 31.1094 50.425 31.1094C53.5117 31.1094 56.0229 33.6206 56.0229 36.7073L56.0229 99.4035C56.0229 102.49 53.5117 105.001 50.425 105.001C47.3384 105.001 44.8271 102.49 44.8271 99.4035L44.8271 36.7073Z" fill="url(#paint0_linear_17_4744)"/>
</g>
<g filter="url(#filter5_f_17_4744)">
<path d="M321.716 103.579C322.122 103.548 322.531 103.517 322.938 103.489C323.143 103.475 323.348 103.463 323.553 103.452C323.646 103.446 323.74 103.443 323.833 103.438C323.986 103.43 323.983 103.431 323.819 103.44C323.893 103.438 323.97 103.436 324.045 103.433C324.864 103.407 325.685 103.41 326.5 103.472C326.904 103.503 327.307 103.547 327.705 103.609C327.884 103.638 328.064 103.669 328.245 103.706C328.288 103.715 328.643 103.801 328.342 103.725C328.484 103.76 328.623 103.796 328.765 103.835C329.114 103.933 329.458 104.051 329.795 104.187C329.997 104.27 330.196 104.361 330.395 104.456C330.616 104.56 330.438 104.476 330.395 104.453C330.499 104.509 330.603 104.568 330.703 104.63C330.982 104.804 331.249 104.997 331.499 105.209C331.541 105.243 331.598 105.285 331.636 105.328C331.411 105.07 331.601 105.298 331.652 105.353C331.78 105.482 331.906 105.614 332.024 105.75C332.142 105.887 332.256 106.029 332.365 106.175C332.401 106.224 332.437 106.273 332.471 106.322C332.523 106.398 332.715 106.579 332.487 106.338C332.709 106.575 332.867 106.997 332.993 107.289C333.053 107.424 333.108 107.561 333.158 107.701C333.267 108.004 333.16 107.701 333.16 107.701C333.163 107.7 333.213 107.89 333.22 107.911C333.305 108.232 333.348 108.556 333.385 108.886C333.418 109.186 333.39 108.576 333.383 108.875C333.381 108.944 333.383 109.016 333.381 109.085C333.375 109.238 333.364 109.392 333.344 109.544C333.333 109.626 333.318 109.709 333.305 109.791C333.276 109.987 333.288 109.711 333.326 109.707C333.31 109.71 333.177 110.178 333.158 110.225C333.131 110.291 333.104 110.356 333.076 110.419C333.064 110.446 333.052 110.47 333.04 110.497C332.977 110.622 332.99 110.6 333.075 110.43C333.098 110.479 332.882 110.743 332.842 110.797C332.789 110.87 332.735 110.943 332.678 111.011C332.624 111.079 332.494 111.314 332.664 111.039C332.576 111.181 332.397 111.31 332.273 111.423C331.768 111.879 331.21 112.271 330.674 112.689C329.408 113.675 328.267 114.97 328.202 116.656C328.127 118.54 329.15 120.223 330.559 121.403C331.913 122.536 333.66 123.101 335.273 123.761C335.625 123.905 335.974 124.053 336.313 124.219C336.343 124.233 336.674 124.412 336.425 124.274C336.526 124.328 336.624 124.385 336.724 124.444C336.918 124.561 337.107 124.688 337.286 124.824C337.376 124.894 337.465 124.964 337.548 125.04C337.367 124.876 337.515 125.013 337.547 125.049C337.69 125.216 337.834 125.376 337.965 125.554C337.801 125.332 337.942 125.516 337.979 125.584C338.023 125.659 338.064 125.737 338.103 125.816C338.15 125.91 338.192 126.007 338.232 126.105C338.281 126.229 338.36 126.375 338.263 126.171C338.422 126.507 338.433 126.96 338.465 127.325C338.437 126.996 338.461 127.353 338.463 127.408C338.462 127.499 338.459 127.59 338.456 127.679C338.443 127.916 338.418 128.152 338.383 128.388C338.368 128.478 338.351 128.57 338.334 128.658C338.321 128.727 338.255 128.965 338.325 128.704C338.269 128.915 338.21 129.127 338.138 129.333C338.003 129.724 337.83 130.105 337.645 130.475C337.774 130.223 337.596 130.56 337.581 130.585C337.525 130.686 337.467 130.785 337.408 130.886C337.31 131.053 337.206 131.215 337.103 131.376C336.848 131.766 336.582 132.148 336.308 132.522C335.803 133.213 335.276 133.886 334.784 134.586C334.246 135.343 333.76 136.202 333.762 137.159C333.763 138.039 334.066 138.876 334.671 139.528C335.709 140.64 337.202 141.189 338.601 141.702C338.891 141.811 339.183 141.914 339.47 142.036C339.628 142.105 339.786 142.182 339.943 142.256C340.158 142.361 339.892 142.221 339.876 142.221C339.954 142.224 340.109 142.351 340.177 142.391C340.448 142.55 340.714 142.723 340.968 142.91C341.083 142.994 341.198 143.082 341.31 143.172C341.407 143.249 341.655 143.387 341.707 143.504C341.667 143.467 341.628 143.433 341.588 143.396C341.631 143.435 341.671 143.475 341.714 143.514C341.777 143.575 341.837 143.633 341.898 143.694C341.999 143.795 342.1 143.898 342.196 144.005C342.429 144.259 342.654 144.526 342.86 144.801C342.947 144.915 343.031 145.032 343.115 145.15C343.148 145.196 343.254 145.307 343.261 145.364C343.241 145.186 343.149 145.183 343.242 145.334C343.415 145.621 343.581 145.906 343.734 146.204C343.878 146.488 344.01 146.779 344.131 147.075C344.186 147.208 344.238 147.345 344.289 147.48C344.32 147.563 344.346 147.644 344.377 147.726C344.47 147.983 344.295 147.435 344.389 147.765C344.57 148.393 344.712 149.024 344.791 149.672C344.809 149.815 344.823 149.959 344.835 150.103C344.842 150.19 344.846 150.275 344.853 150.362C344.874 150.667 344.85 150.051 344.852 150.357C344.853 150.674 344.854 150.988 344.832 151.304C344.811 151.619 344.775 151.932 344.723 152.245C344.698 152.387 344.671 152.527 344.643 152.667C344.585 152.965 344.719 152.381 344.641 152.673C344.611 152.783 344.584 152.896 344.551 153.006C344.47 153.283 344.378 153.556 344.271 153.826C344.206 153.989 344.137 154.148 344.066 154.304C344.034 154.373 344.001 154.439 343.969 154.506C343.932 154.581 343.817 154.897 343.934 154.575C343.822 154.879 343.591 155.183 343.421 155.455C343.238 155.747 343.049 156.035 342.853 156.318C341.217 158.686 339.186 160.917 338.631 163.832C338.496 164.549 338.499 165.287 338.586 166.009C338.668 166.687 339.438 167.212 340.1 167.064C340.823 166.903 341.246 166.279 341.158 165.552C341.148 165.463 341.141 165.373 341.13 165.284C341.094 164.973 341.126 165.588 341.129 165.279C341.131 165.132 341.13 164.989 341.137 164.841C341.148 164.668 341.165 164.497 341.19 164.327C341.199 164.256 341.212 164.185 341.224 164.117C341.231 164.074 341.24 164.031 341.249 163.991C341.28 163.853 341.273 163.879 341.23 164.072C341.164 164.012 341.484 163.26 341.518 163.171C341.571 163.034 341.628 162.9 341.684 162.769C341.72 162.688 341.758 162.609 341.794 162.531C341.826 162.462 341.99 162.091 341.838 162.433C342.107 161.819 342.538 161.238 342.919 160.69C343.321 160.108 343.743 159.542 344.162 158.972C345.048 157.766 345.904 156.535 346.53 155.171C347.109 153.915 347.414 152.504 347.451 151.123C347.526 148.216 346.572 145.347 344.801 143.044C343.971 141.963 342.92 140.999 341.748 140.297C340.499 139.547 339.107 139.182 337.796 138.57C337.711 138.53 337.627 138.49 337.542 138.447C337.255 138.31 337.783 138.592 337.511 138.43C337.382 138.354 337.253 138.28 337.127 138.198C336.983 138.102 336.849 137.999 336.714 137.893C336.525 137.745 336.782 137.936 336.777 137.951C336.782 137.934 336.58 137.743 336.558 137.717C336.519 137.668 336.468 137.564 336.417 137.529C336.6 137.654 336.529 137.741 336.463 137.582C336.438 137.523 336.408 137.465 336.382 137.409C336.264 137.165 336.437 137.719 336.397 137.447C336.392 137.42 336.374 137.225 336.359 137.214C336.378 137.23 336.345 137.556 336.363 137.318C336.371 137.223 336.377 137.131 336.388 137.038C336.348 137.188 336.346 137.191 336.389 137.046C336.41 136.976 336.437 136.908 336.463 136.84C336.49 136.771 336.522 136.705 336.555 136.638C336.431 136.903 336.594 136.579 336.618 136.544C336.736 136.352 336.867 136.169 336.997 135.986C337.245 135.639 337.502 135.295 337.76 134.954C338.296 134.238 338.836 133.527 339.316 132.774C340.295 131.237 341.065 129.501 341.079 127.65C341.094 125.616 340.317 123.746 338.621 122.551C337.159 121.522 335.382 121.06 333.777 120.316C333.674 120.268 333.572 120.219 333.471 120.168C333.438 120.152 333.111 119.976 333.365 120.115C333.2 120.023 333.037 119.931 332.878 119.832C332.701 119.723 332.529 119.607 332.363 119.485C332.294 119.434 332.226 119.382 332.159 119.328C332.107 119.285 332.055 119.242 332.003 119.198C332.122 119.31 332.132 119.316 332.026 119.217C331.759 118.944 331.519 118.666 331.298 118.355C331.486 118.62 331.203 118.182 331.169 118.113C331.123 118.025 331.079 117.933 331.038 117.841C331.024 117.808 330.87 117.441 330.949 117.636C331.031 117.834 330.924 117.541 330.92 117.517C330.897 117.422 330.875 117.327 330.86 117.23C330.849 117.168 330.8 116.998 330.826 116.941C330.773 117.066 330.822 117.154 330.83 116.998C330.84 116.82 330.821 116.586 330.89 116.416C330.764 116.72 330.897 116.426 330.92 116.364C330.949 116.279 330.987 116.198 331.019 116.115C331.121 115.834 330.867 116.349 331.024 116.097C331.072 116.023 331.114 115.949 331.164 115.874C331.248 115.751 331.339 115.641 331.429 115.526C331.616 115.289 331.22 115.723 331.443 115.513C331.497 115.461 331.549 115.408 331.6 115.355C331.742 115.219 331.888 115.091 332.039 114.965C333.15 114.043 334.451 113.276 335.206 112C336.83 109.254 335.808 105.721 333.608 103.601C331.046 101.131 327.388 100.716 323.982 100.854C323.082 100.89 322.186 100.952 321.289 101.02C320.605 101.073 320.086 101.89 320.231 102.532C320.399 103.278 321.014 103.646 321.745 103.588L321.716 103.579Z" fill="#00E6FF"/>
</g>
<g filter="url(#filter6_f_17_4744)">
<path d="M369.335 129L369.335 135.455L369.335 129ZM369.335 135.455L369.335 145.498L369.335 135.455ZM369.335 135.455L365.722 131.869L369.335 135.455ZM369.335 135.455L372.945 131.869L369.335 135.455ZM369.335 145.498L369.335 151.953L369.335 145.498ZM369.335 145.498L372.945 149.084L369.335 145.498ZM369.335 145.498L365.722 149.084L369.335 145.498ZM378.002 136.891L374.39 140.477L378.002 136.891ZM374.39 140.477L378.002 144.063L374.39 140.477ZM374.39 140.477L365 140.477L374.39 140.477ZM374.39 140.477L380.891 140.477L374.39 140.477Z" fill="#65C3E8"/>
<path d="M369.335 129L369.335 135.455M369.335 135.455L369.335 145.498M369.335 135.455L365.722 131.869M369.335 135.455L372.945 131.869M369.335 145.498L369.335 151.953M369.335 145.498L372.945 149.084M369.335 145.498L365.722 149.084M378.002 136.891L374.39 140.477M374.39 140.477L378.002 144.063M374.39 140.477L365 140.477M374.39 140.477L380.891 140.477" stroke="#65C3E8" stroke-width="2.43537" stroke-linecap="round" stroke-linejoin="round"/>
</g>
<g filter="url(#filter7_f_17_4744)">
<path d="M381.939 270.183L384.83 283.116L381.939 270.183ZM384.83 283.116L389.327 303.239L384.83 283.116ZM384.83 283.116L375.985 277.549L384.83 283.116ZM384.83 283.116L390.458 274.314L384.83 283.116ZM389.327 303.239L392.218 316.173L389.327 303.239ZM389.327 303.239L398.168 308.807L389.327 303.239ZM389.327 303.239L383.695 312.042L389.327 303.239ZM402.839 282.111L397.207 290.914L402.839 282.111ZM397.207 290.914L406.051 296.481L397.207 290.914ZM397.207 290.914L378.393 295.119L397.207 290.914ZM397.207 290.914L410.233 288.002L397.207 290.914Z" fill="#65C3E8"/>
<path d="M381.939 270.183L384.83 283.116M384.83 283.116L389.327 303.239M384.83 283.116L375.985 277.549M384.83 283.116L390.458 274.314M389.327 303.239L392.218 316.173M389.327 303.239L398.168 308.807M389.327 303.239L383.695 312.042M402.839 282.111L397.207 290.914M397.207 290.914L406.051 296.481M397.207 290.914L378.393 295.119M397.207 290.914L410.233 288.002" stroke="#65C3E8" stroke-width="5" stroke-linecap="round" stroke-linejoin="round"/>
</g>
<defs>
<filter id="filter0_f_17_4744" x="61.3341" y="177.432" width="51.7509" height="87.1731" filterUnits="userSpaceOnUse" color-interpolation-filters="sRGB">
<feFlood flood-opacity="0" result="BackgroundImageFix"/>
<feBlend mode="normal" in="SourceGraphic" in2="BackgroundImageFix" result="shape"/>
<feGaussianBlur stdDeviation="2" result="effect1_foregroundBlur_17_4744"/>
</filter>
<filter id="filter1_f_17_4744" x="79.1172" y="191.307" width="40.1921" height="53.6328" filterUnits="userSpaceOnUse" color-interpolation-filters="sRGB">
<feFlood flood-opacity="0" result="BackgroundImageFix"/>
<feBlend mode="normal" in="SourceGraphic" in2="BackgroundImageFix" result="shape"/>
<feGaussianBlur stdDeviation="2" result="effect1_foregroundBlur_17_4744"/>
</filter>
<filter id="filter2_f_17_4744" x="53.5979" y="345.166" width="44.8481" height="91.7449" filterUnits="userSpaceOnUse" color-interpolation-filters="sRGB">
<feFlood flood-opacity="0" result="BackgroundImageFix"/>
<feBlend mode="normal" in="SourceGraphic" in2="BackgroundImageFix" result="shape"/>
<feGaussianBlur stdDeviation="2" result="effect1_foregroundBlur_17_4744"/>
</filter>
<filter id="filter3_f_17_4744" x="21.8217" y="313.084" width="35.189" height="95.3254" filterUnits="userSpaceOnUse" color-interpolation-filters="sRGB">
<feFlood flood-opacity="0" result="BackgroundImageFix"/>
<feBlend mode="normal" in="SourceGraphic" in2="BackgroundImageFix" result="shape"/>
<feGaussianBlur stdDeviation="2" result="effect1_foregroundBlur_17_4744"/>
</filter>
<filter id="filter4_f_17_4744" x="7" y="0" width="104.761" height="107.001" filterUnits="userSpaceOnUse" color-interpolation-filters="sRGB">
<feFlood flood-opacity="0" result="BackgroundImageFix"/>
<feBlend mode="normal" in="SourceGraphic" in2="BackgroundImageFix" result="shape"/>
<feGaussianBlur stdDeviation="1" result="effect1_foregroundBlur_17_4744"/>
</filter>
<filter id="filter5_f_17_4744" x="316.206" y="96.8303" width="35.2488" height="74.259" filterUnits="userSpaceOnUse" color-interpolation-filters="sRGB">
<feFlood flood-opacity="0" result="BackgroundImageFix"/>
<feBlend mode="normal" in="SourceGraphic" in2="BackgroundImageFix" result="shape"/>
<feGaussianBlur stdDeviation="2" result="effect1_foregroundBlur_17_4744"/>
</filter>
<filter id="filter6_f_17_4744" x="361.834" y="125.834" width="22.2228" height="29.2855" filterUnits="userSpaceOnUse" color-interpolation-filters="sRGB">
<feFlood flood-opacity="0" result="BackgroundImageFix"/>
<feBlend mode="normal" in="SourceGraphic" in2="BackgroundImageFix" result="shape"/>
<feGaussianBlur stdDeviation="0.974149" result="effect1_foregroundBlur_17_4744"/>
</filter>
<filter id="filter7_f_17_4744" x="369.485" y="263.682" width="47.2482" height="58.9912" filterUnits="userSpaceOnUse" color-interpolation-filters="sRGB">
<feFlood flood-opacity="0" result="BackgroundImageFix"/>
<feBlend mode="normal" in="SourceGraphic" in2="BackgroundImageFix" result="shape"/>
<feGaussianBlur stdDeviation="2" result="effect1_foregroundBlur_17_4744"/>
</filter>
<linearGradient id="paint0_linear_17_4744" x1="59" y1="9" x2="92.5" y2="105" gradientUnits="userSpaceOnUse">
<stop stop-color="#00ACDB"/>
<stop offset="1" stop-color="#00ACDB" stop-opacity="0.3"/>
</linearGradient>
</defs>
</svg>
