<svg width="392" height="263" viewBox="0 0 392 263" fill="none" xmlns="http://www.w3.org/2000/svg">
<g filter="url(#filter0_f_17_4385)">
<path d="M148.032 58.9851C143.199 43.7752 126.954 35.3649 111.744 40.1982L70.1415 53.4183C54.9316 58.2516 46.5213 74.4966 51.3546 89.7065L52.1359 92.1652C56.203 104.964 69.8779 112.044 82.6802 107.978C89.4455 105.829 94.937 100.829 97.7055 94.2921L102.467 83.0643L112.836 89.4839C118.872 93.2203 126.241 94.1365 133.006 91.9863C145.805 87.9192 152.885 74.2443 148.819 61.442L148.038 58.9833L148.032 58.9851ZM88.3424 70.3768L88.3227 70.415C87.5051 71.9007 86.5633 73.1506 85.5799 74.2515L88.0581 76.423C88.6328 76.9273 88.7681 77.7451 88.4305 78.3972C88.3712 78.5117 88.2963 78.6225 88.2092 78.7226C87.6162 79.4008 86.5826 79.4684 85.9096 78.8736L83.226 76.521C81.213 78.1664 79.2295 79.1937 77.7148 79.817L78.8775 83.4761C79.0147 83.9078 78.9631 84.3473 78.7709 84.7184C78.5788 85.0896 78.2444 85.3872 77.8179 85.5226C76.9598 85.7953 76.0439 85.3212 75.7713 84.463L74.6018 80.7829C72.295 81.3217 70.1339 81.4433 68.2107 81.2922L67.3756 84.7659C67.3441 84.8948 67.297 85.0199 67.2377 85.1344C66.9001 85.7865 66.1542 86.1481 65.4107 85.97C64.5349 85.7585 63.9952 84.8808 64.2066 84.005L64.975 80.7959C62.9933 80.333 61.4404 79.6962 60.5189 79.2499C59.7121 78.8542 59.373 77.878 59.7686 77.0712C60.208 76.265 61.1405 75.9252 61.9508 76.3227C63.8821 77.2654 69.0413 79.2458 75.2013 77.2884C77.2528 76.6394 82.3546 74.5081 85.4656 68.8474C85.8995 68.0604 86.8889 67.772 87.6812 68.2043C88.4579 68.6328 88.7482 69.6012 88.3442 70.3817L88.3424 70.3768ZM134.526 55.7009L134.508 55.7356C134.013 56.6319 133.113 58.0484 131.764 59.5669L134.247 61.7455C134.822 62.2498 134.955 63.071 134.619 63.7197C134.56 63.8342 134.485 63.9449 134.396 64.0485C133.803 64.7268 132.772 64.7908 132.097 64.1996L129.41 61.8451C127.925 63.082 126.092 64.2268 123.897 65.1185L125.066 68.7986C125.204 69.2303 125.152 69.6699 124.96 70.041C124.768 70.4122 124.433 70.7097 124.007 70.8452C123.149 71.1179 122.233 70.6438 121.96 69.7856L120.797 66.1266C119.201 66.492 116.988 66.7981 114.4 66.6149L113.566 70.0851C113.533 70.2174 113.488 70.3391 113.427 70.457C113.089 71.1092 112.343 71.4708 111.6 71.2926C110.724 71.0811 110.186 70.2 110.396 69.3276L111.166 66.1238C109.727 65.7926 108.237 65.3156 106.711 64.5743C105.905 64.1786 105.565 63.2025 105.958 62.3938L105.976 62.3592C106.381 61.5752 107.338 61.2567 108.136 61.6435C113.944 64.4699 119.338 63.2599 121.39 62.611C127.545 60.6553 130.62 56.0587 131.655 54.1701C132.088 53.383 133.078 53.0947 133.87 53.5269C134.647 53.9554 134.939 54.9204 134.533 55.7044L134.526 55.7009ZM156.095 47.3281L160.741 61.949C161.177 63.3756 160.398 64.8811 158.983 65.3451L153.181 67.1888C153.037 64.9103 152.632 62.6683 151.913 60.4621L151.132 58.0034C149.931 54.2232 148.113 50.7839 145.723 47.7872L152.699 45.5704C154.126 45.1345 155.631 45.9134 156.095 47.3281ZM51.8893 99.3793L46.0875 101.223C44.6609 101.659 43.1554 100.879 42.6914 99.4648L38.0417 84.842C37.6058 83.4155 38.3852 81.9099 39.7999 81.4459L46.7759 79.2292C46.5578 83.0575 47.0556 86.9133 48.2568 90.6935L49.0381 93.1522C49.725 95.3684 50.6882 97.4331 51.8856 99.377L51.8893 99.3793Z" fill="url(#paint0_linear_17_4385)"/>
</g>
<g filter="url(#filter1_f_17_4385)">
<path d="M264.345 40.5737L270 36.4971L262.869 36.308L260.5 30.0039L258.131 36.308L251 36.4971L256.655 40.5737L254.621 47.0039L260.5 43.2004L266.379 47.0039L264.345 40.5737Z" fill="#65C3E8"/>
</g>
<g opacity="0.4" filter="url(#filter2_f_17_4385)">
<path d="M353.229 13.3251L358 9.74004L352.007 9.59664L350 4.00391L347.993 9.59664L342 9.74004L346.771 13.3251L345.055 19.0039L350 15.6483L354.945 19.0039L353.229 13.3251Z" fill="#65C3E8"/>
</g>
<g filter="url(#filter3_f_17_4385)">
<path d="M348.714 50.4948C346.598 51.5138 344.709 52.9486 343.16 54.7136C341.61 56.4785 340.432 58.5375 339.696 60.7676C338.96 62.9978 338.68 65.3534 338.874 67.6939C339.068 70.0345 339.731 72.3121 340.824 74.3908C341.917 76.4695 343.418 78.3068 345.236 79.793C347.055 81.2792 349.154 82.3839 351.409 83.0411C353.664 83.6984 356.028 83.8948 358.361 83.6187C360.693 83.3425 362.946 82.5994 364.985 81.4337C360.654 92.8708 348.107 99.0957 336.271 95.4177C323.97 91.5952 317.098 78.5279 320.92 66.2294C324.598 54.3941 336.837 47.5855 348.714 50.4948Z" fill="#65C3E8"/>
</g>
<g filter="url(#filter4_f_17_4385)">
<path d="M28.5186 245.147C34.936 245.147 40.1383 239.945 40.1383 233.528C40.1383 227.11 34.936 221.908 28.5186 221.908C22.1012 221.908 16.8989 227.11 16.8989 233.528C16.8989 239.945 22.1012 245.147 28.5186 245.147Z" fill="#65C3E8"/>
<path d="M27.3843 248.599L27.3843 256.917C27.3843 257.542 27.8934 258.051 28.5192 258.051C29.1451 258.051 29.6494 257.542 29.6494 256.917L29.6494 248.599C29.6494 247.973 29.1404 247.464 28.5192 247.464C27.8934 247.464 27.3843 247.973 27.3843 248.599Z" fill="#65C3E8"/>
<path d="M28.5192 219.592C29.1451 219.592 29.6494 219.082 29.6494 218.457L29.6494 210.139C29.6494 209.513 29.1404 209.004 28.5192 209.004C27.8934 209.004 27.3843 209.513 27.3843 210.139L27.3843 218.457C27.3843 219.082 27.8934 219.592 28.5192 219.592Z" fill="#65C3E8"/>
<path d="M45.056 251.195C45.3456 251.195 45.6351 251.083 45.8546 250.864C46.2983 250.42 46.2983 249.705 45.8546 249.262L39.9746 243.382C39.5309 242.938 38.8165 242.938 38.3728 243.382C37.9291 243.826 37.9291 244.54 38.3728 244.984L44.2526 250.864C44.4768 251.088 44.7665 251.195 45.056 251.195Z" fill="#65C3E8"/>
<path d="M17.0621 223.674C17.2816 223.893 17.5712 224.006 17.8607 224.006C18.1503 224.006 18.4398 223.893 18.6593 223.674C19.103 223.23 19.103 222.516 18.6593 222.072L12.7793 216.192C12.3356 215.748 11.6212 215.748 11.1775 216.192C10.7338 216.636 10.7338 217.35 11.1775 217.794L17.0621 223.674Z" fill="#65C3E8"/>
<path d="M42.4541 233.527C42.4541 234.153 42.9632 234.662 43.5891 234.662L51.9069 234.662C52.5327 234.662 53.0416 234.153 53.0416 233.527C53.0416 232.901 52.5327 232.392 51.9069 232.392L43.5891 232.392C42.9632 232.392 42.4541 232.901 42.4541 233.527Z" fill="#65C3E8"/>
<path d="M5.13018 234.662L13.448 234.662C14.0738 234.662 14.583 234.153 14.583 233.527C14.583 232.901 14.0738 232.392 13.448 232.392L5.13018 232.392C4.50436 232.392 4 232.901 4 233.527C4 234.153 4.50903 234.662 5.13018 234.662Z" fill="#65C3E8"/>
<path d="M39.176 224.006C39.4655 224.006 39.7551 223.893 39.9746 223.674L45.8546 217.794C46.2983 217.35 46.2983 216.636 45.8546 216.192C45.411 215.748 44.6963 215.748 44.2526 216.192L38.3728 222.072C37.9291 222.516 37.9291 223.23 38.3728 223.674C38.597 223.893 38.8864 224.006 39.176 224.006Z" fill="#65C3E8"/>
<path d="M17.0634 243.382L11.1833 249.262C10.7397 249.706 10.7397 250.42 11.1833 250.864C11.4028 251.084 11.6924 251.196 11.9819 251.196C12.2715 251.196 12.561 251.084 12.7806 250.864L18.6606 244.984C19.1043 244.54 19.1043 243.826 18.6606 243.382C18.2216 242.943 17.5024 242.943 17.0634 243.382Z" fill="#65C3E8"/>
</g>
<g opacity="0.7" filter="url(#filter5_f_17_4385)">
<path d="M320.51 213.421C328.072 217.396 334.926 220.496 343.021 223.23C346.056 224.255 348.492 224.943 349.873 225.54C351.774 226.351 353.918 229.243 355.664 230.741C356.97 231.87 358.376 232.893 359.637 233.541C364.909 236.233 367.53 232.391 368.224 227.515C368.921 222.628 369.584 221.189 372.213 216.963C375.808 211.173 377.829 207.014 379.71 200.397C381.492 194.158 381.685 192.601 385.575 187.273C389.029 182.536 390.433 178.216 383.433 176.156C379.582 175.015 375.981 175.733 372.091 174.05C369.902 173.095 367.18 171.359 364.306 169.86C358.795 166.966 351.081 163.605 345.24 161.498C341.909 160.303 338.625 159.442 336.351 158.455C332.383 156.733 330.509 153.634 327.013 151.551C320.623 147.768 318.478 152.006 317.408 157.558C316.156 164.034 315.147 165.232 311.783 170.784C308.222 176.665 306.55 180.981 304.756 187.561C303.444 192.354 302.842 193.823 299.74 197.658C296.752 201.35 295.438 205.951 301.175 208.053C302.508 208.535 304.211 208.872 305.92 209.063C308.216 209.317 311.793 208.925 313.679 209.76C315.06 210.374 317.212 211.683 320.513 213.426L320.51 213.421ZM370.925 185.855C371.147 184.432 376.107 184.405 375.732 186.817C375.724 186.872 375.708 186.928 375.693 186.981C375.208 189.588 374.7 192.194 373.033 194.643C372.453 195.493 371.731 196.314 370.979 197.156C369.835 198.458 368.632 199.812 368.026 201.407C367.56 202.626 367.39 204.133 367.205 205.661C367.003 207.492 366.778 209.362 366.085 211.146C364.73 214.598 361.78 217.16 358.838 219.724C357.29 221.109 354.231 217.659 355.011 216.954L355.033 216.935C357.702 214.614 360.376 212.295 361.454 209.544C362.014 208.139 362.208 206.464 362.393 204.819C362.598 203.078 362.795 201.379 363.389 199.826C364.179 197.74 365.578 196.157 366.921 194.64C367.579 193.902 368.211 193.184 368.732 192.427C370.041 190.489 370.492 188.213 370.915 185.933L370.93 185.852L370.925 185.855Z" fill="#65C3E8"/>
</g>
<defs>
<filter id="filter0_f_17_4385" x="35.9209" y="36.8333" width="126.941" height="74.2927" filterUnits="userSpaceOnUse" color-interpolation-filters="sRGB">
<feFlood flood-opacity="0" result="BackgroundImageFix"/>
<feBlend mode="normal" in="SourceGraphic" in2="BackgroundImageFix" result="shape"/>
<feGaussianBlur stdDeviation="1" result="effect1_foregroundBlur_17_4385"/>
</filter>
<filter id="filter1_f_17_4385" x="247" y="26.0039" width="27" height="25" filterUnits="userSpaceOnUse" color-interpolation-filters="sRGB">
<feFlood flood-opacity="0" result="BackgroundImageFix"/>
<feBlend mode="normal" in="SourceGraphic" in2="BackgroundImageFix" result="shape"/>
<feGaussianBlur stdDeviation="2" result="effect1_foregroundBlur_17_4385"/>
</filter>
<filter id="filter2_f_17_4385" x="338" y="0.00390625" width="24" height="23" filterUnits="userSpaceOnUse" color-interpolation-filters="sRGB">
<feFlood flood-opacity="0" result="BackgroundImageFix"/>
<feBlend mode="normal" in="SourceGraphic" in2="BackgroundImageFix" result="shape"/>
<feGaussianBlur stdDeviation="2" result="effect1_foregroundBlur_17_4385"/>
</filter>
<filter id="filter3_f_17_4385" x="314.863" y="44.825" width="55.1216" height="56.6494" filterUnits="userSpaceOnUse" color-interpolation-filters="sRGB">
<feFlood flood-opacity="0" result="BackgroundImageFix"/>
<feBlend mode="normal" in="SourceGraphic" in2="BackgroundImageFix" result="shape"/>
<feGaussianBlur stdDeviation="2.5" result="effect1_foregroundBlur_17_4385"/>
</filter>
<filter id="filter4_f_17_4385" x="0" y="205.004" width="57.0415" height="57.0476" filterUnits="userSpaceOnUse" color-interpolation-filters="sRGB">
<feFlood flood-opacity="0" result="BackgroundImageFix"/>
<feBlend mode="normal" in="SourceGraphic" in2="BackgroundImageFix" result="shape"/>
<feGaussianBlur stdDeviation="2" result="effect1_foregroundBlur_17_4385"/>
</filter>
<filter id="filter5_f_17_4385" x="295.185" y="148.108" width="95.2441" height="88.3203" filterUnits="userSpaceOnUse" color-interpolation-filters="sRGB">
<feFlood flood-opacity="0" result="BackgroundImageFix"/>
<feBlend mode="normal" in="SourceGraphic" in2="BackgroundImageFix" result="shape"/>
<feGaussianBlur stdDeviation="1" result="effect1_foregroundBlur_17_4385"/>
</filter>
<linearGradient id="paint0_linear_17_4385" x1="82.4995" y1="43.5" x2="119.5" y2="103" gradientUnits="userSpaceOnUse">
<stop stop-color="#65C3E8"/>
<stop offset="1" stop-color="#65C3E8" stop-opacity="0.2"/>
</linearGradient>
</defs>
</svg>
