<svg width="500" height="500" viewBox="0 0 500 500" fill="none" xmlns="http://www.w3.org/2000/svg">
<g filter="url(#filter0_f_479_1041)">
<path d="M126.055 317.517C125.376 317.533 124.96 317.415 124.387 317.037C124.382 317.034 124.102 316.828 124.261 316.955C124.205 316.91 124.149 316.862 124.095 316.812C123.956 316.688 123.828 316.557 123.704 316.417C123.517 316.203 123.32 315.907 123.139 315.567C122.383 314.139 122.306 312.464 122.503 310.844C122.704 309.188 123.251 307.511 124.068 306.051C125.017 304.353 126.459 303.03 127.562 301.44C128.685 299.821 129.247 297.949 129.377 295.992C129.492 294.252 129.251 292.519 129.028 290.798C128.806 289.086 128.71 287.32 129.04 285.616C129.203 284.761 129.44 283.969 129.858 283.235C130.061 282.878 130.249 282.611 130.503 282.34C130.603 282.231 130.709 282.129 130.819 282.033C130.878 281.979 130.938 281.929 130.998 281.879C130.827 282.018 131.056 281.84 131.077 281.824C131.32 281.66 131.576 281.526 131.843 281.407C131.635 281.5 131.965 281.364 132.031 281.343C132.175 281.294 132.325 281.252 132.472 281.215C132.741 281.147 133.014 281.098 133.291 281.054C133.346 281.045 133.4 281.038 133.456 281.03C133.233 281.061 133.425 281.034 133.479 281.027C133.63 281.011 133.782 280.992 133.932 280.978C135.128 280.853 136.322 280.751 137.43 280.24C138.762 279.626 139.642 278.396 140.152 277.059C140.705 275.606 140.632 274.055 140.407 272.545C140.188 271.068 139.85 269.797 139.844 268.36C139.839 266.817 140.318 265.409 141.281 264.111C141.418 263.927 141.718 263.576 141.958 263.319C142.235 263.024 142.522 262.739 142.818 262.464C143.423 261.901 144.055 261.368 144.68 260.829C146.007 259.678 147.284 258.461 148.239 256.976C150.401 253.61 150.319 249.358 152.333 245.94C153.126 244.592 154.318 243.463 155.688 242.902C156.284 242.66 156.91 242.528 157.502 242.519C158.393 242.506 159.258 242.723 160.084 243.043C160.929 243.371 161.728 243.822 162.522 244.253C163.701 244.895 164.747 243.093 163.564 242.448C161.76 241.463 159.88 240.501 157.784 240.436C156.132 240.386 154.487 240.982 153.166 241.958C151.517 243.177 150.413 244.839 149.651 246.726C148.883 248.629 148.489 250.651 147.887 252.608C147.335 254.41 146.534 256.043 145.283 257.394C144.103 258.67 142.714 259.722 141.441 260.898C140.137 262.102 139.01 263.466 138.35 265.127C137.703 266.76 137.674 268.488 137.911 270.205C138.018 270.973 138.167 271.733 138.299 272.496C138.361 272.861 138.398 273.092 138.427 273.357C138.47 273.73 138.498 274.1 138.499 274.474C138.5 274.651 138.496 274.827 138.484 275.005C138.477 275.111 138.47 275.216 138.458 275.323C138.464 275.276 138.484 275.165 138.448 275.373C138.382 275.771 138.281 276.164 138.132 276.536C138.185 276.407 138.108 276.582 138.104 276.596C138.056 276.7 138.005 276.805 137.95 276.905C137.868 277.059 137.78 277.212 137.684 277.357C137.649 277.412 137.609 277.464 137.57 277.52C137.397 277.772 137.713 277.383 137.507 277.597C137.396 277.714 137.287 277.837 137.167 277.946C137.115 277.994 137.061 278.039 137.006 278.085C136.802 278.259 137.126 278.007 136.989 278.097C136.875 278.17 136.764 278.243 136.644 278.309C136.538 278.367 136.432 278.416 136.324 278.466C136.559 278.358 136.324 278.466 136.278 278.481C136.203 278.506 136.128 278.532 136.053 278.555C135.798 278.63 135.539 278.688 135.279 278.735C135.146 278.759 135.015 278.78 134.882 278.798C135.11 278.767 134.922 278.793 134.864 278.797C134.769 278.808 134.675 278.819 134.578 278.829C133.314 278.966 132.067 279.064 130.888 279.566C127.441 281.031 126.645 285.329 126.754 288.673C126.867 292.179 128.137 295.903 126.46 299.223C125.532 301.059 123.951 302.433 122.809 304.123C121.766 305.663 121.049 307.467 120.663 309.283C120.277 311.102 120.177 313.039 120.651 314.853C121.091 316.546 122.108 318.237 123.71 319.058C124.443 319.434 125.247 319.625 126.069 319.604C127.409 319.575 127.403 317.489 126.056 317.52L126.055 317.517Z" fill="#65C3E8"/>
</g>
<g filter="url(#filter1_f_479_1041)">
<path d="M141.928 297.322C141.871 297.323 141.814 297.319 141.757 297.324C141.525 297.334 141.828 297.311 141.846 297.344C141.836 297.329 141.537 297.265 141.498 297.256C141.336 297.221 141.747 297.39 141.605 297.299C141.561 297.273 141.513 297.252 141.468 297.226C141.428 297.203 141.347 297.125 141.305 297.122C141.38 297.128 141.546 297.336 141.371 297.166C141.295 297.091 141.221 297.017 141.15 296.939C141.11 296.894 140.983 296.792 141.128 296.917C141.278 297.044 141.125 296.906 141.092 296.849C141.033 296.755 140.979 296.658 140.932 296.559C140.923 296.538 140.856 296.414 140.863 296.406C140.841 296.44 140.965 296.688 140.87 296.395C140.834 296.283 140.804 296.171 140.778 296.059C140.764 296.001 140.755 295.946 140.742 295.888C140.708 295.739 140.678 295.851 140.749 295.957C140.644 295.79 140.726 295.355 140.733 295.161C140.74 294.98 140.691 295.175 140.721 295.233C140.711 295.211 140.742 295.091 140.749 295.058C140.772 294.942 140.799 294.829 140.833 294.717C140.85 294.661 140.869 294.606 140.888 294.551C140.963 294.306 140.867 294.636 140.851 294.63C140.847 294.628 141.035 294.279 141.054 294.246C141.083 294.196 141.119 294.151 141.151 294.101C141.296 293.887 141.148 294.09 141.131 294.124C141.192 294.002 141.351 293.868 141.447 293.773C141.545 293.673 141.647 293.578 141.75 293.487C141.802 293.441 141.858 293.398 141.909 293.353C141.985 293.293 141.963 293.309 141.846 293.398C141.889 293.366 141.931 293.337 141.974 293.306C142.47 292.958 143.01 292.693 143.562 292.45C143.759 292.363 143.275 292.554 143.605 292.434C143.674 292.408 143.742 292.381 143.81 292.358C143.945 292.307 144.084 292.258 144.22 292.212C144.53 292.105 144.844 292.007 145.159 291.913C145.756 291.734 146.356 291.572 146.948 291.384C149.504 290.566 152.16 289.147 152.892 286.355C153.335 284.656 152.942 282.871 152.346 281.263C152.024 280.394 151.648 279.543 151.281 278.691C151.199 278.503 151.12 278.313 151.038 278.122C151 278.03 150.881 277.72 151.026 278.099C150.983 277.989 150.937 277.878 150.894 277.768C150.749 277.403 150.613 277.035 150.494 276.659C150.38 276.305 150.283 275.945 150.214 275.582C150.195 275.489 150.183 275.395 150.167 275.304C150.138 275.152 150.198 275.604 150.186 275.45C150.183 275.411 150.176 275.369 150.173 275.326C150.154 275.146 150.145 274.965 150.148 274.785C150.149 274.697 150.153 274.609 150.161 274.519C150.17 274.371 150.258 274.203 150.151 274.564C150.199 274.397 150.215 274.218 150.264 274.052C150.285 273.977 150.315 273.903 150.339 273.829C150.399 273.638 150.179 274.15 150.323 273.879C150.408 273.715 150.499 273.557 150.6 273.399C150.773 273.126 150.432 273.575 150.579 273.418C150.647 273.345 150.709 273.264 150.779 273.192C150.866 273.101 150.957 273.019 151.049 272.937C151.101 272.889 151.236 272.835 151.073 272.91C150.888 272.998 151.089 272.9 151.134 272.87C151.325 272.742 151.524 272.631 151.732 272.531C151.78 272.509 151.832 272.489 151.881 272.464C152.044 272.382 151.572 272.574 151.838 272.483C151.955 272.444 152.073 272.398 152.19 272.363C153.142 272.065 154.136 271.949 155.114 271.773C156.168 271.585 157.226 271.32 158.166 270.79C159.408 270.092 160.357 268.943 160.953 267.666C161.556 266.37 161.897 265.002 162.147 263.599C162.278 262.866 162.402 262.128 162.562 261.399C162.636 261.069 162.717 260.739 162.81 260.413C162.856 260.252 162.907 260.093 162.959 259.932C162.986 259.853 163.012 259.774 163.043 259.694C163.05 259.676 163.2 259.302 163.092 259.554C163.221 259.249 163.368 258.951 163.537 258.669C163.631 258.506 163.744 258.359 163.842 258.201C163.951 258.023 163.718 258.34 163.854 258.18C163.914 258.108 163.972 258.035 164.033 257.967C164.126 257.867 164.222 257.771 164.324 257.68C164.369 257.64 164.419 257.603 164.462 257.562C164.595 257.441 164.261 257.697 164.41 257.598C164.643 257.444 164.872 257.297 165.126 257.18C165.419 257.042 164.94 257.239 165.245 257.13C165.376 257.083 165.509 257.043 165.643 257.008C165.762 256.976 165.881 256.954 166 256.928C166.1 256.907 166.151 256.846 165.937 256.933C166.011 256.903 166.13 256.915 166.206 256.909C166.323 256.901 166.442 256.901 166.561 256.904C166.619 256.906 166.678 256.912 166.737 256.914C166.94 256.922 166.663 256.9 166.659 256.901C166.685 256.872 166.959 256.958 166.998 256.968C167.053 256.981 167.107 256.996 167.162 257.016C167.201 257.029 167.242 257.04 167.283 257.057C167.379 257.091 167.337 257.072 167.154 257.002C167.184 257.06 167.389 257.118 167.452 257.155C167.502 257.184 167.546 257.215 167.592 257.245C167.799 257.371 167.512 257.205 167.515 257.182C167.512 257.205 167.769 257.429 167.788 257.449C167.85 257.516 167.862 257.627 167.822 257.484C167.775 257.31 167.832 257.515 167.867 257.57C168.225 258.153 169.039 258.441 169.649 258.059C170.231 257.692 170.516 256.9 170.136 256.279C168.668 253.889 165.297 253.806 163.15 255.305C160.427 257.209 160.077 260.652 159.482 263.649C159.345 264.332 159.18 265.011 158.957 265.67C158.899 265.834 158.84 265.997 158.778 266.159C158.876 265.902 158.726 266.277 158.685 266.363C158.533 266.686 158.363 267.002 158.167 267.3C158.13 267.357 157.815 267.762 158.02 267.516C157.924 267.627 157.83 267.742 157.727 267.849C157.612 267.967 157.492 268.083 157.366 268.192C157.336 268.216 157.156 268.366 157.283 268.264C157.409 268.167 157.13 268.367 157.096 268.388C156.887 268.521 156.671 268.629 156.449 268.736C156.23 268.842 156.518 268.713 156.523 268.71C156.497 268.745 156.369 268.771 156.325 268.787C156.191 268.835 156.055 268.879 155.917 268.921C153.904 269.525 151.596 269.391 149.801 270.629C148.855 271.282 148.171 272.151 147.787 273.231C147.485 274.086 147.5 275.007 147.629 275.89C147.88 277.622 148.692 279.236 149.372 280.83C149.41 280.921 149.448 281.008 149.486 281.099C149.505 281.144 149.525 281.191 149.543 281.236C149.643 281.475 149.447 280.998 149.513 281.162C149.601 281.375 149.684 281.59 149.768 281.804C149.92 282.206 150.06 282.61 150.179 283.02C150.209 283.125 150.511 284.197 150.445 284.224C150.438 284.226 150.408 283.88 150.427 284.092C150.431 284.135 150.437 284.179 150.441 284.225C150.45 284.325 150.459 284.424 150.463 284.52C150.473 284.726 150.473 284.934 150.46 285.14C150.455 285.209 150.413 285.335 150.437 285.399C150.377 285.246 150.483 285.1 150.447 285.289C150.438 285.331 150.432 285.374 150.423 285.416C150.384 285.62 150.331 285.821 150.266 286.016C150.251 286.057 150.234 286.098 150.222 286.141C150.16 286.331 150.263 286.048 150.263 286.042C150.257 286.161 150.1 286.374 150.04 286.478C149.969 286.6 149.882 286.785 149.774 286.879C149.801 286.854 149.963 286.66 149.789 286.854C149.717 286.934 149.646 287.013 149.571 287.089C149.471 287.191 149.367 287.291 149.26 287.383C149.192 287.441 149.119 287.496 149.054 287.555C148.909 287.682 149.226 287.442 149.064 287.549C148.767 287.741 148.481 287.933 148.169 288.098C147.884 288.248 147.594 288.381 147.301 288.507C147.1 288.595 147.584 288.404 147.241 288.529C147.17 288.554 147.1 288.583 147.028 288.61C146.851 288.677 146.672 288.737 146.492 288.799C143.948 289.646 141.007 290.141 139.234 292.358C138.389 293.414 137.986 294.711 138.153 296.066C138.319 297.407 138.911 298.673 140.073 299.432C140.621 299.789 141.302 299.953 141.951 299.939C142.635 299.925 143.284 299.34 143.249 298.627C143.213 297.932 142.666 297.312 141.934 297.328L141.928 297.322Z" fill="#65C3E8"/>
</g>
<g filter="url(#filter2_f_479_1041)">
<path d="M128.932 408.285C126.032 407.944 123.046 408.345 120.313 409.365C117.716 410.334 115.233 411.87 113.713 414.2C112.221 416.487 112.2 419.493 113.809 421.718C115.461 424.012 118.171 424.857 120.784 425.648C121.371 425.825 121.953 426.005 122.537 426.194C122.753 426.262 122.323 426.113 122.537 426.194C122.596 426.216 122.655 426.235 122.714 426.257C122.853 426.305 122.987 426.357 123.122 426.408C123.403 426.514 123.68 426.628 123.951 426.754C124.19 426.867 124.425 426.983 124.65 427.116C124.782 427.194 124.892 427.285 124.693 427.136C124.803 427.219 124.916 427.295 125.022 427.382C125.112 427.456 125.194 427.533 125.28 427.615C125.539 427.851 125.189 427.454 125.318 427.654C125.378 427.744 125.445 427.834 125.509 427.924C125.522 427.942 125.585 428.021 125.583 428.044C125.489 427.858 125.467 427.814 125.513 427.917C125.526 427.95 125.544 427.983 125.554 428.016C125.589 428.135 125.664 428.451 125.621 428.151C125.641 428.282 125.624 428.435 125.652 428.561C125.684 428.706 125.659 428.504 125.665 428.466C125.657 428.527 125.653 428.584 125.642 428.645C125.61 428.806 125.57 428.963 125.527 429.125C125.622 428.926 125.468 429.337 125.527 429.125C125.5 429.183 125.477 429.245 125.45 429.308C125.387 429.452 125.315 429.593 125.243 429.733C125.168 429.878 125.085 430.02 124.998 430.161C124.959 430.224 124.921 430.284 124.883 430.347C124.844 430.406 124.7 430.623 124.809 430.465C123.993 431.656 122.999 432.716 122.174 433.9C120.857 435.79 120.068 437.928 120.101 440.231C120.133 442.289 120.892 444.321 122.076 446.004C124.894 450.005 129.86 452.193 134.682 452.725C135.444 452.81 136.21 452.858 136.976 452.879C136.571 452.071 136.163 451.266 135.759 450.458C130.706 455.826 124.181 464.193 129.241 471.538C130.299 473.074 131.78 474.302 133.439 475.179C135.237 476.126 137.228 476.531 139.188 477.017C139.667 477.137 140.146 477.264 140.615 477.414C140.898 477.505 140.714 477.449 140.654 477.427C140.765 477.465 140.872 477.507 140.982 477.549C141.212 477.639 141.438 477.738 141.658 477.852C141.754 477.902 141.85 477.952 141.942 478.007C142.01 478.044 142.237 478.21 141.998 478.037C142.181 478.169 142.352 478.308 142.513 478.464C142.471 478.422 142.372 478.269 142.546 478.503C142.614 478.593 142.681 478.683 142.742 478.782C142.785 478.847 142.898 479.104 142.789 478.85C142.839 478.968 142.889 479.089 142.928 479.211C142.953 479.293 142.978 479.378 142.995 479.46C142.911 479.122 142.996 479.536 143.003 479.588C143.024 479.787 143.03 479.987 143.027 480.184C143.024 480.256 142.998 480.552 143.029 480.267C143.02 480.358 143.01 480.449 142.997 480.541C142.962 480.823 142.911 481.102 142.848 481.382C142.645 482.333 142.344 483.263 142.109 484.205C141.679 485.93 141.859 487.777 142.779 489.319C143.872 491.159 145.963 491.916 148.046 491.911C148.828 491.908 149.523 491.103 149.439 490.352C149.346 489.523 148.689 488.989 147.852 488.991C147.733 488.991 147.617 488.988 147.497 488.984C147.242 488.982 147.833 489.041 147.427 488.974C147.259 488.943 147.092 488.928 146.928 488.89C146.81 488.863 146.696 488.829 146.579 488.799C146.629 488.811 146.864 488.917 146.618 488.812C146.447 488.74 146.281 488.668 146.12 488.58C146.1 488.57 145.806 488.382 146.008 488.52C146.206 488.654 145.931 488.457 145.915 488.443C145.809 488.359 145.714 488.263 145.612 488.176C145.37 487.965 145.732 488.368 145.628 488.197C145.585 488.128 145.523 488.068 145.473 488.003C145.375 487.87 145.293 487.728 145.206 487.59C145.038 487.318 145.275 487.816 145.224 487.623C145.204 487.549 145.156 487.469 145.128 487.395C145.081 487.273 145.038 487.148 144.999 487.022C144.975 486.944 144.965 486.858 144.933 486.781C144.855 486.585 144.985 487.151 144.94 486.822C144.917 486.657 144.891 486.492 144.88 486.327C144.869 486.161 144.862 485.992 144.866 485.825C144.864 485.795 144.861 485.633 144.872 485.624C144.85 485.641 144.839 485.94 144.866 485.715C144.912 485.353 144.978 485.005 145.07 484.651C145.527 482.872 146.251 480.991 145.951 479.125C145.611 477.016 144.108 475.585 142.123 474.847C140.272 474.16 138.299 473.898 136.43 473.277C136.619 473.34 136.09 473.148 136.015 473.119C135.813 473.038 135.61 472.953 135.411 472.864C134.986 472.669 134.574 472.455 134.176 472.213C134.1 472.165 134.024 472.117 133.947 472.069C134.164 472.206 133.971 472.083 133.931 472.055C133.753 471.927 133.575 471.803 133.404 471.667C133.074 471.405 132.758 471.124 132.465 470.822C132.407 470.762 132.352 470.701 132.295 470.644C132.493 470.85 132.341 470.698 132.303 470.651C132.173 470.494 132.047 470.339 131.925 470.181C131.688 469.864 131.473 469.535 131.277 469.189C131.237 469.119 131.202 469.05 131.167 468.984C131.316 469.254 131.211 469.072 131.184 469.01C131.106 468.833 131.022 468.657 130.952 468.481C130.809 468.124 130.692 467.757 130.598 467.385C130.566 467.255 130.499 466.882 130.556 467.211C130.524 467.02 130.492 466.833 130.468 466.646C130.425 466.286 130.405 465.921 130.404 465.558C130.404 465.384 130.412 465.21 130.42 465.039C130.403 465.433 130.448 464.818 130.457 464.734C130.514 464.311 130.595 463.89 130.698 463.475C130.762 463.218 130.834 462.96 130.914 462.709C130.942 462.616 130.975 462.523 131.003 462.431C131.103 462.126 130.966 462.509 131.075 462.233C131.28 461.717 131.497 461.211 131.742 460.712C131.984 460.223 132.249 459.745 132.527 459.273C132.676 459.021 132.829 458.773 132.99 458.524C133.05 458.433 133.105 458.343 133.165 458.252C133.158 458.26 133.404 457.896 133.316 458.023C134.69 456.004 136.327 454.158 138.003 452.38C138.411 451.949 138.466 451.273 138.205 450.765C137.922 450.213 137.397 449.976 136.786 449.959C136.613 449.956 136.442 449.948 136.268 449.941C136.195 449.938 136.121 449.931 136.048 449.929C136.078 449.927 136.261 449.945 136.082 449.926C135.749 449.899 135.411 449.869 135.081 449.83C134.435 449.752 133.792 449.647 133.154 449.508C132.563 449.381 131.982 449.23 131.407 449.049C131.317 449.021 131.033 448.926 131.277 449.012C131.135 448.965 130.993 448.914 130.851 448.859C130.574 448.756 130.297 448.646 130.027 448.532C129.519 448.316 129.017 448.073 128.532 447.807C128.288 447.672 128.047 447.532 127.81 447.386C127.71 447.324 127.613 447.259 127.512 447.198C127.774 447.365 127.443 447.145 127.35 447.08C126.934 446.786 126.535 446.472 126.158 446.134C125.981 445.976 125.805 445.814 125.636 445.647C125.545 445.559 125.458 445.466 125.371 445.378C125.135 445.136 125.459 445.489 125.3 445.303C124.983 444.931 124.68 444.55 124.41 444.145C124.286 443.961 124.169 443.775 124.06 443.582C124.008 443.495 123.96 443.408 123.912 443.32C123.746 443.025 123.998 443.522 123.858 443.214C123.674 442.811 123.508 442.402 123.376 441.98C123.312 441.78 123.26 441.576 123.212 441.371C123.132 441.036 123.242 441.592 123.205 441.33C123.19 441.218 123.168 441.109 123.153 440.997C123.092 440.548 123.07 440.096 123.086 439.645C123.087 439.596 123.091 439.546 123.092 439.497C123.1 439.319 123.08 439.494 123.092 439.497C123.116 439.507 123.073 439.672 123.092 439.497C123.099 439.432 123.107 439.368 123.114 439.303C123.141 439.074 123.18 438.845 123.227 438.615C123.27 438.401 123.326 438.189 123.385 437.977C123.42 437.862 123.459 437.75 123.493 437.634C123.412 437.919 123.474 437.688 123.527 437.552C123.705 437.098 123.923 436.657 124.169 436.236C124.234 436.122 124.304 436.008 124.374 435.898C124.416 435.831 124.645 435.502 124.447 435.776C124.644 435.498 124.846 435.228 125.056 434.957C125.486 434.403 125.933 433.864 126.363 433.31C127.252 432.166 128.139 430.948 128.497 429.533C128.809 428.303 128.552 426.93 127.727 425.941C126.994 425.06 126.012 424.445 124.956 423.993C123.801 423.499 122.582 423.148 121.382 422.786C121.106 422.702 120.831 422.618 120.559 422.534C120.413 422.487 120.268 422.444 120.122 422.397C120.035 422.368 119.668 422.241 119.932 422.333C119.383 422.139 118.842 421.937 118.316 421.688C118.041 421.559 117.777 421.414 117.52 421.253C117.375 421.165 117.52 421.253 117.548 421.27C117.491 421.233 117.438 421.191 117.382 421.153C117.24 421.049 117.101 420.937 116.967 420.821C116.868 420.737 116.774 420.649 116.679 420.557C116.65 420.529 116.46 420.337 116.584 420.469C116.697 420.59 116.559 420.436 116.543 420.422C116.362 420.2 116.193 419.973 116.042 419.73C116.012 419.679 115.985 419.62 115.951 419.573C115.828 419.404 116.038 419.791 115.96 419.595C115.918 419.485 115.861 419.383 115.819 419.272C115.768 419.147 115.725 419.018 115.685 418.888C115.666 418.821 115.579 418.449 115.614 418.632C115.655 418.833 115.59 418.43 115.582 418.37C115.57 418.253 115.563 418.14 115.559 418.023C115.554 417.888 115.564 417.751 115.563 417.615C115.559 417.445 115.56 417.698 115.558 417.714C115.574 417.618 115.583 417.515 115.596 417.42C115.641 417.16 115.717 416.91 115.781 416.656C115.72 416.898 115.78 416.648 115.828 416.547C115.894 416.388 115.965 416.236 116.044 416.083C116.106 415.965 116.171 415.852 116.237 415.738C116.282 415.659 116.331 415.584 116.38 415.509C116.362 415.533 116.26 415.672 116.363 415.537C116.543 415.294 116.736 415.058 116.941 414.837C117.121 414.644 117.31 414.461 117.506 414.282C117.722 414.105 117.55 414.241 117.506 414.282C117.554 414.241 117.605 414.2 117.653 414.163C117.77 414.072 117.887 413.977 118.009 413.89C118.509 413.52 119.038 413.187 119.586 412.89C119.709 412.825 119.832 412.76 119.955 412.695C119.716 412.817 120.108 412.625 120.176 412.594C120.479 412.457 120.783 412.327 121.095 412.208C121.704 411.971 122.328 411.771 122.961 411.601C123.268 411.52 123.579 411.447 123.887 411.381C124.134 411.327 123.681 411.417 123.925 411.375C123.998 411.362 124.07 411.346 124.143 411.334C124.337 411.302 124.528 411.271 124.723 411.243C125.372 411.151 126.025 411.096 126.679 411.083C126.988 411.078 127.301 411.084 127.61 411.09C127.899 411.097 127.485 411.071 127.776 411.098C127.962 411.112 128.149 411.133 128.331 411.155C129.105 411.248 129.961 410.84 130.096 410.015C130.217 409.285 129.764 408.385 128.936 408.289L128.932 408.285Z" fill="#65C3E8"/>
</g>
<g filter="url(#filter3_f_479_1041)">
<path d="M81.3409 378.702C83.7604 377.196 86.5305 376.311 89.3878 376.125C92.0798 375.955 94.9296 376.295 97.2662 377.8C99.4892 379.234 100.84 381.864 100.475 384.52C100.089 387.311 98.1583 389.251 96.1924 391.047C95.7315 391.466 95.269 391.881 94.8211 392.311C94.6259 392.498 94.4307 392.685 94.242 392.878C94.1441 392.98 94.0462 393.083 93.9483 393.185C94.16 392.961 93.8747 393.268 93.8113 393.346C93.4775 393.737 93.185 394.148 92.9283 394.592C93.1166 394.27 92.9438 394.581 92.9053 394.669C92.8612 394.773 92.8236 394.881 92.786 394.99C92.767 395.049 92.7512 395.114 92.7322 395.173C92.7362 395.154 92.7608 394.897 92.7673 395.04C92.7714 395.159 92.7378 395.296 92.7251 395.414C92.699 395.714 92.6673 395.248 92.7366 395.513C92.75 395.562 92.7705 395.644 92.7671 395.692C92.7584 395.884 92.662 395.484 92.7515 395.657C92.8066 395.762 92.8426 395.879 92.8942 395.986C92.916 396.035 93.06 396.238 92.9431 396.077C92.8228 395.918 92.9931 396.134 93.0124 396.159C93.1075 396.271 93.2027 396.383 93.3012 396.493C93.3367 396.536 93.5045 396.682 93.3059 396.504C93.3547 396.549 93.4069 396.592 93.4591 396.636C93.7284 396.862 94.0134 397.069 94.3091 397.263C94.5997 397.455 94.8994 397.63 95.2025 397.804C95.196 397.798 95.4151 397.922 95.3063 397.862C95.1975 397.802 95.4201 397.924 95.4136 397.918C95.5967 398.016 95.7798 398.114 95.9613 398.209C96.6841 398.588 97.4087 398.962 98.1153 399.369C100.032 400.476 101.652 402.121 102.604 404.152C103.495 406.056 103.75 408.252 103.434 410.31C102.662 415.323 99.1418 419.351 94.9954 421.912C94.4225 422.264 93.8388 422.591 93.2392 422.892C93.2068 421.983 93.1793 421.077 93.1469 420.168C97.3103 421.935 101.595 424.028 104.735 427.417C107.132 430.001 108.493 433.529 107.855 437.05C107.521 438.903 106.743 440.641 105.598 442.117C104.368 443.706 102.78 444.871 101.257 446.144C100.889 446.45 100.529 446.765 100.191 447.1C100.125 447.163 100.06 447.229 99.9955 447.295C99.6899 447.603 100.099 447.17 99.9324 447.365C99.776 447.548 99.6281 447.731 99.4913 447.93C99.0724 448.534 98.9322 448.965 99.0681 449.664C99.0852 449.748 99.1042 449.828 99.1247 449.91C99.0433 449.562 99.1465 449.959 99.1714 450.015C99.2404 450.197 99.3247 450.376 99.4108 450.551C99.45 450.63 99.7435 451.113 99.5746 450.854C99.7276 451.086 99.8874 451.316 100.052 451.538C100.622 452.299 101.257 453.006 101.84 453.752C102.939 455.149 103.625 456.914 103.469 458.705C103.284 460.834 101.833 462.434 99.9767 463.292C99.2858 463.609 98.3395 463.271 98.0469 462.533C97.7515 461.779 98.0296 460.933 98.7703 460.589C98.9755 460.498 99.176 460.396 99.3702 460.28C99.1073 460.435 99.4672 460.203 99.5536 460.139C99.7059 460.021 99.8405 459.882 99.9897 459.757C99.7712 459.938 99.9017 459.863 99.9564 459.793C100.022 459.709 100.092 459.628 100.154 459.537C100.218 459.45 100.449 458.976 100.294 459.337C100.346 459.214 100.402 459.092 100.449 458.967C100.474 458.893 100.489 458.799 100.523 458.729C100.61 458.557 100.471 459.07 100.516 458.758C100.537 458.594 100.568 458.434 100.575 458.267C100.58 458.186 100.57 458.099 100.584 458.021C100.614 457.82 100.62 458.377 100.583 458.055C100.57 457.923 100.559 457.79 100.537 457.658C100.511 457.49 100.473 457.331 100.436 457.164C100.387 456.936 100.473 457.24 100.466 457.251C100.482 457.232 100.377 456.986 100.367 456.965C100.26 456.679 100.12 456.412 99.9806 456.136C99.8251 455.833 100.134 456.343 100.005 456.171C99.9548 456.105 99.9122 456.028 99.8659 455.961C99.7539 455.802 99.6367 455.65 99.5161 455.499C98.3904 454.089 97.0097 452.705 96.4295 450.955C95.7647 448.942 96.3112 447.006 97.6872 445.477C98.9774 444.041 100.588 442.984 102.004 441.692C102.168 441.543 102.328 441.388 102.484 441.231C102.568 441.144 102.657 441.058 102.739 440.967C102.695 441.016 102.588 441.143 102.772 440.923C103.073 440.567 103.36 440.209 103.623 439.825C103.724 439.675 103.822 439.527 103.915 439.377C103.972 439.284 104.028 439.189 104.084 439.093C104.118 439.032 104.255 438.778 104.127 439.024C104.32 438.649 104.487 438.261 104.631 437.867C104.686 437.713 104.739 437.556 104.788 437.4C104.818 437.303 104.844 437.204 104.871 437.108C104.892 437.036 104.951 436.764 104.888 437.063C104.972 436.675 105.036 436.283 105.068 435.888C105.081 435.732 105.093 435.577 105.097 435.42C105.099 435.34 105.085 434.732 105.107 435.103C105.086 434.715 105.05 434.33 104.986 433.95C104.928 433.608 104.85 433.267 104.754 432.934C104.845 433.257 104.734 432.888 104.69 432.762C104.616 432.561 104.54 432.361 104.458 432.168C104.31 431.829 104.146 431.497 103.961 431.175C103.923 431.108 103.88 431.039 103.842 430.973C104.016 431.263 103.902 431.071 103.859 431.011C103.71 430.798 103.565 430.583 103.41 430.372C103.095 429.953 102.753 429.554 102.396 429.175C102.255 429.025 101.95 428.718 101.886 428.659C101.821 428.596 101.491 428.305 101.331 428.168C100.47 427.433 99.5452 426.776 98.5883 426.176C96.568 424.902 94.3836 423.885 92.123 422.927C90.924 422.418 90.9051 420.768 92.0306 420.203C92.3116 420.061 92.5911 419.915 92.8674 419.763C93.0116 419.682 93.1593 419.599 93.3019 419.514C93.3638 419.478 93.4257 419.442 93.4875 419.407C93.5114 419.396 93.7508 419.243 93.6233 419.325C93.4891 419.41 93.687 419.284 93.6957 419.276C93.775 419.224 93.8524 419.177 93.9317 419.125C94.0454 419.049 94.1626 418.972 94.2748 418.892C94.5387 418.712 94.7945 418.522 95.0454 418.331C95.5349 417.958 96.0086 417.559 96.4596 417.136C96.6616 416.945 96.8621 416.752 97.056 416.552C97.0946 416.51 97.3323 416.262 97.2326 416.369C97.1188 416.491 97.2605 416.34 97.273 416.322C97.3413 416.245 97.4131 416.167 97.48 416.087C98.1858 415.271 98.8 414.387 99.3354 413.446C99.3625 413.397 99.3895 413.347 99.42 413.296C99.2708 413.559 99.3765 413.382 99.4038 413.324C99.4529 413.223 99.5054 413.12 99.5545 413.019C99.6673 412.784 99.7736 412.545 99.87 412.301C100.056 411.846 100.215 411.383 100.343 410.908C100.376 410.789 100.404 410.668 100.435 410.546C100.374 410.786 100.413 410.643 100.442 410.497C100.495 410.239 100.536 409.982 100.569 409.725C100.628 409.269 100.648 408.809 100.655 408.347C100.657 408.066 100.672 408.606 100.654 408.326C100.647 408.208 100.641 408.094 100.63 407.978C100.608 407.745 100.583 407.514 100.546 407.284C100.513 407.073 100.472 406.862 100.419 406.652C100.397 406.557 100.371 406.46 100.344 406.364C100.272 406.083 100.366 406.458 100.374 406.459C100.374 406.459 100.318 406.288 100.314 406.269C100.173 405.843 99.9979 405.432 99.7921 405.036C99.737 404.931 99.6835 404.829 99.6251 404.726C99.6015 404.682 99.5744 404.64 99.5508 404.596C99.4672 404.445 99.6251 404.726 99.6254 404.717C99.6503 404.635 99.2806 404.211 99.2163 404.131C99.0686 403.938 98.9156 403.752 98.7524 403.57C98.6812 403.493 98.6085 403.413 98.5373 403.336C98.4465 403.243 98.1913 403.002 98.4338 403.224C98.0644 402.883 97.674 402.569 97.2605 402.286C97.0522 402.14 96.8402 402.005 96.6229 401.877C96.4945 401.801 96.3677 401.728 96.2359 401.653C95.9788 401.509 96.1106 401.583 96.165 401.613C96.0742 401.566 95.9869 401.518 95.8946 401.467C95.2445 401.122 94.5908 400.788 93.9445 400.433C92.7492 399.776 91.4597 399.028 90.661 397.872C89.8462 396.699 89.634 395.37 90.0199 394.011C90.3055 393.007 90.9638 392.111 91.6541 391.352C92.4724 390.448 93.3701 389.63 94.2711 388.81C94.7147 388.407 95.1532 388.002 95.5756 387.58C95.663 387.491 95.7503 387.402 95.8376 387.313C95.8936 387.254 95.9529 387.194 96.0073 387.133C95.9933 387.147 95.8495 387.312 95.9567 387.184C96.136 386.971 96.3253 386.761 96.4965 386.538C96.6784 386.303 96.849 386.051 97.0013 385.795C97.0442 385.726 97.1806 385.444 97.0802 385.66C97.1548 385.505 97.2244 385.349 97.2875 385.187C97.3413 385.05 97.39 384.912 97.4339 384.771C97.451 384.717 97.542 384.388 97.5063 384.538C97.4705 384.688 97.5504 384.297 97.5557 384.245C97.5758 384.106 97.5926 383.969 97.601 383.832C97.6094 383.694 97.6094 383.556 97.6143 383.421C97.605 383.675 97.6143 383.467 97.6022 383.338C97.5767 383.07 97.5241 382.805 97.4647 382.543C97.4022 382.275 97.4647 382.543 97.4815 382.59C97.4616 382.537 97.4451 382.481 97.4252 382.427C97.382 382.321 97.3406 382.21 97.294 382.106C97.238 381.981 97.1802 381.86 97.114 381.739C97.0872 381.689 97.0521 381.638 97.0288 381.585C96.933 381.398 97.2386 381.872 97.0157 381.574C96.8569 381.366 96.7014 381.155 96.5236 380.959C96.4847 380.918 96.2429 380.679 96.3551 380.783C96.4819 380.902 96.324 380.76 96.306 380.747C96.2227 380.68 96.1428 380.611 96.0594 380.544C95.8322 380.365 95.5906 380.21 95.3472 380.06C95.1268 379.924 95.4268 380.091 95.1905 379.975C95.05 379.908 94.9095 379.842 94.7622 379.778C94.5203 379.677 94.2747 379.586 94.0254 379.505C93.9058 379.467 93.7876 379.432 93.6695 379.397C93.6313 379.385 93.3764 379.319 93.548 379.364C93.7062 379.406 93.4479 379.341 93.4211 379.337C92.8439 379.21 92.2567 379.126 91.6664 379.08C91.3729 379.056 91.0758 379.043 90.7817 379.036C90.7111 379.034 90.2822 379.038 90.538 379.032C90.3748 379.034 90.2097 379.041 90.0496 379.05C89.3875 379.082 88.7289 379.159 88.0758 379.267C87.7712 379.319 87.4662 379.38 87.1644 379.448C87.027 379.48 86.8862 379.514 86.7454 379.548C86.6689 379.569 86.1797 379.704 86.4296 379.63C85.8175 379.811 85.2176 380.029 84.6348 380.285C84.3579 380.409 84.0859 380.534 83.8201 380.674C83.6967 380.737 83.5783 380.803 83.4565 380.87C83.4033 380.897 82.9461 381.168 83.2006 381.013C82.5588 381.412 81.6695 381.496 81.1484 380.797C80.7253 380.226 80.6434 379.152 81.3334 378.722L81.3409 378.702Z" fill="#65C3E8"/>
</g>
<g filter="url(#filter4_f_479_1041)">
<path fill-rule="evenodd" clip-rule="evenodd" d="M145.629 81.1544C145.243 81.1544 144.867 80.9542 144.659 80.5955C144.507 80.3335 140.988 74.1344 144.836 70.2865C147.481 67.6411 144.687 62.7318 144.659 62.6823C144.349 62.1471 144.532 61.4624 145.067 61.1525C145.602 60.8424 146.287 61.0251 146.597 61.5605C146.748 61.8225 150.268 68.0213 146.42 71.8695C143.774 74.5149 146.568 79.4242 146.597 79.4737C146.907 80.0089 146.724 80.6936 146.189 81.0035C146.012 81.1058 145.819 81.1544 145.629 81.1544ZM134.245 80.5955C134.453 80.9542 134.828 81.1544 135.215 81.1544C135.405 81.1544 135.598 81.1058 135.775 81.0035C136.31 80.6936 136.493 80.0089 136.183 79.4737C136.154 79.4242 133.36 74.5149 136.005 71.8695C139.854 68.0213 136.334 61.8225 136.183 61.5605C135.873 61.0251 135.188 60.8424 134.653 61.1525C134.118 61.4624 133.935 62.1471 134.245 62.6823C134.273 62.7318 137.067 67.6411 134.422 70.2865C130.574 74.1344 134.093 80.3335 134.245 80.5955ZM125.765 61.5605C125.916 61.8225 129.436 68.0213 125.587 71.8695C122.942 74.5149 125.736 79.4242 125.765 79.4737C126.075 80.0089 125.892 80.6936 125.357 81.0035C125.18 81.1058 124.987 81.1544 124.797 81.1544C124.41 81.1544 124.034 80.9542 123.827 80.5955C123.675 80.3335 120.156 74.1347 124.004 70.2865C126.649 67.6411 123.855 62.7318 123.827 62.6823C123.517 62.1471 123.7 61.4624 124.235 61.1525C124.77 60.8424 125.455 61.0251 125.765 61.5605ZM113.413 80.5955C113.621 80.9542 113.996 81.1544 114.383 81.1544C114.573 81.1544 114.766 81.1058 114.943 81.0035C115.478 80.6936 115.661 80.0089 115.351 79.4737C115.322 79.4242 112.528 74.5149 115.173 71.8695C119.022 68.0213 115.502 61.8225 115.351 61.5605C115.041 61.0251 114.356 60.8424 113.821 61.1525C113.286 61.4624 113.103 62.1471 113.413 62.6823C113.441 62.7318 116.235 67.6411 113.59 70.2865C109.742 74.1344 113.261 80.3335 113.413 80.5955ZM132.293 90.1108C129.207 90.1108 126.695 92.622 126.695 95.7087L126.695 158.405C126.695 161.492 129.207 164.003 132.293 164.003C135.38 164.003 137.891 161.492 137.891 158.405L137.891 95.7087C137.891 92.622 135.38 90.1108 132.293 90.1108ZM140.131 95.7087C140.131 92.622 142.642 90.1108 145.729 90.1108C148.815 90.1108 151.327 92.622 151.327 95.7087L151.327 158.405C151.327 161.492 148.815 164.003 145.729 164.003C142.642 164.003 140.131 161.492 140.131 158.405L140.131 95.7087ZM153.564 95.7087C153.564 92.622 156.076 90.1108 159.162 90.1108C162.249 90.1108 164.76 92.622 164.76 95.7087L164.76 158.405C164.76 161.492 162.249 164.003 159.162 164.003C156.076 164.003 153.564 161.492 153.564 158.405L153.564 95.7087ZM64 143.85L72.9566 143.85L72.9566 150.568L64 150.568L64 143.85ZM118.86 90.1108C115.773 90.1108 113.262 92.622 113.262 95.7087L113.262 158.405C113.262 161.492 115.773 164.003 118.86 164.003C121.946 164.003 124.457 161.492 124.457 158.405L124.457 95.7087C124.457 92.622 121.946 90.1108 118.86 90.1108ZM75.1953 151.687L75.1953 142.73L75.1953 137.132L84.1519 137.132L84.1519 155.046L75.1953 155.046L75.1953 151.687ZM91.9898 90.1108C88.9031 90.1108 86.3919 92.622 86.3919 95.7087L86.3919 101.307L74.0766 101.307C73.4584 101.307 72.957 101.808 72.957 102.426C72.957 103.045 73.4584 103.546 74.0766 103.546L86.3919 103.546L86.3919 110.263L74.0766 110.263C73.4584 110.263 72.957 110.764 72.957 111.383C72.957 112.001 73.4584 112.502 74.0766 112.502L86.3919 112.502L86.3919 156.166L86.3919 158.405C86.3919 161.492 88.9031 164.003 91.9898 164.003C95.0765 164.003 97.5877 161.492 97.5877 158.405L97.5877 95.7087C97.5877 92.622 95.0765 90.1108 91.9898 90.1108ZM99.8262 95.7087C99.8262 92.622 102.337 90.1108 105.424 90.1108C108.511 90.1108 111.022 92.622 111.022 95.7087L111.022 158.405C111.022 161.492 108.511 164.003 105.424 164.003C102.337 164.003 99.8262 161.492 99.8262 158.405L99.8262 95.7087Z" fill="url(#paint0_linear_479_1041)"/>
</g>
<g filter="url(#filter5_f_479_1041)">
<path d="M376.715 162.578C377.121 162.548 377.53 162.516 377.937 162.488C378.142 162.474 378.347 162.462 378.552 162.451C378.645 162.445 378.739 162.443 378.832 162.437C378.985 162.429 378.982 162.43 378.818 162.439C378.892 162.437 378.969 162.435 379.044 162.433C379.863 162.406 380.684 162.409 381.499 162.471C381.903 162.502 382.306 162.546 382.704 162.608C382.883 162.637 383.063 162.668 383.244 162.705C383.287 162.714 383.642 162.8 383.341 162.724C383.483 162.759 383.622 162.795 383.764 162.834C384.113 162.932 384.457 163.05 384.794 163.186C384.997 163.269 385.195 163.36 385.394 163.455C385.615 163.559 385.437 163.475 385.394 163.452C385.498 163.508 385.602 163.567 385.702 163.629C385.981 163.803 386.248 163.996 386.498 164.208C386.54 164.242 386.597 164.284 386.635 164.327C386.41 164.069 386.6 164.297 386.651 164.352C386.779 164.481 386.905 164.613 387.023 164.749C387.141 164.886 387.255 165.028 387.364 165.174C387.4 165.223 387.436 165.272 387.47 165.321C387.522 165.397 387.714 165.578 387.486 165.337C387.708 165.574 387.866 165.996 387.992 166.288C388.052 166.423 388.107 166.56 388.157 166.7C388.266 167.003 388.159 166.7 388.159 166.7C388.162 166.699 388.212 166.889 388.219 166.91C388.304 167.231 388.347 167.555 388.384 167.885C388.417 168.185 388.389 167.575 388.382 167.874C388.38 167.943 388.382 168.015 388.38 168.084C388.374 168.237 388.363 168.391 388.343 168.543C388.333 168.625 388.317 168.708 388.304 168.79C388.275 168.986 388.287 168.71 388.325 168.706C388.309 168.709 388.176 169.177 388.157 169.224C388.13 169.29 388.103 169.355 388.075 169.418C388.063 169.445 388.051 169.469 388.039 169.496C387.976 169.621 387.989 169.599 388.075 169.429C388.097 169.478 387.881 169.742 387.841 169.796C387.788 169.869 387.734 169.942 387.677 170.01C387.623 170.078 387.493 170.313 387.663 170.038C387.575 170.18 387.396 170.309 387.272 170.422C386.767 170.878 386.209 171.27 385.673 171.688C384.407 172.674 383.266 173.969 383.201 175.655C383.126 177.539 384.149 179.222 385.558 180.402C386.912 181.535 388.659 182.1 390.272 182.76C390.624 182.904 390.973 183.052 391.312 183.218C391.342 183.232 391.673 183.411 391.424 183.273C391.525 183.327 391.624 183.384 391.723 183.443C391.917 183.56 392.106 183.687 392.285 183.823C392.375 183.893 392.464 183.963 392.547 184.039C392.366 183.875 392.514 184.012 392.546 184.048C392.689 184.215 392.833 184.375 392.964 184.553C392.8 184.331 392.941 184.515 392.978 184.583C393.022 184.658 393.063 184.737 393.102 184.815C393.149 184.909 393.191 185.006 393.231 185.104C393.28 185.228 393.359 185.374 393.262 185.17C393.421 185.506 393.432 185.959 393.464 186.324C393.436 185.995 393.46 186.352 393.462 186.407C393.462 186.498 393.458 186.589 393.455 186.678C393.442 186.915 393.417 187.151 393.382 187.387C393.367 187.477 393.35 187.569 393.333 187.657C393.32 187.726 393.255 187.964 393.324 187.703C393.268 187.914 393.209 188.126 393.137 188.332C393.002 188.723 392.829 189.104 392.644 189.474C392.773 189.222 392.595 189.559 392.58 189.584C392.524 189.685 392.466 189.784 392.407 189.885C392.309 190.052 392.205 190.214 392.102 190.375C391.847 190.765 391.581 191.147 391.307 191.521C390.802 192.212 390.275 192.885 389.783 193.585C389.245 194.342 388.759 195.201 388.761 196.158C388.762 197.038 389.065 197.875 389.67 198.527C390.708 199.639 392.201 200.188 393.6 200.701C393.89 200.81 394.182 200.913 394.469 201.035C394.628 201.104 394.785 201.181 394.942 201.255C395.157 201.36 394.891 201.22 394.875 201.22C394.953 201.223 395.108 201.35 395.176 201.39C395.447 201.549 395.713 201.722 395.967 201.909C396.082 201.993 396.197 202.081 396.309 202.171C396.406 202.248 396.654 202.386 396.706 202.503C396.666 202.466 396.627 202.432 396.587 202.395C396.63 202.434 396.67 202.474 396.713 202.513C396.776 202.574 396.836 202.632 396.897 202.693C396.998 202.794 397.099 202.897 397.195 203.004C397.428 203.258 397.653 203.525 397.859 203.8C397.946 203.914 398.03 204.031 398.114 204.149C398.148 204.195 398.253 204.306 398.26 204.363C398.24 204.185 398.148 204.182 398.241 204.333C398.414 204.62 398.58 204.905 398.733 205.203C398.877 205.487 399.009 205.778 399.13 206.074C399.185 206.208 399.237 206.345 399.288 206.479C399.319 206.562 399.345 206.643 399.376 206.725C399.469 206.982 399.294 206.434 399.388 206.764C399.569 207.392 399.711 208.023 399.79 208.671C399.808 208.815 399.822 208.958 399.834 209.102C399.841 209.189 399.845 209.274 399.852 209.361C399.873 209.666 399.849 209.05 399.851 209.356C399.852 209.673 399.853 209.987 399.831 210.303C399.81 210.618 399.774 210.931 399.722 211.244C399.697 211.386 399.67 211.526 399.642 211.666C399.584 211.964 399.718 211.38 399.64 211.672C399.61 211.782 399.583 211.895 399.55 212.005C399.469 212.282 399.377 212.555 399.27 212.825C399.205 212.988 399.136 213.147 399.065 213.303C399.033 213.372 399 213.438 398.968 213.505C398.931 213.58 398.816 213.896 398.933 213.574C398.821 213.878 398.59 214.182 398.42 214.455C398.237 214.746 398.048 215.034 397.852 215.317C396.216 217.685 394.185 219.916 393.63 222.831C393.495 223.548 393.499 224.286 393.585 225.008C393.667 225.686 394.437 226.211 395.099 226.063C395.822 225.902 396.245 225.278 396.157 224.551C396.147 224.462 396.14 224.372 396.129 224.283C396.093 223.972 396.125 224.587 396.128 224.278C396.13 224.131 396.129 223.988 396.136 223.84C396.147 223.667 396.164 223.496 396.189 223.326C396.198 223.255 396.211 223.184 396.223 223.116C396.23 223.073 396.239 223.03 396.248 222.99C396.279 222.852 396.272 222.878 396.229 223.071C396.163 223.011 396.483 222.259 396.517 222.17C396.57 222.033 396.627 221.899 396.683 221.768C396.719 221.687 396.757 221.608 396.793 221.53C396.825 221.461 396.989 221.09 396.837 221.432C397.106 220.818 397.537 220.237 397.918 219.689C398.32 219.107 398.742 218.541 399.161 217.971C400.047 216.765 400.903 215.534 401.529 214.17C402.108 212.914 402.413 211.503 402.45 210.122C402.525 207.215 401.571 204.346 399.8 202.043C398.97 200.962 397.919 199.998 396.747 199.296C395.498 198.546 394.106 198.181 392.795 197.569C392.711 197.529 392.626 197.489 392.541 197.446C392.254 197.309 392.782 197.591 392.51 197.429C392.381 197.353 392.252 197.279 392.126 197.197C391.982 197.101 391.848 196.998 391.713 196.892C391.524 196.744 391.781 196.935 391.776 196.95C391.781 196.933 391.579 196.742 391.557 196.716C391.518 196.667 391.467 196.563 391.416 196.528C391.599 196.653 391.528 196.74 391.462 196.581C391.437 196.522 391.408 196.464 391.381 196.408C391.263 196.164 391.436 196.718 391.396 196.446C391.391 196.42 391.373 196.224 391.358 196.213C391.377 196.229 391.344 196.555 391.362 196.317C391.37 196.222 391.376 196.13 391.387 196.037C391.347 196.187 391.345 196.19 391.388 196.045C391.409 195.975 391.436 195.907 391.462 195.839C391.489 195.77 391.521 195.704 391.554 195.637C391.43 195.902 391.593 195.578 391.617 195.543C391.735 195.351 391.866 195.168 391.996 194.985C392.244 194.638 392.501 194.294 392.759 193.953C393.295 193.237 393.835 192.526 394.315 191.773C395.294 190.236 396.064 188.5 396.078 186.649C396.093 184.615 395.316 182.745 393.62 181.55C392.158 180.522 390.381 180.059 388.776 179.315C388.673 179.267 388.571 179.219 388.471 179.167C388.437 179.151 388.11 178.975 388.364 179.114C388.199 179.022 388.036 178.93 387.877 178.831C387.7 178.722 387.528 178.606 387.362 178.484C387.293 178.433 387.225 178.381 387.158 178.327C387.106 178.284 387.054 178.241 387.002 178.197C387.121 178.309 387.131 178.315 387.025 178.216C386.758 177.943 386.518 177.665 386.297 177.354C386.485 177.619 386.202 177.181 386.168 177.112C386.122 177.024 386.078 176.932 386.037 176.84C386.023 176.807 385.869 176.44 385.948 176.635C386.03 176.833 385.923 176.54 385.919 176.516C385.896 176.421 385.874 176.326 385.859 176.229C385.848 176.167 385.799 175.997 385.825 175.94C385.772 176.065 385.821 176.153 385.829 175.997C385.839 175.819 385.82 175.585 385.889 175.415C385.763 175.719 385.896 175.425 385.919 175.363C385.948 175.278 385.986 175.197 386.018 175.114C386.12 174.833 385.866 175.348 386.023 175.096C386.071 175.022 386.113 174.948 386.163 174.873C386.247 174.75 386.338 174.64 386.428 174.525C386.615 174.288 386.219 174.722 386.442 174.512C386.496 174.461 386.548 174.407 386.599 174.354C386.741 174.218 386.887 174.09 387.038 173.964C388.149 173.042 389.45 172.275 390.205 170.999C391.829 168.253 390.807 164.72 388.607 162.6C386.045 160.13 382.387 159.715 378.981 159.853C378.081 159.889 377.185 159.951 376.288 160.019C375.604 160.072 375.085 160.889 375.23 161.531C375.398 162.277 376.013 162.645 376.744 162.587L376.715 162.578Z" fill="#00E6FF"/>
</g>
<g filter="url(#filter6_f_479_1041)">
<path d="M424.334 188L424.334 194.455ZM424.334 194.455L424.334 204.498ZM424.334 194.455L420.722 190.869ZM424.334 194.455L427.945 190.869ZM424.334 204.498L424.334 210.953ZM424.334 204.498L427.945 208.084ZM424.334 204.498L420.722 208.084ZM433.002 195.891L429.39 199.477ZM429.39 199.477L433.002 203.063ZM429.39 199.477L420 199.477ZM429.39 199.477L435.891 199.477Z" fill="#65C3E8"/>
<path d="M424.334 188L424.334 194.455M424.334 194.455L424.334 204.498M424.334 194.455L420.722 190.869M424.334 194.455L427.945 190.869M424.334 204.498L424.334 210.953M424.334 204.498L427.945 208.084M424.334 204.498L420.722 208.084M433.002 195.891L429.39 199.477M429.39 199.477L433.002 203.063M429.39 199.477L420 199.477M429.39 199.477L435.891 199.477" stroke="#65C3E8" stroke-width="2.43537" stroke-linecap="round" stroke-linejoin="round"/>
</g>
<g filter="url(#filter7_f_479_1041)">
<path d="M436.94 329.184L439.831 342.118ZM439.831 342.118L444.328 362.241ZM439.831 342.118L430.986 336.551ZM439.831 342.118L445.459 333.316ZM444.328 362.241L447.219 375.174ZM444.328 362.241L453.169 367.809ZM444.328 362.241L438.696 371.044ZM457.84 341.112L452.208 349.915ZM452.208 349.915L461.052 355.483ZM452.208 349.915L433.394 354.121ZM452.208 349.915L465.234 347.004Z" fill="#65C3E8"/>
<path d="M436.94 329.184L439.831 342.118M439.831 342.118L444.328 362.241M439.831 342.118L430.986 336.551M439.831 342.118L445.459 333.316M444.328 362.241L447.219 375.174M444.328 362.241L453.169 367.809M444.328 362.241L438.696 371.044M457.84 341.112L452.208 349.915M452.208 349.915L461.052 355.483M452.208 349.915L433.394 354.121M452.208 349.915L465.234 347.004" stroke="#65C3E8" stroke-width="5" stroke-linecap="round" stroke-linejoin="round"/>
</g>
<defs>
<filter id="filter0_f_479_1041" x="116.334" y="236.433" width="51.75" height="87.1729" filterUnits="userSpaceOnUse" color-interpolation-filters="sRGB">
<feFlood flood-opacity="0" result="BackgroundImageFix"/>
<feBlend mode="normal" in="SourceGraphic" in2="BackgroundImageFix" result="shape"/>
<feGaussianBlur stdDeviation="2" result="effect1_foregroundBlur_479_1041"/>
</filter>
<filter id="filter1_f_479_1041" x="134.117" y="250.307" width="40.1914" height="53.6328" filterUnits="userSpaceOnUse" color-interpolation-filters="sRGB">
<feFlood flood-opacity="0" result="BackgroundImageFix"/>
<feBlend mode="normal" in="SourceGraphic" in2="BackgroundImageFix" result="shape"/>
<feGaussianBlur stdDeviation="2" result="effect1_foregroundBlur_479_1041"/>
</filter>
<filter id="filter2_f_479_1041" x="108.598" y="404.166" width="44.8477" height="91.7446" filterUnits="userSpaceOnUse" color-interpolation-filters="sRGB">
<feFlood flood-opacity="0" result="BackgroundImageFix"/>
<feBlend mode="normal" in="SourceGraphic" in2="BackgroundImageFix" result="shape"/>
<feGaussianBlur stdDeviation="2" result="effect1_foregroundBlur_479_1041"/>
</filter>
<filter id="filter3_f_479_1041" x="76.8223" y="372.085" width="35.1895" height="95.3252" filterUnits="userSpaceOnUse" color-interpolation-filters="sRGB">
<feFlood flood-opacity="0" result="BackgroundImageFix"/>
<feBlend mode="normal" in="SourceGraphic" in2="BackgroundImageFix" result="shape"/>
<feGaussianBlur stdDeviation="2" result="effect1_foregroundBlur_479_1041"/>
</filter>
<filter id="filter4_f_479_1041" x="62" y="59.0015" width="104.76" height="107.001" filterUnits="userSpaceOnUse" color-interpolation-filters="sRGB">
<feFlood flood-opacity="0" result="BackgroundImageFix"/>
<feBlend mode="normal" in="SourceGraphic" in2="BackgroundImageFix" result="shape"/>
<feGaussianBlur stdDeviation="1" result="effect1_foregroundBlur_479_1041"/>
</filter>
<filter id="filter5_f_479_1041" x="371.205" y="155.83" width="35.248" height="74.2588" filterUnits="userSpaceOnUse" color-interpolation-filters="sRGB">
<feFlood flood-opacity="0" result="BackgroundImageFix"/>
<feBlend mode="normal" in="SourceGraphic" in2="BackgroundImageFix" result="shape"/>
<feGaussianBlur stdDeviation="2" result="effect1_foregroundBlur_479_1041"/>
</filter>
<filter id="filter6_f_479_1041" x="416.833" y="184.834" width="22.2228" height="29.2853" filterUnits="userSpaceOnUse" color-interpolation-filters="sRGB">
<feFlood flood-opacity="0" result="BackgroundImageFix"/>
<feBlend mode="normal" in="SourceGraphic" in2="BackgroundImageFix" result="shape"/>
<feGaussianBlur stdDeviation="0.974149" result="effect1_foregroundBlur_479_1041"/>
</filter>
<filter id="filter7_f_479_1041" x="424.486" y="322.684" width="47.248" height="58.9912" filterUnits="userSpaceOnUse" color-interpolation-filters="sRGB">
<feFlood flood-opacity="0" result="BackgroundImageFix"/>
<feBlend mode="normal" in="SourceGraphic" in2="BackgroundImageFix" result="shape"/>
<feGaussianBlur stdDeviation="2" result="effect1_foregroundBlur_479_1041"/>
</filter>
<linearGradient id="paint0_linear_479_1041" x1="114" y1="68.0015" x2="147.5" y2="164.001" gradientUnits="userSpaceOnUse">
<stop stop-color="#00ACDB"/>
<stop offset="1" stop-color="#00ACDB" stop-opacity="0.3"/>
</linearGradient>
</defs>
</svg>
