<svg width="64" height="64" viewBox="0 0 64 64" fill="none" xmlns="http://www.w3.org/2000/svg">
<rect width="64" height="64" fill="transparent"/>
<rect x="0.5" y="0.5" width="63" height="63" rx="31.5" fill="transparent"/>
<path d="M37 38C35.9 38 35.01 38.9 35.01 40C35.01 41.1 35.9 42 37 42C38.1 42 39 41.1 39 40C39 38.9 38.1 38 37 38ZM27 38C25.9 38 25.01 38.9 25.01 40C25.01 41.1 25.9 42 27 42C28.1 42 29 41.1 29 40C29 38.9 28.1 38 27 38ZM27 35L28.1 33H35.55C36.3 33 36.96 32.59 37.3 31.97L41.7 24H25.21L24.27 22H21V24H23L26.6 31.59L23.62 37H39V35H27Z" fill="#005C92"/>
</svg>
