<svg width="471" height="250" viewBox="0 0 471 250" fill="none" xmlns="http://www.w3.org/2000/svg">
<g filter="url(#filter0_f_17_4191)">
<path fill-rule="evenodd" clip-rule="evenodd" d="M233.578 40.132C233.671 40.5787 233.753 41.0402 233.822 41.5171L233.822 41.5165C233.99 42.6711 234.046 43.8368 233.992 45.0112C233.719 50.911 230.654 57.0456 224.841 63.2969C223.874 64.3373 222.819 65.393 221.706 66.434C219.935 68.0895 217.95 69.772 215.806 71.4336C213.462 73.2507 211.232 74.7759 209.603 75.8894C208.754 76.4701 208.02 76.9715 207.472 77.3758C206.44 78.136 205.021 79.2261 203.332 80.5547C201.643 79.2261 200.223 78.136 199.192 77.3758C198.644 76.9721 197.911 76.4701 197.061 75.8894C195.433 74.7759 193.203 73.2507 190.858 71.4336C188.715 69.772 186.73 68.0895 184.959 66.434C183.846 65.3924 182.79 64.3373 181.824 63.2969C180.017 61.3539 178.476 59.4222 177.201 57.5052C172.471 57.082 168.082 55.037 164.686 51.6409C160.853 47.8058 158.742 42.7036 158.742 37.2732C158.742 28.2849 151.432 20.9729 142.448 20.9729C133.463 20.9729 126.153 28.2853 126.153 37.2728L126.276 37.2728C127.197 37.2728 127.944 38.0207 127.944 38.9412L127.944 44.1433C134.774 46.5858 139.862 56.0055 139.862 67.2533C139.862 78.2347 135.012 87.4736 128.426 90.1781L128.426 92.009C128.426 93.2331 127.433 94.2267 126.21 94.2267L122.084 94.2267C120.86 94.2267 119.867 93.2331 119.867 92.009L119.867 89.9208C113.579 86.9251 109.012 77.9096 109.012 67.2533C109.012 56.3258 113.814 47.1237 120.35 44.3688L120.35 38.9412C120.35 38.0207 121.098 37.2728 122.018 37.2728L122.141 37.2728C122.141 31.8426 124.252 26.7405 128.085 22.9055C131.919 19.0704 137.019 16.959 142.448 16.959C147.876 16.959 152.976 19.071 156.81 22.9055C160.644 26.7406 162.755 31.8429 162.755 37.2732C162.755 44.746 167.807 51.0601 174.674 52.9769C173.462 50.2825 172.794 47.6238 172.673 45.0112C172.619 43.8368 172.675 42.6717 172.843 41.5165C172.912 41.0396 172.994 40.5781 173.087 40.1314C174.848 31.6457 180.67 28.5166 184.099 27.3952C185.973 26.7825 187.92 26.4863 189.849 26.4863C194.518 26.4863 199.074 28.2241 202.197 31.406L203.332 32.5619L204.467 31.406C207.59 28.2241 212.145 26.4869 216.816 26.4869C218.743 26.4869 220.692 26.7831 222.565 27.3958C225.994 28.5166 231.816 31.6457 233.578 40.132ZM218.507 52.765L223.447 52.765L223.447 52.7662C223.941 52.7662 224.341 52.3661 224.341 51.8721C224.341 51.378 223.941 50.978 223.447 50.978L219.139 50.978L216.524 43.5751C216.386 43.1842 215.998 42.939 215.586 42.9839C215.174 43.0288 214.846 43.3508 214.795 43.7619L213.245 56.1269L210.041 51.3725C209.875 51.1255 209.597 50.978 209.3 50.978L208.081 50.978L205.196 41.3469C205.081 40.961 204.72 40.6998 204.319 40.7096C203.917 40.7195 203.57 40.9966 203.473 41.3874L200.339 53.9614L198.118 50.731C197.951 50.4882 197.676 50.3432 197.382 50.3432L195.183 50.3432L193.386 44.8999C193.265 44.5337 192.922 44.286 192.537 44.286L192.533 44.286C192.145 44.2879 191.804 44.5392 191.686 44.9085L189.565 51.5605L188.129 54.9397L187.085 51.6048C186.969 51.2312 186.623 50.9774 186.232 50.9774L181.234 50.9774C180.741 50.9774 180.341 51.3774 180.341 51.8715C180.341 52.3655 180.741 52.7656 181.234 52.7656L185.576 52.7656L187.148 57.7916C187.259 58.1492 187.582 58.3993 187.957 58.4178C188.331 58.4362 188.676 58.2193 188.823 57.8746L191.226 52.2211C191.237 52.1953 191.247 52.1695 191.255 52.1431L192.552 48.0763L193.688 51.5175C193.809 51.8838 194.151 52.1314 194.537 52.1314L196.912 52.1314L199.99 56.6087C200.189 56.8981 200.54 57.0444 200.885 56.9817C201.231 56.919 201.509 56.6591 201.594 56.318L204.419 44.9817L206.56 52.1277C206.673 52.5056 207.021 52.765 207.416 52.765L208.824 52.765L213.095 59.1011C213.263 59.3512 213.543 59.4956 213.836 59.4956C213.905 59.4956 213.975 59.4876 214.043 59.471C214.406 59.385 214.677 59.0827 214.723 58.7127L216.098 47.7352L217.665 52.1689C217.79 52.5259 218.128 52.765 218.507 52.765ZM225.326 92.1469C225.185 92.0289 225.063 91.8845 224.965 91.7167L220.917 84.7016C220.471 83.9285 220.736 82.9398 221.508 82.493C222.281 82.0469 223.269 82.3118 223.716 83.0848L227.765 90.1C228.211 90.873 227.946 91.8618 227.173 92.3085C226.569 92.6575 225.832 92.5715 225.326 92.1469ZM221.508 19.5048C221.763 19.6517 222.041 19.7217 222.315 19.7217C222.873 19.7217 223.417 19.4317 223.716 18.913L227.765 11.8979C228.211 11.1242 227.946 10.1361 227.173 9.68933C226.4 9.24321 225.411 9.50806 224.965 10.2811L220.917 17.2963C220.471 18.0699 220.736 19.0581 221.508 19.5048ZM115.134 42.9293L115.134 44.1642C115.134 45.0509 114.415 45.7699 113.529 45.7699C112.642 45.7699 111.924 45.0509 111.924 44.1642L111.924 38.5452C111.924 37.6584 112.642 36.9395 113.529 36.9395C114.415 36.9395 115.134 37.6584 115.134 38.5452L115.134 39.7812L120.35 39.7812L120.35 42.9293L115.134 42.9293ZM180.296 92.5254C180.022 92.5254 179.744 92.4554 179.49 92.3085C178.717 91.8624 178.452 90.8737 178.898 90.1L182.947 83.0848C183.393 82.3118 184.381 82.0469 185.155 82.493C185.927 82.9392 186.192 83.9279 185.746 84.7016L181.697 91.7167C181.398 92.2354 180.855 92.5254 180.296 92.5254ZM209.644 15.1858C209.739 15.2024 209.833 15.2104 209.927 15.2104C210.696 15.2104 211.378 14.6586 211.516 13.8744L212.923 5.89696C213.077 5.01761 212.491 4.17881 211.612 4.02396C210.732 3.86849 209.894 4.45595 209.739 5.33531L208.333 13.3128C208.178 14.1921 208.765 15.0309 209.644 15.1858ZM195.334 97.9993C195.241 97.9993 195.147 97.9913 195.051 97.9747C194.172 97.8198 193.586 96.981 193.74 96.1017L195.147 88.1242C195.301 87.2448 196.139 86.658 197.019 86.8129C197.898 86.9677 198.485 87.8065 198.33 88.6859L196.924 96.6633C196.785 97.4475 196.104 97.9993 195.334 97.9993ZM195.147 13.8743C195.285 14.6584 195.967 15.2102 196.736 15.2102C196.83 15.2102 196.924 15.2022 197.019 15.1856C197.898 15.0302 198.485 14.192 198.33 13.3126L196.924 5.33515C196.768 4.45579 195.93 3.86894 195.051 4.0238C194.172 4.17927 193.586 5.01745 193.74 5.89681L195.147 13.8743ZM211.329 97.9993C210.559 97.9993 209.878 97.4475 209.739 96.6633L208.333 88.6859C208.178 87.8065 208.765 86.9683 209.644 86.8129C210.523 86.658 211.361 87.2449 211.516 88.1242L212.923 96.1017C213.077 96.9811 212.491 97.8192 211.612 97.9747C211.516 97.9913 211.422 97.9993 211.329 97.9993ZM182.947 18.9141C183.044 19.0819 183.167 19.2263 183.307 19.3443C183.813 19.7689 184.55 19.8549 185.155 19.5059C185.927 19.0592 186.192 18.0704 185.746 17.2974L181.697 10.2822C181.251 9.50854 180.262 9.24431 179.49 9.69044C178.717 10.1372 178.452 11.1259 178.898 11.899L182.947 18.9141Z" fill="url(#paint0_linear_17_4191)"/>
</g>
<g opacity="0.78" filter="url(#filter1_f_17_4191)">
<path d="M411.346 95.6622C411.406 95.41 411.457 95.1631 411.5 94.9213C412.304 90.3285 410.015 87.6078 408.523 86.3664C407.708 85.688 406.792 85.1529 405.829 84.7701C403.494 83.8425 400.871 83.8063 398.678 84.777L397.881 85.1295L397.543 84.3263C396.614 82.1152 394.681 80.3415 392.346 79.4141C391.382 79.0311 390.35 78.7925 389.291 78.7265C387.354 78.6062 383.822 79.0144 381.256 82.9072C381.121 83.1121 380.988 83.3265 380.859 83.5513C380.545 84.0955 380.286 84.667 380.08 85.2648C379.044 88.2686 379.359 91.9446 381.023 96.2244C381.3 96.9366 381.618 97.6737 381.968 98.4155C382.524 99.5949 383.183 100.83 383.924 102.087C384.736 103.461 385.548 104.666 386.141 105.547C386.45 106.006 386.717 106.402 386.911 106.713C387.275 107.298 387.769 108.125 388.349 109.124C389.458 108.796 390.384 108.532 391.05 108.357C391.405 108.264 391.871 108.159 392.411 108.037C393.447 107.804 394.864 107.484 396.398 107.042C397.799 106.637 399.126 106.19 400.34 105.714C401.103 105.414 401.841 105.096 402.531 104.768C406.678 102.797 409.429 100.339 410.737 97.4428C410.997 96.8664 411.201 96.2728 411.346 95.6622Z" fill="#65C3E8"/>
</g>
<g opacity="0.4" filter="url(#filter2_f_17_4191)">
<path d="M77.7469 222.226C76.3422 221.191 73.1059 219.054 71.3983 218.791C69.6907 218.528 68.2125 219.357 67.6868 219.805C67.1542 220.564 65.5773 222.075 63.5312 222.05C60.9736 222.018 63.0017 222.321 61.5872 221.723C60.1727 221.125 59.6294 221.471 58.7894 221.789C58.1173 222.043 54.9661 221.943 54.4903 221.937L54.2169 221.934C53.8994 221.939 53.1237 221.865 52.5599 221.535C51.8552 221.123 50.205 217.356 47.3641 217.681C45.8137 217.858 44.4284 221.014 44.0446 221.328C43.9022 221.486 43.2725 221.798 41.8925 221.781C40.5126 221.764 31.5825 221.653 30.6507 221.642C30.4709 221.698 30.027 221.861 29.6894 222.059C29.3517 222.256 28.8168 222.94 28.5916 223.256C28.4318 223.305 28.3028 222.574 27.5883 222.891C22.7598 225.032 23.7691 192.424 28.4901 184.285C28.2935 184.207 28.0195 184.2 27.5384 184.274C21.2589 185.237 17.1638 227.04 21.5839 233.296C21.3012 233.519 20.6336 233.753 20.2243 232.9C19.8151 232.047 18.9154 223.17 18.4601 221.364L4.27549 221.498" stroke="#65C3E8" stroke-width="4" stroke-miterlimit="10" stroke-linecap="round"/>
</g>
<g opacity="0.7" filter="url(#filter3_f_17_4191)">
<path d="M466.174 128.404L457.626 130.068C457.586 129.956 457.432 118.086 454.826 126.991C454.29 128.82 453.64 129.811 451.923 129.778C450.207 129.745 450.127 129.743 449.173 129.725C444.192 129.629 446.913 141.53 445.225 134.497C443.908 129.013 442.985 113.17 442.734 96.2902L441.765 67.7029L441.038 74.9708L440.115 95.5114C439.486 114.542 439.36 136.647 440.593 151.154C440.36 151.15 440.371 150.468 439.783 150.052C438.669 149.263 437.149 138.156 436.09 129.473C436.03 129.221 435.675 128.203 435.123 128.369C432.924 129.027 428.138 129.052 425.666 128.187L419.368 116.28C418.035 114.414 417.211 114.323 415.397 115.284C413.583 116.244 410.877 124.154 409.823 127.882L406.73 127.822L404.376 125.243" stroke="#65C3E8" stroke-width="4" stroke-miterlimit="10" stroke-linecap="round"/>
</g>
<g opacity="0.4" filter="url(#filter4_f_17_4191)">
<path d="M153.925 224.537L143.258 225.875C143.209 225.786 143.016 216.238 139.763 223.401C139.096 224.872 138.284 225.669 136.142 225.642C133.999 225.615 133.9 225.614 132.71 225.599C126.494 225.522 129.889 235.096 127.782 229.439C126.139 225.027 123.825 214.002 123.511 200.424L122.474 182.749L122.557 181.555L121.406 198.078C120.621 213.386 120.464 231.168 122.003 242.837C121.712 242.834 121.725 242.286 120.991 241.951C119.601 241.317 117.704 232.382 116.383 225.397C116.308 225.194 115.865 224.376 115.175 224.509C112.431 225.038 106.459 225.058 103.374 224.362L95.5144 214.784C93.8513 213.284 92.8232 213.21 90.5592 213.983C88.2951 214.756 84.9189 221.118 83.6035 224.117L79.743 224.069L76.8056 221.995" stroke="#65C3E8" stroke-width="4" stroke-miterlimit="10" stroke-linecap="round"/>
</g>
<defs>
<filter id="filter0_f_17_4191" x="107.012" y="1.99902" width="129" height="98.0002" filterUnits="userSpaceOnUse" color-interpolation-filters="sRGB">
<feFlood flood-opacity="0" result="BackgroundImageFix"/>
<feBlend mode="normal" in="SourceGraphic" in2="BackgroundImageFix" result="shape"/>
<feGaussianBlur stdDeviation="1" result="effect1_foregroundBlur_17_4191"/>
</filter>
<filter id="filter1_f_17_4191" x="375.484" y="74.709" width="40.1821" height="38.4153" filterUnits="userSpaceOnUse" color-interpolation-filters="sRGB">
<feFlood flood-opacity="0" result="BackgroundImageFix"/>
<feBlend mode="normal" in="SourceGraphic" in2="BackgroundImageFix" result="shape"/>
<feGaussianBlur stdDeviation="2" result="effect1_foregroundBlur_17_4191"/>
</filter>
<filter id="filter2_f_17_4191" x="0.274902" y="180.222" width="81.4727" height="57.2815" filterUnits="userSpaceOnUse" color-interpolation-filters="sRGB">
<feFlood flood-opacity="0" result="BackgroundImageFix"/>
<feBlend mode="normal" in="SourceGraphic" in2="BackgroundImageFix" result="shape"/>
<feGaussianBlur stdDeviation="1" result="effect1_foregroundBlur_17_4191"/>
</filter>
<filter id="filter3_f_17_4191" x="400.376" y="65.4944" width="69.7979" height="89.7019" filterUnits="userSpaceOnUse" color-interpolation-filters="sRGB">
<feFlood flood-opacity="0" result="BackgroundImageFix"/>
<feBlend mode="normal" in="SourceGraphic" in2="BackgroundImageFix" result="shape"/>
<feGaussianBlur stdDeviation="1" result="effect1_foregroundBlur_17_4191"/>
</filter>
<filter id="filter4_f_17_4191" x="72.8052" y="179.436" width="85.1206" height="67.4299" filterUnits="userSpaceOnUse" color-interpolation-filters="sRGB">
<feFlood flood-opacity="0" result="BackgroundImageFix"/>
<feBlend mode="normal" in="SourceGraphic" in2="BackgroundImageFix" result="shape"/>
<feGaussianBlur stdDeviation="1" result="effect1_foregroundBlur_17_4191"/>
</filter>
<linearGradient id="paint0_linear_17_4191" x1="149.998" y1="29.5" x2="161.844" y2="89.0584" gradientUnits="userSpaceOnUse">
<stop stop-color="#65C3E8"/>
<stop offset="0.503944" stop-color="#65C3E8" stop-opacity="0.773644"/>
<stop offset="1" stop-color="#65C3E8" stop-opacity="0.2"/>
</linearGradient>
</defs>
</svg>
