<svg width="124" height="36" viewBox="0 0 124 36" fill="none" xmlns="http://www.w3.org/2000/svg">
<path d="M46.3124 23.413L48.1139 26.7717C47.2414 27.4556 46.217 27.9956 45.0443 28.3988C43.8716 28.7984 42.5151 29 40.9821 29C39.0676 29 37.3827 28.5968 35.9238 27.794C34.4685 26.9877 33.3346 25.8501 32.5222 24.3813C31.7097 22.909 31.3035 21.181 31.3035 19.1939C31.3035 17.7467 31.5402 16.4184 32.0171 15.2124C32.4939 14.0064 33.1686 12.9625 34.0411 12.0769C34.9136 11.1913 35.945 10.5073 37.1319 10.0249C38.3187 9.54256 39.6186 9.30496 41.0316 9.30496C42.5328 9.30496 43.8009 9.49936 44.8429 9.88455C45.885 10.2733 46.8211 10.8169 47.6476 11.5153L45.6624 14.7948C45.1255 14.2548 44.4862 13.8516 43.7479 13.5816C43.0097 13.3116 42.1937 13.1785 41.293 13.1785C40.3922 13.1785 39.5515 13.3188 38.8239 13.596C38.0962 13.8732 37.478 14.2728 36.9694 14.7912C36.4607 15.3096 36.0722 15.9324 35.8037 16.6668C35.5353 17.4011 35.401 18.2255 35.401 19.1435C35.401 20.4034 35.6412 21.4762 36.1216 22.3618C36.602 23.2474 37.2908 23.9277 38.188 24.4065C39.0852 24.8817 40.1555 25.1229 41.3989 25.1229C42.2643 25.1229 43.1121 24.9897 43.9493 24.7197C44.7829 24.4497 45.5706 24.0177 46.3124 23.4238V23.413ZM24.2601 28.5932H28.1774V9.70455H24.2601V28.5932ZM26.217 1C26.217 3.93752 25.4752 4.69349 22.5928 4.69349C25.4752 4.69349 26.217 5.44947 26.217 8.38699C26.217 5.44947 26.9588 4.69349 29.8411 4.69349C26.9588 4.69349 26.217 3.93752 26.217 1ZM49.6469 13.3476H54.677V28.5932H58.6226V13.3476H63.6526V9.70455H49.6469V13.3476ZM10.2014 20.5006L3.77253 9.70455H0V28.5932H3.58885L3.5288 16.2312L8.70013 24.8673H11.3741L16.33 16.332L16.2699 28.5896H20.0707V9.70455H16.3229L10.2014 20.5006ZM101.396 1C101.396 3.93752 100.654 4.69349 97.7714 4.69349C100.654 4.69349 101.396 5.44947 101.396 8.38699C101.396 5.44947 102.137 4.69349 105.02 4.69349C102.137 4.69349 101.396 3.93752 101.396 1ZM121 9.70455V28.5932H117.083V21.415H115.122L110.53 28.5932H106.03L111.233 20.821C109.908 20.4538 108.874 19.8203 108.128 18.9275C107.383 18.0311 107.008 16.9115 107.008 15.5616C107.008 14.3124 107.291 13.2505 107.856 12.3757C108.421 11.5045 109.223 10.8385 110.265 10.3849C111.307 9.93134 112.526 9.70455 113.918 9.70455H121ZM117.083 13.0093H114.158C113.162 13.0093 112.378 13.2181 111.809 13.6356C111.24 14.0532 110.954 14.694 110.954 15.558C110.954 16.422 111.219 17.0879 111.749 17.5271C112.279 17.9663 113.045 18.1895 114.052 18.1895H117.083V13.0093ZM99.4387 28.5932H103.356V9.70455H99.4387V28.5932ZM70.1627 20.4574H77.5771V17.2319H70.1627V13.1857H78.9123V9.70455H66.2418V28.5932H79.0147V25.0725H70.1592V20.4574H70.1627ZM95.8498 12.5161C96.4503 13.4304 96.7505 14.5248 96.7505 15.8028C96.7505 17.0807 96.4715 18.2111 95.9169 19.1147C95.3623 20.0183 94.557 20.7058 93.5008 21.1774C92.4446 21.649 91.1695 21.8866 89.6682 21.8866H86.4927V28.5932H82.5753V9.70455H89.7636C91.1236 9.70455 92.3281 9.94575 93.3772 10.4245C94.4263 10.9069 95.2528 11.6017 95.8533 12.5161H95.8498ZM92.8332 15.8856C92.8332 14.9604 92.54 14.2728 91.9607 13.8228C91.3779 13.3728 90.6008 13.1497 89.6294 13.1497H86.4927V18.5315H89.6046C90.6184 18.5315 91.4132 18.3191 91.9819 17.8979C92.5506 17.4767 92.8367 16.8035 92.8367 15.8892L92.8332 15.8856Z" fill="white"/>
</svg>
