<svg width="109" height="20" viewBox="0 0 109 20" fill="none" xmlns="http://www.w3.org/2000/svg">
<path d="M9.94212 0C10.6086 0.0626305 11.0044 0.167015 11.5042 0.334029C14.4827 1.35699 16.2531 6.36743 10.7753 9.1858C10.7336 9.20668 10.5045 9.33194 10.4628 9.33194C10.2754 9.41545 10.0879 9.49896 9.87964 9.58246C6.44296 11.0647 4.40178 11.4823 3.48533 13.737C2.38143 16.7641 4.73503 19.9165 10.0046 20C9.3381 19.9374 8.92153 19.833 8.42165 19.666C5.42237 18.6639 3.65196 13.6534 9.15064 10.8142C9.1923 10.7933 9.44224 10.6681 9.46307 10.6681C9.65052 10.5846 9.83798 10.5219 10.0254 10.4175C13.4621 8.93528 15.5033 8.51775 16.4197 6.26305C17.5445 3.25678 15.2117 0.0835073 9.94212 0Z" fill="white"/>
<path d="M9.75416 1.00242C8.48363 0.313489 7.02565 0.334365 5.81761 0.89804C5.40105 1.08593 3.46402 2.00451 1.96439 4.02956C0.798003 5.6162 0.152327 7.45336 0.0273576 9.29052C-0.160097 11.8792 0.631377 14.1131 1.92273 15.9085C0.985457 14.5097 1.19374 12.3803 2.86 11.2529C4.88034 9.89595 7.60884 9.60368 9.12931 9.04C10.1291 8.68509 11.0039 7.97528 11.5454 6.95232C12.6909 4.82288 11.8995 2.15065 9.75416 1.00242Z" fill="white"/>
<path d="M18.0015 4.09283C18.9388 5.49158 18.7514 7.62102 17.0643 8.74837C15.0439 10.1054 12.3363 10.4185 10.795 10.9613C9.79521 11.2953 8.89959 12.026 8.35806 13.049C7.2125 15.1993 8.02481 17.8715 10.1493 19.0198C11.4198 19.7087 12.8778 19.6878 14.0858 19.1242C14.5024 18.9363 16.4394 18.0177 17.9391 15.9926C19.1054 14.406 19.7511 12.5688 19.8761 10.7317C20.0635 8.12206 19.2929 5.88824 18.0015 4.09283Z" fill="white"/>
<path d="M28.1317 15.4697L28.6941 15.4071C29.3606 15.3445 29.4231 15.1357 29.2564 14.572C29.1315 14.1336 28.6108 12.7349 28.1109 11.4405H24.4659C24.2785 11.8998 23.8203 13.3194 23.5703 14.071C23.2371 15.1148 23.3829 15.3445 24.1952 15.428L24.7367 15.4697V15.8873H20.9043V15.4697C21.0501 15.4488 21.1959 15.4488 21.3209 15.428C22.1123 15.3027 22.2998 15.0313 22.8413 13.6534L26.4446 4.27975L26.9028 4.11273L28.215 7.32776C29.0481 9.60334 29.8396 11.8998 30.5478 13.7369C31.1101 15.2401 31.3601 15.3862 32.464 15.4697V15.8873H28.1317V15.4697ZM24.7159 10.7516H27.8818L26.2988 6.32568H26.2572L24.7159 10.7516Z" fill="white"/>
<path d="M41.1921 14.666C40.7131 14.1232 40.3382 13.6639 39.6925 12.7035C39.151 11.9102 38.422 10.6576 38.0887 10.1357C39.5467 9.55115 40.4631 8.48643 40.4631 6.9833C40.4631 5.93946 40.0049 5.12526 39.2759 4.68685C38.6094 4.22756 37.5888 4.08142 36.4433 4.08142H33.4648V4.66597H35.1103C35.3186 4.66597 35.7143 4.66597 36.1309 4.66597C37.4847 4.66597 38.8385 5.35491 38.8385 7.23382C38.8385 8.11065 38.5678 8.98747 37.7971 9.61378C37.3181 10.0104 36.7349 10.0313 36.0059 10.0313H33.4648V10.6367H35.9434C36.5058 10.6367 36.7974 10.8246 37.0681 11.2839C37.568 12.1399 38.3178 13.4342 38.8802 14.2484C39.5675 15.2505 40.1924 15.8559 42.2544 15.9186H42.5043L42.546 15.5845C41.9003 15.3967 41.5879 15.1044 41.1921 14.666Z" fill="white"/>
<path d="M43.7324 4.15448C43.6699 4.98955 43.6074 5.94989 43.5449 6.86847H44.0031C44.2114 6.07515 44.4405 5.5741 44.628 5.32358C44.8988 4.98955 45.3778 4.73903 46.9816 4.73903H47.8147V13.2359C47.8147 15.1983 47.6689 15.3236 46.0027 15.428V15.8455H51.2305V15.428C49.481 15.3236 49.3352 15.1983 49.3352 13.2359V4.73903H50.5432C51.6471 4.73903 52.2095 4.86429 52.5219 5.2192C52.7927 5.51147 52.9801 6.01252 53.1676 6.86847H53.605C53.5425 5.99164 53.4592 4.90605 53.4175 4.15448H43.7324Z" fill="white"/>
<path d="M56.3759 6.75365C56.3759 4.79122 56.2301 4.66596 54.7929 4.56158V4.14404H62.6452C62.666 4.4572 62.7493 5.77243 62.8326 6.77452L62.3744 6.83715C62.2078 5.93945 61.9995 5.45928 61.7287 5.16701C61.4371 4.85385 60.8539 4.72859 59.75 4.72859H58.3962C57.8963 4.72859 57.8547 4.77035 57.8547 5.29227V9.50939H59.6667C61.208 9.50939 61.2705 9.405 61.4371 8.06889H61.8954V11.5553H61.4371C61.3538 10.8873 61.2913 10.5324 61.0622 10.3236C60.8331 10.1148 60.4374 10.0939 59.6667 10.0939H57.8547V13.2672C57.8547 14.2902 57.9588 14.833 58.3129 15.0417C58.6461 15.2714 59.2918 15.2714 60.1458 15.2714C61.1664 15.2714 61.9995 15.1879 62.3952 14.7495C62.7077 14.4154 62.9784 13.81 63.2492 12.9749L63.7074 13.0167C63.6241 13.5177 63.2284 15.3549 63.0826 15.8559H54.6055V15.4384C56.2092 15.334 56.355 15.2088 56.355 13.2463V6.75365H56.3759Z" fill="white"/>
<path d="M72.4343 14.6764C71.9553 14.1336 71.5804 13.6534 70.9347 12.6931C70.3932 11.8998 69.6642 10.6472 69.3309 10.1253C70.7889 9.54071 71.7053 8.47599 71.7053 6.97286C71.7053 5.92902 71.2471 5.11483 70.5181 4.67641C69.8516 4.21712 68.831 4.07098 67.6855 4.07098H64.707V4.65554H66.3525C66.5608 4.65554 66.9565 4.65554 67.3731 4.65554C68.7269 4.65554 70.0807 5.34447 70.0807 7.22338C70.0807 8.10021 69.81 8.97704 69.0393 9.60334C68.5603 10 67.9771 10.0209 67.2481 10.0209H64.707V10.6263H67.1856C67.748 10.6263 68.0396 10.8142 68.3103 11.2735C68.8102 12.1294 69.56 13.4447 70.1224 14.2589C70.8097 15.261 71.4346 15.8873 73.4966 15.929H73.7465L73.7882 15.595C73.1425 15.428 72.8092 15.1357 72.4343 14.6764Z" fill="white"/>
<path d="M77.9133 13.2359C77.9133 15.1983 78.0591 15.3236 79.5171 15.428V15.8455H74.7891V15.428C76.247 15.3236 76.3928 15.1983 76.3928 13.2359V6.76408C76.3928 4.80166 76.247 4.6764 74.7891 4.57202V4.15448H79.5171V4.57202C78.0383 4.6764 77.9133 4.80166 77.9133 6.76408V13.2359Z" fill="white"/>
<path d="M85.2645 4.13361V4.55114C83.8273 4.65553 83.6815 4.78079 83.6815 6.74321V10.2714C83.6815 11.7954 83.8898 12.9645 84.4313 13.7578C84.9937 14.5511 85.806 15.0104 87.014 15.0104C88.1388 15.0104 89.076 14.5303 89.6384 13.6743C90.2216 12.7766 90.4299 11.19 90.4299 9.66597V8.93528C90.4299 7.03548 90.3674 6.05427 90.2841 5.4906C90.2008 4.86429 89.7009 4.61377 88.5345 4.55114V4.13361H92.8251V4.55114C91.8462 4.5929 91.388 4.86429 91.2838 5.4906C91.2214 6.05427 91.138 7.03548 91.138 8.93528V9.89561C91.138 11.9833 90.8048 13.4655 89.7842 14.572C89.0136 15.4071 87.7222 15.8664 86.4725 15.8664C85.4936 15.8664 84.348 15.6367 83.5357 14.9478C82.5776 14.1754 82.1611 12.9436 82.1611 10.8977V6.74321C82.1611 4.78079 82.0153 4.65553 80.5156 4.55114V4.13361H85.2645Z" fill="white"/>
<path d="M97.0962 4.16492L101.428 13.4342L105.698 4.16492H108.656V4.58246C107.094 4.70772 106.99 4.79122 107.052 6.77452L107.198 13.2463C107.26 15.2714 107.302 15.3131 108.885 15.4384V15.8559H104.157V15.4384C105.657 15.3131 105.719 15.2714 105.698 13.2463L105.636 5.9812H105.573L101.179 15.6472H100.7L96.5547 6.23173H96.5338L96.3464 11.263C96.2839 12.9541 96.2839 13.9562 96.3464 14.4989C96.4297 15.167 96.8671 15.3549 98.0335 15.4384V15.8559H93.8262V15.4384C94.8259 15.3549 95.2008 15.167 95.3258 14.4989C95.43 13.9353 95.5341 12.8706 95.6382 11.0751L95.8257 7.29644C95.9507 4.87473 95.8257 4.68684 94.1386 4.56158V4.14404H97.0962V4.16492Z" fill="white"/>
</svg>
