<svg width="140" height="32" viewBox="0 0 140 32" fill="none" xmlns="http://www.w3.org/2000/svg">
<path d="M53.5846 25.6148L55.669 29.4533C54.6595 30.235 53.4742 30.8521 52.1174 31.3129C50.7605 31.7696 49.1911 32 47.4173 32C45.2022 32 43.2527 31.5392 41.5647 30.6218C39.8809 29.7002 38.569 28.4001 37.629 26.7215C36.6889 25.0388 36.2189 23.064 36.2189 20.793C36.2189 19.1391 36.4928 17.621 37.0445 16.2427C37.5963 14.8645 38.3769 13.6714 39.3864 12.6593C40.3959 11.6472 41.5893 10.8655 42.9625 10.3142C44.3357 9.76292 45.8397 9.49139 47.4745 9.49139C49.2115 9.49139 50.6787 9.71355 51.8844 10.1538C53.0901 10.5981 54.1731 11.2193 55.1295 12.0175L52.8326 15.7655C52.2114 15.1484 51.4716 14.6876 50.6174 14.379C49.7632 14.0705 48.8192 13.9182 47.777 13.9182C46.7348 13.9182 45.7621 14.0787 44.9202 14.3955C44.0782 14.7123 43.363 15.1689 42.7745 15.7614C42.186 16.3538 41.7364 17.0656 41.4258 17.9049C41.1152 18.7442 40.9599 19.6863 40.9599 20.7354C40.9599 22.1754 41.2378 23.4014 41.7936 24.4135C42.3494 25.4256 43.1464 26.2031 44.1845 26.7503C45.2226 27.2934 46.461 27.569 47.8996 27.569C48.9009 27.569 49.8818 27.4168 50.8504 27.1083C51.8149 26.7997 52.7263 26.306 53.5846 25.6272V25.6148ZM28.0695 31.5351H32.602V9.94806H28.0695V31.5351ZM30.3337 0C30.3337 3.35716 29.4754 4.22114 26.1404 4.22114C29.4754 4.22114 30.3337 5.08511 30.3337 8.44227C30.3337 5.08511 31.1919 4.22114 34.5269 4.22114C31.1919 4.22114 30.3337 3.35716 30.3337 0ZM57.4427 14.1116H63.2626V31.5351H67.8278V14.1116H73.6476V9.94806H57.4427V14.1116ZM11.8032 22.2864L4.36491 9.94806H0V31.5351H4.15239L4.08291 17.407L10.0663 27.2769H13.1601L18.8942 17.5222L18.8247 31.531H23.2223V9.94806H18.886L11.8032 22.2864ZM117.317 0C117.317 3.35716 116.459 4.22114 113.124 4.22114C116.459 4.22114 117.317 5.08511 117.317 8.44227C117.317 5.08511 118.175 4.22114 121.51 4.22114C118.175 4.22114 117.317 3.35716 117.317 0ZM140 9.94806V31.5351H135.468V23.3314H133.199L127.886 31.5351H122.679L128.699 22.6526C127.167 22.233 125.969 21.5089 125.107 20.4886C124.245 19.4641 123.811 18.1846 123.811 16.6418C123.811 15.2142 124.138 14.0005 124.792 13.0008C125.446 12.0051 126.374 11.244 127.58 10.7256C128.785 10.2073 130.195 9.94806 131.806 9.94806H140ZM135.468 13.7249H132.083C130.931 13.7249 130.024 13.9635 129.366 14.4407C128.708 14.918 128.377 15.6503 128.377 16.6377C128.377 17.6251 128.683 18.3862 129.296 18.8881C129.909 19.3901 130.796 19.6452 131.961 19.6452H135.468V13.7249ZM115.053 31.5351H119.585V9.94806H115.053V31.5351ZM81.18 22.2371H89.7586V18.5508H81.18V13.9265H91.3035V9.94806H76.6434V31.5351H91.422V27.5114H81.1759V22.2371H81.18ZM110.901 13.1612C111.595 14.2062 111.943 15.4569 111.943 16.9175C111.943 18.378 111.62 19.6698 110.978 20.7025C110.337 21.7352 109.405 22.521 108.183 23.0599C106.961 23.5989 105.485 23.8704 103.748 23.8704H100.074V31.5351H95.5417V9.94806H103.859C105.432 9.94806 106.826 10.2237 108.04 10.7709C109.254 11.3222 110.21 12.1162 110.905 13.1612H110.901ZM107.41 17.0121C107.41 15.9547 107.071 15.1689 106.401 14.6547C105.726 14.1404 104.827 13.8853 103.703 13.8853H100.074V20.036H103.675C104.848 20.036 105.767 19.7933 106.425 19.3119C107.083 18.8305 107.414 18.0612 107.414 17.0162L107.41 17.0121Z" fill="white"/>
</svg>
