<svg width="28" height="28" viewBox="0 0 28 28" fill="none" xmlns="http://www.w3.org/2000/svg">
<path d="M21.5247 2.7998H22.3136C22.4109 2.82479 22.5077 2.85021 22.605 2.87432C23.6796 3.14212 24.4067 3.82368 24.8401 4.816C25.0088 5.20215 25.0833 5.62905 25.2008 6.03711V6.95755C25.1839 6.98848 25.1706 7.02129 25.1613 7.05529C24.997 8.08399 24.6311 9.03292 24.0219 9.8806C23.6568 10.3903 23.2225 10.8326 22.6195 11.0566C22.4442 11.1214 22.3951 11.199 22.3955 11.3787C22.4012 14.2509 22.4091 17.1231 22.3903 19.9953C22.3886 20.5037 22.3198 21.0097 22.1856 21.5C21.512 23.8971 19.1358 25.5061 16.6316 25.1507C14.5118 24.8495 13.1037 23.642 12.392 21.6315C12.2605 21.2528 12.207 20.8426 12.1154 20.4398C12.0392 20.4398 11.9454 20.4354 11.8525 20.4398C11.4304 20.4634 11.0088 20.502 10.5868 20.5125C8.83772 20.5564 7.08997 20.5318 5.35273 20.2934C4.67563 20.2005 3.99896 20.0891 3.37664 19.7845C3.06987 19.635 2.79991 19.4628 2.80078 19.0464C2.80692 14.7455 2.80692 10.4445 2.80078 6.14362C2.80078 5.89072 2.88843 5.68691 3.10756 5.58259C3.4643 5.40946 3.82717 5.22932 4.20801 5.12939C5.42548 4.8103 6.67888 4.73491 7.92966 4.69108C9.72912 4.63104 11.5282 4.65646 13.3167 4.90322C13.9797 4.99439 14.638 5.11142 15.2555 5.38843C15.6679 5.57383 15.9129 5.83988 15.8879 6.34524C15.8506 7.0794 15.8835 7.8175 15.8743 8.55342C15.8743 8.72874 15.9221 8.8164 16.0869 8.89836C17.8802 9.77497 18.9552 11.8218 18.6244 13.7482C18.35 15.348 17.4849 16.524 16.0321 17.2586C15.9199 17.3151 15.873 17.3747 15.8752 17.5036C15.8831 18.0138 15.8752 18.5239 15.88 19.0341C15.8826 19.2822 15.7867 19.4724 15.5838 19.6083C15.4703 19.6867 15.3507 19.7557 15.2261 19.8147C14.617 20.0922 13.9635 20.1996 13.3083 20.2903C13.1637 20.3105 13.0892 20.3438 13.123 20.502C13.1668 20.7212 13.1905 20.9478 13.247 21.1647C13.7019 22.9008 15.3024 24.2223 17.1619 24.2473C18.5411 24.2662 19.6687 23.7389 20.5386 22.6769C21.1921 21.8787 21.4655 20.9473 21.459 19.9208C21.452 18.0984 21.459 16.2759 21.459 14.4534C21.459 13.433 21.4546 12.4122 21.4629 11.3919C21.4629 11.2082 21.4314 11.1026 21.2324 11.0478C21.0685 11.004 20.9147 10.9032 20.7718 10.805C20.0956 10.3421 19.6464 9.69037 19.3058 8.96411C18.7997 7.88456 18.4859 6.76558 18.7747 5.56243C19.0595 4.37594 19.7051 3.47129 20.8651 2.99704C21.0764 2.91113 21.3043 2.86467 21.5247 2.7998ZM14.0074 9.34368C13.0191 9.34211 12.0707 9.73323 11.3708 10.431C10.6709 11.1288 10.2768 12.0761 10.2752 13.0644C10.2736 14.0528 10.6647 15.0013 11.3624 15.7013C12.0601 16.4013 13.0073 16.7955 13.9955 16.797C16.0286 16.8049 17.7123 15.1315 17.7237 13.0934C17.7279 12.6026 17.6349 12.1158 17.45 11.6611C17.2651 11.2064 16.992 10.7929 16.6465 10.4443C16.301 10.0957 15.8899 9.81897 15.437 9.63007C14.984 9.44117 14.4981 9.34383 14.0074 9.34368ZM4.37762 6.06604C7.66007 6.66499 11.0238 6.66499 14.3062 6.06604C11.0238 5.46666 7.66003 5.46666 4.37762 6.06604Z" fill="#00ACDB"/>
</svg>
