<svg width="28" height="28" viewBox="0 0 28 28" fill="none" xmlns="http://www.w3.org/2000/svg">
<path d="M12.8249 6.04849C13.6585 4.60474 15.7423 4.60474 16.5759 6.04849L22.8275 16.8766C23.661 18.3204 22.6191 20.125 20.952 20.125H8.44877C6.78167 20.125 5.73973 18.3204 6.57328 16.8766L12.8249 6.04849Z" fill="#00ACDB"/>
<path d="M14.7003 17.2375C14.3022 17.2375 13.9785 16.9138 13.9785 16.5157C13.9785 16.1177 14.3022 15.7937 14.7003 15.7937C15.0983 15.7937 15.4223 16.1178 15.4223 16.5157C15.4223 16.9137 15.0984 17.2375 14.7003 17.2375Z" fill="#014589"/>
<path d="M14.2454 14.0174C14.3373 14.5229 15.0619 14.5229 15.1538 14.0174L15.8851 9.99546C16.0196 9.25583 15.4514 8.575 14.6996 8.575C13.9479 8.575 13.3796 9.25583 13.5141 9.99546L14.2454 14.0174Z" fill="#014589"/>
<circle cx="14.35" cy="13.9999" r="11.9" stroke="#00ACDB" stroke-width="1.4"/>
<path d="M22.7504 6.30005L17.1504 11.9" stroke="#00ACDB" stroke-width="1.4" stroke-linecap="round"/>
<path d="M5.95117 22.4L9.97617 18.375" stroke="#00ACDB" stroke-width="1.4" stroke-linecap="round"/>
</svg>
