<svg width="28" height="28" viewBox="0 0 28 28" fill="none" xmlns="http://www.w3.org/2000/svg">
<path d="M9.76758 14.3215C9.76758 16.6552 11.6475 18.5352 13.9812 18.5352C16.3149 18.5352 18.1948 16.6552 18.1948 14.3215C18.1948 11.9878 16.3149 10.1079 13.9812 10.1079C11.6475 10.1079 9.76758 11.9878 9.76758 14.3215Z" fill="#00ACDB"/>
<path d="M25.1321 19.0863L23.2846 13.7382C22.9604 12.8631 22.0853 12.2473 21.1453 12.4093C19.9461 12.6038 19.2978 13.8031 19.6544 14.9051L20.9833 18.6974C19.6868 19.1187 17.3855 19.6697 13.9822 19.6697C10.5789 19.6697 8.27757 19.1511 6.98107 18.6974L8.27757 14.9699C8.60169 14.0948 8.24516 13.0576 7.43484 12.6038C6.36523 12.0528 5.10114 12.5714 4.7446 13.641L2.86468 19.0863C2.57297 19.8966 2.89709 20.8042 3.61017 21.2904C3.86947 21.4524 5.68457 22.5545 9.47683 23.1055L9.41201 26.4576C9.41201 26.9438 9.80096 27.3003 10.2547 27.3003H17.742C18.2282 27.3003 18.5847 26.9114 18.5847 26.4576L18.5199 23.1055C22.3122 22.5545 24.1273 21.4524 24.3866 21.2904C25.0997 20.8042 25.4238 19.8966 25.1321 19.0863Z" fill="#00ACDB"/>
<path d="M10.9333 9.03832C10.9981 9.13555 11.0954 9.16797 11.225 9.16797C11.2899 9.16797 11.3871 9.13555 11.4519 9.10314C11.614 9.0059 11.6788 8.81143 11.5816 8.61695L10.3175 5.99154L12.0029 5.60259C12.1326 5.57018 12.2298 5.50535 12.2622 5.3757C12.3271 5.27846 12.2947 5.14881 12.2622 5.01916L9.96095 0.902774C9.86371 0.740711 9.70165 0.675886 9.53959 0.708298L7.59484 1.16207C7.46519 1.19449 7.36795 1.29172 7.33554 1.38896C7.30312 1.51861 7.30312 1.64826 7.36795 1.7455L8.98857 4.0792L7.43277 4.43574C7.30312 4.46815 7.20589 4.56539 7.14106 4.69504C7.10865 4.82469 7.14106 4.95434 7.2383 5.08399L10.9333 9.03832Z" fill="#00ACDB"/>
<path d="M15.9896 5.6024L17.675 5.99135L16.4109 8.61677C16.3137 8.77883 16.3785 8.9733 16.5406 9.10295C16.6054 9.13537 16.6702 9.16778 16.7675 9.16778C16.8647 9.16778 16.9619 9.13537 17.0592 9.03813L20.7218 5.0838C20.819 4.98657 20.8514 4.85691 20.819 4.69485C20.7866 4.5652 20.657 4.46796 20.5273 4.43555L18.9391 4.11143L20.5597 1.77773C20.6245 1.68049 20.657 1.55084 20.5921 1.42119C20.5597 1.29154 20.4301 1.22671 20.3328 1.1943L18.3881 0.740525C18.226 0.708112 18.0315 0.772938 17.9667 0.935L15.7303 5.0838C15.6654 5.18104 15.6654 5.31069 15.7303 5.44034C15.7951 5.50517 15.8923 5.56999 15.9896 5.6024Z" fill="#00ACDB"/>
</svg>
