<svg width="40" height="40" viewBox="0 0 40 40" fill="none" xmlns="http://www.w3.org/2000/svg">
<path fill-rule="evenodd" clip-rule="evenodd" d="M23.1793 8.64063C21.9885 6.57813 19.0115 6.57812 17.8207 8.64062L8.88983 24.1094C7.69905 26.1719 9.18753 28.75 11.5691 28.75H29.4309C31.8124 28.75 33.3009 26.1719 32.1101 24.1094L23.1793 8.64063ZM21.1489 20.0249L22.1935 14.2792C22.3857 13.2226 21.5739 12.25 20.5 12.25C19.4261 12.25 18.6143 13.2226 18.8064 14.2792L19.8511 20.0249C19.9824 20.747 21.0176 20.747 21.1489 20.0249ZM20.4998 24.625C19.9311 24.625 19.4687 24.1626 19.4687 23.594C19.4687 23.0254 19.9311 22.5625 20.4998 22.5625C21.0685 22.5625 21.5312 23.0255 21.5312 23.594C21.5312 24.1625 21.0686 24.625 20.4998 24.625Z" fill="#00ACDB"/>
<circle cx="20" cy="20" r="17" stroke="#00ACDB" stroke-width="2"/>
<path d="M32 9L24 17" stroke="#00ACDB" stroke-width="2" stroke-linecap="round"/>
<path d="M8 32L13.75 26.25" stroke="#00ACDB" stroke-width="2" stroke-linecap="round"/>
</svg>
