<svg width="28" height="28" viewBox="0 0 28 28" fill="none" xmlns="http://www.w3.org/2000/svg">
<path d="M22.4292 18.5539C22.2378 19.6656 22.0463 20.7783 21.8404 21.889C21.7711 22.314 21.5526 22.7026 21.222 22.9886C20.8914 23.2746 20.4692 23.4404 20.0271 23.4579C19.3913 23.4914 18.7527 23.471 18.1122 23.4738H17.8192C17.8135 23.578 17.8058 23.6535 17.8058 23.7289C17.8058 24.1628 17.8058 24.5966 17.8058 25.0324C17.8058 25.7195 17.4755 25.997 16.7804 25.8704C14.6415 25.4787 12.5033 25.0824 10.3657 24.6814L6.99459 24.0585C6.56662 23.9793 6.34737 23.7279 6.34737 23.2996C6.34737 21.619 6.34737 19.9384 6.33971 18.2578C6.33472 18.1237 6.28153 17.9955 6.18939 17.8956C4.71687 16.3891 3.83029 14.6126 3.57179 12.5466C2.98202 7.83061 6.0812 3.43218 10.8415 2.37353C14.0393 1.66219 16.9738 2.34188 19.5225 4.37629C20.8629 5.4489 21.6643 6.89022 22.1688 8.48889C22.6245 9.88853 22.7473 11.3706 22.5279 12.8231C22.5255 12.922 22.5538 13.0194 22.6092 13.1024C23.1636 14.0679 23.7342 15.0242 24.2771 15.9953C24.406 16.2187 24.4812 16.4675 24.4969 16.7232C24.5126 16.9789 24.4685 17.2348 24.3678 17.4715C24.2672 17.7082 24.1127 17.9196 23.9158 18.0899C23.719 18.2601 23.4851 18.3847 23.2316 18.4543C22.9798 18.5176 22.7117 18.5195 22.4292 18.5539ZM13.6908 9.14996V8.85201C13.6908 7.9349 13.6908 7.01778 13.6908 6.10159C13.6908 5.71799 13.5137 5.44984 13.1997 5.33904C12.8272 5.20496 12.4902 5.34462 12.2537 5.74126C10.9612 7.90883 9.66995 10.077 8.37998 12.2458C8.02382 12.8445 8.3503 13.4004 9.0588 13.4041C9.83623 13.4087 10.6137 13.4041 11.3901 13.4041H11.6726V13.7058C11.6726 14.6145 11.6726 15.5232 11.6726 16.432C11.6726 16.8621 11.8755 17.1508 12.2317 17.2439C12.5879 17.337 12.8933 17.1834 13.1116 16.8193C14.406 14.6536 15.6995 12.4873 16.992 10.3203C17.0489 10.2321 17.0918 10.136 17.1194 10.0354C17.1476 9.92973 17.1502 9.81909 17.1269 9.71225C17.1036 9.60541 17.0551 9.50531 16.9852 9.41986C16.9152 9.33441 16.8258 9.26597 16.724 9.21993C16.6221 9.17389 16.5107 9.15153 16.3984 9.15462C15.5071 9.14344 14.6147 9.14903 13.6908 9.14903V9.14996Z" fill="#00ACDB"/>
</svg>
