<svg width="28" height="28" viewBox="0 0 28 28" fill="none" xmlns="http://www.w3.org/2000/svg">
<path d="M27.3586 12.6023C25.0385 13.9819 22.4619 13.5226 20.8606 13.0812C19.2599 12.6392 16.8048 11.7088 15.466 9.3195C14.1272 6.93019 8.86768 24.7936 17.2154 27.098C25.5631 29.4018 29.6792 11.2227 27.3586 12.6023ZM16.8053 14.6971C18.6051 14.6882 18.226 16.7724 18.226 16.7724C16.8633 16.9853 14.8726 15.8465 14.8726 15.8465C14.8726 15.8465 15.0055 14.705 16.8053 14.6971ZM17.9509 24.2706C14.7342 23.4458 15.23 19.4165 15.5512 20.1373C15.8734 20.8576 17.3895 21.7175 18.5324 22.0333C19.6765 22.349 21.4069 22.3853 22.035 21.9276C22.6621 21.4689 21.1367 25.2138 17.9509 24.2706ZM24.706 18.5605C24.706 18.5605 22.4283 18.5214 21.3515 17.6352C21.3515 17.6352 22.035 15.6359 23.5891 16.5696C25.1443 17.5033 24.706 18.5605 24.706 18.5605Z" fill="#00ACDB"/>
<path d="M11.0899 15.9019C10.7632 15.96 10.4434 16.0309 10.1596 16.1103C9.02921 16.4254 7.49056 17.139 7.11877 17.6486C6.74698 18.1576 6.61286 15.518 9.78996 14.672C10.3141 14.5189 10.7782 14.4625 11.1929 14.4636C11.216 14.2311 11.2347 14.0015 11.2653 13.764C11.3565 13.0404 11.5491 11.9044 11.8383 10.7432C10.3881 10.9321 10.2487 9.0591 10.2487 9.0591C10.8656 8.77747 11.7127 8.77468 12.4102 8.84397C12.8995 7.5219 13.9297 6.64999 14.6996 6.64999C15.3996 5.9479 13.9996 1.04999 13.0942 3.01928C11.7696 5.40917 9.34306 6.33897 7.7588 6.78097C6.17562 7.2224 3.62729 7.68115 1.33325 6.30209C-0.96132 4.92192 2.7386 23.3692 10.9941 21.0654C11.0644 21.0452 11.1315 21.0223 11.1996 21C10.8176 19.6103 10.8496 17.15 11.0899 15.9019ZM5.8548 12.4335C4.13427 12.9057 3.72332 11.839 3.72332 11.839C3.72332 11.839 5.34245 10.2079 6.69709 10.0504C6.69709 10.0504 7.5764 11.9614 5.8548 12.4335Z" fill="#00ACDB"/>
</svg>
