<svg width="28" height="28" viewBox="0 0 28 28" fill="none" xmlns="http://www.w3.org/2000/svg">
<path d="M23.5878 12.2654C24.1422 13.231 24.7139 14.1873 25.2558 15.1595C25.3843 15.3834 25.4588 15.6327 25.4738 15.8886C25.4887 16.1446 25.4437 16.4005 25.342 16.6371C25.2404 16.8736 25.0849 17.0847 24.8872 17.2542C24.6894 17.4238 24.4547 17.5475 24.2006 17.6159C23.9526 17.683 23.6893 17.6849 23.4021 17.7193L23.3872 17.8055C23.2006 18.8887 23.0138 19.9734 22.817 21.0492C22.747 21.474 22.5283 21.8623 22.1978 22.1484C21.8674 22.4345 21.4455 22.6008 21.0035 22.6192C20.3686 22.6527 19.7299 22.635 19.0932 22.635H18.7973C18.7916 22.7393 18.7839 22.8147 18.7839 22.8901V24.1938C18.7829 24.8819 18.4536 25.1594 17.7593 25.0319C15.6215 24.6358 13.483 24.2394 11.3439 23.8427L7.97246 23.2198C7.54444 23.1406 7.32517 22.8892 7.32517 22.4609C7.32421 20.7801 7.32804 19.0947 7.31847 17.4185C7.31192 17.2854 7.25851 17.1585 7.16718 17.0591C5.69737 15.5525 4.80687 13.7758 4.54834 11.7095C3.9585 6.99306 7.05898 2.59418 11.8198 1.53543C15.0179 0.824007 17.9518 1.50377 20.5008 3.53839C21.8451 4.61204 22.6427 6.05164 23.1474 7.65141C23.6034 9.05112 23.7265 10.5333 23.5074 11.986C23.5041 12.085 23.5322 12.1825 23.5878 12.2654Z" fill="#00ACDB"/>
<path fill-rule="evenodd" clip-rule="evenodd" d="M15.1399 7.84687C14.9552 7.99672 14.7566 8.14798 14.5438 8.30058C14.3074 8.46648 14.0853 8.66064 13.877 8.88161C13.6356 9.13767 13.4572 9.45868 13.3313 9.8283C13.2561 10.0431 13.2102 10.2809 13.1883 10.5369C13.1328 11.1865 13.6994 11.6265 14.2595 11.5969C14.8696 11.5647 15.2246 11.0504 15.3214 10.6026C15.3372 10.5293 15.3575 10.4701 15.3799 10.4223C15.4723 10.2356 15.5829 10.0897 15.7085 9.97696C15.8765 9.83467 16.0583 9.69914 16.2542 9.57054L16.2597 9.56689L16.2652 9.56308C16.5033 9.39616 16.7198 9.20443 16.9143 8.98832C17.1415 8.73574 17.3099 8.42777 17.4276 8.0767C17.5635 7.68784 17.6054 7.2181 17.5774 6.68778C17.5449 6.07246 17.3713 5.52823 17.0359 5.07851C16.7131 4.64563 16.2934 4.32464 15.7859 4.11796C15.2882 3.90215 14.7427 3.81475 14.1581 3.84562C13.5745 3.87645 13.0288 4.03396 12.5267 4.31844C12.0097 4.60182 11.6141 5.00629 11.3508 5.52601C11.242 5.73914 11.1594 5.97253 11.1004 6.2235L11.099 6.22956L11.0977 6.23565C11.0875 6.28565 11.0786 6.33619 11.071 6.38725C10.9761 7.02885 11.5449 7.44198 12.0606 7.41474C12.6311 7.38461 12.9553 6.89922 13.0895 6.5632C13.1062 6.52141 13.1268 6.47958 13.1516 6.43765L13.1517 6.43768L13.1557 6.43061C13.25 6.26454 13.386 6.12434 13.5746 6.01008L13.5797 6.00699L13.5847 6.00378C13.7593 5.89139 13.9756 5.82149 14.248 5.8071C14.709 5.78276 15.0151 5.8866 15.2226 6.06188L15.2278 6.06626L15.2331 6.07047C15.4679 6.25658 15.572 6.46405 15.585 6.71089C15.6024 7.0398 15.557 7.26195 15.4856 7.40679C15.3965 7.58777 15.2811 7.73235 15.1399 7.84687ZM14.1997 4.27902C14.1935 4.27932 14.1873 4.27964 14.181 4.27997C13.6623 4.30737 13.1814 4.44684 12.7384 4.69839C12.2949 4.94084 11.9616 5.28242 11.7385 5.72313C11.6475 5.90132 11.576 6.10131 11.5238 6.32309C11.5152 6.36504 11.5077 6.40764 11.5013 6.4509C11.456 6.75711 11.7285 6.99673 12.0376 6.9804C12.3467 6.96407 12.5708 6.68932 12.6856 6.40186C12.7109 6.33848 12.7415 6.27646 12.7775 6.2158C12.9111 5.9806 13.1017 5.78801 13.3493 5.63804C13.5964 5.47897 13.8883 5.39054 14.2251 5.37276C14.2314 5.37242 14.2378 5.37211 14.2441 5.37181C14.7722 5.34716 15.1921 5.46642 15.5037 5.72958C15.8275 5.98626 15.9995 6.30571 16.0197 6.68793C16.0394 7.06105 15.9916 7.36474 15.8762 7.59898C15.7608 7.83323 15.6068 8.02844 15.4143 8.18463C15.2218 8.34081 15.0156 8.49772 14.7958 8.65534C14.5846 8.80339 14.3839 8.97826 14.1938 9.17994C14.0037 9.38163 13.8533 9.6451 13.7428 9.97035C13.6818 10.1438 13.6416 10.3449 13.622 10.5738C13.593 10.914 13.8903 11.1775 14.2307 11.1629M13.3524 14.3783C13.617 14.6163 13.9382 14.735 14.2942 14.7162C14.651 14.6973 14.9578 14.5446 15.1893 14.2728C15.4124 14.0109 15.5248 13.6985 15.5066 13.3542C15.4882 13.0056 15.3466 12.7008 15.0936 12.4604C14.8347 12.2145 14.5136 12.095 14.1568 12.1138C13.8007 12.1326 13.4938 12.2845 13.2558 12.5491C13.0177 12.8137 12.8991 13.1349 12.9179 13.4909C12.9365 13.8428 13.0917 14.1437 13.3524 14.3783ZM14.2632 14.2822C14.0299 14.2926 13.8233 14.2168 13.6433 14.0549C13.4613 13.8911 13.3642 13.6955 13.3522 13.468C13.3397 13.2314 13.4154 13.022 13.5791 12.84C13.7429 12.6579 13.9431 12.5607 14.1797 12.5482C14.1826 12.548 14.1854 12.5479 14.1882 12.5478C14.1855 12.5479 14.1828 12.548 14.1801 12.5482C13.9435 12.5607 13.7433 12.6579 13.5795 12.84C13.4157 13.022 13.3401 13.2313 13.3526 13.468C13.3646 13.6955 13.4616 13.8911 13.6437 14.0549C13.8235 14.2167 14.03 14.2925 14.2632 14.2822Z" fill="#014589"/>
</svg>
