<svg width="28" height="28" viewBox="0 0 28 28" fill="none" xmlns="http://www.w3.org/2000/svg">
<path d="M24.2793 15.9976C23.7373 15.0255 23.1657 14.0692 22.6113 13.1035C22.5557 13.0206 22.5276 12.9231 22.5308 12.8242C22.75 11.3714 22.6269 9.88925 22.1708 8.48954C21.6662 6.88978 20.8686 5.45017 19.5242 4.37653C16.9753 2.3419 14.0414 1.66214 10.8432 2.37356C6.08242 3.43231 2.98194 7.8312 3.57178 12.5476C3.83031 14.6139 4.72081 16.3906 6.19062 17.8972C6.28195 17.9966 6.33536 18.1235 6.34191 18.2567C6.35148 19.9328 6.34765 21.6182 6.34861 23.299C6.34861 23.7273 6.56788 23.9788 6.9959 24.0579L10.3674 24.6809C12.5065 25.0776 14.6449 25.4739 16.7828 25.87C17.477 25.9976 17.8064 25.7201 17.8073 25.0319C17.8073 24.598 17.8073 24.1641 17.8073 23.7283C17.8073 23.6529 17.815 23.5774 17.8207 23.4731H18.1166C18.7534 23.4731 19.392 23.4908 20.0269 23.4573C20.4689 23.4389 20.8908 23.2726 21.2213 22.9865C21.5517 22.7005 21.7705 22.3122 21.8404 21.8873C22.0425 20.783 22.234 19.6693 22.4255 18.5574C22.7128 18.523 22.9761 18.5211 23.2241 18.4541C23.4781 18.3856 23.7129 18.2619 23.9106 18.0924C24.1083 17.9228 24.2639 17.7118 24.3655 17.4752C24.4671 17.2387 24.5121 16.9827 24.4972 16.7268C24.4823 16.4708 24.4077 16.2215 24.2793 15.9976ZM12.6855 15.0981C11.6951 15.0981 10.7268 14.8125 9.9033 14.2774C9.07976 13.7422 8.43789 12.9816 8.05886 12.0917C7.67982 11.2019 7.58065 10.2226 7.77388 9.27795C7.96711 8.33325 8.44406 7.46549 9.14443 6.7844C9.84479 6.10331 10.7371 5.63948 11.7085 5.45157C12.68 5.26365 13.6869 5.3601 14.602 5.7287C15.517 6.0973 16.2991 6.72151 16.8494 7.52239C17.3997 8.32327 17.6934 9.26485 17.6934 10.2281C17.6934 11.5197 17.1658 12.7584 16.2266 13.6717C15.2875 14.585 14.0137 15.0981 12.6855 15.0981ZM11.3096 10.2281C11.3096 10.389 11.2605 10.5464 11.1685 10.6802C11.0766 10.814 10.9459 10.9184 10.7929 10.98C10.64 11.0416 10.4718 11.0577 10.3094 11.0263C10.1471 10.9949 9.99796 10.9174 9.88092 10.8035C9.76388 10.6897 9.68417 10.5447 9.65188 10.3868C9.61959 10.229 9.63616 10.0653 9.6995 9.91661C9.76285 9.76789 9.87011 9.64079 10.0077 9.55136C10.1454 9.46194 10.3072 9.4142 10.4727 9.4142C10.5826 9.4142 10.6914 9.43525 10.7929 9.47615C10.8945 9.51705 10.9867 9.577 11.0644 9.65257C11.1422 9.72815 11.2038 9.81786 11.2459 9.91661C11.2879 10.0153 11.3096 10.1212 11.3096 10.2281ZM13.5214 10.2281C13.5214 10.3891 13.4723 10.5464 13.3803 10.6803C13.2883 10.8142 13.1576 10.9185 13.0046 10.98C12.8516 11.0416 12.6833 11.0577 12.5209 11.0262C12.3586 10.9947 12.2095 10.9171 12.0925 10.8032C11.9755 10.6893 11.8958 10.5442 11.8637 10.3863C11.8315 10.2283 11.8482 10.0647 11.9117 9.91596C11.9752 9.76726 12.0826 9.64022 12.2203 9.55091C12.3581 9.46159 12.52 9.41402 12.6855 9.4142C12.9071 9.4147 13.1195 9.50066 13.276 9.65323C13.4326 9.80581 13.5205 10.0125 13.5205 10.2281H13.5214ZM15.7343 10.2281C15.7343 10.389 15.6852 10.5464 15.5933 10.6802C15.5013 10.814 15.3706 10.9184 15.2177 10.98C15.0648 11.0416 14.8965 11.0577 14.7341 11.0263C14.5718 10.9949 14.4227 10.9174 14.3057 10.8035C14.1886 10.6897 14.1089 10.5447 14.0766 10.3868C14.0443 10.229 14.0609 10.0653 14.1242 9.91661C14.1876 9.76789 14.2948 9.64079 14.4325 9.55136C14.5701 9.46194 14.7319 9.4142 14.8974 9.4142C15.1193 9.41445 15.332 9.50027 15.4889 9.65285C15.6458 9.80542 15.734 10.0123 15.7343 10.2281Z" fill="#00ACDB"/>
</svg>
