<svg width="28" height="28" viewBox="0 0 28 28" fill="none" xmlns="http://www.w3.org/2000/svg">
<path d="M17.2755 5.18048C17.3945 5.58588 17.7652 5.8487 18.1668 5.8487C18.2542 5.8487 18.3416 5.8363 18.4297 5.81089C18.9224 5.66646 19.2045 5.14949 19.0601 4.6567L18.7111 3.46717C18.566 2.97376 18.0497 2.69482 17.5569 2.83677C17.0641 2.9812 16.782 3.49817 16.9265 3.99096L17.2755 5.18048Z" fill="#00ACDB"/>
<path d="M27.9441 8.51249C27.8003 8.01969 27.2821 7.73579 26.7906 7.88146L25.6004 8.23045C25.1076 8.37488 24.825 8.89123 24.9694 9.38402C25.0878 9.78941 25.4591 10.0529 25.8608 10.0529C25.9475 10.0529 26.0356 10.0405 26.123 10.015L27.3131 9.66606C27.8059 9.52225 28.0886 9.00528 27.9441 8.51249Z" fill="#00ACDB"/>
<path d="M23.9275 3.52338C23.4769 3.27791 22.9116 3.4428 22.6655 3.89344L22.071 4.98131C21.8249 5.43195 21.9904 5.99665 22.4411 6.24335C22.583 6.32084 22.7361 6.35741 22.8868 6.35741C23.2153 6.35741 23.5345 6.18199 23.7031 5.87329L24.2976 4.78543C24.5443 4.33478 24.3782 3.77009 23.9275 3.52338Z" fill="#00ACDB"/>
<path d="M12.9391 8.11552L14.027 8.70998C14.1689 8.78746 14.322 8.82465 14.4727 8.82465C14.8012 8.82465 15.1204 8.64985 15.289 8.34053C15.5351 7.88989 15.3696 7.32457 14.919 7.07849L13.8311 6.48403C13.3799 6.23733 12.8152 6.40283 12.5691 6.85348C12.323 7.30412 12.4885 7.86944 12.9391 8.11552Z" fill="#00ACDB"/>
<path d="M26.8877 13.6182L25.7999 13.0237C25.3492 12.7783 24.7839 12.9438 24.5378 13.3938C24.2917 13.8444 24.4572 14.4091 24.9079 14.6559L25.9957 15.2503C26.1377 15.3278 26.2908 15.3644 26.4414 15.3644C26.77 15.3644 27.0892 15.1889 27.2578 14.8802C27.5039 14.4296 27.3378 13.8649 26.8877 13.6182Z" fill="#00ACDB"/>
<path d="M19.9133 6.82861C17.5212 6.82861 15.5742 8.775 15.5742 11.1677C15.5742 11.4262 15.6009 11.6785 15.6449 11.9245L15.8005 11.9425C18.0853 11.9425 20.1017 13.3304 21.0731 15.3443C22.9035 14.8354 24.2524 13.1581 24.2524 11.1677C24.2524 8.775 22.3054 6.82861 19.9133 6.82861Z" fill="#00ACDB"/>
<path d="M20.7603 18.064C20.64 18.064 20.526 17.8923 20.4094 17.9059C20.1212 15.6149 18.1705 13.7447 15.8014 13.7447C15.471 13.7447 15.1493 13.7317 14.8387 13.7974C13.7403 12.0624 11.8088 10.8828 9.60269 10.8828C6.17917 10.8828 3.40402 13.6462 3.40402 17.0691C3.40402 17.2792 3.41518 17.4813 3.43563 17.6859C3.4251 17.6859 3.41518 17.6797 3.40402 17.6797C1.69257 17.6797 0.304688 19.8405 0.304688 21.5526C0.304688 23.2647 1.69257 25.4249 3.40402 25.4249H20.7603C22.4717 25.4249 23.8596 23.2622 23.8596 21.5507C23.8596 19.8393 22.4717 18.064 20.7603 18.064Z" fill="#00ACDB"/>
<path d="M11.9542 15.7886C12.1932 15.7886 12.4224 15.8897 12.5914 16.0696C12.7604 16.2495 12.8553 16.4935 12.8553 16.748V17.9645L13.8447 17.3562C13.9472 17.2922 14.0606 17.2505 14.1783 17.2333C14.296 17.2162 14.4158 17.224 14.5307 17.2564C14.6456 17.2887 14.7533 17.3449 14.8477 17.4218C14.9421 17.4986 15.0213 17.5946 15.0807 17.7042C15.1401 17.8138 15.1786 17.9348 15.1939 18.0602C15.2092 18.1857 15.2011 18.3132 15.17 18.4353C15.1388 18.5574 15.0853 18.6717 15.0125 18.7717C14.9397 18.8717 14.849 18.9554 14.7457 19.0179L13.7564 19.6262L14.7457 20.2344C14.849 20.297 14.9397 20.3806 15.0125 20.4806C15.0853 20.5806 15.1388 20.695 15.17 20.8171C15.2011 20.9392 15.2092 21.0667 15.1939 21.1921C15.1786 21.3176 15.1401 21.4386 15.0807 21.5482C15.0213 21.6577 14.9421 21.7537 14.8477 21.8306C14.7533 21.9074 14.6456 21.9637 14.5307 21.996C14.4158 22.0283 14.296 22.0362 14.1783 22.019C14.0606 22.0019 13.9472 21.9601 13.8447 21.8961L12.8553 21.2879V22.5044C12.8553 22.7588 12.7604 23.0029 12.5914 23.1828C12.4224 23.3627 12.1932 23.4638 11.9542 23.4638C11.7153 23.4638 11.4861 23.3627 11.3171 23.1828C11.1481 23.0029 11.0532 22.7588 11.0532 22.5044V21.2879L10.0638 21.8961C9.96129 21.9601 9.8479 22.0019 9.73016 22.019C9.61242 22.0362 9.49267 22.0283 9.37778 21.996C9.2629 21.9637 9.15515 21.9074 9.06076 21.8306C8.96636 21.7537 8.88717 21.6577 8.82776 21.5482C8.76834 21.4386 8.72986 21.3176 8.71455 21.1921C8.69923 21.0667 8.70737 20.9392 8.73851 20.8171C8.76964 20.695 8.82316 20.5806 8.89596 20.4806C8.96877 20.3806 9.05944 20.297 9.16274 20.2344L10.1521 19.6262L9.16274 19.0179C9.05944 18.9554 8.96877 18.8717 8.89596 18.7717C8.82316 18.6717 8.76964 18.5574 8.73851 18.4353C8.70737 18.3132 8.69923 18.1857 8.71455 18.0602C8.72986 17.9348 8.76834 17.8138 8.82776 17.7042C8.88717 17.5946 8.96636 17.4986 9.06076 17.4218C9.15515 17.3449 9.2629 17.2887 9.37778 17.2564C9.49267 17.224 9.61242 17.2162 9.73016 17.2333C9.8479 17.2505 9.96129 17.2922 10.0638 17.3562L11.0532 17.9645V16.748C11.0532 16.4935 11.1481 16.2495 11.3171 16.0696C11.4861 15.8897 11.7153 15.7886 11.9542 15.7886Z" fill="#253E96"/>
</svg>
