<svg width="40" height="40" viewBox="0 0 40 40" fill="none" xmlns="http://www.w3.org/2000/svg">
<path fill-rule="evenodd" clip-rule="evenodd" d="M34.5802 19.0416C34.2854 18.5357 33.9905 18.0297 33.699 17.522C33.6196 17.4035 33.5795 17.2642 33.5841 17.1229C33.8972 15.0475 33.7213 12.9301 33.0698 10.9305C32.3489 8.64517 31.2094 6.5886 29.2889 5.05481C25.6476 2.1482 21.4563 1.17712 16.8876 2.19344C10.0864 3.70594 5.65713 9.99006 6.49976 16.7278C6.86909 19.6796 8.14123 22.2178 10.241 24.3701C10.3714 24.5121 10.4477 24.6934 10.4571 24.8836C10.4672 26.648 10.4668 28.4196 10.4665 30.1904C10.4664 30.8228 10.4663 31.4551 10.4667 32.0869C10.4667 32.6988 10.7799 33.058 11.3914 33.1711L16.2077 34.061C19.2636 34.6277 22.3186 35.194 25.3726 35.7598C26.3644 35.942 26.8349 35.5456 26.8363 34.5625V32.7002C26.8363 32.6286 26.8411 32.5569 26.8468 32.4732C26.8496 32.431 26.8527 32.3856 26.8554 32.3357H27.2781C27.5116 32.3357 27.7453 32.3373 27.9791 32.339C28.6559 32.3438 29.333 32.3487 30.0071 32.3131C30.6385 32.2868 31.2413 32.0492 31.7133 31.6405C32.1854 31.2319 32.4979 30.6772 32.5979 30.0703C32.879 28.5332 33.146 26.9835 33.4125 25.436L33.4125 25.4358L33.4336 25.3133C33.5627 25.2978 33.6884 25.2869 33.8111 25.2763C34.0785 25.2532 34.3316 25.2313 34.5745 25.1656C34.9374 25.0678 35.2728 24.8911 35.5552 24.6489C35.8377 24.4066 36.0599 24.1052 36.205 23.7672C36.3502 23.4293 36.4146 23.0637 36.3932 22.698C36.3719 22.3324 36.2654 21.9762 36.0819 21.6564C35.5926 20.7788 35.0864 19.9102 34.5802 19.0416ZM20.7767 11.8581C21.0806 11.6401 21.3644 11.424 21.6283 11.2099C21.8299 11.0463 21.9948 10.8398 22.1222 10.5813C22.2241 10.3743 22.2889 10.057 22.2641 9.5871C22.2455 9.23447 22.0969 8.93809 21.7614 8.67221L21.7538 8.6662L21.7464 8.65995C21.45 8.40955 21.0127 8.2612 20.3541 8.29598C19.9649 8.31654 19.656 8.41639 19.4066 8.57694L19.3994 8.58154L19.3921 8.58594C19.1226 8.74918 18.9284 8.94946 18.7937 9.18671L18.7879 9.19681L18.7879 9.19675C18.7523 9.25666 18.7229 9.31642 18.6991 9.37612C18.5074 9.85614 18.0443 10.5496 17.2292 10.5926C16.4926 10.6315 15.6799 10.0413 15.8155 9.12476C15.8263 9.05182 15.839 8.97962 15.8537 8.90819L15.8555 8.89948L15.8575 8.89083C15.9419 8.53231 16.0599 8.19889 16.2152 7.89442C16.5913 7.15197 17.1565 6.57415 17.8951 6.16932C18.6123 5.76292 19.3919 5.5379 20.2257 5.49386C21.0607 5.44975 21.8401 5.57462 22.5511 5.88291C23.276 6.17817 23.8757 6.63673 24.3369 7.25513C24.816 7.89759 25.0639 8.67507 25.1104 9.55409C25.1504 10.3117 25.0906 10.9828 24.8964 11.5383C24.7282 12.0398 24.4877 12.4798 24.1631 12.8406C23.8853 13.1493 23.576 13.4232 23.2358 13.6617L23.228 13.6671L23.2201 13.6723C22.9402 13.856 22.6805 14.0496 22.4405 14.2529C22.2611 14.414 22.1031 14.6225 21.9711 14.8892C21.9391 14.9574 21.9101 15.042 21.8875 15.1467C21.7493 15.7864 21.2421 16.5211 20.3706 16.5672C19.5704 16.6094 18.761 15.9809 18.8403 15.0528C18.8715 14.6871 18.9371 14.3474 19.0445 14.0405C19.2244 13.5125 19.4792 13.0539 19.824 12.6881C20.1216 12.3725 20.439 12.0951 20.7767 11.8581ZM23.8388 7.62659C23.4459 7.09978 22.9364 6.7095 22.3103 6.45576C21.6964 6.18833 21.0125 6.07453 20.2584 6.11436C20.2338 6.11566 20.2092 6.11714 20.1846 6.1188C20.209 6.11715 20.2335 6.11568 20.258 6.11439C21.0121 6.07456 21.696 6.18836 22.3099 6.45579C22.936 6.70953 23.4455 7.0998 23.8384 7.62661C24.2312 8.15342 24.4483 8.80685 24.4895 9.5869C24.5273 10.3019 24.4668 10.8853 24.3081 11.3369C24.1618 11.7749 23.9593 12.1376 23.7007 12.425C23.4544 12.6988 23.1804 12.9414 22.8787 13.1529C22.5763 13.3514 22.2941 13.5618 22.0321 13.7843C21.783 14.006 21.5761 14.2842 21.4113 14.6188C21.3552 14.7368 21.3114 14.869 21.2797 15.0155C21.1782 15.4854 20.8415 15.9035 20.3671 15.9446C20.8417 15.9037 21.1786 15.4855 21.2801 15.0155C21.3118 14.8689 21.3556 14.7367 21.4117 14.6188C21.5765 14.2842 21.7834 14.006 22.0325 13.7842C22.2945 13.5618 22.5767 13.3514 22.8791 13.1529C23.1808 12.9414 23.4548 12.6987 23.7011 12.425C23.9597 12.1376 24.1622 11.7749 24.3085 11.3369C24.4672 10.8853 24.5277 10.3019 24.4899 9.58687C24.4487 8.80682 24.2316 8.15339 23.8388 7.62659ZM18.1221 9.14564C17.9596 9.55234 17.6441 9.94124 17.2091 9.97134C17.6439 9.94103 17.9593 9.55224 18.1217 9.14567C18.1578 9.05512 18.2016 8.96652 18.253 8.87986C18.4438 8.54385 18.7161 8.26873 19.0698 8.05449C19.4105 7.83521 19.8108 7.70989 20.2707 7.67856C19.811 7.70994 19.4108 7.83524 19.0702 8.05446C18.7165 8.2687 18.4442 8.54383 18.2534 8.87984C18.202 8.96649 18.1582 9.05509 18.1221 9.14564ZM20.4202 21.0232C19.9115 21.0501 19.4527 20.8806 19.0747 20.5405C18.7022 20.2054 18.4805 19.7756 18.4539 19.2729C18.427 18.7642 18.5966 18.3054 18.9366 17.9274C19.2767 17.5494 19.7151 17.3324 20.2238 17.3056C20.7335 17.2787 21.1923 17.4495 21.5621 17.8007C21.9236 18.1441 22.1258 18.5796 22.1521 19.0775C22.178 19.5693 22.0176 20.0157 21.6989 20.3898C21.3681 20.7781 20.9298 20.9963 20.4202 21.0232ZM21.2259 19.9869C21.0092 20.2413 20.7362 20.3795 20.4069 20.4016C20.736 20.3794 21.0089 20.2412 21.2255 19.9869C21.4464 19.7275 21.5483 19.4353 21.5312 19.1103C21.5133 18.7723 21.3809 18.486 21.1338 18.2513C20.8867 18.0166 20.5942 17.9082 20.2562 17.9261L20.2566 17.9261C20.5946 17.9082 20.8871 18.0166 21.1342 18.2513C21.3813 18.4859 21.5137 18.7723 21.5316 19.1103C21.5487 19.4353 21.4468 19.7275 21.2259 19.9869Z" fill="#00ACDB"/>
</svg>
