<svg width="40" height="40" viewBox="0 0 40 40" fill="none" xmlns="http://www.w3.org/2000/svg">
<path d="M24.6834 7.40097C24.8534 7.9801 25.383 8.35557 25.9568 8.35557C26.0817 8.35557 26.2065 8.33785 26.3323 8.30155C27.0363 8.09522 27.4392 7.35669 27.2328 6.6527L26.7343 4.95338C26.5271 4.2485 25.7894 3.85002 25.0854 4.0528C24.3815 4.25913 23.9785 4.99766 24.1849 5.70165L24.6834 7.40097Z" fill="#00ACDB"/>
<path d="M39.922 12.1607C39.7166 11.4567 38.9763 11.0511 38.2741 11.2592L36.5739 11.7578C35.8699 11.9641 35.4661 12.7018 35.6724 13.4058C35.8415 13.9849 36.372 14.3612 36.9458 14.3612C37.0698 14.3612 37.1955 14.3435 37.3204 14.3072L39.0206 13.8087C39.7246 13.6032 40.1284 12.8647 39.922 12.1607Z" fill="#00ACDB"/>
<path d="M34.1833 5.03401C33.5396 4.68334 32.732 4.91889 32.3804 5.56266L31.5312 7.11676C31.1796 7.76054 31.4161 8.56725 32.0598 8.91969C32.2626 9.03038 32.4814 9.08263 32.6965 9.08263C33.1659 9.08263 33.6219 8.83202 33.8628 8.39103L34.712 6.83693C35.0644 6.19316 34.8271 5.38644 34.1833 5.03401Z" fill="#00ACDB"/>
<path d="M18.488 11.5939L20.0421 12.4431C20.2449 12.5538 20.4636 12.607 20.6788 12.607C21.1481 12.607 21.6042 12.3572 21.845 11.9154C22.1966 11.2716 21.9601 10.464 21.3164 10.1124L19.7623 9.26321C19.1176 8.91077 18.3109 9.14721 17.9593 9.79098C17.6078 10.4348 17.8442 11.2424 18.488 11.5939Z" fill="#00ACDB"/>
<path d="M38.4123 19.4547L36.8582 18.6054C36.2144 18.2548 35.4068 18.4912 35.0552 19.1341C34.7037 19.7779 34.9401 20.5846 35.5839 20.937L37.138 21.7862C37.3408 21.8969 37.5595 21.9492 37.7747 21.9492C38.244 21.9492 38.7 21.6986 38.9409 21.2576C39.2925 20.6138 39.0551 19.8071 38.4123 19.4547Z" fill="#00ACDB"/>
<path d="M28.4499 9.75564C25.0327 9.75564 22.2512 12.5362 22.2512 15.9543C22.2512 16.3236 22.2893 16.684 22.3522 17.0355L22.5744 17.0612C25.8385 17.0612 28.7191 19.0439 30.1067 21.921C32.7217 21.194 34.6486 18.7977 34.6486 15.9543C34.6486 12.5362 31.8671 9.75564 28.4499 9.75564Z" fill="#00ACDB"/>
<path fill-rule="evenodd" clip-rule="evenodd" d="M29.4138 25.6908C29.4944 25.748 29.5756 25.8057 29.6589 25.8057C32.1038 25.8057 34.0865 28.3418 34.0865 30.7868C34.0865 33.2317 32.1038 36.3213 29.6589 36.3213H4.86421C2.41927 36.3213 0.436584 33.2353 0.436584 30.7894C0.436584 28.3436 2.41927 25.2567 4.86421 25.2567C4.87229 25.2567 4.87992 25.259 4.88744 25.2612C4.89474 25.2634 4.90195 25.2655 4.90937 25.2655C4.88014 24.9733 4.86421 24.6846 4.86421 24.3844C4.86421 19.4946 8.8287 15.5469 13.7194 15.5469C16.871 15.5469 19.6303 17.2321 21.1995 19.7106C21.5799 19.6301 21.9721 19.6324 22.3738 19.6346C22.4405 19.635 22.5075 19.6354 22.5747 19.6354C25.9592 19.6354 28.7459 22.307 29.1577 25.5799C29.2434 25.5699 29.3283 25.6301 29.4138 25.6908ZM17.9905 22.9569C17.7491 22.6998 17.4217 22.5554 17.0803 22.5554C16.7389 22.5554 16.4115 22.6998 16.1701 22.9569C15.9287 23.2139 15.7931 23.5625 15.7931 23.926V25.6639L14.3797 24.795C14.2333 24.7035 14.0713 24.6439 13.9031 24.6194C13.7349 24.5949 13.5638 24.6061 13.3997 24.6523C13.2356 24.6985 13.0816 24.7788 12.9468 24.8886C12.8119 24.9984 12.6988 25.1355 12.6139 25.292C12.529 25.4486 12.4741 25.6214 12.4522 25.8007C12.4303 25.9799 12.442 26.162 12.4864 26.3364C12.5309 26.5109 12.6074 26.6742 12.7114 26.8171C12.8154 26.9599 12.9449 27.0794 13.0925 27.1688L14.5059 28.0377L13.0925 28.9067C12.9449 28.996 12.8154 29.1155 12.7114 29.2584C12.6074 29.4012 12.5309 29.5646 12.4864 29.739C12.442 29.9135 12.4303 30.0956 12.4522 30.2748C12.4741 30.454 12.529 30.6269 12.6139 30.7834C12.6988 30.94 12.8119 31.0771 12.9468 31.1869C13.0816 31.2967 13.2356 31.377 13.3997 31.4232C13.5638 31.4694 13.7349 31.4806 13.9031 31.4561C14.0713 31.4316 14.2333 31.3719 14.3797 31.2805L15.7931 30.4116V32.1494C15.7931 32.5129 15.9287 32.8616 16.1701 33.1186C16.4115 33.3756 16.7389 33.52 17.0803 33.52C17.4217 33.52 17.7491 33.3756 17.9905 33.1186C18.2319 32.8616 18.3676 32.5129 18.3676 32.1494V30.4116L19.7809 31.2805C19.9274 31.3719 20.0894 31.4316 20.2576 31.4561C20.4258 31.4806 20.5969 31.4694 20.761 31.4232C20.9251 31.377 21.079 31.2967 21.2139 31.1869C21.3487 31.0771 21.4618 30.94 21.5467 30.7834C21.6316 30.6269 21.6866 30.454 21.7085 30.2748C21.7303 30.0956 21.7187 29.9135 21.6742 29.739C21.6297 29.5646 21.5533 29.4012 21.4493 29.2584C21.3453 29.1155 21.2158 28.996 21.0682 28.9067L19.6548 28.0377L21.0682 27.1688C21.2158 27.0794 21.3453 26.9599 21.4493 26.8171C21.5533 26.6742 21.6297 26.5109 21.6742 26.3364C21.7187 26.162 21.7303 25.9799 21.7085 25.8007C21.6866 25.6214 21.6316 25.4486 21.5467 25.292C21.4618 25.1355 21.3487 24.9984 21.2139 24.8886C21.079 24.7788 20.9251 24.6985 20.761 24.6523C20.5969 24.6061 20.4258 24.5949 20.2576 24.6194C20.0894 24.6439 19.9274 24.7035 19.7809 24.795L18.3676 25.6639V23.926C18.3676 23.5625 18.2319 23.2139 17.9905 22.9569Z" fill="#00ACDB"/>
</svg>
