<svg width="28" height="28" viewBox="0 0 28 28" fill="none" xmlns="http://www.w3.org/2000/svg">
<path d="M1.40039 15.8026C3.65135 12.9364 6.3964 10.7085 9.74942 9.2754C11.3459 8.58871 13.083 8.29907 14.814 8.43094C16.4969 8.55363 18.0625 9.09508 19.5476 9.87546C22.2074 11.2728 24.4672 13.1684 26.3691 15.5011C26.6541 15.8513 26.6733 16.1786 26.4401 16.4901C26.1985 16.812 25.8977 16.884 25.4785 16.7017C23.305 15.7514 21.0407 15.124 18.7005 14.7699C16.3641 14.4134 13.9951 14.325 11.6389 14.5066C8.61579 14.741 5.68881 15.3809 2.88213 16.5497C2.76133 16.5994 2.64101 16.6515 2.51971 16.7022C2.03056 16.9054 1.70512 16.7886 1.45562 16.3227C1.43906 16.2974 1.4206 16.2735 1.40039 16.2511V15.8026Z" fill="#00ACDB"/>
<path d="M13.0897 26.6002C12.7422 26.5545 12.3942 26.5103 12.0473 26.4637C9.96406 26.1854 8.02823 25.4922 6.21142 24.4994C5.40102 24.0569 4.63722 23.5396 3.85671 23.049C3.5984 22.8868 3.46671 22.6439 3.50723 22.3457C3.52075 22.2034 3.57934 22.0685 3.67513 21.9591C3.77093 21.8497 3.89933 21.771 4.04311 21.7337C4.33485 21.6453 4.58303 21.7419 4.81906 21.9076C5.8947 22.6699 7.04876 23.3248 8.26324 23.8621C10.2087 24.7151 12.2403 25.2013 14.3919 25.1313C16.6524 25.058 18.7589 24.4266 20.7261 23.3827C21.5998 22.9198 22.4244 22.3705 23.2647 21.8507C23.7783 21.5335 24.3856 21.7575 24.4879 22.3224C24.5441 22.6327 24.4003 22.8717 24.1435 23.051C22.5186 24.1871 20.7864 25.1333 18.882 25.7711C17.6481 26.1854 16.3839 26.4676 15.0761 26.5536C15.0195 26.5627 14.964 26.5775 14.9105 26.5978L13.0897 26.6002Z" fill="#00ACDB"/>
<path d="M2.79883 18.0409C4.97224 17.1242 7.19171 16.5002 9.48829 16.1001C9.51933 16.1643 9.55187 16.2208 9.57591 16.2814C10.3269 18.1595 11.9791 19.3038 13.9483 19.3115C15.9399 19.3197 17.6032 18.1924 18.3567 16.304C18.4453 16.0821 18.57 16.1114 18.7222 16.1402C20.3894 16.4529 22.0311 16.8684 23.6287 17.4503C24.1339 17.6341 24.6346 17.8308 25.1988 18.045C24.6251 18.5827 24.1104 19.0901 23.5692 19.5672C22.0026 20.9493 20.3068 22.1233 18.3737 22.9055C16.6213 23.6158 14.8094 23.9326 12.9289 23.7488C11.0484 23.5649 9.32407 22.9271 7.69088 21.9811C5.90148 20.9452 4.33088 19.6186 2.87643 18.1421C2.84878 18.1098 2.82287 18.0761 2.79883 18.0409Z" fill="#00ACDB"/>
<path d="M20.7183 6.83619H21.0442C21.8825 6.83619 22.7172 6.83362 23.5534 6.83926C23.7011 6.83762 23.8481 6.85906 23.9888 6.90278C24.3242 7.01497 24.5479 7.38945 24.4929 7.71116C24.4664 7.89915 24.3717 8.07155 24.2259 8.19685C24.0802 8.32214 23.8931 8.39195 23.6991 8.39351C23.4036 8.4058 23.1065 8.39658 22.8083 8.39658C21.5798 8.39658 20.3513 8.39658 19.1228 8.39658C18.7451 8.39658 18.4354 8.28286 18.2719 7.92477C18.1147 7.57643 18.2358 7.28853 18.4742 7.01446C19.5975 5.72352 20.7174 4.42985 21.8338 3.13345C21.8762 3.08222 21.915 3.03099 21.9878 2.93827H21.1731C20.4762 2.93827 19.7794 2.93827 19.082 2.93827C18.568 2.93827 18.2316 2.6309 18.2316 2.17242C18.2316 1.71393 18.5722 1.404 19.0809 1.404C20.5794 1.404 22.0779 1.4081 23.5765 1.3999C23.9511 1.3999 24.2445 1.50697 24.4148 1.84558C24.5924 2.20418 24.4619 2.49925 24.2183 2.77895C23.1236 4.03779 22.0313 5.2985 20.9415 6.56109C20.8786 6.6364 20.8163 6.71529 20.7183 6.83619Z" fill="#00ACDB"/>
<path d="M13.929 5.46823C14.4415 5.46823 14.904 5.46823 15.3664 5.46823C15.6729 5.46823 15.9196 5.59461 16.0446 5.94718C16.0859 6.06118 16.1026 6.18554 16.0931 6.30906C16.0837 6.43257 16.0484 6.55136 15.9904 6.65471C15.9325 6.75806 15.8537 6.84271 15.7612 6.90104C15.6687 6.95938 15.5653 6.98955 15.4605 6.98884C14.4881 7.00689 13.5153 6.99987 12.5425 6.98884C12.4177 6.99333 12.2948 6.95247 12.1903 6.87177C12.0858 6.79106 12.0047 6.67439 11.9579 6.53747C11.8426 6.22904 11.9011 5.9522 12.0796 5.70294C12.7013 4.83063 13.325 3.95882 13.9506 3.08752C13.982 3.04388 14.0125 2.99875 14.0617 2.92703C13.9892 2.9175 13.9388 2.90496 13.8883 2.90496C13.4581 2.90496 13.0283 2.90496 12.598 2.90496C12.1877 2.90145 11.916 2.59252 11.9198 2.14265C11.9236 1.70683 12.1987 1.40341 12.598 1.40291C13.5306 1.40291 14.4589 1.40642 15.3893 1.3999C15.6784 1.3999 15.898 1.51876 16.0285 1.82669C16.1629 2.14867 16.0938 2.43905 15.9043 2.70335C15.3253 3.5108 14.7471 4.31908 14.1698 5.1282C14.1011 5.22199 14.0346 5.31828 13.929 5.46823Z" fill="#00ACDB"/>
<path d="M16.8012 16.224C16.4805 16.9218 15.2436 17.4921 14.0284 17.5C12.8131 17.5079 11.5526 16.9451 11.2012 16.2281C12.1477 16.0595 15.8127 16.0568 16.8012 16.224Z" fill="#00ACDB"/>
</svg>
