<svg width="52" height="63" viewBox="0 0 52 63" fill="none" xmlns="http://www.w3.org/2000/svg">
<path d="M43.5177 18.2419C40.7111 18.501 38.8183 21.2215 39.4057 23.8773L38.8836 21.6749C38.3614 19.4078 36.2728 17.7237 33.9232 17.9828C31.1166 18.2419 29.2238 20.9624 29.8112 23.6182L29.2891 21.4158C28.767 19.1487 26.6784 17.4646 24.3287 17.7237C21.5221 17.9828 19.6293 20.7033 20.2168 23.3591L15.8438 4.05613C15.2563 1.59468 12.7761 0.0400787 10.2959 0.623054C7.8157 1.20603 6.24925 3.66748 6.83667 6.12893L14.8647 40.654C14.9953 41.1722 14.3426 41.4961 13.951 41.1074C11.6666 38.646 8.72946 35.1481 8.6642 35.1481C7.09775 33.2049 4.22593 32.9458 2.26786 34.5004C0.309804 36.055 0.0487293 38.9051 1.61518 40.8483C1.81098 41.1074 7.55463 47.9736 12.4498 52.3135C18.6503 57.8194 23.4802 60.0217 25.8299 60.9286C28.1795 61.8354 30.4639 62.2241 31.7693 61.9002C33.0747 61.5763 43.1913 59.2444 43.1913 59.2444C45.1494 58.791 46.8464 57.3659 47.5643 55.4227L49.0002 51.8601C51.6763 45.1235 52.1984 37.48 50.5014 30.1604L48.5434 21.8045C47.9559 19.6669 45.8673 17.9828 43.5177 18.2419Z" fill="url(#paint0_linear_17_7842)"/>
<defs>
<linearGradient id="paint0_linear_17_7842" x1="26.038" y1="0.500488" x2="44.3963" y2="62.1135" gradientUnits="userSpaceOnUse">
<stop stop-color="white"/>
<stop offset="1" stop-color="white" stop-opacity="0"/>
</linearGradient>
</defs>
</svg>
