<svg width="49" height="48" viewBox="0 0 49 48" fill="none" xmlns="http://www.w3.org/2000/svg">
<path fill-rule="evenodd" clip-rule="evenodd" d="M27.1503 15.9186C27.2892 15.5713 27.6835 15.3957 28.0409 15.5346C28.3882 15.6735 28.5639 16.0677 28.425 16.4252C27.7039 18.2289 25.9594 19.4239 24.0127 19.4239C22.07 19.4239 20.3194 18.2331 19.6003 16.415C19.4614 16.0677 19.6371 15.6735 19.9946 15.5346C20.3418 15.3957 20.7361 15.5713 20.875 15.9186C21.3816 17.2158 22.6257 18.0471 24.0127 18.0471C25.3997 18.0471 26.6437 17.2158 27.1503 15.9186ZM5.5115 28.1445C5.87919 28.2241 6.12433 28.5816 6.05489 28.9554C5.97523 29.3231 5.61774 29.5683 5.24391 29.4988L0.553748 28.5694C0.235079 28.502 0.000162799 28.214 0.000162812 27.8994L0.000163152 20.129C0.000163167 19.7818 0.255504 19.4937 0.592551 19.4467L4.88841 18.6031L6.66966 14.3174L4.20409 10.6466C4.0182 10.3688 4.06519 10.0113 4.29398 9.77639L9.78696 4.29177C10.0321 4.03643 10.4222 4.02417 10.6878 4.23253L14.3117 6.66542L18.6075 4.88417L19.4675 0.555625C19.5267 0.230831 19.8148 -1.23313e-06 20.1396 -1.21893e-06L27.9021 0.00204186C28.2392 0.00204188 28.5272 0.257384 28.5742 0.594431L29.4179 4.89029L33.7138 6.67154L37.3845 4.20597C37.6521 4.02008 38.0198 4.06707 38.2445 4.29586L43.7459 9.78047C43.991 10.0256 44.0135 10.4157 43.7949 10.6936L41.362 14.3174L43.1433 18.6031L47.4718 19.4631C47.7905 19.5162 48.0254 19.8083 48.0254 20.129L48.0254 27.8973C48.0254 28.2445 47.77 28.5223 47.433 28.5694L42.7797 29.4988C42.412 29.5682 42.0484 29.3231 41.9789 28.9554C41.8993 28.5877 42.1383 28.2241 42.5121 28.1444L46.6588 27.3334L46.6588 20.7004L42.5121 19.8793C42.3037 19.8302 42.1056 19.6934 42.0157 19.4728L39.9566 14.5048C39.8769 14.2965 39.8871 14.0513 40.026 13.8593L42.3732 10.354L37.6728 5.6638L34.1981 7.99047C34.0122 8.12938 33.761 8.17636 33.526 8.07014L28.5847 6.02125C28.3661 5.9518 28.1904 5.75365 28.1475 5.51465L27.3365 1.38017L20.6936 1.38017L19.8826 5.51465C19.8336 5.73322 19.6845 5.92115 19.4659 6.01104L14.5081 8.07012C14.2998 8.16 14.0547 8.13957 13.8626 8.01088L10.3573 5.66376L5.66713 10.3539L7.99381 13.8286C8.13271 14.0268 8.16948 14.2821 8.07347 14.5109L6.02458 19.4421C5.94492 19.6607 5.75698 19.8363 5.51799 19.8792L1.3835 20.7004L1.3835 27.3334L5.5115 28.1445ZM26.2597 45.753C26.2597 46.9909 25.2506 48 24.0127 48C22.7748 48 21.7657 46.9909 21.7657 45.753C21.7657 44.7561 22.4275 43.9125 23.3284 43.6244L23.3304 25.0276L24.697 25.0276L24.697 43.6187C25.5979 43.9128 26.2597 44.7561 26.2597 45.753ZM41.276 36.5382L41.276 31.8951L34.2163 27.8177C33.9977 27.689 33.8793 27.4603 33.8793 27.2253L33.8793 25.0274L35.2459 25.0274L35.2459 26.8311L42.2627 30.8819C42.4915 30.9881 42.6569 31.2291 42.6569 31.4947L42.6569 36.5321C43.5578 36.8303 44.2095 37.6801 44.2095 38.6729C44.2095 39.9108 43.2003 40.9199 41.9624 40.9199C40.7245 40.9199 39.7256 39.9108 39.7256 38.6729C39.7216 37.6802 40.3732 36.8364 41.276 36.5382ZM33.4052 41.9229L33.4052 37.9416L28.8111 33.3312C28.6722 33.2025 28.6027 33.0166 28.6027 32.845L28.6027 25.0275L29.9795 25.0275L29.9795 32.561L34.5737 37.1552C34.7024 37.2716 34.782 37.4432 34.782 37.6413L34.782 41.9148C35.6829 42.2028 36.3345 43.0506 36.3345 44.0556C36.3345 45.2935 35.3377 46.3026 34.0978 46.3026C32.8497 46.3026 31.8507 45.2935 31.8507 44.0556C31.8507 43.0526 32.4962 42.211 33.4052 41.9229ZM5.37292 36.5382L5.37292 31.5008C5.37292 31.2332 5.53226 30.9942 5.76717 30.888L12.784 26.8372L12.784 25.0335L14.1506 25.0335L14.1506 27.2315C14.1506 27.4602 14.0342 27.6952 13.8136 27.8238L6.75384 31.9012L6.75384 36.5443C7.65471 36.8426 8.31655 37.6923 8.31655 38.6851C8.31655 39.9231 7.30743 40.9322 6.06952 40.9322C4.83161 40.9322 3.82249 39.9231 3.82249 38.6851C3.82045 37.6801 4.4721 36.8364 5.37292 36.5382ZM13.2437 41.9229L13.2437 37.6495C13.2437 37.4514 13.3234 37.2818 13.4521 37.1633L18.0462 32.5692L18.0483 25.0273L19.4251 25.0273L19.4251 32.839C19.4251 33.0147 19.3556 33.1965 19.2167 33.3252L14.6226 37.9357L14.6226 41.917C15.5234 42.205 16.1751 43.0528 16.1751 44.0578C16.1751 45.2957 15.1782 46.3048 13.9383 46.3048C12.7004 46.3048 11.6913 45.2957 11.6913 44.0578C11.6974 43.0528 12.3428 42.211 13.2437 41.9229ZM36.2856 20.1189C35.9608 20.3048 35.5441 20.1883 35.3562 19.8513C35.1703 19.5265 35.2867 19.1097 35.6238 18.9218C36.9577 18.1803 37.6032 16.6279 37.2192 15.1714C36.8249 13.6985 35.4951 12.6853 33.9794 12.7058C33.7118 12.7058 33.483 12.5669 33.3441 12.2993C32.8804 11.2473 31.8508 10.5855 30.7131 10.5855C29.5651 10.5855 28.5355 11.2473 28.0718 12.2993C27.9227 12.6466 27.5162 12.7957 27.1709 12.6466C26.8237 12.4974 26.6745 12.0909 26.8237 11.7457C27.1709 10.9552 27.7245 10.3321 28.4456 9.87251C27.3936 8.48551 25.7615 7.67453 24.0108 7.67453C22.2602 7.67453 20.628 8.48551 19.576 9.86231C20.2971 10.3362 20.8507 10.9613 21.198 11.7519C21.3471 12.0991 21.198 12.5036 20.8507 12.6527C20.5034 12.8018 20.099 12.6527 19.9498 12.3055C19.4861 11.2535 18.4566 10.5916 17.3188 10.5916C16.1708 10.5916 15.1412 11.2535 14.6878 12.3055C14.5816 12.5138 14.363 12.712 14.0525 12.712C12.5266 12.6915 11.1926 13.7088 10.7984 15.1775C10.4144 16.634 11.066 18.1865 12.3938 18.928C12.7308 19.1139 12.8473 19.5306 12.6614 19.8574C12.4755 20.1945 12.069 20.3109 11.732 20.125C10.8311 19.6287 10.1468 18.8667 9.74232 17.9842C9.13973 18.0741 8.59431 18.3683 8.17961 18.785C7.65667 19.3079 7.33595 20.0229 7.33595 20.8012C7.33595 21.5917 7.66074 22.3067 8.17961 22.8296C8.70256 23.3525 9.40732 23.6631 10.1958 23.6631L13.2967 23.6631C14.8818 23.6528 16.1668 22.4048 16.1668 20.8032C16.1668 20.4355 16.4813 20.1209 16.849 20.1209C17.2331 20.1209 17.5436 20.4355 17.5436 20.8032C17.5436 21.9022 17.1166 22.9113 16.4221 23.6631L31.5958 23.661C30.9013 22.9093 30.4866 21.9002 30.4866 20.8012C30.4866 20.4335 30.7848 20.1189 31.1689 20.1189C31.5529 20.1189 31.8512 20.4335 31.8512 20.8012C31.8512 22.3761 33.1381 23.661 34.711 23.661L37.8282 23.661C39.4032 23.661 40.6881 22.3741 40.6881 20.8012C40.6881 19.4142 39.6585 18.2069 38.2817 17.9883C37.8711 18.8585 37.1885 19.6225 36.2856 20.1189Z" fill="url(#paint0_linear_17_7732)"/>
<defs>
<linearGradient id="paint0_linear_17_7732" x1="24.0001" y1="13.9775" x2="24.0268" y2="47.7275" gradientUnits="userSpaceOnUse">
<stop stop-color="#00ACDB"/>
<stop offset="1" stop-color="#034A95"/>
</linearGradient>
</defs>
</svg>
