<svg class="roulette__svg" width="240" height="245" viewBox="0 0 240 245" fill="none"
     xmlns="http://www.w3.org/2000/svg">
    <g clip-path="url(#clip0_17_7843)">
        <g id="wheel" class="roulette__wheel">
            <g class="sector-25">
                <path d="M166.726 214.605C151.619 222.527 134.757 226.504 117.702 226.169C100.648 225.834 83.9552 221.196 69.1724 212.686L119.697 124.923L166.726 214.605Z"
                      fill="url(#paint0_linear_17_7843)"/>
                <g filter="url(#filter3_d_17_7843)">
                    <path d="M111.927 159.329L114.354 159.3L120.761 166.342C121.259 166.891 121.729 167.271 122.17 167.481C122.611 167.692 123.036 167.794 123.444 167.79C123.999 167.783 124.491 167.657 124.92 167.413C125.357 167.169 125.701 166.834 125.951 166.407C126.202 165.988 126.325 165.505 126.32 164.958C126.315 164.38 126.175 163.869 125.902 163.426C125.636 162.99 125.282 162.651 124.841 162.41C124.4 162.169 123.925 162.059 123.417 162.08L123.391 159.214C124.501 159.201 125.47 159.436 126.298 159.919C127.127 160.41 127.773 161.088 128.235 161.953C128.697 162.826 128.934 163.836 128.944 164.984C128.953 166.047 128.723 167.005 128.253 167.859C127.79 168.712 127.141 169.386 126.306 169.882C125.478 170.377 124.521 170.631 123.435 170.644C122.641 170.654 121.974 170.554 121.433 170.345C120.891 170.136 120.392 169.818 119.933 169.392C119.475 168.974 118.966 168.452 118.405 167.827L113.888 162.831L114.579 162.568L114.652 170.75L112.029 170.782L111.927 159.329ZM111.727 178.499C111.72 177.652 111.886 176.86 112.226 176.124C112.574 175.388 113.054 174.75 113.666 174.211C114.277 173.68 114.99 173.294 115.805 173.053L116.545 175.725C116.099 175.838 115.716 176.04 115.395 176.328C115.074 176.625 114.827 176.967 114.653 177.355C114.479 177.75 114.394 178.155 114.398 178.571C114.402 179.11 114.538 179.602 114.804 180.046C115.07 180.489 115.423 180.84 115.865 181.096C116.314 181.353 116.808 181.478 117.347 181.471C117.887 181.465 118.375 181.324 118.812 181.049C119.256 180.782 119.603 180.423 119.854 179.973C120.112 179.523 120.238 179.032 120.234 178.501C120.228 177.861 120.108 177.331 119.873 176.91C119.638 176.497 119.389 176.18 119.125 175.96L119.866 173.57L128.677 173.972L128.757 183.01L126.145 183.041L126.078 175.495L127.07 176.523L120.942 176.227L121.561 175.711C121.958 176.138 122.255 176.635 122.453 177.203C122.65 177.771 122.752 178.32 122.756 178.852C122.766 179.892 122.535 180.816 122.064 181.623C121.602 182.437 120.964 183.077 120.151 183.541C119.339 184.013 118.412 184.256 117.372 184.268C116.332 184.281 115.386 184.022 114.534 183.493C113.689 182.964 113.013 182.259 112.504 181.379C111.995 180.507 111.737 179.547 111.727 178.499ZM112.165 188.76L113.692 187.2L126.128 199.389L124.592 200.948L112.165 188.76ZM111.96 198.211C111.954 197.575 112.103 196.992 112.407 196.462C112.717 195.938 113.13 195.516 113.647 195.195C114.171 194.874 114.754 194.71 115.396 194.702C116.025 194.695 116.604 194.848 117.134 195.163C117.663 195.478 118.087 195.896 118.407 196.419C118.726 196.942 118.888 197.511 118.894 198.128C118.899 198.763 118.747 199.346 118.437 199.876C118.134 200.407 117.72 200.829 117.196 201.143C116.679 201.464 116.1 201.629 115.457 201.636C114.815 201.644 114.23 201.494 113.701 201.185C113.178 200.884 112.757 200.471 112.438 199.949C112.125 199.426 111.965 198.847 111.96 198.211ZM113.944 198.187C113.946 198.45 114.016 198.694 114.152 198.917C114.289 199.146 114.471 199.327 114.697 199.459C114.922 199.591 115.17 199.656 115.44 199.652C115.71 199.649 115.956 199.579 116.18 199.441C116.403 199.304 116.581 199.119 116.714 198.886C116.847 198.659 116.912 198.415 116.91 198.151C116.907 197.882 116.838 197.635 116.701 197.412C116.564 197.189 116.383 197.008 116.157 196.87C115.931 196.738 115.683 196.673 115.414 196.677C115.144 196.68 114.897 196.75 114.674 196.888C114.45 197.032 114.272 197.217 114.139 197.443C114.007 197.669 113.941 197.917 113.944 198.187ZM119.4 190.021C119.394 189.386 119.543 188.803 119.846 188.272C120.156 187.742 120.57 187.317 121.087 186.996C121.611 186.681 122.194 186.52 122.836 186.512C123.465 186.505 124.044 186.658 124.574 186.973C125.103 187.288 125.527 187.706 125.846 188.229C126.166 188.752 126.328 189.321 126.333 189.938C126.339 190.573 126.187 191.153 125.877 191.677C125.573 192.207 125.16 192.633 124.636 192.954C124.119 193.274 123.539 193.439 122.897 193.446C122.255 193.454 121.67 193.304 121.14 192.996C120.618 192.687 120.197 192.272 119.877 191.749C119.564 191.233 119.405 190.657 119.4 190.021ZM121.383 189.997C121.386 190.267 121.455 190.513 121.592 190.736C121.729 190.96 121.91 191.137 122.136 191.269C122.362 191.401 122.61 191.466 122.88 191.463C123.149 191.459 123.396 191.389 123.619 191.251C123.843 191.114 124.021 190.932 124.154 190.706C124.287 190.479 124.352 190.231 124.35 189.962C124.347 189.692 124.278 189.446 124.141 189.222C124.004 188.999 123.823 188.822 123.597 188.69C123.371 188.558 123.123 188.493 122.853 188.496C122.584 188.5 122.337 188.57 122.114 188.708C121.89 188.845 121.712 189.027 121.579 189.253C121.446 189.48 121.381 189.728 121.383 189.997Z"
                          fill="#EAF0F6"/>
                </g>
            </g>
            <g class="sector-10">
                <path d="M220.878 129.244C220.15 146.285 215.129 162.867 206.281 177.45C197.433 192.033 185.044 204.145 170.265 212.662L119.703 124.923L220.878 129.244Z"
                      fill="url(#paint1_linear_17_7843)"/>
                <g filter="url(#filter6_d_17_7843)">
                    <path d="M154.568 152.612L159.781 143.325L156.924 143.423L158.102 141.324L160.946 141.249L162.883 142.346L156.505 153.708L154.568 152.612ZM163.45 157.953C162.647 157.498 162.034 156.926 161.612 156.237C161.193 155.542 160.983 154.788 160.982 153.977C160.986 153.168 161.214 152.361 161.666 151.556L163.721 147.895C164.173 147.09 164.742 146.477 165.429 146.055C166.121 145.635 166.87 145.429 167.676 145.434C168.485 145.435 169.291 145.663 170.094 146.117C170.897 146.572 171.506 147.146 171.92 147.838C172.342 148.527 172.554 149.278 172.555 150.09C172.556 150.901 172.33 151.709 171.878 152.514L169.823 156.176C169.372 156.98 168.8 157.592 168.108 158.012C167.416 158.431 166.665 158.64 165.856 158.64C165.055 158.637 164.253 158.408 163.45 157.953ZM164.465 156.146C164.863 156.372 165.279 156.483 165.711 156.478C166.145 156.467 166.547 156.355 166.916 156.141C167.288 155.922 167.587 155.613 167.811 155.213L170.021 151.275C170.249 150.87 170.358 150.454 170.349 150.026C170.343 149.593 170.231 149.19 170.011 148.816C169.795 148.437 169.488 148.135 169.089 147.909C168.69 147.683 168.273 147.575 167.838 147.585C167.406 147.59 167.005 147.702 166.632 147.922C166.263 148.135 165.965 148.445 165.738 148.85L163.528 152.787C163.303 153.187 163.194 153.604 163.2 154.037C163.209 154.465 163.321 154.868 163.537 155.247C163.757 155.621 164.066 155.92 164.465 156.146ZM170.909 161.865L170.468 160.284L183.073 156.773L183.51 158.36L170.909 161.865ZM176.982 165.553C176.567 165.318 176.243 165.002 176.012 164.605C175.788 164.206 175.668 163.778 175.654 163.32C175.642 162.859 175.754 162.418 175.99 161.997C176.222 161.584 176.539 161.265 176.943 161.039C177.347 160.813 177.779 160.694 178.239 160.683C178.699 160.672 179.13 160.78 179.534 161.008C179.949 161.244 180.272 161.562 180.5 161.963C180.731 162.36 180.85 162.788 180.858 163.248C180.873 163.705 180.762 164.144 180.526 164.565C180.289 164.986 179.972 165.31 179.572 165.539C179.179 165.766 178.753 165.885 178.293 165.896C177.835 165.903 177.398 165.789 176.982 165.553ZM177.712 164.253C177.884 164.35 178.069 164.397 178.265 164.391C178.466 164.389 178.652 164.339 178.823 164.241C178.994 164.144 179.129 164.007 179.228 163.83C179.327 163.653 179.374 163.466 179.369 163.269C179.363 163.072 179.31 162.886 179.208 162.712C179.111 162.541 178.976 162.406 178.804 162.309C178.627 162.209 178.441 162.161 178.244 162.167C178.048 162.172 177.862 162.222 177.687 162.317C177.516 162.414 177.381 162.551 177.282 162.728C177.182 162.905 177.136 163.092 177.141 163.289C177.151 163.489 177.204 163.674 177.302 163.846C177.399 164.017 177.536 164.153 177.712 164.253ZM174.449 157.63C174.033 157.394 173.709 157.078 173.478 156.681C173.25 156.28 173.128 155.851 173.114 155.393C173.106 154.934 173.22 154.494 173.456 154.073C173.688 153.661 174.006 153.342 174.409 153.115C174.813 152.889 175.245 152.771 175.705 152.759C176.165 152.748 176.597 152.857 177 153.085C177.416 153.32 177.736 153.637 177.96 154.036C178.191 154.433 178.313 154.863 178.325 155.324C178.339 155.782 178.228 156.221 177.992 156.641C177.756 157.062 177.438 157.387 177.038 157.616C176.641 157.84 176.213 157.958 175.753 157.969C175.299 157.978 174.864 157.865 174.449 157.63ZM175.179 156.33C175.355 156.429 175.541 156.477 175.738 156.472C175.935 156.466 176.118 156.415 176.289 156.318C176.46 156.221 176.595 156.083 176.694 155.907C176.793 155.73 176.84 155.543 176.835 155.346C176.829 155.149 176.778 154.964 176.68 154.793C176.583 154.621 176.446 154.485 176.27 154.385C176.093 154.285 175.907 154.238 175.71 154.243C175.514 154.248 175.33 154.3 175.159 154.397C174.988 154.494 174.853 154.631 174.754 154.808C174.655 154.985 174.608 155.172 174.614 155.369C174.619 155.566 174.671 155.751 174.768 155.922C174.865 156.094 175.002 156.23 175.179 156.33Z"
                          fill="#EAF0F6"/>
                </g>
            </g>
            <g class="sector-30">
                <path d="M174.405 39.7035C188.759 48.9176 200.553 61.6083 208.692 76.5979C216.832 91.5875 221.053 108.39 220.964 125.447L119.697 124.923L174.405 39.7035Z"
                      fill="url(#paint2_linear_17_7843)"/>
                <g filter="url(#filter1_d_17_7843)">
                    <path d="M157.376 112.549C156.589 113.011 155.757 113.294 154.878 113.399C153.999 113.504 153.137 113.428 152.29 113.171C151.451 112.91 150.694 112.463 150.019 111.831L152.161 109.647C152.71 110.166 153.326 110.456 154.008 110.516C154.693 110.564 155.324 110.413 155.902 110.064C156.419 109.76 156.811 109.368 157.078 108.888C157.345 108.408 157.475 107.895 157.468 107.35C157.458 106.798 157.303 106.267 157.003 105.757C156.546 104.978 155.912 104.473 155.101 104.244C154.291 104.015 153.489 104.133 152.695 104.6C152.455 104.741 152.237 104.913 152.043 105.116C151.855 105.314 151.69 105.533 151.547 105.774L149.127 104.404L151.759 96.7729L152.36 97.2719L144.877 101.669L143.421 99.189L153.067 93.5202L154.529 96.0116L152.679 102.596L152.202 101.833C153.194 101.338 154.162 101.126 155.106 101.199C156.057 101.267 156.927 101.564 157.716 102.09C158.512 102.612 159.167 103.31 159.68 104.184C160.261 105.175 160.539 106.207 160.513 107.281C160.494 108.35 160.212 109.354 159.666 110.292C159.122 111.219 158.359 111.971 157.376 112.549ZM171.248 104.44C170.134 105.095 169.012 105.436 167.882 105.463C166.748 105.483 165.69 105.208 164.709 104.639C163.735 104.064 162.921 103.22 162.267 102.105L159.29 97.0352C158.636 95.9206 158.295 94.7981 158.268 93.6675C158.249 92.5327 158.526 91.4782 159.1 90.5039C159.67 89.5224 160.512 88.7042 161.626 88.0494C162.74 87.3945 163.861 87.0593 164.988 87.0436C166.118 87.0164 167.174 87.2877 168.155 87.8575C169.136 88.4274 169.954 89.2696 170.608 90.3842L173.584 95.4545C174.239 96.569 174.576 97.6937 174.595 98.8285C174.615 99.9633 174.34 101.022 173.77 102.003C173.203 102.973 172.363 103.785 171.248 104.44ZM169.779 101.938C170.333 101.613 170.758 101.186 171.056 100.659C171.349 100.124 171.497 99.5571 171.498 98.9586C171.495 98.3529 171.331 97.7732 171.006 97.2195L167.805 91.7668C167.476 91.2059 167.049 90.7802 166.526 90.4899C165.999 90.1924 165.433 90.0451 164.827 90.0482C164.217 90.044 163.636 90.2046 163.082 90.5299C162.529 90.8551 162.105 91.2852 161.812 91.8201C161.514 92.3477 161.367 92.9144 161.37 93.5201C161.369 94.1186 161.533 94.6983 161.862 95.2592L165.063 100.712C165.388 101.266 165.814 101.691 166.342 101.989C166.865 102.279 167.431 102.426 168.041 102.431C168.646 102.427 169.226 102.263 169.779 101.938ZM181.344 98.0666L179.032 97.4656L183.851 78.9566L186.168 79.5667L181.344 98.0666ZM190.435 93.0915C189.834 93.4446 189.199 93.6217 188.531 93.6228C187.864 93.6142 187.238 93.4514 186.652 93.1345C186.063 92.8114 185.59 92.3464 185.233 91.7393C184.884 91.1444 184.715 90.5089 184.726 89.8327C184.737 89.1566 184.905 88.5236 185.228 87.9336C185.551 87.3437 186.003 86.8776 186.586 86.5352C187.187 86.1821 187.823 86.008 188.496 86.013C189.164 86.012 189.791 86.1747 190.374 86.5013C190.96 86.8183 191.431 87.2803 191.788 87.8874C192.144 88.4945 192.32 89.1343 192.315 89.8068C192.312 90.4698 192.149 91.0962 191.826 91.6861C191.5 92.27 191.036 92.7384 190.435 93.0915ZM189.334 91.2157C189.583 91.0695 189.776 90.8702 189.913 90.6179C190.057 90.362 190.13 90.0904 190.133 89.803C190.136 89.5156 190.062 89.2444 189.912 88.9895C189.763 88.7345 189.562 88.5382 189.31 88.4006C189.058 88.2631 188.785 88.1947 188.491 88.1956C188.204 88.193 187.936 88.2648 187.687 88.411C187.432 88.5608 187.236 88.7619 187.099 89.0142C186.961 89.2665 186.888 89.5381 186.879 89.8291C186.876 90.1164 186.95 90.3876 187.099 90.6426C187.249 90.8976 187.45 91.0938 187.702 91.2314C187.961 91.3654 188.233 91.4337 188.521 91.4364C188.808 91.4391 189.079 91.3655 189.334 91.2157ZM178.609 90.4881C178.008 90.8412 177.373 91.0182 176.705 91.0193C176.032 91.0143 175.403 90.8533 174.817 90.5364C174.234 90.2098 173.764 89.7429 173.407 89.1359C173.058 88.5409 172.889 87.9054 172.9 87.2293C172.911 86.5531 173.079 85.9201 173.402 85.3302C173.725 84.7403 174.178 84.2741 174.76 83.9317C175.361 83.5786 175.995 83.4063 176.661 83.4149C177.329 83.4138 177.959 83.5748 178.548 83.8979C179.134 84.2148 179.606 84.6768 179.962 85.2839C180.318 85.891 180.494 86.5308 180.489 87.2034C180.48 87.8699 180.314 88.4981 179.991 89.088C179.671 89.6683 179.21 90.135 178.609 90.4881ZM177.508 88.6122C177.763 88.4624 177.959 88.2614 178.097 88.009C178.234 87.7567 178.304 87.4869 178.307 87.1995C178.31 86.9121 178.236 86.641 178.087 86.386C177.937 86.131 177.736 85.9348 177.484 85.7972C177.232 85.6596 176.962 85.5895 176.675 85.5868C176.387 85.5842 176.116 85.6577 175.861 85.8075C175.606 85.9573 175.41 86.1584 175.273 86.4107C175.135 86.663 175.065 86.9329 175.062 87.2203C175.06 87.5076 175.133 87.7788 175.283 88.0338C175.432 88.2887 175.633 88.485 175.885 88.6226C176.138 88.7602 176.407 88.8303 176.695 88.8329C176.982 88.8356 177.253 88.762 177.508 88.6122Z"
                          fill="#EAF0F6"/>
                </g>
            </g>
            <g class="sector-5">
                <path d="M73.5746 34.7741C88.7601 27.0046 105.662 23.1967 122.712 23.7036C139.762 24.2105 156.407 29.0158 171.104 37.6737L119.699 124.924L73.5746 34.7741Z"
                      fill="url(#paint3_linear_17_7843)"/>
                <g filter="url(#filter2_d_17_7843)">
                    <path d="M126.308 78.1657C126.305 78.831 126.166 79.4501 125.892 80.0228C125.611 80.5955 125.228 81.0889 124.743 81.503C124.257 81.911 123.693 82.2036 123.052 82.3807L122.498 80.2721C122.849 80.1898 123.152 80.0376 123.407 79.8155C123.662 79.5874 123.859 79.3226 124 79.0211C124.14 78.7136 124.211 78.3965 124.212 78.0699C124.214 77.6465 124.113 77.2587 123.908 76.9065C123.704 76.5543 123.43 76.2742 123.086 76.0662C122.736 75.8582 122.349 75.7528 121.926 75.7499C121.503 75.747 121.118 75.8503 120.773 76.0597C120.421 76.2629 120.145 76.5393 119.944 76.8888C119.737 77.2382 119.632 77.6216 119.63 78.0389C119.628 78.5409 119.718 78.9589 119.898 79.2928C120.078 79.6206 120.27 79.8729 120.475 80.0497L119.869 81.9147L112.957 81.4688L112.986 74.3739L115.036 74.3878L115.012 80.3122L114.244 79.4905L119.052 79.8133L118.56 80.2092C118.253 79.8684 118.025 79.4737 117.875 79.0251C117.726 78.5765 117.652 78.1435 117.654 77.7262C117.657 76.9096 117.848 76.1881 118.225 75.5616C118.597 74.929 119.104 74.4364 119.746 74.0839C120.389 73.7253 121.118 73.5488 121.935 73.5543C122.751 73.5598 123.492 73.7765 124.155 74.2044C124.813 74.6323 125.337 75.1953 125.727 75.8935C126.117 76.5857 126.311 77.3431 126.308 78.1657ZM126.067 70.2083L124.901 71.3617L115.649 62.0013L116.822 60.8479L126.067 70.2083ZM126.314 63.0895C126.312 63.5685 126.194 64.0057 125.96 64.4009C125.722 64.7912 125.406 65.1036 125.013 65.338C124.615 65.5725 124.174 65.688 123.69 65.6848C123.216 65.6816 122.781 65.5577 122.385 65.313C121.99 65.0684 121.674 64.7469 121.439 64.3485C121.203 63.9502 121.086 63.5187 121.088 63.0542C121.09 62.5752 121.21 62.138 121.449 61.7429C121.683 61.3477 121.999 61.0353 122.396 60.8057C122.789 60.5712 123.228 60.4556 123.712 60.4589C124.195 60.4622 124.635 60.5837 125.031 60.8235C125.422 61.0584 125.735 61.375 125.971 61.7734C126.201 62.1718 126.316 62.6105 126.314 63.0895ZM124.819 63.0794C124.82 62.881 124.769 62.6968 124.669 62.5267C124.568 62.3519 124.433 62.213 124.264 62.1103C124.095 62.0075 123.909 61.9555 123.706 61.9541C123.502 61.9527 123.316 62.0023 123.146 62.1027C122.976 62.2032 122.84 62.3402 122.738 62.5137C122.636 62.6824 122.584 62.8659 122.583 63.0643C122.582 63.2675 122.633 63.4542 122.733 63.6242C122.834 63.7942 122.969 63.9331 123.138 64.0407C123.307 64.1434 123.493 64.1955 123.696 64.1969C123.9 64.1982 124.086 64.1487 124.256 64.0482C124.426 63.9429 124.562 63.8059 124.664 63.6372C124.766 63.4686 124.818 63.2826 124.819 63.0794ZM120.628 69.1553C120.626 69.6344 120.508 70.0715 120.274 70.4667C120.036 70.8619 119.72 71.1767 119.327 71.4111C118.929 71.6407 118.488 71.7539 118.005 71.7506C117.53 71.7474 117.095 71.6235 116.7 71.3789C116.304 71.1343 115.988 70.8128 115.753 70.4144C115.517 70.016 115.4 69.5845 115.402 69.12C115.404 68.641 115.524 68.2063 115.763 67.816C115.997 67.4208 116.313 67.1059 116.711 66.8715C117.103 66.6371 117.542 66.5215 118.026 66.5248C118.51 66.528 118.949 66.6495 119.345 66.8893C119.736 67.1291 120.049 67.4481 120.285 67.8465C120.516 68.24 120.63 68.6763 120.628 69.1553ZM119.133 69.1452C119.134 68.942 119.084 68.7554 118.983 68.5853C118.882 68.4153 118.747 68.2789 118.578 68.1761C118.409 68.0734 118.223 68.0213 118.02 68.0199C117.816 68.0186 117.63 68.0681 117.46 68.1686C117.29 68.269 117.154 68.4036 117.052 68.5723C116.95 68.741 116.898 68.9269 116.897 69.1301C116.897 69.3334 116.947 69.52 117.048 69.69C117.148 69.8601 117.283 69.9965 117.452 70.0992C117.621 70.202 117.807 70.2541 118.011 70.2554C118.214 70.2568 118.4 70.2073 118.57 70.1068C118.74 70.0063 118.876 69.8718 118.978 69.7031C119.08 69.5344 119.132 69.3485 119.133 69.1452Z"
                          fill="#EAF0F6"/>
                </g>
            </g>
            <g class="sector-20">
                <path d="M18.5623 119.843C19.4186 102.808 24.5643 86.2642 33.5218 71.7481C42.4793 57.2319 54.9584 45.2135 69.8012 36.8079L119.702 124.924L18.5623 119.843Z"
                      fill="url(#paint4_linear_17_7843)"/>
                <g filter="url(#filter4_d_17_7843)">
                    <path d="M91.0298 98.2021L89.9578 100.085L81.6246 101.876C80.9758 102.015 80.4707 102.207 80.1091 102.453C79.7475 102.699 79.4766 102.98 79.2962 103.297C79.0512 103.727 78.9262 104.162 78.9211 104.602C78.9127 105.048 79.017 105.463 79.2339 105.846C79.4448 106.227 79.7628 106.537 80.1878 106.778C80.6367 107.032 81.0943 107.153 81.5606 107.14C82.0175 107.13 82.4387 107.009 82.8242 106.777C83.2097 106.544 83.5088 106.228 83.7214 105.826L85.9481 107.087C85.4581 107.948 84.8395 108.59 84.0922 109.012C83.339 109.432 82.5239 109.626 81.6467 109.596C80.7635 109.562 79.876 109.293 78.9841 108.788C78.1581 108.32 77.5214 107.715 77.0739 106.971C76.6231 106.234 76.3946 105.432 76.3884 104.567C76.3788 103.708 76.614 102.857 77.0938 102.014C77.4443 101.398 77.8225 100.929 78.2283 100.605C78.6341 100.282 79.105 100.038 79.641 99.8756C80.171 99.7093 80.8039 99.5499 81.5397 99.3974L87.4389 98.1489L87.3301 98.7988L80.9733 95.1993L82.132 93.1638L91.0298 98.2021ZM75.4859 89.021C76.4017 89.5396 77.0992 90.1915 77.5783 90.9766C78.0541 91.7677 78.2904 92.6248 78.2873 93.5479C78.2782 94.4677 78.0133 95.3848 77.4927 96.2995L75.1241 100.46C74.6035 101.375 73.9495 102.072 73.1623 102.551C72.3691 103.027 71.5117 103.26 70.5902 103.252C69.6652 103.25 68.7449 102.99 67.829 102.472C66.9132 101.953 66.2204 101.3 65.7507 100.512C65.2716 99.7269 65.0335 98.8728 65.0366 97.9497C65.0397 97.0266 65.3016 96.1077 65.8223 95.1931L68.1908 91.0324C68.7115 90.1177 69.3684 89.4226 70.1616 88.9468C70.9548 88.4711 71.8139 88.2343 72.7388 88.2363C73.6544 88.2409 74.5701 88.5024 75.4859 89.021ZM74.3169 91.0745C73.862 90.8169 73.3878 90.6906 72.8941 90.6957C72.3971 90.7067 71.9371 90.8336 71.514 91.0762C71.0875 91.3248 70.745 91.6763 70.4863 92.1306L67.9391 96.6051C67.6771 97.0654 67.55 97.5389 67.5579 98.0256C67.5624 98.5183 67.689 98.9773 67.9376 99.4026C68.1828 99.8339 68.5329 100.178 68.9878 100.436C69.4427 100.694 69.9187 100.817 70.4157 100.806C70.9093 100.801 71.3694 100.674 71.7959 100.425C72.2189 100.183 72.5615 99.8312 72.8235 99.3709L75.3707 94.8964C75.6293 94.442 75.7564 93.9685 75.7519 93.4759C75.744 92.9892 75.6174 92.5302 75.3722 92.0989C75.1236 91.6735 74.7719 91.3321 74.3169 91.0745ZM66.8772 84.5022L67.3938 86.3756L52.3642 90.5132L51.8519 88.6322L66.8772 84.5022ZM59.6648 80.1218C60.1587 80.4014 60.542 80.7766 60.8149 81.2473C61.08 81.7202 61.2199 82.2276 61.2346 82.7695C61.2465 83.3164 61.1106 83.8389 60.827 84.3371C60.5491 84.8253 60.1692 85.203 59.6873 85.4703C59.2053 85.7376 58.6903 85.8774 58.1424 85.8899C57.5944 85.9024 57.0809 85.7731 56.6021 85.502C56.1083 85.2223 55.7263 84.8447 55.4562 84.369C55.1833 83.8982 55.0434 83.3908 55.0366 82.8468C55.0218 82.3048 55.1563 81.7848 55.4399 81.2866C55.7235 80.7885 56.1037 80.4043 56.5807 80.1342C57.0498 79.8663 57.5584 79.7261 58.1064 79.7136C58.6515 79.7061 59.171 79.8421 59.6648 80.1218ZM58.7885 81.6611C58.584 81.5453 58.3647 81.4903 58.1306 81.496C57.8914 81.499 57.6699 81.5579 57.4659 81.673C57.2619 81.788 57.1003 81.9502 56.9812 82.1594C56.8621 82.3686 56.8053 82.5901 56.8108 82.8238C56.8163 83.0574 56.879 83.2774 56.9991 83.4837C57.1141 83.6872 57.2739 83.8468 57.4784 83.9626C57.6879 84.0812 57.9097 84.1377 58.1438 84.1319C58.378 84.1262 58.5995 84.0672 58.8085 83.955C59.0125 83.8399 59.1741 83.6778 59.2932 83.4685C59.4123 83.2593 59.4691 83.0379 59.4636 82.8042C59.4531 82.5677 59.3904 82.3477 59.2753 82.1442C59.1603 81.9408 58.998 81.7797 58.7885 81.6611ZM62.6394 89.5134C63.1332 89.793 63.5166 90.1682 63.7895 90.6389C64.0595 91.1146 64.2019 91.6234 64.2166 92.1653C64.2235 92.7094 64.0852 93.2305 63.8016 93.7287C63.5237 94.2169 63.1437 94.5946 62.6618 94.8619C62.1799 95.1292 61.6649 95.2691 61.1169 95.2816C60.5689 95.2941 60.0555 95.1647 59.5766 94.8936C59.0828 94.614 58.7034 94.2377 58.4383 93.7648C58.1654 93.2941 58.023 92.7853 58.0111 92.2384C57.9964 91.6965 58.1308 91.1764 58.4144 90.6783C58.698 90.1801 59.0783 89.796 59.5552 89.5259C60.0294 89.2608 60.5404 89.122 61.0884 89.1095C61.6286 89.0991 62.1456 89.2338 62.6394 89.5134ZM61.7631 91.0527C61.5536 90.9341 61.3318 90.8777 61.0976 90.8834C60.8635 90.8892 60.6444 90.9496 60.4404 91.0646C60.2364 91.1797 60.0749 91.3418 59.9558 91.551C59.8366 91.7603 59.7798 91.9817 59.7853 92.2154C59.7908 92.4491 59.8511 92.6676 59.9661 92.8711C60.0812 93.0746 60.2434 93.2356 60.4529 93.3542C60.6624 93.4729 60.8842 93.5293 61.1184 93.5236C61.3525 93.5178 61.5716 93.4574 61.7756 93.3423C61.9796 93.2273 62.1412 93.0652 62.2603 92.8559C62.3794 92.6467 62.4362 92.4253 62.4307 92.1916C62.4252 91.9579 62.3649 91.7393 62.2499 91.5359C62.1349 91.3324 61.9726 91.1713 61.7631 91.0527Z"
                          fill="#EAF0F6"/>
                </g>
            </g>
            <g class="sector-15">
                <path d="M64.9557 210.121C50.6053 200.901 38.8166 188.205 30.6835 173.212C22.5503 158.219 18.3362 141.415 18.4323 124.358L119.698 124.924L64.9557 210.121Z"
                      fill="url(#paint5_linear_17_7843)"/>
                <g filter="url(#filter5_d_17_7843)">
                    <path d="M80.5692 137.739L86.6466 148.109L88.1718 145.258L89.5452 147.602L88.0046 150.426L85.8388 151.699L78.4034 139.012L80.5692 137.739ZM71.1351 142.928C71.7808 142.549 72.4598 142.327 73.1723 142.264C73.8883 142.206 74.5864 142.294 75.2668 142.526C75.9413 142.761 76.5491 143.138 77.09 143.657L75.3676 145.404C75.0858 145.111 74.764 144.906 74.4022 144.787C74.0346 144.671 73.6645 144.632 73.2918 144.669C72.9133 144.71 72.5656 144.824 72.2486 145.01C71.8378 145.251 71.5207 145.572 71.2973 145.972C71.0739 146.371 70.9605 146.797 70.9572 147.249C70.9572 147.707 71.0778 148.142 71.3187 148.553C71.5597 148.964 71.881 149.277 72.2826 149.491C72.6818 149.714 73.1085 149.823 73.5625 149.817C74.02 149.816 74.4512 149.697 74.8562 149.459C75.3433 149.173 75.6967 148.847 75.9163 148.481C76.1299 148.118 76.2634 147.787 76.3165 147.488L78.471 147.003L82.0182 153.944L75.1333 157.99L73.9663 155.999L79.7155 152.621L79.362 153.835L76.9071 149L77.5733 149.248C77.4202 149.741 77.1695 150.188 76.8212 150.59C76.4729 150.992 76.0963 151.313 75.6913 151.551C74.8989 152.016 74.0908 152.246 73.2669 152.241C72.4407 152.245 71.6719 152.037 70.9608 151.618C70.2437 151.202 69.6528 150.598 69.1881 149.805C68.7234 149.012 68.5072 148.172 68.5394 147.284C68.575 146.403 68.8185 145.573 69.2697 144.794C69.7151 144.019 70.3369 143.397 71.1351 142.928ZM63.4701 147.788L65.3324 148.273L61.4416 163.194L59.575 162.701L63.4701 147.788ZM56.1436 151.797C56.6278 151.513 57.1393 151.37 57.6781 151.369C58.2148 151.376 58.7192 151.508 59.1912 151.763C59.6661 152.024 60.047 152.399 60.3339 152.888C60.615 153.368 60.7509 153.88 60.7415 154.425C60.7322 154.971 60.5973 155.481 60.3367 155.956C60.0762 156.432 59.7112 156.808 59.2416 157.084C58.7574 157.368 58.2445 157.508 57.7028 157.504C57.1641 157.505 56.6597 157.374 56.1897 157.11C55.7176 156.855 55.3382 156.482 55.0513 155.993C54.7645 155.503 54.6233 154.987 54.6277 154.445C54.6301 153.911 54.7616 153.406 55.0221 152.93C55.2855 152.46 55.6593 152.082 56.1436 151.797ZM57.03 153.31C56.8294 153.428 56.6737 153.588 56.5627 153.792C56.4469 153.998 56.3878 154.217 56.3855 154.449C56.3832 154.68 56.4422 154.899 56.5627 155.104C56.6832 155.31 56.845 155.468 57.0481 155.579C57.2512 155.69 57.471 155.745 57.7073 155.745C57.9387 155.747 58.1547 155.689 58.3552 155.571C58.5607 155.45 58.7189 155.288 58.8298 155.085C58.9408 154.882 58.9998 154.663 59.0071 154.428C59.0094 154.196 58.9503 153.978 58.8298 153.772C58.7093 153.567 58.5475 153.408 58.3444 153.297C58.1364 153.189 57.9167 153.134 57.6852 153.132C57.4538 153.13 57.2354 153.189 57.03 153.31ZM65.6701 153.898C66.1543 153.614 66.6658 153.471 67.2046 153.47C67.7462 153.474 68.253 153.604 68.7251 153.86C69.1951 154.123 69.5735 154.5 69.8604 154.989C70.1415 155.469 70.2774 155.981 70.268 156.526C70.2587 157.071 70.1238 157.582 69.8633 158.057C69.6027 158.533 69.2377 158.908 68.7681 159.184C68.2839 159.469 67.7734 159.608 67.2367 159.601C66.6979 159.601 66.1911 159.471 65.7162 159.211C65.2441 158.955 64.8647 158.583 64.5778 158.093C64.291 157.604 64.1498 157.088 64.1542 156.546C64.1615 156.009 64.2955 155.502 64.556 155.027C64.8145 154.559 65.1858 154.183 65.6701 153.898ZM66.5565 155.411C66.351 155.531 66.1928 155.693 66.0819 155.897C65.9709 156.1 65.9143 156.318 65.912 156.549C65.9097 156.781 65.9688 157 66.0892 157.205C66.2097 157.411 66.3715 157.569 66.5746 157.68C66.7777 157.791 66.995 157.847 67.2265 157.85C67.4579 157.852 67.6763 157.793 67.8817 157.672C68.0872 157.551 68.2454 157.389 68.3563 157.186C68.4673 156.982 68.5239 156.765 68.5262 156.533C68.5285 156.301 68.4695 156.083 68.349 155.877C68.2285 155.672 68.0667 155.513 67.8636 155.402C67.6605 155.291 67.4432 155.235 67.2118 155.233C66.9803 155.231 66.7619 155.29 66.5565 155.411Z"
                          fill="#EAF0F6"/>
                </g>
            </g>
        </g>
    </g>
    <defs>
        <filter id="filter0_d_17_7843" x="98.3174" y="105.037" width="43.3536" height="43.2076"
                filterUnits="userSpaceOnUse" color-interpolation-filters="sRGB">
            <feFlood flood-opacity="0" result="BackgroundImageFix"/>
            <feColorMatrix in="SourceAlpha" type="matrix"
                           values="0 0 0 0 0 0 0 0 0 0 0 0 0 0 0 0 0 0 127 0"
                           result="hardAlpha"/>
            <feOffset dy="2.57897"/>
            <feGaussianBlur stdDeviation="4.5132"/>
            <feComposite in2="hardAlpha" operator="out"/>
            <feColorMatrix type="matrix" values="0 0 0 0 0 0 0 0 0 0.916667 0 0 0 0 1 0 0 0 1 0"/>
            <feBlend mode="normal" in2="BackgroundImageFix" result="effect1_dropShadow_17_7843"/>
            <feBlend mode="normal" in="SourceGraphic" in2="effect1_dropShadow_17_7843"
                     result="shape"/>
        </filter>
        <filter id="filter1_d_17_7843" x="127.199" y="63.8158" width="81.9641" height="71.6198"
                filterUnits="userSpaceOnUse" color-interpolation-filters="sRGB">
            <feFlood flood-opacity="0" result="BackgroundImageFix"/>
            <feColorMatrix in="SourceAlpha" type="matrix"
                           values="0 0 0 0 0 0 0 0 0 0 0 0 0 0 0 0 0 0 127 0"
                           result="hardAlpha"/>
            <feOffset dy="4.4053"/>
            <feGaussianBlur stdDeviation="7.70928"/>
            <feComposite in2="hardAlpha" operator="out"/>
            <feColorMatrix type="matrix" values="0 0 0 0 0 0 0 0 0 0.916667 0 0 0 0 1 0 0 0 1 0"/>
            <feBlend mode="normal" in2="BackgroundImageFix" result="effect1_dropShadow_17_7843"/>
            <feBlend mode="normal" in="SourceGraphic" in2="effect1_dropShadow_17_7843"
                     result="shape"/>
        </filter>
        <filter id="filter2_d_17_7843" x="104.485" y="54.3382" width="30.3616" height="38.9519"
                filterUnits="userSpaceOnUse" color-interpolation-filters="sRGB">
            <feFlood flood-opacity="0" result="BackgroundImageFix"/>
            <feColorMatrix in="SourceAlpha" type="matrix"
                           values="0 0 0 0 0 0 0 0 0 0 0 0 0 0 0 0 0 0 127 0"
                           result="hardAlpha"/>
            <feOffset dy="2.4194"/>
            <feGaussianBlur stdDeviation="4.23394"/>
            <feComposite in2="hardAlpha" operator="out"/>
            <feColorMatrix type="matrix" values="0 0 0 0 0 0 0 0 0 0.916667 0 0 0 0 1 0 0 0 1 0"/>
            <feBlend mode="normal" in2="BackgroundImageFix" result="effect1_dropShadow_17_7843"/>
            <feBlend mode="normal" in="SourceGraphic" in2="effect1_dropShadow_17_7843"
                     result="shape"/>
        </filter>
        <filter id="filter3_d_17_7843" x="97.4936" y="149.08" width="45.8371" height="70.6799"
                filterUnits="userSpaceOnUse" color-interpolation-filters="sRGB">
            <feFlood flood-opacity="0" result="BackgroundImageFix"/>
            <feColorMatrix in="SourceAlpha" type="matrix"
                           values="0 0 0 0 0 0 0 0 0 0 0 0 0 0 0 0 0 0 127 0"
                           result="hardAlpha"/>
            <feOffset dy="4.01802"/>
            <feGaussianBlur stdDeviation="7.03154"/>
            <feComposite in2="hardAlpha" operator="out"/>
            <feColorMatrix type="matrix" values="0 0 0 0 0 0 0 0 0 0.916667 0 0 0 0 1 0 0 0 1 0"/>
            <feBlend mode="normal" in2="BackgroundImageFix" result="effect1_dropShadow_17_7843"/>
            <feBlend mode="normal" in="SourceGraphic" in2="effect1_dropShadow_17_7843"
                     result="shape"/>
        </filter>
        <filter id="filter4_d_17_7843" x="36.7845" y="69.5837" width="66.9642" height="57.9247"
                filterUnits="userSpaceOnUse" color-interpolation-filters="sRGB">
            <feFlood flood-opacity="0" result="BackgroundImageFix"/>
            <feColorMatrix in="SourceAlpha" type="matrix"
                           values="0 0 0 0 0 0 0 0 0 0 0 0 0 0 0 0 0 0 127 0"
                           result="hardAlpha"/>
            <feOffset dy="3.58724"/>
            <feGaussianBlur stdDeviation="6.27768"/>
            <feComposite in2="hardAlpha" operator="out"/>
            <feColorMatrix type="matrix" values="0 0 0 0 0 0 0 0 0 0.916667 0 0 0 0 1 0 0 0 1 0"/>
            <feBlend mode="normal" in2="BackgroundImageFix" result="effect1_dropShadow_17_7843"/>
            <feBlend mode="normal" in="SourceGraphic" in2="effect1_dropShadow_17_7843"
                     result="shape"/>
        </filter>
        <filter id="filter5_d_17_7843" x="41.0504" y="127.202" width="61.7566" height="55.031"
                filterUnits="userSpaceOnUse" color-interpolation-filters="sRGB">
            <feFlood flood-opacity="0" result="BackgroundImageFix"/>
            <feColorMatrix in="SourceAlpha" type="matrix"
                           values="0 0 0 0 0 0 0 0 0 0 0 0 0 0 0 0 0 0 127 0"
                           result="hardAlpha"/>
            <feOffset dy="3.55032"/>
            <feGaussianBlur stdDeviation="6.21307"/>
            <feComposite in2="hardAlpha" operator="out"/>
            <feColorMatrix type="matrix" values="0 0 0 0 0 0 0 0 0 0.916667 0 0 0 0 1 0 0 0 1 0"/>
            <feBlend mode="normal" in2="BackgroundImageFix" result="effect1_dropShadow_17_7843"/>
            <feBlend mode="normal" in="SourceGraphic" in2="effect1_dropShadow_17_7843"
                     result="shape"/>
        </filter>
        <filter id="filter6_d_17_7843" x="143.863" y="133.776" width="50.4495" height="43.9671"
                filterUnits="userSpaceOnUse" color-interpolation-filters="sRGB">
            <feFlood flood-opacity="0" result="BackgroundImageFix"/>
            <feColorMatrix in="SourceAlpha" type="matrix"
                           values="0 0 0 0 0 0 0 0 0 0 0 0 0 0 0 0 0 0 127 0"
                           result="hardAlpha"/>
            <feOffset dy="2.41298"/>
            <feGaussianBlur stdDeviation="4.22272"/>
            <feComposite in2="hardAlpha" operator="out"/>
            <feColorMatrix type="matrix" values="0 0 0 0 0 0 0 0 0 0.916667 0 0 0 0 1 0 0 0 1 0"/>
            <feBlend mode="normal" in2="BackgroundImageFix" result="effect1_dropShadow_17_7843"/>
            <feBlend mode="normal" in="SourceGraphic" in2="effect1_dropShadow_17_7843"
                     result="shape"/>
        </filter>
        <linearGradient id="paint0_linear_17_7843" x1="79.3986" y1="201.943" x2="153.511"
                        y2="172.198"
                        gradientUnits="userSpaceOnUse">
            <stop stop-color="#01CDF6"/>
            <stop offset="0.655636" stop-color="#0199F6" stop-opacity="0.249085"/>
            <stop offset="1" stop-color="#0199F6" stop-opacity="0"/>
        </linearGradient>
        <linearGradient id="paint1_linear_17_7843" x1="166.104" y1="198.426" x2="177.561"
                        y2="119.396"
                        gradientUnits="userSpaceOnUse">
            <stop stop-color="#01CDF6"/>
            <stop offset="0.655636" stop-color="#0199F6" stop-opacity="0.249085"/>
            <stop offset="1" stop-color="#0199F6" stop-opacity="0"/>
        </linearGradient>
        <linearGradient id="paint2_linear_17_7843" x1="206.569" y1="121.87" x2="144.076" y2="72.156"
                        gradientUnits="userSpaceOnUse">
            <stop stop-color="#01CDF6"/>
            <stop offset="0.655636" stop-color="#0199F6" stop-opacity="0.249085"/>
            <stop offset="1" stop-color="#0199F6" stop-opacity="0"/>
        </linearGradient>
        <linearGradient id="paint3_linear_17_7843" x1="160.77" y1="48.3135" x2="86.3626"
                        y2="77.3118"
                        gradientUnits="userSpaceOnUse">
            <stop stop-color="#01CDF6"/>
            <stop offset="0.655636" stop-color="#0199F6" stop-opacity="0.249085"/>
            <stop offset="1" stop-color="#0199F6" stop-opacity="0"/>
        </linearGradient>
        <linearGradient id="paint4_linear_17_7843" x1="73.8554" y1="51.0747" x2="61.8042"
                        y2="130.017"
                        gradientUnits="userSpaceOnUse">
            <stop stop-color="#01CDF6"/>
            <stop offset="0.655636" stop-color="#0199F6" stop-opacity="0.249085"/>
            <stop offset="1" stop-color="#0199F6" stop-opacity="0"/>
        </linearGradient>
        <linearGradient id="paint5_linear_17_7843" x1="32.8249" y1="127.941" x2="95.2976"
                        y2="177.681"
                        gradientUnits="userSpaceOnUse">
            <stop stop-color="#01CDF6"/>
            <stop offset="0.655636" stop-color="#0199F6" stop-opacity="0.249085"/>
            <stop offset="1" stop-color="#0199F6" stop-opacity="0"/>
        </linearGradient>
        <linearGradient id="paint6_linear_17_7843" x1="25.9311" y1="39.9203" x2="209.305"
                        y2="35.3664"
                        gradientUnits="userSpaceOnUse">
            <stop stop-color="#134E90"/>
            <stop offset="0.505" stop-color="#6494C4"/>
            <stop offset="1" stop-color="#134E91"/>
        </linearGradient>
        <linearGradient id="paint7_linear_17_7843" x1="30.265" y1="214.402" x2="213.639"
                        y2="209.848"
                        gradientUnits="userSpaceOnUse">
            <stop stop-color="#134E90"/>
            <stop offset="0.505" stop-color="#6494C4"/>
            <stop offset="1" stop-color="#134E91"/>
        </linearGradient>
        <linearGradient id="paint8_linear_17_7843" x1="62.05" y1="237.572" x2="10.1364" y2="61.5517"
                        gradientUnits="userSpaceOnUse">
            <stop stop-color="#134E90"/>
            <stop offset="0.505" stop-color="#6494C4"/>
            <stop offset="1" stop-color="#134E91"/>
        </linearGradient>
        <linearGradient id="paint9_linear_17_7843" x1="229.376" y1="188.223" x2="177.463"
                        y2="12.2026"
                        gradientUnits="userSpaceOnUse">
            <stop stop-color="#134E90"/>
            <stop offset="0.505" stop-color="#6494C4"/>
            <stop offset="1" stop-color="#134E91"/>
        </linearGradient>
        <radialGradient id="paint10_radial_17_7843" cx="0" cy="0" r="1"
                        gradientUnits="userSpaceOnUse"
                        gradientTransform="translate(122.636 231.096) rotate(-161.532) scale(13.9433 13.8817)">
            <stop stop-color="#FEFEFE"/>
            <stop offset="1" stop-color="#0059FF" stop-opacity="0"/>
        </radialGradient>
        <radialGradient id="paint11_radial_17_7843" cx="0" cy="0" r="1"
                        gradientUnits="userSpaceOnUse"
                        gradientTransform="translate(122.636 231.096) rotate(-163.977) scale(8.82443 8.78564)">
            <stop stop-color="#FEFEFE"/>
            <stop offset="1" stop-color="#0059FF" stop-opacity="0"/>
        </radialGradient>
        <radialGradient id="paint12_radial_17_7843" cx="0" cy="0" r="1"
                        gradientUnits="userSpaceOnUse"
                        gradientTransform="translate(160.574 223.733) rotate(-161.532) scale(13.9433 13.8817)">
            <stop stop-color="#FEFEFE"/>
            <stop offset="1" stop-color="#0059FF" stop-opacity="0"/>
        </radialGradient>
        <radialGradient id="paint13_radial_17_7843" cx="0" cy="0" r="1"
                        gradientUnits="userSpaceOnUse"
                        gradientTransform="translate(160.574 223.733) rotate(-163.977) scale(8.82443 8.78564)">
            <stop stop-color="#FEFEFE"/>
            <stop offset="1" stop-color="#0059FF" stop-opacity="0"/>
        </radialGradient>
        <radialGradient id="paint14_radial_17_7843" cx="0" cy="0" r="1"
                        gradientUnits="userSpaceOnUse"
                        gradientTransform="translate(86.2125 225.582) rotate(-161.532) scale(13.9433 13.8817)">
            <stop stop-color="#FEFEFE"/>
            <stop offset="1" stop-color="#0059FF" stop-opacity="0"/>
        </radialGradient>
        <radialGradient id="paint15_radial_17_7843" cx="0" cy="0" r="1"
                        gradientUnits="userSpaceOnUse"
                        gradientTransform="translate(86.2125 225.582) rotate(-163.977) scale(8.82443 8.78564)">
            <stop stop-color="#FEFEFE"/>
            <stop offset="1" stop-color="#0059FF" stop-opacity="0"/>
        </radialGradient>
        <radialGradient id="paint16_radial_17_7843" cx="0" cy="0" r="1"
                        gradientUnits="userSpaceOnUse"
                        gradientTransform="translate(53.5601 207.977) rotate(-161.532) scale(13.9433 13.8817)">
            <stop stop-color="#FEFEFE"/>
            <stop offset="1" stop-color="#0059FF" stop-opacity="0"/>
        </radialGradient>
        <radialGradient id="paint17_radial_17_7843" cx="0" cy="0" r="1"
                        gradientUnits="userSpaceOnUse"
                        gradientTransform="translate(53.5601 207.977) rotate(-163.977) scale(8.82443 8.78564)">
            <stop stop-color="#FEFEFE"/>
            <stop offset="1" stop-color="#0059FF" stop-opacity="0"/>
        </radialGradient>
        <radialGradient id="paint18_radial_17_7843" cx="0" cy="0" r="1"
                        gradientUnits="userSpaceOnUse"
                        gradientTransform="translate(27.566 180.229) rotate(-161.532) scale(13.9433 13.8817)">
            <stop stop-color="#FEFEFE"/>
            <stop offset="1" stop-color="#0059FF" stop-opacity="0"/>
        </radialGradient>
        <radialGradient id="paint19_radial_17_7843" cx="0" cy="0" r="1"
                        gradientUnits="userSpaceOnUse"
                        gradientTransform="translate(27.566 180.229) rotate(-163.977) scale(8.82443 8.78564)">
            <stop stop-color="#FEFEFE"/>
            <stop offset="1" stop-color="#0059FF" stop-opacity="0"/>
        </radialGradient>
        <radialGradient id="paint20_radial_17_7843" cx="0" cy="0" r="1"
                        gradientUnits="userSpaceOnUse"
                        gradientTransform="translate(190.004 204.583) rotate(-161.532) scale(13.9433 13.8817)">
            <stop stop-color="#FEFEFE"/>
            <stop offset="1" stop-color="#0059FF" stop-opacity="0"/>
        </radialGradient>
        <radialGradient id="paint21_radial_17_7843" cx="0" cy="0" r="1"
                        gradientUnits="userSpaceOnUse"
                        gradientTransform="translate(190.004 204.583) rotate(-163.977) scale(8.82443 8.78564)">
            <stop stop-color="#FEFEFE"/>
            <stop offset="1" stop-color="#0059FF" stop-opacity="0"/>
        </radialGradient>
        <radialGradient id="paint22_radial_17_7843" cx="0" cy="0" r="1"
                        gradientUnits="userSpaceOnUse"
                        gradientTransform="translate(213.066 175.615) rotate(-161.532) scale(13.9433 13.8817)">
            <stop stop-color="#FEFEFE"/>
            <stop offset="1" stop-color="#0059FF" stop-opacity="0"/>
        </radialGradient>
        <radialGradient id="paint23_radial_17_7843" cx="0" cy="0" r="1"
                        gradientUnits="userSpaceOnUse"
                        gradientTransform="translate(213.066 175.615) rotate(-163.977) scale(8.82443 8.78564)">
            <stop stop-color="#FEFEFE"/>
            <stop offset="1" stop-color="#0059FF" stop-opacity="0"/>
        </radialGradient>
        <radialGradient id="paint24_radial_17_7843" cx="0" cy="0" r="1"
                        gradientUnits="userSpaceOnUse"
                        gradientTransform="translate(226.005 140.76) rotate(-161.532) scale(13.9433 13.8817)">
            <stop stop-color="#FEFEFE"/>
            <stop offset="1" stop-color="#0059FF" stop-opacity="0"/>
        </radialGradient>
        <radialGradient id="paint25_radial_17_7843" cx="0" cy="0" r="1"
                        gradientUnits="userSpaceOnUse"
                        gradientTransform="translate(226.005 140.76) rotate(-163.977) scale(8.82444 8.78564)">
            <stop stop-color="#FEFEFE"/>
            <stop offset="1" stop-color="#0059FF" stop-opacity="0"/>
        </radialGradient>
        <radialGradient id="paint26_radial_17_7843" cx="0" cy="0" r="1"
                        gradientUnits="userSpaceOnUse"
                        gradientTransform="translate(12.9078 146.061) rotate(-161.532) scale(13.9433 13.8817)">
            <stop stop-color="#FEFEFE"/>
            <stop offset="1" stop-color="#0059FF" stop-opacity="0"/>
        </radialGradient>
        <radialGradient id="paint27_radial_17_7843" cx="0" cy="0" r="1"
                        gradientUnits="userSpaceOnUse"
                        gradientTransform="translate(12.9078 146.061) rotate(-163.977) scale(8.82443 8.78564)">
            <stop stop-color="#FEFEFE"/>
            <stop offset="1" stop-color="#0059FF" stop-opacity="0"/>
        </radialGradient>
        <radialGradient id="paint28_radial_17_7843" cx="0" cy="0" r="1"
                        gradientUnits="userSpaceOnUse"
                        gradientTransform="translate(117.336 17.5946) rotate(158.682) scale(13.9438 13.8813)">
            <stop stop-color="#FEFEFE"/>
            <stop offset="1" stop-color="#0059FF" stop-opacity="0"/>
        </radialGradient>
        <radialGradient id="paint29_radial_17_7843" cx="0" cy="0" r="1"
                        gradientUnits="userSpaceOnUse"
                        gradientTransform="translate(117.336 17.5946) rotate(161.127) scale(8.82467 8.7854)">
            <stop stop-color="#FEFEFE"/>
            <stop offset="1" stop-color="#0059FF" stop-opacity="0"/>
        </radialGradient>
        <radialGradient id="paint30_radial_17_7843" cx="0" cy="0" r="1"
                        gradientUnits="userSpaceOnUse"
                        gradientTransform="translate(155.58 23.0633) rotate(158.682) scale(13.9438 13.8813)">
            <stop stop-color="#FEFEFE"/>
            <stop offset="1" stop-color="#0059FF" stop-opacity="0"/>
        </radialGradient>
        <radialGradient id="paint31_radial_17_7843" cx="0" cy="0" r="1"
                        gradientUnits="userSpaceOnUse"
                        gradientTransform="translate(155.58 23.0633) rotate(161.127) scale(8.82467 8.7854)">
            <stop stop-color="#FEFEFE"/>
            <stop offset="1" stop-color="#0059FF" stop-opacity="0"/>
        </radialGradient>
        <radialGradient id="paint32_radial_17_7843" cx="0" cy="0" r="1"
                        gradientUnits="userSpaceOnUse"
                        gradientTransform="translate(81.2229 24.9129) rotate(158.682) scale(13.9438 13.8813)">
            <stop stop-color="#FEFEFE"/>
            <stop offset="1" stop-color="#0059FF" stop-opacity="0"/>
        </radialGradient>
        <radialGradient id="paint33_radial_17_7843" cx="0" cy="0" r="1"
                        gradientUnits="userSpaceOnUse"
                        gradientTransform="translate(81.2229 24.9129) rotate(161.127) scale(8.82467 8.7854)">
            <stop stop-color="#FEFEFE"/>
            <stop offset="1" stop-color="#0059FF" stop-opacity="0"/>
        </radialGradient>
        <radialGradient id="paint34_radial_17_7843" cx="0" cy="0" r="1"
                        gradientUnits="userSpaceOnUse"
                        gradientTransform="translate(49.4846 44.12) rotate(158.682) scale(13.9438 13.8813)">
            <stop stop-color="#FEFEFE"/>
            <stop offset="1" stop-color="#0059FF" stop-opacity="0"/>
        </radialGradient>
        <radialGradient id="paint35_radial_17_7843" cx="0" cy="0" r="1"
                        gradientUnits="userSpaceOnUse"
                        gradientTransform="translate(49.4846 44.12) rotate(161.127) scale(8.82467 8.7854)">
            <stop stop-color="#FEFEFE"/>
            <stop offset="1" stop-color="#0059FF" stop-opacity="0"/>
        </radialGradient>
        <radialGradient id="paint36_radial_17_7843" cx="0" cy="0" r="1"
                        gradientUnits="userSpaceOnUse"
                        gradientTransform="translate(24.8928 73.1258) rotate(158.682) scale(13.9438 13.8813)">
            <stop stop-color="#FEFEFE"/>
            <stop offset="1" stop-color="#0059FF" stop-opacity="0"/>
        </radialGradient>
        <radialGradient id="paint37_radial_17_7843" cx="0" cy="0" r="1"
                        gradientUnits="userSpaceOnUse"
                        gradientTransform="translate(24.8928 73.1258) rotate(161.127) scale(8.82467 8.7854)">
            <stop stop-color="#FEFEFE"/>
            <stop offset="1" stop-color="#0059FF" stop-opacity="0"/>
        </radialGradient>
        <radialGradient id="paint38_radial_17_7843" cx="0" cy="0" r="1"
                        gradientUnits="userSpaceOnUse"
                        gradientTransform="translate(185.932 40.7264) rotate(158.682) scale(13.9438 13.8813)">
            <stop stop-color="#FEFEFE"/>
            <stop offset="1" stop-color="#0059FF" stop-opacity="0"/>
        </radialGradient>
        <radialGradient id="paint39_radial_17_7843" cx="0" cy="0" r="1"
                        gradientUnits="userSpaceOnUse"
                        gradientTransform="translate(185.932 40.7264) rotate(161.127) scale(8.82467 8.7854)">
            <stop stop-color="#FEFEFE"/>
            <stop offset="1" stop-color="#0059FF" stop-opacity="0"/>
        </radialGradient>
        <radialGradient id="paint40_radial_17_7843" cx="0" cy="0" r="1"
                        gradientUnits="userSpaceOnUse"
                        gradientTransform="translate(210.397 68.512) rotate(158.682) scale(13.9438 13.8813)">
            <stop stop-color="#FEFEFE"/>
            <stop offset="1" stop-color="#0059FF" stop-opacity="0"/>
        </radialGradient>
        <radialGradient id="paint41_radial_17_7843" cx="0" cy="0" r="1"
                        gradientUnits="userSpaceOnUse"
                        gradientTransform="translate(210.397 68.512) rotate(161.127) scale(8.82467 8.7854)">
            <stop stop-color="#FEFEFE"/>
            <stop offset="1" stop-color="#0059FF" stop-opacity="0"/>
        </radialGradient>
        <radialGradient id="paint42_radial_17_7843" cx="0" cy="0" r="1"
                        gradientUnits="userSpaceOnUse"
                        gradientTransform="translate(225.051 102.681) rotate(158.682) scale(13.9438 13.8813)">
            <stop stop-color="#FEFEFE"/>
            <stop offset="1" stop-color="#0059FF" stop-opacity="0"/>
        </radialGradient>
        <radialGradient id="paint43_radial_17_7843" cx="0" cy="0" r="1"
                        gradientUnits="userSpaceOnUse"
                        gradientTransform="translate(225.051 102.681) rotate(161.127) scale(8.82467 8.7854)">
            <stop stop-color="#FEFEFE"/>
            <stop offset="1" stop-color="#0059FF" stop-opacity="0"/>
        </radialGradient>
        <radialGradient id="paint44_radial_17_7843" cx="0" cy="0" r="1"
                        gradientUnits="userSpaceOnUse"
                        gradientTransform="translate(11.9533 107.981) rotate(158.682) scale(13.9438 13.8813)">
            <stop stop-color="#FEFEFE"/>
            <stop offset="1" stop-color="#0059FF" stop-opacity="0"/>
        </radialGradient>
        <radialGradient id="paint45_radial_17_7843" cx="0" cy="0" r="1"
                        gradientUnits="userSpaceOnUse"
                        gradientTransform="translate(11.9533 107.981) rotate(161.127) scale(8.82467 8.7854)">
            <stop stop-color="#FEFEFE"/>
            <stop offset="1" stop-color="#0059FF" stop-opacity="0"/>
        </radialGradient>
        <linearGradient id="paint46_linear_17_7843" x1="102.419" y1="126.16" x2="117.154"
                        y2="108.634"
                        gradientUnits="userSpaceOnUse">
            <stop stop-color="#0077EF"/>
            <stop offset="1" stop-color="#00C6FF"/>
        </linearGradient>
        <radialGradient id="paint47_radial_17_7843" cx="0" cy="0" r="1"
                        gradientUnits="userSpaceOnUse"
                        gradientTransform="translate(119.743 124.474) rotate(178.574) scale(103.131 102.531)">
            <stop/>
            <stop offset="0.84" stop-color="#434343"/>
        </radialGradient>
        <clipPath id="clip0_17_7843">
            <rect width="240" height="245" fill="white"/>
        </clipPath>
    </defs>
</svg>
