<svg width="500" height="500" viewBox="0 0 500 500" fill="none" xmlns="http://www.w3.org/2000/svg">
<g filter="url(#filter0_f_479_1264)">
<path d="M329.549 44.7621L311.006 41.8482L318.751 11.6793L282.743 48.8837L301.301 51.7998L293.54 81.9804L329.549 44.7621Z" fill="#7DE2FF"/>
</g>
<g opacity="0.7" filter="url(#filter1_f_479_1264)">
<path d="M178.333 44.0667L167.945 48.8067L161.758 30.8986L155.961 61.8554L166.357 57.1119L172.54 75.0313L178.333 44.0667Z" fill="#7DE2FF"/>
</g>
<g opacity="0.7" filter="url(#filter2_f_479_1264)">
<path d="M44.053 125.338L38.8978 139.735L15.9325 128.943L40.2255 163.424L45.3846 149.017L68.3568 159.823L44.053 125.338Z" fill="#7DE2FF"/>
</g>
<g opacity="0.7" filter="url(#filter3_f_479_1264)">
<path d="M468.199 179.452L463.617 192.248L443.205 182.657L464.797 213.304L469.383 200.499L489.801 210.103L468.199 179.452Z" fill="#7DE2FF"/>
</g>
<g opacity="0.8" filter="url(#filter4_f_479_1264)">
<path d="M428.244 49.2465L416.651 42.4444L429.72 24.3714L395.975 39.7247L407.576 46.5319L394.494 64.6087L428.244 49.2465Z" fill="#7DE2FF"/>
</g>
<defs>
<filter id="filter0_f_479_1264" x="278.744" y="7.67944" width="54.8047" height="78.301" filterUnits="userSpaceOnUse" color-interpolation-filters="sRGB">
<feFlood flood-opacity="0" result="BackgroundImageFix"/>
<feBlend mode="normal" in="SourceGraphic" in2="BackgroundImageFix" result="shape"/>
<feGaussianBlur stdDeviation="2" result="effect1_foregroundBlur_479_1264"/>
</filter>
<filter id="filter1_f_479_1264" x="147.961" y="22.8987" width="38.3711" height="60.1326" filterUnits="userSpaceOnUse" color-interpolation-filters="sRGB">
<feFlood flood-opacity="0" result="BackgroundImageFix"/>
<feBlend mode="normal" in="SourceGraphic" in2="BackgroundImageFix" result="shape"/>
<feGaussianBlur stdDeviation="4" result="effect1_foregroundBlur_479_1264"/>
</filter>
<filter id="filter2_f_479_1264" x="7.93164" y="117.338" width="68.4258" height="54.0869" filterUnits="userSpaceOnUse" color-interpolation-filters="sRGB">
<feFlood flood-opacity="0" result="BackgroundImageFix"/>
<feBlend mode="normal" in="SourceGraphic" in2="BackgroundImageFix" result="shape"/>
<feGaussianBlur stdDeviation="4" result="effect1_foregroundBlur_479_1264"/>
</filter>
<filter id="filter3_f_479_1264" x="435.205" y="171.452" width="62.5957" height="49.8521" filterUnits="userSpaceOnUse" color-interpolation-filters="sRGB">
<feFlood flood-opacity="0" result="BackgroundImageFix"/>
<feBlend mode="normal" in="SourceGraphic" in2="BackgroundImageFix" result="shape"/>
<feGaussianBlur stdDeviation="4" result="effect1_foregroundBlur_479_1264"/>
</filter>
<filter id="filter4_f_479_1264" x="386.494" y="16.3713" width="51.2266" height="56.2373" filterUnits="userSpaceOnUse" color-interpolation-filters="sRGB">
<feFlood flood-opacity="0" result="BackgroundImageFix"/>
<feBlend mode="normal" in="SourceGraphic" in2="BackgroundImageFix" result="shape"/>
<feGaussianBlur stdDeviation="4" result="effect1_foregroundBlur_479_1264"/>
</filter>
</defs>
</svg>
