<svg width="512" height="500" viewBox="0 0 512 500" fill="none" xmlns="http://www.w3.org/2000/svg">
<g opacity="0.7" filter="url(#filter0_f_479_1111)">
<path d="M77.498 151.164C83.3865 151.164 88.1601 146.391 88.1601 140.502C88.1601 134.613 83.3865 129.84 77.498 129.84C71.6095 129.84 66.8359 134.613 66.8359 140.502C66.8359 146.391 71.6095 151.164 77.498 151.164Z" fill="#65C3E8"/>
<path d="M76.457 154.331L76.457 161.963C76.457 162.538 76.9242 163.005 77.4985 163.005C78.0727 163.005 78.5355 162.538 78.5355 161.963L78.5355 154.331C78.5355 153.757 78.0684 153.29 77.4985 153.29C76.9242 153.29 76.457 153.757 76.457 154.331Z" fill="#65C3E8"/>
<path d="M77.4985 127.714C78.0727 127.714 78.5355 127.247 78.5355 126.673L78.5355 119.041C78.5355 118.466 78.0684 117.999 77.4985 117.999C76.9242 117.999 76.457 118.466 76.457 119.041L76.457 126.673C76.457 127.247 76.9242 127.714 77.4985 127.714Z" fill="#65C3E8"/>
<path d="M92.6741 156.713C92.9398 156.713 93.2055 156.611 93.4069 156.409C93.814 156.002 93.814 155.346 93.4069 154.939L88.0114 149.544C87.6043 149.137 86.9488 149.137 86.5417 149.544C86.1345 149.951 86.1345 150.607 86.5417 151.014L91.9369 156.409C92.1426 156.615 92.4084 156.713 92.6741 156.713Z" fill="#65C3E8"/>
<path d="M66.9863 131.46C67.1877 131.661 67.4534 131.764 67.719 131.764C67.9847 131.764 68.2504 131.661 68.4518 131.46C68.859 131.052 68.859 130.397 68.4518 129.99L63.0564 124.594C62.6492 124.187 61.9937 124.187 61.5866 124.594C61.1795 125.001 61.1795 125.657 61.5866 126.064L66.9863 131.46Z" fill="#65C3E8"/>
<path d="M90.2852 140.502C90.2852 141.076 90.7523 141.543 91.3266 141.543L98.959 141.543C99.5332 141.543 100 141.076 100 140.502C100 139.927 99.5332 139.46 98.959 139.46L91.3266 139.46C90.7523 139.46 90.2852 139.927 90.2852 140.502Z" fill="#65C3E8"/>
<path d="M56.037 141.543L63.6694 141.543C64.2436 141.543 64.7108 141.076 64.7108 140.502C64.7108 139.927 64.2436 139.46 63.6694 139.46L56.037 139.46C55.4628 139.46 55 139.927 55 140.502C55 141.076 55.4671 141.543 56.037 141.543Z" fill="#65C3E8"/>
<path d="M87.2786 131.764C87.5443 131.764 87.81 131.661 88.0114 131.46L93.4069 126.064C93.814 125.657 93.814 125.001 93.4069 124.594C92.9998 124.187 92.3441 124.187 91.9369 124.594L86.5417 129.99C86.1345 130.397 86.1345 131.052 86.5417 131.46C86.7474 131.661 87.0129 131.764 87.2786 131.764Z" fill="#65C3E8"/>
<path d="M66.986 149.544L61.5905 154.939C61.1834 155.347 61.1834 156.002 61.5905 156.409C61.7919 156.611 62.0576 156.714 62.3233 156.714C62.589 156.714 62.8547 156.611 63.0561 156.409L68.4516 151.014C68.8587 150.607 68.8587 149.951 68.4516 149.544C68.0487 149.141 67.3888 149.141 66.986 149.544Z" fill="#65C3E8"/>
</g>
<g filter="url(#filter1_f_479_1111)">
<path d="M168.482 20.4718C170.333 13.9002 177.161 10.0725 183.732 11.923C185.313 12.3681 186.74 13.1041 187.963 14.057C191.939 10.0225 197.936 8.2156 203.778 9.86069C210.968 11.8855 215.633 18.4961 215.496 25.6338C216.586 25.5768 217.704 25.6948 218.815 26.0076C224.314 27.5562 227.514 33.2654 225.966 38.7647C224.417 44.2641 218.708 47.4644 213.209 45.9158L177.029 35.7277C170.457 33.8772 166.63 27.0489 168.482 20.4718Z" fill="#65C3E8"/>
<path d="M208.671 57.9765C208.103 59.9939 206.006 61.1692 203.989 60.6011C201.971 60.033 200.796 57.9363 201.364 55.919C202.217 52.8902 206.806 50.5973 206.806 50.5973C206.806 50.5973 209.471 55.1357 208.671 57.9765Z" fill="#65C3E8"/>
<path d="M221.125 74.3928C221.022 76.4861 219.242 78.1007 217.149 77.9982C215.055 77.8958 213.441 76.1152 213.543 74.0219C213.697 70.8791 217.656 67.6178 217.656 67.6178C217.656 67.6178 221.269 71.445 221.125 74.3928Z" fill="#65C3E8"/>
<path d="M199.903 93.9953C199.091 95.9277 196.866 96.8367 194.934 96.0253C193.001 95.2138 192.092 92.9886 192.904 91.0563C194.122 88.1551 198.958 86.443 198.958 86.443C198.958 86.443 201.045 91.2742 199.903 93.9953Z" fill="#65C3E8"/>
<path d="M192.089 46.4525C192.089 46.4525 194.754 50.9909 193.954 53.8318C193.386 55.8492 191.289 57.0244 189.272 56.4563C187.254 55.8882 186.079 53.7916 186.647 51.7743C187.5 48.7455 192.089 46.4525 192.089 46.4525Z" fill="#65C3E8"/>
<path d="M202.383 66.87C202.383 66.87 205.996 70.6972 205.851 73.645C205.749 75.7383 203.968 77.3528 201.875 77.2504C199.782 77.148 198.167 75.3674 198.27 73.2741C198.423 70.1313 202.383 66.87 202.383 66.87Z" fill="#65C3E8"/>
<path d="M171.934 47.6313C172.787 44.6025 177.376 42.3096 177.376 42.3096C177.376 42.3096 180.041 46.8479 179.241 49.6888C178.673 51.7062 176.576 52.8815 174.559 52.3134C172.542 51.7453 171.366 49.6486 171.934 47.6313Z" fill="#65C3E8"/>
<path d="M183.004 72.5275C183.158 69.3847 187.117 66.1234 187.117 66.1234C187.117 66.1234 190.73 69.9506 190.586 72.8984C190.483 74.9917 188.703 76.6063 186.61 76.5039C184.516 76.4015 182.902 74.6208 183.004 72.5275Z" fill="#65C3E8"/>
</g>
<g filter="url(#filter2_f_479_1111)">
<g filter="url(#filter3_f_479_1111)">
<path d="M443.446 181.648L438.672 189.651M438.672 189.651L431.501 202.233M438.672 189.651L436.512 181.518M438.672 189.651L446.783 188.646M419.556 222.818L424.33 214.815M424.33 214.815L431.501 202.233M424.33 214.815L416.219 215.82M424.33 214.815L426.49 222.948M431.501 202.233L424.805 189.392M431.501 202.233L447.68 202.535M431.501 202.233L416.478 201.952M431.501 202.233L438.197 215.074M424.805 189.392L420.333 181.216M424.805 189.392L427.267 181.345M424.805 189.392L416.737 188.085M447.68 202.535L454.613 202.665M447.68 202.535L450.099 196.8M447.68 202.535L449.883 208.356M416.478 201.952L408.389 201.801M416.478 201.952L412.903 207.665M416.478 201.952L413.119 196.109M438.197 215.074L442.668 223.25M438.197 215.074L435.735 223.12M438.197 215.074L446.265 216.381" stroke="#65C3E8" stroke-width="3" stroke-linecap="round" stroke-linejoin="round"/>
</g>
<g opacity="0.6" filter="url(#filter4_f_479_1111)">
<path d="M501.931 150.291L499.785 153.888M499.785 153.888L496.562 159.543M499.785 153.888L498.815 150.233M499.785 153.888L503.431 153.437M491.194 168.795L493.339 165.198M493.339 165.198L496.562 159.543M493.339 165.198L489.694 165.65M493.339 165.198L494.31 168.854M496.562 159.543L493.553 153.772M496.562 159.543L503.834 159.679M496.562 159.543L489.81 159.417M496.562 159.543L499.572 165.315M493.553 153.772L491.543 150.097M493.553 153.772L494.659 150.155M493.553 153.772L489.926 153.184M503.834 159.679L506.95 159.737M503.834 159.679L504.921 157.102M503.834 159.679L504.824 162.296M489.81 159.417L486.174 159.349M489.81 159.417L488.203 161.985M489.81 159.417L488.3 156.791M499.572 165.315L501.582 168.99M499.572 165.315L498.465 168.931M499.572 165.315L503.198 165.902" stroke="#65C3E8" stroke-width="2" stroke-linecap="round" stroke-linejoin="round"/>
</g>
<g opacity="0.8" filter="url(#filter5_f_479_1111)">
<path d="M386.778 73.1569C385.415 73.1569 384.109 73.4238 382.918 73.9099C380.649 69.7925 376.265 66.9999 371.228 66.9999C365.028 66.9999 359.815 71.2317 358.318 76.9646C357.46 76.6739 356.54 76.5166 355.583 76.5166C350.841 76.5166 347 80.3577 347 85.0994C347 89.8411 350.841 93.6821 355.583 93.6821L369.593 93.6821L369.922 93.034L366.901 91.509L372.61 80.1908L378.443 83.1312L373.968 90.5559L376.708 91.9379L375.607 93.6773L386.773 93.6773C392.439 93.6773 397.033 89.0833 397.033 83.4171C397.033 77.7509 392.444 73.1569 386.778 73.1569Z" fill="#65C3E8"/>
<path d="M365.162 102.465L367.325 103.557L362.998 112.135L374.55 101.607L371.552 100.092L375.613 93.6776L369.594 93.6776L365.162 102.465Z" fill="#65C3E8"/>
</g>
</g>
<defs>
<filter id="filter0_f_479_1111" x="50" y="112.999" width="55" height="55.0057" filterUnits="userSpaceOnUse" color-interpolation-filters="sRGB">
<feFlood flood-opacity="0" result="BackgroundImageFix"/>
<feBlend mode="normal" in="SourceGraphic" in2="BackgroundImageFix" result="shape"/>
<feGaussianBlur stdDeviation="2.5" result="effect1_foregroundBlur_479_1111"/>
</filter>
<filter id="filter1_f_479_1111" x="165.016" y="6.255" width="64.3398" height="93.0671" filterUnits="userSpaceOnUse" color-interpolation-filters="sRGB">
<feFlood flood-opacity="0" result="BackgroundImageFix"/>
<feBlend mode="normal" in="SourceGraphic" in2="BackgroundImageFix" result="shape"/>
<feGaussianBlur stdDeviation="1.5" result="effect1_foregroundBlur_479_1111"/>
</filter>
<filter id="filter2_f_479_1111" x="344.543" y="64.5429" width="165.865" height="162.664" filterUnits="userSpaceOnUse" color-interpolation-filters="sRGB">
<feFlood flood-opacity="0" result="BackgroundImageFix"/>
<feBlend mode="normal" in="SourceGraphic" in2="BackgroundImageFix" result="shape"/>
<feGaussianBlur stdDeviation="1.22851" result="effect1_foregroundBlur_479_1111"/>
</filter>
<filter id="filter3_f_479_1111" x="402.889" y="175.716" width="57.2246" height="53.0347" filterUnits="userSpaceOnUse" color-interpolation-filters="sRGB">
<feFlood flood-opacity="0" result="BackgroundImageFix"/>
<feBlend mode="normal" in="SourceGraphic" in2="BackgroundImageFix" result="shape"/>
<feGaussianBlur stdDeviation="2" result="effect1_foregroundBlur_479_1111"/>
</filter>
<filter id="filter4_f_479_1111" x="481.174" y="145.097" width="30.7773" height="28.893" filterUnits="userSpaceOnUse" color-interpolation-filters="sRGB">
<feFlood flood-opacity="0" result="BackgroundImageFix"/>
<feBlend mode="normal" in="SourceGraphic" in2="BackgroundImageFix" result="shape"/>
<feGaussianBlur stdDeviation="2" result="effect1_foregroundBlur_479_1111"/>
</filter>
<filter id="filter5_f_479_1111" x="343" y="62.9999" width="58.0332" height="53.1346" filterUnits="userSpaceOnUse" color-interpolation-filters="sRGB">
<feFlood flood-opacity="0" result="BackgroundImageFix"/>
<feBlend mode="normal" in="SourceGraphic" in2="BackgroundImageFix" result="shape"/>
<feGaussianBlur stdDeviation="2" result="effect1_foregroundBlur_479_1111"/>
</filter>
</defs>
</svg>
