<svg width="500" height="500" viewBox="0 0 500 500" fill="none" xmlns="http://www.w3.org/2000/svg">
<g filter="url(#filter0_f_479_1073)">
<path d="M205.032 90.9851C200.199 75.7752 183.954 67.3649 168.744 72.1982L127.141 85.4183C111.932 90.2516 103.521 106.497 108.355 121.707L109.136 124.165C113.203 136.964 126.878 144.044 139.68 139.978C146.445 137.829 151.937 132.829 154.705 126.292L159.467 115.064L169.836 121.484C175.872 125.22 183.241 126.136 190.006 123.986C202.805 119.919 209.885 106.244 205.819 93.442L205.038 90.9833L205.032 90.9851ZM145.342 102.377L145.323 102.415C144.505 103.901 143.563 105.151 142.58 106.251L145.058 108.423C145.633 108.927 145.768 109.745 145.43 110.397C145.371 110.512 145.296 110.622 145.209 110.723C144.616 111.401 143.583 111.468 142.91 110.874L140.226 108.521C138.213 110.166 136.23 111.194 134.715 111.817L135.877 115.476C136.015 115.908 135.963 116.347 135.771 116.718C135.579 117.09 135.244 117.387 134.818 117.523C133.96 117.795 133.044 117.321 132.771 116.463L131.602 112.783C129.295 113.322 127.134 113.443 125.211 113.292L124.376 116.766C124.344 116.895 124.297 117.02 124.238 117.134C123.9 117.787 123.154 118.148 122.411 117.97C121.535 117.758 120.995 116.881 121.207 116.005L121.975 112.796C119.993 112.333 118.44 111.696 117.519 111.25C116.712 110.854 116.373 109.878 116.769 109.071C117.208 108.265 118.14 107.925 118.951 108.323C120.882 109.265 126.041 111.246 132.201 109.288C134.253 108.639 139.355 106.508 142.466 100.847C142.899 100.06 143.889 99.772 144.681 100.204C145.458 100.633 145.748 101.601 145.344 102.382L145.342 102.377ZM191.526 87.7009L191.508 87.7356C191.013 88.6319 190.113 90.0484 188.764 91.5669L191.247 93.7455C191.822 94.2498 191.955 95.071 191.619 95.7197C191.56 95.8342 191.485 95.9449 191.396 96.0485C190.803 96.7268 189.772 96.7908 189.097 96.1996L186.41 93.8451C184.925 95.0821 183.092 96.2268 180.897 97.1185L182.066 100.799C182.204 101.23 182.152 101.67 181.96 102.041C181.768 102.412 181.433 102.71 181.007 102.845C180.149 103.118 179.233 102.644 178.96 101.786L177.797 98.1266C176.201 98.492 173.988 98.7981 171.4 98.6149L170.566 102.085C170.533 102.217 170.488 102.339 170.427 102.457C170.089 103.109 169.343 103.471 168.6 103.293C167.724 103.081 167.186 102.2 167.396 101.328L168.166 98.1238C166.727 97.7926 165.237 97.3156 163.711 96.5743C162.905 96.1786 162.565 95.2025 162.958 94.3938L162.976 94.3592C163.381 93.5752 164.338 93.2567 165.136 93.6435C170.944 96.4699 176.338 95.2599 178.39 94.611C184.545 92.6553 187.62 88.0587 188.655 86.1701C189.088 85.383 190.078 85.0947 190.87 85.5269C191.647 85.9554 191.939 86.9204 191.533 87.7044L191.526 87.7009ZM213.095 79.3281L217.741 93.949C218.177 95.3756 217.398 96.8811 215.983 97.3451L210.181 99.1888C210.037 96.9103 209.632 94.6683 208.913 92.4621L208.132 90.0034C206.931 86.2232 205.113 82.7839 202.723 79.7872L209.699 77.5704C211.126 77.1345 212.631 77.9134 213.095 79.3281ZM108.889 131.379L103.087 133.223C101.661 133.659 100.155 132.879 99.6914 131.465L95.0417 116.842C94.6058 115.415 95.3852 113.91 96.7999 113.446L103.776 111.229C103.558 115.057 104.056 118.913 105.257 122.694L106.038 125.152C106.725 127.368 107.688 129.433 108.886 131.377L108.889 131.379Z" fill="url(#paint0_linear_479_1073)"/>
</g>
<g filter="url(#filter1_f_479_1073)">
<path d="M321.345 72.5737L327 68.4971L319.869 68.308L317.5 62.0039L315.131 68.308L308 68.4971L313.655 72.5737L311.621 79.0039L317.5 75.2004L323.379 79.0039L321.345 72.5737Z" fill="#65C3E8"/>
</g>
<g opacity="0.4" filter="url(#filter2_f_479_1073)">
<path d="M410.229 45.3251L415 41.74L409.007 41.5966L407 36.0039L404.993 41.5966L399 41.74L403.771 45.3251L402.055 51.0039L407 47.6483L411.945 51.0039L410.229 45.3251Z" fill="#65C3E8"/>
</g>
<g filter="url(#filter3_f_479_1073)">
<path d="M405.714 82.4948C403.598 83.5138 401.709 84.9486 400.16 86.7136C398.61 88.4785 397.432 90.5375 396.696 92.7676C395.96 94.9978 395.68 97.3534 395.874 99.6939C396.068 102.035 396.731 104.312 397.824 106.391C398.917 108.47 400.418 110.307 402.236 111.793C404.055 113.279 406.154 114.384 408.409 115.041C410.664 115.698 413.028 115.895 415.361 115.619C417.693 115.342 419.946 114.599 421.985 113.434C417.654 124.871 405.107 131.096 393.271 127.418C380.97 123.595 374.098 110.528 377.92 98.2294C381.598 86.3941 393.837 79.5855 405.714 82.4948Z" fill="#65C3E8"/>
</g>
<g filter="url(#filter4_f_479_1073)">
<path d="M85.5181 277.147C91.9355 277.147 97.1378 271.945 97.1378 265.528C97.1378 259.11 91.9355 253.908 85.5181 253.908C79.1007 253.908 73.8984 259.11 73.8984 265.528C73.8984 271.945 79.1007 277.147 85.5181 277.147Z" fill="#65C3E8"/>
<path d="M84.3848 280.599L84.3848 288.917C84.3848 289.542 84.8939 290.051 85.5197 290.051C86.1456 290.051 86.6499 289.542 86.6499 288.917L86.6499 280.599C86.6499 279.973 86.1409 279.464 85.5197 279.464C84.8939 279.464 84.3848 279.973 84.3848 280.599Z" fill="#65C3E8"/>
<path d="M85.5197 251.592C86.1456 251.592 86.6499 251.082 86.6499 250.457L86.6499 242.139C86.6499 241.513 86.1409 241.004 85.5197 241.004C84.8939 241.004 84.3848 241.513 84.3848 242.139L84.3848 250.457C84.3848 251.082 84.8939 251.592 85.5197 251.592Z" fill="#65C3E8"/>
<path d="M102.057 283.195C102.347 283.195 102.636 283.083 102.856 282.864C103.299 282.42 103.299 281.705 102.856 281.262L96.9755 275.382C96.5319 274.938 95.8175 274.938 95.3738 275.382C94.9301 275.826 94.9301 276.54 95.3738 276.984L101.254 282.864C101.478 283.088 101.767 283.195 102.057 283.195Z" fill="#65C3E8"/>
<path d="M74.0631 255.674C74.2826 255.893 74.5721 256.006 74.8617 256.006C75.1513 256.006 75.4408 255.893 75.6603 255.674C76.104 255.23 76.104 254.516 75.6603 254.072L69.7802 248.192C69.3366 247.748 68.6221 247.748 68.1785 248.192C67.7348 248.636 67.7348 249.35 68.1785 249.794L74.0631 255.674Z" fill="#65C3E8"/>
<path d="M99.4551 265.527C99.4551 266.153 99.9642 266.662 100.59 266.662L108.908 266.662C109.534 266.662 110.043 266.153 110.043 265.527C110.043 264.901 109.534 264.392 108.908 264.392L100.59 264.392C99.9642 264.392 99.4551 264.901 99.4551 265.527Z" fill="#65C3E8"/>
<path d="M62.1302 266.662L70.448 266.662C71.0738 266.662 71.583 266.153 71.583 265.527C71.583 264.901 71.0738 264.392 70.448 264.392L62.1302 264.392C61.5044 264.392 61 264.901 61 265.527C61 266.153 61.509 266.662 62.1302 266.662Z" fill="#65C3E8"/>
<path d="M96.1769 256.006C96.4665 256.006 96.756 255.893 96.9755 255.674L102.856 249.794C103.299 249.35 103.299 248.636 102.856 248.192C102.412 247.748 101.697 247.748 101.254 248.192L95.3738 254.072C94.9301 254.516 94.9301 255.23 95.3738 255.674C95.5979 255.893 95.8874 256.006 96.1769 256.006Z" fill="#65C3E8"/>
<path d="M74.0644 275.382L68.1843 281.262C67.7406 281.706 67.7406 282.42 68.1843 282.864C68.4038 283.084 68.6934 283.196 68.9829 283.196C69.2725 283.196 69.562 283.084 69.7815 282.864L75.6616 276.984C76.1053 276.54 76.1053 275.826 75.6616 275.382C75.2226 274.943 74.5034 274.943 74.0644 275.382Z" fill="#65C3E8"/>
</g>
<g opacity="0.7" filter="url(#filter5_f_479_1073)">
<path d="M377.51 245.421C385.072 249.396 391.926 252.496 400.021 255.23C403.056 256.255 405.492 256.943 406.873 257.54C408.774 258.351 410.918 261.243 412.664 262.741C413.97 263.87 415.376 264.893 416.637 265.541C421.909 268.233 424.53 264.391 425.224 259.515C425.921 254.628 426.584 253.189 429.213 248.963C432.808 243.173 434.829 239.014 436.71 232.397C438.492 226.158 438.685 224.601 442.575 219.273C446.029 214.536 447.433 210.216 440.433 208.156C436.582 207.015 432.981 207.733 429.091 206.05C426.902 205.095 424.18 203.359 421.306 201.86C415.795 198.966 408.081 195.605 402.24 193.498C398.909 192.303 395.625 191.442 393.351 190.455C389.383 188.733 387.509 185.634 384.013 183.551C377.623 179.768 375.478 184.006 374.408 189.558C373.156 196.034 372.147 197.232 368.783 202.784C365.222 208.665 363.55 212.981 361.756 219.561C360.444 224.354 359.842 225.823 356.74 229.658C353.752 233.35 352.438 237.951 358.175 240.053C359.508 240.535 361.211 240.872 362.92 241.063C365.216 241.317 368.793 240.925 370.679 241.76C372.06 242.374 374.212 243.683 377.513 245.426L377.51 245.421ZM427.925 217.855C428.147 216.432 433.107 216.405 432.732 218.817C432.724 218.872 432.708 218.928 432.693 218.981C432.208 221.588 431.7 224.194 430.033 226.643C429.453 227.493 428.731 228.314 427.979 229.156C426.835 230.458 425.632 231.812 425.026 233.407C424.56 234.626 424.39 236.133 424.205 237.661C424.003 239.492 423.778 241.362 423.085 243.146C421.73 246.598 418.78 249.16 415.838 251.724C414.29 253.109 411.231 249.659 412.011 248.954L412.033 248.935C414.702 246.614 417.376 244.295 418.454 241.544C419.014 240.139 419.208 238.464 419.393 236.819C419.598 235.078 419.795 233.379 420.389 231.826C421.179 229.74 422.578 228.157 423.921 226.64C424.579 225.902 425.211 225.184 425.732 224.427C427.041 222.489 427.492 220.213 427.915 217.933L427.93 217.852L427.925 217.855Z" fill="#65C3E8"/>
</g>
<defs>
<filter id="filter0_f_479_1073" x="92.9199" y="68.8333" width="126.943" height="74.2927" filterUnits="userSpaceOnUse" color-interpolation-filters="sRGB">
<feFlood flood-opacity="0" result="BackgroundImageFix"/>
<feBlend mode="normal" in="SourceGraphic" in2="BackgroundImageFix" result="shape"/>
<feGaussianBlur stdDeviation="1" result="effect1_foregroundBlur_479_1073"/>
</filter>
<filter id="filter1_f_479_1073" x="304" y="58.0039" width="27" height="25" filterUnits="userSpaceOnUse" color-interpolation-filters="sRGB">
<feFlood flood-opacity="0" result="BackgroundImageFix"/>
<feBlend mode="normal" in="SourceGraphic" in2="BackgroundImageFix" result="shape"/>
<feGaussianBlur stdDeviation="2" result="effect1_foregroundBlur_479_1073"/>
</filter>
<filter id="filter2_f_479_1073" x="395" y="32.0039" width="24" height="23" filterUnits="userSpaceOnUse" color-interpolation-filters="sRGB">
<feFlood flood-opacity="0" result="BackgroundImageFix"/>
<feBlend mode="normal" in="SourceGraphic" in2="BackgroundImageFix" result="shape"/>
<feGaussianBlur stdDeviation="2" result="effect1_foregroundBlur_479_1073"/>
</filter>
<filter id="filter3_f_479_1073" x="371.863" y="76.825" width="55.1211" height="56.6494" filterUnits="userSpaceOnUse" color-interpolation-filters="sRGB">
<feFlood flood-opacity="0" result="BackgroundImageFix"/>
<feBlend mode="normal" in="SourceGraphic" in2="BackgroundImageFix" result="shape"/>
<feGaussianBlur stdDeviation="2.5" result="effect1_foregroundBlur_479_1073"/>
</filter>
<filter id="filter4_f_479_1073" x="57" y="237.004" width="57.043" height="57.0476" filterUnits="userSpaceOnUse" color-interpolation-filters="sRGB">
<feFlood flood-opacity="0" result="BackgroundImageFix"/>
<feBlend mode="normal" in="SourceGraphic" in2="BackgroundImageFix" result="shape"/>
<feGaussianBlur stdDeviation="2" result="effect1_foregroundBlur_479_1073"/>
</filter>
<filter id="filter5_f_479_1073" x="352.186" y="180.108" width="95.2441" height="88.3203" filterUnits="userSpaceOnUse" color-interpolation-filters="sRGB">
<feFlood flood-opacity="0" result="BackgroundImageFix"/>
<feBlend mode="normal" in="SourceGraphic" in2="BackgroundImageFix" result="shape"/>
<feGaussianBlur stdDeviation="1" result="effect1_foregroundBlur_479_1073"/>
</filter>
<linearGradient id="paint0_linear_479_1073" x1="139.5" y1="75.5" x2="176.5" y2="135" gradientUnits="userSpaceOnUse">
<stop stop-color="#65C3E8"/>
<stop offset="1" stop-color="#65C3E8" stop-opacity="0.2"/>
</linearGradient>
</defs>
</svg>
