<svg width="500" height="500" viewBox="0 0 500 500" fill="none" xmlns="http://www.w3.org/2000/svg">
<g opacity="0.7" filter="url(#filter0_f_479_1151)">
<path d="M413.929 132.263C416.613 132.939 416.814 132.864 414.851 131.919C412.647 130.859 408.89 127.635 407.132 125.295C402.883 119.639 402.009 112.603 404.751 106.132C406.452 102.118 408.787 99.7975 413.102 97.8302C415.786 96.6058 415.978 96.5523 418.047 96.4363C420.92 96.2745 422.433 96.5228 424.014 97.4156C426.024 98.5496 427.353 100.287 428.6 103.4C429.445 105.512 429.629 106.248 429.752 107.96C430.099 112.826 427.391 117.7 423.423 119.343C421.07 120.319 419.088 119.958 417.256 118.225C415.783 116.831 415.26 114.78 415.779 112.434C416.134 110.832 416.734 109.991 417.849 109.535C419.966 108.67 421.633 109.261 422.298 111.114C422.881 112.743 422.536 114.426 421.352 115.711C420.926 116.176 421.036 116.157 422.425 115.527C423.744 114.931 424.071 114.673 424.633 113.797C425.479 112.478 425.676 110.511 425.099 109.158C424.555 107.881 422.861 106.483 421.262 105.992C416.494 104.526 411.666 107.709 410.584 113.029C409.592 117.904 411.214 122.195 415.058 124.865C417.491 126.555 419.343 127 422.747 126.716C425.468 126.487 429.137 124.929 431.523 122.99C436.58 118.879 439.62 112.69 439.606 106.529C439.588 98.319 435.034 91.4627 427.554 88.3801C423.837 86.8487 419.688 86.3918 415.041 87.0048C412.568 87.3312 412.155 87.4542 409.14 88.7696C406.165 90.0665 405.751 90.3115 404.112 91.734C403.13 92.5869 401.824 93.9455 401.211 94.7544C399.016 97.6511 396.595 104.195 396.113 108.533C395.437 114.619 398.663 122.551 403.579 126.895C406.58 129.547 409.828 131.232 413.927 132.265L413.929 132.263Z" fill="#66C3EA"/>
</g>
<g opacity="0.7" filter="url(#filter1_f_479_1151)">
<path d="M301.278 69.7734C299.75 68.5125 299.708 68.3653 301.085 69.0959C302.632 69.9168 306.084 70.7144 308.179 70.7352C313.242 70.7855 317.67 68.3044 320.237 63.9785C321.829 61.2949 322.176 58.9643 321.479 55.6418C321.047 53.575 320.996 53.4415 320.185 52.1997C319.06 50.4752 318.274 49.7079 317.089 49.1752C315.583 48.4977 314.017 48.4689 311.694 49.0707C310.118 49.4795 309.615 49.6852 308.576 50.3409C305.624 52.2054 303.963 55.8342 304.699 58.8185C305.135 60.5888 306.183 61.5789 307.959 61.8995C309.388 62.1571 310.793 61.5889 311.925 60.2941C312.698 59.4098 312.928 58.7073 312.718 57.8713C312.319 56.2839 311.27 55.5734 309.92 55.9764C308.733 56.331 307.91 57.244 307.671 58.4717C307.584 58.9148 307.549 58.843 307.322 57.7751C307.106 56.7615 307.116 56.4638 307.383 55.7685C307.784 54.7212 308.835 53.7726 309.86 53.5316C310.826 53.3033 312.351 53.6868 313.312 54.4005C316.18 56.5268 316.394 60.6611 313.786 63.5413C311.396 66.1813 308.235 67.0668 305.065 65.9836C303.058 65.298 302.015 64.4192 300.736 62.3364C299.713 60.6704 299.054 57.8947 299.16 55.696C299.385 51.037 301.663 46.6588 305.221 44.0532C309.961 40.5803 315.846 40.2966 320.796 43.3011C323.256 44.7946 325.279 46.9922 326.898 49.9316C327.759 51.4957 327.863 51.7857 328.384 54.0819C328.898 56.3475 328.933 56.6899 328.808 58.2385C328.733 59.1665 328.504 60.4956 328.298 61.1922C327.559 63.6866 324.813 67.8583 322.517 69.9765C319.296 72.9481 313.354 74.4538 308.764 73.4627C305.962 72.8577 303.613 71.7 301.279 69.7754L301.278 69.7734Z" fill="#66C3EA"/>
</g>
<g opacity="0.7" filter="url(#filter2_f_479_1151)">
<path d="M146.184 116.561C143.158 113.58 142.834 113.523 144.696 116.3C146.788 119.417 149.251 126.604 149.758 131.067C150.982 141.854 146.668 151.844 138.008 158.273C132.636 162.261 127.742 163.516 120.502 162.763C115.999 162.296 115.703 162.217 112.876 160.762C108.949 158.743 107.14 157.237 105.742 154.826C103.965 151.763 103.558 148.431 104.329 143.342C104.853 139.892 105.18 138.774 106.35 136.414C109.675 129.705 117.048 125.363 123.575 126.273C127.446 126.812 129.789 128.831 130.865 132.548C131.73 135.538 130.828 138.659 128.316 141.359C126.601 143.203 125.153 143.848 123.324 143.585C119.85 143.084 118.104 141.004 118.665 138.036C119.16 135.427 120.925 133.469 123.491 132.689C124.417 132.405 124.256 132.346 121.928 132.098C119.719 131.862 119.086 131.949 117.662 132.671C115.517 133.758 113.726 136.208 113.438 138.446C113.164 140.558 114.319 143.726 116.053 145.619C121.22 151.266 130.085 150.809 135.652 144.612C140.755 138.933 141.946 131.995 138.937 125.473C137.032 121.344 134.927 119.314 130.203 117.045C126.424 115.231 120.359 114.439 115.693 115.15C105.806 116.656 96.9714 122.482 92.1993 130.645C85.8384 141.521 86.5319 154.133 94.0319 164.029C97.76 168.946 102.893 172.776 109.519 175.579C113.045 177.07 113.687 177.228 118.699 177.832C123.644 178.43 124.382 178.427 127.657 177.82C129.62 177.455 132.404 176.673 133.844 176.08C139.001 173.954 147.292 167.178 151.303 161.814C156.93 154.287 158.83 141.283 155.704 131.713C153.795 125.87 150.808 121.115 146.188 116.561L146.184 116.561Z" fill="url(#paint0_linear_479_1151)"/>
</g>
<g filter="url(#filter3_f_479_1151)">
<path d="M245.014 55.2737C244.192 52.8742 244.007 49.2995 244.969 46.949C248.818 37.5766 249.624 30.1541 246.117 22.2461C240.435 9.42813 229.055 4.9325 215.818 7.83561C201.348 11.0032 191.638 23.5118 195.489 36.0434C195.997 37.6987 196.958 40.0723 197.392 41.6807C198.941 47.3843 194.649 51.0799 195.048 52.9175C195.711 55.9403 198.954 54.0518 201.346 57.9316C204.377 62.8511 203.8 69.5703 210.993 67.1984C213.868 66.2834 218.288 63.8589 220.831 65.1891C222.449 66.04 224.928 70.9946 225.967 73.2065C226.109 73.5029 226.35 73.7403 226.648 73.8772C226.947 74.0142 227.284 74.0419 227.6 73.9557L249.5 67.9612C249.709 67.9043 249.902 67.7996 250.063 67.6553C250.225 67.5109 250.35 67.331 250.43 67.1297C250.51 66.9284 250.542 66.7112 250.524 66.4954C250.505 66.2797 250.437 66.0711 250.323 65.8864C248.91 63.5775 246.339 59.1344 245.014 55.2737Z" fill="url(#paint1_linear_479_1151)"/>
</g>
<path d="M236.437 34.1128C236.726 33.5602 236.854 32.9372 236.806 32.3152C236.863 32.9442 236.737 33.5764 236.443 34.1355C236.233 34.5567 235.935 34.9286 235.571 35.2271C235.207 35.5255 234.784 35.7438 234.33 35.8676L210.601 42.3629C209.789 42.5848 208.924 42.4963 208.174 42.1148C207.424 41.7333 206.843 41.0861 206.545 40.2994C206.849 41.0797 207.43 41.72 208.178 42.0968C208.926 42.4736 209.787 42.5603 210.595 42.3402L234.322 35.8452C234.777 35.7215 235.2 35.5032 235.565 35.2047C235.929 34.9062 236.226 34.5341 236.437 34.1128Z" fill="#65C3E8"/>
<g filter="url(#filter4_f_479_1151)">
<path d="M231.059 17.0072C229.665 15.7662 229.524 15.7499 230.406 16.9313C231.398 18.2577 232.658 21.3796 232.996 23.3461C233.814 28.0986 232.204 32.6477 228.612 35.7341C226.384 37.6488 224.291 38.3379 221.125 38.1997C219.156 38.1142 219.026 38.0874 217.759 37.5183C216 36.7284 215.174 36.1094 214.502 35.0777C213.649 33.7667 213.384 32.2993 213.584 30.0209C213.721 28.4758 213.833 27.971 214.279 26.8923C215.546 23.826 218.634 21.7002 221.494 21.9276C223.19 22.062 224.262 22.8941 224.827 24.5141C225.282 25.8174 224.973 27.2262 223.953 28.4921C223.257 29.3568 222.645 29.6822 221.843 29.615C220.321 29.4864 219.507 28.6111 219.672 27.279C219.818 26.1082 220.533 25.1916 221.627 24.7761C222.022 24.6254 221.951 24.6033 220.933 24.5563C219.967 24.5112 219.694 24.5669 219.094 24.9258C218.191 25.4661 217.478 26.6015 217.412 27.6024C217.349 28.5468 217.935 29.9211 218.738 30.7139C221.133 33.0796 224.972 32.6371 227.227 29.7369C229.293 27.0794 229.627 23.969 228.147 21.157C227.21 19.3767 226.242 18.5331 224.129 17.654C222.439 16.9515 219.783 16.7643 217.775 17.2058C213.519 18.1415 209.835 20.965 207.978 24.7156C205.503 29.7129 206.138 35.2898 209.659 39.477C211.409 41.5577 213.74 43.1182 216.693 44.1825C218.265 44.7488 218.547 44.8016 220.741 44.934C222.905 45.0655 223.226 45.0444 224.633 44.6864C225.476 44.4714 226.665 44.0491 227.275 43.7468C229.459 42.6643 232.882 39.4339 234.482 36.9453C236.727 33.4539 237.208 27.6332 235.597 23.4718C234.613 20.9314 233.189 18.9026 231.061 17.0072L231.059 17.0072Z" fill="#074488"/>
</g>
<g opacity="0.7" filter="url(#filter5_f_479_1151)">
<path d="M44.9724 131.553L40.3904 144.349L19.9785 134.757L41.5705 165.405L46.1559 152.599L66.574 162.204L44.9724 131.553Z" fill="#7DE2FF"/>
</g>
<g opacity="0.7" filter="url(#filter6_f_479_1151)">
<path d="M466.199 182.452L461.617 195.248L441.205 185.657L462.797 216.304L467.383 203.499L487.801 213.103L466.199 182.452Z" fill="#7DE2FF"/>
</g>
<defs>
<filter id="filter0_f_479_1151" x="390.023" y="80.7415" width="55.582" height="57.9679" filterUnits="userSpaceOnUse" color-interpolation-filters="sRGB">
<feFlood flood-opacity="0" result="BackgroundImageFix"/>
<feBlend mode="normal" in="SourceGraphic" in2="BackgroundImageFix" result="shape"/>
<feGaussianBlur stdDeviation="3" result="effect1_foregroundBlur_479_1151"/>
</filter>
<filter id="filter1_f_479_1151" x="293.148" y="35.2325" width="41.7207" height="44.5338" filterUnits="userSpaceOnUse" color-interpolation-filters="sRGB">
<feFlood flood-opacity="0" result="BackgroundImageFix"/>
<feBlend mode="normal" in="SourceGraphic" in2="BackgroundImageFix" result="shape"/>
<feGaussianBlur stdDeviation="3" result="effect1_foregroundBlur_479_1151"/>
</filter>
<filter id="filter2_f_479_1151" x="82.875" y="109.269" width="79.3281" height="74.0088" filterUnits="userSpaceOnUse" color-interpolation-filters="sRGB">
<feFlood flood-opacity="0" result="BackgroundImageFix"/>
<feBlend mode="normal" in="SourceGraphic" in2="BackgroundImageFix" result="shape"/>
<feGaussianBlur stdDeviation="2.5" result="effect1_foregroundBlur_479_1151"/>
</filter>
<filter id="filter3_f_479_1151" x="190.187" y="2.53469" width="64.7956" height="75.9237" filterUnits="userSpaceOnUse" color-interpolation-filters="sRGB">
<feFlood flood-opacity="0" result="BackgroundImageFix"/>
<feBlend mode="normal" in="SourceGraphic" in2="BackgroundImageFix" result="shape"/>
<feGaussianBlur stdDeviation="2.22673" result="effect1_foregroundBlur_479_1151"/>
</filter>
<filter id="filter4_f_479_1151" x="202.033" y="11.6071" width="38.9675" height="37.8544" filterUnits="userSpaceOnUse" color-interpolation-filters="sRGB">
<feFlood flood-opacity="0" result="BackgroundImageFix"/>
<feBlend mode="normal" in="SourceGraphic" in2="BackgroundImageFix" result="shape"/>
<feGaussianBlur stdDeviation="2.22673" result="effect1_foregroundBlur_479_1151"/>
</filter>
<filter id="filter5_f_479_1151" x="11.9785" y="123.553" width="62.5957" height="49.8522" filterUnits="userSpaceOnUse" color-interpolation-filters="sRGB">
<feFlood flood-opacity="0" result="BackgroundImageFix"/>
<feBlend mode="normal" in="SourceGraphic" in2="BackgroundImageFix" result="shape"/>
<feGaussianBlur stdDeviation="4" result="effect1_foregroundBlur_479_1151"/>
</filter>
<filter id="filter6_f_479_1151" x="433.205" y="174.452" width="62.5957" height="49.8522" filterUnits="userSpaceOnUse" color-interpolation-filters="sRGB">
<feFlood flood-opacity="0" result="BackgroundImageFix"/>
<feBlend mode="normal" in="SourceGraphic" in2="BackgroundImageFix" result="shape"/>
<feGaussianBlur stdDeviation="4" result="effect1_foregroundBlur_479_1151"/>
</filter>
<linearGradient id="paint0_linear_479_1151" x1="97" y1="155.5" x2="159" y2="139" gradientUnits="userSpaceOnUse">
<stop stop-color="#66C3EA"/>
<stop offset="1" stop-color="#66C3EA" stop-opacity="0.2"/>
</linearGradient>
<linearGradient id="paint1_linear_479_1151" x1="228.5" y1="41" x2="236.5" y2="71.5" gradientUnits="userSpaceOnUse">
<stop stop-color="#65C3E8"/>
<stop offset="1" stop-color="#65C3E8" stop-opacity="0.2"/>
</linearGradient>
</defs>
</svg>
