<svg width="500" height="500" viewBox="0 0 500 500" fill="none" xmlns="http://www.w3.org/2000/svg">
<g filter="url(#filter0_f_479_1137)">
<path d="M214.46 84.6149C214.256 84.377 214.144 84.0744 214.144 83.7615C214.144 83.4486 214.256 83.146 214.46 82.9082C217.256 79.9252 218.869 76.0309 218.999 71.9506C217.339 45.7047 165.523 45.4867 162.05 70.5151C161.069 83.0136 174.676 91.9973 190.83 91.9968C195.941 92.0049 200.998 90.958 205.682 88.922C205.973 88.7954 206.298 88.7669 206.606 88.8407L217.259 91.9424C217.537 92.0268 217.835 92.0182 218.107 91.9179C218.38 91.8177 218.612 91.6312 218.768 91.3871C218.93 91.1487 219.011 90.8645 218.999 90.5767C218.987 90.2889 218.882 90.0126 218.7 89.7888L214.46 84.6149Z" fill="#65C3E8"/>
<g opacity="0.6" filter="url(#filter1_d_479_1137)">
<path d="M188.555 47.5646C189.359 47.5677 190.233 47.5974 191 47.6316C187.332 40.7169 177.879 36 166.822 36C152.587 36 141 44.067 141 54.037C141.124 57.6982 142.586 61.1917 145.116 63.873C145.28 64.0586 145.371 64.2966 145.371 64.5431C145.371 64.7895 145.28 65.0275 145.116 65.2131L141.312 69.8229C141.135 70.045 141.033 70.3165 141.021 70.599C141.009 70.8814 141.088 71.1604 141.246 71.3963C141.404 71.6322 141.633 71.813 141.901 71.913C142.169 72.013 142.462 72.0272 142.739 71.9534L152.342 69.1797C153.831 69.2639 155.712 70.4708 157.354 70.7338C157.319 69.9424 157.346 69.1495 157.436 68.3622C158.617 56.7171 172.296 47.5646 188.555 47.5646Z" fill="#65C3E8"/>
</g>
</g>
<g filter="url(#filter2_f_479_1137)">
<path d="M190.744 76.5496C189.887 76.6228 189.113 75.9857 189.158 75.1275C189.189 74.5536 189.273 74.0473 189.411 73.6087C189.661 72.7864 190.016 72.1154 190.475 71.5956C190.934 71.0759 191.421 70.6223 191.937 70.2349C192.474 69.8229 192.977 69.4138 193.445 69.0076C193.914 68.6014 194.283 68.1008 194.553 67.5057C194.822 66.9106 194.917 66.1474 194.837 65.216C194.756 64.2619 194.3 63.4771 193.469 62.8617C192.659 62.2215 191.584 61.9588 190.244 62.0734C189.403 62.1452 188.681 62.3901 188.076 62.8079C187.469 63.2031 187.008 63.7001 186.693 64.2991C186.608 64.4537 186.536 64.6113 186.478 64.7718C186.214 65.4999 185.677 66.2052 184.905 66.2711V66.2711C184.133 66.3371 183.433 65.7601 183.521 64.9908C183.533 64.8821 183.549 64.775 183.567 64.6694C183.679 64.1106 183.842 63.6047 184.055 63.1517C184.577 62.0316 185.383 61.1504 186.472 60.5081C187.559 59.8431 188.75 59.4552 190.045 59.3445C191.362 59.2319 192.566 59.3921 193.656 59.8252C194.766 60.2337 195.68 60.8878 196.398 61.7875C197.115 62.6872 197.532 63.8185 197.649 65.1815C197.756 66.4309 197.683 67.4554 197.431 68.255C197.2 69.0298 196.866 69.6762 196.43 70.194C196.015 70.6872 195.549 71.1275 195.033 71.5148C194.515 71.8795 194.033 72.2639 193.587 72.6682C193.163 73.0705 192.817 73.5692 192.548 74.1643C192.456 74.3739 192.387 74.6078 192.34 74.866C192.186 75.7115 191.6 76.4764 190.744 76.5496V76.5496ZM191.084 84.3463C190.494 84.3968 189.964 84.2247 189.495 83.8299C189.027 83.4352 188.768 82.9539 188.72 82.386C188.669 81.7954 188.841 81.2658 189.236 80.7973C189.631 80.3288 190.124 80.0693 190.714 80.0188C191.305 79.9683 191.823 80.1414 192.269 80.538C192.715 80.9347 192.963 81.4283 193.013 82.0189C193.062 82.5868 192.9 83.1041 192.528 83.5707C192.156 84.0372 191.675 84.2958 191.084 84.3463Z" fill="#014589"/>
</g>
<g filter="url(#filter3_f_479_1137)">
<path d="M381.54 215.615C381.744 215.377 381.856 215.074 381.856 214.762C381.856 214.449 381.744 214.146 381.54 213.908C378.744 210.925 377.131 207.031 377.001 202.951C378.661 176.705 430.477 176.487 433.95 201.515C434.931 214.014 421.324 222.997 405.17 222.997C400.059 223.005 395.002 221.958 390.318 219.922C390.027 219.795 389.702 219.767 389.394 219.841L378.741 222.942C378.463 223.027 378.165 223.018 377.893 222.918C377.62 222.818 377.388 222.631 377.232 222.387C377.07 222.149 376.989 221.865 377.001 221.577C377.013 221.289 377.118 221.013 377.3 220.789L381.54 215.615Z" fill="#65C3E8"/>
</g>
<g filter="url(#filter4_f_479_1137)">
<path d="M404.449 207.55C403.592 207.623 402.818 206.986 402.863 206.128C402.894 205.554 402.978 205.047 403.116 204.609C403.366 203.786 403.721 203.115 404.18 202.596C404.639 202.076 405.126 201.622 405.642 201.235C406.179 200.823 406.682 200.414 407.15 200.008C407.619 199.601 407.988 199.101 408.258 198.506C408.527 197.911 408.622 197.147 408.542 196.216C408.461 195.262 408.005 194.477 407.174 193.862C406.364 193.222 405.289 192.959 403.949 193.073C403.108 193.145 402.386 193.39 401.781 193.808C401.174 194.203 400.713 194.7 400.398 195.299C400.313 195.454 400.241 195.611 400.183 195.772C399.92 196.5 399.382 197.205 398.61 197.271V197.271C397.839 197.337 397.138 196.76 397.226 195.991C397.238 195.882 397.254 195.775 397.272 195.669C397.384 195.111 397.547 194.605 397.76 194.152C398.282 193.032 399.088 192.15 400.177 191.508C401.264 190.843 402.455 190.455 403.75 190.345C405.068 190.232 406.271 190.392 407.361 190.825C408.471 191.234 409.385 191.888 410.103 192.787C410.82 193.687 411.238 194.819 411.354 196.182C411.461 197.431 411.388 198.455 411.136 199.255C410.905 200.03 410.571 200.676 410.135 201.194C409.72 201.687 409.254 202.127 408.738 202.515C408.22 202.879 407.738 203.264 407.292 203.668C406.869 204.07 406.522 204.569 406.253 205.164C406.161 205.374 406.092 205.608 406.045 205.866C405.891 206.712 405.305 207.476 404.449 207.55V207.55ZM404.789 215.346C404.199 215.397 403.669 215.225 403.201 214.83C402.732 214.435 402.474 213.954 402.425 213.386C402.374 212.795 402.547 212.266 402.941 211.797C403.336 211.329 403.829 211.069 404.419 211.019C405.01 210.968 405.528 211.141 405.974 211.538C406.42 211.935 406.668 212.428 406.718 213.019C406.767 213.587 406.605 214.104 406.233 214.571C405.861 215.037 405.38 215.296 404.789 215.346Z" fill="#014589"/>
</g>
<g opacity="0.5" filter="url(#filter5_f_479_1137)">
<path d="M83.9541 156.734C82.9621 156.574 82.2644 155.632 82.5591 154.671C82.7561 154.029 82.9952 153.478 83.2764 153.02C83.7932 152.158 84.3856 151.498 85.0536 151.038C85.7215 150.579 86.4031 150.203 87.0983 149.909C87.8241 149.594 88.5104 149.273 89.1572 148.945C89.804 148.617 90.3646 148.154 90.839 147.555C91.3134 146.957 91.6375 146.118 91.8112 145.039C91.9892 143.933 91.6944 142.914 90.9267 141.98C90.1896 141.025 89.0447 140.422 87.4919 140.172C86.5182 140.015 85.6289 140.088 84.8242 140.39C84.0237 140.666 83.36 141.099 82.8329 141.69C82.6927 141.841 82.5668 141.999 82.4554 142.165C81.9498 142.916 81.1397 143.563 80.2458 143.419V143.419C79.3519 143.275 78.7204 142.422 79.0388 141.575C79.0838 141.455 79.1315 141.338 79.182 141.223C79.4679 140.621 79.7959 140.093 80.1659 139.64C81.0757 138.518 82.2394 137.746 83.657 137.327C85.0789 136.881 86.5398 136.778 88.04 137.02C89.5664 137.266 90.8862 137.789 91.9993 138.589C93.1431 139.367 93.9944 140.368 94.5533 141.592C95.1122 142.816 95.2645 144.218 95.0102 145.797C94.7771 147.244 94.4043 148.386 93.8917 149.221C93.4098 150.035 92.8479 150.673 92.2062 151.137C91.5951 151.579 90.942 151.946 90.2468 152.239C89.5558 152.506 88.9001 152.805 88.2796 153.137C87.6854 153.474 87.1511 153.941 86.6767 154.54C86.5137 154.751 86.3689 154.997 86.2423 155.277C85.8278 156.192 84.9461 156.894 83.9541 156.734V156.734ZM82.1297 165.674C81.4454 165.564 80.8935 165.219 80.474 164.638C80.0545 164.057 79.8977 163.438 80.0037 162.78C80.1139 162.096 80.4592 161.544 81.0398 161.125C81.6204 160.705 82.2528 160.55 82.937 160.661C83.6213 160.771 84.16 161.114 84.5532 161.69C84.9464 162.267 85.0879 162.897 84.9778 163.581C84.8718 164.239 84.5417 164.78 83.9875 165.204C83.4332 165.628 82.814 165.784 82.1297 165.674Z" fill="#00E6FF"/>
</g>
<g opacity="0.5" filter="url(#filter6_f_479_1137)">
<path d="M437.289 174.113C436.285 174.113 435.446 173.293 435.584 172.298C435.677 171.633 435.825 171.051 436.03 170.554C436.403 169.621 436.883 168.875 437.469 168.315C438.056 167.755 438.669 167.275 439.309 166.875C439.975 166.449 440.601 166.022 441.188 165.596C441.774 165.169 442.254 164.623 442.627 163.956C443.001 163.29 443.187 162.41 443.187 161.317C443.187 160.198 442.734 159.238 441.828 158.438C440.948 157.612 439.722 157.199 438.149 157.199C437.163 157.199 436.296 157.412 435.55 157.839C434.804 158.238 434.217 158.772 433.791 159.438C433.676 159.61 433.577 159.786 433.493 159.967C433.114 160.789 432.417 161.557 431.511 161.557V161.557C430.606 161.557 429.847 160.815 430.027 159.928C430.052 159.802 430.08 159.679 430.112 159.558C430.299 158.918 430.538 158.345 430.832 157.839C431.551 156.586 432.578 155.639 433.911 155C435.243 154.333 436.67 154 438.189 154C439.735 154 441.121 154.307 442.348 154.92C443.6 155.506 444.6 156.359 445.346 157.479C446.093 158.598 446.466 159.958 446.466 161.557C446.466 163.023 446.279 164.21 445.906 165.116C445.56 165.996 445.107 166.715 444.547 167.275C444.014 167.808 443.427 168.275 442.787 168.675C442.148 169.048 441.548 169.448 440.988 169.874C440.455 170.301 440.002 170.847 439.629 171.514C439.501 171.749 439.397 172.014 439.317 172.31C439.053 173.28 438.294 174.113 437.289 174.113V174.113ZM436.91 183.229C436.216 183.229 435.617 182.976 435.11 182.47C434.604 181.963 434.35 181.377 434.35 180.71C434.35 180.017 434.604 179.417 435.11 178.911C435.617 178.404 436.216 178.151 436.91 178.151C437.603 178.151 438.189 178.404 438.669 178.911C439.149 179.417 439.389 180.017 439.389 180.71C439.389 181.377 439.149 181.963 438.669 182.47C438.189 182.976 437.603 183.229 436.91 183.229Z" fill="#00E6FF"/>
</g>
<g opacity="0.8" filter="url(#filter7_f_479_1137)">
<path d="M332.244 41.9032C330.655 41.1534 329.939 39.2312 330.9 37.7595C331.543 36.7752 332.212 35.9661 332.907 35.3321C334.194 34.1343 335.51 33.3113 336.856 32.8631C338.202 32.4149 339.53 32.1132 340.84 31.9579C342.213 31.7803 343.523 31.5728 344.769 31.3356C346.015 31.0983 347.182 30.5917 348.27 29.8156C349.358 29.0396 350.31 27.7868 351.125 26.0574C351.961 24.2858 351.96 22.4291 351.123 20.4873C350.347 18.5233 348.715 16.9544 346.227 15.7808C344.666 15.0448 343.136 14.7357 341.636 14.8536C340.157 14.9294 338.831 15.3354 337.659 16.0716C337.35 16.2578 337.061 16.4631 336.794 16.6874C335.579 17.7046 333.904 18.3999 332.471 17.7242V17.7242C331.038 17.0486 330.391 15.308 331.337 14.0378C331.471 13.8583 331.608 13.6845 331.748 13.5163C332.521 12.6432 333.328 11.9153 334.17 11.3327C336.244 9.88727 338.574 9.15569 341.161 9.13795C343.767 9.07804 346.273 9.61501 348.677 10.7489C351.123 11.9026 353.088 13.4221 354.571 15.3073C356.116 17.1702 357.061 19.266 357.407 21.5946C357.752 23.9232 357.328 26.3529 356.135 28.8838C355.041 31.2038 353.86 32.9416 352.593 34.0972C351.388 35.2306 350.134 36.0313 348.831 36.4994C347.589 36.9452 346.313 37.2457 345.002 37.401C343.712 37.5142 342.464 37.6993 341.26 37.9565C340.098 38.2335 338.973 38.7601 337.885 39.5361C337.509 39.813 337.146 40.1557 336.797 40.5643C335.657 41.9018 333.834 42.653 332.244 41.9032V41.9032ZM324.84 56.0457C323.744 55.5285 322.983 54.6802 322.56 53.5008C322.136 52.3214 322.173 51.2045 322.671 50.1499C323.188 49.0532 324.036 48.2931 325.216 47.8696C326.395 47.4461 327.533 47.493 328.63 48.0102C329.726 48.5274 330.465 49.3658 330.847 50.5253C331.228 51.6848 331.16 52.8129 330.643 53.9096C330.146 54.9641 329.328 55.7131 328.191 56.1564C327.054 56.5998 325.937 56.5629 324.84 56.0457Z" fill="#00E6FF"/>
</g>
<g opacity="0.5" filter="url(#filter8_f_479_1137)">
<path d="M64.3519 173.411C62.8333 174.296 60.8439 173.797 60.1758 172.171C59.729 171.083 59.4413 170.074 59.3127 169.142C59.0547 167.403 59.1222 165.852 59.5154 164.489C59.9085 163.126 60.4124 161.861 61.0271 160.693C61.6585 159.461 62.2296 158.264 62.7401 157.103C63.2507 155.942 63.4944 154.693 63.4713 153.357C63.4482 152.021 62.9551 150.527 61.9922 148.875C61.0057 147.183 59.4752 146.132 57.4007 145.721C55.343 145.248 53.1256 145.703 50.7485 147.089C49.2578 147.958 48.1362 149.044 47.3839 150.346C46.6081 151.608 46.1915 152.931 46.134 154.314C46.1123 154.674 46.118 155.028 46.1511 155.376C46.3014 156.953 45.9249 158.727 44.5565 159.525V159.525C43.188 160.323 41.3869 159.87 40.8764 158.371C40.8042 158.159 40.7387 157.947 40.6797 157.736C40.398 156.605 40.2556 155.527 40.2526 154.504C40.2365 151.976 40.9539 149.641 42.4047 147.5C43.832 145.318 45.6939 143.558 47.9904 142.219C50.3273 140.857 52.6925 140.099 55.086 139.945C57.4964 139.728 59.7589 140.136 61.8735 141.171C63.9881 142.205 65.75 143.931 67.1592 146.349C68.451 148.565 69.2142 150.522 69.4487 152.221C69.7 153.855 69.6493 155.343 69.2964 156.682C68.9603 157.957 68.485 159.179 67.8703 160.347C67.2322 161.475 66.678 162.608 66.2077 163.746C65.7777 164.86 65.5743 166.085 65.5974 167.421C65.612 167.889 65.689 168.382 65.8282 168.901C66.2841 170.598 65.8706 172.525 64.3519 173.411V173.411ZM71.8105 187.525C70.763 188.135 69.6333 188.281 68.4216 187.962C67.2098 187.643 66.3103 186.979 65.7231 185.972C65.1124 184.925 64.9667 183.795 65.286 182.583C65.6052 181.371 66.2886 180.46 67.3362 179.849C68.3837 179.239 69.4932 179.105 70.6647 179.448C71.8362 179.79 72.7273 180.485 73.3379 181.533C73.9251 182.54 74.0792 183.638 73.8003 184.826C73.5213 186.015 72.8581 186.914 71.8105 187.525Z" fill="#00E6FF"/>
</g>
<defs>
<filter id="filter0_f_479_1137" x="136.547" y="31.5465" width="86.9069" height="64.9069" filterUnits="userSpaceOnUse" color-interpolation-filters="sRGB">
<feFlood flood-opacity="0" result="BackgroundImageFix"/>
<feBlend mode="normal" in="SourceGraphic" in2="BackgroundImageFix" result="shape"/>
<feGaussianBlur stdDeviation="2.22673" result="effect1_foregroundBlur_479_1137"/>
</filter>
<filter id="filter1_d_479_1137" x="141" y="36" width="59" height="44" filterUnits="userSpaceOnUse" color-interpolation-filters="sRGB">
<feFlood flood-opacity="0" result="BackgroundImageFix"/>
<feColorMatrix in="SourceAlpha" type="matrix" values="0 0 0 0 0 0 0 0 0 0 0 0 0 0 0 0 0 0 127 0" result="hardAlpha"/>
<feOffset dx="5" dy="4"/>
<feGaussianBlur stdDeviation="2"/>
<feComposite in2="hardAlpha" operator="out"/>
<feColorMatrix type="matrix" values="0 0 0 0 0 0 0 0 0 0 0 0 0 0 0 0 0 0 0.25 0"/>
<feBlend mode="normal" in2="BackgroundImageFix" result="effect1_dropShadow_479_1137"/>
<feBlend mode="normal" in="SourceGraphic" in2="effect1_dropShadow_479_1137" result="shape"/>
</filter>
<filter id="filter2_f_479_1137" x="179.514" y="55.3096" width="22.1836" height="33.0452" filterUnits="userSpaceOnUse" color-interpolation-filters="sRGB">
<feFlood flood-opacity="0" result="BackgroundImageFix"/>
<feBlend mode="normal" in="SourceGraphic" in2="BackgroundImageFix" result="shape"/>
<feGaussianBlur stdDeviation="2" result="effect1_foregroundBlur_479_1137"/>
</filter>
<filter id="filter3_f_479_1137" x="372.547" y="178.547" width="65.9069" height="48.9069" filterUnits="userSpaceOnUse" color-interpolation-filters="sRGB">
<feFlood flood-opacity="0" result="BackgroundImageFix"/>
<feBlend mode="normal" in="SourceGraphic" in2="BackgroundImageFix" result="shape"/>
<feGaussianBlur stdDeviation="2.22673" result="effect1_foregroundBlur_479_1137"/>
</filter>
<filter id="filter4_f_479_1137" x="393.219" y="186.31" width="22.1836" height="33.0452" filterUnits="userSpaceOnUse" color-interpolation-filters="sRGB">
<feFlood flood-opacity="0" result="BackgroundImageFix"/>
<feBlend mode="normal" in="SourceGraphic" in2="BackgroundImageFix" result="shape"/>
<feGaussianBlur stdDeviation="2" result="effect1_foregroundBlur_479_1137"/>
</filter>
<filter id="filter5_f_479_1137" x="74.9551" y="132.893" width="24.1738" height="36.8156" filterUnits="userSpaceOnUse" color-interpolation-filters="sRGB">
<feFlood flood-opacity="0" result="BackgroundImageFix"/>
<feBlend mode="normal" in="SourceGraphic" in2="BackgroundImageFix" result="shape"/>
<feGaussianBlur stdDeviation="2" result="effect1_foregroundBlur_479_1137"/>
</filter>
<filter id="filter6_f_479_1137" x="426" y="150" width="24.4668" height="37.2294" filterUnits="userSpaceOnUse" color-interpolation-filters="sRGB">
<feFlood flood-opacity="0" result="BackgroundImageFix"/>
<feBlend mode="normal" in="SourceGraphic" in2="BackgroundImageFix" result="shape"/>
<feGaussianBlur stdDeviation="2" result="effect1_foregroundBlur_479_1137"/>
</filter>
<filter id="filter7_f_479_1137" x="319.293" y="6.15856" width="41.2057" height="53.2798" filterUnits="userSpaceOnUse" color-interpolation-filters="sRGB">
<feFlood flood-opacity="0" result="BackgroundImageFix"/>
<feBlend mode="normal" in="SourceGraphic" in2="BackgroundImageFix" result="shape"/>
<feGaussianBlur stdDeviation="1.48745" result="effect1_foregroundBlur_479_1137"/>
</filter>
<filter id="filter8_f_479_1137" x="37.2771" y="136.914" width="39.6334" height="54.1876" filterUnits="userSpaceOnUse" color-interpolation-filters="sRGB">
<feFlood flood-opacity="0" result="BackgroundImageFix"/>
<feBlend mode="normal" in="SourceGraphic" in2="BackgroundImageFix" result="shape"/>
<feGaussianBlur stdDeviation="1.48745" result="effect1_foregroundBlur_479_1137"/>
</filter>
</defs>
</svg>
