<svg width="28" height="28" viewBox="0 0 28 28" fill="none" xmlns="http://www.w3.org/2000/svg">
<path d="M23.8008 20.1604C23.6332 18.6944 22.9753 17.3192 21.9216 16.2655L19.2034 13.5472C17.9727 12.3165 17.2812 10.6473 17.2812 8.90684V0H10.7188V0.820312C10.7188 2.5608 10.0273 4.22997 8.79665 5.46071L6.07835 8.17901C4.84766 9.4097 4.15625 11.0789 4.15625 12.8194V14.5426C2.28637 14.9236 0.875 16.5808 0.875 18.5616V28H2.51562V18.5616C2.51562 17.4922 3.20146 16.5804 4.15625 16.2418V28H7.4375V12.8194C7.4375 11.9492 7.78318 11.1146 8.39852 10.4992L10.7188 8.17901V28H17.2812V16.2655L19.6015 18.5858C20.2168 19.2011 20.5625 20.0357 20.5625 20.9059V28H23.8438V21.8673C24.7985 22.2059 25.4844 23.1177 25.4844 24.1871V28H27.125V24.1871C27.125 22.1914 25.6919 20.5248 23.8008 20.1604Z" fill="#65C3E8"/>
</svg>
