<svg width="28" height="28" viewBox="0 0 28 28" fill="none" xmlns="http://www.w3.org/2000/svg">
<path d="M20.1506 0C20.3731 0.281656 20.5998 0.558385 20.817 0.8462C21.0725 1.18411 21.3458 1.50723 21.566 1.87962C22.2856 3.10068 21.6774 4.93596 20.4752 5.21023C19.163 5.51036 18.0913 4.06472 18.4424 2.46346C18.5455 1.99253 18.8003 1.63779 19.0651 1.29948C19.3682 0.912713 19.6812 0.538267 19.9883 0.15643C20.0231 0.106979 20.0552 0.0547213 20.0845 0H20.1506Z" fill="#65C3E8"/>
<path d="M11.849 26.25C11.3541 26.1187 10.8869 25.9409 10.5008 25.5817C9.89948 25.0224 9.58669 24.3432 9.62875 23.5168C9.65004 23.1002 10.0247 22.7524 10.4439 22.7346C10.8864 22.7162 11.2853 23.0244 11.3526 23.442C11.3689 23.5411 11.3773 23.6402 11.3932 23.7363C11.463 24.1737 11.7891 24.4665 12.2128 24.4794C12.6617 24.4923 13.0116 24.2223 13.0992 23.7858C13.1214 23.6643 13.1315 23.5408 13.1294 23.4172C13.1314 21.857 13.1314 20.2968 13.1294 18.7366V18.4621C13.6677 18.353 14.2218 18.3463 14.7626 18.4423C14.8092 18.4502 14.8666 18.5741 14.8676 18.6449C14.8765 19.1978 14.8735 19.7512 14.8725 20.3041C14.87 21.4599 14.8864 22.6157 14.8582 23.772C14.8295 24.9451 13.9455 25.9602 12.7963 26.1995C12.7422 26.2128 12.689 26.2294 12.6369 26.249L11.849 26.25Z" fill="#65C3E8"/>
<path d="M13.1356 7.89658C13.1356 7.59681 13.1326 7.31037 13.1356 7.02442C13.1426 6.50686 13.5001 6.13201 13.9878 6.1251C14.5019 6.11819 14.8674 6.4708 14.8853 7.00269C14.8963 7.29654 14.8853 7.59138 14.8853 7.88276C22.3368 8.54552 26.1104 14.7321 26.25 19.2179C26.1872 19.1685 26.1353 19.1334 26.0889 19.0915C24.7501 17.8756 23.1635 17.3546 21.3679 17.4914C20.2112 17.5757 19.1074 18.0053 18.2022 18.7235C18.0097 18.8742 17.903 18.8515 17.723 18.7166C16.461 17.7714 15.0304 17.36 13.4592 17.4928C12.2868 17.5863 11.1696 18.0254 10.2516 18.7537C10.1105 18.8648 10.0192 18.8747 9.87212 18.7601C8.59564 17.763 7.12968 17.3531 5.5266 17.4938C4.18629 17.6114 3.00355 18.1358 1.99931 19.0332C1.933 19.0925 1.86518 19.1507 1.75 19.25C1.82488 18.0835 2.07339 16.9344 2.48747 15.8399C3.30954 13.6463 4.74904 11.7319 6.63554 10.3234C7.57703 9.62362 8.61318 9.05838 9.71356 8.64429C10.809 8.22649 11.9474 8.00227 13.1356 7.89658Z" fill="#65C3E8"/>
<path d="M24.0613 4.375C24.7454 5.05281 25.4917 5.61662 25.9644 6.43677C26.4688 7.31483 26.2897 8.47512 25.5483 9.10301C24.7261 9.7993 23.4045 9.79869 22.573 9.10301C21.8353 8.48682 21.6556 7.31237 22.1625 6.4343C22.6352 5.61415 23.3834 5.04973 24.0613 4.375Z" fill="#65C3E8"/>
<path d="M5.67097 1.75C6.36896 2.44265 7.10473 2.99566 7.57357 3.79548C8.18238 4.8366 7.83617 6.18392 6.83037 6.71673C5.69822 7.31628 4.27437 6.93475 3.74236 5.84954C3.33236 5.01297 3.44941 4.18559 4.0415 3.4758C4.53449 2.88114 5.10056 2.34588 5.67097 1.75Z" fill="#65C3E8"/>
</svg>
