<svg width="28" height="28" viewBox="0 0 28 28" fill="none" xmlns="http://www.w3.org/2000/svg">
<path d="M17.9364 21.731C17.9364 22.2016 17.9417 22.6491 17.9364 23.0987C17.9203 24.2217 17.2874 25.0363 16.2292 25.3024C15.2988 25.5366 14.3631 25.1947 13.789 24.4136C12.5274 22.6998 11.2661 20.9855 10.0049 19.2707C9.89412 19.119 9.80531 19.0615 9.59719 19.1091C7.08638 19.6967 4.59163 18.579 3.43762 16.6576C3.22361 16.3011 3.09039 15.8995 2.90261 15.5273C2.84379 15.3991 2.74993 15.2893 2.63136 15.2099C1.20127 14.3907 0.308342 13.1939 0.0633072 11.5941C-0.218108 9.76427 0.449585 8.25594 1.84917 7.03464C1.98403 6.91524 2.08955 6.76762 2.15787 6.60279C3.10002 4.25012 4.84897 2.88609 7.40097 2.53632C7.85787 2.47358 8.33509 2.56455 8.80323 2.56246C8.94714 2.56246 9.12423 2.52952 9.23123 2.44326C11.5446 0.505177 14.8018 0.339444 17.12 2.0799C17.4276 2.31046 17.7208 2.38157 18.0889 2.38052C21.0592 2.37268 23.5556 4.2407 24.295 7.04196C24.4223 7.52347 24.4432 8.03531 24.4908 8.53356C24.5063 8.6972 24.5368 8.82006 24.6631 8.9424C26.7084 10.9291 26.7849 14.2751 24.8444 16.3664C24.7672 16.4562 24.7221 16.5682 24.716 16.6853C24.6352 18.9794 23.0345 21.2438 20.1347 21.7844C19.4103 21.9198 18.687 21.8779 17.9364 21.731Z" fill="#65C3E8"/>
<path d="M11.025 11.6283V15.3125C11.025 15.5541 11.2209 15.75 11.4625 15.75H14.7875C15.0291 15.75 15.225 15.5541 15.225 15.3125V11.6283C15.225 11.3867 15.4209 11.1908 15.6625 11.1908H17.2915C17.6851 11.1908 17.8785 10.7117 17.5953 10.4385L13.4288 6.41813C13.2593 6.25457 12.9907 6.25457 12.8212 6.41813L8.65469 10.4385C8.37149 10.7117 8.56493 11.1908 8.95848 11.1908H10.5875C10.8291 11.1908 11.025 11.3867 11.025 11.6283Z" fill="#014589"/>
</svg>
