<svg width="28" height="28" viewBox="0 0 28 28" fill="none" xmlns="http://www.w3.org/2000/svg">
<path d="M9.625 14C9.625 16.4231 11.5769 18.375 14 18.375C16.4231 18.375 18.375 16.4231 18.375 14C18.375 11.5769 16.4231 9.625 14 9.625C11.5769 9.625 9.625 11.5769 9.625 14Z" fill="#65C3E8"/>
<path d="M8.86799 1.72778C8.86799 1.72778 7.21067 2.37133 7.51208 3.98382C7.81348 5.59632 9.24481 5.32878 9.7722 6.56527C10.2996 7.80176 8.47657 9.14381 8.47657 9.14381" stroke="#65C3E8" stroke-width="1.75" stroke-linecap="round"/>
<path d="M19.2176 1.75537C19.2176 1.75537 17.5603 2.39892 17.8617 4.01141C18.1631 5.62391 19.5944 5.35637 20.1218 6.59286C20.6492 7.82934 18.8262 9.1714 18.8262 9.1714" stroke="#65C3E8" stroke-width="1.75" stroke-linecap="round"/>
<path d="M13.9676 0.880367C13.9676 0.880367 12.3103 1.52392 12.6117 3.13641C12.9131 4.74891 14.3444 4.48137 14.8718 5.71786C15.3992 6.95434 13.5762 8.2964 13.5762 8.2964" stroke="#65C3E8" stroke-width="1.75" stroke-linecap="round"/>
<path d="M25.2669 19.8103L23.3972 14.4781C23.0692 13.6056 22.1836 12.9916 21.2324 13.1531C20.0188 13.347 19.3628 14.5428 19.7236 15.6415L21.0684 19.4225C19.7564 19.8427 17.4276 20.392 13.9836 20.392C10.5396 20.392 8.21077 19.875 6.89876 19.4225L8.21077 15.7061C8.53877 14.8336 8.17797 13.7995 7.35797 13.347C6.27556 12.7977 4.99635 13.3147 4.63555 14.3812L2.73314 19.8103C2.43794 20.6183 2.76594 21.5231 3.48755 22.0079C3.74995 22.1694 5.58676 23.2682 9.42438 23.8176L9.35878 27.1598C9.35878 27.6445 9.75238 28 10.2116 28H17.7884C18.2804 28 18.6412 27.6122 18.6412 27.1598L18.5756 23.8176C22.4132 23.2682 24.25 22.1694 24.5125 22.0079C25.2341 21.5231 25.5621 20.6183 25.2669 19.8103Z" fill="#65C3E8"/>
</svg>
