<svg width="28" height="28" viewBox="0 0 28 28" fill="none" xmlns="http://www.w3.org/2000/svg">
<path d="M23.1317 19.0226C22.9242 20.2487 22.7168 21.4759 22.4938 22.701C22.4187 23.1698 22.182 23.5983 21.8238 23.9138C21.4657 24.2292 21.0083 24.4121 20.5293 24.4314C19.8406 24.4684 19.1488 24.4458 18.4549 24.4489H18.1375C18.1313 24.5639 18.123 24.6471 18.123 24.7303C18.123 25.2088 18.123 25.6874 18.123 26.168C18.123 26.9258 17.7652 27.2319 17.0121 27.0922C14.695 26.6602 12.3786 26.2231 10.0628 25.7808L6.4108 25.0938C5.94717 25.0065 5.70965 24.7292 5.70965 24.2568C5.70965 22.4032 5.70965 20.5496 5.70135 18.696C5.69595 18.5481 5.63832 18.4067 5.53851 18.2965C3.94328 16.635 2.98282 14.6756 2.70277 12.3968C2.06385 7.19542 5.4213 2.3442 10.5783 1.17658C14.0426 0.392009 17.2217 1.14167 19.9827 3.38551C21.4348 4.56853 22.303 6.15822 22.8496 7.92146C23.3432 9.46518 23.4762 11.0998 23.2385 12.7018C23.2359 12.811 23.2666 12.9183 23.3267 13.0099C23.9272 14.0748 24.5454 15.1295 25.1335 16.2006C25.2732 16.4469 25.3546 16.7215 25.3716 17.0035C25.3887 17.2855 25.3409 17.5677 25.2318 17.8287C25.1228 18.0898 24.9554 18.323 24.7422 18.5108C24.5289 18.6985 24.2755 18.8359 24.0009 18.9127C23.7281 18.9825 23.4377 18.9846 23.1317 19.0226Z" fill="#65C3E8"/>
<path d="M17.5 10.5C15.6771 13.5507 10.9375 14.8598 8.75 10.9375M17.5 10.5L17.0625 13.5625M17.5 10.5H14.875" stroke="#014589" stroke-width="1.75" stroke-linecap="round" stroke-linejoin="round"/>
<path d="M8.75 7.4375C10.5729 4.38683 15.3125 3.0777 17.5 7M8.75 7.4375L9.1875 4.375M8.75 7.4375H11.375" stroke="#014589" stroke-width="1.75" stroke-linecap="round" stroke-linejoin="round"/>
</svg>
