<svg width="28" height="28" viewBox="0 0 28 28" fill="none" xmlns="http://www.w3.org/2000/svg">
<path d="M2.60617 14.8562H3.37136C3.78662 20.0539 7.94615 24.2134 13.1438 24.6287V25.3938C13.1438 25.8651 13.5264 26.25 14 26.25C14.4736 26.25 14.8562 25.8674 14.8562 25.3938V24.6287C20.0538 24.2134 24.2134 20.0539 24.6286 14.8562H25.3938C25.8651 14.8562 26.25 14.4736 26.25 14C26.25 13.5264 25.8674 13.1438 25.3938 13.1438H24.6286C24.2134 7.94614 20.0538 3.7866 14.8562 3.37135V2.60618C14.8562 2.13494 14.4736 1.75 14 1.75C13.5264 1.75 13.1438 2.1326 13.1438 2.60618V3.37135C7.94615 3.7866 3.78662 7.94614 3.37136 13.1438H2.60617C2.13493 13.1438 1.75 13.5264 1.75 14C1.75 14.4736 2.1326 14.8562 2.60617 14.8562ZM14.8538 16.6686C15.75 16.625 16.625 15.75 16.6663 14.8562H20.1332C19.7552 17.588 17.5857 19.7552 14.8538 20.1355V16.6686ZM16.6663 13.1438C16.625 12.25 15.75 11.375 14.8538 11.3314V7.86449C17.5857 8.24242 19.7529 10.412 20.1332 13.1438H16.6663ZM13.1415 11.3314C12.25 11.375 11.375 12.25 11.329 13.1438H7.86217C8.2401 10.412 10.4097 8.24475 13.1415 7.86449V11.3314ZM11.329 14.8562C11.375 15.75 12.25 16.625 13.1415 16.6686V20.1355C10.4097 19.7576 8.24243 17.588 7.86217 14.8562H11.329Z" fill="#65C3E8"/>
</svg>
