<svg width="319" height="149" viewBox="0 0 319 149" fill="none" xmlns="http://www.w3.org/2000/svg">
<circle cx="2.96888" cy="2.96888" r="2.96888" transform="matrix(-1 0 0 1 213.215 60.3616)" fill="url(#paint0_radial_17_6756)"/>
<circle cx="2.96888" cy="2.96888" r="2.96888" transform="matrix(-1 0 0 1 34.75 46.6851)" fill="url(#paint1_radial_17_6756)"/>
<circle opacity="0.6" cx="2.96888" cy="2.96888" r="2.96888" transform="matrix(-1 0 0 1 216.074 7.91992)" fill="url(#paint2_radial_17_6756)"/>
<circle cx="2.96888" cy="2.96888" r="2.96888" transform="matrix(-1 0 0 1 7.53516 106.805)" fill="url(#paint3_radial_17_6756)"/>
<circle cx="2.96888" cy="2.96888" r="2.96888" transform="matrix(-1 0 0 1 153.504 0.172607)" fill="url(#paint4_radial_17_6756)"/>
<circle cx="2.96888" cy="2.96888" r="2.96888" transform="matrix(-1 0 0 1 74.0859 41.7368)" fill="url(#paint5_radial_17_6756)"/>
<circle cx="2.96888" cy="2.96888" r="2.96888" transform="matrix(-1 0 0 1 34.75 103.836)" fill="url(#paint6_radial_17_6756)"/>
<circle cx="2.96888" cy="2.96888" r="2.96888" transform="matrix(-1 0 0 1 45.6367 93.9395)" fill="url(#paint7_radial_17_6756)"/>
<circle cx="2.96888" cy="2.96888" r="2.96888" transform="matrix(-1 0 0 1 221.859 103.577)" fill="url(#paint8_radial_17_6756)"/>
<circle cx="2.96888" cy="2.96888" r="2.96888" transform="matrix(-1 0 0 1 37.7207 71.4258)" fill="url(#paint9_radial_17_6756)"/>
<circle cx="2.96888" cy="2.96888" r="2.96888" transform="matrix(-1 0 0 1 130 23.9236)" fill="url(#paint10_radial_17_6756)"/>
<circle opacity="0.5" cx="2.96888" cy="2.96888" r="2.96888" transform="matrix(-1 0 0 1 208.402 46.5837)" fill="url(#paint11_radial_17_6756)"/>
<circle cx="2.96888" cy="2.96888" r="2.96888" transform="matrix(-1 0 0 1 181.709 85.033)" fill="url(#paint12_radial_17_6756)"/>
<circle opacity="0.5" cx="2.96888" cy="2.96888" r="2.96888" transform="matrix(-1 0 0 1 224.234 104.972)" fill="url(#paint13_radial_17_6756)"/>
<circle opacity="0.5" cx="2.96888" cy="2.96888" r="2.96888" transform="matrix(-1 0 0 1 236.328 55.2126)" fill="url(#paint14_radial_17_6756)"/>
<circle cx="2.96888" cy="2.96888" r="2.96888" transform="matrix(-1 0 0 1 142.867 43.2214)" fill="url(#paint15_radial_17_6756)"/>
<circle cx="2.96888" cy="2.96888" r="2.96888" transform="matrix(-1 0 0 1 162.906 63.5085)" fill="url(#paint16_radial_17_6756)"/>
<circle opacity="0.5" cx="2.96888" cy="2.96888" r="2.96888" transform="matrix(-1 0 0 1 247.986 38.6665)" fill="url(#paint17_radial_17_6756)"/>
<circle cx="2.96888" cy="2.96888" r="2.96888" transform="matrix(-1 0 0 1 14.2129 2.15186)" fill="url(#paint18_radial_17_6756)"/>
<circle cx="2.96888" cy="2.96888" r="2.96888" transform="matrix(-1 0 0 1 47.6133 62.519)" fill="url(#paint19_radial_17_6756)"/>
<circle cx="4.94813" cy="4.94813" r="4.94813" transform="matrix(-1 0 0 1 21.1426 44.7058)" fill="url(#paint20_radial_17_6756)"/>
<circle opacity="0.6" cx="4.94813" cy="4.94813" r="4.94813" transform="matrix(-1 0 0 1 199.746 20.7849)" fill="url(#paint21_radial_17_6756)"/>
<circle cx="4.94813" cy="4.94813" r="4.94813" transform="matrix(-1 0 0 1 167.854 81.0745)" fill="url(#paint22_radial_17_6756)"/>
<circle cx="3.98064" cy="3.98064" r="3.98064" transform="matrix(-1 0 0 1 68.3066 76.6104)" fill="url(#paint23_radial_17_6756)"/>
<circle cx="4.94813" cy="4.94813" r="4.94813" transform="matrix(-1 0 0 1 26.0898 64.498)" fill="url(#paint24_radial_17_6756)"/>
<circle opacity="0.5" cx="4.94813" cy="4.94813" r="4.94813" transform="matrix(-1 0 0 1 254.805 66.6213)" fill="url(#paint25_radial_17_6756)"/>
<circle cx="4.94813" cy="4.94813" r="4.94813" transform="matrix(-1 0 0 1 136.928 138.72)" fill="url(#paint26_radial_17_6756)"/>
<path opacity="0.6" d="M28.8887 28.7279C35.0753 28.7279 36.6674 27.1358 36.6674 20.9492C36.6674 27.1358 38.2595 28.7279 44.4461 28.7279C38.2595 28.7279 36.6674 30.3201 36.6674 36.5066C36.6674 30.3201 35.0753 28.7279 28.8887 28.7279Z" fill="url(#paint27_radial_17_6756)"/>
<path d="M0.539062 80.9318C6.72564 80.9318 8.31777 79.3397 8.31777 73.1531C8.31777 79.3397 9.90991 80.9318 16.0965 80.9318C9.90991 80.9318 8.31777 82.5239 8.31777 88.7105C8.31777 82.5239 6.72564 80.9318 0.539062 80.9318Z" fill="url(#paint28_radial_17_6756)"/>
<path d="M177.375 80.7589C182.324 80.7589 183.598 79.4852 183.598 74.5359C183.598 79.4852 184.872 80.7589 189.821 80.7589C184.872 80.7589 183.598 82.0326 183.598 86.9818C183.598 82.0326 182.324 80.7589 177.375 80.7589Z" fill="url(#paint29_radial_17_6756)"/>
<path d="M47.5586 49.1254C53.7452 49.1254 55.3373 47.5333 55.3373 41.3467C55.3373 47.5333 56.9294 49.1254 63.116 49.1254C56.9294 49.1254 55.3373 50.7175 55.3373 56.9041C55.3373 50.7175 53.7452 49.1254 47.5586 49.1254Z" fill="url(#paint30_radial_17_6756)"/>
<defs>
<radialGradient id="paint0_radial_17_6756" cx="0" cy="0" r="1" gradientUnits="userSpaceOnUse" gradientTransform="translate(2.96888 2.96888) rotate(90) scale(2.96888)">
<stop stop-color="#7DE2FF"/>
<stop offset="0.62963" stop-color="#00C6FF" stop-opacity="0"/>
</radialGradient>
<radialGradient id="paint1_radial_17_6756" cx="0" cy="0" r="1" gradientUnits="userSpaceOnUse" gradientTransform="translate(2.96888 2.96888) rotate(90) scale(2.96888)">
<stop stop-color="#7DE2FF"/>
<stop offset="0.62963" stop-color="#00C6FF" stop-opacity="0"/>
</radialGradient>
<radialGradient id="paint2_radial_17_6756" cx="0" cy="0" r="1" gradientUnits="userSpaceOnUse" gradientTransform="translate(2.96888 2.96888) rotate(90) scale(2.96888)">
<stop stop-color="#7DE2FF"/>
<stop offset="0.62963" stop-color="#00C6FF" stop-opacity="0"/>
</radialGradient>
<radialGradient id="paint3_radial_17_6756" cx="0" cy="0" r="1" gradientUnits="userSpaceOnUse" gradientTransform="translate(2.96888 2.96888) rotate(90) scale(2.96888)">
<stop stop-color="#7DE2FF"/>
<stop offset="0.62963" stop-color="#00C6FF" stop-opacity="0"/>
</radialGradient>
<radialGradient id="paint4_radial_17_6756" cx="0" cy="0" r="1" gradientUnits="userSpaceOnUse" gradientTransform="translate(2.96888 2.96888) rotate(90) scale(2.96888)">
<stop stop-color="#7DE2FF"/>
<stop offset="0.62963" stop-color="#00C6FF" stop-opacity="0"/>
</radialGradient>
<radialGradient id="paint5_radial_17_6756" cx="0" cy="0" r="1" gradientUnits="userSpaceOnUse" gradientTransform="translate(2.96888 2.96888) rotate(90) scale(2.96888)">
<stop stop-color="#7DE2FF"/>
<stop offset="0.62963" stop-color="#00C6FF" stop-opacity="0"/>
</radialGradient>
<radialGradient id="paint6_radial_17_6756" cx="0" cy="0" r="1" gradientUnits="userSpaceOnUse" gradientTransform="translate(2.96888 2.96888) rotate(90) scale(2.96888)">
<stop stop-color="#7DE2FF"/>
<stop offset="0.62963" stop-color="#00C6FF" stop-opacity="0"/>
</radialGradient>
<radialGradient id="paint7_radial_17_6756" cx="0" cy="0" r="1" gradientUnits="userSpaceOnUse" gradientTransform="translate(2.96888 2.96888) rotate(90) scale(2.96888)">
<stop stop-color="#7DE2FF"/>
<stop offset="0.62963" stop-color="#00C6FF" stop-opacity="0"/>
</radialGradient>
<radialGradient id="paint8_radial_17_6756" cx="0" cy="0" r="1" gradientUnits="userSpaceOnUse" gradientTransform="translate(2.96888 2.96888) rotate(90) scale(2.96888)">
<stop stop-color="#7DE2FF"/>
<stop offset="0.62963" stop-color="#00C6FF" stop-opacity="0"/>
</radialGradient>
<radialGradient id="paint9_radial_17_6756" cx="0" cy="0" r="1" gradientUnits="userSpaceOnUse" gradientTransform="translate(2.96888 2.96888) rotate(90) scale(2.96888)">
<stop stop-color="#7DE2FF"/>
<stop offset="0.62963" stop-color="#00C6FF" stop-opacity="0"/>
</radialGradient>
<radialGradient id="paint10_radial_17_6756" cx="0" cy="0" r="1" gradientUnits="userSpaceOnUse" gradientTransform="translate(2.96888 2.96888) rotate(90) scale(2.96888)">
<stop stop-color="#7DE2FF"/>
<stop offset="0.62963" stop-color="#00C6FF" stop-opacity="0"/>
</radialGradient>
<radialGradient id="paint11_radial_17_6756" cx="0" cy="0" r="1" gradientUnits="userSpaceOnUse" gradientTransform="translate(2.96888 2.96888) rotate(90) scale(2.96888)">
<stop stop-color="#7DE2FF"/>
<stop offset="0.62963" stop-color="#00C6FF" stop-opacity="0"/>
</radialGradient>
<radialGradient id="paint12_radial_17_6756" cx="0" cy="0" r="1" gradientUnits="userSpaceOnUse" gradientTransform="translate(2.96888 2.96888) rotate(90) scale(2.96888)">
<stop stop-color="#7DE2FF"/>
<stop offset="0.62963" stop-color="#00C6FF" stop-opacity="0"/>
</radialGradient>
<radialGradient id="paint13_radial_17_6756" cx="0" cy="0" r="1" gradientUnits="userSpaceOnUse" gradientTransform="translate(2.96888 2.96888) rotate(90) scale(2.96888)">
<stop stop-color="#7DE2FF"/>
<stop offset="0.62963" stop-color="#00C6FF" stop-opacity="0"/>
</radialGradient>
<radialGradient id="paint14_radial_17_6756" cx="0" cy="0" r="1" gradientUnits="userSpaceOnUse" gradientTransform="translate(2.96888 2.96888) rotate(90) scale(2.96888)">
<stop stop-color="#7DE2FF"/>
<stop offset="0.62963" stop-color="#00C6FF" stop-opacity="0"/>
</radialGradient>
<radialGradient id="paint15_radial_17_6756" cx="0" cy="0" r="1" gradientUnits="userSpaceOnUse" gradientTransform="translate(2.96888 2.96888) rotate(90) scale(2.96888)">
<stop stop-color="#7DE2FF"/>
<stop offset="0.62963" stop-color="#00C6FF" stop-opacity="0"/>
</radialGradient>
<radialGradient id="paint16_radial_17_6756" cx="0" cy="0" r="1" gradientUnits="userSpaceOnUse" gradientTransform="translate(2.96888 2.96888) rotate(90) scale(2.96888)">
<stop stop-color="#7DE2FF"/>
<stop offset="0.62963" stop-color="#00C6FF" stop-opacity="0"/>
</radialGradient>
<radialGradient id="paint17_radial_17_6756" cx="0" cy="0" r="1" gradientUnits="userSpaceOnUse" gradientTransform="translate(2.96888 2.96888) rotate(90) scale(2.96888)">
<stop stop-color="#7DE2FF"/>
<stop offset="0.62963" stop-color="#00C6FF" stop-opacity="0"/>
</radialGradient>
<radialGradient id="paint18_radial_17_6756" cx="0" cy="0" r="1" gradientUnits="userSpaceOnUse" gradientTransform="translate(2.96888 2.96888) rotate(90) scale(2.96888)">
<stop stop-color="#7DE2FF"/>
<stop offset="0.62963" stop-color="#00C6FF" stop-opacity="0"/>
</radialGradient>
<radialGradient id="paint19_radial_17_6756" cx="0" cy="0" r="1" gradientUnits="userSpaceOnUse" gradientTransform="translate(2.96888 2.96888) rotate(90) scale(2.96888)">
<stop stop-color="#7DE2FF"/>
<stop offset="0.62963" stop-color="#00C6FF" stop-opacity="0"/>
</radialGradient>
<radialGradient id="paint20_radial_17_6756" cx="0" cy="0" r="1" gradientUnits="userSpaceOnUse" gradientTransform="translate(4.94813 4.94813) rotate(90) scale(4.94813)">
<stop stop-color="white"/>
<stop offset="0.62963" stop-color="#7DE2FF" stop-opacity="0"/>
</radialGradient>
<radialGradient id="paint21_radial_17_6756" cx="0" cy="0" r="1" gradientUnits="userSpaceOnUse" gradientTransform="translate(4.94813 4.94813) rotate(90) scale(4.94813)">
<stop stop-color="white"/>
<stop offset="0.62963" stop-color="#7DE2FF" stop-opacity="0"/>
</radialGradient>
<radialGradient id="paint22_radial_17_6756" cx="0" cy="0" r="1" gradientUnits="userSpaceOnUse" gradientTransform="translate(4.94813 4.94813) rotate(90) scale(4.94813)">
<stop stop-color="white"/>
<stop offset="0.62963" stop-color="#7DE2FF" stop-opacity="0"/>
</radialGradient>
<radialGradient id="paint23_radial_17_6756" cx="0" cy="0" r="1" gradientUnits="userSpaceOnUse" gradientTransform="translate(3.98064 3.98064) rotate(90) scale(3.98064)">
<stop stop-color="white"/>
<stop offset="0.62963" stop-color="#7DE2FF" stop-opacity="0"/>
</radialGradient>
<radialGradient id="paint24_radial_17_6756" cx="0" cy="0" r="1" gradientUnits="userSpaceOnUse" gradientTransform="translate(4.94813 4.94813) rotate(90) scale(4.94813)">
<stop stop-color="white"/>
<stop offset="0.62963" stop-color="#7DE2FF" stop-opacity="0"/>
</radialGradient>
<radialGradient id="paint25_radial_17_6756" cx="0" cy="0" r="1" gradientUnits="userSpaceOnUse" gradientTransform="translate(4.94813 4.94813) rotate(90) scale(4.94813)">
<stop stop-color="white"/>
<stop offset="0.62963" stop-color="#7DE2FF" stop-opacity="0"/>
</radialGradient>
<radialGradient id="paint26_radial_17_6756" cx="0" cy="0" r="1" gradientUnits="userSpaceOnUse" gradientTransform="translate(4.94813 4.94813) rotate(90) scale(4.94813)">
<stop stop-color="white"/>
<stop offset="0.62963" stop-color="#7DE2FF" stop-opacity="0"/>
</radialGradient>
<radialGradient id="paint27_radial_17_6756" cx="0" cy="0" r="1" gradientUnits="userSpaceOnUse" gradientTransform="translate(36.6674 28.7279) rotate(90) scale(7.77872)">
<stop stop-color="white"/>
<stop offset="0.62963" stop-color="#7DE2FF" stop-opacity="0"/>
</radialGradient>
<radialGradient id="paint28_radial_17_6756" cx="0" cy="0" r="1" gradientUnits="userSpaceOnUse" gradientTransform="translate(8.31778 80.9318) rotate(90) scale(7.77872)">
<stop stop-color="white"/>
<stop offset="0.62963" stop-color="#7DE2FF" stop-opacity="0"/>
</radialGradient>
<radialGradient id="paint29_radial_17_6756" cx="0" cy="0" r="1" gradientUnits="userSpaceOnUse" gradientTransform="translate(183.598 80.7589) rotate(90) scale(6.22297)">
<stop stop-color="white"/>
<stop offset="0.62963" stop-color="#7DE2FF" stop-opacity="0"/>
</radialGradient>
<radialGradient id="paint30_radial_17_6756" cx="0" cy="0" r="1" gradientUnits="userSpaceOnUse" gradientTransform="translate(55.3373 49.1254) rotate(90) scale(7.77872)">
<stop stop-color="white"/>
<stop offset="0.62963" stop-color="#7DE2FF" stop-opacity="0"/>
</radialGradient>
</defs>
</svg>
